<?xml version="1.0" encoding="UTF-8" standalone="no"?>
<!DOCTYPE svg PUBLIC "-//W3C//DTD SVG 1.1//EN"
 "http://www.w3.org/Graphics/SVG/1.1/DTD/svg11.dtd">
<!-- Generated by graphviz version 2.43.0 (0)
 -->
<!-- Title: all.hpp Pages: 1 -->
<svg width="1908pt" height="420pt"
 viewBox="0.00 0.00 1908.00 420.00" xmlns="http://www.w3.org/2000/svg" xmlns:xlink="http://www.w3.org/1999/xlink">
<g id="graph0" class="graph" transform="scale(1 1) rotate(0) translate(4 416)">
<title>all.hpp</title>
<!-- Node1 -->
<g id="node1" class="node">
<title>Node1</title>
<g id="a_node1"><a xlink:title=" ">
<polygon fill="#bfbfbf" stroke="black" points="670,-392.5 670,-411.5 720,-411.5 720,-392.5 670,-392.5"/>
<text text-anchor="middle" x="695" y="-399.5" font-family="Helvetica,sans-Serif" font-size="10.00">all.hpp</text>
</a>
</g>
</g>
<!-- Node2 -->
<g id="node2" class="node">
<title>Node2</title>
<g id="a_node2"><a xlink:href="constraint_8hpp.html" target="_top" xlink:title=" ">
<polygon fill="none" stroke="black" points="52,-224.5 52,-243.5 138,-243.5 138,-224.5 52,-224.5"/>
<text text-anchor="middle" x="95" y="-231.5" font-family="Helvetica,sans-Serif" font-size="10.00">constraint.hpp</text>
</a>
</g>
</g>
<!-- Node1&#45;&gt;Node2 -->
<g id="edge1" class="edge">
<title>Node1&#45;&gt;Node2</title>
<path fill="none" stroke="midnightblue" d="M669.96,-399.82C591.71,-395.89 352.67,-382 280,-356 244.56,-343.32 154.81,-279.03 114.79,-249.66"/>
<polygon fill="midnightblue" stroke="midnightblue" points="116.73,-246.75 106.61,-243.64 112.58,-252.39 116.73,-246.75"/>
</g>
<!-- Node3 -->
<g id="node3" class="node">
<title>Node3</title>
<g id="a_node3"><a xlink:href="constraint__min__max_8hpp.html" target="_top" xlink:title=" ">
<polygon fill="none" stroke="black" points="90.5,-336.5 90.5,-355.5 227.5,-355.5 227.5,-336.5 90.5,-336.5"/>
<text text-anchor="middle" x="159" y="-343.5" font-family="Helvetica,sans-Serif" font-size="10.00">constraint_min_max.hpp</text>
</a>
</g>
</g>
<!-- Node1&#45;&gt;Node3 -->
<g id="edge2" class="edge">
<title>Node1&#45;&gt;Node3</title>
<path fill="none" stroke="midnightblue" d="M669.95,-398.59C601.42,-391.98 405.12,-372.95 242,-356 240.7,-355.87 239.39,-355.73 238.08,-355.59"/>
<polygon fill="midnightblue" stroke="midnightblue" points="238.15,-352.08 227.84,-354.51 237.42,-359.04 238.15,-352.08"/>
</g>
<!-- Node4 -->
<g id="node4" class="node">
<title>Node4</title>
<g id="a_node4"><a xlink:href="constraint__one__of_8hpp.html" target="_top" xlink:title=" ">
<polygon fill="none" stroke="black" points="0,-280.5 0,-299.5 124,-299.5 124,-280.5 0,-280.5"/>
<text text-anchor="middle" x="62" y="-287.5" font-family="Helvetica,sans-Serif" font-size="10.00">constraint_one_of.hpp</text>
</a>
</g>
</g>
<!-- Node1&#45;&gt;Node4 -->
<g id="edge4" class="edge">
<title>Node1&#45;&gt;Node4</title>
<path fill="none" stroke="midnightblue" d="M669.7,-400.82C559.82,-399.82 127.39,-393.5 81,-356 67.45,-345.05 63.22,-324.99 62.06,-310.04"/>
<polygon fill="midnightblue" stroke="midnightblue" points="65.55,-309.7 61.67,-299.84 58.56,-309.97 65.55,-309.7"/>
</g>
<!-- Node6 -->
<g id="node6" class="node">
<title>Node6</title>
<g id="a_node6"><a xlink:href="exceptions_8hpp.html" target="_top" xlink:title=" ">
<polygon fill="none" stroke="black" points="686.5,-168.5 686.5,-187.5 777.5,-187.5 777.5,-168.5 686.5,-168.5"/>
<text text-anchor="middle" x="732" y="-175.5" font-family="Helvetica,sans-Serif" font-size="10.00">exceptions.hpp</text>
</a>
</g>
</g>
<!-- Node1&#45;&gt;Node6 -->
<g id="edge7" class="edge">
<title>Node1&#45;&gt;Node6</title>
<path fill="none" stroke="midnightblue" d="M669.74,-398.12C573.72,-386.27 241.76,-336.47 342,-224 363.84,-199.5 573.64,-186.39 676.16,-181.4"/>
<polygon fill="midnightblue" stroke="midnightblue" points="676.51,-184.89 686.33,-180.92 676.18,-177.9 676.51,-184.89"/>
</g>
<!-- Node15 -->
<g id="node15" class="node">
<title>Node15</title>
<g id="a_node15"><a xlink:href="parser_8hpp.html" target="_top" xlink:title=" ">
<polygon fill="none" stroke="black" points="1471,-280.5 1471,-299.5 1539,-299.5 1539,-280.5 1471,-280.5"/>
<text text-anchor="middle" x="1505" y="-287.5" font-family="Helvetica,sans-Serif" font-size="10.00">parser.hpp</text>
</a>
</g>
</g>
<!-- Node1&#45;&gt;Node15 -->
<g id="edge16" class="edge">
<title>Node1&#45;&gt;Node15</title>
<path fill="none" stroke="midnightblue" d="M720.05,-399.59C791.81,-395.37 1004.26,-381.47 1179,-356 1280.7,-341.17 1398.67,-315.52 1461.05,-301.28"/>
<polygon fill="midnightblue" stroke="midnightblue" points="1461.98,-304.66 1470.94,-299.01 1460.41,-297.83 1461.98,-304.66"/>
</g>
<!-- Node19 -->
<g id="node19" class="node">
<title>Node19</title>
<g id="a_node19"><a xlink:href="tag_8hpp.html" target="_top" xlink:title=" ">
<polygon fill="none" stroke="black" points="1138.5,-224.5 1138.5,-243.5 1191.5,-243.5 1191.5,-224.5 1138.5,-224.5"/>
<text text-anchor="middle" x="1165" y="-231.5" font-family="Helvetica,sans-Serif" font-size="10.00">tag.hpp</text>
</a>
</g>
</g>
<!-- Node1&#45;&gt;Node19 -->
<g id="edge48" class="edge">
<title>Node1&#45;&gt;Node19</title>
<path fill="none" stroke="midnightblue" d="M720.26,-398.69C805.83,-390.37 1082.89,-359.24 1146,-300 1158.58,-288.19 1162.98,-268.56 1164.45,-253.95"/>
<polygon fill="midnightblue" stroke="midnightblue" points="1167.96,-253.76 1165.09,-243.56 1160.98,-253.33 1167.96,-253.76"/>
</g>
<!-- Node22 -->
<g id="node22" class="node">
<title>Node22</title>
<g id="a_node22"><a xlink:href="parser__info_8hpp.html" target="_top" xlink:title=" ">
<polygon fill="none" stroke="black" points="834,-168.5 834,-187.5 926,-187.5 926,-168.5 834,-168.5"/>
<text text-anchor="middle" x="880" y="-175.5" font-family="Helvetica,sans-Serif" font-size="10.00">parser_info.hpp</text>
</a>
</g>
</g>
<!-- Node1&#45;&gt;Node22 -->
<g id="edge47" class="edge">
<title>Node1&#45;&gt;Node22</title>
<path fill="none" stroke="midnightblue" d="M702.25,-392.3C729.93,-359.08 829.24,-239.92 866.1,-195.68"/>
<polygon fill="midnightblue" stroke="midnightblue" points="868.88,-197.81 872.6,-187.88 863.51,-193.33 868.88,-197.81"/>
</g>
<!-- Node28 -->
<g id="node28" class="node">
<title>Node28</title>
<g id="a_node28"><a xlink:href="tag__no__value_8hpp.html" target="_top" xlink:title=" ">
<polygon fill="none" stroke="black" points="884.5,-280.5 884.5,-299.5 987.5,-299.5 987.5,-280.5 884.5,-280.5"/>
<text text-anchor="middle" x="936" y="-287.5" font-family="Helvetica,sans-Serif" font-size="10.00">tag_no_value.hpp</text>
</a>
</g>
</g>
<!-- Node1&#45;&gt;Node28 -->
<g id="edge49" class="edge">
<title>Node1&#45;&gt;Node28</title>
<path fill="none" stroke="midnightblue" d="M713.91,-392.37C756.15,-373.09 858.32,-326.45 907.98,-303.79"/>
<polygon fill="midnightblue" stroke="midnightblue" points="909.53,-306.93 917.18,-299.59 906.63,-300.56 909.53,-306.93"/>
</g>
<!-- Node29 -->
<g id="node29" class="node">
<title>Node29</title>
<g id="a_node29"><a xlink:href="tag__scalar_8hpp.html" target="_top" xlink:title=" ">
<polygon fill="none" stroke="black" points="396.5,-280.5 396.5,-299.5 483.5,-299.5 483.5,-280.5 396.5,-280.5"/>
<text text-anchor="middle" x="440" y="-287.5" font-family="Helvetica,sans-Serif" font-size="10.00">tag_scalar.hpp</text>
</a>
</g>
</g>
<!-- Node1&#45;&gt;Node29 -->
<g id="edge56" class="edge">
<title>Node1&#45;&gt;Node29</title>
<path fill="none" stroke="midnightblue" d="M674.99,-392.37C630.21,-373.05 521.74,-326.26 469.32,-303.65"/>
<polygon fill="midnightblue" stroke="midnightblue" points="470.48,-300.34 459.92,-299.59 467.71,-306.77 470.48,-300.34"/>
</g>
<!-- Node33 -->
<g id="node33" class="node">
<title>Node33</title>
<g id="a_node33"><a xlink:href="tag__scalar__vector_8hpp.html" target="_top" xlink:title=" ">
<polygon fill="none" stroke="black" points="560.5,-280.5 560.5,-299.5 683.5,-299.5 683.5,-280.5 560.5,-280.5"/>
<text text-anchor="middle" x="622" y="-287.5" font-family="Helvetica,sans-Serif" font-size="10.00">tag_scalar_vector.hpp</text>
</a>
</g>
</g>
<!-- Node1&#45;&gt;Node33 -->
<g id="edge72" class="edge">
<title>Node1&#45;&gt;Node33</title>
<path fill="none" stroke="midnightblue" d="M689.27,-392.37C677.22,-374.22 649.08,-331.8 633.28,-307.99"/>
<polygon fill="midnightblue" stroke="midnightblue" points="636.15,-305.99 627.7,-299.59 630.31,-309.86 636.15,-305.99"/>
</g>
<!-- Node34 -->
<g id="node34" class="node">
<title>Node34</title>
<g id="a_node34"><a xlink:href="tag__vector__of__tags_8hpp.html" target="_top" xlink:title=" ">
<polygon fill="none" stroke="black" points="1005.5,-280.5 1005.5,-299.5 1136.5,-299.5 1136.5,-280.5 1005.5,-280.5"/>
<text text-anchor="middle" x="1071" y="-287.5" font-family="Helvetica,sans-Serif" font-size="10.00">tag_vector_of_tags.hpp</text>
</a>
</g>
</g>
<!-- Node1&#45;&gt;Node34 -->
<g id="edge84" class="edge">
<title>Node1&#45;&gt;Node34</title>
<path fill="none" stroke="midnightblue" d="M720.25,-393.61C784.55,-374.8 954.77,-325 1031.96,-302.42"/>
<polygon fill="midnightblue" stroke="midnightblue" points="1033.16,-305.72 1041.78,-299.55 1031.2,-299 1033.16,-305.72"/>
</g>
<!-- Node35 -->
<g id="node35" class="node">
<title>Node35</title>
<g id="a_node35"><a xlink:href="utils_8hpp.html" target="_top" xlink:title=" ">
<polygon fill="none" stroke="black" points="1522.5,-336.5 1522.5,-355.5 1581.5,-355.5 1581.5,-336.5 1522.5,-336.5"/>
<text text-anchor="middle" x="1552" y="-343.5" font-family="Helvetica,sans-Serif" font-size="10.00">utils.hpp</text>
</a>
</g>
</g>
<!-- Node1&#45;&gt;Node35 -->
<g id="edge90" class="edge">
<title>Node1&#45;&gt;Node35</title>
<path fill="none" stroke="midnightblue" d="M720.18,-399.41C841.14,-391.79 1362.74,-358.93 1511.97,-349.52"/>
<polygon fill="midnightblue" stroke="midnightblue" points="1512.3,-353.01 1522.06,-348.89 1511.86,-346.02 1512.3,-353.01"/>
</g>
<!-- Node3&#45;&gt;Node2 -->
<g id="edge3" class="edge">
<title>Node3&#45;&gt;Node2</title>
<path fill="none" stroke="midnightblue" d="M156.46,-336.17C152.54,-323.27 144.26,-298.75 133,-280 126.76,-269.61 118.16,-259.2 110.71,-251.01"/>
<polygon fill="midnightblue" stroke="midnightblue" points="113.19,-248.53 103.79,-243.65 108.09,-253.33 113.19,-248.53"/>
</g>
<!-- Node4&#45;&gt;Node2 -->
<g id="edge5" class="edge">
<title>Node4&#45;&gt;Node2</title>
<path fill="none" stroke="midnightblue" d="M67.45,-280.08C72.01,-272.61 78.67,-261.72 84.29,-252.52"/>
<polygon fill="midnightblue" stroke="midnightblue" points="87.42,-254.11 89.65,-243.75 81.45,-250.46 87.42,-254.11"/>
</g>
<!-- Node5 -->
<g id="node5" class="node">
<title>Node5</title>
<g id="a_node5"><a xlink:title=" ">
<polygon fill="none" stroke="#bfbfbf" points="2,-224.5 2,-243.5 34,-243.5 34,-224.5 2,-224.5"/>
<text text-anchor="middle" x="18" y="-231.5" font-family="Helvetica,sans-Serif" font-size="10.00">set</text>
</a>
</g>
</g>
<!-- Node4&#45;&gt;Node5 -->
<g id="edge6" class="edge">
<title>Node4&#45;&gt;Node5</title>
<path fill="none" stroke="midnightblue" d="M54.73,-280.08C48.46,-272.38 39.21,-261.03 31.57,-251.65"/>
<polygon fill="midnightblue" stroke="midnightblue" points="34.16,-249.29 25.13,-243.75 28.73,-253.71 34.16,-249.29"/>
</g>
<!-- Node7 -->
<g id="node7" class="node">
<title>Node7</title>
<g id="a_node7"><a xlink:title=" ">
<polygon fill="none" stroke="#bfbfbf" points="765.5,-112.5 765.5,-131.5 830.5,-131.5 830.5,-112.5 765.5,-112.5"/>
<text text-anchor="middle" x="798" y="-119.5" font-family="Helvetica,sans-Serif" font-size="10.00">stdexcept</text>
</a>
</g>
</g>
<!-- Node6&#45;&gt;Node7 -->
<g id="edge8" class="edge">
<title>Node6&#45;&gt;Node7</title>
<path fill="none" stroke="midnightblue" d="M742.6,-168.32C752.46,-160.26 767.35,-148.08 779.22,-138.37"/>
<polygon fill="midnightblue" stroke="midnightblue" points="781.68,-140.88 787.2,-131.83 777.25,-135.46 781.68,-140.88"/>
</g>
<!-- Node8 -->
<g id="node8" class="node">
<title>Node8</title>
<g id="a_node8"><a xlink:href="types_8hpp.html" target="_top" xlink:title=" ">
<polygon fill="none" stroke="black" points="847.5,-56.5 847.5,-75.5 912.5,-75.5 912.5,-56.5 847.5,-56.5"/>
<text text-anchor="middle" x="880" y="-63.5" font-family="Helvetica,sans-Serif" font-size="10.00">types.hpp</text>
</a>
</g>
</g>
<!-- Node6&#45;&gt;Node8 -->
<g id="edge9" class="edge">
<title>Node6&#45;&gt;Node8</title>
<path fill="none" stroke="midnightblue" d="M733.06,-168.17C735.16,-154.35 741.14,-127.6 757,-112 778.61,-90.74 811.06,-79.42 837.21,-73.45"/>
<polygon fill="midnightblue" stroke="midnightblue" points="838.18,-76.83 847.25,-71.35 836.75,-69.98 838.18,-76.83"/>
</g>
<!-- Node9 -->
<g id="node9" class="node">
<title>Node9</title>
<g id="a_node9"><a xlink:title=" ">
<polygon fill="none" stroke="#bfbfbf" points="858,-0.5 858,-19.5 902,-19.5 902,-0.5 858,-0.5"/>
<text text-anchor="middle" x="880" y="-7.5" font-family="Helvetica,sans-Serif" font-size="10.00">string</text>
</a>
</g>
</g>
<!-- Node8&#45;&gt;Node9 -->
<g id="edge10" class="edge">
<title>Node8&#45;&gt;Node9</title>
<path fill="none" stroke="midnightblue" d="M880,-56.08C880,-49.01 880,-38.86 880,-29.99"/>
<polygon fill="midnightblue" stroke="midnightblue" points="883.5,-29.75 880,-19.75 876.5,-29.75 883.5,-29.75"/>
</g>
<!-- Node10 -->
<g id="node10" class="node">
<title>Node10</title>
<g id="a_node10"><a xlink:title=" ">
<polygon fill="none" stroke="#bfbfbf" points="920,-0.5 920,-19.5 980,-19.5 980,-0.5 920,-0.5"/>
<text text-anchor="middle" x="950" y="-7.5" font-family="Helvetica,sans-Serif" font-size="10.00">iostream</text>
</a>
</g>
</g>
<!-- Node8&#45;&gt;Node10 -->
<g id="edge11" class="edge">
<title>Node8&#45;&gt;Node10</title>
<path fill="none" stroke="midnightblue" d="M891.25,-56.32C901.8,-48.18 917.8,-35.84 930.44,-26.09"/>
<polygon fill="midnightblue" stroke="midnightblue" points="932.77,-28.71 938.55,-19.83 928.49,-23.17 932.77,-28.71"/>
</g>
<!-- Node11 -->
<g id="node11" class="node">
<title>Node11</title>
<g id="a_node11"><a xlink:title=" ">
<polygon fill="none" stroke="#bfbfbf" points="998.5,-0.5 998.5,-19.5 1055.5,-19.5 1055.5,-0.5 998.5,-0.5"/>
<text text-anchor="middle" x="1027" y="-7.5" font-family="Helvetica,sans-Serif" font-size="10.00">cwctype</text>
</a>
</g>
</g>
<!-- Node8&#45;&gt;Node11 -->
<g id="edge12" class="edge">
<title>Node8&#45;&gt;Node11</title>
<path fill="none" stroke="midnightblue" d="M903.29,-56.44C927.81,-47.44 966.6,-33.19 994.2,-23.05"/>
<polygon fill="midnightblue" stroke="midnightblue" points="995.64,-26.25 1003.82,-19.52 993.22,-19.68 995.64,-26.25"/>
</g>
<!-- Node12 -->
<g id="node12" class="node">
<title>Node12</title>
<g id="a_node12"><a xlink:title=" ">
<polygon fill="none" stroke="#bfbfbf" points="692.5,-0.5 692.5,-19.5 741.5,-19.5 741.5,-0.5 692.5,-0.5"/>
<text text-anchor="middle" x="717" y="-7.5" font-family="Helvetica,sans-Serif" font-size="10.00">cctype</text>
</a>
</g>
</g>
<!-- Node8&#45;&gt;Node12 -->
<g id="edge13" class="edge">
<title>Node8&#45;&gt;Node12</title>
<path fill="none" stroke="midnightblue" d="M854.17,-56.44C826.43,-47.25 782.2,-32.6 751.49,-22.43"/>
<polygon fill="midnightblue" stroke="midnightblue" points="752.23,-18.99 741.64,-19.16 750.03,-25.63 752.23,-18.99"/>
</g>
<!-- Node13 -->
<g id="node13" class="node">
<title>Node13</title>
<g id="a_node13"><a xlink:title=" ">
<polygon fill="none" stroke="#bfbfbf" points="361.5,-0.5 361.5,-19.5 414.5,-19.5 414.5,-0.5 361.5,-0.5"/>
<text text-anchor="middle" x="388" y="-7.5" font-family="Helvetica,sans-Serif" font-size="10.00">QString</text>
</a>
</g>
</g>
<!-- Node8&#45;&gt;Node13 -->
<g id="edge14" class="edge">
<title>Node8&#45;&gt;Node13</title>
<path fill="none" stroke="midnightblue" d="M847.34,-61.42C759.3,-51.75 517.5,-25.21 424.82,-15.04"/>
<polygon fill="midnightblue" stroke="midnightblue" points="425.11,-11.55 414.79,-13.94 424.34,-18.51 425.11,-11.55"/>
</g>
<!-- Node14 -->
<g id="node14" class="node">
<title>Node14</title>
<g id="a_node14"><a xlink:title=" ">
<polygon fill="none" stroke="#bfbfbf" points="760,-0.5 760,-19.5 840,-19.5 840,-0.5 760,-0.5"/>
<text text-anchor="middle" x="800" y="-7.5" font-family="Helvetica,sans-Serif" font-size="10.00">QTextStream</text>
</a>
</g>
</g>
<!-- Node8&#45;&gt;Node14 -->
<g id="edge15" class="edge">
<title>Node8&#45;&gt;Node14</title>
<path fill="none" stroke="midnightblue" d="M867.15,-56.32C854.78,-47.98 835.87,-35.21 821.26,-25.35"/>
<polygon fill="midnightblue" stroke="midnightblue" points="823.07,-22.35 812.82,-19.65 819.15,-28.15 823.07,-22.35"/>
</g>
<!-- Node15&#45;&gt;Node6 -->
<g id="edge32" class="edge">
<title>Node15&#45;&gt;Node6</title>
<path fill="none" stroke="midnightblue" d="M1489.07,-280.38C1472.66,-271.45 1446.4,-257 1424,-244 1409.17,-235.39 1407.36,-229.14 1391,-224 1270.75,-186.25 950.63,-198.07 825,-188 813,-187.04 800.14,-185.88 787.93,-184.71"/>
<polygon fill="midnightblue" stroke="midnightblue" points="788.15,-181.22 777.86,-183.74 787.47,-188.19 788.15,-181.22"/>
</g>
<!-- Node15&#45;&gt;Node8 -->
<g id="edge17" class="edge">
<title>Node15&#45;&gt;Node8</title>
<path fill="none" stroke="midnightblue" d="M1539.12,-286.21C1594.23,-281.04 1699.48,-268.23 1727,-244 1772.47,-203.97 1802.73,-155.92 1761,-112 1731.84,-81.31 1095.77,-70.07 922.98,-67.57"/>
<polygon fill="midnightblue" stroke="midnightblue" points="922.8,-64.07 912.75,-67.42 922.7,-71.07 922.8,-64.07"/>
</g>
<!-- Node16 -->
<g id="node16" class="node">
<title>Node16</title>
<g id="a_node16"><a xlink:href="input__stream_8hpp.html" target="_top" xlink:title=" ">
<polygon fill="none" stroke="black" points="1611,-168.5 1611,-187.5 1713,-187.5 1713,-168.5 1611,-168.5"/>
<text text-anchor="middle" x="1662" y="-175.5" font-family="Helvetica,sans-Serif" font-size="10.00">input_stream.hpp</text>
</a>
</g>
</g>
<!-- Node15&#45;&gt;Node16 -->
<g id="edge18" class="edge">
<title>Node15&#45;&gt;Node16</title>
<path fill="none" stroke="midnightblue" d="M1539.15,-285.72C1587.6,-280.27 1672.46,-267.56 1691,-244 1702.63,-229.23 1690.19,-209.05 1678.19,-195.12"/>
<polygon fill="midnightblue" stroke="midnightblue" points="1680.71,-192.69 1671.35,-187.72 1675.57,-197.44 1680.71,-192.69"/>
</g>
<!-- Node17 -->
<g id="node17" class="node">
<title>Node17</title>
<g id="a_node17"><a xlink:href="const_8hpp.html" target="_top" xlink:title=" ">
<polygon fill="none" stroke="black" points="645,-112.5 645,-131.5 709,-131.5 709,-112.5 645,-112.5"/>
<text text-anchor="middle" x="677" y="-119.5" font-family="Helvetica,sans-Serif" font-size="10.00">const.hpp</text>
</a>
</g>
</g>
<!-- Node15&#45;&gt;Node17 -->
<g id="edge38" class="edge">
<title>Node15&#45;&gt;Node17</title>
<path fill="none" stroke="midnightblue" d="M1510.73,-280.09C1518.57,-266.63 1530.35,-240.92 1518,-224 1469.85,-158.04 1423.26,-183.06 1343,-168 1086.54,-119.87 1016.96,-154.59 757,-132 744.83,-130.94 731.65,-129.56 719.56,-128.19"/>
<polygon fill="midnightblue" stroke="midnightblue" points="719.61,-124.68 709.27,-127.01 718.8,-131.63 719.61,-124.68"/>
</g>
<!-- Node18 -->
<g id="node18" class="node">
<title>Node18</title>
<g id="a_node18"><a xlink:title=" ">
<polygon fill="none" stroke="#bfbfbf" points="1708.5,-112.5 1708.5,-131.5 1751.5,-131.5 1751.5,-112.5 1708.5,-112.5"/>
<text text-anchor="middle" x="1730" y="-119.5" font-family="Helvetica,sans-Serif" font-size="10.00">stack</text>
</a>
</g>
</g>
<!-- Node15&#45;&gt;Node18 -->
<g id="edge44" class="edge">
<title>Node15&#45;&gt;Node18</title>
<path fill="none" stroke="midnightblue" d="M1539.12,-285.66C1590.24,-279.97 1683.26,-266.75 1707,-244 1734.83,-217.33 1734.87,-168.23 1732.46,-141.51"/>
<polygon fill="midnightblue" stroke="midnightblue" points="1735.94,-141.11 1731.35,-131.56 1728.98,-141.88 1735.94,-141.11"/>
</g>
<!-- Node15&#45;&gt;Node19 -->
<g id="edge23" class="edge">
<title>Node15&#45;&gt;Node19</title>
<path fill="none" stroke="midnightblue" d="M1470.84,-283.58C1406.58,-273.37 1268.23,-251.39 1201.91,-240.86"/>
<polygon fill="midnightblue" stroke="midnightblue" points="1202.34,-237.39 1191.91,-239.27 1201.24,-244.3 1202.34,-237.39"/>
</g>
<!-- Node20 -->
<g id="node20" class="node">
<title>Node20</title>
<g id="a_node20"><a xlink:title=" ">
<polygon fill="none" stroke="#bfbfbf" points="1236,-168.5 1236,-187.5 1334,-187.5 1334,-168.5 1236,-168.5"/>
<text text-anchor="middle" x="1285" y="-175.5" font-family="Helvetica,sans-Serif" font-size="10.00">QDomDocument</text>
</a>
</g>
</g>
<!-- Node15&#45;&gt;Node20 -->
<g id="edge45" class="edge">
<title>Node15&#45;&gt;Node20</title>
<path fill="none" stroke="midnightblue" d="M1507.3,-280.18C1510.31,-266.38 1513.74,-239.65 1500,-224 1489.68,-212.25 1404.34,-197.09 1344.33,-187.7"/>
<polygon fill="midnightblue" stroke="midnightblue" points="1344.61,-184.21 1334.19,-186.14 1343.54,-191.12 1344.61,-184.21"/>
</g>
<!-- Node21 -->
<g id="node21" class="node">
<title>Node21</title>
<g id="a_node21"><a xlink:title=" ">
<polygon fill="none" stroke="#bfbfbf" points="1010,-168.5 1010,-187.5 1098,-187.5 1098,-168.5 1010,-168.5"/>
<text text-anchor="middle" x="1054" y="-175.5" font-family="Helvetica,sans-Serif" font-size="10.00">QDomElement</text>
</a>
</g>
</g>
<!-- Node15&#45;&gt;Node21 -->
<g id="edge46" class="edge">
<title>Node15&#45;&gt;Node21</title>
<path fill="none" stroke="midnightblue" d="M1502.12,-280.46C1496.76,-266.05 1483.77,-237.16 1462,-224 1396.59,-184.46 1200.46,-197.59 1108.14,-187.92"/>
<polygon fill="midnightblue" stroke="midnightblue" points="1108.56,-184.45 1098.21,-186.74 1107.73,-191.4 1108.56,-184.45"/>
</g>
<!-- Node15&#45;&gt;Node22 -->
<g id="edge37" class="edge">
<title>Node15&#45;&gt;Node22</title>
<path fill="none" stroke="midnightblue" d="M1497.57,-280.31C1484.44,-265.65 1455.54,-236.41 1424,-224 1325.58,-185.27 1059.12,-199.78 936.13,-187.8"/>
<polygon fill="midnightblue" stroke="midnightblue" points="936.42,-184.32 926.1,-186.73 935.67,-191.28 936.42,-184.32"/>
</g>
<!-- Node25 -->
<g id="node25" class="node">
<title>Node25</title>
<g id="a_node25"><a xlink:href="lex_8hpp.html" target="_top" xlink:title=" ">
<polygon fill="none" stroke="black" points="1628.5,-224.5 1628.5,-243.5 1681.5,-243.5 1681.5,-224.5 1628.5,-224.5"/>
<text text-anchor="middle" x="1655" y="-231.5" font-family="Helvetica,sans-Serif" font-size="10.00">lex.hpp</text>
</a>
</g>
</g>
<!-- Node15&#45;&gt;Node25 -->
<g id="edge33" class="edge">
<title>Node15&#45;&gt;Node25</title>
<path fill="none" stroke="midnightblue" d="M1528.77,-280.44C1553.89,-271.4 1593.71,-257.06 1621.9,-246.92"/>
<polygon fill="midnightblue" stroke="midnightblue" points="1623.12,-250.2 1631.34,-243.52 1620.75,-243.61 1623.12,-250.2"/>
</g>
<!-- Node26 -->
<g id="node26" class="node">
<title>Node26</title>
<g id="a_node26"><a xlink:href="string__format_8hpp.html" target="_top" xlink:title=" ">
<polygon fill="none" stroke="black" points="484,-224.5 484,-243.5 588,-243.5 588,-224.5 484,-224.5"/>
<text text-anchor="middle" x="536" y="-231.5" font-family="Helvetica,sans-Serif" font-size="10.00">string_format.hpp</text>
</a>
</g>
</g>
<!-- Node15&#45;&gt;Node26 -->
<g id="edge39" class="edge">
<title>Node15&#45;&gt;Node26</title>
<path fill="none" stroke="midnightblue" d="M1470.8,-287.09C1328.73,-279.18 783.95,-248.82 598.35,-238.47"/>
<polygon fill="midnightblue" stroke="midnightblue" points="598.39,-234.97 588.22,-237.91 598,-241.96 598.39,-234.97"/>
</g>
<!-- Node27 -->
<g id="node27" class="node">
<title>Node27</title>
<g id="a_node27"><a xlink:title=" ">
<polygon fill="none" stroke="#bfbfbf" points="1324,-224.5 1324,-243.5 1382,-243.5 1382,-224.5 1324,-224.5"/>
<text text-anchor="middle" x="1353" y="-231.5" font-family="Helvetica,sans-Serif" font-size="10.00">memory</text>
</a>
</g>
</g>
<!-- Node15&#45;&gt;Node27 -->
<g id="edge43" class="edge">
<title>Node15&#45;&gt;Node27</title>
<path fill="none" stroke="midnightblue" d="M1480.92,-280.44C1455.46,-271.4 1415.11,-257.06 1386.54,-246.92"/>
<polygon fill="midnightblue" stroke="midnightblue" points="1387.57,-243.57 1376.97,-243.52 1385.22,-250.16 1387.57,-243.57"/>
</g>
<!-- Node16&#45;&gt;Node8 -->
<g id="edge19" class="edge">
<title>Node16&#45;&gt;Node8</title>
<path fill="none" stroke="midnightblue" d="M1648.6,-168.33C1625.22,-153.71 1574.97,-124.52 1528,-112 1413.25,-81.41 1048.72,-70.7 923.06,-67.86"/>
<polygon fill="midnightblue" stroke="midnightblue" points="922.77,-64.35 912.7,-67.63 922.62,-71.35 922.77,-64.35"/>
</g>
<!-- Node16&#45;&gt;Node17 -->
<g id="edge20" class="edge">
<title>Node16&#45;&gt;Node17</title>
<path fill="none" stroke="midnightblue" d="M1610.9,-175.58C1472.96,-171.49 1081.57,-158.3 757,-132 744.82,-131.01 731.64,-129.65 719.55,-128.29"/>
<polygon fill="midnightblue" stroke="midnightblue" points="719.6,-124.77 709.26,-127.09 718.79,-131.72 719.6,-124.77"/>
</g>
<!-- Node16&#45;&gt;Node18 -->
<g id="edge22" class="edge">
<title>Node16&#45;&gt;Node18</title>
<path fill="none" stroke="midnightblue" d="M1672.93,-168.32C1683.17,-160.18 1698.72,-147.84 1711,-138.09"/>
<polygon fill="midnightblue" stroke="midnightblue" points="1713.22,-140.79 1718.88,-131.83 1708.87,-135.31 1713.22,-140.79"/>
</g>
<!-- Node17&#45;&gt;Node8 -->
<g id="edge21" class="edge">
<title>Node17&#45;&gt;Node8</title>
<path fill="none" stroke="midnightblue" d="M709.17,-112.44C744.06,-103.16 799.89,-88.31 838.17,-78.13"/>
<polygon fill="midnightblue" stroke="midnightblue" points="839.22,-81.47 847.98,-75.52 837.42,-74.7 839.22,-81.47"/>
</g>
<!-- Node19&#45;&gt;Node6 -->
<g id="edge29" class="edge">
<title>Node19&#45;&gt;Node6</title>
<path fill="none" stroke="midnightblue" d="M1138.24,-229.66C1068.84,-221.01 881.93,-197.7 787.79,-185.96"/>
<polygon fill="midnightblue" stroke="midnightblue" points="787.97,-182.45 777.61,-184.69 787.1,-189.4 787.97,-182.45"/>
</g>
<!-- Node19&#45;&gt;Node8 -->
<g id="edge28" class="edge">
<title>Node19&#45;&gt;Node8</title>
<path fill="none" stroke="midnightblue" d="M1173.08,-224.29C1184.3,-211.1 1201.85,-185.72 1189,-168 1127.31,-82.93 991.9,-68.18 922.64,-66.46"/>
<polygon fill="midnightblue" stroke="midnightblue" points="922.57,-62.96 912.51,-66.29 922.45,-69.96 922.57,-62.96"/>
</g>
<!-- Node19&#45;&gt;Node20 -->
<g id="edge24" class="edge">
<title>Node19&#45;&gt;Node20</title>
<path fill="none" stroke="midnightblue" d="M1184.01,-224.44C1203.59,-215.64 1234.31,-201.81 1256.73,-191.72"/>
<polygon fill="midnightblue" stroke="midnightblue" points="1258.39,-194.81 1266.07,-187.52 1255.52,-188.43 1258.39,-194.81"/>
</g>
<!-- Node19&#45;&gt;Node21 -->
<g id="edge25" class="edge">
<title>Node19&#45;&gt;Node21</title>
<path fill="none" stroke="midnightblue" d="M1147.17,-224.32C1129.28,-215.62 1101.52,-202.12 1080.95,-192.11"/>
<polygon fill="midnightblue" stroke="midnightblue" points="1082.31,-188.88 1071.79,-187.65 1079.25,-195.18 1082.31,-188.88"/>
</g>
<!-- Node19&#45;&gt;Node22 -->
<g id="edge26" class="edge">
<title>Node19&#45;&gt;Node22</title>
<path fill="none" stroke="midnightblue" d="M1138.44,-227.97C1092.17,-219.2 995.88,-200.96 934.79,-189.38"/>
<polygon fill="midnightblue" stroke="midnightblue" points="935.4,-185.93 924.92,-187.51 934.1,-192.81 935.4,-185.93"/>
</g>
<!-- Node23 -->
<g id="node23" class="node">
<title>Node23</title>
<g id="a_node23"><a xlink:title=" ">
<polygon fill="none" stroke="#bfbfbf" points="944.5,-168.5 944.5,-187.5 991.5,-187.5 991.5,-168.5 944.5,-168.5"/>
<text text-anchor="middle" x="968" y="-175.5" font-family="Helvetica,sans-Serif" font-size="10.00">vector</text>
</a>
</g>
</g>
<!-- Node19&#45;&gt;Node23 -->
<g id="edge30" class="edge">
<title>Node19&#45;&gt;Node23</title>
<path fill="none" stroke="midnightblue" d="M1138.43,-225.72C1102.95,-215.99 1040.1,-198.76 1001.44,-188.17"/>
<polygon fill="midnightblue" stroke="midnightblue" points="1002.26,-184.76 991.69,-185.49 1000.41,-191.51 1002.26,-184.76"/>
</g>
<!-- Node24 -->
<g id="node24" class="node">
<title>Node24</title>
<g id="a_node24"><a xlink:title=" ">
<polygon fill="none" stroke="#bfbfbf" points="1116,-168.5 1116,-187.5 1180,-187.5 1180,-168.5 1116,-168.5"/>
<text text-anchor="middle" x="1148" y="-175.5" font-family="Helvetica,sans-Serif" font-size="10.00">algorithm</text>
</a>
</g>
</g>
<!-- Node19&#45;&gt;Node24 -->
<g id="edge31" class="edge">
<title>Node19&#45;&gt;Node24</title>
<path fill="none" stroke="midnightblue" d="M1162.19,-224.08C1159.92,-216.85 1156.63,-206.41 1153.79,-197.4"/>
<polygon fill="midnightblue" stroke="midnightblue" points="1157.1,-196.24 1150.75,-187.75 1150.42,-198.34 1157.1,-196.24"/>
</g>
<!-- Node22&#45;&gt;Node8 -->
<g id="edge27" class="edge">
<title>Node22&#45;&gt;Node8</title>
<path fill="none" stroke="midnightblue" d="M880,-168.37C880,-150.62 880,-109.67 880,-85.6"/>
<polygon fill="midnightblue" stroke="midnightblue" points="883.5,-85.59 880,-75.59 876.5,-85.59 883.5,-85.59"/>
</g>
<!-- Node25&#45;&gt;Node6 -->
<g id="edge36" class="edge">
<title>Node25&#45;&gt;Node6</title>
<path fill="none" stroke="midnightblue" d="M1628.46,-231.97C1525.26,-227.88 1140.86,-211.84 825,-188 812.99,-187.09 800.13,-185.96 787.92,-184.8"/>
<polygon fill="midnightblue" stroke="midnightblue" points="788.14,-181.3 777.85,-183.83 787.47,-188.27 788.14,-181.3"/>
</g>
<!-- Node25&#45;&gt;Node8 -->
<g id="edge34" class="edge">
<title>Node25&#45;&gt;Node8</title>
<path fill="none" stroke="midnightblue" d="M1642.4,-224.45C1607.76,-201.48 1507.5,-138.35 1414,-112 1321.83,-86.02 1032.59,-72.73 922.82,-68.51"/>
<polygon fill="midnightblue" stroke="midnightblue" points="922.9,-65.01 912.77,-68.13 922.63,-72.01 922.9,-65.01"/>
</g>
<!-- Node25&#45;&gt;Node16 -->
<g id="edge35" class="edge">
<title>Node25&#45;&gt;Node16</title>
<path fill="none" stroke="midnightblue" d="M1656.16,-224.08C1657.08,-216.93 1658.42,-206.64 1659.58,-197.69"/>
<polygon fill="midnightblue" stroke="midnightblue" points="1663.05,-198.12 1660.87,-187.75 1656.11,-197.22 1663.05,-198.12"/>
</g>
<!-- Node26&#45;&gt;Node6 -->
<g id="edge42" class="edge">
<title>Node26&#45;&gt;Node6</title>
<path fill="none" stroke="midnightblue" d="M567.06,-224.44C600.6,-215.2 654.2,-200.44 691.14,-190.26"/>
<polygon fill="midnightblue" stroke="midnightblue" points="692.38,-193.55 701.09,-187.52 690.52,-186.8 692.38,-193.55"/>
</g>
<!-- Node26&#45;&gt;Node8 -->
<g id="edge40" class="edge">
<title>Node26&#45;&gt;Node8</title>
<path fill="none" stroke="midnightblue" d="M540.41,-224.21C552.34,-201.46 587.6,-140.44 636,-112 699.06,-74.94 785.82,-67.25 837.09,-66.27"/>
<polygon fill="midnightblue" stroke="midnightblue" points="837.2,-69.77 847.16,-66.15 837.12,-62.77 837.2,-69.77"/>
</g>
<!-- Node26&#45;&gt;Node17 -->
<g id="edge41" class="edge">
<title>Node26&#45;&gt;Node17</title>
<path fill="none" stroke="midnightblue" d="M557.88,-224.37C576.14,-216.53 602.27,-203.8 622,-188 639.23,-174.2 655.07,-154.39 665.28,-140.27"/>
<polygon fill="midnightblue" stroke="midnightblue" points="668.25,-142.13 671.13,-131.94 662.52,-138.11 668.25,-142.13"/>
</g>
<!-- Node28&#45;&gt;Node6 -->
<g id="edge53" class="edge">
<title>Node28&#45;&gt;Node6</title>
<path fill="none" stroke="midnightblue" d="M887.6,-280.49C858.31,-273.79 821.11,-262.42 792,-244 772.22,-231.49 754.73,-210.84 743.81,-196.18"/>
<polygon fill="midnightblue" stroke="midnightblue" points="746.58,-194.03 737.9,-187.95 740.89,-198.11 746.58,-194.03"/>
</g>
<!-- Node28&#45;&gt;Node17 -->
<g id="edge52" class="edge">
<title>Node28&#45;&gt;Node17</title>
<path fill="none" stroke="midnightblue" d="M927.29,-280.34C905.37,-258.92 845.47,-202.67 787,-168 763.91,-154.31 735.89,-142.92 713.9,-135.02"/>
<polygon fill="midnightblue" stroke="midnightblue" points="714.86,-131.64 704.27,-131.64 712.55,-138.25 714.86,-131.64"/>
</g>
<!-- Node28&#45;&gt;Node19 -->
<g id="edge50" class="edge">
<title>Node28&#45;&gt;Node19</title>
<path fill="none" stroke="midnightblue" d="M972.29,-280.44C1015.02,-270.37 1085.59,-253.72 1128.44,-243.62"/>
<polygon fill="midnightblue" stroke="midnightblue" points="1129.26,-247.02 1138.19,-241.32 1127.65,-240.21 1129.26,-247.02"/>
</g>
<!-- Node28&#45;&gt;Node20 -->
<g id="edge54" class="edge">
<title>Node28&#45;&gt;Node20</title>
<path fill="none" stroke="midnightblue" d="M987.63,-281.33C1072.58,-268.68 1232.67,-244.77 1234,-244 1252.91,-232.98 1267.39,-212.01 1276.01,-196.86"/>
<polygon fill="midnightblue" stroke="midnightblue" points="1279.17,-198.37 1280.82,-187.91 1273,-195.06 1279.17,-198.37"/>
</g>
<!-- Node28&#45;&gt;Node21 -->
<g id="edge55" class="edge">
<title>Node28&#45;&gt;Node21</title>
<path fill="none" stroke="midnightblue" d="M945.26,-280.37C965.16,-261.81 1012.26,-217.91 1037.44,-194.44"/>
<polygon fill="midnightblue" stroke="midnightblue" points="1039.86,-196.97 1044.78,-187.59 1035.08,-191.85 1039.86,-196.97"/>
</g>
<!-- Node28&#45;&gt;Node22 -->
<g id="edge51" class="edge">
<title>Node28&#45;&gt;Node22</title>
<path fill="none" stroke="midnightblue" d="M931.61,-280.37C922.45,-262.38 901.15,-220.55 888.97,-196.63"/>
<polygon fill="midnightblue" stroke="midnightblue" points="892.03,-194.92 884.37,-187.59 885.79,-198.09 892.03,-194.92"/>
</g>
<!-- Node29&#45;&gt;Node2 -->
<g id="edge58" class="edge">
<title>Node29&#45;&gt;Node2</title>
<path fill="none" stroke="midnightblue" d="M396.08,-282.16C339.61,-273.36 238.49,-257.59 152,-244 150.75,-243.8 149.48,-243.6 148.2,-243.4"/>
<polygon fill="midnightblue" stroke="midnightblue" points="148.68,-239.94 138.26,-241.84 147.59,-246.85 148.68,-239.94"/>
</g>
<!-- Node29&#45;&gt;Node6 -->
<g id="edge67" class="edge">
<title>Node29&#45;&gt;Node6</title>
<path fill="none" stroke="midnightblue" d="M410.19,-280.45C376.55,-269.36 329.2,-248.53 351,-224 372.21,-200.14 575.33,-186.78 676,-181.57"/>
<polygon fill="midnightblue" stroke="midnightblue" points="676.48,-185.05 686.29,-181.05 676.13,-178.06 676.48,-185.05"/>
</g>
<!-- Node29&#45;&gt;Node17 -->
<g id="edge68" class="edge">
<title>Node29&#45;&gt;Node17</title>
<path fill="none" stroke="midnightblue" d="M396.34,-287.81C330.71,-284.99 211.47,-275.56 185,-244 179.29,-237.19 181.33,-232.09 185,-224 200.62,-189.58 214.36,-183.13 249,-168 317.55,-138.06 540.73,-127.42 634.69,-124.21"/>
<polygon fill="midnightblue" stroke="midnightblue" points="634.82,-127.71 644.7,-123.88 634.59,-120.71 634.82,-127.71"/>
</g>
<!-- Node29&#45;&gt;Node19 -->
<g id="edge57" class="edge">
<title>Node29&#45;&gt;Node19</title>
<path fill="none" stroke="midnightblue" d="M483.6,-285.32C504.32,-283.62 529.43,-281.62 552,-280 806.07,-261.8 871.75,-279.41 1124,-244 1125.3,-243.82 1126.62,-243.62 1127.95,-243.4"/>
<polygon fill="midnightblue" stroke="midnightblue" points="1129.01,-246.76 1138.2,-241.5 1127.73,-239.88 1129.01,-246.76"/>
</g>
<!-- Node29&#45;&gt;Node20 -->
<g id="edge69" class="edge">
<title>Node29&#45;&gt;Node20</title>
<path fill="none" stroke="midnightblue" d="M483.65,-283.32C624.2,-265.02 1065.11,-207.62 1225.72,-186.72"/>
<polygon fill="midnightblue" stroke="midnightblue" points="1226.43,-190.15 1235.89,-185.39 1225.52,-183.21 1226.43,-190.15"/>
</g>
<!-- Node29&#45;&gt;Node21 -->
<g id="edge70" class="edge">
<title>Node29&#45;&gt;Node21</title>
<path fill="none" stroke="midnightblue" d="M483.67,-281.18C593.21,-261.55 879.49,-210.26 999.66,-188.74"/>
<polygon fill="midnightblue" stroke="midnightblue" points="1000.51,-192.14 1009.73,-186.93 999.27,-185.25 1000.51,-192.14"/>
</g>
<!-- Node29&#45;&gt;Node26 -->
<g id="edge66" class="edge">
<title>Node29&#45;&gt;Node26</title>
<path fill="none" stroke="midnightblue" d="M455.42,-280.32C470.54,-271.82 493.82,-258.73 511.47,-248.8"/>
<polygon fill="midnightblue" stroke="midnightblue" points="513.61,-251.61 520.61,-243.65 510.18,-245.51 513.61,-251.61"/>
</g>
<!-- Node30 -->
<g id="node30" class="node">
<title>Node30</title>
<g id="a_node30"><a xlink:href="format_8hpp.html" target="_top" xlink:title=" ">
<polygon fill="none" stroke="black" points="194.5,-224.5 194.5,-243.5 265.5,-243.5 265.5,-224.5 194.5,-224.5"/>
<text text-anchor="middle" x="230" y="-231.5" font-family="Helvetica,sans-Serif" font-size="10.00">format.hpp</text>
</a>
</g>
</g>
<!-- Node29&#45;&gt;Node30 -->
<g id="edge59" class="edge">
<title>Node29&#45;&gt;Node30</title>
<path fill="none" stroke="midnightblue" d="M406.72,-280.44C370.55,-271.14 312.62,-256.25 273.02,-246.06"/>
<polygon fill="midnightblue" stroke="midnightblue" points="273.68,-242.62 263.12,-243.52 271.93,-249.4 273.68,-242.62"/>
</g>
<!-- Node32 -->
<g id="node32" class="node">
<title>Node32</title>
<g id="a_node32"><a xlink:title=" ">
<polygon fill="none" stroke="#bfbfbf" points="360,-224.5 360,-243.5 428,-243.5 428,-224.5 360,-224.5"/>
<text text-anchor="middle" x="394" y="-231.5" font-family="Helvetica,sans-Serif" font-size="10.00">QDomText</text>
</a>
</g>
</g>
<!-- Node29&#45;&gt;Node32 -->
<g id="edge71" class="edge">
<title>Node29&#45;&gt;Node32</title>
<path fill="none" stroke="midnightblue" d="M432.4,-280.08C425.77,-272.3 415.98,-260.8 407.94,-251.37"/>
<polygon fill="midnightblue" stroke="midnightblue" points="410.6,-249.09 401.45,-243.75 405.27,-253.63 410.6,-249.09"/>
</g>
<!-- Node30&#45;&gt;Node6 -->
<g id="edge61" class="edge">
<title>Node30&#45;&gt;Node6</title>
<path fill="none" stroke="midnightblue" d="M265.72,-226.22C270.51,-225.41 275.37,-224.65 280,-224 422.22,-204.15 590.82,-189.77 676.3,-183.12"/>
<polygon fill="midnightblue" stroke="midnightblue" points="676.61,-186.61 686.31,-182.35 676.07,-179.63 676.61,-186.61"/>
</g>
<!-- Node30&#45;&gt;Node8 -->
<g id="edge63" class="edge">
<title>Node30&#45;&gt;Node8</title>
<path fill="none" stroke="midnightblue" d="M230.03,-224.09C230.57,-210.17 233.69,-183.28 249,-168 312.22,-104.91 354.33,-129.08 442,-112 585.26,-84.09 758.46,-72.78 837.26,-68.84"/>
<polygon fill="midnightblue" stroke="midnightblue" points="837.47,-72.33 847.29,-68.35 837.13,-65.34 837.47,-72.33"/>
</g>
<!-- Node30&#45;&gt;Node13 -->
<g id="edge65" class="edge">
<title>Node30&#45;&gt;Node13</title>
<path fill="none" stroke="midnightblue" d="M228.48,-224.14C226.68,-211.2 224.85,-186.63 233,-168 261.48,-102.93 330.02,-49.76 365.65,-25.38"/>
<polygon fill="midnightblue" stroke="midnightblue" points="368,-28.02 374.36,-19.55 364.1,-22.2 368,-28.02"/>
</g>
<!-- Node30&#45;&gt;Node17 -->
<g id="edge62" class="edge">
<title>Node30&#45;&gt;Node17</title>
<path fill="none" stroke="midnightblue" d="M264.7,-224.46C345.7,-204.53 546.99,-154.99 634.85,-133.37"/>
<polygon fill="midnightblue" stroke="midnightblue" points="635.87,-136.73 644.74,-130.94 634.2,-129.93 635.87,-136.73"/>
</g>
<!-- Node30&#45;&gt;Node22 -->
<g id="edge60" class="edge">
<title>Node30&#45;&gt;Node22</title>
<path fill="none" stroke="midnightblue" d="M265.53,-230.33C353.79,-223.64 590.1,-205.48 787,-188 798.87,-186.95 811.58,-185.76 823.67,-184.6"/>
<polygon fill="midnightblue" stroke="midnightblue" points="824.04,-188.08 833.65,-183.63 823.36,-181.11 824.04,-188.08"/>
</g>
<!-- Node31 -->
<g id="node31" class="node">
<title>Node31</title>
<g id="a_node31"><a xlink:title=" ">
<polygon fill="none" stroke="#bfbfbf" points="258,-168.5 258,-187.5 302,-187.5 302,-168.5 258,-168.5"/>
<text text-anchor="middle" x="280" y="-175.5" font-family="Helvetica,sans-Serif" font-size="10.00">limits</text>
</a>
</g>
</g>
<!-- Node30&#45;&gt;Node31 -->
<g id="edge64" class="edge">
<title>Node30&#45;&gt;Node31</title>
<path fill="none" stroke="midnightblue" d="M238.26,-224.08C245.46,-216.3 256.11,-204.8 264.85,-195.37"/>
<polygon fill="midnightblue" stroke="midnightblue" points="267.67,-197.47 271.9,-187.75 262.53,-192.71 267.67,-197.47"/>
</g>
<!-- Node33&#45;&gt;Node2 -->
<g id="edge74" class="edge">
<title>Node33&#45;&gt;Node2</title>
<path fill="none" stroke="midnightblue" d="M560.26,-282.67C455.91,-271.98 246.46,-250.52 148.19,-240.45"/>
<polygon fill="midnightblue" stroke="midnightblue" points="148.49,-236.96 138.19,-239.43 147.78,-243.93 148.49,-236.96"/>
</g>
<!-- Node33&#45;&gt;Node6 -->
<g id="edge78" class="edge">
<title>Node33&#45;&gt;Node6</title>
<path fill="none" stroke="midnightblue" d="M622.2,-280.4C622.96,-266.9 626.24,-240.58 640,-224 652.75,-208.65 672,-198.11 689.6,-191.11"/>
<polygon fill="midnightblue" stroke="midnightblue" points="690.99,-194.33 699.16,-187.58 688.56,-187.76 690.99,-194.33"/>
</g>
<!-- Node33&#45;&gt;Node8 -->
<g id="edge77" class="edge">
<title>Node33&#45;&gt;Node8</title>
<path fill="none" stroke="midnightblue" d="M560.18,-284.62C512.46,-278.24 457.33,-262.56 475,-224 537.34,-88 746.3,-68.5 837.18,-66.61"/>
<polygon fill="midnightblue" stroke="midnightblue" points="837.45,-70.11 847.4,-66.46 837.35,-63.11 837.45,-70.11"/>
</g>
<!-- Node33&#45;&gt;Node19 -->
<g id="edge73" class="edge">
<title>Node33&#45;&gt;Node19</title>
<path fill="none" stroke="midnightblue" d="M683.74,-285.99C778.76,-280.79 966.38,-268.26 1124,-244 1125.3,-243.8 1126.61,-243.58 1127.94,-243.36"/>
<polygon fill="midnightblue" stroke="midnightblue" points="1129.02,-246.71 1138.19,-241.4 1127.71,-239.84 1129.02,-246.71"/>
</g>
<!-- Node33&#45;&gt;Node20 -->
<g id="edge80" class="edge">
<title>Node33&#45;&gt;Node20</title>
<path fill="none" stroke="midnightblue" d="M683.63,-286.21C822.93,-279.62 1153.67,-262.25 1201,-244 1215.53,-238.4 1247.44,-211.9 1267.48,-194.51"/>
<polygon fill="midnightblue" stroke="midnightblue" points="1270.04,-196.93 1275.26,-187.71 1265.43,-191.66 1270.04,-196.93"/>
</g>
<!-- Node33&#45;&gt;Node21 -->
<g id="edge81" class="edge">
<title>Node33&#45;&gt;Node21</title>
<path fill="none" stroke="midnightblue" d="M683.55,-282.95C739.66,-276.48 824.47,-264.3 896,-244 943.89,-230.41 996.9,-206.7 1027.73,-191.98"/>
<polygon fill="midnightblue" stroke="midnightblue" points="1029.44,-195.04 1036.92,-187.54 1026.4,-188.74 1029.44,-195.04"/>
</g>
<!-- Node33&#45;&gt;Node22 -->
<g id="edge79" class="edge">
<title>Node33&#45;&gt;Node22</title>
<path fill="none" stroke="midnightblue" d="M632,-280.35C648.46,-266.55 682.73,-239.51 716,-224 750.31,-208 791.4,-196.74 823.87,-189.48"/>
<polygon fill="midnightblue" stroke="midnightblue" points="824.62,-192.9 833.65,-187.36 823.13,-186.06 824.62,-192.9"/>
</g>
<!-- Node33&#45;&gt;Node23 -->
<g id="edge83" class="edge">
<title>Node33&#45;&gt;Node23</title>
<path fill="none" stroke="midnightblue" d="M648.86,-280.46C711.24,-260.63 865.77,-211.5 934.32,-189.71"/>
<polygon fill="midnightblue" stroke="midnightblue" points="935.7,-192.94 944.17,-186.57 933.58,-186.27 935.7,-192.94"/>
</g>
<!-- Node33&#45;&gt;Node26 -->
<g id="edge76" class="edge">
<title>Node33&#45;&gt;Node26</title>
<path fill="none" stroke="midnightblue" d="M608.18,-280.32C594.77,-271.9 574.18,-258.97 558.41,-249.07"/>
<polygon fill="midnightblue" stroke="midnightblue" points="560.11,-246.01 549.78,-243.65 556.39,-251.94 560.11,-246.01"/>
</g>
<!-- Node33&#45;&gt;Node30 -->
<g id="edge75" class="edge">
<title>Node33&#45;&gt;Node30</title>
<path fill="none" stroke="midnightblue" d="M560.32,-280.5C481.36,-269.63 346.37,-251.03 275.89,-241.32"/>
<polygon fill="midnightblue" stroke="midnightblue" points="275.95,-237.8 265.57,-239.9 275,-244.73 275.95,-237.8"/>
</g>
<!-- Node33&#45;&gt;Node32 -->
<g id="edge82" class="edge">
<title>Node33&#45;&gt;Node32</title>
<path fill="none" stroke="midnightblue" d="M585.87,-280.44C545.77,-270.94 481.03,-255.61 438,-245.42"/>
<polygon fill="midnightblue" stroke="midnightblue" points="438.63,-241.97 428.1,-243.08 437.02,-248.79 438.63,-241.97"/>
</g>
<!-- Node34&#45;&gt;Node6 -->
<g id="edge86" class="edge">
<title>Node34&#45;&gt;Node6</title>
<path fill="none" stroke="midnightblue" d="M1044.68,-280.46C984.48,-260.93 836.67,-212.96 768.06,-190.7"/>
<polygon fill="midnightblue" stroke="midnightblue" points="769.13,-187.37 758.54,-187.61 766.97,-194.03 769.13,-187.37"/>
</g>
<!-- Node34&#45;&gt;Node8 -->
<g id="edge87" class="edge">
<title>Node34&#45;&gt;Node8</title>
<path fill="none" stroke="midnightblue" d="M1129.47,-280.49C1167.46,-273.64 1217.47,-262.12 1259,-244 1305.14,-223.86 1373.21,-208.28 1343,-168 1292.59,-100.79 1027.92,-76.53 922.95,-69.47"/>
<polygon fill="midnightblue" stroke="midnightblue" points="922.92,-65.97 912.72,-68.81 922.47,-72.95 922.92,-65.97"/>
</g>
<!-- Node34&#45;&gt;Node19 -->
<g id="edge85" class="edge">
<title>Node34&#45;&gt;Node19</title>
<path fill="none" stroke="midnightblue" d="M1086.1,-280.32C1100.9,-271.82 1123.69,-258.73 1140.98,-248.8"/>
<polygon fill="midnightblue" stroke="midnightblue" points="1143.01,-251.67 1149.93,-243.65 1139.52,-245.6 1143.01,-251.67"/>
</g>
<!-- Node34&#45;&gt;Node23 -->
<g id="edge88" class="edge">
<title>Node34&#45;&gt;Node23</title>
<path fill="none" stroke="midnightblue" d="M1062.92,-280.37C1045.69,-261.97 1005.15,-218.67 983.03,-195.05"/>
<polygon fill="midnightblue" stroke="midnightblue" points="985.43,-192.5 976.04,-187.59 980.32,-197.28 985.43,-192.5"/>
</g>
<!-- Node34&#45;&gt;Node27 -->
<g id="edge89" class="edge">
<title>Node34&#45;&gt;Node27</title>
<path fill="none" stroke="midnightblue" d="M1117.77,-280.48C1165.99,-271.63 1243.33,-257.25 1310,-244 1311.26,-243.75 1312.55,-243.49 1313.84,-243.23"/>
<polygon fill="midnightblue" stroke="midnightblue" points="1314.78,-246.61 1323.87,-241.18 1313.37,-239.75 1314.78,-246.61"/>
</g>
<!-- Node35&#45;&gt;Node6 -->
<g id="edge95" class="edge">
<title>Node35&#45;&gt;Node6</title>
<path fill="none" stroke="midnightblue" d="M1522.29,-344.57C1408.52,-342.66 1000.64,-333.6 876,-300 821.88,-285.41 802.33,-283.93 763,-244 750.14,-230.94 741.84,-211.52 737.1,-197.3"/>
<polygon fill="midnightblue" stroke="midnightblue" points="740.41,-196.19 734.15,-187.64 733.72,-198.23 740.41,-196.19"/>
</g>
<!-- Node35&#45;&gt;Node8 -->
<g id="edge91" class="edge">
<title>Node35&#45;&gt;Node8</title>
<path fill="none" stroke="midnightblue" d="M1581.57,-344.89C1632.52,-343.67 1739.17,-336.52 1820,-300 1861.75,-281.14 1900,-280.81 1900,-235 1900,-235 1900,-235 1900,-177 1900,-116.74 1839,-128.36 1781,-112 1616.7,-65.66 1078.9,-65.61 922.82,-66.62"/>
<polygon fill="midnightblue" stroke="midnightblue" points="922.65,-63.12 912.68,-66.69 922.7,-70.12 922.65,-63.12"/>
</g>
<!-- Node35&#45;&gt;Node15 -->
<g id="edge94" class="edge">
<title>Node35&#45;&gt;Node15</title>
<path fill="none" stroke="midnightblue" d="M1544.24,-336.08C1537.46,-328.3 1527.46,-316.8 1519.24,-307.37"/>
<polygon fill="midnightblue" stroke="midnightblue" points="1521.82,-305 1512.62,-299.75 1516.54,-309.59 1521.82,-305"/>
</g>
<!-- Node35&#45;&gt;Node16 -->
<g id="edge93" class="edge">
<title>Node35&#45;&gt;Node16</title>
<path fill="none" stroke="midnightblue" d="M1581.95,-344.17C1641.74,-341.81 1772.52,-332.92 1800,-300 1821.65,-274.07 1819.84,-251.34 1800,-224 1782.47,-199.84 1751.61,-188.41 1723.52,-183.09"/>
<polygon fill="midnightblue" stroke="midnightblue" points="1723.76,-179.58 1713.33,-181.4 1722.62,-186.49 1723.76,-179.58"/>
</g>
<!-- Node35&#45;&gt;Node19 -->
<g id="edge92" class="edge">
<title>Node35&#45;&gt;Node19</title>
<path fill="none" stroke="midnightblue" d="M1522.28,-336.55C1452.32,-316.67 1277.45,-266.96 1201.34,-245.33"/>
<polygon fill="midnightblue" stroke="midnightblue" points="1202.28,-241.96 1191.71,-242.59 1200.37,-248.69 1202.28,-241.96"/>
</g>
<!-- Node35&#45;&gt;Node20 -->
<g id="edge96" class="edge">
<title>Node35&#45;&gt;Node20</title>
<path fill="none" stroke="midnightblue" d="M1576.68,-336.45C1627,-317.77 1733.26,-271.2 1691,-224 1668.29,-198.63 1451.15,-186 1344.09,-181.27"/>
<polygon fill="midnightblue" stroke="midnightblue" points="1344.22,-177.77 1334.08,-180.84 1343.92,-184.77 1344.22,-177.77"/>
</g>
<!-- Node35&#45;&gt;Node21 -->
<g id="edge97" class="edge">
<title>Node35&#45;&gt;Node21</title>
<path fill="none" stroke="midnightblue" d="M1553.45,-336.48C1555.23,-323.55 1557,-298.5 1548,-280 1531.61,-246.31 1519.35,-238.96 1485,-224 1333.23,-157.89 1276.47,-208.15 1108.14,-188.01"/>
<polygon fill="midnightblue" stroke="midnightblue" points="1108.57,-184.54 1098.21,-186.76 1107.69,-191.48 1108.57,-184.54"/>
</g>
</g>
</svg>
