<?xml version="1.0" encoding="UTF-8" standalone="no"?>
<!DOCTYPE svg PUBLIC "-//W3C//DTD SVG 1.1//EN"
 "http://www.w3.org/Graphics/SVG/1.1/DTD/svg11.dtd">
<!-- Generated by graphviz version 2.43.0 (0)
 -->
<!-- Title: cfgfile::details::parser_conffile_impl_t&lt; Trait &gt; Pages: 1 -->
<svg width="147pt" height="185pt"
 viewBox="0.00 0.00 147.00 185.00" xmlns="http://www.w3.org/2000/svg" xmlns:xlink="http://www.w3.org/1999/xlink">
<g id="graph0" class="graph" transform="scale(1 1) rotate(0) translate(4 181)">
<title>cfgfile::details::parser_conffile_impl_t&lt; Trait &gt;</title>
<!-- Node1 -->
<g id="node1" class="node">
<title>Node1</title>
<g id="a_node1"><a xlink:title="Implementation of parser in cfgfile format.">
<polygon fill="#bfbfbf" stroke="black" points="1,-0.5 1,-30.5 138,-30.5 138,-0.5 1,-0.5"/>
<text text-anchor="start" x="9" y="-18.5" font-family="Helvetica,sans-Serif" font-size="10.00">cfgfile::details::parser</text>
<text text-anchor="middle" x="69.5" y="-7.5" font-family="Helvetica,sans-Serif" font-size="10.00">_conffile_impl_t&lt; Trait &gt;</text>
</a>
</g>
</g>
<!-- Node2 -->
<g id="node2" class="node">
<title>Node2</title>
<g id="a_node2"><a xlink:href="classcfgfile_1_1details_1_1parser__base__t.html" target="_top" xlink:title=" ">
<polygon fill="none" stroke="black" points="0,-68.5 0,-98.5 139,-98.5 139,-68.5 0,-68.5"/>
<text text-anchor="start" x="8" y="-86.5" font-family="Helvetica,sans-Serif" font-size="10.00">cfgfile::details::parser</text>
<text text-anchor="middle" x="69.5" y="-75.5" font-family="Helvetica,sans-Serif" font-size="10.00">_base_t&lt; string_trait_t &gt;</text>
</a>
</g>
</g>
<!-- Node2&#45;&gt;Node1 -->
<g id="edge1" class="edge">
<title>Node2&#45;&gt;Node1</title>
<path fill="none" stroke="midnightblue" d="M69.5,-58.03C69.5,-48.86 69.5,-38.74 69.5,-30.79"/>
<polygon fill="midnightblue" stroke="midnightblue" points="66,-58.18 69.5,-68.18 73,-58.18 66,-58.18"/>
</g>
<!-- Node3 -->
<g id="node3" class="node">
<title>Node3</title>
<g id="a_node3"><a xlink:href="classcfgfile_1_1tag__t.html" target="_top" xlink:title=" ">
<polygon fill="none" stroke="black" points="11.5,-146.5 11.5,-176.5 127.5,-176.5 127.5,-146.5 11.5,-146.5"/>
<text text-anchor="start" x="19.5" y="-164.5" font-family="Helvetica,sans-Serif" font-size="10.00">cfgfile::tag_t&lt; string</text>
<text text-anchor="middle" x="69.5" y="-153.5" font-family="Helvetica,sans-Serif" font-size="10.00">_trait_t &gt;</text>
</a>
</g>
</g>
<!-- Node3&#45;&gt;Node2 -->
<g id="edge2" class="edge">
<title>Node3&#45;&gt;Node2</title>
<path fill="none" stroke="#9a32cd" stroke-dasharray="5,2" d="M69.5,-136.09C69.5,-123.76 69.5,-109.22 69.5,-98.73"/>
<polygon fill="#9a32cd" stroke="#9a32cd" points="66,-136.2 69.5,-146.2 73,-136.21 66,-136.2"/>
<text text-anchor="middle" x="86.5" y="-120" font-family="Helvetica,sans-Serif" font-size="10.00"> m_tag</text>
</g>
</g>
</svg>
