<?xml version="1.0" encoding="UTF-8" standalone="no"?>
<!DOCTYPE svg PUBLIC "-//W3C//DTD SVG 1.1//EN"
 "http://www.w3.org/Graphics/SVG/1.1/DTD/svg11.dtd">
<!-- Generated by graphviz version 2.38.0 (20140413.2041)
 -->
<!-- Title: cfgfile::constraint_t&lt; T &gt; Pages: 1 -->
<svg width="208pt" height="106pt"
 viewBox="0.00 0.00 207.50 106.00" xmlns="http://www.w3.org/2000/svg" xmlns:xlink="http://www.w3.org/1999/xlink">
<g id="graph0" class="graph" transform="scale(1 1) rotate(0) translate(4 102)">
<title>cfgfile::constraint_t&lt; T &gt;</title>
<!-- Node1 -->
<g id="node1" class="node"><title>Node1</title>
<polygon fill="#bfbfbf" stroke="black" points="55.5,-67.5 55.5,-97.5 144.5,-97.5 144.5,-67.5 55.5,-67.5"/>
<text text-anchor="start" x="63.5" y="-85.5" font-family="FreeSans" font-size="10.00">cfgfile::constraint</text>
<text text-anchor="middle" x="100" y="-74.5" font-family="FreeSans" font-size="10.00">_t&lt; T &gt;</text>
</g>
<!-- Node2 -->
<g id="node2" class="node"><title>Node2</title>
<g id="a_node2"><a xlink:href="classcfgfile_1_1constraint__min__max__t.html" target="_top" xlink:title="Constraint that allowed values to be in the given range: min &lt;= value &lt;= max. ">
<polygon fill="none" stroke="black" points="0,-0.5 0,-30.5 92,-30.5 92,-0.5 0,-0.5"/>
<text text-anchor="start" x="8" y="-18.5" font-family="FreeSans" font-size="10.00">cfgfile::constraint</text>
<text text-anchor="middle" x="46" y="-7.5" font-family="FreeSans" font-size="10.00">_min_max_t&lt; T &gt;</text>
</a>
</g>
</g>
<!-- Node1&#45;&gt;Node2 -->
<g id="edge1" class="edge"><title>Node1&#45;&gt;Node2</title>
<path fill="none" stroke="midnightblue" d="M81.6792,-59.4472C73.7466,-49.8986 64.6954,-39.0037 57.6943,-30.5765"/>
<polygon fill="midnightblue" stroke="midnightblue" points="79.2004,-61.9406 88.2828,-67.396 84.5847,-57.4675 79.2004,-61.9406"/>
</g>
<!-- Node3 -->
<g id="node3" class="node"><title>Node3</title>
<g id="a_node3"><a xlink:href="classcfgfile_1_1constraint__one__of__t.html" target="_top" xlink:title="Constraint that allowed values to be in the given list of values. ">
<polygon fill="none" stroke="black" points="110.5,-0.5 110.5,-30.5 199.5,-30.5 199.5,-0.5 110.5,-0.5"/>
<text text-anchor="start" x="118.5" y="-18.5" font-family="FreeSans" font-size="10.00">cfgfile::constraint</text>
<text text-anchor="middle" x="155" y="-7.5" font-family="FreeSans" font-size="10.00">_one_of_t&lt; T &gt;</text>
</a>
</g>
</g>
<!-- Node1&#45;&gt;Node3 -->
<g id="edge2" class="edge"><title>Node1&#45;&gt;Node3</title>
<path fill="none" stroke="midnightblue" d="M118.416,-59.7362C126.553,-50.119 135.886,-39.0888 143.089,-30.5765"/>
<polygon fill="midnightblue" stroke="midnightblue" points="115.722,-57.5013 111.934,-67.396 121.065,-62.0229 115.722,-57.5013"/>
</g>
</g>
</svg>
