<?xml version="1.0" encoding="UTF-8" standalone="no"?>
<!DOCTYPE svg PUBLIC "-//W3C//DTD SVG 1.1//EN"
 "http://www.w3.org/Graphics/SVG/1.1/DTD/svg11.dtd">
<!-- Generated by graphviz version 2.43.0 (0)
 -->
<!-- Title: cfgfile::details::parser_dom_impl_t&lt; Trait &gt; Pages: 1 -->
<svg width="131pt" height="182pt"
 viewBox="0.00 0.00 131.00 182.00" xmlns="http://www.w3.org/2000/svg" xmlns:xlink="http://www.w3.org/1999/xlink">
<g id="graph0" class="graph" transform="scale(1 1) rotate(0) translate(4 178)">
<title>cfgfile::details::parser_dom_impl_t&lt; Trait &gt;</title>
<!-- Node1 -->
<g id="Node000001" class="node">
<title>Node1</title>
<g id="a_Node000001"><a xlink:title="Implementation of parser in XML format.">
<polygon fill="#999999" stroke="#666666" points="123,-30 0,-30 0,0 123,0 123,-30"/>
<text text-anchor="start" x="8" y="-18" font-family="Helvetica,sans-Serif" font-size="10.00">cfgfile::details::parser</text>
<text text-anchor="middle" x="61.5" y="-7" font-family="Helvetica,sans-Serif" font-size="10.00">_dom_impl_t&lt; Trait &gt;</text>
</a>
</g>
</g>
<!-- Node2 -->
<g id="Node000002" class="node">
<title>Node2</title>
<g id="a_Node000002"><a xlink:href="classcfgfile_1_1details_1_1parser__base__t.html" target="_top" xlink:title="Base implementation of parser.">
<polygon fill="white" stroke="#666666" points="122.5,-97 0.5,-97 0.5,-67 122.5,-67 122.5,-97"/>
<text text-anchor="start" x="8.5" y="-85" font-family="Helvetica,sans-Serif" font-size="10.00">cfgfile::details::parser</text>
<text text-anchor="middle" x="61.5" y="-74" font-family="Helvetica,sans-Serif" font-size="10.00">_base_t&lt; Trait &gt;</text>
</a>
</g>
</g>
<!-- Node2&#45;&gt;Node1 -->
<g id="edge1_Node000001_Node000002" class="edge">
<title>Node2&#45;&gt;Node1</title>
<g id="a_edge1_Node000001_Node000002"><a xlink:title=" ">
<path fill="none" stroke="#63b8ff" d="M61.5,-56.61C61.5,-47.65 61.5,-37.82 61.5,-30.08"/>
<polygon fill="#63b8ff" stroke="#63b8ff" points="58,-56.9 61.5,-66.9 65,-56.9 58,-56.9"/>
</a>
</g>
</g>
<!-- Node3 -->
<g id="Node000003" class="node">
<title>Node3</title>
<g id="a_Node000003"><a xlink:href="classcfgfile_1_1tag__t.html" target="_top" xlink:title=" ">
<polygon fill="white" stroke="#666666" points="119.5,-174 3.5,-174 3.5,-144 119.5,-144 119.5,-174"/>
<text text-anchor="start" x="11.5" y="-162" font-family="Helvetica,sans-Serif" font-size="10.00">cfgfile::tag_t&lt; string</text>
<text text-anchor="middle" x="61.5" y="-151" font-family="Helvetica,sans-Serif" font-size="10.00">_trait_t &gt;</text>
</a>
</g>
</g>
<!-- Node3&#45;&gt;Node2 -->
<g id="edge2_Node000002_Node000003" class="edge">
<title>Node3&#45;&gt;Node2</title>
<g id="a_edge2_Node000002_Node000003"><a xlink:title=" ">
<path fill="none" stroke="#9a32cd" stroke-dasharray="5,2" d="M61.5,-133.54C61.5,-121.45 61.5,-107.29 61.5,-97.04"/>
<polygon fill="#9a32cd" stroke="#9a32cd" points="58,-133.89 61.5,-143.89 65,-133.89 58,-133.89"/>
</a>
</g>
<text text-anchor="middle" x="78.5" y="-118" font-family="Helvetica,sans-Serif" font-size="10.00" fill="grey"> m_tag</text>
</g>
</g>
</svg>
