<?xml version="1.0" encoding="UTF-8" standalone="no"?>
<!DOCTYPE svg PUBLIC "-//W3C//DTD SVG 1.1//EN"
 "http://www.w3.org/Graphics/SVG/1.1/DTD/svg11.dtd">
<!-- Generated by graphviz version 2.38.0 (20140413.2041)
 -->
<!-- Title: cfgfile::tag_t&lt; Trait &gt; Pages: 1 -->
<svg width="252pt" height="343pt"
 viewBox="0.00 0.00 252.00 343.00" xmlns="http://www.w3.org/2000/svg" xmlns:xlink="http://www.w3.org/1999/xlink">
<g id="graph0" class="graph" transform="scale(1 1) rotate(0) translate(4 339)">
<title>cfgfile::tag_t&lt; Trait &gt;</title>
<!-- Node1 -->
<g id="node1" class="node"><title>Node1</title>
<polygon fill="#bfbfbf" stroke="black" points="0,-163 0,-182 104,-182 104,-163 0,-163"/>
<text text-anchor="middle" x="52" y="-170" font-family="FreeSans" font-size="10.00">cfgfile::tag_t&lt; Trait &gt;</text>
</g>
<!-- Node2 -->
<g id="node2" class="node"><title>Node2</title>
<g id="a_node2"><a xlink:href="classcfgfile_1_1tag__no__value__t.html" target="_top" xlink:title="Tag without a value. ">
<polygon fill="none" stroke="black" points="140,-304.5 140,-334.5 244,-334.5 244,-304.5 140,-304.5"/>
<text text-anchor="start" x="148" y="-322.5" font-family="FreeSans" font-size="10.00">cfgfile::tag_no_value</text>
<text text-anchor="middle" x="192" y="-311.5" font-family="FreeSans" font-size="10.00">_t&lt; Trait &gt;</text>
</a>
</g>
</g>
<!-- Node1&#45;&gt;Node2 -->
<g id="edge1" class="edge"><title>Node1&#45;&gt;Node2</title>
<path fill="none" stroke="midnightblue" d="M62.2937,-191.324C76.0905,-217.635 104.25,-265.54 140,-295.5 143.975,-298.831 148.49,-301.812 153.151,-304.444"/>
<polygon fill="midnightblue" stroke="midnightblue" points="65.2388,-189.395 57.5746,-182.08 59.0042,-192.578 65.2388,-189.395"/>
</g>
<!-- Node3 -->
<g id="node3" class="node"><title>Node3</title>
<g id="a_node3"><a xlink:href="classcfgfile_1_1tag__scalar__t.html" target="_top" xlink:title="Tag with scalar value. ">
<polygon fill="none" stroke="black" points="146.5,-255.5 146.5,-285.5 237.5,-285.5 237.5,-255.5 146.5,-255.5"/>
<text text-anchor="start" x="154.5" y="-273.5" font-family="FreeSans" font-size="10.00">cfgfile::tag_scalar</text>
<text text-anchor="middle" x="192" y="-262.5" font-family="FreeSans" font-size="10.00">_t&lt; Trait &gt;</text>
</a>
</g>
</g>
<!-- Node1&#45;&gt;Node3 -->
<g id="edge2" class="edge"><title>Node1&#45;&gt;Node3</title>
<path fill="none" stroke="midnightblue" d="M69.8685,-189.233C86.653,-205.282 113.642,-229.519 140,-246.5 144.936,-249.68 150.359,-252.688 155.771,-255.429"/>
<polygon fill="midnightblue" stroke="midnightblue" points="72.1102,-186.531 62.4961,-182.079 67.2355,-191.554 72.1102,-186.531"/>
</g>
<!-- Node4 -->
<g id="node4" class="node"><title>Node4</title>
<g id="a_node4"><a xlink:href="classcfgfile_1_1tag__scalar__t_3_01bool_00_01_trait_01_4.html" target="_top" xlink:title="Tag with bool value. ">
<polygon fill="none" stroke="black" points="146.5,-206.5 146.5,-236.5 237.5,-236.5 237.5,-206.5 146.5,-206.5"/>
<text text-anchor="start" x="154.5" y="-224.5" font-family="FreeSans" font-size="10.00">cfgfile::tag_scalar</text>
<text text-anchor="middle" x="192" y="-213.5" font-family="FreeSans" font-size="10.00">_t&lt; bool, Trait &gt;</text>
</a>
</g>
</g>
<!-- Node1&#45;&gt;Node4 -->
<g id="edge3" class="edge"><title>Node1&#45;&gt;Node4</title>
<path fill="none" stroke="midnightblue" d="M89.5786,-185.488C107.734,-191.935 129.766,-199.758 148.651,-206.463"/>
<polygon fill="midnightblue" stroke="midnightblue" points="90.5301,-182.112 79.9354,-182.064 88.1878,-188.708 90.5301,-182.112"/>
</g>
<!-- Node5 -->
<g id="node5" class="node"><title>Node5</title>
<g id="a_node5"><a xlink:href="classcfgfile_1_1tag__scalar__t_3_01_q_string_00_01_trait_01_4.html" target="_top" xlink:title="Tag with QString value. ">
<polygon fill="none" stroke="black" points="142.5,-157.5 142.5,-187.5 241.5,-187.5 241.5,-157.5 142.5,-157.5"/>
<text text-anchor="start" x="150.5" y="-175.5" font-family="FreeSans" font-size="10.00">cfgfile::tag_scalar</text>
<text text-anchor="middle" x="192" y="-164.5" font-family="FreeSans" font-size="10.00">_t&lt; QString, Trait &gt;</text>
</a>
</g>
</g>
<!-- Node1&#45;&gt;Node5 -->
<g id="edge4" class="edge"><title>Node1&#45;&gt;Node5</title>
<path fill="none" stroke="midnightblue" d="M114.418,-172.5C123.762,-172.5 133.293,-172.5 142.316,-172.5"/>
<polygon fill="midnightblue" stroke="midnightblue" points="114.386,-169 104.386,-172.5 114.386,-176 114.386,-169"/>
</g>
<!-- Node6 -->
<g id="node6" class="node"><title>Node6</title>
<g id="a_node6"><a xlink:href="classcfgfile_1_1tag__scalar__t_3_01typename_01_trait_1_1string__t_00_01_trait_01_4.html" target="_top" xlink:title="Tag with string value. ">
<polygon fill="none" stroke="black" points="141.5,-98 141.5,-139 242.5,-139 242.5,-98 141.5,-98"/>
<text text-anchor="start" x="149.5" y="-127" font-family="FreeSans" font-size="10.00">cfgfile::tag_scalar</text>
<text text-anchor="start" x="149.5" y="-116" font-family="FreeSans" font-size="10.00">_t&lt; typename Trait::</text>
<text text-anchor="middle" x="192" y="-105" font-family="FreeSans" font-size="10.00">string_t, Trait &gt;</text>
</a>
</g>
</g>
<!-- Node1&#45;&gt;Node6 -->
<g id="edge5" class="edge"><title>Node1&#45;&gt;Node6</title>
<path fill="none" stroke="midnightblue" d="M87.0513,-159.176C103.447,-152.76 123.421,-144.944 141.461,-137.885"/>
<polygon fill="midnightblue" stroke="midnightblue" points="85.391,-156.067 77.354,-162.97 87.9418,-162.585 85.391,-156.067"/>
</g>
<!-- Node7 -->
<g id="node7" class="node"><title>Node7</title>
<g id="a_node7"><a xlink:href="classcfgfile_1_1tag__scalar__vector__t.html" target="_top" xlink:title="Tag with multiple scalar values. ">
<polygon fill="none" stroke="black" points="146,-49.5 146,-79.5 238,-79.5 238,-49.5 146,-49.5"/>
<text text-anchor="start" x="154" y="-67.5" font-family="FreeSans" font-size="10.00">cfgfile::tag_scalar</text>
<text text-anchor="middle" x="192" y="-56.5" font-family="FreeSans" font-size="10.00">_vector_t&lt; Trait &gt;</text>
</a>
</g>
</g>
<!-- Node1&#45;&gt;Node7 -->
<g id="edge6" class="edge"><title>Node1&#45;&gt;Node7</title>
<path fill="none" stroke="midnightblue" d="M67.6809,-155.293C83.9577,-136.99 111.674,-108.039 140,-88.5 144.672,-85.2773 149.845,-82.2829 155.052,-79.5789"/>
<polygon fill="midnightblue" stroke="midnightblue" points="64.9938,-153.049 61.0462,-162.881 70.2635,-157.656 64.9938,-153.049"/>
</g>
<!-- Node8 -->
<g id="node8" class="node"><title>Node8</title>
<g id="a_node8"><a xlink:href="classcfgfile_1_1tag__vector__of__tags__t.html" target="_top" xlink:title="Tag with multiple instancies of the given tag. ">
<polygon fill="none" stroke="black" points="143,-0.5 143,-30.5 241,-30.5 241,-0.5 143,-0.5"/>
<text text-anchor="start" x="151" y="-18.5" font-family="FreeSans" font-size="10.00">cfgfile::tag_vector</text>
<text text-anchor="middle" x="192" y="-7.5" font-family="FreeSans" font-size="10.00">_of_tags_t&lt; Trait &gt;</text>
</a>
</g>
</g>
<!-- Node1&#45;&gt;Node8 -->
<g id="edge7" class="edge"><title>Node1&#45;&gt;Node8</title>
<path fill="none" stroke="midnightblue" d="M61.4497,-153.552C74.6962,-125.658 102.737,-73.3086 140,-40.5 144.219,-36.7858 149.087,-33.4861 154.106,-30.6006"/>
<polygon fill="midnightblue" stroke="midnightblue" points="58.1232,-152.407 57.1089,-162.954 64.4785,-155.342 58.1232,-152.407"/>
</g>
</g>
</svg>
