<?xml version="1.0" encoding="UTF-8" standalone="no"?>
<!DOCTYPE svg PUBLIC "-//W3C//DTD SVG 1.1//EN"
 "http://www.w3.org/Graphics/SVG/1.1/DTD/svg11.dtd">
<!-- Generated by graphviz version 2.38.0 (20140413.2041)
 -->
<!-- Title: cfgfile::details::parser_base_t&lt; Trait &gt; Pages: 1 -->
<svg width="268pt" height="88pt"
 viewBox="0.00 0.00 268.00 88.00" xmlns="http://www.w3.org/2000/svg" xmlns:xlink="http://www.w3.org/1999/xlink">
<g id="graph0" class="graph" transform="scale(1 1) rotate(0) translate(4 84)">
<title>cfgfile::details::parser_base_t&lt; Trait &gt;</title>
<!-- Node1 -->
<g id="node1" class="node"><title>Node1</title>
<polygon fill="#bfbfbf" stroke="black" points="0,-24.5 0,-54.5 105,-54.5 105,-24.5 0,-24.5"/>
<text text-anchor="start" x="8" y="-42.5" font-family="FreeSans" font-size="10.00">cfgfile::details::parser</text>
<text text-anchor="middle" x="52.5" y="-31.5" font-family="FreeSans" font-size="10.00">_base_t&lt; Trait &gt;</text>
</g>
<!-- Node2 -->
<g id="node2" class="node"><title>Node2</title>
<g id="a_node2"><a xlink:href="classcfgfile_1_1details_1_1parser__conffile__impl__t.html" target="_top" xlink:title="Implementation of parser in cfgfile format. ">
<polygon fill="none" stroke="black" points="141,-49.5 141,-79.5 260,-79.5 260,-49.5 141,-49.5"/>
<text text-anchor="start" x="149" y="-67.5" font-family="FreeSans" font-size="10.00">cfgfile::details::parser</text>
<text text-anchor="middle" x="200.5" y="-56.5" font-family="FreeSans" font-size="10.00">_conffile_impl_t&lt; Trait &gt;</text>
</a>
</g>
</g>
<!-- Node1&#45;&gt;Node2 -->
<g id="edge1" class="edge"><title>Node1&#45;&gt;Node2</title>
<path fill="none" stroke="midnightblue" d="M115.496,-50.1158C123.891,-51.5533 132.485,-53.0248 140.82,-54.452"/>
<polygon fill="midnightblue" stroke="midnightblue" points="115.833,-46.6225 105.385,-48.3845 114.651,-53.5221 115.833,-46.6225"/>
</g>
<!-- Node3 -->
<g id="node3" class="node"><title>Node3</title>
<g id="a_node3"><a xlink:href="classcfgfile_1_1details_1_1parser__dom__impl__t.html" target="_top" xlink:title="Implementation of parser in XML format. ">
<polygon fill="none" stroke="black" points="146.5,-0.5 146.5,-30.5 254.5,-30.5 254.5,-0.5 146.5,-0.5"/>
<text text-anchor="start" x="154.5" y="-18.5" font-family="FreeSans" font-size="10.00">cfgfile::details::parser</text>
<text text-anchor="middle" x="200.5" y="-7.5" font-family="FreeSans" font-size="10.00">_dom_impl_t&lt; Trait &gt;</text>
</a>
</g>
</g>
<!-- Node1&#45;&gt;Node3 -->
<g id="edge2" class="edge"><title>Node1&#45;&gt;Node3</title>
<path fill="none" stroke="midnightblue" d="M115.504,-29.3076C125.752,-27.6229 136.296,-25.8896 146.303,-24.2447"/>
<polygon fill="midnightblue" stroke="midnightblue" points="114.685,-25.8951 105.385,-30.9709 115.821,-32.8024 114.685,-25.8951"/>
</g>
</g>
</svg>
