<?xml version="1.0" encoding="UTF-8" standalone="no"?>
<!DOCTYPE svg PUBLIC "-//W3C//DTD SVG 1.1//EN"
 "http://www.w3.org/Graphics/SVG/1.1/DTD/svg11.dtd">
<!-- Generated by graphviz version 2.38.0 (20140413.2041)
 -->
<!-- Title: cfgfile::tag_t&lt; Trait &gt; Pages: 1 -->
<svg width="259pt" height="343pt"
 viewBox="0.00 0.00 259.00 343.00" xmlns="http://www.w3.org/2000/svg" xmlns:xlink="http://www.w3.org/1999/xlink">
<g id="graph0" class="graph" transform="scale(1 1) rotate(0) translate(4 339)">
<title>cfgfile::tag_t&lt; Trait &gt;</title>
<!-- Node1 -->
<g id="node1" class="node"><title>Node1</title>
<polygon fill="#bfbfbf" stroke="black" points="0,-163 0,-182 108,-182 108,-163 0,-163"/>
<text text-anchor="middle" x="54" y="-170" font-family="Helvetica,sans-Serif" font-size="10.00">cfgfile::tag_t&lt; Trait &gt;</text>
</g>
<!-- Node2 -->
<g id="node2" class="node"><title>Node2</title>
<g id="a_node2"><a xlink:href="classcfgfile_1_1tag__no__value__t.html" target="_top" xlink:title="Tag without a value. ">
<polygon fill="none" stroke="black" points="144,-304.5 144,-334.5 251,-334.5 251,-304.5 144,-304.5"/>
<text text-anchor="start" x="152" y="-322.5" font-family="Helvetica,sans-Serif" font-size="10.00">cfgfile::tag_no_value</text>
<text text-anchor="middle" x="197.5" y="-311.5" font-family="Helvetica,sans-Serif" font-size="10.00">_t&lt; Trait &gt;</text>
</a>
</g>
</g>
<!-- Node1&#45;&gt;Node2 -->
<g id="edge1" class="edge"><title>Node1&#45;&gt;Node2</title>
<path fill="none" stroke="midnightblue" d="M64.3803,-191.02C78.4984,-217.309 107.486,-265.572 144,-295.5 148.03,-298.804 152.59,-301.755 157.297,-304.362"/>
<polygon fill="midnightblue" stroke="midnightblue" points="67.4516,-189.34 59.7127,-182.104 61.25,-192.587 67.4516,-189.34"/>
</g>
<!-- Node3 -->
<g id="node3" class="node"><title>Node3</title>
<g id="a_node3"><a xlink:href="classcfgfile_1_1tag__scalar__t.html" target="_top" xlink:title="Tag with scalar value. ">
<polygon fill="none" stroke="black" points="150.5,-255.5 150.5,-285.5 244.5,-285.5 244.5,-255.5 150.5,-255.5"/>
<text text-anchor="start" x="158.5" y="-273.5" font-family="Helvetica,sans-Serif" font-size="10.00">cfgfile::tag_scalar</text>
<text text-anchor="middle" x="197.5" y="-262.5" font-family="Helvetica,sans-Serif" font-size="10.00">_t&lt; Trait &gt;</text>
</a>
</g>
</g>
<!-- Node1&#45;&gt;Node3 -->
<g id="edge2" class="edge"><title>Node1&#45;&gt;Node3</title>
<path fill="none" stroke="midnightblue" d="M72.2839,-189.264C89.4747,-205.337 117.099,-229.589 144,-246.5 149.091,-249.7 154.679,-252.719 160.252,-255.465"/>
<polygon fill="midnightblue" stroke="midnightblue" points="74.3952,-186.442 64.7318,-182.098 69.5772,-191.52 74.3952,-186.442"/>
</g>
<!-- Node4 -->
<g id="node4" class="node"><title>Node4</title>
<g id="a_node4"><a xlink:href="classcfgfile_1_1tag__scalar__t_3_01bool_00_01_trait_01_4.html" target="_top" xlink:title="Tag with bool value. ">
<polygon fill="none" stroke="black" points="150.5,-206.5 150.5,-236.5 244.5,-236.5 244.5,-206.5 150.5,-206.5"/>
<text text-anchor="start" x="158.5" y="-224.5" font-family="Helvetica,sans-Serif" font-size="10.00">cfgfile::tag_scalar</text>
<text text-anchor="middle" x="197.5" y="-213.5" font-family="Helvetica,sans-Serif" font-size="10.00">_t&lt; bool, Trait &gt;</text>
</a>
</g>
</g>
<!-- Node1&#45;&gt;Node4 -->
<g id="edge3" class="edge"><title>Node1&#45;&gt;Node4</title>
<path fill="none" stroke="midnightblue" d="M92.248,-185.399C110.913,-191.862 133.624,-199.727 153.077,-206.463"/>
<polygon fill="midnightblue" stroke="midnightblue" points="93.2133,-182.029 82.6185,-182.064 90.9227,-188.644 93.2133,-182.029"/>
</g>
<!-- Node5 -->
<g id="node5" class="node"><title>Node5</title>
<g id="a_node5"><a xlink:href="classcfgfile_1_1tag__scalar__t_3_01_q_string_00_01_trait_01_4.html" target="_top" xlink:title="Tag with QString value. ">
<polygon fill="none" stroke="black" points="147,-157.5 147,-187.5 248,-187.5 248,-157.5 147,-157.5"/>
<text text-anchor="start" x="155" y="-175.5" font-family="Helvetica,sans-Serif" font-size="10.00">cfgfile::tag_scalar</text>
<text text-anchor="middle" x="197.5" y="-164.5" font-family="Helvetica,sans-Serif" font-size="10.00">_t&lt; QString, Trait &gt;</text>
</a>
</g>
</g>
<!-- Node1&#45;&gt;Node5 -->
<g id="edge4" class="edge"><title>Node1&#45;&gt;Node5</title>
<path fill="none" stroke="midnightblue" d="M118.354,-172.5C127.907,-172.5 137.643,-172.5 146.853,-172.5"/>
<polygon fill="midnightblue" stroke="midnightblue" points="118.092,-169 108.092,-172.5 118.092,-176 118.092,-169"/>
</g>
<!-- Node6 -->
<g id="node6" class="node"><title>Node6</title>
<g id="a_node6"><a xlink:href="classcfgfile_1_1tag__scalar__t_3_01typename_01_trait_1_1string__t_00_01_trait_01_4.html" target="_top" xlink:title="Tag with string value. ">
<polygon fill="none" stroke="black" points="145,-98 145,-139 250,-139 250,-98 145,-98"/>
<text text-anchor="start" x="153" y="-127" font-family="Helvetica,sans-Serif" font-size="10.00">cfgfile::tag_scalar</text>
<text text-anchor="start" x="153" y="-116" font-family="Helvetica,sans-Serif" font-size="10.00">_t&lt; typename Trait::</text>
<text text-anchor="middle" x="197.5" y="-105" font-family="Helvetica,sans-Serif" font-size="10.00">string_t, Trait &gt;</text>
</a>
</g>
</g>
<!-- Node1&#45;&gt;Node6 -->
<g id="edge5" class="edge"><title>Node1&#45;&gt;Node6</title>
<path fill="none" stroke="midnightblue" d="M89.7779,-159.228C106.35,-152.904 126.509,-145.21 144.826,-138.22"/>
<polygon fill="midnightblue" stroke="midnightblue" points="88.0665,-156.135 79.9716,-162.97 90.5624,-162.675 88.0665,-156.135"/>
</g>
<!-- Node7 -->
<g id="node7" class="node"><title>Node7</title>
<g id="a_node7"><a xlink:href="classcfgfile_1_1tag__scalar__vector__t.html" target="_top" xlink:title="Tag with multiple scalar values. ">
<polygon fill="none" stroke="black" points="150,-49.5 150,-79.5 245,-79.5 245,-49.5 150,-49.5"/>
<text text-anchor="start" x="158" y="-67.5" font-family="Helvetica,sans-Serif" font-size="10.00">cfgfile::tag_scalar</text>
<text text-anchor="middle" x="197.5" y="-56.5" font-family="Helvetica,sans-Serif" font-size="10.00">_vector_t&lt; Trait &gt;</text>
</a>
</g>
</g>
<!-- Node1&#45;&gt;Node7 -->
<g id="edge6" class="edge"><title>Node1&#45;&gt;Node7</title>
<path fill="none" stroke="midnightblue" d="M70.0543,-155.258C86.736,-136.926 115.116,-107.95 144,-88.5 148.821,-85.2533 154.153,-82.2459 159.516,-79.5359"/>
<polygon fill="midnightblue" stroke="midnightblue" points="67.3128,-153.073 63.2531,-162.86 72.5295,-157.741 67.3128,-153.073"/>
</g>
<!-- Node8 -->
<g id="node8" class="node"><title>Node8</title>
<g id="a_node8"><a xlink:href="classcfgfile_1_1tag__vector__of__tags__t.html" target="_top" xlink:title="Tag with multiple instancies of the given tag. ">
<polygon fill="none" stroke="black" points="147.5,-0.5 147.5,-30.5 247.5,-30.5 247.5,-0.5 147.5,-0.5"/>
<text text-anchor="start" x="155.5" y="-18.5" font-family="Helvetica,sans-Serif" font-size="10.00">cfgfile::tag_vector</text>
<text text-anchor="middle" x="197.5" y="-7.5" font-family="Helvetica,sans-Serif" font-size="10.00">_of_tags_t&lt; Trait &gt;</text>
</a>
</g>
</g>
<!-- Node1&#45;&gt;Node8 -->
<g id="edge7" class="edge"><title>Node1&#45;&gt;Node8</title>
<path fill="none" stroke="midnightblue" d="M63.5258,-153.873C77.0804,-126.014 105.95,-73.2708 144,-40.5 148.36,-36.7448 153.381,-33.4225 158.553,-30.5264"/>
<polygon fill="midnightblue" stroke="midnightblue" points="60.3544,-152.392 59.2364,-162.928 66.6805,-155.389 60.3544,-152.392"/>
</g>
</g>
</svg>
