<?xml version="1.0" encoding="UTF-8" standalone="no"?>
<!DOCTYPE svg PUBLIC "-//W3C//DTD SVG 1.1//EN"
 "http://www.w3.org/Graphics/SVG/1.1/DTD/svg11.dtd">
<!-- Generated by graphviz version 2.43.0 (0)
 -->
<!-- Title: cfgfile::tag_t&lt; Trait &gt; Pages: 1 -->
<svg width="287pt" height="182pt"
 viewBox="0.00 0.00 287.00 182.00" xmlns="http://www.w3.org/2000/svg" xmlns:xlink="http://www.w3.org/1999/xlink">
<g id="graph0" class="graph" transform="scale(1 1) rotate(0) translate(4 178)">
<title>cfgfile::tag_t&lt; Trait &gt;</title>
<!-- Node1 -->
<g id="Node000001" class="node">
<title>Node1</title>
<g id="a_Node000001"><a xlink:title="Base class for the tags in the configuration file.">
<polygon fill="#999999" stroke="#666666" points="121,-96.5 0,-96.5 0,-77.5 121,-77.5 121,-96.5"/>
<text text-anchor="middle" x="60.5" y="-84.5" font-family="Helvetica,sans-Serif" font-size="10.00">cfgfile::tag_t&lt; Trait &gt;</text>
</a>
</g>
</g>
<!-- Node2 -->
<g id="Node000002" class="node">
<title>Node2</title>
<g id="a_Node000002"><a xlink:href="classcfgfile_1_1tag__no__value__t.html" target="_top" xlink:title="Tag without a value.">
<polygon fill="white" stroke="#666666" points="277,-174 159,-174 159,-144 277,-144 277,-174"/>
<text text-anchor="start" x="167" y="-162" font-family="Helvetica,sans-Serif" font-size="10.00">cfgfile::tag_no_value</text>
<text text-anchor="middle" x="218" y="-151" font-family="Helvetica,sans-Serif" font-size="10.00">_t&lt; Trait &gt;</text>
</a>
</g>
</g>
<!-- Node1&#45;&gt;Node2 -->
<g id="edge1_Node000001_Node000002" class="edge">
<title>Node1&#45;&gt;Node2</title>
<g id="a_edge1_Node000001_Node000002"><a xlink:title=" ">
<path fill="none" stroke="#63b8ff" d="M88.54,-101.37C107.5,-111.25 133.55,-124.44 157,-135 163.75,-138.04 171.01,-141.11 178.06,-143.99"/>
<polygon fill="#63b8ff" stroke="#63b8ff" points="90.07,-98.21 79.59,-96.67 86.82,-104.41 90.07,-98.21"/>
</a>
</g>
</g>
<!-- Node3 -->
<g id="Node000003" class="node">
<title>Node3</title>
<g id="a_Node000003"><a xlink:href="classcfgfile_1_1tag__scalar__t.html" target="_top" xlink:title="Tag with scalar value.">
<polygon fill="white" stroke="#666666" points="269.5,-126 166.5,-126 166.5,-96 269.5,-96 269.5,-126"/>
<text text-anchor="start" x="174.5" y="-114" font-family="Helvetica,sans-Serif" font-size="10.00">cfgfile::tag_scalar</text>
<text text-anchor="middle" x="218" y="-103" font-family="Helvetica,sans-Serif" font-size="10.00">_t&lt; T, Trait &gt;</text>
</a>
</g>
</g>
<!-- Node1&#45;&gt;Node3 -->
<g id="edge2_Node000001_Node000003" class="edge">
<title>Node1&#45;&gt;Node3</title>
<g id="a_edge2_Node000001_Node000003"><a xlink:title=" ">
<path fill="none" stroke="#63b8ff" d="M131.07,-97.74C142.94,-99.57 155.07,-101.44 166.34,-103.18"/>
<polygon fill="#63b8ff" stroke="#63b8ff" points="131.59,-94.28 121.18,-96.21 130.52,-101.19 131.59,-94.28"/>
</a>
</g>
</g>
<!-- Node4 -->
<g id="Node000004" class="node">
<title>Node4</title>
<g id="a_Node000004"><a xlink:href="classcfgfile_1_1tag__scalar__vector__t.html" target="_top" xlink:title="Tag with multiple scalar values.">
<polygon fill="white" stroke="#666666" points="276.5,-78 159.5,-78 159.5,-48 276.5,-48 276.5,-78"/>
<text text-anchor="start" x="167.5" y="-66" font-family="Helvetica,sans-Serif" font-size="10.00">cfgfile::tag_scalar</text>
<text text-anchor="middle" x="218" y="-55" font-family="Helvetica,sans-Serif" font-size="10.00">_vector_t&lt; T, Trait &gt;</text>
</a>
</g>
</g>
<!-- Node1&#45;&gt;Node4 -->
<g id="edge3_Node000001_Node000004" class="edge">
<title>Node1&#45;&gt;Node4</title>
<g id="a_edge3_Node000001_Node000004"><a xlink:title=" ">
<path fill="none" stroke="#63b8ff" d="M131.25,-76.23C140.62,-74.79 150.15,-73.32 159.28,-71.91"/>
<polygon fill="#63b8ff" stroke="#63b8ff" points="130.52,-72.81 121.18,-77.79 131.59,-79.72 130.52,-72.81"/>
</a>
</g>
</g>
<!-- Node5 -->
<g id="Node000005" class="node">
<title>Node5</title>
<g id="a_Node000005"><a xlink:href="classcfgfile_1_1tag__vector__of__tags__t.html" target="_top" xlink:title="Tag with multiple instancies of the given tag.">
<polygon fill="white" stroke="#666666" points="279,-30 157,-30 157,0 279,0 279,-30"/>
<text text-anchor="start" x="165" y="-18" font-family="Helvetica,sans-Serif" font-size="10.00">cfgfile::tag_vector</text>
<text text-anchor="middle" x="218" y="-7" font-family="Helvetica,sans-Serif" font-size="10.00">_of_tags_t&lt; T, Trait &gt;</text>
</a>
</g>
</g>
<!-- Node1&#45;&gt;Node5 -->
<g id="edge4_Node000001_Node000005" class="edge">
<title>Node1&#45;&gt;Node5</title>
<g id="a_edge4_Node000001_Node000005"><a xlink:title=" ">
<path fill="none" stroke="#63b8ff" d="M88.54,-72.63C107.5,-62.75 133.55,-49.56 157,-39 163.75,-35.96 171.01,-32.89 178.06,-30.01"/>
<polygon fill="#63b8ff" stroke="#63b8ff" points="86.82,-69.59 79.59,-77.33 90.07,-75.79 86.82,-69.59"/>
</a>
</g>
</g>
</g>
</svg>
