<?xml version="1.0" encoding="UTF-8" standalone="no"?>
<!DOCTYPE svg PUBLIC "-//W3C//DTD SVG 1.1//EN"
 "http://www.w3.org/Graphics/SVG/1.1/DTD/svg11.dtd">
<!-- Generated by graphviz version 2.38.0 (20140413.2041)
 -->
<!-- Title: const.hpp Pages: 1 -->
<svg width="474pt" height="308pt"
 viewBox="0.00 0.00 473.50 308.00" xmlns="http://www.w3.org/2000/svg" xmlns:xlink="http://www.w3.org/1999/xlink">
<g id="graph0" class="graph" transform="scale(1 1) rotate(0) translate(4 304)">
<title>const.hpp</title>
<!-- Node1 -->
<g id="node1" class="node"><title>Node1</title>
<polygon fill="#bfbfbf" stroke="black" points="216.5,-280.5 216.5,-299.5 275.5,-299.5 275.5,-280.5 216.5,-280.5"/>
<text text-anchor="middle" x="246" y="-287.5" font-family="Helvetica,sans-Serif" font-size="10.00">const.hpp</text>
</g>
<!-- Node2 -->
<g id="node2" class="node"><title>Node2</title>
<g id="a_node2"><a xlink:href="input__stream_8hpp.html" target="_top" xlink:title="input_stream.hpp">
<polygon fill="none" stroke="black" points="0,-224.5 0,-243.5 92,-243.5 92,-224.5 0,-224.5"/>
<text text-anchor="middle" x="46" y="-231.5" font-family="Helvetica,sans-Serif" font-size="10.00">input_stream.hpp</text>
</a>
</g>
</g>
<!-- Node1&#45;&gt;Node2 -->
<g id="edge1" class="edge"><title>Node1&#45;&gt;Node2</title>
<path fill="none" stroke="midnightblue" d="M206.356,-278.296C168.587,-268.099 112.466,-252.946 77.6147,-243.536"/>
<polygon fill="midnightblue" stroke="midnightblue" points="205.923,-281.804 216.489,-281.032 207.747,-275.046 205.923,-281.804"/>
</g>
<!-- Node3 -->
<g id="node3" class="node"><title>Node3</title>
<g id="a_node3"><a xlink:href="parser_8hpp.html" target="_top" xlink:title="parser.hpp">
<polygon fill="none" stroke="black" points="104,-112.5 104,-131.5 166,-131.5 166,-112.5 104,-112.5"/>
<text text-anchor="middle" x="135" y="-119.5" font-family="Helvetica,sans-Serif" font-size="10.00">parser.hpp</text>
</a>
</g>
</g>
<!-- Node1&#45;&gt;Node3 -->
<g id="edge9" class="edge"><title>Node1&#45;&gt;Node3</title>
<path fill="none" stroke="midnightblue" d="M206.853,-279.084C188,-272.296 166.768,-261.299 154,-244 128.24,-209.098 131.47,-152.985 133.845,-131.629"/>
<polygon fill="midnightblue" stroke="midnightblue" points="205.843,-282.437 216.436,-282.262 208.046,-275.793 205.843,-282.437"/>
</g>
<!-- Node7 -->
<g id="node7" class="node"><title>Node7</title>
<g id="a_node7"><a xlink:href="string__format_8hpp.html" target="_top" xlink:title="string_format.hpp">
<polygon fill="none" stroke="black" points="163,-224.5 163,-243.5 255,-243.5 255,-224.5 163,-224.5"/>
<text text-anchor="middle" x="209" y="-231.5" font-family="Helvetica,sans-Serif" font-size="10.00">string_format.hpp</text>
</a>
</g>
</g>
<!-- Node1&#45;&gt;Node7 -->
<g id="edge10" class="edge"><title>Node1&#45;&gt;Node7</title>
<path fill="none" stroke="midnightblue" d="M234.054,-271.566C227.688,-262.275 220.133,-251.248 214.996,-243.751"/>
<polygon fill="midnightblue" stroke="midnightblue" points="231.351,-273.812 239.89,-280.083 237.125,-269.855 231.351,-273.812"/>
</g>
<!-- Node8 -->
<g id="node8" class="node"><title>Node8</title>
<g id="a_node8"><a xlink:href="tag__scalar_8hpp.html" target="_top" xlink:title="tag_scalar.hpp">
<polygon fill="none" stroke="black" points="201,-168.5 201,-187.5 281,-187.5 281,-168.5 201,-168.5"/>
<text text-anchor="middle" x="241" y="-175.5" font-family="Helvetica,sans-Serif" font-size="10.00">tag_scalar.hpp</text>
</a>
</g>
</g>
<!-- Node1&#45;&gt;Node8 -->
<g id="edge21" class="edge"><title>Node1&#45;&gt;Node8</title>
<path fill="none" stroke="midnightblue" d="M256.043,-271C262.057,-258 267.849,-239.989 264,-224 260.755,-210.522 252.755,-196.54 247.105,-187.809"/>
<polygon fill="midnightblue" stroke="midnightblue" points="252.769,-269.718 251.353,-280.218 259.008,-272.892 252.769,-269.718"/>
</g>
<!-- Node10 -->
<g id="node10" class="node"><title>Node10</title>
<g id="a_node10"><a xlink:href="tag__no__value_8hpp.html" target="_top" xlink:title="tag_no_value.hpp">
<polygon fill="none" stroke="black" points="372.5,-112.5 372.5,-131.5 465.5,-131.5 465.5,-112.5 372.5,-112.5"/>
<text text-anchor="middle" x="419" y="-119.5" font-family="Helvetica,sans-Serif" font-size="10.00">tag_no_value.hpp</text>
</a>
</g>
</g>
<!-- Node1&#45;&gt;Node10 -->
<g id="edge16" class="edge"><title>Node1&#45;&gt;Node10</title>
<path fill="none" stroke="midnightblue" d="M285.466,-283.225C314.95,-277.328 354.996,-265.816 384,-244 408.037,-225.919 413.166,-216.752 422,-188 427.972,-168.563 424.063,-144.324 421.215,-131.646"/>
<polygon fill="midnightblue" stroke="midnightblue" points="284.7,-279.807 275.513,-285.084 285.985,-286.688 284.7,-279.807"/>
</g>
<!-- Node11 -->
<g id="node11" class="node"><title>Node11</title>
<g id="a_node11"><a xlink:href="format_8hpp.html" target="_top" xlink:title="format.hpp">
<polygon fill="none" stroke="black" points="311.5,-224.5 311.5,-243.5 374.5,-243.5 374.5,-224.5 311.5,-224.5"/>
<text text-anchor="middle" x="343" y="-231.5" font-family="Helvetica,sans-Serif" font-size="10.00">format.hpp</text>
</a>
</g>
</g>
<!-- Node1&#45;&gt;Node11 -->
<g id="edge18" class="edge"><title>Node1&#45;&gt;Node11</title>
<path fill="none" stroke="midnightblue" d="M270.335,-275.453C288.243,-265.483 312.054,-252.228 327.454,-243.655"/>
<polygon fill="midnightblue" stroke="midnightblue" points="268.62,-272.402 261.585,-280.324 272.025,-278.518 268.62,-272.402"/>
</g>
<!-- Node2&#45;&gt;Node3 -->
<g id="edge2" class="edge"><title>Node2&#45;&gt;Node3</title>
<path fill="none" stroke="midnightblue" d="M42.5035,-213.893C41.0203,-200.065 41.2887,-181.511 50,-168 62.1244,-149.195 84.845,-137.747 103.747,-131.107"/>
<polygon fill="midnightblue" stroke="midnightblue" points="39.0985,-214.796 44.0144,-224.181 46.0242,-213.779 39.0985,-214.796"/>
</g>
<!-- Node5 -->
<g id="node5" class="node"><title>Node5</title>
<g id="a_node5"><a xlink:href="utils_8hpp.html" target="_top" xlink:title="utils.hpp">
<polygon fill="none" stroke="black" points="108.5,-56.5 108.5,-75.5 161.5,-75.5 161.5,-56.5 108.5,-56.5"/>
<text text-anchor="middle" x="135" y="-63.5" font-family="Helvetica,sans-Serif" font-size="10.00">utils.hpp</text>
</a>
</g>
</g>
<!-- Node2&#45;&gt;Node5 -->
<g id="edge8" class="edge"><title>Node2&#45;&gt;Node5</title>
<path fill="none" stroke="midnightblue" d="M39.4086,-214.325C35.7758,-200.974 33.0796,-182.822 39,-168 55.8702,-125.764 99.7357,-91.0921 121.849,-75.6528"/>
<polygon fill="midnightblue" stroke="midnightblue" points="36.1826,-215.735 42.5118,-224.232 42.8625,-213.643 36.1826,-215.735"/>
</g>
<!-- Node6 -->
<g id="node6" class="node"><title>Node6</title>
<g id="a_node6"><a xlink:href="lex_8hpp.html" target="_top" xlink:title="lex.hpp">
<polygon fill="none" stroke="black" points="59,-168.5 59,-187.5 107,-187.5 107,-168.5 59,-168.5"/>
<text text-anchor="middle" x="83" y="-175.5" font-family="Helvetica,sans-Serif" font-size="10.00">lex.hpp</text>
</a>
</g>
</g>
<!-- Node2&#45;&gt;Node6 -->
<g id="edge6" class="edge"><title>Node2&#45;&gt;Node6</title>
<path fill="none" stroke="midnightblue" d="M57.9458,-215.566C64.3117,-206.275 71.8668,-195.248 77.0039,-187.751"/>
<polygon fill="midnightblue" stroke="midnightblue" points="54.8749,-213.855 52.1098,-224.083 60.6494,-217.812 54.8749,-213.855"/>
</g>
<!-- Node4 -->
<g id="node4" class="node"><title>Node4</title>
<g id="a_node4"><a xlink:href="all_8hpp.html" target="_top" xlink:title="all.hpp">
<polygon fill="none" stroke="black" points="218.5,-0.5 218.5,-19.5 263.5,-19.5 263.5,-0.5 218.5,-0.5"/>
<text text-anchor="middle" x="241" y="-7.5" font-family="Helvetica,sans-Serif" font-size="10.00">all.hpp</text>
</a>
</g>
</g>
<!-- Node3&#45;&gt;Node4 -->
<g id="edge3" class="edge"><title>Node3&#45;&gt;Node4</title>
<path fill="none" stroke="midnightblue" d="M150.518,-104.897C173.306,-81.2486 215.031,-37.9493 232.721,-19.5914"/>
<polygon fill="midnightblue" stroke="midnightblue" points="147.736,-102.739 143.318,-112.368 152.777,-107.596 147.736,-102.739"/>
</g>
<!-- Node3&#45;&gt;Node5 -->
<g id="edge4" class="edge"><title>Node3&#45;&gt;Node5</title>
<path fill="none" stroke="midnightblue" d="M135,-101.805C135,-92.9102 135,-82.7798 135,-75.7511"/>
<polygon fill="midnightblue" stroke="midnightblue" points="131.5,-102.083 135,-112.083 138.5,-102.083 131.5,-102.083"/>
</g>
<!-- Node5&#45;&gt;Node4 -->
<g id="edge5" class="edge"><title>Node5&#45;&gt;Node4</title>
<path fill="none" stroke="midnightblue" d="M161.056,-51.7261C180.684,-41.7271 207.028,-28.3065 224.012,-19.6545"/>
<polygon fill="midnightblue" stroke="midnightblue" points="159.352,-48.666 152.031,-56.324 162.53,-54.9033 159.352,-48.666"/>
</g>
<!-- Node6&#45;&gt;Node3 -->
<g id="edge7" class="edge"><title>Node6&#45;&gt;Node3</title>
<path fill="none" stroke="midnightblue" d="M98.6794,-160.718C107.845,-151.2 119.053,-139.561 126.573,-131.751"/>
<polygon fill="midnightblue" stroke="midnightblue" points="96.0021,-158.452 91.5867,-168.083 101.044,-163.308 96.0021,-158.452"/>
</g>
<!-- Node7&#45;&gt;Node3 -->
<g id="edge11" class="edge"><title>Node7&#45;&gt;Node3</title>
<path fill="none" stroke="midnightblue" d="M197.535,-215.957C181.498,-192.118 152.968,-149.709 140.78,-131.591"/>
<polygon fill="midnightblue" stroke="midnightblue" points="194.708,-218.025 203.193,-224.368 200.516,-214.118 194.708,-218.025"/>
</g>
<!-- Node7&#45;&gt;Node8 -->
<g id="edge12" class="edge"><title>Node7&#45;&gt;Node8</title>
<path fill="none" stroke="midnightblue" d="M219.504,-215.275C224.973,-206.045 231.418,-195.17 235.814,-187.751"/>
<polygon fill="midnightblue" stroke="midnightblue" points="216.371,-213.696 214.284,-224.083 222.393,-217.264 216.371,-213.696"/>
</g>
<!-- Node9 -->
<g id="node9" class="node"><title>Node9</title>
<g id="a_node9"><a xlink:href="tag__scalar__vector_8hpp.html" target="_top" xlink:title="tag_scalar_vector.hpp">
<polygon fill="none" stroke="black" points="299.5,-168.5 299.5,-187.5 412.5,-187.5 412.5,-168.5 299.5,-168.5"/>
<text text-anchor="middle" x="356" y="-175.5" font-family="Helvetica,sans-Serif" font-size="10.00">tag_scalar_vector.hpp</text>
</a>
</g>
</g>
<!-- Node7&#45;&gt;Node9 -->
<g id="edge14" class="edge"><title>Node7&#45;&gt;Node9</title>
<path fill="none" stroke="midnightblue" d="M241.923,-220.906C269.56,-210.754 308.344,-196.506 332.816,-187.516"/>
<polygon fill="midnightblue" stroke="midnightblue" points="240.472,-217.71 232.293,-224.444 242.886,-224.281 240.472,-217.71"/>
</g>
<!-- Node8&#45;&gt;Node4 -->
<g id="edge13" class="edge"><title>Node8&#45;&gt;Node4</title>
<path fill="none" stroke="midnightblue" d="M241,-157.93C241,-121.92 241,-45.2312 241,-19.5681"/>
<polygon fill="midnightblue" stroke="midnightblue" points="237.5,-158.075 241,-168.075 244.5,-158.075 237.5,-158.075"/>
</g>
<!-- Node9&#45;&gt;Node4 -->
<g id="edge15" class="edge"><title>Node9&#45;&gt;Node4</title>
<path fill="none" stroke="midnightblue" d="M344.059,-159.763C319.693,-124.592 265.022,-45.6756 246.936,-19.5681"/>
<polygon fill="midnightblue" stroke="midnightblue" points="341.245,-161.848 349.817,-168.075 346.999,-157.862 341.245,-161.848"/>
</g>
<!-- Node10&#45;&gt;Node4 -->
<g id="edge17" class="edge"><title>Node10&#45;&gt;Node4</title>
<path fill="none" stroke="midnightblue" d="M396.703,-106.955C375.677,-93.736 343.26,-73.4232 315,-56 294.265,-43.2166 270.14,-28.5919 255.218,-19.5754"/>
<polygon fill="midnightblue" stroke="midnightblue" points="394.911,-109.962 405.239,-112.325 398.638,-104.037 394.911,-109.962"/>
</g>
<!-- Node11&#45;&gt;Node8 -->
<g id="edge19" class="edge"><title>Node11&#45;&gt;Node8</title>
<path fill="none" stroke="midnightblue" d="M317.669,-219.59C298.81,-209.605 273.616,-196.267 257.347,-187.655"/>
<polygon fill="midnightblue" stroke="midnightblue" points="316.136,-222.738 326.612,-224.324 319.412,-216.552 316.136,-222.738"/>
</g>
<!-- Node11&#45;&gt;Node9 -->
<g id="edge20" class="edge"><title>Node11&#45;&gt;Node9</title>
<path fill="none" stroke="midnightblue" d="M347.55,-214.101C349.708,-205.136 352.182,-194.858 353.893,-187.751"/>
<polygon fill="midnightblue" stroke="midnightblue" points="344.085,-213.542 345.147,-224.083 350.89,-215.18 344.085,-213.542"/>
</g>
</g>
</svg>
