<?xml version="1.0" encoding="UTF-8" standalone="no"?>
<!DOCTYPE svg PUBLIC "-//W3C//DTD SVG 1.1//EN"
 "http://www.w3.org/Graphics/SVG/1.1/DTD/svg11.dtd">
<!-- Generated by graphviz version 2.43.0 (0)
 -->
<!-- Title: const.hpp Pages: 1 -->
<!--zoomable 302 -->

<svg id="main" version="1.1" xmlns="http://www.w3.org/2000/svg" xmlns:xlink="http://www.w3.org/1999/xlink" xml:space="preserve" onload="init(evt)">
<style type="text/css"><![CDATA[
.node, .edge {opacity: 0.7;}
.node.selected, .edge.selected {opacity: 1;}
.edge:hover path { stroke: red; }
.edge:hover polygon { stroke: red; fill: red; }
]]></style>

<defs>
  <circle id="rim" cx="0" cy="0" r="7"/>
  <circle id="rim2" cx="0" cy="0" r="3.5"/>
  <g id="zoomPlus">
    <use xlink:href="#rim" fill="#404040"><set attributeName="fill" to="#808080" begin="zoomplus.mouseover" end="zoomplus.mouseout"/></use>
    <path d="M-4,0h8M0,-4v8" fill="none" stroke="white" stroke-width="1.5" pointer-events="none"/>
  </g>
  <g id="zoomMin">
    <use xlink:href="#rim" fill="#404040"><set attributeName="fill" to="#808080" begin="zoomminus.mouseover" end="zoomminus.mouseout"/></use>
    <path d="M-4,0h8" fill="none" stroke="white" stroke-width="1.5" pointer-events="none"/>
  </g>
  <g id="arrowUp" transform="translate(30 24)">
    <use xlink:href="#rim"/>
    <path pointer-events="none" fill="none" stroke="white" stroke-width="1.5" d="M0,-3.0v7 M-2.5,-0.5L0,-3.0L2.5,-0.5"/>
  </g>
  <g id="arrowRight" transform="rotate(90) translate(36 -43)">
    <use xlink:href="#rim"/>
    <path pointer-events="none" fill="none" stroke="white" stroke-width="1.5" d="M0,-3.0v7 M-2.5,-0.5L0,-3.0L2.5,-0.5"/>
  </g>
  <g id="arrowDown" transform="rotate(180) translate(-30 -48)">
    <use xlink:href="#rim"/>
    <path pointer-events="none" fill="none" stroke="white" stroke-width="1.5" d="M0,-3.0v7 M-2.5,-0.5L0,-3.0L2.5,-0.5"/>
  </g>
  <g id="arrowLeft" transform="rotate(270) translate(-36 17)">
    <use xlink:href="#rim"/>
    <path pointer-events="none" fill="none" stroke="white" stroke-width="1.5" d="M0,-3.0v7 M-2.5,-0.5L0,-3.0L2.5,-0.5"/>
  </g>
  <g id="resetDef">
    <use xlink:href="#rim2" fill="#404040"><set attributeName="fill" to="#808080" begin="reset.mouseover" end="reset.mouseout"/></use>
  </g>
</defs>
<script type="application/ecmascript">
var viewWidth = 582;
var viewHeight = 302;
var sectionId = 'dynsection-1';
</script>
<script type="application/ecmascript" xlink:href="svg.min.js"/>
<svg id="graph" class="graph">
<g id="viewport">
<title>const.hpp</title>
<!-- Node1 -->
<g id="Node000001" class="node">
<title>Node1</title>
<g id="a_Node000001"><a xlink:title=" ">
<polygon fill="#999999" stroke="#666666" points="286.5,-294 222.5,-294 222.5,-275 286.5,-275 286.5,-294"/>
<text text-anchor="middle" x="254.5" y="-282" font-family="Helvetica,sans-Serif" font-size="10.00">const.hpp</text>
</a>
</g>
</g>
<!-- Node2 -->
<g id="Node000002" class="node">
<title>Node2</title>
<g id="a_Node000002"><a xlink:href="format_8hpp.html" target="_top" xlink:title=" ">
<polygon fill="white" stroke="#666666" points="144,-239 73,-239 73,-220 144,-220 144,-239"/>
<text text-anchor="middle" x="108.5" y="-227" font-family="Helvetica,sans-Serif" font-size="10.00">format.hpp</text>
</a>
</g>
</g>
<!-- Node1&#45;&gt;Node2 -->
<g id="edge1_Node000001_Node000002" class="edge">
<title>Node1&#45;&gt;Node2</title>
<g id="a_edge1_Node000001_Node000002"><a xlink:title=" ">
<path fill="none" stroke="#63b8ff" d="M221.58,-271.55C194.47,-261.71 156.67,-247.98 132.38,-239.17"/>
<polygon fill="#63b8ff" stroke="#63b8ff" points="220.45,-274.86 231.04,-274.98 222.84,-268.28 220.45,-274.86"/>
</a>
</g>
</g>
<!-- Node3 -->
<g id="Node000003" class="node">
<title>Node3</title>
<g id="a_Node000003"><a xlink:href="tag__scalar_8hpp.html" target="_top" xlink:title=" ">
<polygon fill="white" stroke="#666666" points="87,-184 0,-184 0,-165 87,-165 87,-184"/>
<text text-anchor="middle" x="43.5" y="-172" font-family="Helvetica,sans-Serif" font-size="10.00">tag_scalar.hpp</text>
</a>
</g>
</g>
<!-- Node1&#45;&gt;Node3 -->
<g id="edge21_Node000001_Node000003" class="edge">
<title>Node1&#45;&gt;Node3</title>
<g id="a_edge21_Node000001_Node000003"><a xlink:title=" ">
<path fill="none" stroke="#63b8ff" d="M212.24,-278.57C162.76,-271.97 84.83,-258.77 63.5,-239 47.9,-224.55 44.39,-198.07 43.65,-184.31"/>
<polygon fill="#63b8ff" stroke="#63b8ff" points="211.97,-282.06 222.34,-279.87 212.87,-275.12 211.97,-282.06"/>
</a>
</g>
</g>
<!-- Node6 -->
<g id="Node000006" class="node">
<title>Node6</title>
<g id="a_Node000006"><a xlink:href="input__stream_8hpp.html" target="_top" xlink:title=" ">
<polygon fill="white" stroke="#666666" points="440.5,-239 338.5,-239 338.5,-220 440.5,-220 440.5,-239"/>
<text text-anchor="middle" x="389.5" y="-227" font-family="Helvetica,sans-Serif" font-size="10.00">input_stream.hpp</text>
</a>
</g>
</g>
<!-- Node1&#45;&gt;Node6 -->
<g id="edge6_Node000001_Node000006" class="edge">
<title>Node1&#45;&gt;Node6</title>
<g id="a_edge6_Node000001_Node000006"><a xlink:title=" ">
<path fill="none" stroke="#63b8ff" d="M285.6,-271.29C310.62,-261.47 345.16,-247.91 367.42,-239.17"/>
<polygon fill="#63b8ff" stroke="#63b8ff" points="284.22,-268.07 276.19,-274.98 286.78,-274.59 284.22,-268.07"/>
</a>
</g>
</g>
<!-- Node8 -->
<g id="Node000008" class="node">
<title>Node8</title>
<g id="a_Node000008"><a xlink:href="parser_8hpp.html" target="_top" xlink:title=" ">
<polygon fill="white" stroke="#666666" points="355.5,-129 287.5,-129 287.5,-110 355.5,-110 355.5,-129"/>
<text text-anchor="middle" x="321.5" y="-117" font-family="Helvetica,sans-Serif" font-size="10.00">parser.hpp</text>
</a>
</g>
</g>
<!-- Node1&#45;&gt;Node8 -->
<g id="edge14_Node000001_Node000008" class="edge">
<title>Node1&#45;&gt;Node8</title>
<g id="a_edge14_Node000001_Node000008"><a xlink:title=" ">
<path fill="none" stroke="#63b8ff" d="M263.32,-265.55C267.19,-257.49 271.71,-247.83 275.5,-239 292.92,-198.44 311.2,-148.93 318.36,-129.21"/>
<polygon fill="#63b8ff" stroke="#63b8ff" points="260.09,-264.19 258.87,-274.72 266.39,-267.25 260.09,-264.19"/>
</a>
</g>
</g>
<!-- Node10 -->
<g id="Node000010" class="node">
<title>Node10</title>
<g id="a_Node000010"><a xlink:href="string__format_8hpp.html" target="_top" xlink:title=" ">
<polygon fill="white" stroke="#666666" points="266.5,-239 162.5,-239 162.5,-220 266.5,-220 266.5,-239"/>
<text text-anchor="middle" x="214.5" y="-227" font-family="Helvetica,sans-Serif" font-size="10.00">string_format.hpp</text>
</a>
</g>
</g>
<!-- Node1&#45;&gt;Node10 -->
<g id="edge15_Node000001_Node000010" class="edge">
<title>Node1&#45;&gt;Node10</title>
<g id="a_edge15_Node000001_Node000010"><a xlink:title=" ">
<path fill="none" stroke="#63b8ff" d="M241.8,-266.67C234.87,-257.5 226.59,-246.52 220.98,-239.09"/>
<polygon fill="#63b8ff" stroke="#63b8ff" points="239.08,-268.87 247.89,-274.75 244.66,-264.66 239.08,-268.87"/>
</a>
</g>
</g>
<!-- Node11 -->
<g id="Node000011" class="node">
<title>Node11</title>
<g id="a_Node000011"><a xlink:href="tag__no__value_8hpp.html" target="_top" xlink:title=" ">
<polygon fill="white" stroke="#666666" points="574,-129 471,-129 471,-110 574,-110 574,-129"/>
<text text-anchor="middle" x="522.5" y="-117" font-family="Helvetica,sans-Serif" font-size="10.00">tag_no_value.hpp</text>
</a>
</g>
</g>
<!-- Node1&#45;&gt;Node11 -->
<g id="edge19_Node000001_Node000011" class="edge">
<title>Node1&#45;&gt;Node11</title>
<g id="a_edge19_Node000001_Node000011"><a xlink:title=" ">
<path fill="none" stroke="#63b8ff" d="M296.82,-283.09C339.12,-280.69 404.22,-271.43 449.5,-239 489.77,-210.16 512.36,-151.52 519.76,-129.3"/>
<polygon fill="#63b8ff" stroke="#63b8ff" points="296.41,-279.6 286.58,-283.56 296.73,-286.59 296.41,-279.6"/>
</a>
</g>
</g>
<!-- Node2&#45;&gt;Node3 -->
<g id="edge2_Node000002_Node000003" class="edge">
<title>Node2&#45;&gt;Node3</title>
<g id="a_edge2_Node000002_Node000003"><a xlink:title=" ">
<path fill="none" stroke="#63b8ff" d="M90.23,-213.6C78.58,-204.11 63.9,-192.13 54.13,-184.17"/>
<polygon fill="#63b8ff" stroke="#63b8ff" points="88.09,-216.38 98.06,-219.98 92.52,-210.95 88.09,-216.38"/>
</a>
</g>
</g>
<!-- Node5 -->
<g id="Node000005" class="node">
<title>Node5</title>
<g id="a_Node000005"><a xlink:href="tag__scalar__vector_8hpp.html" target="_top" xlink:title=" ">
<polygon fill="white" stroke="#666666" points="228,-184 105,-184 105,-165 228,-165 228,-184"/>
<text text-anchor="middle" x="166.5" y="-172" font-family="Helvetica,sans-Serif" font-size="10.00">tag_scalar_vector.hpp</text>
</a>
</g>
</g>
<!-- Node2&#45;&gt;Node5 -->
<g id="edge4_Node000002_Node000005" class="edge">
<title>Node2&#45;&gt;Node5</title>
<g id="a_edge4_Node000002_Node000005"><a xlink:title=" ">
<path fill="none" stroke="#63b8ff" d="M125.41,-213.04C135.7,-203.64 148.47,-191.98 157.01,-184.17"/>
<polygon fill="#63b8ff" stroke="#63b8ff" points="122.84,-210.66 117.82,-219.98 127.56,-215.82 122.84,-210.66"/>
</a>
</g>
</g>
<!-- Node4 -->
<g id="Node000004" class="node">
<title>Node4</title>
<g id="a_Node000004"><a xlink:href="all_8hpp.html" target="_top" xlink:title=" ">
<polygon fill="white" stroke="#666666" points="313.5,-19 263.5,-19 263.5,0 313.5,0 313.5,-19"/>
<text text-anchor="middle" x="288.5" y="-7" font-family="Helvetica,sans-Serif" font-size="10.00">all.hpp</text>
</a>
</g>
</g>
<!-- Node3&#45;&gt;Node4 -->
<g id="edge3_Node000003_Node000004" class="edge">
<title>Node3&#45;&gt;Node4</title>
<g id="a_edge3_Node000003_Node000004"><a xlink:title=" ">
<path fill="none" stroke="#63b8ff" d="M64.66,-159.42C114.01,-126.59 235.51,-45.75 275.5,-19.15"/>
<polygon fill="#63b8ff" stroke="#63b8ff" points="62.71,-156.51 56.33,-164.97 66.59,-162.34 62.71,-156.51"/>
</a>
</g>
</g>
<!-- Node5&#45;&gt;Node4 -->
<g id="edge5_Node000005_Node000004" class="edge">
<title>Node5&#45;&gt;Node4</title>
<g id="a_edge5_Node000005_Node000004"><a xlink:title=" ">
<path fill="none" stroke="#63b8ff" d="M179.14,-156.62C204.84,-122.28 262.42,-45.34 281.91,-19.31"/>
<polygon fill="#63b8ff" stroke="#63b8ff" points="176.25,-154.63 173.06,-164.74 181.85,-158.83 176.25,-154.63"/>
</a>
</g>
</g>
<!-- Node7 -->
<g id="Node000007" class="node">
<title>Node7</title>
<g id="a_Node000007"><a xlink:href="lex_8hpp.html" target="_top" xlink:title=" ">
<polygon fill="white" stroke="#666666" points="376,-184 323,-184 323,-165 376,-165 376,-184"/>
<text text-anchor="middle" x="349.5" y="-172" font-family="Helvetica,sans-Serif" font-size="10.00">lex.hpp</text>
</a>
</g>
</g>
<!-- Node6&#45;&gt;Node7 -->
<g id="edge7_Node000006_Node000007" class="edge">
<title>Node6&#45;&gt;Node7</title>
<g id="a_edge7_Node000006_Node000007"><a xlink:title=" ">
<path fill="none" stroke="#63b8ff" d="M376.8,-211.67C369.87,-202.5 361.59,-191.52 355.98,-184.09"/>
<polygon fill="#63b8ff" stroke="#63b8ff" points="374.08,-213.87 382.89,-219.75 379.66,-209.66 374.08,-213.87"/>
</a>
</g>
</g>
<!-- Node6&#45;&gt;Node8 -->
<g id="edge12_Node000006_Node000008" class="edge">
<title>Node6&#45;&gt;Node8</title>
<g id="a_edge12_Node000006_Node000008"><a xlink:title=" ">
<path fill="none" stroke="#63b8ff" d="M392.08,-209.27C392.92,-195.99 392.11,-178.38 384.5,-165 375.03,-148.36 356.48,-136.42 341.95,-129.13"/>
<polygon fill="#63b8ff" stroke="#63b8ff" points="388.56,-209.31 391.04,-219.61 395.52,-210.01 388.56,-209.31"/>
</a>
</g>
</g>
<!-- Node9 -->
<g id="Node000009" class="node">
<title>Node9</title>
<g id="a_Node000009"><a xlink:href="utils_8hpp.html" target="_top" xlink:title=" ">
<polygon fill="white" stroke="#666666" points="376,-74 317,-74 317,-55 376,-55 376,-74"/>
<text text-anchor="middle" x="346.5" y="-62" font-family="Helvetica,sans-Serif" font-size="10.00">utils.hpp</text>
</a>
</g>
</g>
<!-- Node6&#45;&gt;Node9 -->
<g id="edge13_Node000006_Node000009" class="edge">
<title>Node6&#45;&gt;Node9</title>
<g id="a_edge13_Node000006_Node000009"><a xlink:title=" ">
<path fill="none" stroke="#63b8ff" d="M397.64,-210.33C402.29,-197.57 406.47,-180.14 402.5,-165 392.85,-128.18 366.18,-90.62 353.44,-74.14"/>
<polygon fill="#63b8ff" stroke="#63b8ff" points="394.32,-209.22 393.8,-219.8 400.8,-211.85 394.32,-209.22"/>
</a>
</g>
</g>
<!-- Node7&#45;&gt;Node8 -->
<g id="edge8_Node000007_Node000008" class="edge">
<title>Node7&#45;&gt;Node8</title>
<g id="a_edge8_Node000007_Node000008"><a xlink:title=" ">
<path fill="none" stroke="#63b8ff" d="M340.16,-155.82C335.41,-146.82 329.84,-136.29 326.04,-129.09"/>
<polygon fill="#63b8ff" stroke="#63b8ff" points="337.11,-157.54 344.88,-164.75 343.3,-154.27 337.11,-157.54"/>
</a>
</g>
</g>
<!-- Node8&#45;&gt;Node4 -->
<g id="edge9_Node000008_Node000004" class="edge">
<title>Node8&#45;&gt;Node4</title>
<g id="a_edge9_Node000008_Node000004"><a xlink:title=" ">
<path fill="none" stroke="#63b8ff" d="M315.68,-100.2C313.14,-92.17 310.15,-82.62 307.5,-74 301.49,-54.42 294.65,-31.37 291.04,-19.14"/>
<polygon fill="#63b8ff" stroke="#63b8ff" points="312.42,-101.51 318.78,-109.98 319.09,-99.39 312.42,-101.51"/>
</a>
</g>
</g>
<!-- Node8&#45;&gt;Node9 -->
<g id="edge10_Node000008_Node000009" class="edge">
<title>Node8&#45;&gt;Node9</title>
<g id="a_edge10_Node000008_Node000009"><a xlink:title=" ">
<path fill="none" stroke="#63b8ff" d="M329.98,-100.53C334.19,-91.6 339.09,-81.22 342.45,-74.09"/>
<polygon fill="#63b8ff" stroke="#63b8ff" points="326.73,-99.21 325.63,-109.75 333.06,-102.2 326.73,-99.21"/>
</a>
</g>
</g>
<!-- Node9&#45;&gt;Node4 -->
<g id="edge11_Node000009_Node000004" class="edge">
<title>Node9&#45;&gt;Node4</title>
<g id="a_edge11_Node000009_Node000004"><a xlink:title=" ">
<path fill="none" stroke="#63b8ff" d="M329.59,-48.04C319.3,-38.64 306.53,-26.98 297.99,-19.17"/>
<polygon fill="#63b8ff" stroke="#63b8ff" points="327.44,-50.82 337.18,-54.98 332.16,-45.66 327.44,-50.82"/>
</a>
</g>
</g>
<!-- Node10&#45;&gt;Node3 -->
<g id="edge17_Node000010_Node000003" class="edge">
<title>Node10&#45;&gt;Node3</title>
<g id="a_edge17_Node000010_Node000003"><a xlink:title=" ">
<path fill="none" stroke="#63b8ff" d="M177.16,-216.93C145.22,-207.03 99.98,-193.01 71.19,-184.08"/>
<polygon fill="#63b8ff" stroke="#63b8ff" points="176.44,-220.37 187.03,-219.98 178.51,-213.68 176.44,-220.37"/>
</a>
</g>
</g>
<!-- Node10&#45;&gt;Node5 -->
<g id="edge18_Node000010_Node000005" class="edge">
<title>Node10&#45;&gt;Node5</title>
<g id="a_edge18_Node000010_Node000005"><a xlink:title=" ">
<path fill="none" stroke="#63b8ff" d="M199.77,-212.24C191.36,-202.95 181.15,-191.68 174.28,-184.09"/>
<polygon fill="#63b8ff" stroke="#63b8ff" points="197.27,-214.69 206.57,-219.75 202.46,-209.99 197.27,-214.69"/>
</a>
</g>
</g>
<!-- Node10&#45;&gt;Node8 -->
<g id="edge16_Node000010_Node000008" class="edge">
<title>Node10&#45;&gt;Node8</title>
<g id="a_edge16_Node000010_Node000008"><a xlink:title=" ">
<path fill="none" stroke="#63b8ff" d="M230.55,-212.3C253.54,-189.1 295.04,-147.21 312.92,-129.16"/>
<polygon fill="#63b8ff" stroke="#63b8ff" points="227.81,-210.09 223.26,-219.66 232.78,-215.02 227.81,-210.09"/>
</a>
</g>
</g>
<!-- Node11&#45;&gt;Node4 -->
<g id="edge20_Node000011_Node000004" class="edge">
<title>Node11&#45;&gt;Node4</title>
<g id="a_edge20_Node000011_Node000004"><a xlink:title=" ">
<path fill="none" stroke="#63b8ff" d="M494.48,-105.57C446.03,-83.21 347.89,-37.91 307.02,-19.05"/>
<polygon fill="#63b8ff" stroke="#63b8ff" points="493.2,-108.83 503.75,-109.84 496.13,-102.48 493.2,-108.83"/>
</a>
</g>
</g>
</g>
</svg>

<g id="navigator" transform="translate(0 0)" fill="#404254">
  <rect fill="#f2f5e9" fill-opacity="0.5" stroke="#606060" stroke-width=".5" x="0" y="0" width="60" height="60"/>
  <use id="zoomplus" xlink:href="#zoomPlus" x="17" y="9" onmousedown="handleZoom(evt,'in')"/>
  <use id="zoomminus" xlink:href="#zoomMin" x="42" y="9" onmousedown="handleZoom(evt,'out')"/>
  <use id="reset" xlink:href="#resetDef" x="30" y="36" onmousedown="handleReset()"/>
   <use id="arrowup" xlink:href="#arrowUp" x="0" y="0" onmousedown="handlePan(0,-1)"/>
  <use id="arrowright" xlink:href="#arrowRight" x="0" y="0" onmousedown="handlePan(1,0)"/>
  <use id="arrowdown" xlink:href="#arrowDown" x="0" y="0" onmousedown="handlePan(0,1)"/>
  <use id="arrowleft" xlink:href="#arrowLeft" x="0" y="0" onmousedown="handlePan(-1,0)"/>
</g>
<svg viewBox="0 0 15 15" width="100%" height="30px" preserveAspectRatio="xMaxYMin meet">
 <g id="arrow_out" transform="scale(0.3 0.3)">
  <a xlink:href="const_8hpp__dep__incl_org.svg" target="_base">
   <rect id="button" ry="5" rx="5" y="6" x="6" height="38" width="38"
        fill="#f2f5e9" fill-opacity="0.5" stroke="#606060" stroke-width="1.0"/>
   <path id="arrow"
     d="M 11.500037,31.436501 C 11.940474,20.09759 22.043105,11.32322 32.158766,21.979434 L 37.068811,17.246167 C 37.068811,17.246167 37.088388,32 37.088388,32 L 22.160133,31.978069 C 22.160133,31.978069 26.997745,27.140456 26.997745,27.140456 C 18.528582,18.264221 13.291696,25.230495 11.500037,31.436501 z"
     style="fill:#404040;"/>
  </a>
 </g>
</svg>

<style type='text/css'>
<![CDATA[
[data-mouse-over-selected='false'] { opacity: 0.7; }
[data-mouse-over-selected='true']  { opacity: 1.0; }
]]>
</style>
<script type="application/ecmascript"><![CDATA[
document.addEventListener('DOMContentLoaded', (event) => {
  highlightEdges();
  highlightAdjacentNodes();
});
]]></script>
</svg>
