<?xml version="1.0" encoding="UTF-8" standalone="no"?>
<!DOCTYPE svg PUBLIC "-//W3C//DTD SVG 1.1//EN"
 "http://www.w3.org/Graphics/SVG/1.1/DTD/svg11.dtd">
<!-- Generated by graphviz version 2.43.0 (0)
 -->
<!-- Title: constraint.hpp Pages: 1 -->
<svg width="548pt" height="137pt"
 viewBox="0.00 0.00 547.52 137.00" xmlns="http://www.w3.org/2000/svg" xmlns:xlink="http://www.w3.org/1999/xlink">
<g id="graph0" class="graph" transform="scale(1 1) rotate(0) translate(4 133)">
<title>constraint.hpp</title>
<!-- Node1 -->
<g id="Node000001" class="node">
<title>Node1</title>
<g id="a_Node000001"><a xlink:title=" ">
<polygon fill="#999999" stroke="#666666" points="274.02,-129 188.02,-129 188.02,-110 274.02,-110 274.02,-129"/>
<text text-anchor="middle" x="231.02" y="-117" font-family="Helvetica,sans-Serif" font-size="10.00">constraint.hpp</text>
</a>
</g>
</g>
<!-- Node2 -->
<g id="Node000002" class="node">
<title>Node2</title>
<g id="a_Node000002"><a xlink:href="all_8hpp.html" target="_top" xlink:title=" ">
<polygon fill="white" stroke="#666666" points="256.02,-19 206.02,-19 206.02,0 256.02,0 256.02,-19"/>
<text text-anchor="middle" x="231.02" y="-7" font-family="Helvetica,sans-Serif" font-size="10.00">all.hpp</text>
</a>
</g>
</g>
<!-- Node1&#45;&gt;Node2 -->
<g id="edge1_Node000001_Node000002" class="edge">
<title>Node1&#45;&gt;Node2</title>
<g id="a_edge1_Node000001_Node000002"><a xlink:title=" ">
<path fill="none" stroke="#63b8ff" d="M177.89,-115.67C117.84,-111.23 25.62,-100.24 4.02,-74 -1.34,-67.48 -1.34,-61.52 4.02,-55 29.35,-24.22 151.88,-14.42 205.65,-11.57"/>
<polygon fill="#63b8ff" stroke="#63b8ff" points="177.75,-119.17 187.97,-116.38 178.24,-112.19 177.75,-119.17"/>
</a>
</g>
</g>
<!-- Node3 -->
<g id="Node000003" class="node">
<title>Node3</title>
<g id="a_Node000003"><a xlink:href="constraint__min__max_8hpp.html" target="_top" xlink:title=" ">
<polygon fill="white" stroke="#666666" points="150.52,-74 13.52,-74 13.52,-55 150.52,-55 150.52,-74"/>
<text text-anchor="middle" x="82.02" y="-62" font-family="Helvetica,sans-Serif" font-size="10.00">constraint_min_max.hpp</text>
</a>
</g>
</g>
<!-- Node1&#45;&gt;Node3 -->
<g id="edge2_Node000001_Node000003" class="edge">
<title>Node1&#45;&gt;Node3</title>
<g id="a_edge2_Node000001_Node000003"><a xlink:title=" ">
<path fill="none" stroke="#63b8ff" d="M197.43,-106.55C169.76,-96.71 131.18,-82.98 106.4,-74.17"/>
<polygon fill="#63b8ff" stroke="#63b8ff" points="196.49,-109.93 207.09,-109.98 198.84,-103.34 196.49,-109.93"/>
</a>
</g>
</g>
<!-- Node4 -->
<g id="Node000004" class="node">
<title>Node4</title>
<g id="a_Node000004"><a xlink:href="constraint__one__of_8hpp.html" target="_top" xlink:title=" ">
<polygon fill="white" stroke="#666666" points="293.02,-74 169.02,-74 169.02,-55 293.02,-55 293.02,-74"/>
<text text-anchor="middle" x="231.02" y="-62" font-family="Helvetica,sans-Serif" font-size="10.00">constraint_one_of.hpp</text>
</a>
</g>
</g>
<!-- Node1&#45;&gt;Node4 -->
<g id="edge4_Node000001_Node000004" class="edge">
<title>Node1&#45;&gt;Node4</title>
<g id="a_edge4_Node000001_Node000004"><a xlink:title=" ">
<path fill="none" stroke="#63b8ff" d="M231.02,-99.66C231.02,-90.93 231.02,-80.99 231.02,-74.09"/>
<polygon fill="#63b8ff" stroke="#63b8ff" points="227.52,-99.75 231.02,-109.75 234.52,-99.75 227.52,-99.75"/>
</a>
</g>
</g>
<!-- Node5 -->
<g id="Node000005" class="node">
<title>Node5</title>
<g id="a_Node000005"><a xlink:href="tag__scalar_8hpp.html" target="_top" xlink:title=" ">
<polygon fill="white" stroke="#666666" points="398.52,-74 311.52,-74 311.52,-55 398.52,-55 398.52,-74"/>
<text text-anchor="middle" x="355.02" y="-62" font-family="Helvetica,sans-Serif" font-size="10.00">tag_scalar.hpp</text>
</a>
</g>
</g>
<!-- Node1&#45;&gt;Node5 -->
<g id="edge6_Node000001_Node000005" class="edge">
<title>Node1&#45;&gt;Node5</title>
<g id="a_edge6_Node000001_Node000005"><a xlink:title=" ">
<path fill="none" stroke="#63b8ff" d="M260.2,-106.03C283.13,-96.23 314.48,-82.83 334.74,-74.17"/>
<polygon fill="#63b8ff" stroke="#63b8ff" points="258.77,-102.84 250.95,-109.98 261.52,-109.27 258.77,-102.84"/>
</a>
</g>
</g>
<!-- Node6 -->
<g id="Node000006" class="node">
<title>Node6</title>
<g id="a_Node000006"><a xlink:href="tag__scalar__vector_8hpp.html" target="_top" xlink:title=" ">
<polygon fill="white" stroke="#666666" points="539.52,-74 416.52,-74 416.52,-55 539.52,-55 539.52,-74"/>
<text text-anchor="middle" x="478.02" y="-62" font-family="Helvetica,sans-Serif" font-size="10.00">tag_scalar_vector.hpp</text>
</a>
</g>
</g>
<!-- Node1&#45;&gt;Node6 -->
<g id="edge8_Node000001_Node000006" class="edge">
<title>Node1&#45;&gt;Node6</title>
<g id="a_edge8_Node000001_Node000006"><a xlink:title=" ">
<path fill="none" stroke="#63b8ff" d="M280.53,-107.88C326.82,-97.94 395.09,-83.3 438.03,-74.08"/>
<polygon fill="#63b8ff" stroke="#63b8ff" points="279.75,-104.46 270.71,-109.98 281.22,-111.31 279.75,-104.46"/>
</a>
</g>
</g>
<!-- Node3&#45;&gt;Node2 -->
<g id="edge3_Node000003_Node000002" class="edge">
<title>Node3&#45;&gt;Node2</title>
<g id="a_edge3_Node000003_Node000002"><a xlink:title=" ">
<path fill="none" stroke="#63b8ff" d="M115.62,-51.55C143.29,-41.71 181.87,-27.98 206.65,-19.17"/>
<polygon fill="#63b8ff" stroke="#63b8ff" points="114.21,-48.34 105.96,-54.98 116.56,-54.93 114.21,-48.34"/>
</a>
</g>
</g>
<!-- Node4&#45;&gt;Node2 -->
<g id="edge5_Node000004_Node000002" class="edge">
<title>Node4&#45;&gt;Node2</title>
<g id="a_edge5_Node000004_Node000002"><a xlink:title=" ">
<path fill="none" stroke="#63b8ff" d="M231.02,-44.66C231.02,-35.93 231.02,-25.99 231.02,-19.09"/>
<polygon fill="#63b8ff" stroke="#63b8ff" points="227.52,-44.75 231.02,-54.75 234.52,-44.75 227.52,-44.75"/>
</a>
</g>
</g>
<!-- Node5&#45;&gt;Node2 -->
<g id="edge7_Node000005_Node000002" class="edge">
<title>Node5&#45;&gt;Node2</title>
<g id="a_edge7_Node000005_Node000002"><a xlink:title=" ">
<path fill="none" stroke="#63b8ff" d="M325.85,-51.03C302.92,-41.23 271.57,-27.83 251.31,-19.17"/>
<polygon fill="#63b8ff" stroke="#63b8ff" points="324.53,-54.27 335.1,-54.98 327.28,-47.84 324.53,-54.27"/>
</a>
</g>
</g>
<!-- Node6&#45;&gt;Node2 -->
<g id="edge9_Node000006_Node000002" class="edge">
<title>Node6&#45;&gt;Node2</title>
<g id="a_edge9_Node000006_Node000002"><a xlink:title=" ">
<path fill="none" stroke="#63b8ff" d="M428.32,-52.83C376.27,-41.67 296.61,-24.57 256.28,-15.92"/>
<polygon fill="#63b8ff" stroke="#63b8ff" points="427.83,-56.31 438.34,-54.98 429.3,-49.46 427.83,-56.31"/>
</a>
</g>
</g>
</g>
</svg>
