<?xml version="1.0" encoding="UTF-8" standalone="no"?>
<!DOCTYPE svg PUBLIC "-//W3C//DTD SVG 1.1//EN"
 "http://www.w3.org/Graphics/SVG/1.1/DTD/svg11.dtd">
<!-- Generated by graphviz version 2.43.0 (0)
 -->
<!-- Title: const.hpp Pages: 1 -->
<!--zoomable 308 -->
<svg id="main" version="1.1" xmlns="http://www.w3.org/2000/svg" xmlns:xlink="http://www.w3.org/1999/xlink" xml:space="preserve" onload="init(evt)">
<style type="text/css"><![CDATA[
.edge:hover path { stroke: red; }
.edge:hover polygon { stroke: red; fill: red; }
]]></style>
<script type="text/javascript"><![CDATA[
var edges = document.getElementsByTagName('g');
if (edges && edges.length) {
  for (var i=0;i<edges.length;i++) {
    if (edges[i].id.substr(0,4)=='edge') {
      edges[i].setAttribute('class','edge');
    }
  }
}
]]></script>
        <defs>
                <circle id="rim" cx="0" cy="0" r="7"/>
                <circle id="rim2" cx="0" cy="0" r="3.5"/>
                <g id="zoomPlus">
                        <use xlink:href="#rim" fill="#404040">
                                <set attributeName="fill" to="#808080" begin="zoomplus.mouseover" end="zoomplus.mouseout"/>
                        </use>
                        <path d="M-4,0h8M0,-4v8" fill="none" stroke="white" stroke-width="1.5" pointer-events="none"/>
                </g>
                <g id="zoomMin">
                        <use xlink:href="#rim" fill="#404040">
                                <set attributeName="fill" to="#808080" begin="zoomminus.mouseover" end="zoomminus.mouseout"/>
                        </use>
                        <path d="M-4,0h8" fill="none" stroke="white" stroke-width="1.5" pointer-events="none"/>
                </g>
                <g id="dirArrow">
                        <path fill="none" stroke="white" stroke-width="1.5" d="M0,-3.0v7 M-2.5,-0.5L0,-3.0L2.5,-0.5"/>
                </g>
               <g id="resetDef">
                       <use xlink:href="#rim2" fill="#404040">
                               <set attributeName="fill" to="#808080" begin="reset.mouseover" end="reset.mouseout"/>
                       </use>
               </g>
        </defs>

<script type="text/javascript">
var viewWidth = 504;
var viewHeight = 308;
var sectionId = 'dynsection-1';
</script>
<script xlink:href="svgpan.js"/>
<svg id="graph" class="graph">
<g id="viewport">
<title>const.hpp</title>
<!-- Node1 -->
<g id="node1" class="node">
<title>Node1</title>
<g id="a_node1"><a xlink:title=" ">
<polygon fill="#bfbfbf" stroke="black" points="233,-280.5 233,-299.5 297,-299.5 297,-280.5 233,-280.5"/>
<text text-anchor="middle" x="265" y="-287.5" font-family="Helvetica,sans-Serif" font-size="10.00">const.hpp</text>
</a>
</g>
</g>
<!-- Node2 -->
<g id="node2" class="node">
<title>Node2</title>
<g id="a_node2"><a xlink:href="input__stream_8hpp.html" target="_top" xlink:title=" ">
<polygon fill="none" stroke="black" points="0,-224.5 0,-243.5 102,-243.5 102,-224.5 0,-224.5"/>
<text text-anchor="middle" x="51" y="-231.5" font-family="Helvetica,sans-Serif" font-size="10.00">input_stream.hpp</text>
</a>
</g>
</g>
<!-- Node1&#45;&gt;Node2 -->
<g id="edge1" class="edge">
<title>Node1&#45;&gt;Node2</title>
<path fill="none" stroke="midnightblue" d="M223.16,-278.44C182.82,-268.26 122.51,-253.05 85.03,-243.59"/>
<polygon fill="midnightblue" stroke="midnightblue" points="222.41,-281.86 232.96,-280.92 224.12,-275.08 222.41,-281.86"/>
</g>
<!-- Node3 -->
<g id="node3" class="node">
<title>Node3</title>
<g id="a_node3"><a xlink:href="parser_8hpp.html" target="_top" xlink:title=" ">
<polygon fill="none" stroke="black" points="111,-112.5 111,-131.5 179,-131.5 179,-112.5 111,-112.5"/>
<text text-anchor="middle" x="145" y="-119.5" font-family="Helvetica,sans-Serif" font-size="10.00">parser.hpp</text>
</a>
</g>
</g>
<!-- Node1&#45;&gt;Node3 -->
<g id="edge9" class="edge">
<title>Node1&#45;&gt;Node3</title>
<path fill="none" stroke="midnightblue" d="M222.96,-280.29C202.08,-273.79 178.31,-262.68 164,-244 137.62,-209.56 141.22,-153.17 143.77,-131.69"/>
<polygon fill="midnightblue" stroke="midnightblue" points="222.04,-283.67 232.61,-283.05 223.96,-276.94 222.04,-283.67"/>
</g>
<!-- Node7 -->
<g id="node7" class="node">
<title>Node7</title>
<g id="a_node7"><a xlink:href="string__format_8hpp.html" target="_top" xlink:title=" ">
<polygon fill="none" stroke="black" points="173,-224.5 173,-243.5 277,-243.5 277,-224.5 173,-224.5"/>
<text text-anchor="middle" x="225" y="-231.5" font-family="Helvetica,sans-Serif" font-size="10.00">string_format.hpp</text>
</a>
</g>
</g>
<!-- Node1&#45;&gt;Node7 -->
<g id="edge10" class="edge">
<title>Node1&#45;&gt;Node7</title>
<path fill="none" stroke="midnightblue" d="M252.3,-271.86C245.37,-262.5 237.09,-251.33 231.48,-243.75"/>
<polygon fill="midnightblue" stroke="midnightblue" points="249.63,-274.13 258.39,-280.08 255.25,-269.96 249.63,-274.13"/>
</g>
<!-- Node8 -->
<g id="node8" class="node">
<title>Node8</title>
<g id="a_node8"><a xlink:href="tag__scalar_8hpp.html" target="_top" xlink:title=" ">
<polygon fill="none" stroke="black" points="211.5,-168.5 211.5,-187.5 298.5,-187.5 298.5,-168.5 211.5,-168.5"/>
<text text-anchor="middle" x="255" y="-175.5" font-family="Helvetica,sans-Serif" font-size="10.00">tag_scalar.hpp</text>
</a>
</g>
</g>
<!-- Node1&#45;&gt;Node8 -->
<g id="edge21" class="edge">
<title>Node1&#45;&gt;Node8</title>
<path fill="none" stroke="midnightblue" d="M276.78,-271.33C284.01,-258.28 291,-240.06 286,-224 281.6,-209.87 271.05,-196.25 263.48,-187.77"/>
<polygon fill="midnightblue" stroke="midnightblue" points="273.61,-269.82 271.41,-280.19 279.59,-273.46 273.61,-269.82"/>
</g>
<!-- Node10 -->
<g id="node10" class="node">
<title>Node10</title>
<g id="a_node10"><a xlink:href="tag__no__value_8hpp.html" target="_top" xlink:title=" ">
<polygon fill="none" stroke="black" points="392.5,-112.5 392.5,-131.5 495.5,-131.5 495.5,-112.5 392.5,-112.5"/>
<text text-anchor="middle" x="444" y="-119.5" font-family="Helvetica,sans-Serif" font-size="10.00">tag_no_value.hpp</text>
</a>
</g>
</g>
<!-- Node1&#45;&gt;Node10 -->
<g id="edge16" class="edge">
<title>Node1&#45;&gt;Node10</title>
<path fill="none" stroke="midnightblue" d="M307.01,-284.41C339.04,-279.12 382.81,-267.84 414,-244 437.32,-226.17 440.91,-216.21 449,-188 454.62,-168.42 449.86,-144.24 446.55,-131.61"/>
<polygon fill="midnightblue" stroke="midnightblue" points="306.41,-280.96 297.05,-285.93 307.46,-287.88 306.41,-280.96"/>
</g>
<!-- Node11 -->
<g id="node11" class="node">
<title>Node11</title>
<g id="a_node11"><a xlink:href="format_8hpp.html" target="_top" xlink:title=" ">
<polygon fill="none" stroke="black" points="333.5,-224.5 333.5,-243.5 404.5,-243.5 404.5,-224.5 333.5,-224.5"/>
<text text-anchor="middle" x="369" y="-231.5" font-family="Helvetica,sans-Serif" font-size="10.00">format.hpp</text>
</a>
</g>
</g>
<!-- Node1&#45;&gt;Node11 -->
<g id="edge18" class="edge">
<title>Node1&#45;&gt;Node11</title>
<path fill="none" stroke="midnightblue" d="M290.83,-275.59C310.06,-265.61 335.74,-252.27 352.33,-243.65"/>
<polygon fill="midnightblue" stroke="midnightblue" points="288.97,-272.61 281.71,-280.32 292.2,-278.82 288.97,-272.61"/>
</g>
<!-- Node2&#45;&gt;Node3 -->
<g id="edge2" class="edge">
<title>Node2&#45;&gt;Node3</title>
<path fill="none" stroke="midnightblue" d="M47.1,-214.27C45.26,-200.38 45.13,-181.58 54,-168 66.73,-148.53 90.52,-137.17 110.59,-130.74"/>
<polygon fill="midnightblue" stroke="midnightblue" points="43.65,-214.89 48.79,-224.16 50.55,-213.71 43.65,-214.89"/>
</g>
<!-- Node5 -->
<g id="node5" class="node">
<title>Node5</title>
<g id="a_node5"><a xlink:href="utils_8hpp.html" target="_top" xlink:title=" ">
<polygon fill="none" stroke="black" points="115.5,-56.5 115.5,-75.5 174.5,-75.5 174.5,-56.5 115.5,-56.5"/>
<text text-anchor="middle" x="145" y="-63.5" font-family="Helvetica,sans-Serif" font-size="10.00">utils.hpp</text>
</a>
</g>
</g>
<!-- Node2&#45;&gt;Node5 -->
<g id="edge8" class="edge">
<title>Node2&#45;&gt;Node5</title>
<path fill="none" stroke="midnightblue" d="M43.96,-214.68C39.93,-201.28 36.78,-182.9 43,-168 60.94,-124.99 107.1,-90.92 130.67,-75.68"/>
<polygon fill="midnightblue" stroke="midnightblue" points="40.67,-215.88 47.22,-224.21 47.29,-213.61 40.67,-215.88"/>
</g>
<!-- Node6 -->
<g id="node6" class="node">
<title>Node6</title>
<g id="a_node6"><a xlink:href="lex_8hpp.html" target="_top" xlink:title=" ">
<polygon fill="none" stroke="black" points="63.5,-168.5 63.5,-187.5 116.5,-187.5 116.5,-168.5 63.5,-168.5"/>
<text text-anchor="middle" x="90" y="-175.5" font-family="Helvetica,sans-Serif" font-size="10.00">lex.hpp</text>
</a>
</g>
</g>
<!-- Node2&#45;&gt;Node6 -->
<g id="edge6" class="edge">
<title>Node2&#45;&gt;Node6</title>
<path fill="none" stroke="midnightblue" d="M63.38,-215.86C70.14,-206.5 78.21,-195.33 83.68,-187.75"/>
<polygon fill="midnightblue" stroke="midnightblue" points="60.46,-213.93 57.44,-224.08 66.13,-218.03 60.46,-213.93"/>
</g>
<!-- Node4 -->
<g id="node4" class="node">
<title>Node4</title>
<g id="a_node4"><a xlink:href="all_8hpp.html" target="_top" xlink:title=" ">
<polygon fill="none" stroke="black" points="230,-0.5 230,-19.5 280,-19.5 280,-0.5 230,-0.5"/>
<text text-anchor="middle" x="255" y="-7.5" font-family="Helvetica,sans-Serif" font-size="10.00">all.hpp</text>
</a>
</g>
</g>
<!-- Node3&#45;&gt;Node4 -->
<g id="edge3" class="edge">
<title>Node3&#45;&gt;Node4</title>
<path fill="none" stroke="midnightblue" d="M160.79,-105.21C184.37,-81.63 227.97,-38.03 246.41,-19.59"/>
<polygon fill="midnightblue" stroke="midnightblue" points="158.23,-102.82 153.63,-112.37 163.18,-107.77 158.23,-102.82"/>
</g>
<!-- Node3&#45;&gt;Node5 -->
<g id="edge4" class="edge">
<title>Node3&#45;&gt;Node5</title>
<path fill="none" stroke="midnightblue" d="M145,-101.8C145,-92.91 145,-82.78 145,-75.75"/>
<polygon fill="midnightblue" stroke="midnightblue" points="141.5,-102.08 145,-112.08 148.5,-102.08 141.5,-102.08"/>
</g>
<!-- Node5&#45;&gt;Node4 -->
<g id="edge5" class="edge">
<title>Node5&#45;&gt;Node4</title>
<path fill="none" stroke="midnightblue" d="M171.76,-51.86C192.16,-41.85 219.67,-28.35 237.37,-19.65"/>
<polygon fill="midnightblue" stroke="midnightblue" points="170.11,-48.78 162.67,-56.32 173.19,-55.06 170.11,-48.78"/>
</g>
<!-- Node6&#45;&gt;Node3 -->
<g id="edge7" class="edge">
<title>Node6&#45;&gt;Node3</title>
<path fill="none" stroke="midnightblue" d="M106.29,-161C116.04,-151.43 128.05,-139.64 136.09,-131.75"/>
<polygon fill="midnightblue" stroke="midnightblue" points="103.77,-158.58 99.08,-168.08 108.67,-163.57 103.77,-158.58"/>
</g>
<!-- Node7&#45;&gt;Node3 -->
<g id="edge11" class="edge">
<title>Node7&#45;&gt;Node3</title>
<path fill="none" stroke="midnightblue" d="M212.83,-216.27C195.54,-192.49 164.48,-149.79 151.25,-131.59"/>
<polygon fill="midnightblue" stroke="midnightblue" points="210.01,-218.34 218.72,-224.37 215.67,-214.22 210.01,-218.34"/>
</g>
<!-- Node7&#45;&gt;Node8 -->
<g id="edge12" class="edge">
<title>Node7&#45;&gt;Node8</title>
<path fill="none" stroke="midnightblue" d="M234.85,-215.27C239.97,-206.05 246.02,-195.17 250.14,-187.75"/>
<polygon fill="midnightblue" stroke="midnightblue" points="231.75,-213.64 229.95,-224.08 237.87,-217.04 231.75,-213.64"/>
</g>
<!-- Node9 -->
<g id="node9" class="node">
<title>Node9</title>
<g id="a_node9"><a xlink:href="tag__scalar__vector_8hpp.html" target="_top" xlink:title=" ">
<polygon fill="none" stroke="black" points="316.5,-168.5 316.5,-187.5 439.5,-187.5 439.5,-168.5 316.5,-168.5"/>
<text text-anchor="middle" x="378" y="-175.5" font-family="Helvetica,sans-Serif" font-size="10.00">tag_scalar_vector.hpp</text>
</a>
</g>
</g>
<!-- Node7&#45;&gt;Node9 -->
<g id="edge14" class="edge">
<title>Node7&#45;&gt;Node9</title>
<path fill="none" stroke="midnightblue" d="M258.89,-221.04C287.68,-210.88 328.29,-196.55 353.87,-187.52"/>
<polygon fill="midnightblue" stroke="midnightblue" points="257.51,-217.81 249.24,-224.44 259.84,-224.42 257.51,-217.81"/>
</g>
<!-- Node8&#45;&gt;Node4 -->
<g id="edge13" class="edge">
<title>Node8&#45;&gt;Node4</title>
<path fill="none" stroke="midnightblue" d="M255,-157.93C255,-121.92 255,-45.23 255,-19.57"/>
<polygon fill="midnightblue" stroke="midnightblue" points="251.5,-158.08 255,-168.08 258.5,-158.08 251.5,-158.08"/>
</g>
<!-- Node9&#45;&gt;Node4 -->
<g id="edge15" class="edge">
<title>Node9&#45;&gt;Node4</title>
<path fill="none" stroke="midnightblue" d="M365.23,-159.76C339.17,-124.59 280.69,-45.68 261.35,-19.57"/>
<polygon fill="midnightblue" stroke="midnightblue" points="362.62,-162.12 371.39,-168.08 368.25,-157.96 362.62,-162.12"/>
</g>
<!-- Node10&#45;&gt;Node4 -->
<g id="edge17" class="edge">
<title>Node10&#45;&gt;Node4</title>
<path fill="none" stroke="midnightblue" d="M420.46,-107.3C380.95,-84.3 302.41,-38.59 269.76,-19.59"/>
<polygon fill="midnightblue" stroke="midnightblue" points="418.77,-110.36 429.17,-112.37 422.29,-104.31 418.77,-110.36"/>
</g>
<!-- Node11&#45;&gt;Node8 -->
<g id="edge19" class="edge">
<title>Node11&#45;&gt;Node8</title>
<path fill="none" stroke="midnightblue" d="M341.76,-220.1C320.46,-210.01 291.46,-196.27 272.98,-187.52"/>
<polygon fill="midnightblue" stroke="midnightblue" points="340.4,-223.33 350.94,-224.44 343.4,-217 340.4,-223.33"/>
</g>
<!-- Node11&#45;&gt;Node9 -->
<g id="edge20" class="edge">
<title>Node11&#45;&gt;Node9</title>
<path fill="none" stroke="midnightblue" d="M372.15,-214.1C373.64,-205.14 375.36,-194.86 376.54,-187.75"/>
<polygon fill="midnightblue" stroke="midnightblue" points="368.68,-213.64 370.49,-224.08 375.58,-214.79 368.68,-213.64"/>
</g>
</g>
</svg>
        <g id="navigator" transform="translate(0 0)" fill="#404254">
                <rect fill="#f2f5e9" fill-opacity="0.5" stroke="#606060" stroke-width=".5" x="0" y="0" width="60" height="60"/>
                <use id="zoomplus" xlink:href="#zoomPlus" x="17" y="9" onmousedown="handleZoom(evt,'in')"/>
                <use id="zoomminus" xlink:href="#zoomMin" x="42" y="9" onmousedown="handleZoom(evt,'out')"/>
                <use id="reset" xlink:href="#resetDef" x="30" y="36" onmousedown="handleReset()"/>
                <g id="arrowUp" xlink:href="#dirArrow" transform="translate(30 24)" onmousedown="handlePan(0,-1)">
                  <use xlink:href="#rim" fill="#404040">
                        <set attributeName="fill" to="#808080" begin="arrowUp.mouseover" end="arrowUp.mouseout"/>
                  </use>
                  <path fill="none" stroke="white" stroke-width="1.5" d="M0,-3.0v7 M-2.5,-0.5L0,-3.0L2.5,-0.5"/>
                </g>
                <g id="arrowRight" xlink:href="#dirArrow" transform="rotate(90) translate(36 -43)" onmousedown="handlePan(1,0)">
                  <use xlink:href="#rim" fill="#404040">
                        <set attributeName="fill" to="#808080" begin="arrowRight.mouseover" end="arrowRight.mouseout"/>
                  </use>
                  <path fill="none" stroke="white" stroke-width="1.5" d="M0,-3.0v7 M-2.5,-0.5L0,-3.0L2.5,-0.5"/>
                </g>
                <g id="arrowDown" xlink:href="#dirArrow" transform="rotate(180) translate(-30 -48)" onmousedown="handlePan(0,1)">
                  <use xlink:href="#rim" fill="#404040">
                        <set attributeName="fill" to="#808080" begin="arrowDown.mouseover" end="arrowDown.mouseout"/>
                  </use>
                  <path fill="none" stroke="white" stroke-width="1.5" d="M0,-3.0v7 M-2.5,-0.5L0,-3.0L2.5,-0.5"/>
                </g>
                <g id="arrowLeft" xlink:href="#dirArrow" transform="rotate(270) translate(-36 17)" onmousedown="handlePan(-1,0)">
                  <use xlink:href="#rim" fill="#404040">
                        <set attributeName="fill" to="#808080" begin="arrowLeft.mouseover" end="arrowLeft.mouseout"/>
                  </use>
                  <path fill="none" stroke="white" stroke-width="1.5" d="M0,-3.0v7 M-2.5,-0.5L0,-3.0L2.5,-0.5"/>
                </g>
        </g>
        <svg viewBox="0 0 15 15" width="100%" height="30px" preserveAspectRatio="xMaxYMin meet">
         <g id="arrow_out" transform="scale(0.3 0.3)">
          <a xlink:href="const_8hpp__dep__incl_org.svg" target="_base">
           <rect id="button" ry="5" rx="5" y="6" x="6" height="38" width="38"
                fill="#f2f5e9" fill-opacity="0.5" stroke="#606060" stroke-width="1.0"/>
           <path id="arrow"
             d="M 11.500037,31.436501 C 11.940474,20.09759 22.043105,11.32322 32.158766,21.979434 L 37.068811,17.246167 C 37.068811,17.246167 37.088388,32 37.088388,32 L 22.160133,31.978069 C 22.160133,31.978069 26.997745,27.140456 26.997745,27.140456 C 18.528582,18.264221 13.291696,25.230495 11.500037,31.436501 z"
             style="fill:#404040;"/>
          </a>
         </g>
        </svg>
</svg>
