<?xml version="1.0" encoding="UTF-8" standalone="no"?>
<!DOCTYPE svg PUBLIC "-//W3C//DTD SVG 1.1//EN"
 "http://www.w3.org/Graphics/SVG/1.1/DTD/svg11.dtd">
<!-- Generated by graphviz version 2.38.0 (20140413.2041)
 -->
<!-- Title: constraint.hpp Pages: 1 -->
<svg width="510pt" height="140pt"
 viewBox="0.00 0.00 510.43 140.00" xmlns="http://www.w3.org/2000/svg" xmlns:xlink="http://www.w3.org/1999/xlink">
<g id="graph0" class="graph" transform="scale(1 1) rotate(0) translate(4 136)">
<title>constraint.hpp</title>
<!-- Node1 -->
<g id="node1" class="node"><title>Node1</title>
<polygon fill="#bfbfbf" stroke="black" points="176.929,-112.5 176.929,-131.5 254.929,-131.5 254.929,-112.5 176.929,-112.5"/>
<text text-anchor="middle" x="215.929" y="-119.5" font-family="Helvetica,sans-Serif" font-size="10.00">constraint.hpp</text>
</g>
<!-- Node2 -->
<g id="node2" class="node"><title>Node2</title>
<g id="a_node2"><a xlink:href="all_8hpp.html" target="_top" xlink:title="all.hpp">
<polygon fill="none" stroke="black" points="193.429,-0.5 193.429,-19.5 238.429,-19.5 238.429,-0.5 193.429,-0.5"/>
<text text-anchor="middle" x="215.929" y="-7.5" font-family="Helvetica,sans-Serif" font-size="10.00">all.hpp</text>
</a>
</g>
</g>
<!-- Node1&#45;&gt;Node2 -->
<g id="edge1" class="edge"><title>Node1&#45;&gt;Node2</title>
<path fill="none" stroke="midnightblue" d="M166.396,-117.245C111.564,-111.939 28.3333,-100.076 8.92875,-76 -40.5914,-14.558 129.569,-10.148 193.019,-10.5731"/>
<polygon fill="midnightblue" stroke="midnightblue" points="166.339,-120.755 176.619,-118.191 166.984,-113.785 166.339,-120.755"/>
</g>
<!-- Node3 -->
<g id="node3" class="node"><title>Node3</title>
<g id="a_node3"><a xlink:href="constraint__min__max_8hpp.html" target="_top" xlink:title="constraint_min_max.hpp">
<polygon fill="none" stroke="black" points="18.4288,-56.5 18.4288,-75.5 141.429,-75.5 141.429,-56.5 18.4288,-56.5"/>
<text text-anchor="middle" x="79.9288" y="-63.5" font-family="Helvetica,sans-Serif" font-size="10.00">constraint_min_max.hpp</text>
</a>
</g>
</g>
<!-- Node1&#45;&gt;Node3 -->
<g id="edge2" class="edge"><title>Node1&#45;&gt;Node3</title>
<path fill="none" stroke="midnightblue" d="M184.794,-108.638C159.272,-98.504 123.82,-84.4274 101.378,-75.5164"/>
<polygon fill="midnightblue" stroke="midnightblue" points="183.793,-112.006 194.379,-112.444 186.377,-105.5 183.793,-112.006"/>
</g>
<!-- Node4 -->
<g id="node4" class="node"><title>Node4</title>
<g id="a_node4"><a xlink:href="constraint__one__of_8hpp.html" target="_top" xlink:title="constraint_one_of.hpp">
<polygon fill="none" stroke="black" points="159.429,-56.5 159.429,-75.5 272.429,-75.5 272.429,-56.5 159.429,-56.5"/>
<text text-anchor="middle" x="215.929" y="-63.5" font-family="Helvetica,sans-Serif" font-size="10.00">constraint_one_of.hpp</text>
</a>
</g>
</g>
<!-- Node1&#45;&gt;Node4 -->
<g id="edge4" class="edge"><title>Node1&#45;&gt;Node4</title>
<path fill="none" stroke="midnightblue" d="M215.929,-101.805C215.929,-92.9102 215.929,-82.7798 215.929,-75.7511"/>
<polygon fill="midnightblue" stroke="midnightblue" points="212.429,-102.083 215.929,-112.083 219.429,-102.083 212.429,-102.083"/>
</g>
<!-- Node5 -->
<g id="node5" class="node"><title>Node5</title>
<g id="a_node5"><a xlink:href="tag__scalar_8hpp.html" target="_top" xlink:title="tag_scalar.hpp">
<polygon fill="none" stroke="black" points="290.929,-56.5 290.929,-75.5 370.929,-75.5 370.929,-56.5 290.929,-56.5"/>
<text text-anchor="middle" x="330.929" y="-63.5" font-family="Helvetica,sans-Serif" font-size="10.00">tag_scalar.hpp</text>
</a>
</g>
</g>
<!-- Node1&#45;&gt;Node5 -->
<g id="edge6" class="edge"><title>Node1&#45;&gt;Node5</title>
<path fill="none" stroke="midnightblue" d="M243.41,-108.096C264.895,-98.0073 294.151,-84.2697 312.792,-75.5164"/>
<polygon fill="midnightblue" stroke="midnightblue" points="241.715,-105.025 234.151,-112.444 244.69,-111.361 241.715,-105.025"/>
</g>
<!-- Node6 -->
<g id="node6" class="node"><title>Node6</title>
<g id="a_node6"><a xlink:href="tag__scalar__vector_8hpp.html" target="_top" xlink:title="tag_scalar_vector.hpp">
<polygon fill="none" stroke="black" points="389.429,-56.5 389.429,-75.5 502.429,-75.5 502.429,-56.5 389.429,-56.5"/>
<text text-anchor="middle" x="445.929" y="-63.5" font-family="Helvetica,sans-Serif" font-size="10.00">tag_scalar_vector.hpp</text>
</a>
</g>
</g>
<!-- Node1&#45;&gt;Node6 -->
<g id="edge8" class="edge"><title>Node1&#45;&gt;Node6</title>
<path fill="none" stroke="midnightblue" d="M262.13,-110.153C305.586,-99.95 369.769,-84.8809 409.655,-75.5164"/>
<polygon fill="midnightblue" stroke="midnightblue" points="261.308,-106.75 252.373,-112.444 262.908,-113.565 261.308,-106.75"/>
</g>
<!-- Node3&#45;&gt;Node2 -->
<g id="edge3" class="edge"><title>Node3&#45;&gt;Node2</title>
<path fill="none" stroke="midnightblue" d="M111.063,-52.6377C136.585,-42.504 172.037,-28.4274 194.48,-19.5164"/>
<polygon fill="midnightblue" stroke="midnightblue" points="109.481,-49.5002 101.478,-56.4435 112.064,-56.0061 109.481,-49.5002"/>
</g>
<!-- Node4&#45;&gt;Node2 -->
<g id="edge5" class="edge"><title>Node4&#45;&gt;Node2</title>
<path fill="none" stroke="midnightblue" d="M215.929,-45.8045C215.929,-36.9102 215.929,-26.7798 215.929,-19.7511"/>
<polygon fill="midnightblue" stroke="midnightblue" points="212.429,-46.083 215.929,-56.083 219.429,-46.083 212.429,-46.083"/>
</g>
<!-- Node5&#45;&gt;Node2 -->
<g id="edge7" class="edge"><title>Node5&#45;&gt;Node2</title>
<path fill="none" stroke="midnightblue" d="M303.448,-52.096C281.963,-42.0073 252.707,-28.2697 234.066,-19.5164"/>
<polygon fill="midnightblue" stroke="midnightblue" points="302.167,-55.3612 312.707,-56.4435 305.143,-49.025 302.167,-55.3612"/>
</g>
<!-- Node6&#45;&gt;Node2 -->
<g id="edge9" class="edge"><title>Node6&#45;&gt;Node2</title>
<path fill="none" stroke="midnightblue" d="M399.481,-54.0948C350.645,-42.6291 275.837,-25.0654 238.607,-16.3245"/>
<polygon fill="midnightblue" stroke="midnightblue" points="398.949,-57.5651 409.485,-56.4435 400.549,-50.7504 398.949,-57.5651"/>
</g>
</g>
</svg>
