<?xml version="1.0" encoding="UTF-8" standalone="no"?>
<!DOCTYPE svg PUBLIC "-//W3C//DTD SVG 1.1//EN"
 "http://www.w3.org/Graphics/SVG/1.1/DTD/svg11.dtd">
<!-- Generated by graphviz version 2.38.0 (20140413.2041)
 -->
<!-- Title: constraint_one_of.hpp Pages: 1 -->
<svg width="140pt" height="84pt"
 viewBox="0.00 0.00 139.50 84.00" xmlns="http://www.w3.org/2000/svg" xmlns:xlink="http://www.w3.org/1999/xlink">
<g id="graph0" class="graph" transform="scale(1 1) rotate(0) translate(4 80)">
<title>constraint_one_of.hpp</title>
<!-- Node1 -->
<g id="node1" class="node"><title>Node1</title>
<polygon fill="#bfbfbf" stroke="black" points="18.5,-56.5 18.5,-75.5 131.5,-75.5 131.5,-56.5 18.5,-56.5"/>
<text text-anchor="middle" x="75" y="-63.5" font-family="Helvetica,sans-Serif" font-size="10.00">constraint_one_of.hpp</text>
</g>
<!-- Node2 -->
<g id="node2" class="node"><title>Node2</title>
<g id="a_node2"><a xlink:href="constraint_8hpp.html" target="_top" xlink:title="constraint.hpp">
<polygon fill="none" stroke="black" points="0,-0.5 0,-19.5 78,-19.5 78,-0.5 0,-0.5"/>
<text text-anchor="middle" x="39" y="-7.5" font-family="Helvetica,sans-Serif" font-size="10.00">constraint.hpp</text>
</a>
</g>
</g>
<!-- Node1&#45;&gt;Node2 -->
<g id="edge1" class="edge"><title>Node1&#45;&gt;Node2</title>
<path fill="none" stroke="midnightblue" d="M69.0553,-56.083C64.0227,-48.5341 56.6632,-37.4948 50.4865,-28.2298"/>
<polygon fill="midnightblue" stroke="midnightblue" points="53.2933,-26.1301 44.8341,-19.7511 47.4689,-30.0131 53.2933,-26.1301"/>
</g>
<!-- Node3 -->
<g id="node3" class="node"><title>Node3</title>
<polygon fill="none" stroke="#bfbfbf" points="96,-0.5 96,-19.5 126,-19.5 126,-0.5 96,-0.5"/>
<text text-anchor="middle" x="111" y="-7.5" font-family="Helvetica,sans-Serif" font-size="10.00">set</text>
</g>
<!-- Node1&#45;&gt;Node3 -->
<g id="edge2" class="edge"><title>Node1&#45;&gt;Node3</title>
<path fill="none" stroke="midnightblue" d="M80.9447,-56.083C85.9773,-48.5341 93.3368,-37.4948 99.5135,-28.2298"/>
<polygon fill="midnightblue" stroke="midnightblue" points="102.531,-30.0131 105.166,-19.7511 96.7067,-26.1301 102.531,-30.0131"/>
</g>
</g>
</svg>
