<?xml version="1.0" encoding="UTF-8" standalone="no"?>
<!DOCTYPE svg PUBLIC "-//W3C//DTD SVG 1.1//EN"
 "http://www.w3.org/Graphics/SVG/1.1/DTD/svg11.dtd">
<!-- Generated by graphviz version 2.43.0 (0)
 -->
<!-- Title: constraint.hpp Pages: 1 -->
<svg width="548pt" height="140pt"
 viewBox="0.00 0.00 547.73 140.00" xmlns="http://www.w3.org/2000/svg" xmlns:xlink="http://www.w3.org/1999/xlink">
<g id="graph0" class="graph" transform="scale(1 1) rotate(0) translate(4 136)">
<title>constraint.hpp</title>
<!-- Node1 -->
<g id="node1" class="node">
<title>Node1</title>
<g id="a_node1"><a xlink:title=" ">
<polygon fill="#bfbfbf" stroke="black" points="188.23,-112.5 188.23,-131.5 274.23,-131.5 274.23,-112.5 188.23,-112.5"/>
<text text-anchor="middle" x="231.23" y="-119.5" font-family="Helvetica,sans-Serif" font-size="10.00">constraint.hpp</text>
</a>
</g>
</g>
<!-- Node2 -->
<g id="node2" class="node">
<title>Node2</title>
<g id="a_node2"><a xlink:href="all_8hpp.html" target="_top" xlink:title=" ">
<polygon fill="none" stroke="black" points="206.23,-0.5 206.23,-19.5 256.23,-19.5 256.23,-0.5 206.23,-0.5"/>
<text text-anchor="middle" x="231.23" y="-7.5" font-family="Helvetica,sans-Serif" font-size="10.00">all.hpp</text>
</a>
</g>
</g>
<!-- Node1&#45;&gt;Node2 -->
<g id="edge1" class="edge">
<title>Node1&#45;&gt;Node2</title>
<path fill="none" stroke="midnightblue" d="M178.09,-118.05C118.03,-113.47 25.8,-102.27 4.23,-76 -1.41,-69.13 -1.41,-62.87 4.23,-56 29.54,-25.18 152.08,-15.1 205.85,-12.13"/>
<polygon fill="midnightblue" stroke="midnightblue" points="177.94,-121.55 188.17,-118.78 178.45,-114.57 177.94,-121.55"/>
</g>
<!-- Node3 -->
<g id="node3" class="node">
<title>Node3</title>
<g id="a_node3"><a xlink:href="constraint__min__max_8hpp.html" target="_top" xlink:title=" ">
<polygon fill="none" stroke="black" points="13.73,-56.5 13.73,-75.5 150.73,-75.5 150.73,-56.5 13.73,-56.5"/>
<text text-anchor="middle" x="82.23" y="-63.5" font-family="Helvetica,sans-Serif" font-size="10.00">constraint_min_max.hpp</text>
</a>
</g>
</g>
<!-- Node1&#45;&gt;Node3 -->
<g id="edge2" class="edge">
<title>Node1&#45;&gt;Node3</title>
<path fill="none" stroke="midnightblue" d="M197.86,-108.91C169.85,-98.75 130.54,-84.51 105.73,-75.52"/>
<polygon fill="midnightblue" stroke="midnightblue" points="197.03,-112.33 207.62,-112.44 199.41,-105.75 197.03,-112.33"/>
</g>
<!-- Node4 -->
<g id="node4" class="node">
<title>Node4</title>
<g id="a_node4"><a xlink:href="constraint__one__of_8hpp.html" target="_top" xlink:title=" ">
<polygon fill="none" stroke="black" points="169.23,-56.5 169.23,-75.5 293.23,-75.5 293.23,-56.5 169.23,-56.5"/>
<text text-anchor="middle" x="231.23" y="-63.5" font-family="Helvetica,sans-Serif" font-size="10.00">constraint_one_of.hpp</text>
</a>
</g>
</g>
<!-- Node1&#45;&gt;Node4 -->
<g id="edge4" class="edge">
<title>Node1&#45;&gt;Node4</title>
<path fill="none" stroke="midnightblue" d="M231.23,-101.8C231.23,-92.91 231.23,-82.78 231.23,-75.75"/>
<polygon fill="midnightblue" stroke="midnightblue" points="227.73,-102.08 231.23,-112.08 234.73,-102.08 227.73,-102.08"/>
</g>
<!-- Node5 -->
<g id="node5" class="node">
<title>Node5</title>
<g id="a_node5"><a xlink:href="tag__scalar_8hpp.html" target="_top" xlink:title=" ">
<polygon fill="none" stroke="black" points="311.73,-56.5 311.73,-75.5 398.73,-75.5 398.73,-56.5 311.73,-56.5"/>
<text text-anchor="middle" x="355.23" y="-63.5" font-family="Helvetica,sans-Serif" font-size="10.00">tag_scalar.hpp</text>
</a>
</g>
</g>
<!-- Node1&#45;&gt;Node5 -->
<g id="edge6" class="edge">
<title>Node1&#45;&gt;Node5</title>
<path fill="none" stroke="midnightblue" d="M260.24,-108.37C283.46,-98.26 315.39,-84.35 335.67,-75.52"/>
<polygon fill="midnightblue" stroke="midnightblue" points="258.65,-105.24 250.88,-112.44 261.44,-111.66 258.65,-105.24"/>
</g>
<!-- Node6 -->
<g id="node6" class="node">
<title>Node6</title>
<g id="a_node6"><a xlink:href="tag__scalar__vector_8hpp.html" target="_top" xlink:title=" ">
<polygon fill="none" stroke="black" points="416.73,-56.5 416.73,-75.5 539.73,-75.5 539.73,-56.5 416.73,-56.5"/>
<text text-anchor="middle" x="478.23" y="-63.5" font-family="Helvetica,sans-Serif" font-size="10.00">tag_scalar_vector.hpp</text>
</a>
</g>
</g>
<!-- Node1&#45;&gt;Node6 -->
<g id="edge8" class="edge">
<title>Node1&#45;&gt;Node6</title>
<path fill="none" stroke="midnightblue" d="M280.26,-110.28C326.93,-100.08 396.26,-84.92 439.28,-75.52"/>
<polygon fill="midnightblue" stroke="midnightblue" points="279.39,-106.89 270.37,-112.44 280.89,-113.73 279.39,-106.89"/>
</g>
<!-- Node3&#45;&gt;Node2 -->
<g id="edge3" class="edge">
<title>Node3&#45;&gt;Node2</title>
<path fill="none" stroke="midnightblue" d="M115.6,-52.91C143.61,-42.75 182.93,-28.51 207.73,-19.52"/>
<polygon fill="midnightblue" stroke="midnightblue" points="114.05,-49.75 105.84,-56.44 116.43,-56.33 114.05,-49.75"/>
</g>
<!-- Node4&#45;&gt;Node2 -->
<g id="edge5" class="edge">
<title>Node4&#45;&gt;Node2</title>
<path fill="none" stroke="midnightblue" d="M231.23,-45.8C231.23,-36.91 231.23,-26.78 231.23,-19.75"/>
<polygon fill="midnightblue" stroke="midnightblue" points="227.73,-46.08 231.23,-56.08 234.73,-46.08 227.73,-46.08"/>
</g>
<!-- Node5&#45;&gt;Node2 -->
<g id="edge7" class="edge">
<title>Node5&#45;&gt;Node2</title>
<path fill="none" stroke="midnightblue" d="M326.22,-52.37C303,-42.26 271.07,-28.35 250.79,-19.52"/>
<polygon fill="midnightblue" stroke="midnightblue" points="325.02,-55.66 335.58,-56.44 327.81,-49.24 325.02,-55.66"/>
</g>
<!-- Node6&#45;&gt;Node2 -->
<g id="edge9" class="edge">
<title>Node6&#45;&gt;Node2</title>
<path fill="none" stroke="midnightblue" d="M429.06,-54.25C376.93,-42.85 296.66,-25.3 256.27,-16.47"/>
<polygon fill="midnightblue" stroke="midnightblue" points="428.58,-57.73 439.09,-56.44 430.07,-50.89 428.58,-57.73"/>
</g>
</g>
</svg>
