<?xml version="1.0" encoding="UTF-8" standalone="no"?>
<!DOCTYPE svg PUBLIC "-//W3C//DTD SVG 1.1//EN"
 "http://www.w3.org/Graphics/SVG/1.1/DTD/svg11.dtd">
<!-- Generated by graphviz version 2.43.0 (0)
 -->
<!-- Title: exceptions.hpp Pages: 1 -->
<!--zoomable 252 -->
<svg id="main" version="1.1" xmlns="http://www.w3.org/2000/svg" xmlns:xlink="http://www.w3.org/1999/xlink" xml:space="preserve" onload="init(evt)">
<style type="text/css"><![CDATA[
.edge:hover path { stroke: red; }
.edge:hover polygon { stroke: red; fill: red; }
]]></style>
<script type="text/javascript"><![CDATA[
var edges = document.getElementsByTagName('g');
if (edges && edges.length) {
  for (var i=0;i<edges.length;i++) {
    if (edges[i].id.substr(0,4)=='edge') {
      edges[i].setAttribute('class','edge');
    }
  }
}
]]></script>
        <defs>
                <circle id="rim" cx="0" cy="0" r="7"/>
                <circle id="rim2" cx="0" cy="0" r="3.5"/>
                <g id="zoomPlus">
                        <use xlink:href="#rim" fill="#404040">
                                <set attributeName="fill" to="#808080" begin="zoomplus.mouseover" end="zoomplus.mouseout"/>
                        </use>
                        <path d="M-4,0h8M0,-4v8" fill="none" stroke="white" stroke-width="1.5" pointer-events="none"/>
                </g>
                <g id="zoomMin">
                        <use xlink:href="#rim" fill="#404040">
                                <set attributeName="fill" to="#808080" begin="zoomminus.mouseover" end="zoomminus.mouseout"/>
                        </use>
                        <path d="M-4,0h8" fill="none" stroke="white" stroke-width="1.5" pointer-events="none"/>
                </g>
                <g id="dirArrow">
                        <path fill="none" stroke="white" stroke-width="1.5" d="M0,-3.0v7 M-2.5,-0.5L0,-3.0L2.5,-0.5"/>
                </g>
               <g id="resetDef">
                       <use xlink:href="#rim2" fill="#404040">
                               <set attributeName="fill" to="#808080" begin="reset.mouseover" end="reset.mouseout"/>
                       </use>
               </g>
        </defs>

<script type="text/javascript">
var viewWidth = 688;
var viewHeight = 252;
var sectionId = 'dynsection-1';
</script>
<script xlink:href="svgpan.js"/>
<svg id="graph" class="graph">
<g id="viewport">
<title>exceptions.hpp</title>
<!-- Node1 -->
<g id="node1" class="node">
<title>Node1</title>
<g id="a_node1"><a xlink:title=" ">
<polygon fill="#bfbfbf" stroke="black" points="200.73,-224.5 200.73,-243.5 291.73,-243.5 291.73,-224.5 200.73,-224.5"/>
<text text-anchor="middle" x="246.23" y="-231.5" font-family="Helvetica,sans-Serif" font-size="10.00">exceptions.hpp</text>
</a>
</g>
</g>
<!-- Node2 -->
<g id="node2" class="node">
<title>Node2</title>
<g id="a_node2"><a xlink:href="all_8hpp.html" target="_top" xlink:title=" ">
<polygon fill="none" stroke="black" points="221.23,-0.5 221.23,-19.5 271.23,-19.5 271.23,-0.5 221.23,-0.5"/>
<text text-anchor="middle" x="246.23" y="-7.5" font-family="Helvetica,sans-Serif" font-size="10.00">all.hpp</text>
</a>
</g>
</g>
<!-- Node1&#45;&gt;Node2 -->
<g id="edge1" class="edge">
<title>Node1&#45;&gt;Node2</title>
<path fill="none" stroke="midnightblue" d="M190.73,-226.7C135.92,-219.55 56.83,-206.43 32.23,-188 9.64,-171.07 9.1,-159.39 2.23,-132 -21.71,-36.61 154.33,-16.35 221.19,-12.11"/>
<polygon fill="midnightblue" stroke="midnightblue" points="190.31,-230.18 200.67,-227.97 191.19,-223.23 190.31,-230.18"/>
</g>
<!-- Node3 -->
<g id="node3" class="node">
<title>Node3</title>
<g id="a_node3"><a xlink:href="tag_8hpp.html" target="_top" xlink:title=" ">
<polygon fill="none" stroke="black" points="219.73,-168.5 219.73,-187.5 272.73,-187.5 272.73,-168.5 219.73,-168.5"/>
<text text-anchor="middle" x="246.23" y="-175.5" font-family="Helvetica,sans-Serif" font-size="10.00">tag.hpp</text>
</a>
</g>
</g>
<!-- Node1&#45;&gt;Node3 -->
<g id="edge2" class="edge">
<title>Node1&#45;&gt;Node3</title>
<path fill="none" stroke="midnightblue" d="M246.23,-213.8C246.23,-204.91 246.23,-194.78 246.23,-187.75"/>
<polygon fill="midnightblue" stroke="midnightblue" points="242.73,-214.08 246.23,-224.08 249.73,-214.08 242.73,-214.08"/>
</g>
<!-- Node4 -->
<g id="node4" class="node">
<title>Node4</title>
<g id="a_node4"><a xlink:href="parser_8hpp.html" target="_top" xlink:title=" ">
<polygon fill="none" stroke="black" points="18.23,-112.5 18.23,-131.5 86.23,-131.5 86.23,-112.5 18.23,-112.5"/>
<text text-anchor="middle" x="52.23" y="-119.5" font-family="Helvetica,sans-Serif" font-size="10.00">parser.hpp</text>
</a>
</g>
</g>
<!-- Node1&#45;&gt;Node4 -->
<g id="edge17" class="edge">
<title>Node1&#45;&gt;Node4</title>
<path fill="none" stroke="midnightblue" d="M190.45,-228.11C157.46,-222.75 116.53,-211.52 87.23,-188 68.64,-173.08 58.59,-145.53 54.48,-131.58"/>
<polygon fill="midnightblue" stroke="midnightblue" points="190.01,-231.58 200.42,-229.59 191.04,-224.66 190.01,-231.58"/>
</g>
<!-- Node5 -->
<g id="node5" class="node">
<title>Node5</title>
<g id="a_node5"><a xlink:href="utils_8hpp.html" target="_top" xlink:title=" ">
<polygon fill="none" stroke="black" points="97.73,-56.5 97.73,-75.5 156.73,-75.5 156.73,-56.5 97.73,-56.5"/>
<text text-anchor="middle" x="127.23" y="-63.5" font-family="Helvetica,sans-Serif" font-size="10.00">utils.hpp</text>
</a>
</g>
</g>
<!-- Node1&#45;&gt;Node5 -->
<g id="edge31" class="edge">
<title>Node1&#45;&gt;Node5</title>
<path fill="none" stroke="midnightblue" d="M190.52,-229.82C130.01,-222.83 38.09,-200.82 9.23,-132 -7.01,-93.28 57.54,-76.9 97.57,-70.57"/>
<polygon fill="midnightblue" stroke="midnightblue" points="190.38,-233.33 200.69,-230.89 191.11,-226.36 190.38,-233.33"/>
</g>
<!-- Node6 -->
<g id="node6" class="node">
<title>Node6</title>
<g id="a_node6"><a xlink:href="tag__no__value_8hpp.html" target="_top" xlink:title=" ">
<polygon fill="none" stroke="black" points="104.73,-112.5 104.73,-131.5 207.73,-131.5 207.73,-112.5 104.73,-112.5"/>
<text text-anchor="middle" x="156.23" y="-119.5" font-family="Helvetica,sans-Serif" font-size="10.00">tag_no_value.hpp</text>
</a>
</g>
</g>
<!-- Node1&#45;&gt;Node6 -->
<g id="edge24" class="edge">
<title>Node1&#45;&gt;Node6</title>
<path fill="none" stroke="midnightblue" d="M232.8,-216.59C213.4,-192.87 178.21,-149.87 163.26,-131.59"/>
<polygon fill="midnightblue" stroke="midnightblue" points="230.13,-218.85 239.17,-224.37 235.54,-214.41 230.13,-218.85"/>
</g>
<!-- Node7 -->
<g id="node7" class="node">
<title>Node7</title>
<g id="a_node7"><a xlink:href="tag__scalar_8hpp.html" target="_top" xlink:title=" ">
<polygon fill="none" stroke="black" points="451.73,-112.5 451.73,-131.5 538.73,-131.5 538.73,-112.5 451.73,-112.5"/>
<text text-anchor="middle" x="495.23" y="-119.5" font-family="Helvetica,sans-Serif" font-size="10.00">tag_scalar.hpp</text>
</a>
</g>
</g>
<!-- Node1&#45;&gt;Node7 -->
<g id="edge28" class="edge">
<title>Node1&#45;&gt;Node7</title>
<path fill="none" stroke="midnightblue" d="M301.99,-229.88C343.37,-225.37 399.73,-214.42 442.23,-188 465.23,-173.7 482.79,-145.87 490.67,-131.71"/>
<polygon fill="midnightblue" stroke="midnightblue" points="301.42,-226.42 291.82,-230.89 302.11,-233.38 301.42,-226.42"/>
</g>
<!-- Node8 -->
<g id="node8" class="node">
<title>Node8</title>
<g id="a_node8"><a xlink:href="tag__scalar__vector_8hpp.html" target="_top" xlink:title=" ">
<polygon fill="none" stroke="black" points="556.73,-112.5 556.73,-131.5 679.73,-131.5 679.73,-112.5 556.73,-112.5"/>
<text text-anchor="middle" x="618.23" y="-119.5" font-family="Helvetica,sans-Serif" font-size="10.00">tag_scalar_vector.hpp</text>
</a>
</g>
</g>
<!-- Node1&#45;&gt;Node8 -->
<g id="edge29" class="edge">
<title>Node1&#45;&gt;Node8</title>
<path fill="none" stroke="midnightblue" d="M302.47,-230.41C382.95,-225.84 526.14,-214.21 570.23,-188 592.66,-174.67 607.83,-146.4 614.46,-131.93"/>
<polygon fill="midnightblue" stroke="midnightblue" points="301.82,-226.94 292.02,-230.99 302.2,-233.93 301.82,-226.94"/>
</g>
<!-- Node9 -->
<g id="node9" class="node">
<title>Node9</title>
<g id="a_node9"><a xlink:href="tag__vector__of__tags_8hpp.html" target="_top" xlink:title=" ">
<polygon fill="none" stroke="black" points="302.73,-112.5 302.73,-131.5 433.73,-131.5 433.73,-112.5 302.73,-112.5"/>
<text text-anchor="middle" x="368.23" y="-119.5" font-family="Helvetica,sans-Serif" font-size="10.00">tag_vector_of_tags.hpp</text>
</a>
</g>
</g>
<!-- Node1&#45;&gt;Node9 -->
<g id="edge30" class="edge">
<title>Node1&#45;&gt;Node9</title>
<path fill="none" stroke="midnightblue" d="M263.41,-217.51C289.48,-194.01 338.16,-150.11 358.7,-131.59"/>
<polygon fill="midnightblue" stroke="midnightblue" points="260.89,-215.07 255.8,-224.37 265.57,-220.27 260.89,-215.07"/>
</g>
<!-- Node10 -->
<g id="node10" class="node">
<title>Node10</title>
<g id="a_node10"><a xlink:href="lex_8hpp.html" target="_top" xlink:title=" ">
<polygon fill="none" stroke="black" points="95.73,-168.5 95.73,-187.5 148.73,-187.5 148.73,-168.5 95.73,-168.5"/>
<text text-anchor="middle" x="122.23" y="-175.5" font-family="Helvetica,sans-Serif" font-size="10.00">lex.hpp</text>
</a>
</g>
</g>
<!-- Node1&#45;&gt;Node10 -->
<g id="edge18" class="edge">
<title>Node1&#45;&gt;Node10</title>
<path fill="none" stroke="midnightblue" d="M217.22,-220.37C194,-210.26 162.07,-196.35 141.79,-187.52"/>
<polygon fill="midnightblue" stroke="midnightblue" points="216.02,-223.66 226.58,-224.44 218.81,-217.24 216.02,-223.66"/>
</g>
<!-- Node11 -->
<g id="node11" class="node">
<title>Node11</title>
<g id="a_node11"><a xlink:href="string__format_8hpp.html" target="_top" xlink:title=" ">
<polygon fill="none" stroke="black" points="329.23,-168.5 329.23,-187.5 433.23,-187.5 433.23,-168.5 329.23,-168.5"/>
<text text-anchor="middle" x="381.23" y="-175.5" font-family="Helvetica,sans-Serif" font-size="10.00">string_format.hpp</text>
</a>
</g>
</g>
<!-- Node1&#45;&gt;Node11 -->
<g id="edge20" class="edge">
<title>Node1&#45;&gt;Node11</title>
<path fill="none" stroke="midnightblue" d="M277.14,-220.64C302.47,-210.5 337.66,-196.43 359.94,-187.52"/>
<polygon fill="midnightblue" stroke="midnightblue" points="275.61,-217.48 267.62,-224.44 278.21,-223.98 275.61,-217.48"/>
</g>
<!-- Node12 -->
<g id="node12" class="node">
<title>Node12</title>
<g id="a_node12"><a xlink:href="format_8hpp.html" target="_top" xlink:title=" ">
<polygon fill="none" stroke="black" points="489.73,-168.5 489.73,-187.5 560.73,-187.5 560.73,-168.5 489.73,-168.5"/>
<text text-anchor="middle" x="525.23" y="-175.5" font-family="Helvetica,sans-Serif" font-size="10.00">format.hpp</text>
</a>
</g>
</g>
<!-- Node1&#45;&gt;Node12 -->
<g id="edge25" class="edge">
<title>Node1&#45;&gt;Node12</title>
<path fill="none" stroke="midnightblue" d="M300.51,-222.49C356.38,-211.68 441.82,-195.14 489.64,-185.89"/>
<polygon fill="midnightblue" stroke="midnightblue" points="299.59,-219.11 290.44,-224.44 300.92,-225.98 299.59,-219.11"/>
</g>
<!-- Node3&#45;&gt;Node2 -->
<g id="edge7" class="edge">
<title>Node3&#45;&gt;Node2</title>
<path fill="none" stroke="midnightblue" d="M246.23,-157.93C246.23,-121.92 246.23,-45.23 246.23,-19.57"/>
<polygon fill="midnightblue" stroke="midnightblue" points="242.73,-158.08 246.23,-168.08 249.73,-158.08 242.73,-158.08"/>
</g>
<!-- Node3&#45;&gt;Node4 -->
<g id="edge3" class="edge">
<title>Node3&#45;&gt;Node4</title>
<path fill="none" stroke="midnightblue" d="M209.88,-166.88C173.27,-156.69 117.41,-141.14 82.95,-131.55"/>
<polygon fill="midnightblue" stroke="midnightblue" points="209.09,-170.29 219.66,-169.6 210.97,-163.55 209.09,-170.29"/>
</g>
<!-- Node3&#45;&gt;Node5 -->
<g id="edge16" class="edge">
<title>Node3&#45;&gt;Node5</title>
<path fill="none" stroke="midnightblue" d="M241.73,-158.71C237.45,-144.51 229.76,-125.09 217.23,-112 200.44,-94.46 175.35,-82.7 155.92,-75.61"/>
<polygon fill="midnightblue" stroke="midnightblue" points="238.36,-159.64 244.37,-168.37 245.11,-157.8 238.36,-159.64"/>
</g>
<!-- Node3&#45;&gt;Node6 -->
<g id="edge8" class="edge">
<title>Node3&#45;&gt;Node6</title>
<path fill="none" stroke="midnightblue" d="M223.19,-163.18C206.63,-153.24 184.81,-140.15 170.65,-131.65"/>
<polygon fill="midnightblue" stroke="midnightblue" points="221.39,-166.18 231.77,-168.32 225,-160.18 221.39,-166.18"/>
</g>
<!-- Node3&#45;&gt;Node7 -->
<g id="edge10" class="edge">
<title>Node3&#45;&gt;Node7</title>
<path fill="none" stroke="midnightblue" d="M282.76,-169.08C328.95,-159.06 408.17,-141.88 455.72,-131.57"/>
<polygon fill="midnightblue" stroke="midnightblue" points="281.91,-165.68 272.88,-171.22 283.39,-172.52 281.91,-165.68"/>
</g>
<!-- Node3&#45;&gt;Node8 -->
<g id="edge12" class="edge">
<title>Node3&#45;&gt;Node8</title>
<path fill="none" stroke="midnightblue" d="M283.11,-171.65C347.74,-162.26 481.97,-142.78 559.5,-131.52"/>
<polygon fill="midnightblue" stroke="midnightblue" points="282.38,-168.22 272.98,-173.12 283.38,-175.14 282.38,-168.22"/>
</g>
<!-- Node3&#45;&gt;Node9 -->
<g id="edge14" class="edge">
<title>Node3&#45;&gt;Node9</title>
<path fill="none" stroke="midnightblue" d="M274.77,-164.37C297.62,-154.26 329.04,-140.35 348.99,-131.52"/>
<polygon fill="midnightblue" stroke="midnightblue" points="273.29,-161.2 265.56,-168.44 276.12,-167.6 273.29,-161.2"/>
</g>
<!-- Node4&#45;&gt;Node2 -->
<g id="edge4" class="edge">
<title>Node4&#45;&gt;Node2</title>
<path fill="none" stroke="midnightblue" d="M58.17,-102.89C63.89,-88.2 73.95,-68.01 89.23,-56 128.35,-25.25 187.62,-15.51 221.03,-12.43"/>
<polygon fill="midnightblue" stroke="midnightblue" points="54.83,-101.83 54.76,-112.43 61.42,-104.19 54.83,-101.83"/>
</g>
<!-- Node4&#45;&gt;Node5 -->
<g id="edge5" class="edge">
<title>Node4&#45;&gt;Node5</title>
<path fill="none" stroke="midnightblue" d="M72.54,-106.38C86.09,-96.62 103.47,-84.11 114.96,-75.83"/>
<polygon fill="midnightblue" stroke="midnightblue" points="70.35,-103.64 64.28,-112.32 74.44,-109.32 70.35,-103.64"/>
</g>
<!-- Node5&#45;&gt;Node2 -->
<g id="edge6" class="edge">
<title>Node5&#45;&gt;Node2</title>
<path fill="none" stroke="midnightblue" d="M155.37,-52.23C177.63,-42.13 208.09,-28.31 227.46,-19.52"/>
<polygon fill="midnightblue" stroke="midnightblue" points="153.75,-49.12 146.09,-56.44 156.64,-55.5 153.75,-49.12"/>
</g>
<!-- Node6&#45;&gt;Node2 -->
<g id="edge9" class="edge">
<title>Node6&#45;&gt;Node2</title>
<path fill="none" stroke="midnightblue" d="M169.66,-104.59C189.06,-80.87 224.25,-37.87 239.2,-19.59"/>
<polygon fill="midnightblue" stroke="midnightblue" points="166.92,-102.41 163.29,-112.37 172.33,-106.85 166.92,-102.41"/>
</g>
<!-- Node7&#45;&gt;Node2 -->
<g id="edge11" class="edge">
<title>Node7&#45;&gt;Node2</title>
<path fill="none" stroke="midnightblue" d="M466.49,-108.3C415.23,-85.66 309.32,-38.87 265.68,-19.59"/>
<polygon fill="midnightblue" stroke="midnightblue" points="465.13,-111.53 475.69,-112.37 467.96,-105.13 465.13,-111.53"/>
</g>
<!-- Node8&#45;&gt;Node2 -->
<g id="edge13" class="edge">
<title>Node8&#45;&gt;Node2</title>
<path fill="none" stroke="midnightblue" d="M579.65,-109.59C503.36,-87.03 335.09,-37.28 271.36,-18.43"/>
<polygon fill="midnightblue" stroke="midnightblue" points="578.77,-112.98 589.35,-112.46 580.75,-106.27 578.77,-112.98"/>
</g>
<!-- Node9&#45;&gt;Node2 -->
<g id="edge15" class="edge">
<title>Node9&#45;&gt;Node2</title>
<path fill="none" stroke="midnightblue" d="M351.05,-105.51C324.98,-82.01 276.3,-38.11 255.76,-19.59"/>
<polygon fill="midnightblue" stroke="midnightblue" points="348.89,-108.27 358.66,-112.37 353.57,-103.07 348.89,-108.27"/>
</g>
<!-- Node10&#45;&gt;Node4 -->
<g id="edge19" class="edge">
<title>Node10&#45;&gt;Node4</title>
<path fill="none" stroke="midnightblue" d="M102.92,-162.1C90.32,-152.38 74.3,-140.03 63.68,-131.83"/>
<polygon fill="midnightblue" stroke="midnightblue" points="100.93,-164.99 110.98,-168.32 105.2,-159.44 100.93,-164.99"/>
</g>
<!-- Node11&#45;&gt;Node4 -->
<g id="edge21" class="edge">
<title>Node11&#45;&gt;Node4</title>
<path fill="none" stroke="midnightblue" d="M319.03,-168.01C261.2,-159.45 172.72,-145.85 96.23,-132 93.01,-131.42 89.66,-130.78 86.31,-130.13"/>
<polygon fill="midnightblue" stroke="midnightblue" points="318.7,-171.49 329.11,-169.49 319.72,-164.57 318.7,-171.49"/>
</g>
<!-- Node11&#45;&gt;Node7 -->
<g id="edge22" class="edge">
<title>Node11&#45;&gt;Node7</title>
<path fill="none" stroke="midnightblue" d="M408.47,-164.1C429.77,-154.01 458.77,-140.27 477.25,-131.52"/>
<polygon fill="midnightblue" stroke="midnightblue" points="406.83,-161 399.29,-168.44 409.83,-167.33 406.83,-161"/>
</g>
<!-- Node11&#45;&gt;Node8 -->
<g id="edge23" class="edge">
<title>Node11&#45;&gt;Node8</title>
<path fill="none" stroke="midnightblue" d="M428.55,-166.22C473.34,-156.01 539.67,-140.9 580.85,-131.52"/>
<polygon fill="midnightblue" stroke="midnightblue" points="427.76,-162.81 418.78,-168.44 429.31,-169.63 427.76,-162.81"/>
</g>
<!-- Node12&#45;&gt;Node7 -->
<g id="edge26" class="edge">
<title>Node12&#45;&gt;Node7</title>
<path fill="none" stroke="midnightblue" d="M515.38,-159.27C510.26,-150.05 504.21,-139.17 500.09,-131.75"/>
<polygon fill="midnightblue" stroke="midnightblue" points="512.36,-161.04 520.28,-168.08 518.48,-157.64 512.36,-161.04"/>
</g>
<!-- Node12&#45;&gt;Node8 -->
<g id="edge27" class="edge">
<title>Node12&#45;&gt;Node8</title>
<path fill="none" stroke="midnightblue" d="M549.04,-163.18C566.15,-153.24 588.7,-140.15 603.33,-131.65"/>
<polygon fill="midnightblue" stroke="midnightblue" points="547.06,-160.28 540.17,-168.32 550.58,-166.33 547.06,-160.28"/>
</g>
</g>
</svg>
        <g id="navigator" transform="translate(0 0)" fill="#404254">
                <rect fill="#f2f5e9" fill-opacity="0.5" stroke="#606060" stroke-width=".5" x="0" y="0" width="60" height="60"/>
                <use id="zoomplus" xlink:href="#zoomPlus" x="17" y="9" onmousedown="handleZoom(evt,'in')"/>
                <use id="zoomminus" xlink:href="#zoomMin" x="42" y="9" onmousedown="handleZoom(evt,'out')"/>
                <use id="reset" xlink:href="#resetDef" x="30" y="36" onmousedown="handleReset()"/>
                <g id="arrowUp" xlink:href="#dirArrow" transform="translate(30 24)" onmousedown="handlePan(0,-1)">
                  <use xlink:href="#rim" fill="#404040">
                        <set attributeName="fill" to="#808080" begin="arrowUp.mouseover" end="arrowUp.mouseout"/>
                  </use>
                  <path fill="none" stroke="white" stroke-width="1.5" d="M0,-3.0v7 M-2.5,-0.5L0,-3.0L2.5,-0.5"/>
                </g>
                <g id="arrowRight" xlink:href="#dirArrow" transform="rotate(90) translate(36 -43)" onmousedown="handlePan(1,0)">
                  <use xlink:href="#rim" fill="#404040">
                        <set attributeName="fill" to="#808080" begin="arrowRight.mouseover" end="arrowRight.mouseout"/>
                  </use>
                  <path fill="none" stroke="white" stroke-width="1.5" d="M0,-3.0v7 M-2.5,-0.5L0,-3.0L2.5,-0.5"/>
                </g>
                <g id="arrowDown" xlink:href="#dirArrow" transform="rotate(180) translate(-30 -48)" onmousedown="handlePan(0,1)">
                  <use xlink:href="#rim" fill="#404040">
                        <set attributeName="fill" to="#808080" begin="arrowDown.mouseover" end="arrowDown.mouseout"/>
                  </use>
                  <path fill="none" stroke="white" stroke-width="1.5" d="M0,-3.0v7 M-2.5,-0.5L0,-3.0L2.5,-0.5"/>
                </g>
                <g id="arrowLeft" xlink:href="#dirArrow" transform="rotate(270) translate(-36 17)" onmousedown="handlePan(-1,0)">
                  <use xlink:href="#rim" fill="#404040">
                        <set attributeName="fill" to="#808080" begin="arrowLeft.mouseover" end="arrowLeft.mouseout"/>
                  </use>
                  <path fill="none" stroke="white" stroke-width="1.5" d="M0,-3.0v7 M-2.5,-0.5L0,-3.0L2.5,-0.5"/>
                </g>
        </g>
        <svg viewBox="0 0 15 15" width="100%" height="30px" preserveAspectRatio="xMaxYMin meet">
         <g id="arrow_out" transform="scale(0.3 0.3)">
          <a xlink:href="exceptions_8hpp__dep__incl_org.svg" target="_base">
           <rect id="button" ry="5" rx="5" y="6" x="6" height="38" width="38"
                fill="#f2f5e9" fill-opacity="0.5" stroke="#606060" stroke-width="1.0"/>
           <path id="arrow"
             d="M 11.500037,31.436501 C 11.940474,20.09759 22.043105,11.32322 32.158766,21.979434 L 37.068811,17.246167 C 37.068811,17.246167 37.088388,32 37.088388,32 L 22.160133,31.978069 C 22.160133,31.978069 26.997745,27.140456 26.997745,27.140456 C 18.528582,18.264221 13.291696,25.230495 11.500037,31.436501 z"
             style="fill:#404040;"/>
          </a>
         </g>
        </svg>
</svg>
