<?xml version="1.0" encoding="UTF-8" standalone="no"?>
<!DOCTYPE svg PUBLIC "-//W3C//DTD SVG 1.1//EN"
 "http://www.w3.org/Graphics/SVG/1.1/DTD/svg11.dtd">
<!-- Generated by graphviz version 2.38.0 (20140413.2041)
 -->
<!-- Title: exceptions.hpp Pages: 1 -->
<svg width="640pt" height="252pt"
 viewBox="0.00 0.00 640.21 252.00" xmlns="http://www.w3.org/2000/svg" xmlns:xlink="http://www.w3.org/1999/xlink">
<g id="graph0" class="graph" transform="scale(1 1) rotate(0) translate(4 248)">
<title>exceptions.hpp</title>
<!-- Node1 -->
<g id="node1" class="node"><title>Node1</title>
<polygon fill="#bfbfbf" stroke="black" points="184.206,-224.5 184.206,-243.5 267.206,-243.5 267.206,-224.5 184.206,-224.5"/>
<text text-anchor="middle" x="225.706" y="-231.5" font-family="Helvetica,sans-Serif" font-size="10.00">exceptions.hpp</text>
</g>
<!-- Node2 -->
<g id="node2" class="node"><title>Node2</title>
<g id="a_node2"><a xlink:href="all_8hpp.html" target="_top" xlink:title="all.hpp">
<polygon fill="none" stroke="black" points="205.206,-0.5 205.206,-19.5 250.206,-19.5 250.206,-0.5 205.206,-0.5"/>
<text text-anchor="middle" x="227.706" y="-7.5" font-family="Helvetica,sans-Serif" font-size="10.00">all.hpp</text>
</a>
</g>
</g>
<!-- Node1&#45;&gt;Node2 -->
<g id="edge1" class="edge"><title>Node1&#45;&gt;Node2</title>
<path fill="none" stroke="midnightblue" d="M174.071,-226.636C122.862,-219.408 48.9207,-206.21 26.7063,-188 5.62689,-170.721 7.38654,-158.658 1.70626,-132 -17.5859,-41.4605 143.667,-18.1688 204.815,-12.6174"/>
<polygon fill="midnightblue" stroke="midnightblue" points="173.604,-230.105 183.988,-228.002 174.559,-223.17 173.604,-230.105"/>
</g>
<!-- Node3 -->
<g id="node3" class="node"><title>Node3</title>
<g id="a_node3"><a xlink:href="tag_8hpp.html" target="_top" xlink:title="tag.hpp">
<polygon fill="none" stroke="black" points="201.206,-168.5 201.206,-187.5 250.206,-187.5 250.206,-168.5 201.206,-168.5"/>
<text text-anchor="middle" x="225.706" y="-175.5" font-family="Helvetica,sans-Serif" font-size="10.00">tag.hpp</text>
</a>
</g>
</g>
<!-- Node1&#45;&gt;Node3 -->
<g id="edge2" class="edge"><title>Node1&#45;&gt;Node3</title>
<path fill="none" stroke="midnightblue" d="M225.706,-213.805C225.706,-204.91 225.706,-194.78 225.706,-187.751"/>
<polygon fill="midnightblue" stroke="midnightblue" points="222.206,-214.083 225.706,-224.083 229.206,-214.083 222.206,-214.083"/>
</g>
<!-- Node4 -->
<g id="node4" class="node"><title>Node4</title>
<g id="a_node4"><a xlink:href="parser_8hpp.html" target="_top" xlink:title="parser.hpp">
<polygon fill="none" stroke="black" points="15.7063,-112.5 15.7063,-131.5 77.7063,-131.5 77.7063,-112.5 15.7063,-112.5"/>
<text text-anchor="middle" x="46.7063" y="-119.5" font-family="Helvetica,sans-Serif" font-size="10.00">parser.hpp</text>
</a>
</g>
</g>
<!-- Node1&#45;&gt;Node4 -->
<g id="edge17" class="edge"><title>Node1&#45;&gt;Node4</title>
<path fill="none" stroke="midnightblue" d="M174.132,-229.766C140.838,-225.112 98.6744,-214.046 70.7063,-188 54.3323,-172.751 49.0823,-145.348 47.4355,-131.502"/>
<polygon fill="midnightblue" stroke="midnightblue" points="173.798,-233.252 184.154,-231.015 174.664,-226.306 173.798,-233.252"/>
</g>
<!-- Node5 -->
<g id="node5" class="node"><title>Node5</title>
<g id="a_node5"><a xlink:href="utils_8hpp.html" target="_top" xlink:title="utils.hpp">
<polygon fill="none" stroke="black" points="90.2063,-56.5 90.2063,-75.5 143.206,-75.5 143.206,-56.5 90.2063,-56.5"/>
<text text-anchor="middle" x="116.706" y="-63.5" font-family="Helvetica,sans-Serif" font-size="10.00">utils.hpp</text>
</a>
</g>
</g>
<!-- Node1&#45;&gt;Node5 -->
<g id="edge31" class="edge"><title>Node1&#45;&gt;Node5</title>
<path fill="none" stroke="midnightblue" d="M173.957,-228.771C117.12,-220.822 30.7063,-197.928 6.70626,-132 -6.98988,-94.3766 53.3125,-77.4943 90.0728,-70.8088"/>
<polygon fill="midnightblue" stroke="midnightblue" points="173.838,-232.285 184.203,-230.089 174.731,-225.342 173.838,-232.285"/>
</g>
<!-- Node6 -->
<g id="node6" class="node"><title>Node6</title>
<g id="a_node6"><a xlink:href="tag__no__value_8hpp.html" target="_top" xlink:title="tag_no_value.hpp">
<polygon fill="none" stroke="black" points="95.2063,-112.5 95.2063,-131.5 188.206,-131.5 188.206,-112.5 95.2063,-112.5"/>
<text text-anchor="middle" x="141.706" y="-119.5" font-family="Helvetica,sans-Serif" font-size="10.00">tag_no_value.hpp</text>
</a>
</g>
</g>
<!-- Node1&#45;&gt;Node6 -->
<g id="edge24" class="edge"><title>Node1&#45;&gt;Node6</title>
<path fill="none" stroke="midnightblue" d="M212.933,-216.272C194.775,-192.494 162.163,-149.789 148.267,-131.591"/>
<polygon fill="midnightblue" stroke="midnightblue" points="210.264,-218.545 219.115,-224.368 215.827,-214.297 210.264,-218.545"/>
</g>
<!-- Node7 -->
<g id="node7" class="node"><title>Node7</title>
<g id="a_node7"><a xlink:href="tag__scalar_8hpp.html" target="_top" xlink:title="tag_scalar.hpp">
<polygon fill="none" stroke="black" points="420.706,-112.5 420.706,-131.5 500.706,-131.5 500.706,-112.5 420.706,-112.5"/>
<text text-anchor="middle" x="460.706" y="-119.5" font-family="Helvetica,sans-Serif" font-size="10.00">tag_scalar.hpp</text>
</a>
</g>
</g>
<!-- Node1&#45;&gt;Node7 -->
<g id="edge28" class="edge"><title>Node1&#45;&gt;Node7</title>
<path fill="none" stroke="midnightblue" d="M277.266,-229.062C315.72,-224.129 368.202,-213.019 407.706,-188 430.586,-173.509 448.197,-145.762 456.117,-131.672"/>
<polygon fill="midnightblue" stroke="midnightblue" points="276.831,-225.589 267.313,-230.242 277.656,-232.541 276.831,-225.589"/>
</g>
<!-- Node8 -->
<g id="node8" class="node"><title>Node8</title>
<g id="a_node8"><a xlink:href="tag__scalar__vector_8hpp.html" target="_top" xlink:title="tag_scalar_vector.hpp">
<polygon fill="none" stroke="black" points="519.206,-112.5 519.206,-131.5 632.206,-131.5 632.206,-112.5 519.206,-112.5"/>
<text text-anchor="middle" x="575.706" y="-119.5" font-family="Helvetica,sans-Serif" font-size="10.00">tag_scalar_vector.hpp</text>
</a>
</g>
</g>
<!-- Node1&#45;&gt;Node8 -->
<g id="edge29" class="edge"><title>Node1&#45;&gt;Node8</title>
<path fill="none" stroke="midnightblue" d="M277.507,-229.97C352.177,-224.817 485.612,-212.445 526.706,-188 549.297,-174.562 564.927,-146.338 571.786,-131.908"/>
<polygon fill="midnightblue" stroke="midnightblue" points="277.12,-226.488 267.377,-230.649 277.589,-233.472 277.12,-226.488"/>
</g>
<!-- Node9 -->
<g id="node9" class="node"><title>Node9</title>
<g id="a_node9"><a xlink:href="tag__vector__of__tags_8hpp.html" target="_top" xlink:title="tag_vector_of_tags.hpp">
<polygon fill="none" stroke="black" points="283.206,-112.5 283.206,-131.5 402.206,-131.5 402.206,-112.5 283.206,-112.5"/>
<text text-anchor="middle" x="342.706" y="-119.5" font-family="Helvetica,sans-Serif" font-size="10.00">tag_vector_of_tags.hpp</text>
</a>
</g>
</g>
<!-- Node1&#45;&gt;Node9 -->
<g id="edge30" class="edge"><title>Node1&#45;&gt;Node9</title>
<path fill="none" stroke="midnightblue" d="M242.18,-217.512C267.181,-194.007 313.872,-150.11 333.568,-131.591"/>
<polygon fill="midnightblue" stroke="midnightblue" points="239.775,-214.969 234.887,-224.368 244.57,-220.069 239.775,-214.969"/>
</g>
<!-- Node10 -->
<g id="node10" class="node"><title>Node10</title>
<g id="a_node10"><a xlink:href="lex_8hpp.html" target="_top" xlink:title="lex.hpp">
<polygon fill="none" stroke="black" points="79.7063,-168.5 79.7063,-187.5 127.706,-187.5 127.706,-168.5 79.7063,-168.5"/>
<text text-anchor="middle" x="103.706" y="-175.5" font-family="Helvetica,sans-Serif" font-size="10.00">lex.hpp</text>
</a>
</g>
</g>
<!-- Node1&#45;&gt;Node10 -->
<g id="edge18" class="edge"><title>Node1&#45;&gt;Node10</title>
<path fill="none" stroke="midnightblue" d="M197.167,-220.368C174.32,-210.255 142.901,-196.349 122.947,-187.516"/>
<polygon fill="midnightblue" stroke="midnightblue" points="195.814,-223.597 206.375,-224.444 198.647,-217.196 195.814,-223.597"/>
</g>
<!-- Node11 -->
<g id="node11" class="node"><title>Node11</title>
<g id="a_node11"><a xlink:href="string__format_8hpp.html" target="_top" xlink:title="string_format.hpp">
<polygon fill="none" stroke="black" points="306.706,-168.5 306.706,-187.5 398.706,-187.5 398.706,-168.5 306.706,-168.5"/>
<text text-anchor="middle" x="352.706" y="-175.5" font-family="Helvetica,sans-Serif" font-size="10.00">string_format.hpp</text>
</a>
</g>
</g>
<!-- Node1&#45;&gt;Node11 -->
<g id="edge20" class="edge"><title>Node1&#45;&gt;Node11</title>
<path fill="none" stroke="midnightblue" d="M255.097,-220.503C278.906,-210.38 311.812,-196.388 332.677,-187.516"/>
<polygon fill="midnightblue" stroke="midnightblue" points="253.663,-217.31 245.83,-224.444 256.402,-223.751 253.663,-217.31"/>
</g>
<!-- Node12 -->
<g id="node12" class="node"><title>Node12</title>
<g id="a_node12"><a xlink:href="format_8hpp.html" target="_top" xlink:title="format.hpp">
<polygon fill="none" stroke="black" points="455.206,-168.5 455.206,-187.5 518.206,-187.5 518.206,-168.5 455.206,-168.5"/>
<text text-anchor="middle" x="486.706" y="-175.5" font-family="Helvetica,sans-Serif" font-size="10.00">format.hpp</text>
</a>
</g>
</g>
<!-- Node1&#45;&gt;Node12 -->
<g id="edge25" class="edge"><title>Node1&#45;&gt;Node12</title>
<path fill="none" stroke="midnightblue" d="M276.923,-222.403C329.817,-211.46 410.692,-194.727 454.985,-185.563"/>
<polygon fill="midnightblue" stroke="midnightblue" points="276.146,-218.99 267.062,-224.444 277.564,-225.845 276.146,-218.99"/>
</g>
<!-- Node3&#45;&gt;Node2 -->
<g id="edge7" class="edge"><title>Node3&#45;&gt;Node2</title>
<path fill="none" stroke="midnightblue" d="M225.936,-157.93C226.37,-121.92 227.294,-45.2312 227.603,-19.5681"/>
<polygon fill="midnightblue" stroke="midnightblue" points="222.435,-158.034 225.814,-168.075 229.434,-158.118 222.435,-158.034"/>
</g>
<!-- Node3&#45;&gt;Node4 -->
<g id="edge3" class="edge"><title>Node3&#45;&gt;Node4</title>
<path fill="none" stroke="midnightblue" d="M191.297,-166.62C157.509,-156.427 106.578,-141.062 75.0508,-131.551"/>
<polygon fill="midnightblue" stroke="midnightblue" points="190.608,-170.067 201.192,-169.605 192.629,-163.366 190.608,-170.067"/>
</g>
<!-- Node3&#45;&gt;Node5 -->
<g id="edge16" class="edge"><title>Node3&#45;&gt;Node5</title>
<path fill="none" stroke="midnightblue" d="M220.902,-158.46C216.496,-144.387 208.791,-125.26 196.706,-112 181.25,-95.0394 157.869,-82.9212 140.37,-75.5641"/>
<polygon fill="midnightblue" stroke="midnightblue" points="217.643,-159.797 223.749,-168.455 224.375,-157.879 217.643,-159.797"/>
</g>
<!-- Node3&#45;&gt;Node6 -->
<g id="edge8" class="edge"><title>Node3&#45;&gt;Node6</title>
<path fill="none" stroke="midnightblue" d="M203.774,-162.901C188.371,-152.999 168.26,-140.071 155.169,-131.655"/>
<polygon fill="midnightblue" stroke="midnightblue" points="201.906,-165.86 212.21,-168.324 205.691,-159.972 201.906,-165.86"/>
</g>
<!-- Node3&#45;&gt;Node7 -->
<g id="edge10" class="edge"><title>Node3&#45;&gt;Node7</title>
<path fill="none" stroke="midnightblue" d="M260.285,-169.054C303.973,-159.015 378.851,-141.809 423.671,-131.51"/>
<polygon fill="midnightblue" stroke="midnightblue" points="259.373,-165.672 250.411,-171.323 260.941,-172.495 259.373,-165.672"/>
</g>
<!-- Node3&#45;&gt;Node8 -->
<g id="edge12" class="edge"><title>Node3&#45;&gt;Node8</title>
<path fill="none" stroke="midnightblue" d="M260.554,-171.623C321.45,-162.228 447.67,-142.754 520.544,-131.511"/>
<polygon fill="midnightblue" stroke="midnightblue" points="259.667,-168.219 250.318,-173.203 260.734,-175.137 259.667,-168.219"/>
</g>
<!-- Node3&#45;&gt;Node9 -->
<g id="edge14" class="edge"><title>Node3&#45;&gt;Node9</title>
<path fill="none" stroke="midnightblue" d="M253.37,-164.232C275.255,-154.131 305.203,-140.309 324.254,-131.516"/>
<polygon fill="midnightblue" stroke="midnightblue" points="251.858,-161.075 244.245,-168.444 254.792,-167.431 251.858,-161.075"/>
</g>
<!-- Node4&#45;&gt;Node2 -->
<g id="edge4" class="edge"><title>Node4&#45;&gt;Node2</title>
<path fill="none" stroke="midnightblue" d="M51.9891,-102.549C57.0804,-87.9428 66.1838,-68.0584 80.7063,-56 117.154,-25.7363 173.729,-15.8062 204.998,-12.5619"/>
<polygon fill="midnightblue" stroke="midnightblue" points="48.5292,-101.882 48.8546,-112.472 55.2042,-103.991 48.5292,-101.882"/>
</g>
<!-- Node4&#45;&gt;Node5 -->
<g id="edge5" class="edge"><title>Node4&#45;&gt;Node5</title>
<path fill="none" stroke="midnightblue" d="M66.0201,-106.101C78.618,-96.3824 94.6343,-84.0269 105.255,-75.8339"/>
<polygon fill="midnightblue" stroke="midnightblue" points="63.733,-103.445 57.953,-112.324 68.0086,-108.987 63.733,-103.445"/>
</g>
<!-- Node5&#45;&gt;Node2 -->
<g id="edge6" class="edge"><title>Node5&#45;&gt;Node2</title>
<path fill="none" stroke="midnightblue" d="M143.712,-51.8622C164.294,-41.8492 192.051,-28.3458 209.916,-19.6545"/>
<polygon fill="midnightblue" stroke="midnightblue" points="142.002,-48.8019 134.54,-56.324 145.064,-55.0966 142.002,-48.8019"/>
</g>
<!-- Node6&#45;&gt;Node2 -->
<g id="edge9" class="edge"><title>Node6&#45;&gt;Node2</title>
<path fill="none" stroke="midnightblue" d="M154.784,-104.272C173.374,-80.4942 206.762,-37.7889 220.989,-19.5914"/>
<polygon fill="midnightblue" stroke="midnightblue" points="151.856,-102.335 148.455,-112.368 157.371,-106.646 151.856,-102.335"/>
</g>
<!-- Node7&#45;&gt;Node2 -->
<g id="edge11" class="edge"><title>Node7&#45;&gt;Node2</title>
<path fill="none" stroke="midnightblue" d="M433.215,-108.021C385.027,-85.2717 286.573,-38.791 245.904,-19.5914"/>
<polygon fill="midnightblue" stroke="midnightblue" points="431.886,-111.264 442.423,-112.368 434.874,-104.934 431.886,-111.264"/>
</g>
<!-- Node8&#45;&gt;Node2 -->
<g id="edge13" class="edge"><title>Node8&#45;&gt;Node2</title>
<path fill="none" stroke="midnightblue" d="M539.126,-109.437C467.168,-86.6918 309.112,-36.7318 250.322,-18.1485"/>
<polygon fill="midnightblue" stroke="midnightblue" points="538.099,-112.783 548.689,-112.46 540.209,-106.109 538.099,-112.783"/>
</g>
<!-- Node9&#45;&gt;Node2 -->
<g id="edge15" class="edge"><title>Node9&#45;&gt;Node2</title>
<path fill="none" stroke="midnightblue" d="M326.194,-105.205C301.544,-81.6272 255.964,-38.0294 236.688,-19.5914"/>
<polygon fill="midnightblue" stroke="midnightblue" points="324.037,-107.985 333.682,-112.368 328.875,-102.927 324.037,-107.985"/>
</g>
<!-- Node10&#45;&gt;Node4 -->
<g id="edge19" class="edge"><title>Node10&#45;&gt;Node4</title>
<path fill="none" stroke="midnightblue" d="M87.0848,-161.253C76.9723,-151.673 64.4297,-139.791 56.0309,-131.834"/>
<polygon fill="midnightblue" stroke="midnightblue" points="84.8816,-163.987 94.5482,-168.324 89.6958,-158.906 84.8816,-163.987"/>
</g>
<!-- Node11&#45;&gt;Node4 -->
<g id="edge21" class="edge"><title>Node11&#45;&gt;Node4</title>
<path fill="none" stroke="midnightblue" d="M296.156,-168.475C241.988,-160.072 158.032,-146.427 85.7063,-132 83.1167,-131.483 80.4367,-130.922 77.75,-130.34"/>
<polygon fill="midnightblue" stroke="midnightblue" points="295.83,-171.966 306.247,-170.033 296.898,-165.048 295.83,-171.966"/>
</g>
<!-- Node11&#45;&gt;Node7 -->
<g id="edge22" class="edge"><title>Node11&#45;&gt;Node7</title>
<path fill="none" stroke="midnightblue" d="M379.254,-163.726C399.252,-153.727 426.093,-140.307 443.397,-131.655"/>
<polygon fill="midnightblue" stroke="midnightblue" points="377.437,-160.721 370.058,-168.324 380.568,-166.982 377.437,-160.721"/>
</g>
<!-- Node11&#45;&gt;Node8 -->
<g id="edge23" class="edge"><title>Node11&#45;&gt;Node8</title>
<path fill="none" stroke="midnightblue" d="M397.767,-166.088C439.897,-155.887 501.946,-140.861 540.537,-131.516"/>
<polygon fill="midnightblue" stroke="midnightblue" points="396.937,-162.688 388.041,-168.444 398.584,-169.492 396.937,-162.688"/>
</g>
<!-- Node12&#45;&gt;Node7 -->
<g id="edge26" class="edge"><title>Node12&#45;&gt;Node7</title>
<path fill="none" stroke="midnightblue" d="M478.031,-158.983C473.618,-149.817 468.454,-139.092 464.92,-131.751"/>
<polygon fill="midnightblue" stroke="midnightblue" points="474.921,-160.591 482.413,-168.083 481.228,-157.555 474.921,-160.591"/>
</g>
<!-- Node12&#45;&gt;Node8 -->
<g id="edge27" class="edge"><title>Node12&#45;&gt;Node8</title>
<path fill="none" stroke="midnightblue" d="M509.944,-162.901C526.264,-152.999 547.571,-140.071 561.442,-131.655"/>
<polygon fill="midnightblue" stroke="midnightblue" points="507.739,-160.144 501.006,-168.324 511.371,-166.129 507.739,-160.144"/>
</g>
</g>
</svg>
