<?xml version="1.0" encoding="UTF-8" standalone="no"?>
<!DOCTYPE svg PUBLIC "-//W3C//DTD SVG 1.1//EN"
 "http://www.w3.org/Graphics/SVG/1.1/DTD/svg11.dtd">
<!-- Generated by graphviz version 2.43.0 (0)
 -->
<!-- Title: exceptions.hpp Pages: 1 -->
<!--zoomable 247 -->

<svg id="main" version="1.1" xmlns="http://www.w3.org/2000/svg" xmlns:xlink="http://www.w3.org/1999/xlink" xml:space="preserve" onload="init(evt)">
<style type="text/css"><![CDATA[
.node, .edge {opacity: 0.7;}
.node.selected, .edge.selected {opacity: 1;}
.edge:hover path { stroke: red; }
.edge:hover polygon { stroke: red; fill: red; }
]]></style>

<defs>
  <circle id="rim" cx="0" cy="0" r="7"/>
  <circle id="rim2" cx="0" cy="0" r="3.5"/>
  <g id="zoomPlus">
    <use xlink:href="#rim" fill="#404040"><set attributeName="fill" to="#808080" begin="zoomplus.mouseover" end="zoomplus.mouseout"/></use>
    <path d="M-4,0h8M0,-4v8" fill="none" stroke="white" stroke-width="1.5" pointer-events="none"/>
  </g>
  <g id="zoomMin">
    <use xlink:href="#rim" fill="#404040"><set attributeName="fill" to="#808080" begin="zoomminus.mouseover" end="zoomminus.mouseout"/></use>
    <path d="M-4,0h8" fill="none" stroke="white" stroke-width="1.5" pointer-events="none"/>
  </g>
  <g id="arrowUp" transform="translate(30 24)">
    <use xlink:href="#rim"/>
    <path pointer-events="none" fill="none" stroke="white" stroke-width="1.5" d="M0,-3.0v7 M-2.5,-0.5L0,-3.0L2.5,-0.5"/>
  </g>
  <g id="arrowRight" transform="rotate(90) translate(36 -43)">
    <use xlink:href="#rim"/>
    <path pointer-events="none" fill="none" stroke="white" stroke-width="1.5" d="M0,-3.0v7 M-2.5,-0.5L0,-3.0L2.5,-0.5"/>
  </g>
  <g id="arrowDown" transform="rotate(180) translate(-30 -48)">
    <use xlink:href="#rim"/>
    <path pointer-events="none" fill="none" stroke="white" stroke-width="1.5" d="M0,-3.0v7 M-2.5,-0.5L0,-3.0L2.5,-0.5"/>
  </g>
  <g id="arrowLeft" transform="rotate(270) translate(-36 17)">
    <use xlink:href="#rim"/>
    <path pointer-events="none" fill="none" stroke="white" stroke-width="1.5" d="M0,-3.0v7 M-2.5,-0.5L0,-3.0L2.5,-0.5"/>
  </g>
  <g id="resetDef">
    <use xlink:href="#rim2" fill="#404040"><set attributeName="fill" to="#808080" begin="reset.mouseover" end="reset.mouseout"/></use>
  </g>
</defs>
<script type="application/ecmascript">
var viewWidth = 734;
var viewHeight = 247;
var sectionId = 'dynsection-1';
</script>
<script type="application/ecmascript" xlink:href="svg.min.js"/>
<svg id="graph" class="graph">
<g id="viewport">
<title>exceptions.hpp</title>
<!-- Node1 -->
<g id="Node000001" class="node">
<title>Node1</title>
<g id="a_Node000001"><a xlink:title=" ">
<polygon fill="#999999" stroke="#666666" points="325.5,-239 234.5,-239 234.5,-220 325.5,-220 325.5,-239"/>
<text text-anchor="middle" x="280" y="-227" font-family="Helvetica,sans-Serif" font-size="10.00">exceptions.hpp</text>
</a>
</g>
</g>
<!-- Node2 -->
<g id="Node000002" class="node">
<title>Node2</title>
<g id="a_Node000002"><a xlink:href="all_8hpp.html" target="_top" xlink:title=" ">
<polygon fill="white" stroke="#666666" points="363,-19 313,-19 313,0 363,0 363,-19"/>
<text text-anchor="middle" x="338" y="-7" font-family="Helvetica,sans-Serif" font-size="10.00">all.hpp</text>
</a>
</g>
</g>
<!-- Node1&#45;&gt;Node2 -->
<g id="edge1_Node000001_Node000002" class="edge">
<title>Node1&#45;&gt;Node2</title>
<g id="a_edge1_Node000001_Node000002"><a xlink:title=" ">
<path fill="none" stroke="#63b8ff" d="M224.01,-227.74C151.43,-225.43 30.82,-216.64 3,-184 -2.48,-177.57 1.95,-173.38 3,-165 6.14,-139.97 -0.21,-128.44 17,-110 97.82,-23.42 252.31,-11.58 312.81,-10.39"/>
<polygon fill="#63b8ff" stroke="#63b8ff" points="224.26,-231.25 234.36,-228.04 224.46,-224.25 224.26,-231.25"/>
</a>
</g>
</g>
<!-- Node3 -->
<g id="Node000003" class="node">
<title>Node3</title>
<g id="a_Node000003"><a xlink:href="format_8hpp.html" target="_top" xlink:title=" ">
<polygon fill="white" stroke="#666666" points="91.5,-184 20.5,-184 20.5,-165 91.5,-165 91.5,-184"/>
<text text-anchor="middle" x="56" y="-172" font-family="Helvetica,sans-Serif" font-size="10.00">format.hpp</text>
</a>
</g>
</g>
<!-- Node1&#45;&gt;Node3 -->
<g id="edge2_Node000001_Node000003" class="edge">
<title>Node1&#45;&gt;Node3</title>
<g id="a_edge2_Node000001_Node000003"><a xlink:title=" ">
<path fill="none" stroke="#63b8ff" d="M234.25,-217.68C192.02,-207.68 130.16,-193.05 91.53,-183.91"/>
<polygon fill="#63b8ff" stroke="#63b8ff" points="233.47,-221.09 244.01,-219.98 235.09,-214.28 233.47,-221.09"/>
</a>
</g>
</g>
<!-- Node4 -->
<g id="Node000004" class="node">
<title>Node4</title>
<g id="a_Node000004"><a xlink:href="tag__scalar_8hpp.html" target="_top" xlink:title=" ">
<polygon fill="white" stroke="#666666" points="113.5,-129 26.5,-129 26.5,-110 113.5,-110 113.5,-129"/>
<text text-anchor="middle" x="70" y="-117" font-family="Helvetica,sans-Serif" font-size="10.00">tag_scalar.hpp</text>
</a>
</g>
</g>
<!-- Node1&#45;&gt;Node4 -->
<g id="edge28_Node000001_Node000004" class="edge">
<title>Node1&#45;&gt;Node4</title>
<g id="a_edge28_Node000001_Node000004"><a xlink:title=" ">
<path fill="none" stroke="#63b8ff" d="M224.18,-227.44C153.52,-224.77 37.78,-215.57 11,-184 -6.23,-163.69 28.57,-141.11 51.69,-129.11"/>
<polygon fill="#63b8ff" stroke="#63b8ff" points="224.14,-230.94 234.26,-227.78 224.38,-223.94 224.14,-230.94"/>
</a>
</g>
</g>
<!-- Node5 -->
<g id="Node000005" class="node">
<title>Node5</title>
<g id="a_Node000005"><a xlink:href="tag__scalar__vector_8hpp.html" target="_top" xlink:title=" ">
<polygon fill="white" stroke="#666666" points="254.5,-129 131.5,-129 131.5,-110 254.5,-110 254.5,-129"/>
<text text-anchor="middle" x="193" y="-117" font-family="Helvetica,sans-Serif" font-size="10.00">tag_scalar_vector.hpp</text>
</a>
</g>
</g>
<!-- Node1&#45;&gt;Node5 -->
<g id="edge29_Node000001_Node000005" class="edge">
<title>Node1&#45;&gt;Node5</title>
<g id="a_edge29_Node000001_Node000005"><a xlink:title=" ">
<path fill="none" stroke="#63b8ff" d="M224.09,-226.13C193.69,-221.63 158.43,-210.51 139,-184 123.86,-163.34 155.47,-140.89 176.42,-129.01"/>
<polygon fill="#63b8ff" stroke="#63b8ff" points="223.82,-229.62 234.18,-227.41 224.7,-222.68 223.82,-229.62"/>
</a>
</g>
</g>
<!-- Node6 -->
<g id="Node000006" class="node">
<title>Node6</title>
<g id="a_Node000006"><a xlink:href="lex_8hpp.html" target="_top" xlink:title=" ">
<polygon fill="white" stroke="#666666" points="361.5,-184 308.5,-184 308.5,-165 361.5,-165 361.5,-184"/>
<text text-anchor="middle" x="335" y="-172" font-family="Helvetica,sans-Serif" font-size="10.00">lex.hpp</text>
</a>
</g>
</g>
<!-- Node1&#45;&gt;Node6 -->
<g id="edge7_Node000001_Node000006" class="edge">
<title>Node1&#45;&gt;Node6</title>
<g id="a_edge7_Node000001_Node000006"><a xlink:title=" ">
<path fill="none" stroke="#63b8ff" d="M296.29,-212.8C306.04,-203.41 318.05,-191.83 326.09,-184.09"/>
<polygon fill="#63b8ff" stroke="#63b8ff" points="293.86,-210.29 289.08,-219.75 298.71,-215.33 293.86,-210.29"/>
</a>
</g>
</g>
<!-- Node7 -->
<g id="Node000007" class="node">
<title>Node7</title>
<g id="a_Node000007"><a xlink:href="parser_8hpp.html" target="_top" xlink:title=" ">
<polygon fill="white" stroke="#666666" points="341,-129 273,-129 273,-110 341,-110 341,-129"/>
<text text-anchor="middle" x="307" y="-117" font-family="Helvetica,sans-Serif" font-size="10.00">parser.hpp</text>
</a>
</g>
</g>
<!-- Node1&#45;&gt;Node7 -->
<g id="edge12_Node000001_Node000007" class="edge">
<title>Node1&#45;&gt;Node7</title>
<g id="a_edge12_Node000001_Node000007"><a xlink:title=" ">
<path fill="none" stroke="#63b8ff" d="M284.67,-209.8C290.58,-186.2 300.48,-146.58 304.84,-129.16"/>
<polygon fill="#63b8ff" stroke="#63b8ff" points="281.24,-209.11 282.21,-219.66 288.03,-210.81 281.24,-209.11"/>
</a>
</g>
</g>
<!-- Node8 -->
<g id="Node000008" class="node">
<title>Node8</title>
<g id="a_Node000008"><a xlink:href="utils_8hpp.html" target="_top" xlink:title=" ">
<polygon fill="white" stroke="#666666" points="397.5,-74 338.5,-74 338.5,-55 397.5,-55 397.5,-74"/>
<text text-anchor="middle" x="368" y="-62" font-family="Helvetica,sans-Serif" font-size="10.00">utils.hpp</text>
</a>
</g>
</g>
<!-- Node1&#45;&gt;Node8 -->
<g id="edge31_Node000001_Node000008" class="edge">
<title>Node1&#45;&gt;Node8</title>
<g id="a_edge31_Node000001_Node000008"><a xlink:title=" ">
<path fill="none" stroke="#63b8ff" d="M328.07,-216.41C344.59,-209.7 361.35,-199.46 371,-184 393.12,-148.56 378.27,-94.81 371.18,-74.08"/>
<polygon fill="#63b8ff" stroke="#63b8ff" points="326.6,-213.22 318.42,-219.96 329.02,-219.79 326.6,-213.22"/>
</a>
</g>
</g>
<!-- Node9 -->
<g id="Node000009" class="node">
<title>Node9</title>
<g id="a_Node000009"><a xlink:href="string__format_8hpp.html" target="_top" xlink:title=" ">
<polygon fill="white" stroke="#666666" points="252,-184 148,-184 148,-165 252,-165 252,-184"/>
<text text-anchor="middle" x="200" y="-172" font-family="Helvetica,sans-Serif" font-size="10.00">string_format.hpp</text>
</a>
</g>
</g>
<!-- Node1&#45;&gt;Node9 -->
<g id="edge13_Node000001_Node000009" class="edge">
<title>Node1&#45;&gt;Node9</title>
<g id="a_edge13_Node000001_Node000009"><a xlink:title=" ">
<path fill="none" stroke="#63b8ff" d="M258.75,-214.42C244.24,-204.81 225.46,-192.37 213.09,-184.17"/>
<polygon fill="#63b8ff" stroke="#63b8ff" points="256.88,-217.38 267.15,-219.98 260.74,-211.54 256.88,-217.38"/>
</a>
</g>
</g>
<!-- Node10 -->
<g id="Node000010" class="node">
<title>Node10</title>
<g id="a_Node000010"><a xlink:href="tag_8hpp.html" target="_top" xlink:title=" ">
<polygon fill="white" stroke="#666666" points="471.5,-184 418.5,-184 418.5,-165 471.5,-165 471.5,-184"/>
<text text-anchor="middle" x="445" y="-172" font-family="Helvetica,sans-Serif" font-size="10.00">tag.hpp</text>
</a>
</g>
</g>
<!-- Node1&#45;&gt;Node10 -->
<g id="edge17_Node000001_Node000010" class="edge">
<title>Node1&#45;&gt;Node10</title>
<g id="a_edge17_Node000001_Node000010"><a xlink:title=" ">
<path fill="none" stroke="#63b8ff" d="M316.43,-216.8C347.22,-206.91 390.62,-192.97 418.28,-184.08"/>
<polygon fill="#63b8ff" stroke="#63b8ff" points="314.96,-213.59 306.51,-219.98 317.1,-220.26 314.96,-213.59"/>
</a>
</g>
</g>
<!-- Node11 -->
<g id="Node000011" class="node">
<title>Node11</title>
<g id="a_Node000011"><a xlink:href="tag__no__value_8hpp.html" target="_top" xlink:title=" ">
<polygon fill="white" stroke="#666666" points="576.5,-129 473.5,-129 473.5,-110 576.5,-110 576.5,-129"/>
<text text-anchor="middle" x="525" y="-117" font-family="Helvetica,sans-Serif" font-size="10.00">tag_no_value.hpp</text>
</a>
</g>
</g>
<!-- Node1&#45;&gt;Node11 -->
<g id="edge27_Node000001_Node000011" class="edge">
<title>Node1&#45;&gt;Node11</title>
<g id="a_edge27_Node000001_Node000011"><a xlink:title=" ">
<path fill="none" stroke="#63b8ff" d="M335.61,-227.01C378.55,-223.45 437.74,-213.05 481,-184 501.71,-170.09 515.55,-142.87 521.58,-129.03"/>
<polygon fill="#63b8ff" stroke="#63b8ff" points="335.34,-223.52 325.62,-227.74 335.85,-230.5 335.34,-223.52"/>
</a>
</g>
</g>
<!-- Node12 -->
<g id="Node000012" class="node">
<title>Node12</title>
<g id="a_Node000012"><a xlink:href="tag__vector__of__tags_8hpp.html" target="_top" xlink:title=" ">
<polygon fill="white" stroke="#666666" points="725.5,-129 594.5,-129 594.5,-110 725.5,-110 725.5,-129"/>
<text text-anchor="middle" x="660" y="-117" font-family="Helvetica,sans-Serif" font-size="10.00">tag_vector_of_tags.hpp</text>
</a>
</g>
</g>
<!-- Node1&#45;&gt;Node12 -->
<g id="edge30_Node000001_Node000012" class="edge">
<title>Node1&#45;&gt;Node12</title>
<g id="a_edge30_Node000001_Node000012"><a xlink:title=" ">
<path fill="none" stroke="#63b8ff" d="M335.69,-220.46C381.45,-213.14 447.69,-200.89 504,-184 555.54,-168.55 613.58,-142.5 642.15,-129.08"/>
<polygon fill="#63b8ff" stroke="#63b8ff" points="335,-217.03 325.67,-222.04 336.09,-223.94 335,-217.03"/>
</a>
</g>
</g>
<!-- Node3&#45;&gt;Node4 -->
<g id="edge3_Node000003_Node000004" class="edge">
<title>Node3&#45;&gt;Node4</title>
<g id="a_edge3_Node000003_Node000004"><a xlink:title=" ">
<path fill="none" stroke="#63b8ff" d="M60.9,-154.95C63.23,-146.15 65.89,-136.06 67.73,-129.09"/>
<polygon fill="#63b8ff" stroke="#63b8ff" points="57.48,-154.19 58.31,-164.75 64.25,-155.97 57.48,-154.19"/>
</a>
</g>
</g>
<!-- Node3&#45;&gt;Node5 -->
<g id="edge5_Node000003_Node000005" class="edge">
<title>Node3&#45;&gt;Node5</title>
<g id="a_edge5_Node000003_Node000005"><a xlink:title=" ">
<path fill="none" stroke="#63b8ff" d="M87.56,-161.29C112.95,-151.47 148,-137.91 170.59,-129.17"/>
<polygon fill="#63b8ff" stroke="#63b8ff" points="86.08,-158.11 78.01,-164.98 88.6,-164.64 86.08,-158.11"/>
</a>
</g>
</g>
<!-- Node4&#45;&gt;Node2 -->
<g id="edge4_Node000004_Node000002" class="edge">
<title>Node4&#45;&gt;Node2</title>
<g id="a_edge4_Node000004_Node000002"><a xlink:title=" ">
<path fill="none" stroke="#63b8ff" d="M101.06,-105.98C156.17,-83.77 269.69,-38.03 316.79,-19.05"/>
<polygon fill="#63b8ff" stroke="#63b8ff" points="99.45,-102.86 91.48,-109.84 102.06,-109.35 99.45,-102.86"/>
</a>
</g>
</g>
<!-- Node5&#45;&gt;Node2 -->
<g id="edge6_Node000005_Node000002" class="edge">
<title>Node5&#45;&gt;Node2</title>
<g id="a_edge6_Node000005_Node000002"><a xlink:title=" ">
<path fill="none" stroke="#63b8ff" d="M213.14,-103.5C243.93,-80.57 301.72,-37.52 326.38,-19.16"/>
<polygon fill="#63b8ff" stroke="#63b8ff" points="210.8,-100.88 204.87,-109.66 214.98,-106.5 210.8,-100.88"/>
</a>
</g>
</g>
<!-- Node6&#45;&gt;Node7 -->
<g id="edge8_Node000006_Node000007" class="edge">
<title>Node6&#45;&gt;Node7</title>
<g id="a_edge8_Node000006_Node000007"><a xlink:title=" ">
<path fill="none" stroke="#63b8ff" d="M325.66,-155.82C320.91,-146.82 315.35,-136.29 311.54,-129.09"/>
<polygon fill="#63b8ff" stroke="#63b8ff" points="322.61,-157.54 330.38,-164.75 328.8,-154.27 322.61,-157.54"/>
</a>
</g>
</g>
<!-- Node7&#45;&gt;Node2 -->
<g id="edge9_Node000007_Node000002" class="edge">
<title>Node7&#45;&gt;Node2</title>
<g id="a_edge9_Node000007_Node000002"><a xlink:title=" ">
<path fill="none" stroke="#63b8ff" d="M312.37,-99.8C319.14,-76.2 330.52,-36.58 335.52,-19.16"/>
<polygon fill="#63b8ff" stroke="#63b8ff" points="308.93,-99.08 309.54,-109.66 315.66,-101.02 308.93,-99.08"/>
</a>
</g>
</g>
<!-- Node7&#45;&gt;Node8 -->
<g id="edge10_Node000007_Node000008" class="edge">
<title>Node7&#45;&gt;Node8</title>
<g id="a_edge10_Node000007_Node000008"><a xlink:title=" ">
<path fill="none" stroke="#63b8ff" d="M324.47,-103.32C335.34,-93.87 348.94,-82.06 358.02,-74.17"/>
<polygon fill="#63b8ff" stroke="#63b8ff" points="322.05,-100.78 316.8,-109.98 326.65,-106.07 322.05,-100.78"/>
</a>
</g>
</g>
<!-- Node8&#45;&gt;Node2 -->
<g id="edge11_Node000008_Node000002" class="edge">
<title>Node8&#45;&gt;Node2</title>
<g id="a_edge11_Node000008_Node000002"><a xlink:title=" ">
<path fill="none" stroke="#63b8ff" d="M357.99,-45.82C352.9,-36.82 346.94,-26.29 342.86,-19.09"/>
<polygon fill="#63b8ff" stroke="#63b8ff" points="355.08,-47.77 363.05,-54.75 361.17,-44.32 355.08,-47.77"/>
</a>
</g>
</g>
<!-- Node9&#45;&gt;Node4 -->
<g id="edge15_Node000009_Node000004" class="edge">
<title>Node9&#45;&gt;Node4</title>
<g id="a_edge15_Node000009_Node000004"><a xlink:title=" ">
<path fill="none" stroke="#63b8ff" d="M169.73,-161.16C145.67,-151.35 112.6,-137.87 91.27,-129.17"/>
<polygon fill="#63b8ff" stroke="#63b8ff" points="168.53,-164.45 179.11,-164.98 171.18,-157.97 168.53,-164.45"/>
</a>
</g>
</g>
<!-- Node9&#45;&gt;Node5 -->
<g id="edge16_Node000009_Node000005" class="edge">
<title>Node9&#45;&gt;Node5</title>
<g id="a_edge16_Node000009_Node000005"><a xlink:title=" ">
<path fill="none" stroke="#63b8ff" d="M197.51,-154.66C196.36,-145.93 195.05,-135.99 194.14,-129.09"/>
<polygon fill="#63b8ff" stroke="#63b8ff" points="194.07,-155.29 198.85,-164.75 201.01,-154.38 194.07,-155.29"/>
</a>
</g>
</g>
<!-- Node9&#45;&gt;Node7 -->
<g id="edge14_Node000009_Node000007" class="edge">
<title>Node9&#45;&gt;Node7</title>
<g id="a_edge14_Node000009_Node000007"><a xlink:title=" ">
<path fill="none" stroke="#63b8ff" d="M226.25,-160.5C245.93,-150.75 272.33,-137.68 289.5,-129.17"/>
<polygon fill="#63b8ff" stroke="#63b8ff" points="224.6,-157.41 217.19,-164.98 227.71,-163.68 224.6,-157.41"/>
</a>
</g>
</g>
<!-- Node10&#45;&gt;Node2 -->
<g id="edge18_Node000010_Node000002" class="edge">
<title>Node10&#45;&gt;Node2</title>
<g id="a_edge18_Node000010_Node000002"><a xlink:title=" ">
<path fill="none" stroke="#63b8ff" d="M442.97,-154.87C439.43,-129.89 430.14,-85.18 407,-55 394.42,-38.6 373.96,-26.5 358.57,-19.09"/>
<polygon fill="#63b8ff" stroke="#63b8ff" points="439.5,-155.36 444.22,-164.84 446.45,-154.48 439.5,-155.36"/>
</a>
</g>
</g>
<!-- Node10&#45;&gt;Node4 -->
<g id="edge22_Node000010_Node000004" class="edge">
<title>Node10&#45;&gt;Node4</title>
<g id="a_edge22_Node000010_Node000004"><a xlink:title=" ">
<path fill="none" stroke="#63b8ff" d="M408.04,-168.72C347.99,-160.87 225.5,-144.59 122,-129 119.29,-128.59 116.5,-128.16 113.68,-127.72"/>
<polygon fill="#63b8ff" stroke="#63b8ff" points="407.8,-172.21 418.17,-170.04 408.71,-165.27 407.8,-172.21"/>
</a>
</g>
</g>
<!-- Node10&#45;&gt;Node5 -->
<g id="edge23_Node000010_Node000005" class="edge">
<title>Node10&#45;&gt;Node5</title>
<g id="a_edge23_Node000010_Node000005"><a xlink:title=" ">
<path fill="none" stroke="#63b8ff" d="M408.06,-165.73C361.46,-155.93 281.62,-139.14 233.43,-129"/>
<polygon fill="#63b8ff" stroke="#63b8ff" points="407.53,-169.19 418.03,-167.83 408.97,-162.34 407.53,-169.19"/>
</a>
</g>
</g>
<!-- Node10&#45;&gt;Node7 -->
<g id="edge19_Node000010_Node000007" class="edge">
<title>Node10&#45;&gt;Node7</title>
<g id="a_edge19_Node000010_Node000007"><a xlink:title=" ">
<path fill="none" stroke="#63b8ff" d="M413.21,-161.29C387.63,-151.47 352.33,-137.91 329.58,-129.17"/>
<polygon fill="#63b8ff" stroke="#63b8ff" points="412.24,-164.67 422.83,-164.98 414.75,-158.13 412.24,-164.67"/>
</a>
</g>
</g>
<!-- Node10&#45;&gt;Node8 -->
<g id="edge26_Node000010_Node000008" class="edge">
<title>Node10&#45;&gt;Node8</title>
<g id="a_edge26_Node000010_Node000008"><a xlink:title=" ">
<path fill="none" stroke="#63b8ff" d="M432.8,-156.38C416.13,-133.01 386.87,-91.97 374.17,-74.16"/>
<polygon fill="#63b8ff" stroke="#63b8ff" points="430.04,-158.55 438.7,-164.66 435.74,-154.49 430.04,-158.55"/>
</a>
</g>
</g>
<!-- Node10&#45;&gt;Node11 -->
<g id="edge20_Node000010_Node000011" class="edge">
<title>Node10&#45;&gt;Node11</title>
<g id="a_edge20_Node000010_Node000011"><a xlink:title=" ">
<path fill="none" stroke="#63b8ff" d="M466.25,-159.42C480.77,-149.81 499.54,-137.37 511.91,-129.17"/>
<polygon fill="#63b8ff" stroke="#63b8ff" points="464.26,-156.54 457.85,-164.98 468.12,-162.38 464.26,-156.54"/>
</a>
</g>
</g>
<!-- Node10&#45;&gt;Node12 -->
<g id="edge24_Node000010_Node000012" class="edge">
<title>Node10&#45;&gt;Node12</title>
<g id="a_edge24_Node000010_Node000012"><a xlink:title=" ">
<path fill="none" stroke="#63b8ff" d="M481.73,-164.45C521.97,-154.53 586.01,-138.74 625.39,-129.03"/>
<polygon fill="#63b8ff" stroke="#63b8ff" points="480.67,-161.1 471.8,-166.89 482.34,-167.9 480.67,-161.1"/>
</a>
</g>
</g>
<!-- Node11&#45;&gt;Node2 -->
<g id="edge21_Node000011_Node000002" class="edge">
<title>Node11&#45;&gt;Node2</title>
<g id="a_edge21_Node000011_Node000002"><a xlink:title=" ">
<path fill="none" stroke="#63b8ff" d="M511.41,-102.03C499.01,-87.9 479.54,-67.85 459,-55 428.46,-35.88 388.47,-23.21 363,-16.44"/>
<polygon fill="#63b8ff" stroke="#63b8ff" points="509.01,-104.61 518.16,-109.94 514.33,-100.06 509.01,-104.61"/>
</a>
</g>
</g>
<!-- Node12&#45;&gt;Node2 -->
<g id="edge25_Node000012_Node000002" class="edge">
<title>Node12&#45;&gt;Node2</title>
<g id="a_edge25_Node000012_Node000002"><a xlink:title=" ">
<path fill="none" stroke="#63b8ff" d="M627.62,-106.26C592.44,-93.1 534.5,-71.79 484,-55 441.88,-40.99 392.38,-26.27 363.18,-17.76"/>
<polygon fill="#63b8ff" stroke="#63b8ff" points="626.75,-109.68 637.35,-109.91 629.21,-103.12 626.75,-109.68"/>
</a>
</g>
</g>
</g>
</svg>

<g id="navigator" transform="translate(0 0)" fill="#404254">
  <rect fill="#f2f5e9" fill-opacity="0.5" stroke="#606060" stroke-width=".5" x="0" y="0" width="60" height="60"/>
  <use id="zoomplus" xlink:href="#zoomPlus" x="17" y="9" onmousedown="handleZoom(evt,'in')"/>
  <use id="zoomminus" xlink:href="#zoomMin" x="42" y="9" onmousedown="handleZoom(evt,'out')"/>
  <use id="reset" xlink:href="#resetDef" x="30" y="36" onmousedown="handleReset()"/>
   <use id="arrowup" xlink:href="#arrowUp" x="0" y="0" onmousedown="handlePan(0,-1)"/>
  <use id="arrowright" xlink:href="#arrowRight" x="0" y="0" onmousedown="handlePan(1,0)"/>
  <use id="arrowdown" xlink:href="#arrowDown" x="0" y="0" onmousedown="handlePan(0,1)"/>
  <use id="arrowleft" xlink:href="#arrowLeft" x="0" y="0" onmousedown="handlePan(-1,0)"/>
</g>
<svg viewBox="0 0 15 15" width="100%" height="30px" preserveAspectRatio="xMaxYMin meet">
 <g id="arrow_out" transform="scale(0.3 0.3)">
  <a xlink:href="exceptions_8hpp__dep__incl_org.svg" target="_base">
   <rect id="button" ry="5" rx="5" y="6" x="6" height="38" width="38"
        fill="#f2f5e9" fill-opacity="0.5" stroke="#606060" stroke-width="1.0"/>
   <path id="arrow"
     d="M 11.500037,31.436501 C 11.940474,20.09759 22.043105,11.32322 32.158766,21.979434 L 37.068811,17.246167 C 37.068811,17.246167 37.088388,32 37.088388,32 L 22.160133,31.978069 C 22.160133,31.978069 26.997745,27.140456 26.997745,27.140456 C 18.528582,18.264221 13.291696,25.230495 11.500037,31.436501 z"
     style="fill:#404040;"/>
  </a>
 </g>
</svg>

<style type='text/css'>
<![CDATA[
[data-mouse-over-selected='false'] { opacity: 0.7; }
[data-mouse-over-selected='true']  { opacity: 1.0; }
]]>
</style>
<script type="application/ecmascript"><![CDATA[
document.addEventListener('DOMContentLoaded', (event) => {
  highlightEdges();
  highlightAdjacentNodes();
});
]]></script>
</svg>
