<?xml version="1.0" encoding="UTF-8" standalone="no"?>
<!DOCTYPE svg PUBLIC "-//W3C//DTD SVG 1.1//EN"
 "http://www.w3.org/Graphics/SVG/1.1/DTD/svg11.dtd">
<!-- Generated by graphviz version 2.38.0 (20140413.2041)
 -->
<!-- Title: format.hpp Pages: 1 -->
<svg width="462pt" height="196pt"
 viewBox="0.00 0.00 462.00 196.00" xmlns="http://www.w3.org/2000/svg" xmlns:xlink="http://www.w3.org/1999/xlink">
<g id="graph0" class="graph" transform="scale(1 1) rotate(0) translate(4 192)">
<title>format.hpp</title>
<!-- Node1 -->
<g id="node1" class="node"><title>Node1</title>
<polygon fill="#bfbfbf" stroke="black" points="239.5,-168.5 239.5,-187.5 302.5,-187.5 302.5,-168.5 239.5,-168.5"/>
<text text-anchor="middle" x="271" y="-175.5" font-family="Helvetica,sans-Serif" font-size="10.00">format.hpp</text>
</g>
<!-- Node2 -->
<g id="node2" class="node"><title>Node2</title>
<g id="a_node2"><a xlink:href="parser__info_8hpp.html" target="_top" xlink:title="parser_info.hpp">
<polygon fill="none" stroke="black" points="57.5,-112.5 57.5,-131.5 140.5,-131.5 140.5,-112.5 57.5,-112.5"/>
<text text-anchor="middle" x="99" y="-119.5" font-family="Helvetica,sans-Serif" font-size="10.00">parser_info.hpp</text>
</a>
</g>
</g>
<!-- Node1&#45;&gt;Node2 -->
<g id="edge1" class="edge"><title>Node1&#45;&gt;Node2</title>
<path fill="none" stroke="midnightblue" d="M243.746,-168.444C214.559,-159.28 168.079,-144.688 135.691,-134.519"/>
<polygon fill="midnightblue" stroke="midnightblue" points="136.716,-131.173 126.126,-131.516 134.619,-137.851 136.716,-131.173"/>
</g>
<!-- Node3 -->
<g id="node3" class="node"><title>Node3</title>
<g id="a_node3"><a xlink:href="types_8hpp.html" target="_top" xlink:title="types.hpp">
<polygon fill="none" stroke="black" points="168.5,-56.5 168.5,-75.5 227.5,-75.5 227.5,-56.5 168.5,-56.5"/>
<text text-anchor="middle" x="198" y="-63.5" font-family="Helvetica,sans-Serif" font-size="10.00">types.hpp</text>
</a>
</g>
</g>
<!-- Node1&#45;&gt;Node3 -->
<g id="edge14" class="edge"><title>Node1&#45;&gt;Node3</title>
<path fill="none" stroke="midnightblue" d="M239.235,-168.64C220.79,-161.974 199.068,-150.591 188,-132 179.529,-117.772 183.866,-98.8029 189.217,-85.0314"/>
<polygon fill="midnightblue" stroke="midnightblue" points="192.508,-86.2423 193.312,-75.678 186.095,-83.4351 192.508,-86.2423"/>
</g>
<!-- Node8 -->
<g id="node8" class="node"><title>Node8</title>
<polygon fill="none" stroke="#bfbfbf" points="361,-0.5 361,-19.5 411,-19.5 411,-0.5 361,-0.5"/>
<text text-anchor="middle" x="386" y="-7.5" font-family="Helvetica,sans-Serif" font-size="10.00">QString</text>
</g>
<!-- Node1&#45;&gt;Node8 -->
<g id="edge16" class="edge"><title>Node1&#45;&gt;Node8</title>
<path fill="none" stroke="midnightblue" d="M302.738,-170.348C324.266,-164.133 351.526,-152.606 367,-132 389.589,-101.919 390.031,-55.6306 388.148,-29.8993"/>
<polygon fill="midnightblue" stroke="midnightblue" points="391.607,-29.2863 387.191,-19.6555 384.637,-29.9379 391.607,-29.2863"/>
</g>
<!-- Node10 -->
<g id="node10" class="node"><title>Node10</title>
<g id="a_node10"><a xlink:href="exceptions_8hpp.html" target="_top" xlink:title="exceptions.hpp">
<polygon fill="none" stroke="black" points="274.5,-112.5 274.5,-131.5 357.5,-131.5 357.5,-112.5 274.5,-112.5"/>
<text text-anchor="middle" x="316" y="-119.5" font-family="Helvetica,sans-Serif" font-size="10.00">exceptions.hpp</text>
</a>
</g>
</g>
<!-- Node1&#45;&gt;Node10 -->
<g id="edge9" class="edge"><title>Node1&#45;&gt;Node10</title>
<path fill="none" stroke="midnightblue" d="M278.431,-168.083C284.853,-160.377 294.306,-149.033 302.122,-139.653"/>
<polygon fill="midnightblue" stroke="midnightblue" points="304.994,-141.674 308.707,-131.751 299.617,-137.193 304.994,-141.674"/>
</g>
<!-- Node12 -->
<g id="node12" class="node"><title>Node12</title>
<g id="a_node12"><a xlink:href="const_8hpp.html" target="_top" xlink:title="const.hpp">
<polygon fill="none" stroke="black" points="197.5,-112.5 197.5,-131.5 256.5,-131.5 256.5,-112.5 197.5,-112.5"/>
<text text-anchor="middle" x="227" y="-119.5" font-family="Helvetica,sans-Serif" font-size="10.00">const.hpp</text>
</a>
</g>
</g>
<!-- Node1&#45;&gt;Node12 -->
<g id="edge12" class="edge"><title>Node1&#45;&gt;Node12</title>
<path fill="none" stroke="midnightblue" d="M263.734,-168.083C257.455,-160.377 248.212,-149.033 240.569,-139.653"/>
<polygon fill="midnightblue" stroke="midnightblue" points="243.161,-137.293 234.131,-131.751 237.734,-141.714 243.161,-137.293"/>
</g>
<!-- Node13 -->
<g id="node13" class="node"><title>Node13</title>
<polygon fill="none" stroke="#bfbfbf" points="414,-112.5 414,-131.5 454,-131.5 454,-112.5 414,-112.5"/>
<text text-anchor="middle" x="434" y="-119.5" font-family="Helvetica,sans-Serif" font-size="10.00">limits</text>
</g>
<!-- Node1&#45;&gt;Node13 -->
<g id="edge15" class="edge"><title>Node1&#45;&gt;Node13</title>
<path fill="none" stroke="midnightblue" d="M296.828,-168.444C326.024,-158.771 373.478,-143.05 404.213,-132.868"/>
<polygon fill="midnightblue" stroke="midnightblue" points="405.553,-136.111 413.945,-129.644 403.352,-129.466 405.553,-136.111"/>
</g>
<!-- Node2&#45;&gt;Node3 -->
<g id="edge2" class="edge"><title>Node2&#45;&gt;Node3</title>
<path fill="none" stroke="midnightblue" d="M114.906,-112.324C130.638,-103.743 154.942,-90.486 173.209,-80.5224"/>
<polygon fill="midnightblue" stroke="midnightblue" points="175.03,-83.5157 182.133,-75.6545 171.678,-77.3704 175.03,-83.5157"/>
</g>
<!-- Node4 -->
<g id="node4" class="node"><title>Node4</title>
<polygon fill="none" stroke="#bfbfbf" points="301.5,-0.5 301.5,-19.5 342.5,-19.5 342.5,-0.5 301.5,-0.5"/>
<text text-anchor="middle" x="322" y="-7.5" font-family="Helvetica,sans-Serif" font-size="10.00">string</text>
</g>
<!-- Node3&#45;&gt;Node4 -->
<g id="edge3" class="edge"><title>Node3&#45;&gt;Node4</title>
<path fill="none" stroke="midnightblue" d="M217.648,-56.4435C237.965,-47.5961 269.903,-33.6875 293.098,-23.5865"/>
<polygon fill="midnightblue" stroke="midnightblue" points="294.673,-26.7181 302.444,-19.5164 291.878,-20.3002 294.673,-26.7181"/>
</g>
<!-- Node5 -->
<g id="node5" class="node"><title>Node5</title>
<polygon fill="none" stroke="#bfbfbf" points="0,-0.5 0,-19.5 54,-19.5 54,-0.5 0,-0.5"/>
<text text-anchor="middle" x="27" y="-7.5" font-family="Helvetica,sans-Serif" font-size="10.00">iostream</text>
</g>
<!-- Node3&#45;&gt;Node5 -->
<g id="edge4" class="edge"><title>Node3&#45;&gt;Node5</title>
<path fill="none" stroke="midnightblue" d="M170.905,-56.4435C142.012,-47.3196 96.0753,-32.8133 63.8946,-22.6509"/>
<polygon fill="midnightblue" stroke="midnightblue" points="64.5585,-19.1903 53.9687,-19.5164 62.4505,-25.8654 64.5585,-19.1903"/>
</g>
<!-- Node6 -->
<g id="node6" class="node"><title>Node6</title>
<polygon fill="none" stroke="#bfbfbf" points="72.5,-0.5 72.5,-19.5 125.5,-19.5 125.5,-0.5 72.5,-0.5"/>
<text text-anchor="middle" x="99" y="-7.5" font-family="Helvetica,sans-Serif" font-size="10.00">cwctype</text>
</g>
<!-- Node3&#45;&gt;Node6 -->
<g id="edge5" class="edge"><title>Node3&#45;&gt;Node6</title>
<path fill="none" stroke="midnightblue" d="M182.094,-56.324C166.362,-47.7428 142.058,-34.486 123.791,-24.5224"/>
<polygon fill="midnightblue" stroke="midnightblue" points="125.322,-21.3704 114.867,-19.6545 121.97,-27.5157 125.322,-21.3704"/>
</g>
<!-- Node7 -->
<g id="node7" class="node"><title>Node7</title>
<polygon fill="none" stroke="#bfbfbf" points="144,-0.5 144,-19.5 190,-19.5 190,-0.5 144,-0.5"/>
<text text-anchor="middle" x="167" y="-7.5" font-family="Helvetica,sans-Serif" font-size="10.00">cctype</text>
</g>
<!-- Node3&#45;&gt;Node7 -->
<g id="edge6" class="edge"><title>Node3&#45;&gt;Node7</title>
<path fill="none" stroke="midnightblue" d="M192.881,-56.083C188.592,-48.6127 182.342,-37.7244 177.058,-28.5199"/>
<polygon fill="midnightblue" stroke="midnightblue" points="180.038,-26.6811 172.024,-19.7511 173.967,-30.1662 180.038,-26.6811"/>
</g>
<!-- Node3&#45;&gt;Node8 -->
<g id="edge7" class="edge"><title>Node3&#45;&gt;Node8</title>
<path fill="none" stroke="midnightblue" d="M227.789,-56.4435C261.243,-46.8346 315.48,-31.2558 350.946,-21.0686"/>
<polygon fill="midnightblue" stroke="midnightblue" points="352.218,-24.3451 360.863,-18.2203 350.285,-17.6171 352.218,-24.3451"/>
</g>
<!-- Node9 -->
<g id="node9" class="node"><title>Node9</title>
<polygon fill="none" stroke="#bfbfbf" points="208.5,-0.5 208.5,-19.5 283.5,-19.5 283.5,-0.5 208.5,-0.5"/>
<text text-anchor="middle" x="246" y="-7.5" font-family="Helvetica,sans-Serif" font-size="10.00">QTextStream</text>
</g>
<!-- Node3&#45;&gt;Node9 -->
<g id="edge8" class="edge"><title>Node3&#45;&gt;Node9</title>
<path fill="none" stroke="midnightblue" d="M205.926,-56.083C212.846,-48.2982 223.065,-36.8015 231.452,-27.3665"/>
<polygon fill="midnightblue" stroke="midnightblue" points="234.194,-29.5505 238.221,-19.7511 228.962,-24.8999 234.194,-29.5505"/>
</g>
<!-- Node10&#45;&gt;Node3 -->
<g id="edge11" class="edge"><title>Node10&#45;&gt;Node3</title>
<path fill="none" stroke="midnightblue" d="M297.303,-112.444C278.056,-103.636 247.848,-89.8116 225.8,-79.722"/>
<polygon fill="midnightblue" stroke="midnightblue" points="227.16,-76.4951 216.61,-75.5164 224.247,-82.8603 227.16,-76.4951"/>
</g>
<!-- Node11 -->
<g id="node11" class="node"><title>Node11</title>
<polygon fill="none" stroke="#bfbfbf" points="286.5,-56.5 286.5,-75.5 345.5,-75.5 345.5,-56.5 286.5,-56.5"/>
<text text-anchor="middle" x="316" y="-63.5" font-family="Helvetica,sans-Serif" font-size="10.00">stdexcept</text>
</g>
<!-- Node10&#45;&gt;Node11 -->
<g id="edge10" class="edge"><title>Node10&#45;&gt;Node11</title>
<path fill="none" stroke="midnightblue" d="M316,-112.083C316,-105.006 316,-94.8611 316,-85.9865"/>
<polygon fill="midnightblue" stroke="midnightblue" points="319.5,-85.751 316,-75.7511 312.5,-85.7511 319.5,-85.751"/>
</g>
<!-- Node12&#45;&gt;Node3 -->
<g id="edge13" class="edge"><title>Node12&#45;&gt;Node3</title>
<path fill="none" stroke="midnightblue" d="M222.211,-112.083C218.242,-104.691 212.475,-93.9533 207.565,-84.8111"/>
<polygon fill="midnightblue" stroke="midnightblue" points="210.514,-82.9051 202.7,-75.7511 204.347,-86.217 210.514,-82.9051"/>
</g>
</g>
</svg>
