<?xml version="1.0" encoding="UTF-8" standalone="no"?>
<!DOCTYPE svg PUBLIC "-//W3C//DTD SVG 1.1//EN"
 "http://www.w3.org/Graphics/SVG/1.1/DTD/svg11.dtd">
<!-- Generated by graphviz version 2.38.0 (20140413.2041)
 -->
<!-- Title: format.hpp Pages: 1 -->
<svg width="220pt" height="140pt"
 viewBox="0.00 0.00 219.50 140.00" xmlns="http://www.w3.org/2000/svg" xmlns:xlink="http://www.w3.org/1999/xlink">
<g id="graph0" class="graph" transform="scale(1 1) rotate(0) translate(4 136)">
<title>format.hpp</title>
<!-- Node1 -->
<g id="node1" class="node"><title>Node1</title>
<polygon fill="#bfbfbf" stroke="black" points="65.5,-112.5 65.5,-131.5 128.5,-131.5 128.5,-112.5 65.5,-112.5"/>
<text text-anchor="middle" x="97" y="-119.5" font-family="Helvetica,sans-Serif" font-size="10.00">format.hpp</text>
</g>
<!-- Node2 -->
<g id="node2" class="node"><title>Node2</title>
<g id="a_node2"><a xlink:href="tag__scalar_8hpp.html" target="_top" xlink:title="tag_scalar.hpp">
<polygon fill="none" stroke="black" points="0,-56.5 0,-75.5 80,-75.5 80,-56.5 0,-56.5"/>
<text text-anchor="middle" x="40" y="-63.5" font-family="Helvetica,sans-Serif" font-size="10.00">tag_scalar.hpp</text>
</a>
</g>
</g>
<!-- Node1&#45;&gt;Node2 -->
<g id="edge1" class="edge"><title>Node1&#45;&gt;Node2</title>
<path fill="none" stroke="midnightblue" d="M80.3785,-105.253C70.266,-95.6731 57.7234,-83.7906 49.3247,-75.8339"/>
<polygon fill="midnightblue" stroke="midnightblue" points="78.1753,-107.987 87.842,-112.324 82.9895,-102.906 78.1753,-107.987"/>
</g>
<!-- Node4 -->
<g id="node4" class="node"><title>Node4</title>
<g id="a_node4"><a xlink:href="tag__scalar__vector_8hpp.html" target="_top" xlink:title="tag_scalar_vector.hpp">
<polygon fill="none" stroke="black" points="98.5,-56.5 98.5,-75.5 211.5,-75.5 211.5,-56.5 98.5,-56.5"/>
<text text-anchor="middle" x="155" y="-63.5" font-family="Helvetica,sans-Serif" font-size="10.00">tag_scalar_vector.hpp</text>
</a>
</g>
</g>
<!-- Node1&#45;&gt;Node4 -->
<g id="edge3" class="edge"><title>Node1&#45;&gt;Node4</title>
<path fill="none" stroke="midnightblue" d="M113.913,-105.253C124.203,-95.6731 136.966,-83.7906 145.512,-75.8339"/>
<polygon fill="midnightblue" stroke="midnightblue" points="111.253,-102.948 106.319,-112.324 116.023,-108.071 111.253,-102.948"/>
</g>
<!-- Node3 -->
<g id="node3" class="node"><title>Node3</title>
<g id="a_node3"><a xlink:href="all_8hpp.html" target="_top" xlink:title="all.hpp">
<polygon fill="none" stroke="black" points="74.5,-0.5 74.5,-19.5 119.5,-19.5 119.5,-0.5 74.5,-0.5"/>
<text text-anchor="middle" x="97" y="-7.5" font-family="Helvetica,sans-Serif" font-size="10.00">all.hpp</text>
</a>
</g>
</g>
<!-- Node2&#45;&gt;Node3 -->
<g id="edge2" class="edge"><title>Node2&#45;&gt;Node3</title>
<path fill="none" stroke="midnightblue" d="M56.6215,-49.2533C66.734,-39.6731 79.2766,-27.7906 87.6753,-19.8339"/>
<polygon fill="midnightblue" stroke="midnightblue" points="54.0105,-46.9056 49.158,-56.324 58.8247,-51.9873 54.0105,-46.9056"/>
</g>
<!-- Node4&#45;&gt;Node3 -->
<g id="edge4" class="edge"><title>Node4&#45;&gt;Node3</title>
<path fill="none" stroke="midnightblue" d="M138.087,-49.2533C127.797,-39.6731 115.034,-27.7906 106.488,-19.8339"/>
<polygon fill="midnightblue" stroke="midnightblue" points="135.977,-52.0714 145.681,-56.324 140.747,-46.9481 135.977,-52.0714"/>
</g>
</g>
</svg>
