<?xml version="1.0" encoding="UTF-8" standalone="no"?>
<!DOCTYPE svg PUBLIC "-//W3C//DTD SVG 1.1//EN"
 "http://www.w3.org/Graphics/SVG/1.1/DTD/svg11.dtd">
<!-- Generated by graphviz version 2.43.0 (0)
 -->
<!-- Title: format.hpp Pages: 1 -->
<svg width="236pt" height="140pt"
 viewBox="0.00 0.00 236.00 140.00" xmlns="http://www.w3.org/2000/svg" xmlns:xlink="http://www.w3.org/1999/xlink">
<g id="graph0" class="graph" transform="scale(1 1) rotate(0) translate(4 136)">
<title>format.hpp</title>
<!-- Node1 -->
<g id="node1" class="node">
<title>Node1</title>
<g id="a_node1"><a xlink:title=" ">
<polygon fill="#bfbfbf" stroke="black" points="69,-112.5 69,-131.5 140,-131.5 140,-112.5 69,-112.5"/>
<text text-anchor="middle" x="104.5" y="-119.5" font-family="Helvetica,sans-Serif" font-size="10.00">format.hpp</text>
</a>
</g>
</g>
<!-- Node2 -->
<g id="node2" class="node">
<title>Node2</title>
<g id="a_node2"><a xlink:href="tag__scalar_8hpp.html" target="_top" xlink:title=" ">
<polygon fill="none" stroke="black" points="0,-56.5 0,-75.5 87,-75.5 87,-56.5 0,-56.5"/>
<text text-anchor="middle" x="43.5" y="-63.5" font-family="Helvetica,sans-Serif" font-size="10.00">tag_scalar.hpp</text>
</a>
</g>
</g>
<!-- Node1&#45;&gt;Node2 -->
<g id="edge1" class="edge">
<title>Node1&#45;&gt;Node2</title>
<path fill="none" stroke="midnightblue" d="M87.03,-105.54C76.16,-95.91 62.56,-83.87 53.48,-75.83"/>
<polygon fill="midnightblue" stroke="midnightblue" points="84.89,-108.32 94.7,-112.32 89.53,-103.07 84.89,-108.32"/>
</g>
<!-- Node4 -->
<g id="node4" class="node">
<title>Node4</title>
<g id="a_node4"><a xlink:href="tag__scalar__vector_8hpp.html" target="_top" xlink:title=" ">
<polygon fill="none" stroke="black" points="105,-56.5 105,-75.5 228,-75.5 228,-56.5 105,-56.5"/>
<text text-anchor="middle" x="166.5" y="-63.5" font-family="Helvetica,sans-Serif" font-size="10.00">tag_scalar_vector.hpp</text>
</a>
</g>
</g>
<!-- Node1&#45;&gt;Node4 -->
<g id="edge3" class="edge">
<title>Node1&#45;&gt;Node4</title>
<path fill="none" stroke="midnightblue" d="M122.25,-105.54C133.31,-95.91 147.13,-83.87 156.36,-75.83"/>
<polygon fill="midnightblue" stroke="midnightblue" points="119.7,-103.12 114.46,-112.32 124.3,-108.4 119.7,-103.12"/>
</g>
<!-- Node3 -->
<g id="node3" class="node">
<title>Node3</title>
<g id="a_node3"><a xlink:href="all_8hpp.html" target="_top" xlink:title=" ">
<polygon fill="none" stroke="black" points="79.5,-0.5 79.5,-19.5 129.5,-19.5 129.5,-0.5 79.5,-0.5"/>
<text text-anchor="middle" x="104.5" y="-7.5" font-family="Helvetica,sans-Serif" font-size="10.00">all.hpp</text>
</a>
</g>
</g>
<!-- Node2&#45;&gt;Node3 -->
<g id="edge2" class="edge">
<title>Node2&#45;&gt;Node3</title>
<path fill="none" stroke="midnightblue" d="M60.97,-49.54C71.84,-39.91 85.44,-27.87 94.52,-19.83"/>
<polygon fill="midnightblue" stroke="midnightblue" points="58.47,-47.07 53.3,-56.32 63.11,-52.32 58.47,-47.07"/>
</g>
<!-- Node4&#45;&gt;Node3 -->
<g id="edge4" class="edge">
<title>Node4&#45;&gt;Node3</title>
<path fill="none" stroke="midnightblue" d="M148.75,-49.54C137.69,-39.91 123.87,-27.87 114.64,-19.83"/>
<polygon fill="midnightblue" stroke="midnightblue" points="146.7,-52.4 156.54,-56.32 151.3,-47.12 146.7,-52.4"/>
</g>
</g>
</svg>
