<?xml version="1.0" encoding="UTF-8" standalone="no"?>
<!DOCTYPE svg PUBLIC "-//W3C//DTD SVG 1.1//EN"
 "http://www.w3.org/Graphics/SVG/1.1/DTD/svg11.dtd">
<!-- Generated by graphviz version 2.43.0 (0)
 -->
<!-- Title: format.hpp Pages: 1 -->
<svg width="488pt" height="196pt"
 viewBox="0.00 0.00 488.00 196.00" xmlns="http://www.w3.org/2000/svg" xmlns:xlink="http://www.w3.org/1999/xlink">
<g id="graph0" class="graph" transform="scale(1 1) rotate(0) translate(4 192)">
<title>format.hpp</title>
<!-- Node1 -->
<g id="node1" class="node">
<title>Node1</title>
<g id="a_node1"><a xlink:title=" ">
<polygon fill="#bfbfbf" stroke="black" points="250.5,-168.5 250.5,-187.5 321.5,-187.5 321.5,-168.5 250.5,-168.5"/>
<text text-anchor="middle" x="286" y="-175.5" font-family="Helvetica,sans-Serif" font-size="10.00">format.hpp</text>
</a>
</g>
</g>
<!-- Node2 -->
<g id="node2" class="node">
<title>Node2</title>
<g id="a_node2"><a xlink:href="parser__info_8hpp.html" target="_top" xlink:title=" ">
<polygon fill="none" stroke="black" points="58,-112.5 58,-131.5 150,-131.5 150,-112.5 58,-112.5"/>
<text text-anchor="middle" x="104" y="-119.5" font-family="Helvetica,sans-Serif" font-size="10.00">parser_info.hpp</text>
</a>
</g>
</g>
<!-- Node1&#45;&gt;Node2 -->
<g id="edge1" class="edge">
<title>Node1&#45;&gt;Node2</title>
<path fill="none" stroke="midnightblue" d="M257.16,-168.44C226.14,-159.24 176.67,-144.56 142.38,-134.39"/>
<polygon fill="midnightblue" stroke="midnightblue" points="143.29,-131.01 132.7,-131.52 141.29,-137.72 143.29,-131.01"/>
</g>
<!-- Node3 -->
<g id="node3" class="node">
<title>Node3</title>
<g id="a_node3"><a xlink:href="types_8hpp.html" target="_top" xlink:title=" ">
<polygon fill="none" stroke="black" points="175.5,-56.5 175.5,-75.5 240.5,-75.5 240.5,-56.5 175.5,-56.5"/>
<text text-anchor="middle" x="208" y="-63.5" font-family="Helvetica,sans-Serif" font-size="10.00">types.hpp</text>
</a>
</g>
</g>
<!-- Node1&#45;&gt;Node3 -->
<g id="edge14" class="edge">
<title>Node1&#45;&gt;Node3</title>
<path fill="none" stroke="midnightblue" d="M250.21,-168.66C230.86,-162.13 208.61,-150.88 197,-132 188.31,-117.86 192.99,-98.88 198.69,-85.08"/>
<polygon fill="midnightblue" stroke="midnightblue" points="202.01,-86.25 203.04,-75.71 195.66,-83.3 202.01,-86.25"/>
</g>
<!-- Node8 -->
<g id="node8" class="node">
<title>Node8</title>
<g id="a_node8"><a xlink:title=" ">
<polygon fill="none" stroke="#bfbfbf" points="381.5,-0.5 381.5,-19.5 434.5,-19.5 434.5,-0.5 381.5,-0.5"/>
<text text-anchor="middle" x="408" y="-7.5" font-family="Helvetica,sans-Serif" font-size="10.00">QString</text>
</a>
</g>
</g>
<!-- Node1&#45;&gt;Node8 -->
<g id="edge16" class="edge">
<title>Node1&#45;&gt;Node8</title>
<path fill="none" stroke="midnightblue" d="M321.99,-170.46C344.73,-164.4 372.78,-153.01 389,-132 411.98,-102.22 412.28,-55.82 410.26,-29.99"/>
<polygon fill="midnightblue" stroke="midnightblue" points="413.71,-29.31 409.25,-19.7 406.75,-29.99 413.71,-29.31"/>
</g>
<!-- Node10 -->
<g id="node10" class="node">
<title>Node10</title>
<g id="a_node10"><a xlink:href="exceptions_8hpp.html" target="_top" xlink:title=" ">
<polygon fill="none" stroke="black" points="288.5,-112.5 288.5,-131.5 379.5,-131.5 379.5,-112.5 288.5,-112.5"/>
<text text-anchor="middle" x="334" y="-119.5" font-family="Helvetica,sans-Serif" font-size="10.00">exceptions.hpp</text>
</a>
</g>
</g>
<!-- Node1&#45;&gt;Node10 -->
<g id="edge9" class="edge">
<title>Node1&#45;&gt;Node10</title>
<path fill="none" stroke="midnightblue" d="M293.93,-168.08C300.85,-160.3 311.07,-148.8 319.45,-139.37"/>
<polygon fill="midnightblue" stroke="midnightblue" points="322.19,-141.55 326.22,-131.75 316.96,-136.9 322.19,-141.55"/>
</g>
<!-- Node12 -->
<g id="node12" class="node">
<title>Node12</title>
<g id="a_node12"><a xlink:href="const_8hpp.html" target="_top" xlink:title=" ">
<polygon fill="none" stroke="black" points="206,-112.5 206,-131.5 270,-131.5 270,-112.5 206,-112.5"/>
<text text-anchor="middle" x="238" y="-119.5" font-family="Helvetica,sans-Serif" font-size="10.00">const.hpp</text>
</a>
</g>
</g>
<!-- Node1&#45;&gt;Node12 -->
<g id="edge12" class="edge">
<title>Node1&#45;&gt;Node12</title>
<path fill="none" stroke="midnightblue" d="M278.07,-168.08C271.15,-160.3 260.93,-148.8 252.55,-139.37"/>
<polygon fill="midnightblue" stroke="midnightblue" points="255.04,-136.9 245.78,-131.75 249.81,-141.55 255.04,-136.9"/>
</g>
<!-- Node13 -->
<g id="node13" class="node">
<title>Node13</title>
<g id="a_node13"><a xlink:title=" ">
<polygon fill="none" stroke="#bfbfbf" points="436,-112.5 436,-131.5 480,-131.5 480,-112.5 436,-112.5"/>
<text text-anchor="middle" x="458" y="-119.5" font-family="Helvetica,sans-Serif" font-size="10.00">limits</text>
</a>
</g>
</g>
<!-- Node1&#45;&gt;Node13 -->
<g id="edge15" class="edge">
<title>Node1&#45;&gt;Node13</title>
<path fill="none" stroke="midnightblue" d="M313.25,-168.44C343.85,-158.84 393.46,-143.26 425.91,-133.07"/>
<polygon fill="midnightblue" stroke="midnightblue" points="427.3,-136.31 435.8,-129.97 425.21,-129.63 427.3,-136.31"/>
</g>
<!-- Node2&#45;&gt;Node3 -->
<g id="edge2" class="edge">
<title>Node2&#45;&gt;Node3</title>
<path fill="none" stroke="midnightblue" d="M120.71,-112.32C137.31,-103.7 163,-90.36 182.22,-80.39"/>
<polygon fill="midnightblue" stroke="midnightblue" points="184.07,-83.37 191.33,-75.65 180.84,-77.16 184.07,-83.37"/>
</g>
<!-- Node4 -->
<g id="node4" class="node">
<title>Node4</title>
<g id="a_node4"><a xlink:title=" ">
<polygon fill="none" stroke="#bfbfbf" points="319,-0.5 319,-19.5 363,-19.5 363,-0.5 319,-0.5"/>
<text text-anchor="middle" x="341" y="-7.5" font-family="Helvetica,sans-Serif" font-size="10.00">string</text>
</a>
</g>
</g>
<!-- Node3&#45;&gt;Node4 -->
<g id="edge3" class="edge">
<title>Node3&#45;&gt;Node4</title>
<path fill="none" stroke="midnightblue" d="M229.07,-56.44C251.06,-47.52 285.73,-33.44 310.66,-23.32"/>
<polygon fill="midnightblue" stroke="midnightblue" points="312.08,-26.52 320.02,-19.52 309.44,-20.04 312.08,-26.52"/>
</g>
<!-- Node5 -->
<g id="node5" class="node">
<title>Node5</title>
<g id="a_node5"><a xlink:title=" ">
<polygon fill="none" stroke="#bfbfbf" points="0,-0.5 0,-19.5 60,-19.5 60,-0.5 0,-0.5"/>
<text text-anchor="middle" x="30" y="-7.5" font-family="Helvetica,sans-Serif" font-size="10.00">iostream</text>
</a>
</g>
</g>
<!-- Node3&#45;&gt;Node5 -->
<g id="edge4" class="edge">
<title>Node3&#45;&gt;Node5</title>
<path fill="none" stroke="midnightblue" d="M179.8,-56.44C149.59,-47.28 101.49,-32.69 67.97,-22.52"/>
<polygon fill="midnightblue" stroke="midnightblue" points="68.66,-19.07 58.07,-19.52 66.63,-25.77 68.66,-19.07"/>
</g>
<!-- Node6 -->
<g id="node6" class="node">
<title>Node6</title>
<g id="a_node6"><a xlink:title=" ">
<polygon fill="none" stroke="#bfbfbf" points="78.5,-0.5 78.5,-19.5 135.5,-19.5 135.5,-0.5 78.5,-0.5"/>
<text text-anchor="middle" x="107" y="-7.5" font-family="Helvetica,sans-Serif" font-size="10.00">cwctype</text>
</a>
</g>
</g>
<!-- Node3&#45;&gt;Node6 -->
<g id="edge5" class="edge">
<title>Node3&#45;&gt;Node6</title>
<path fill="none" stroke="midnightblue" d="M191.77,-56.32C175.65,-47.7 150.7,-34.36 132.04,-24.39"/>
<polygon fill="midnightblue" stroke="midnightblue" points="133.66,-21.28 123.19,-19.65 130.36,-27.46 133.66,-21.28"/>
</g>
<!-- Node7 -->
<g id="node7" class="node">
<title>Node7</title>
<g id="a_node7"><a xlink:title=" ">
<polygon fill="none" stroke="#bfbfbf" points="153.5,-0.5 153.5,-19.5 202.5,-19.5 202.5,-0.5 153.5,-0.5"/>
<text text-anchor="middle" x="178" y="-7.5" font-family="Helvetica,sans-Serif" font-size="10.00">cctype</text>
</a>
</g>
</g>
<!-- Node3&#45;&gt;Node7 -->
<g id="edge6" class="edge">
<title>Node3&#45;&gt;Node7</title>
<path fill="none" stroke="midnightblue" d="M203.05,-56.08C198.9,-48.61 192.85,-37.72 187.73,-28.52"/>
<polygon fill="midnightblue" stroke="midnightblue" points="190.78,-26.79 182.86,-19.75 184.66,-30.19 190.78,-26.79"/>
</g>
<!-- Node3&#45;&gt;Node8 -->
<g id="edge7" class="edge">
<title>Node3&#45;&gt;Node8</title>
<path fill="none" stroke="midnightblue" d="M239.69,-56.44C275.43,-46.79 333.47,-31.12 371.19,-20.94"/>
<polygon fill="midnightblue" stroke="midnightblue" points="372.52,-24.21 381.26,-18.22 370.69,-17.45 372.52,-24.21"/>
</g>
<!-- Node9 -->
<g id="node9" class="node">
<title>Node9</title>
<g id="a_node9"><a xlink:title=" ">
<polygon fill="none" stroke="#bfbfbf" points="221,-0.5 221,-19.5 301,-19.5 301,-0.5 221,-0.5"/>
<text text-anchor="middle" x="261" y="-7.5" font-family="Helvetica,sans-Serif" font-size="10.00">QTextStream</text>
</a>
</g>
</g>
<!-- Node3&#45;&gt;Node9 -->
<g id="edge8" class="edge">
<title>Node3&#45;&gt;Node9</title>
<path fill="none" stroke="midnightblue" d="M216.75,-56.08C224.47,-48.22 235.9,-36.57 245.22,-27.08"/>
<polygon fill="midnightblue" stroke="midnightblue" points="247.9,-29.34 252.41,-19.75 242.91,-24.44 247.9,-29.34"/>
</g>
<!-- Node10&#45;&gt;Node3 -->
<g id="edge11" class="edge">
<title>Node10&#45;&gt;Node3</title>
<path fill="none" stroke="midnightblue" d="M314.03,-112.44C293.39,-103.6 260.94,-89.69 237.37,-79.59"/>
<polygon fill="midnightblue" stroke="midnightblue" points="238.44,-76.24 227.87,-75.52 235.68,-82.67 238.44,-76.24"/>
</g>
<!-- Node11 -->
<g id="node11" class="node">
<title>Node11</title>
<g id="a_node11"><a xlink:title=" ">
<polygon fill="none" stroke="#bfbfbf" points="301.5,-56.5 301.5,-75.5 366.5,-75.5 366.5,-56.5 301.5,-56.5"/>
<text text-anchor="middle" x="334" y="-63.5" font-family="Helvetica,sans-Serif" font-size="10.00">stdexcept</text>
</a>
</g>
</g>
<!-- Node10&#45;&gt;Node11 -->
<g id="edge10" class="edge">
<title>Node10&#45;&gt;Node11</title>
<path fill="none" stroke="midnightblue" d="M334,-112.08C334,-105.01 334,-94.86 334,-85.99"/>
<polygon fill="midnightblue" stroke="midnightblue" points="337.5,-85.75 334,-75.75 330.5,-85.75 337.5,-85.75"/>
</g>
<!-- Node12&#45;&gt;Node3 -->
<g id="edge13" class="edge">
<title>Node12&#45;&gt;Node3</title>
<path fill="none" stroke="midnightblue" d="M233.05,-112.08C228.9,-104.61 222.85,-93.72 217.73,-84.52"/>
<polygon fill="midnightblue" stroke="midnightblue" points="220.78,-82.79 212.86,-75.75 214.66,-86.19 220.78,-82.79"/>
</g>
</g>
</svg>
