<?xml version="1.0" encoding="UTF-8" standalone="no"?>
<!DOCTYPE svg PUBLIC "-//W3C//DTD SVG 1.1//EN"
 "http://www.w3.org/Graphics/SVG/1.1/DTD/svg11.dtd">
<!-- Generated by graphviz version 2.38.0 (20140413.2041)
 -->
<!-- Title: Graphical Class Hierarchy Pages: 1 -->
<svg width="257pt" height="343pt"
 viewBox="0.00 0.00 257.00 343.00" xmlns="http://www.w3.org/2000/svg" xmlns:xlink="http://www.w3.org/1999/xlink">
<g id="graph0" class="graph" transform="scale(1 1) rotate(0) translate(4 339)">
<title>Graphical Class Hierarchy</title>
<!-- Node1 -->
<g id="node1" class="node"><title>Node1</title>
<g id="a_node1"><a xlink:href="classcfgfile_1_1tag__t.html" target="_top" xlink:title="Base class for the tags in the configuration file. ">
<polygon fill="none" stroke="black" points="0,-163 0,-182 104,-182 104,-163 0,-163"/>
<text text-anchor="middle" x="52" y="-170" font-family="FreeSans" font-size="10.00">cfgfile::tag_t&lt; Trait &gt;</text>
</a>
</g>
</g>
<!-- Node2 -->
<g id="node2" class="node"><title>Node2</title>
<g id="a_node2"><a xlink:href="classcfgfile_1_1tag__no__value__t.html" target="_top" xlink:title="Tag without a value. ">
<polygon fill="none" stroke="black" points="142.5,-304.5 142.5,-334.5 246.5,-334.5 246.5,-304.5 142.5,-304.5"/>
<text text-anchor="start" x="150.5" y="-322.5" font-family="FreeSans" font-size="10.00">cfgfile::tag_no_value</text>
<text text-anchor="middle" x="194.5" y="-311.5" font-family="FreeSans" font-size="10.00">_t&lt; Trait &gt;</text>
</a>
</g>
</g>
<!-- Node1&#45;&gt;Node2 -->
<g id="edge1" class="edge"><title>Node1&#45;&gt;Node2</title>
<path fill="none" stroke="midnightblue" d="M62.0379,-191.064C75.6783,-217.407 103.82,-265.735 140,-295.5 144.088,-298.863 148.723,-301.85 153.513,-304.475"/>
<polygon fill="midnightblue" stroke="midnightblue" points="65.1605,-189.483 57.5337,-182.129 58.9097,-192.634 65.1605,-189.483"/>
</g>
<!-- Node3 -->
<g id="node3" class="node"><title>Node3</title>
<g id="a_node3"><a xlink:href="classcfgfile_1_1tag__scalar__t.html" target="_top" xlink:title="Tag with scalar value. ">
<polygon fill="none" stroke="black" points="149,-255.5 149,-285.5 240,-285.5 240,-255.5 149,-255.5"/>
<text text-anchor="start" x="157" y="-273.5" font-family="FreeSans" font-size="10.00">cfgfile::tag_scalar</text>
<text text-anchor="middle" x="194.5" y="-262.5" font-family="FreeSans" font-size="10.00">_t&lt; T, Trait &gt;</text>
</a>
</g>
</g>
<!-- Node1&#45;&gt;Node3 -->
<g id="edge2" class="edge"><title>Node1&#45;&gt;Node3</title>
<path fill="none" stroke="midnightblue" d="M69.8014,-189.338C86.536,-205.466 113.489,-229.758 140,-246.5 145.078,-249.707 150.658,-252.71 156.237,-255.434"/>
<polygon fill="midnightblue" stroke="midnightblue" points="72.0482,-186.639 62.4539,-182.145 67.1514,-191.642 72.0482,-186.639"/>
</g>
<!-- Node4 -->
<g id="node4" class="node"><title>Node4</title>
<g id="a_node4"><a xlink:href="classcfgfile_1_1tag__scalar__t_3_01bool_00_01_trait_01_4.html" target="_top" xlink:title="Tag with bool value. ">
<polygon fill="none" stroke="black" points="149,-206.5 149,-236.5 240,-236.5 240,-206.5 149,-206.5"/>
<text text-anchor="start" x="157" y="-224.5" font-family="FreeSans" font-size="10.00">cfgfile::tag_scalar</text>
<text text-anchor="middle" x="194.5" y="-213.5" font-family="FreeSans" font-size="10.00">_t&lt; bool, Trait &gt;</text>
</a>
</g>
</g>
<!-- Node1&#45;&gt;Node4 -->
<g id="edge3" class="edge"><title>Node1&#45;&gt;Node4</title>
<path fill="none" stroke="midnightblue" d="M89.9848,-185.399C108.518,-191.862 131.068,-199.727 150.384,-206.463"/>
<polygon fill="midnightblue" stroke="midnightblue" points="91.0182,-182.052 80.4233,-182.064 88.713,-188.662 91.0182,-182.052"/>
</g>
<!-- Node5 -->
<g id="node5" class="node"><title>Node5</title>
<g id="a_node5"><a xlink:href="classcfgfile_1_1tag__scalar__t_3_01_q_string_00_01_trait_01_4.html" target="_top" xlink:title="Tag with QString value. ">
<polygon fill="none" stroke="black" points="145,-157.5 145,-187.5 244,-187.5 244,-157.5 145,-157.5"/>
<text text-anchor="start" x="153" y="-175.5" font-family="FreeSans" font-size="10.00">cfgfile::tag_scalar</text>
<text text-anchor="middle" x="194.5" y="-164.5" font-family="FreeSans" font-size="10.00">_t&lt; QString, Trait &gt;</text>
</a>
</g>
</g>
<!-- Node1&#45;&gt;Node5 -->
<g id="edge4" class="edge"><title>Node1&#45;&gt;Node5</title>
<path fill="none" stroke="midnightblue" d="M114.278,-172.5C124.556,-172.5 135.094,-172.5 144.993,-172.5"/>
<polygon fill="midnightblue" stroke="midnightblue" points="114.121,-169 104.121,-172.5 114.121,-176 114.121,-169"/>
</g>
<!-- Node6 -->
<g id="node6" class="node"><title>Node6</title>
<g id="a_node6"><a xlink:href="classcfgfile_1_1tag__scalar__t_3_01typename_01_trait_1_1string__t_00_01_trait_01_4.html" target="_top" xlink:title="Tag with string value. ">
<polygon fill="none" stroke="black" points="144,-98 144,-139 245,-139 245,-98 144,-98"/>
<text text-anchor="start" x="152" y="-127" font-family="FreeSans" font-size="10.00">cfgfile::tag_scalar</text>
<text text-anchor="start" x="152" y="-116" font-family="FreeSans" font-size="10.00">_t&lt; typename Trait::</text>
<text text-anchor="middle" x="194.5" y="-105" font-family="FreeSans" font-size="10.00">string_t, Trait &gt;</text>
</a>
</g>
</g>
<!-- Node1&#45;&gt;Node6 -->
<g id="edge5" class="edge"><title>Node1&#45;&gt;Node6</title>
<path fill="none" stroke="midnightblue" d="M87.3262,-159.307C104.346,-152.765 125.216,-144.744 143.934,-137.55"/>
<polygon fill="midnightblue" stroke="midnightblue" points="85.8738,-156.116 77.7952,-162.97 88.3851,-162.65 85.8738,-156.116"/>
</g>
<!-- Node7 -->
<g id="node7" class="node"><title>Node7</title>
<g id="a_node7"><a xlink:href="classcfgfile_1_1tag__scalar__vector__t.html" target="_top" xlink:title="Tag with multiple scalar values. ">
<polygon fill="none" stroke="black" points="142.5,-49.5 142.5,-79.5 246.5,-79.5 246.5,-49.5 142.5,-49.5"/>
<text text-anchor="start" x="150.5" y="-67.5" font-family="FreeSans" font-size="10.00">cfgfile::tag_scalar</text>
<text text-anchor="middle" x="194.5" y="-56.5" font-family="FreeSans" font-size="10.00">_vector_t&lt; T, Trait &gt;</text>
</a>
</g>
</g>
<!-- Node1&#45;&gt;Node7 -->
<g id="edge6" class="edge"><title>Node1&#45;&gt;Node7</title>
<path fill="none" stroke="midnightblue" d="M67.6125,-155.193C83.8309,-136.805 111.498,-107.781 140,-88.5 144.806,-85.2487 150.124,-82.2554 155.488,-79.5665"/>
<polygon fill="midnightblue" stroke="midnightblue" points="64.9074,-152.97 61.0045,-162.819 70.198,-157.553 64.9074,-152.97"/>
</g>
<!-- Node8 -->
<g id="node8" class="node"><title>Node8</title>
<g id="a_node8"><a xlink:href="classcfgfile_1_1tag__vector__of__tags__t.html" target="_top" xlink:title="Tag with multiple instancies of the given tag. ">
<polygon fill="none" stroke="black" points="140,-0.5 140,-30.5 249,-30.5 249,-0.5 140,-0.5"/>
<text text-anchor="start" x="148" y="-18.5" font-family="FreeSans" font-size="10.00">cfgfile::tag_vector</text>
<text text-anchor="middle" x="194.5" y="-7.5" font-family="FreeSans" font-size="10.00">_of_tags_t&lt; T, Trait &gt;</text>
</a>
</g>
</g>
<!-- Node1&#45;&gt;Node8 -->
<g id="edge7" class="edge"><title>Node1&#45;&gt;Node8</title>
<path fill="none" stroke="midnightblue" d="M61.3712,-153.462C74.5178,-125.453 102.433,-72.96 140,-40.5 144.344,-36.7464 149.348,-33.4386 154.515,-30.5614"/>
<polygon fill="midnightblue" stroke="midnightblue" points="58.0299,-152.354 57.0664,-162.905 64.3992,-155.258 58.0299,-152.354"/>
</g>
</g>
</svg>
