<?xml version="1.0" encoding="UTF-8" standalone="no"?>
<!DOCTYPE svg PUBLIC "-//W3C//DTD SVG 1.1//EN"
 "http://www.w3.org/Graphics/SVG/1.1/DTD/svg11.dtd">
<!-- Generated by graphviz version 2.43.0 (0)
 -->
<!-- Title: Graphical Class Hierarchy Pages: 1 -->
<svg width="282pt" height="186pt"
 viewBox="0.00 0.00 282.00 186.00" xmlns="http://www.w3.org/2000/svg" xmlns:xlink="http://www.w3.org/1999/xlink">
<g id="graph0" class="graph" transform="scale(1 1) rotate(0) translate(4 182)">
<title>Graphical Class Hierarchy</title>
<!-- Node0 -->
<g id="node1" class="node">
<title>Node0</title>
<g id="a_node1"><a xlink:href="classcfgfile_1_1tag__t.html" target="_top" xlink:title=" ">
<polygon fill="none" stroke="black" points="0,-73.5 0,-103.5 116,-103.5 116,-73.5 0,-73.5"/>
<text text-anchor="start" x="8" y="-91.5" font-family="Helvetica,sans-Serif" font-size="10.00">cfgfile::tag_t&lt; string</text>
<text text-anchor="middle" x="58" y="-80.5" font-family="Helvetica,sans-Serif" font-size="10.00">_trait_t &gt;</text>
</a>
</g>
</g>
<!-- Node1 -->
<g id="node2" class="node">
<title>Node1</title>
<g id="a_node2"><a xlink:href="classcfgfile_1_1tag__no__value__t.html" target="_top" xlink:title="Tag without a value.">
<polygon fill="none" stroke="black" points="154,-147.5 154,-177.5 272,-177.5 272,-147.5 154,-147.5"/>
<text text-anchor="start" x="162" y="-165.5" font-family="Helvetica,sans-Serif" font-size="10.00">cfgfile::tag_no_value</text>
<text text-anchor="middle" x="213" y="-154.5" font-family="Helvetica,sans-Serif" font-size="10.00">_t&lt; Trait &gt;</text>
</a>
</g>
</g>
<!-- Node0&#45;&gt;Node1 -->
<g id="edge1" class="edge">
<title>Node0&#45;&gt;Node1</title>
<path fill="none" stroke="midnightblue" d="M94.17,-108.62C111.37,-118.15 132.52,-129.4 152,-138.5 158.51,-141.54 165.51,-144.56 172.35,-147.38"/>
<polygon fill="midnightblue" stroke="midnightblue" points="95.49,-105.35 85.05,-103.53 92.08,-111.46 95.49,-105.35"/>
</g>
<!-- Node2 -->
<g id="node3" class="node">
<title>Node2</title>
<g id="a_node3"><a xlink:href="classcfgfile_1_1tag__scalar__t.html" target="_top" xlink:title="Tag with scalar value.">
<polygon fill="none" stroke="black" points="161.5,-98.5 161.5,-128.5 264.5,-128.5 264.5,-98.5 161.5,-98.5"/>
<text text-anchor="start" x="169.5" y="-116.5" font-family="Helvetica,sans-Serif" font-size="10.00">cfgfile::tag_scalar</text>
<text text-anchor="middle" x="213" y="-105.5" font-family="Helvetica,sans-Serif" font-size="10.00">_t&lt; T, Trait &gt;</text>
</a>
</g>
</g>
<!-- Node0&#45;&gt;Node2 -->
<g id="edge2" class="edge">
<title>Node0&#45;&gt;Node2</title>
<path fill="none" stroke="midnightblue" d="M126.56,-99.54C138.23,-101.45 150.19,-103.4 161.31,-105.22"/>
<polygon fill="midnightblue" stroke="midnightblue" points="126.84,-96.04 116.41,-97.88 125.71,-102.95 126.84,-96.04"/>
</g>
<!-- Node3 -->
<g id="node4" class="node">
<title>Node3</title>
<g id="a_node4"><a xlink:href="classcfgfile_1_1tag__scalar__vector__t.html" target="_top" xlink:title="Tag with multiple scalar values.">
<polygon fill="none" stroke="black" points="154.5,-49.5 154.5,-79.5 271.5,-79.5 271.5,-49.5 154.5,-49.5"/>
<text text-anchor="start" x="162.5" y="-67.5" font-family="Helvetica,sans-Serif" font-size="10.00">cfgfile::tag_scalar</text>
<text text-anchor="middle" x="213" y="-56.5" font-family="Helvetica,sans-Serif" font-size="10.00">_vector_t&lt; T, Trait &gt;</text>
</a>
</g>
</g>
<!-- Node0&#45;&gt;Node3 -->
<g id="edge3" class="edge">
<title>Node0&#45;&gt;Node3</title>
<path fill="none" stroke="midnightblue" d="M126.4,-77.93C135.69,-76.47 145.17,-74.98 154.27,-73.56"/>
<polygon fill="midnightblue" stroke="midnightblue" points="125.74,-74.49 116.41,-79.5 126.83,-81.4 125.74,-74.49"/>
</g>
<!-- Node4 -->
<g id="node5" class="node">
<title>Node4</title>
<g id="a_node5"><a xlink:href="classcfgfile_1_1tag__vector__of__tags__t.html" target="_top" xlink:title="Tag with multiple instancies of the given tag.">
<polygon fill="none" stroke="black" points="152,-0.5 152,-30.5 274,-30.5 274,-0.5 152,-0.5"/>
<text text-anchor="start" x="160" y="-18.5" font-family="Helvetica,sans-Serif" font-size="10.00">cfgfile::tag_vector</text>
<text text-anchor="middle" x="213" y="-7.5" font-family="Helvetica,sans-Serif" font-size="10.00">_of_tags_t&lt; T, Trait &gt;</text>
</a>
</g>
</g>
<!-- Node0&#45;&gt;Node4 -->
<g id="edge4" class="edge">
<title>Node0&#45;&gt;Node4</title>
<path fill="none" stroke="midnightblue" d="M95.81,-68.62C112.76,-59.7 133.24,-49.23 152,-40.5 159.26,-37.12 167.11,-33.69 174.67,-30.5"/>
<polygon fill="midnightblue" stroke="midnightblue" points="93.98,-65.63 86.79,-73.4 97.26,-71.81 93.98,-65.63"/>
</g>
</g>
</svg>
