<?xml version="1.0" encoding="UTF-8" standalone="no"?>
<!DOCTYPE svg PUBLIC "-//W3C//DTD SVG 1.1//EN"
 "http://www.w3.org/Graphics/SVG/1.1/DTD/svg11.dtd">
<!-- Generated by graphviz version 2.43.0 (0)
 -->
<!-- Title: Graphical Class Hierarchy Pages: 1 -->
<svg width="222pt" height="88pt"
 viewBox="0.00 0.00 222.00 88.00" xmlns="http://www.w3.org/2000/svg" xmlns:xlink="http://www.w3.org/1999/xlink">
<g id="graph0" class="graph" transform="scale(1 1) rotate(0) translate(4 84)">
<title>Graphical Class Hierarchy</title>
<!-- Node22 -->
<g id="node1" class="node">
<title>Node22</title>
<g id="a_node1"><a xlink:title=" ">
<polygon fill="none" stroke="#bfbfbf" points="0,-30 0,-49 68,-49 68,-30 0,-30"/>
<text text-anchor="middle" x="34" y="-37" font-family="Helvetica,sans-Serif" font-size="10.00">logic_error</text>
</a>
</g>
</g>
<!-- Node0 -->
<g id="node2" class="node">
<title>Node0</title>
<g id="a_node2"><a xlink:href="classcfgfile_1_1exception__t.html" target="_top" xlink:title="Exception in the library.">
<polygon fill="none" stroke="black" points="108.5,-49.5 108.5,-79.5 209.5,-79.5 209.5,-49.5 108.5,-49.5"/>
<text text-anchor="start" x="116.5" y="-67.5" font-family="Helvetica,sans-Serif" font-size="10.00">cfgfile::exception</text>
<text text-anchor="middle" x="159" y="-56.5" font-family="Helvetica,sans-Serif" font-size="10.00">_t&lt; Trait &gt;</text>
</a>
</g>
</g>
<!-- Node22&#45;&gt;Node0 -->
<g id="edge1" class="edge">
<title>Node22&#45;&gt;Node0</title>
<path fill="none" stroke="midnightblue" d="M78.39,-48.32C87.98,-50.27 98.22,-52.35 108.05,-54.35"/>
<polygon fill="midnightblue" stroke="midnightblue" points="78.78,-44.83 68.29,-46.27 77.39,-51.69 78.78,-44.83"/>
</g>
<!-- Node24 -->
<g id="node3" class="node">
<title>Node24</title>
<g id="a_node3"><a xlink:href="classcfgfile_1_1exception__t_3_01string__trait__t_01_4.html" target="_top" xlink:title=" ">
<polygon fill="none" stroke="black" points="104,-0.5 104,-30.5 214,-30.5 214,-0.5 104,-0.5"/>
<text text-anchor="start" x="112" y="-18.5" font-family="Helvetica,sans-Serif" font-size="10.00">cfgfile::exception</text>
<text text-anchor="middle" x="159" y="-7.5" font-family="Helvetica,sans-Serif" font-size="10.00">_t&lt; string_trait_t &gt;</text>
</a>
</g>
</g>
<!-- Node22&#45;&gt;Node24 -->
<g id="edge2" class="edge">
<title>Node22&#45;&gt;Node24</title>
<path fill="none" stroke="midnightblue" d="M78.12,-31.09C86.43,-29.47 95.22,-27.75 103.82,-26.07"/>
<polygon fill="midnightblue" stroke="midnightblue" points="77.43,-27.65 68.29,-33.01 78.77,-34.53 77.43,-27.65"/>
</g>
</g>
</svg>
