<?xml version="1.0" encoding="UTF-8" standalone="no"?>
<!DOCTYPE svg PUBLIC "-//W3C//DTD SVG 1.1//EN"
 "http://www.w3.org/Graphics/SVG/1.1/DTD/svg11.dtd">
<!-- Generated by graphviz version 2.43.0 (0)
 -->
<!-- Title: Graphical Class Hierarchy Pages: 1 -->
<svg width="281pt" height="146pt"
 viewBox="0.00 0.00 281.00 145.50" xmlns="http://www.w3.org/2000/svg" xmlns:xlink="http://www.w3.org/1999/xlink">
<g id="graph0" class="graph" transform="scale(1 1) rotate(0) translate(4 141.5)">
<title>Graphical Class Hierarchy</title>
<!-- Node0 -->
<g id="Node000000" class="node">
<title>Node0</title>
<g id="a_Node000000"><a xlink:href="classcfgfile_1_1tag__t.html" target="_top" xlink:title=" ">
<polygon fill="white" stroke="#666666" points="121,-84 0,-84 0,-65 121,-65 121,-84"/>
<text text-anchor="middle" x="60.5" y="-72" font-family="Helvetica,sans-Serif" font-size="10.00">cfgfile::tag_t&lt; Trait &gt;</text>
</a>
</g>
</g>
<!-- Node1 -->
<g id="Node000001" class="node">
<title>Node1</title>
<g id="a_Node000001"><a xlink:href="classcfgfile_1_1tag__scalar__t_3_01_q_string_00_01_trait_01_4.html" target="_top" xlink:title="Tag with QString value.">
<polygon fill="white" stroke="#666666" points="270.5,-137.5 159.5,-137.5 159.5,-107.5 270.5,-107.5 270.5,-137.5"/>
<text text-anchor="start" x="167.5" y="-125.5" font-family="Helvetica,sans-Serif" font-size="10.00">cfgfile::tag_scalar</text>
<text text-anchor="middle" x="215" y="-114.5" font-family="Helvetica,sans-Serif" font-size="10.00">_t&lt; QString, Trait &gt;</text>
</a>
</g>
</g>
<!-- Node0&#45;&gt;Node1 -->
<g id="edge9_Node000000_Node000001" class="edge">
<title>Node0&#45;&gt;Node1</title>
<g id="a_edge9_Node000000_Node000001"><a xlink:title=" ">
<path fill="none" stroke="#63b8ff" d="M101.62,-87.13C121.41,-93.36 145.41,-100.91 166.14,-107.44"/>
<polygon fill="#63b8ff" stroke="#63b8ff" points="102.58,-83.76 91.99,-84.1 100.48,-90.44 102.58,-83.76"/>
</a>
</g>
</g>
<!-- Node2 -->
<g id="Node000002" class="node">
<title>Node2</title>
<g id="a_Node000002"><a xlink:href="classcfgfile_1_1tag__scalar__t_3_01bool_00_01_trait_01_4.html" target="_top" xlink:title="Tag with bool value.">
<polygon fill="white" stroke="#666666" points="266.5,-89.5 163.5,-89.5 163.5,-59.5 266.5,-59.5 266.5,-89.5"/>
<text text-anchor="start" x="171.5" y="-77.5" font-family="Helvetica,sans-Serif" font-size="10.00">cfgfile::tag_scalar</text>
<text text-anchor="middle" x="215" y="-66.5" font-family="Helvetica,sans-Serif" font-size="10.00">_t&lt; bool, Trait &gt;</text>
</a>
</g>
</g>
<!-- Node0&#45;&gt;Node2 -->
<g id="edge10_Node000000_Node000002" class="edge">
<title>Node0&#45;&gt;Node2</title>
<g id="a_edge10_Node000000_Node000002"><a xlink:title=" ">
<path fill="none" stroke="#63b8ff" d="M131.5,-74.5C142.19,-74.5 153.05,-74.5 163.22,-74.5"/>
<polygon fill="#63b8ff" stroke="#63b8ff" points="131.33,-71 121.33,-74.5 131.33,-78 131.33,-71"/>
</a>
</g>
</g>
<!-- Node3 -->
<g id="Node000003" class="node">
<title>Node3</title>
<g id="a_Node000003"><a xlink:href="classcfgfile_1_1tag__scalar__t_3_01typename_01_trait_1_1string__t_00_01_trait_01_4.html" target="_top" xlink:title="Tag with string value.">
<polygon fill="white" stroke="#666666" points="273,-41 157,-41 157,0 273,0 273,-41"/>
<text text-anchor="start" x="165" y="-29" font-family="Helvetica,sans-Serif" font-size="10.00">cfgfile::tag_scalar</text>
<text text-anchor="start" x="165" y="-18" font-family="Helvetica,sans-Serif" font-size="10.00">_t&lt; typename Trait::</text>
<text text-anchor="middle" x="215" y="-7" font-family="Helvetica,sans-Serif" font-size="10.00">string_t, Trait &gt;</text>
</a>
</g>
</g>
<!-- Node0&#45;&gt;Node3 -->
<g id="edge11_Node000000_Node000003" class="edge">
<title>Node0&#45;&gt;Node3</title>
<g id="a_edge11_Node000000_Node000003"><a xlink:title=" ">
<path fill="none" stroke="#63b8ff" d="M98.24,-61.49C115.77,-55.28 137.14,-47.72 156.72,-40.78"/>
<polygon fill="#63b8ff" stroke="#63b8ff" points="96.67,-58.33 88.41,-64.97 99.01,-64.93 96.67,-58.33"/>
</a>
</g>
</g>
</g>
</svg>
