<?xml version="1.0" encoding="UTF-8" standalone="no"?>
<!DOCTYPE svg PUBLIC "-//W3C//DTD SVG 1.1//EN"
 "http://www.w3.org/Graphics/SVG/1.1/DTD/svg11.dtd">
<!-- Generated by graphviz version 2.43.0 (0)
 -->
<!-- Title: Graphical Class Hierarchy Pages: 1 -->
<svg width="281pt" height="149pt"
 viewBox="0.00 0.00 281.00 148.50" xmlns="http://www.w3.org/2000/svg" xmlns:xlink="http://www.w3.org/1999/xlink">
<g id="graph0" class="graph" transform="scale(1 1) rotate(0) translate(4 144.5)">
<title>Graphical Class Hierarchy</title>
<!-- Node0 -->
<g id="node1" class="node">
<title>Node0</title>
<g id="a_node1"><a xlink:href="classcfgfile_1_1tag__t.html" target="_top" xlink:title="Base class for the tags in the configuration file.">
<polygon fill="none" stroke="black" points="0,-66.5 0,-85.5 121,-85.5 121,-66.5 0,-66.5"/>
<text text-anchor="middle" x="60.5" y="-73.5" font-family="Helvetica,sans-Serif" font-size="10.00">cfgfile::tag_t&lt; Trait &gt;</text>
</a>
</g>
</g>
<!-- Node1 -->
<g id="node2" class="node">
<title>Node1</title>
<g id="a_node2"><a xlink:href="classcfgfile_1_1tag__scalar__t_3_01bool_00_01_trait_01_4.html" target="_top" xlink:title="Tag with bool value.">
<polygon fill="none" stroke="black" points="163.5,-110 163.5,-140 266.5,-140 266.5,-110 163.5,-110"/>
<text text-anchor="start" x="171.5" y="-128" font-family="Helvetica,sans-Serif" font-size="10.00">cfgfile::tag_scalar</text>
<text text-anchor="middle" x="215" y="-117" font-family="Helvetica,sans-Serif" font-size="10.00">_t&lt; bool, Trait &gt;</text>
</a>
</g>
</g>
<!-- Node0&#45;&gt;Node1 -->
<g id="edge1" class="edge">
<title>Node0&#45;&gt;Node1</title>
<path fill="none" stroke="midnightblue" d="M100.81,-88.63C121.08,-95.14 145.95,-103.13 167.2,-109.96"/>
<polygon fill="midnightblue" stroke="midnightblue" points="101.86,-85.29 91.27,-85.56 99.72,-91.96 101.86,-85.29"/>
</g>
<!-- Node2 -->
<g id="node3" class="node">
<title>Node2</title>
<g id="a_node3"><a xlink:href="classcfgfile_1_1tag__scalar__t_3_01_q_string_00_01_trait_01_4.html" target="_top" xlink:title="Tag with QString value.">
<polygon fill="none" stroke="black" points="159.5,-61 159.5,-91 270.5,-91 270.5,-61 159.5,-61"/>
<text text-anchor="start" x="167.5" y="-79" font-family="Helvetica,sans-Serif" font-size="10.00">cfgfile::tag_scalar</text>
<text text-anchor="middle" x="215" y="-68" font-family="Helvetica,sans-Serif" font-size="10.00">_t&lt; QString, Trait &gt;</text>
</a>
</g>
</g>
<!-- Node0&#45;&gt;Node2 -->
<g id="edge2" class="edge">
<title>Node0&#45;&gt;Node2</title>
<path fill="none" stroke="midnightblue" d="M131.41,-76C140.77,-76 150.26,-76 159.31,-76"/>
<polygon fill="midnightblue" stroke="midnightblue" points="131.33,-72.5 121.33,-76 131.33,-79.5 131.33,-72.5"/>
</g>
<!-- Node3 -->
<g id="node4" class="node">
<title>Node3</title>
<g id="a_node4"><a xlink:href="classcfgfile_1_1tag__scalar__t_3_01typename_01_trait_1_1string__t_00_01_trait_01_4.html" target="_top" xlink:title="Tag with string value.">
<polygon fill="none" stroke="black" points="157,-0.5 157,-41.5 273,-41.5 273,-0.5 157,-0.5"/>
<text text-anchor="start" x="165" y="-29.5" font-family="Helvetica,sans-Serif" font-size="10.00">cfgfile::tag_scalar</text>
<text text-anchor="start" x="165" y="-18.5" font-family="Helvetica,sans-Serif" font-size="10.00">_t&lt; typename Trait::</text>
<text text-anchor="middle" x="215" y="-7.5" font-family="Helvetica,sans-Serif" font-size="10.00">string_t, Trait &gt;</text>
</a>
</g>
</g>
<!-- Node0&#45;&gt;Node3 -->
<g id="edge3" class="edge">
<title>Node0&#45;&gt;Node3</title>
<path fill="none" stroke="midnightblue" d="M97.48,-63.02C115.26,-56.61 137.14,-48.72 157.11,-41.52"/>
<polygon fill="midnightblue" stroke="midnightblue" points="96.28,-59.73 88.06,-66.42 98.66,-66.32 96.28,-59.73"/>
</g>
</g>
</svg>
