<?xml version="1.0" encoding="UTF-8" standalone="no"?>
<!DOCTYPE svg PUBLIC "-//W3C//DTD SVG 1.1//EN"
 "http://www.w3.org/Graphics/SVG/1.1/DTD/svg11.dtd">
<!-- Generated by graphviz version 2.38.0 (20140413.2041)
 -->
<!-- Title: Graphical Class Hierarchy Pages: 1 -->
<svg width="230pt" height="88pt"
 viewBox="0.00 0.00 230.00 88.00" xmlns="http://www.w3.org/2000/svg" xmlns:xlink="http://www.w3.org/1999/xlink">
<g id="graph0" class="graph" transform="scale(1 1) rotate(0) translate(4 84)">
<title>Graphical Class Hierarchy</title>
<!-- Node1 -->
<g id="node1" class="node"><title>Node1</title>
<g id="a_node1"><a xlink:href="classcfgfile_1_1constraint__t.html" target="_top" xlink:title="Base class for constraints. ">
<polygon fill="none" stroke="black" points="0,-24.5 0,-54.5 92,-54.5 92,-24.5 0,-24.5"/>
<text text-anchor="start" x="8" y="-42.5" font-family="Helvetica,sans-Serif" font-size="10.00">cfgfile::constraint</text>
<text text-anchor="middle" x="46" y="-31.5" font-family="Helvetica,sans-Serif" font-size="10.00">_t&lt; T &gt;</text>
</a>
</g>
</g>
<!-- Node2 -->
<g id="node2" class="node"><title>Node2</title>
<g id="a_node2"><a xlink:href="classcfgfile_1_1constraint__min__max__t.html" target="_top" xlink:title="Constraint that allowed values to be in the given range: min &lt;= value &lt;= max. ">
<polygon fill="none" stroke="black" points="128,-49.5 128,-79.5 222,-79.5 222,-49.5 128,-49.5"/>
<text text-anchor="start" x="136" y="-67.5" font-family="Helvetica,sans-Serif" font-size="10.00">cfgfile::constraint</text>
<text text-anchor="middle" x="175" y="-56.5" font-family="Helvetica,sans-Serif" font-size="10.00">_min_max_t&lt; T &gt;</text>
</a>
</g>
</g>
<!-- Node1&#45;&gt;Node2 -->
<g id="edge1" class="edge"><title>Node1&#45;&gt;Node2</title>
<path fill="none" stroke="midnightblue" d="M102.051,-50.3367C110.613,-52.0222 119.384,-53.7489 127.726,-55.391"/>
<polygon fill="midnightblue" stroke="midnightblue" points="102.621,-46.8819 92.133,-48.3845 101.269,-53.7501 102.621,-46.8819"/>
</g>
<!-- Node3 -->
<g id="node3" class="node"><title>Node3</title>
<g id="a_node3"><a xlink:href="classcfgfile_1_1constraint__one__of__t.html" target="_top" xlink:title="Constraint that allowed values to be in the given list of values. ">
<polygon fill="none" stroke="black" points="129,-0.5 129,-30.5 221,-30.5 221,-0.5 129,-0.5"/>
<text text-anchor="start" x="137" y="-18.5" font-family="Helvetica,sans-Serif" font-size="10.00">cfgfile::constraint</text>
<text text-anchor="middle" x="175" y="-7.5" font-family="Helvetica,sans-Serif" font-size="10.00">_one_of_t&lt; T &gt;</text>
</a>
</g>
</g>
<!-- Node1&#45;&gt;Node3 -->
<g id="edge2" class="edge"><title>Node1&#45;&gt;Node3</title>
<path fill="none" stroke="midnightblue" d="M102.013,-29.1039C110.881,-27.428 119.975,-25.7095 128.584,-24.0825"/>
<polygon fill="midnightblue" stroke="midnightblue" points="101.309,-25.6748 92.133,-30.9709 102.609,-32.5531 101.309,-25.6748"/>
</g>
</g>
</svg>
