<?xml version="1.0" encoding="UTF-8" standalone="no"?>
<!DOCTYPE svg PUBLIC "-//W3C//DTD SVG 1.1//EN"
 "http://www.w3.org/Graphics/SVG/1.1/DTD/svg11.dtd">
<!-- Generated by graphviz version 2.38.0 (20140413.2041)
 -->
<!-- Title: Graphical Class Hierarchy Pages: 1 -->
<svg width="264pt" height="343pt"
 viewBox="0.00 0.00 264.00 343.00" xmlns="http://www.w3.org/2000/svg" xmlns:xlink="http://www.w3.org/1999/xlink">
<g id="graph0" class="graph" transform="scale(1 1) rotate(0) translate(4 339)">
<title>Graphical Class Hierarchy</title>
<!-- Node1 -->
<g id="node1" class="node"><title>Node1</title>
<g id="a_node1"><a xlink:href="classcfgfile_1_1tag__t.html" target="_top" xlink:title="Base class for the tags in the configuration file. ">
<polygon fill="none" stroke="black" points="0,-163 0,-182 108,-182 108,-163 0,-163"/>
<text text-anchor="middle" x="54" y="-170" font-family="Helvetica,sans-Serif" font-size="10.00">cfgfile::tag_t&lt; Trait &gt;</text>
</a>
</g>
</g>
<!-- Node2 -->
<g id="node2" class="node"><title>Node2</title>
<g id="a_node2"><a xlink:href="classcfgfile_1_1tag__no__value__t.html" target="_top" xlink:title="Tag without a value. ">
<polygon fill="none" stroke="black" points="146.5,-304.5 146.5,-334.5 253.5,-334.5 253.5,-304.5 146.5,-304.5"/>
<text text-anchor="start" x="154.5" y="-322.5" font-family="Helvetica,sans-Serif" font-size="10.00">cfgfile::tag_no_value</text>
<text text-anchor="middle" x="200" y="-311.5" font-family="Helvetica,sans-Serif" font-size="10.00">_t&lt; Trait &gt;</text>
</a>
</g>
</g>
<!-- Node1&#45;&gt;Node2 -->
<g id="edge1" class="edge"><title>Node1&#45;&gt;Node2</title>
<path fill="none" stroke="midnightblue" d="M64.3105,-191.106C78.3435,-217.5 107.228,-265.889 144,-295.5 148.138,-298.832 152.811,-301.79 157.64,-304.389"/>
<polygon fill="midnightblue" stroke="midnightblue" points="67.3804,-189.423 59.6739,-182.152 61.1643,-192.642 67.3804,-189.423"/>
</g>
<!-- Node3 -->
<g id="node3" class="node"><title>Node3</title>
<g id="a_node3"><a xlink:href="classcfgfile_1_1tag__scalar__t.html" target="_top" xlink:title="Tag with scalar value. ">
<polygon fill="none" stroke="black" points="153,-255.5 153,-285.5 247,-285.5 247,-255.5 153,-255.5"/>
<text text-anchor="start" x="161" y="-273.5" font-family="Helvetica,sans-Serif" font-size="10.00">cfgfile::tag_scalar</text>
<text text-anchor="middle" x="200" y="-262.5" font-family="Helvetica,sans-Serif" font-size="10.00">_t&lt; T, Trait &gt;</text>
</a>
</g>
</g>
<!-- Node1&#45;&gt;Node3 -->
<g id="edge2" class="edge"><title>Node1&#45;&gt;Node3</title>
<path fill="none" stroke="midnightblue" d="M72.2201,-189.366C89.3634,-205.515 116.954,-229.823 144,-246.5 149.232,-249.726 154.974,-252.74 160.712,-255.468"/>
<polygon fill="midnightblue" stroke="midnightblue" points="74.3367,-186.547 64.6916,-182.163 69.4974,-191.605 74.3367,-186.547"/>
</g>
<!-- Node4 -->
<g id="node4" class="node"><title>Node4</title>
<g id="a_node4"><a xlink:href="classcfgfile_1_1tag__scalar__t_3_01bool_00_01_trait_01_4.html" target="_top" xlink:title="Tag with bool value. ">
<polygon fill="none" stroke="black" points="153,-206.5 153,-236.5 247,-236.5 247,-206.5 153,-206.5"/>
<text text-anchor="start" x="161" y="-224.5" font-family="Helvetica,sans-Serif" font-size="10.00">cfgfile::tag_scalar</text>
<text text-anchor="middle" x="200" y="-213.5" font-family="Helvetica,sans-Serif" font-size="10.00">_t&lt; bool, Trait &gt;</text>
</a>
</g>
</g>
<!-- Node1&#45;&gt;Node4 -->
<g id="edge3" class="edge"><title>Node1&#45;&gt;Node4</title>
<path fill="none" stroke="midnightblue" d="M92.6438,-185.309C111.688,-191.79 134.921,-199.695 154.81,-206.463"/>
<polygon fill="midnightblue" stroke="midnightblue" points="93.7009,-181.972 83.1065,-182.064 91.4459,-188.599 93.7009,-181.972"/>
</g>
<!-- Node5 -->
<g id="node5" class="node"><title>Node5</title>
<g id="a_node5"><a xlink:href="classcfgfile_1_1tag__scalar__t_3_01_q_string_00_01_trait_01_4.html" target="_top" xlink:title="Tag with QString value. ">
<polygon fill="none" stroke="black" points="149.5,-157.5 149.5,-187.5 250.5,-187.5 250.5,-157.5 149.5,-157.5"/>
<text text-anchor="start" x="157.5" y="-175.5" font-family="Helvetica,sans-Serif" font-size="10.00">cfgfile::tag_scalar</text>
<text text-anchor="middle" x="200" y="-164.5" font-family="Helvetica,sans-Serif" font-size="10.00">_t&lt; QString, Trait &gt;</text>
</a>
</g>
</g>
<!-- Node1&#45;&gt;Node5 -->
<g id="edge4" class="edge"><title>Node1&#45;&gt;Node5</title>
<path fill="none" stroke="midnightblue" d="M118.45,-172.5C128.801,-172.5 139.392,-172.5 149.349,-172.5"/>
<polygon fill="midnightblue" stroke="midnightblue" points="118.211,-169 108.211,-172.5 118.211,-176 118.211,-169"/>
</g>
<!-- Node6 -->
<g id="node6" class="node"><title>Node6</title>
<g id="a_node6"><a xlink:href="classcfgfile_1_1tag__scalar__t_3_01typename_01_trait_1_1string__t_00_01_trait_01_4.html" target="_top" xlink:title="Tag with string value. ">
<polygon fill="none" stroke="black" points="147.5,-98 147.5,-139 252.5,-139 252.5,-98 147.5,-98"/>
<text text-anchor="start" x="155.5" y="-127" font-family="Helvetica,sans-Serif" font-size="10.00">cfgfile::tag_scalar</text>
<text text-anchor="start" x="155.5" y="-116" font-family="Helvetica,sans-Serif" font-size="10.00">_t&lt; typename Trait::</text>
<text text-anchor="middle" x="200" y="-105" font-family="Helvetica,sans-Serif" font-size="10.00">string_t, Trait &gt;</text>
</a>
</g>
</g>
<!-- Node1&#45;&gt;Node6 -->
<g id="edge5" class="edge"><title>Node1&#45;&gt;Node6</title>
<path fill="none" stroke="midnightblue" d="M90.0486,-159.357C107.247,-152.907 128.305,-145.011 147.307,-137.885"/>
<polygon fill="midnightblue" stroke="midnightblue" points="88.5472,-156.182 80.4128,-162.97 91.0051,-162.736 88.5472,-156.182"/>
</g>
<!-- Node7 -->
<g id="node7" class="node"><title>Node7</title>
<g id="a_node7"><a xlink:href="classcfgfile_1_1tag__scalar__vector__t.html" target="_top" xlink:title="Tag with multiple scalar values. ">
<polygon fill="none" stroke="black" points="146.5,-49.5 146.5,-79.5 253.5,-79.5 253.5,-49.5 146.5,-49.5"/>
<text text-anchor="start" x="154.5" y="-67.5" font-family="Helvetica,sans-Serif" font-size="10.00">cfgfile::tag_scalar</text>
<text text-anchor="middle" x="200" y="-56.5" font-family="Helvetica,sans-Serif" font-size="10.00">_vector_t&lt; T, Trait &gt;</text>
</a>
</g>
</g>
<!-- Node1&#45;&gt;Node7 -->
<g id="edge6" class="edge"><title>Node1&#45;&gt;Node7</title>
<path fill="none" stroke="midnightblue" d="M69.9893,-155.161C86.6155,-136.746 114.948,-107.7 144,-88.5 148.954,-85.2259 154.429,-82.22 159.947,-79.5251"/>
<polygon fill="midnightblue" stroke="midnightblue" points="67.2307,-152.996 63.2135,-162.8 72.4676,-157.641 67.2307,-152.996"/>
</g>
<!-- Node8 -->
<g id="node8" class="node"><title>Node8</title>
<g id="a_node8"><a xlink:href="classcfgfile_1_1tag__vector__of__tags__t.html" target="_top" xlink:title="Tag with multiple instancies of the given tag. ">
<polygon fill="none" stroke="black" points="144,-0.5 144,-30.5 256,-30.5 256,-0.5 144,-0.5"/>
<text text-anchor="start" x="152" y="-18.5" font-family="Helvetica,sans-Serif" font-size="10.00">cfgfile::tag_vector</text>
<text text-anchor="middle" x="200" y="-7.5" font-family="Helvetica,sans-Serif" font-size="10.00">_of_tags_t&lt; T, Trait &gt;</text>
</a>
</g>
</g>
<!-- Node1&#45;&gt;Node8 -->
<g id="edge7" class="edge"><title>Node1&#45;&gt;Node8</title>
<path fill="none" stroke="midnightblue" d="M63.4525,-153.787C76.912,-125.816 105.66,-72.931 144,-40.5 148.404,-36.7744 153.455,-33.4957 158.671,-30.6438"/>
<polygon fill="midnightblue" stroke="midnightblue" points="60.2654,-152.34 59.1961,-162.881 66.6053,-155.308 60.2654,-152.34"/>
</g>
</g>
</svg>
