<?xml version="1.0" encoding="UTF-8" standalone="no"?>
<!DOCTYPE svg PUBLIC "-//W3C//DTD SVG 1.1//EN"
 "http://www.w3.org/Graphics/SVG/1.1/DTD/svg11.dtd">
<!-- Generated by graphviz version 2.38.0 (20140413.2041)
 -->
<!-- Title: Graphical Class Hierarchy Pages: 1 -->
<svg width="203pt" height="88pt"
 viewBox="0.00 0.00 203.00 88.00" xmlns="http://www.w3.org/2000/svg" xmlns:xlink="http://www.w3.org/1999/xlink">
<g id="graph0" class="graph" transform="scale(1 1) rotate(0) translate(4 84)">
<title>Graphical Class Hierarchy</title>
<!-- Node1 -->
<g id="node1" class="node"><title>Node1</title>
<polygon fill="none" stroke="#bfbfbf" points="0,-30 0,-49 62,-49 62,-30 0,-30"/>
<text text-anchor="middle" x="31" y="-37" font-family="Helvetica,sans-Serif" font-size="10.00">logic_error</text>
</g>
<!-- Node2 -->
<g id="node2" class="node"><title>Node2</title>
<g id="a_node2"><a xlink:href="classcfgfile_1_1exception__t.html" target="_top" xlink:title="Exception in the library. ">
<polygon fill="none" stroke="black" points="101,-49.5 101,-79.5 192,-79.5 192,-49.5 101,-49.5"/>
<text text-anchor="start" x="109" y="-67.5" font-family="Helvetica,sans-Serif" font-size="10.00">cfgfile::exception</text>
<text text-anchor="middle" x="146.5" y="-56.5" font-family="Helvetica,sans-Serif" font-size="10.00">_t&lt; Trait &gt;</text>
</a>
</g>
</g>
<!-- Node1&#45;&gt;Node2 -->
<g id="edge1" class="edge"><title>Node1&#45;&gt;Node2</title>
<path fill="none" stroke="midnightblue" d="M71.9064,-48.29C81.2172,-50.3408 91.1931,-52.5381 100.7,-54.6322"/>
<polygon fill="midnightblue" stroke="midnightblue" points="72.6367,-44.867 62.1179,-46.1339 71.1309,-51.7031 72.6367,-44.867"/>
</g>
<!-- Node3 -->
<g id="node3" class="node"><title>Node3</title>
<g id="a_node3"><a xlink:href="classcfgfile_1_1exception__t_3_01string__trait__t_01_4.html" target="_top" xlink:title="cfgfile::exception\l_t\&lt; string_trait_t \&gt;">
<polygon fill="none" stroke="black" points="98,-0.5 98,-30.5 195,-30.5 195,-0.5 98,-0.5"/>
<text text-anchor="start" x="106" y="-18.5" font-family="Helvetica,sans-Serif" font-size="10.00">cfgfile::exception</text>
<text text-anchor="middle" x="146.5" y="-7.5" font-family="Helvetica,sans-Serif" font-size="10.00">_t&lt; string_trait_t &gt;</text>
</a>
</g>
</g>
<!-- Node1&#45;&gt;Node3 -->
<g id="edge2" class="edge"><title>Node1&#45;&gt;Node3</title>
<path fill="none" stroke="midnightblue" d="M71.9427,-31.054C80.2568,-29.2959 89.1,-27.426 97.6652,-25.6148"/>
<polygon fill="midnightblue" stroke="midnightblue" points="71.1775,-27.6383 62.1179,-33.1315 72.6257,-34.4869 71.1775,-27.6383"/>
</g>
</g>
</svg>
