<?xml version="1.0" encoding="UTF-8" standalone="no"?>
<!DOCTYPE svg PUBLIC "-//W3C//DTD SVG 1.1//EN"
 "http://www.w3.org/Graphics/SVG/1.1/DTD/svg11.dtd">
<!-- Generated by graphviz version 2.43.0 (0)
 -->
<!-- Title: Graphical Class Hierarchy Pages: 1 -->
<svg width="250pt" height="88pt"
 viewBox="0.00 0.00 250.00 88.00" xmlns="http://www.w3.org/2000/svg" xmlns:xlink="http://www.w3.org/1999/xlink">
<g id="graph0" class="graph" transform="scale(1 1) rotate(0) translate(4 84)">
<title>Graphical Class Hierarchy</title>
<!-- Node0 -->
<g id="node1" class="node">
<title>Node0</title>
<g id="a_node1"><a xlink:href="classcfgfile_1_1constraint__t.html" target="_top" xlink:title="Base class for constraints.">
<polygon fill="none" stroke="black" points="0,-24.5 0,-54.5 101,-54.5 101,-24.5 0,-24.5"/>
<text text-anchor="start" x="8" y="-42.5" font-family="Helvetica,sans-Serif" font-size="10.00">cfgfile::constraint</text>
<text text-anchor="middle" x="50.5" y="-31.5" font-family="Helvetica,sans-Serif" font-size="10.00">_t&lt; T &gt;</text>
</a>
</g>
</g>
<!-- Node1 -->
<g id="node2" class="node">
<title>Node1</title>
<g id="a_node2"><a xlink:href="classcfgfile_1_1constraint__min__max__t.html" target="_top" xlink:title="Constraint that allowed values to be in the given range: min &lt;= value &lt;= max.">
<polygon fill="none" stroke="black" points="137,-49.5 137,-79.5 242,-79.5 242,-49.5 137,-49.5"/>
<text text-anchor="start" x="145" y="-67.5" font-family="Helvetica,sans-Serif" font-size="10.00">cfgfile::constraint</text>
<text text-anchor="middle" x="189.5" y="-56.5" font-family="Helvetica,sans-Serif" font-size="10.00">_min_max_t&lt; T &gt;</text>
</a>
</g>
</g>
<!-- Node0&#45;&gt;Node1 -->
<g id="edge1" class="edge">
<title>Node0&#45;&gt;Node1</title>
<path fill="none" stroke="midnightblue" d="M111.45,-50.44C119.84,-51.97 128.4,-53.53 136.62,-55.03"/>
<polygon fill="midnightblue" stroke="midnightblue" points="111.81,-46.95 101.35,-48.6 110.56,-53.83 111.81,-46.95"/>
</g>
<!-- Node2 -->
<g id="node3" class="node">
<title>Node2</title>
<g id="a_node3"><a xlink:href="classcfgfile_1_1constraint__one__of__t.html" target="_top" xlink:title="Constraint that allowed values to be in the given list of values.">
<polygon fill="none" stroke="black" points="139,-0.5 139,-30.5 240,-30.5 240,-0.5 139,-0.5"/>
<text text-anchor="start" x="147" y="-18.5" font-family="Helvetica,sans-Serif" font-size="10.00">cfgfile::constraint</text>
<text text-anchor="middle" x="189.5" y="-7.5" font-family="Helvetica,sans-Serif" font-size="10.00">_one_of_t&lt; T &gt;</text>
</a>
</g>
</g>
<!-- Node0&#45;&gt;Node2 -->
<g id="edge2" class="edge">
<title>Node0&#45;&gt;Node2</title>
<path fill="none" stroke="midnightblue" d="M111.25,-29.03C120.49,-27.41 129.94,-25.76 138.92,-24.19"/>
<polygon fill="midnightblue" stroke="midnightblue" points="110.59,-25.59 101.35,-30.77 111.8,-32.49 110.59,-25.59"/>
</g>
</g>
</svg>
