<?xml version="1.0" encoding="UTF-8" standalone="no"?>
<!DOCTYPE svg PUBLIC "-//W3C//DTD SVG 1.1//EN"
 "http://www.w3.org/Graphics/SVG/1.1/DTD/svg11.dtd">
<!-- Generated by graphviz version 2.38.0 (20140413.2041)
 -->
<!-- Title: Graphical Class Hierarchy Pages: 1 -->
<svg width="225pt" height="88pt"
 viewBox="0.00 0.00 225.00 88.00" xmlns="http://www.w3.org/2000/svg" xmlns:xlink="http://www.w3.org/1999/xlink">
<g id="graph0" class="graph" transform="scale(1 1) rotate(0) translate(4 84)">
<title>Graphical Class Hierarchy</title>
<!-- Node1 -->
<g id="node1" class="node"><title>Node1</title>
<g id="a_node1"><a xlink:href="classcfgfile_1_1constraint__t.html" target="_top" xlink:title="Base class for constraints. ">
<polygon fill="none" stroke="black" points="0,-24.5 0,-54.5 89,-54.5 89,-24.5 0,-24.5"/>
<text text-anchor="start" x="8" y="-42.5" font-family="FreeSans" font-size="10.00">cfgfile::constraint</text>
<text text-anchor="middle" x="44.5" y="-31.5" font-family="FreeSans" font-size="10.00">_t&lt; T &gt;</text>
</a>
</g>
</g>
<!-- Node2 -->
<g id="node2" class="node"><title>Node2</title>
<g id="a_node2"><a xlink:href="classcfgfile_1_1constraint__min__max__t.html" target="_top" xlink:title="Constraint that allowed values to be in the given range: min &lt;= value &lt;= max. ">
<polygon fill="none" stroke="black" points="125,-49.5 125,-79.5 217,-79.5 217,-49.5 125,-49.5"/>
<text text-anchor="start" x="133" y="-67.5" font-family="FreeSans" font-size="10.00">cfgfile::constraint</text>
<text text-anchor="middle" x="171" y="-56.5" font-family="FreeSans" font-size="10.00">_min_max_t&lt; T &gt;</text>
</a>
</g>
</g>
<!-- Node1&#45;&gt;Node2 -->
<g id="edge1" class="edge"><title>Node1&#45;&gt;Node2</title>
<path fill="none" stroke="midnightblue" d="M98.9303,-50.229C107.474,-51.9446 116.244,-53.7057 124.579,-55.3794"/>
<polygon fill="midnightblue" stroke="midnightblue" points="99.5374,-46.7811 89.0441,-48.2438 98.1593,-53.6441 99.5374,-46.7811"/>
</g>
<!-- Node3 -->
<g id="node3" class="node"><title>Node3</title>
<g id="a_node3"><a xlink:href="classcfgfile_1_1constraint__one__of__t.html" target="_top" xlink:title="Constraint that allowed values to be in the given list of values. ">
<polygon fill="none" stroke="black" points="126.5,-0.5 126.5,-30.5 215.5,-30.5 215.5,-0.5 126.5,-0.5"/>
<text text-anchor="start" x="134.5" y="-18.5" font-family="FreeSans" font-size="10.00">cfgfile::constraint</text>
<text text-anchor="middle" x="171" y="-7.5" font-family="FreeSans" font-size="10.00">_one_of_t&lt; T &gt;</text>
</a>
</g>
</g>
<!-- Node1&#45;&gt;Node3 -->
<g id="edge2" class="edge"><title>Node1&#45;&gt;Node3</title>
<path fill="none" stroke="midnightblue" d="M99.1274,-29.1622C108.189,-27.4153 117.499,-25.6206 126.27,-23.9299"/>
<polygon fill="midnightblue" stroke="midnightblue" points="98.2008,-25.7763 89.0441,-31.106 99.5258,-32.6498 98.2008,-25.7763"/>
</g>
</g>
</svg>
