<?xml version="1.0" encoding="UTF-8" standalone="no"?>
<!DOCTYPE svg PUBLIC "-//W3C//DTD SVG 1.1//EN"
 "http://www.w3.org/Graphics/SVG/1.1/DTD/svg11.dtd">
<!-- Generated by graphviz version 2.43.0 (0)
 -->
<!-- Title: Graphical Class Hierarchy Pages: 1 -->
<svg width="250pt" height="86pt"
 viewBox="0.00 0.00 250.00 86.00" xmlns="http://www.w3.org/2000/svg" xmlns:xlink="http://www.w3.org/1999/xlink">
<g id="graph0" class="graph" transform="scale(1 1) rotate(0) translate(4 82)">
<title>Graphical Class Hierarchy</title>
<!-- Node0 -->
<g id="Node000000" class="node">
<title>Node0</title>
<g id="a_Node000000"><a xlink:href="classcfgfile_1_1constraint__t.html" target="_top" xlink:title="Base class for constraints.">
<polygon fill="white" stroke="#666666" points="101,-54 0,-54 0,-24 101,-24 101,-54"/>
<text text-anchor="start" x="8" y="-42" font-family="Helvetica,sans-Serif" font-size="10.00">cfgfile::constraint</text>
<text text-anchor="middle" x="50.5" y="-31" font-family="Helvetica,sans-Serif" font-size="10.00">_t&lt; T &gt;</text>
</a>
</g>
</g>
<!-- Node1 -->
<g id="Node000001" class="node">
<title>Node1</title>
<g id="a_Node000001"><a xlink:href="classcfgfile_1_1constraint__min__max__t.html" target="_top" xlink:title="Constraint that allowed values to be in the given range: min &lt;= value &lt;= max.">
<polygon fill="white" stroke="#666666" points="242,-78 137,-78 137,-48 242,-48 242,-78"/>
<text text-anchor="start" x="145" y="-66" font-family="Helvetica,sans-Serif" font-size="10.00">cfgfile::constraint</text>
<text text-anchor="middle" x="189.5" y="-55" font-family="Helvetica,sans-Serif" font-size="10.00">_min_max_t&lt; T &gt;</text>
</a>
</g>
</g>
<!-- Node0&#45;&gt;Node1 -->
<g id="edge1_Node000000_Node000001" class="edge">
<title>Node0&#45;&gt;Node1</title>
<g id="a_edge1_Node000000_Node000001"><a xlink:title=" ">
<path fill="none" stroke="#63b8ff" d="M111.45,-49.5C119.84,-50.97 128.4,-52.47 136.62,-53.91"/>
<polygon fill="#63b8ff" stroke="#63b8ff" points="111.8,-46.01 101.35,-47.73 110.59,-52.91 111.8,-46.01"/>
</a>
</g>
</g>
<!-- Node2 -->
<g id="Node000002" class="node">
<title>Node2</title>
<g id="a_Node000002"><a xlink:href="classcfgfile_1_1constraint__one__of__t.html" target="_top" xlink:title="Constraint that allowed values to be in the given list of values.">
<polygon fill="white" stroke="#666666" points="240,-30 139,-30 139,0 240,0 240,-30"/>
<text text-anchor="start" x="147" y="-18" font-family="Helvetica,sans-Serif" font-size="10.00">cfgfile::constraint</text>
<text text-anchor="middle" x="189.5" y="-7" font-family="Helvetica,sans-Serif" font-size="10.00">_one_of_t&lt; T &gt;</text>
</a>
</g>
</g>
<!-- Node0&#45;&gt;Node2 -->
<g id="edge2_Node000000_Node000002" class="edge">
<title>Node0&#45;&gt;Node2</title>
<g id="a_edge2_Node000000_Node000002"><a xlink:title=" ">
<path fill="none" stroke="#63b8ff" d="M111.25,-28.53C120.49,-26.91 129.94,-25.26 138.92,-23.69"/>
<polygon fill="#63b8ff" stroke="#63b8ff" points="110.59,-25.09 101.35,-30.27 111.8,-31.99 110.59,-25.09"/>
</a>
</g>
</g>
</g>
</svg>
