<?xml version="1.0" encoding="UTF-8" standalone="no"?>
<!DOCTYPE svg PUBLIC "-//W3C//DTD SVG 1.1//EN"
 "http://www.w3.org/Graphics/SVG/1.1/DTD/svg11.dtd">
<!-- Generated by graphviz version 2.38.0 (20140413.2041)
 -->
<!-- Title: Graphical Class Hierarchy Pages: 1 -->
<svg width="276pt" height="88pt"
 viewBox="0.00 0.00 276.00 88.00" xmlns="http://www.w3.org/2000/svg" xmlns:xlink="http://www.w3.org/1999/xlink">
<g id="graph0" class="graph" transform="scale(1 1) rotate(0) translate(4 84)">
<title>Graphical Class Hierarchy</title>
<!-- Node1 -->
<g id="node1" class="node"><title>Node1</title>
<g id="a_node1"><a xlink:href="classcfgfile_1_1details_1_1parser__base__t.html" target="_top" xlink:title="Base implementation of parser. ">
<polygon fill="none" stroke="black" points="0,-24.5 0,-54.5 110,-54.5 110,-24.5 0,-24.5"/>
<text text-anchor="start" x="8" y="-42.5" font-family="Helvetica,sans-Serif" font-size="10.00">cfgfile::details::parser</text>
<text text-anchor="middle" x="55" y="-31.5" font-family="Helvetica,sans-Serif" font-size="10.00">_base_t&lt; Trait &gt;</text>
</a>
</g>
</g>
<!-- Node2 -->
<g id="node2" class="node"><title>Node2</title>
<g id="a_node2"><a xlink:href="classcfgfile_1_1details_1_1parser__conffile__impl__t.html" target="_top" xlink:title="Implementation of parser in cfgfile format. ">
<polygon fill="none" stroke="black" points="146,-49.5 146,-79.5 268,-79.5 268,-49.5 146,-49.5"/>
<text text-anchor="start" x="154" y="-67.5" font-family="Helvetica,sans-Serif" font-size="10.00">cfgfile::details::parser</text>
<text text-anchor="middle" x="207" y="-56.5" font-family="Helvetica,sans-Serif" font-size="10.00">_conffile_impl_t&lt; Trait &gt;</text>
</a>
</g>
</g>
<!-- Node1&#45;&gt;Node2 -->
<g id="edge1" class="edge"><title>Node1&#45;&gt;Node2</title>
<path fill="none" stroke="midnightblue" d="M120.068,-50.178C128.613,-51.6022 137.351,-53.0586 145.827,-54.4711"/>
<polygon fill="midnightblue" stroke="midnightblue" points="120.593,-46.7173 110.153,-48.5256 119.442,-53.622 120.593,-46.7173"/>
</g>
<!-- Node3 -->
<g id="node3" class="node"><title>Node3</title>
<g id="a_node3"><a xlink:href="classcfgfile_1_1details_1_1parser__dom__impl__t.html" target="_top" xlink:title="Implementation of parser in XML format. ">
<polygon fill="none" stroke="black" points="152,-0.5 152,-30.5 262,-30.5 262,-0.5 152,-0.5"/>
<text text-anchor="start" x="160" y="-18.5" font-family="Helvetica,sans-Serif" font-size="10.00">cfgfile::details::parser</text>
<text text-anchor="middle" x="207" y="-7.5" font-family="Helvetica,sans-Serif" font-size="10.00">_dom_impl_t&lt; Trait &gt;</text>
</a>
</g>
</g>
<!-- Node1&#45;&gt;Node3 -->
<g id="edge2" class="edge"><title>Node1&#45;&gt;Node3</title>
<path fill="none" stroke="midnightblue" d="M120.177,-29.2316C130.755,-27.5392 141.627,-25.7997 151.926,-24.1518"/>
<polygon fill="midnightblue" stroke="midnightblue" points="119.475,-25.7994 110.153,-30.8354 120.581,-32.7115 119.475,-25.7994"/>
</g>
</g>
</svg>
