<?xml version="1.0" encoding="UTF-8" standalone="no"?>
<!DOCTYPE svg PUBLIC "-//W3C//DTD SVG 1.1//EN"
 "http://www.w3.org/Graphics/SVG/1.1/DTD/svg11.dtd">
<!-- Generated by graphviz version 2.43.0 (0)
 -->
<!-- Title: Graphical Class Hierarchy Pages: 1 -->
<svg width="243pt" height="86pt"
 viewBox="0.00 0.00 243.00 86.00" xmlns="http://www.w3.org/2000/svg" xmlns:xlink="http://www.w3.org/1999/xlink">
<g id="graph0" class="graph" transform="scale(1 1) rotate(0) translate(4 82)">
<title>Graphical Class Hierarchy</title>
<!-- Node0 -->
<g id="Node000000" class="node">
<title>Node0</title>
<g id="a_Node000000"><a xlink:title=" ">
<polygon fill="#e0e0e0" stroke="#999999" points="89,-48.5 0,-48.5 0,-29.5 89,-29.5 89,-48.5"/>
<text text-anchor="middle" x="44.5" y="-36.5" font-family="Helvetica,sans-Serif" font-size="10.00">std::logic_error</text>
</a>
</g>
</g>
<!-- Node1 -->
<g id="Node000001" class="node">
<title>Node1</title>
<g id="a_Node000001"><a xlink:href="classcfgfile_1_1exception__t.html" target="_top" xlink:title="Exception in the library.">
<polygon fill="white" stroke="#666666" points="230.5,-78 129.5,-78 129.5,-48 230.5,-48 230.5,-78"/>
<text text-anchor="start" x="137.5" y="-66" font-family="Helvetica,sans-Serif" font-size="10.00">cfgfile::exception</text>
<text text-anchor="middle" x="180" y="-55" font-family="Helvetica,sans-Serif" font-size="10.00">_t&lt; Trait &gt;</text>
</a>
</g>
</g>
<!-- Node0&#45;&gt;Node1 -->
<g id="edge12_Node000000_Node000001" class="edge">
<title>Node0&#45;&gt;Node1</title>
<g id="a_edge12_Node000000_Node000001"><a xlink:title=" ">
<path fill="none" stroke="#63b8ff" d="M99.31,-48.67C109.18,-50.45 119.43,-52.29 129.17,-54.04"/>
<polygon fill="#63b8ff" stroke="#63b8ff" points="99.67,-45.18 89.21,-46.86 98.44,-52.07 99.67,-45.18"/>
</a>
</g>
</g>
<!-- Node2 -->
<g id="Node000002" class="node">
<title>Node2</title>
<g id="a_Node000002"><a xlink:href="classcfgfile_1_1exception__t_3_01string__trait__t_01_4.html" target="_top" xlink:title=" ">
<polygon fill="white" stroke="#666666" points="235,-30 125,-30 125,0 235,0 235,-30"/>
<text text-anchor="start" x="133" y="-18" font-family="Helvetica,sans-Serif" font-size="10.00">cfgfile::exception</text>
<text text-anchor="middle" x="180" y="-7" font-family="Helvetica,sans-Serif" font-size="10.00">_t&lt; string_trait_t &gt;</text>
</a>
</g>
</g>
<!-- Node0&#45;&gt;Node2 -->
<g id="edge13_Node000000_Node000002" class="edge">
<title>Node0&#45;&gt;Node2</title>
<g id="a_edge13_Node000000_Node000002"><a xlink:title=" ">
<path fill="none" stroke="#63b8ff" d="M99.32,-29.32C107.76,-27.81 116.48,-26.24 124.92,-24.72"/>
<polygon fill="#63b8ff" stroke="#63b8ff" points="98.44,-25.93 89.21,-31.14 99.67,-32.82 98.44,-25.93"/>
</a>
</g>
</g>
</g>
</svg>
