<?xml version="1.0" encoding="UTF-8" standalone="no"?>
<!DOCTYPE svg PUBLIC "-//W3C//DTD SVG 1.1//EN"
 "http://www.w3.org/Graphics/SVG/1.1/DTD/svg11.dtd">
<!-- Generated by graphviz version 2.43.0 (0)
 -->
<!-- Title: input_stream.hpp Pages: 1 -->
<svg width="140pt" height="252pt"
 viewBox="0.00 0.00 139.50 252.00" xmlns="http://www.w3.org/2000/svg" xmlns:xlink="http://www.w3.org/1999/xlink">
<g id="graph0" class="graph" transform="scale(1 1) rotate(0) translate(4 248)">
<title>input_stream.hpp</title>
<!-- Node1 -->
<g id="node1" class="node">
<title>Node1</title>
<g id="a_node1"><a xlink:title=" ">
<polygon fill="#bfbfbf" stroke="black" points="0,-224.5 0,-243.5 102,-243.5 102,-224.5 0,-224.5"/>
<text text-anchor="middle" x="51" y="-231.5" font-family="Helvetica,sans-Serif" font-size="10.00">input_stream.hpp</text>
</a>
</g>
</g>
<!-- Node2 -->
<g id="node2" class="node">
<title>Node2</title>
<g id="a_node2"><a xlink:href="parser_8hpp.html" target="_top" xlink:title=" ">
<polygon fill="none" stroke="black" points="10,-112.5 10,-131.5 78,-131.5 78,-112.5 10,-112.5"/>
<text text-anchor="middle" x="44" y="-119.5" font-family="Helvetica,sans-Serif" font-size="10.00">parser.hpp</text>
</a>
</g>
</g>
<!-- Node1&#45;&gt;Node2 -->
<g id="edge1" class="edge">
<title>Node1&#45;&gt;Node2</title>
<path fill="none" stroke="midnightblue" d="M33.6,-216.82C26.37,-208.92 18.79,-198.79 15,-188 7.72,-167.24 24.58,-143.93 35.54,-131.65"/>
<polygon fill="midnightblue" stroke="midnightblue" points="31.33,-219.51 40.84,-224.19 36.33,-214.6 31.33,-219.51"/>
</g>
<!-- Node4 -->
<g id="node4" class="node">
<title>Node4</title>
<g id="a_node4"><a xlink:href="utils_8hpp.html" target="_top" xlink:title=" ">
<polygon fill="none" stroke="black" points="72.5,-56.5 72.5,-75.5 131.5,-75.5 131.5,-56.5 72.5,-56.5"/>
<text text-anchor="middle" x="102" y="-63.5" font-family="Helvetica,sans-Serif" font-size="10.00">utils.hpp</text>
</a>
</g>
</g>
<!-- Node1&#45;&gt;Node4 -->
<g id="edge7" class="edge">
<title>Node1&#45;&gt;Node4</title>
<path fill="none" stroke="midnightblue" d="M67.02,-216.8C74,-208.79 81.58,-198.57 86,-188 102.52,-148.51 102.93,-96 102.37,-75.61"/>
<polygon fill="midnightblue" stroke="midnightblue" points="64.32,-214.56 60.12,-224.29 69.47,-219.3 64.32,-214.56"/>
</g>
<!-- Node5 -->
<g id="node5" class="node">
<title>Node5</title>
<g id="a_node5"><a xlink:href="lex_8hpp.html" target="_top" xlink:title=" ">
<polygon fill="none" stroke="black" points="24.5,-168.5 24.5,-187.5 77.5,-187.5 77.5,-168.5 24.5,-168.5"/>
<text text-anchor="middle" x="51" y="-175.5" font-family="Helvetica,sans-Serif" font-size="10.00">lex.hpp</text>
</a>
</g>
</g>
<!-- Node1&#45;&gt;Node5 -->
<g id="edge5" class="edge">
<title>Node1&#45;&gt;Node5</title>
<path fill="none" stroke="midnightblue" d="M51,-213.8C51,-204.91 51,-194.78 51,-187.75"/>
<polygon fill="midnightblue" stroke="midnightblue" points="47.5,-214.08 51,-224.08 54.5,-214.08 47.5,-214.08"/>
</g>
<!-- Node3 -->
<g id="node3" class="node">
<title>Node3</title>
<g id="a_node3"><a xlink:href="all_8hpp.html" target="_top" xlink:title=" ">
<polygon fill="none" stroke="black" points="48,-0.5 48,-19.5 98,-19.5 98,-0.5 48,-0.5"/>
<text text-anchor="middle" x="73" y="-7.5" font-family="Helvetica,sans-Serif" font-size="10.00">all.hpp</text>
</a>
</g>
</g>
<!-- Node2&#45;&gt;Node3 -->
<g id="edge2" class="edge">
<title>Node2&#45;&gt;Node3</title>
<path fill="none" stroke="midnightblue" d="M48.83,-102.67C55.17,-78.62 66.04,-37.39 70.73,-19.59"/>
<polygon fill="midnightblue" stroke="midnightblue" points="45.44,-101.81 46.28,-112.37 52.21,-103.59 45.44,-101.81"/>
</g>
<!-- Node2&#45;&gt;Node4 -->
<g id="edge3" class="edge">
<title>Node2&#45;&gt;Node4</title>
<path fill="none" stroke="midnightblue" d="M60.91,-105.25C71.2,-95.67 83.97,-83.79 92.51,-75.83"/>
<polygon fill="midnightblue" stroke="midnightblue" points="58.25,-102.95 53.32,-112.32 63.02,-108.07 58.25,-102.95"/>
</g>
<!-- Node4&#45;&gt;Node3 -->
<g id="edge4" class="edge">
<title>Node4&#45;&gt;Node3</title>
<path fill="none" stroke="midnightblue" d="M92.32,-46.98C87.4,-37.82 81.64,-27.09 77.7,-19.75"/>
<polygon fill="midnightblue" stroke="midnightblue" points="89.4,-48.93 97.21,-56.08 95.56,-45.62 89.4,-48.93"/>
</g>
<!-- Node5&#45;&gt;Node2 -->
<g id="edge6" class="edge">
<title>Node5&#45;&gt;Node2</title>
<path fill="none" stroke="midnightblue" d="M48.55,-158.1C47.39,-149.14 46.06,-138.86 45.13,-131.75"/>
<polygon fill="midnightblue" stroke="midnightblue" points="45.09,-158.62 49.84,-168.08 52.03,-157.72 45.09,-158.62"/>
</g>
</g>
</svg>
