<?xml version="1.0" encoding="UTF-8" standalone="no"?>
<!DOCTYPE svg PUBLIC "-//W3C//DTD SVG 1.1//EN"
 "http://www.w3.org/Graphics/SVG/1.1/DTD/svg11.dtd">
<!-- Generated by graphviz version 2.38.0 (20140413.2041)
 -->
<!-- Title: input_stream.hpp Pages: 1 -->
<svg width="129pt" height="252pt"
 viewBox="0.00 0.00 128.50 252.00" xmlns="http://www.w3.org/2000/svg" xmlns:xlink="http://www.w3.org/1999/xlink">
<g id="graph0" class="graph" transform="scale(1 1) rotate(0) translate(4 248)">
<title>input_stream.hpp</title>
<!-- Node1 -->
<g id="node1" class="node"><title>Node1</title>
<polygon fill="#bfbfbf" stroke="black" points="0,-224.5 0,-243.5 92,-243.5 92,-224.5 0,-224.5"/>
<text text-anchor="middle" x="46" y="-231.5" font-family="Helvetica,sans-Serif" font-size="10.00">input_stream.hpp</text>
</g>
<!-- Node2 -->
<g id="node2" class="node"><title>Node2</title>
<g id="a_node2"><a xlink:href="parser_8hpp.html" target="_top" xlink:title="parser.hpp">
<polygon fill="none" stroke="black" points="8,-112.5 8,-131.5 70,-131.5 70,-112.5 8,-112.5"/>
<text text-anchor="middle" x="39" y="-119.5" font-family="Helvetica,sans-Serif" font-size="10.00">parser.hpp</text>
</a>
</g>
</g>
<!-- Node1&#45;&gt;Node2 -->
<g id="edge1" class="edge"><title>Node1&#45;&gt;Node2</title>
<path fill="none" stroke="midnightblue" d="M30.2855,-216.883C23.5731,-208.883 16.4899,-198.66 13,-188 6.26912,-167.44 21.4683,-144.046 31.3552,-131.699"/>
<polygon fill="midnightblue" stroke="midnightblue" points="27.6954,-219.237 36.9802,-224.34 32.9044,-214.561 27.6954,-219.237"/>
</g>
<!-- Node4 -->
<g id="node4" class="node"><title>Node4</title>
<g id="a_node4"><a xlink:href="utils_8hpp.html" target="_top" xlink:title="utils.hpp">
<polygon fill="none" stroke="black" points="67.5,-56.5 67.5,-75.5 120.5,-75.5 120.5,-56.5 67.5,-56.5"/>
<text text-anchor="middle" x="94" y="-63.5" font-family="Helvetica,sans-Serif" font-size="10.00">utils.hpp</text>
</a>
</g>
</g>
<!-- Node1&#45;&gt;Node4 -->
<g id="edge7" class="edge"><title>Node1&#45;&gt;Node4</title>
<path fill="none" stroke="midnightblue" d="M61.3373,-216.416C67.8646,-208.41 74.9034,-198.315 79,-188 94.7824,-148.26 94.9975,-95.8979 94.386,-75.5756"/>
<polygon fill="midnightblue" stroke="midnightblue" points="58.5063,-214.339 54.6187,-224.195 63.804,-218.915 58.5063,-214.339"/>
</g>
<!-- Node5 -->
<g id="node5" class="node"><title>Node5</title>
<g id="a_node5"><a xlink:href="lex_8hpp.html" target="_top" xlink:title="lex.hpp">
<polygon fill="none" stroke="black" points="22,-168.5 22,-187.5 70,-187.5 70,-168.5 22,-168.5"/>
<text text-anchor="middle" x="46" y="-175.5" font-family="Helvetica,sans-Serif" font-size="10.00">lex.hpp</text>
</a>
</g>
</g>
<!-- Node1&#45;&gt;Node5 -->
<g id="edge5" class="edge"><title>Node1&#45;&gt;Node5</title>
<path fill="none" stroke="midnightblue" d="M46,-213.805C46,-204.91 46,-194.78 46,-187.751"/>
<polygon fill="midnightblue" stroke="midnightblue" points="42.5001,-214.083 46,-224.083 49.5001,-214.083 42.5001,-214.083"/>
</g>
<!-- Node3 -->
<g id="node3" class="node"><title>Node3</title>
<g id="a_node3"><a xlink:href="all_8hpp.html" target="_top" xlink:title="all.hpp">
<polygon fill="none" stroke="black" points="43.5,-0.5 43.5,-19.5 88.5,-19.5 88.5,-0.5 43.5,-0.5"/>
<text text-anchor="middle" x="66" y="-7.5" font-family="Helvetica,sans-Serif" font-size="10.00">all.hpp</text>
</a>
</g>
</g>
<!-- Node2&#45;&gt;Node3 -->
<g id="edge2" class="edge"><title>Node2&#45;&gt;Node3</title>
<path fill="none" stroke="midnightblue" d="M43.5782,-102.348C49.4923,-78.2538 59.5426,-37.3079 63.8912,-19.5914"/>
<polygon fill="midnightblue" stroke="midnightblue" points="40.1034,-101.822 41.1186,-112.368 46.9016,-103.491 40.1034,-101.822"/>
</g>
<!-- Node2&#45;&gt;Node4 -->
<g id="edge3" class="edge"><title>Node2&#45;&gt;Node4</title>
<path fill="none" stroke="midnightblue" d="M55.2938,-105.002C65.0406,-95.4329 77.053,-83.6389 85.0869,-75.7511"/>
<polygon fill="midnightblue" stroke="midnightblue" points="52.7657,-102.58 48.0821,-112.083 57.6699,-107.575 52.7657,-102.58"/>
</g>
<!-- Node4&#45;&gt;Node3 -->
<g id="edge4" class="edge"><title>Node4&#45;&gt;Node3</title>
<path fill="none" stroke="midnightblue" d="M84.6577,-46.9827C79.905,-37.8168 74.3441,-27.0922 70.5376,-19.7511"/>
<polygon fill="midnightblue" stroke="midnightblue" points="81.666,-48.8166 89.3764,-56.083 87.8803,-45.5943 81.666,-48.8166"/>
</g>
<!-- Node5&#45;&gt;Node2 -->
<g id="edge6" class="edge"><title>Node5&#45;&gt;Node2</title>
<path fill="none" stroke="midnightblue" d="M43.5501,-158.101C42.388,-149.136 41.0557,-138.858 40.1344,-131.751"/>
<polygon fill="midnightblue" stroke="midnightblue" points="40.0875,-158.616 44.8441,-168.083 47.0294,-157.716 40.0875,-158.616"/>
</g>
</g>
</svg>
