<?xml version="1.0" encoding="UTF-8" standalone="no"?>
<!DOCTYPE svg PUBLIC "-//W3C//DTD SVG 1.1//EN"
 "http://www.w3.org/Graphics/SVG/1.1/DTD/svg11.dtd">
<!-- Generated by graphviz version 2.38.0 (20140413.2041)
 -->
<!-- Title: lex.hpp Pages: 1 -->
<svg width="434pt" height="252pt"
 viewBox="0.00 0.00 434.00 252.00" xmlns="http://www.w3.org/2000/svg" xmlns:xlink="http://www.w3.org/1999/xlink">
<g id="graph0" class="graph" transform="scale(1 1) rotate(0) translate(4 248)">
<title>lex.hpp</title>
<!-- Node1 -->
<g id="node1" class="node"><title>Node1</title>
<polygon fill="#bfbfbf" stroke="black" points="197.5,-224.5 197.5,-243.5 245.5,-243.5 245.5,-224.5 197.5,-224.5"/>
<text text-anchor="middle" x="221.5" y="-231.5" font-family="Helvetica,sans-Serif" font-size="10.00">lex.hpp</text>
</g>
<!-- Node2 -->
<g id="node2" class="node"><title>Node2</title>
<g id="a_node2"><a xlink:href="types_8hpp.html" target="_top" xlink:title="types.hpp">
<polygon fill="none" stroke="black" points="163,-56.5 163,-75.5 222,-75.5 222,-56.5 163,-56.5"/>
<text text-anchor="middle" x="192.5" y="-63.5" font-family="Helvetica,sans-Serif" font-size="10.00">types.hpp</text>
</a>
</g>
</g>
<!-- Node1&#45;&gt;Node2 -->
<g id="edge1" class="edge"><title>Node1&#45;&gt;Node2</title>
<path fill="none" stroke="midnightblue" d="M204.302,-224.386C191.249,-216.794 174.266,-204.389 166.5,-188 150.164,-153.528 168.992,-108.673 182.067,-84.4168"/>
<polygon fill="midnightblue" stroke="midnightblue" points="185.152,-86.0707 187.036,-75.6448 179.062,-82.6202 185.152,-86.0707"/>
</g>
<!-- Node9 -->
<g id="node9" class="node"><title>Node9</title>
<g id="a_node9"><a xlink:href="input__stream_8hpp.html" target="_top" xlink:title="input_stream.hpp">
<polygon fill="none" stroke="black" points="175.5,-168.5 175.5,-187.5 267.5,-187.5 267.5,-168.5 175.5,-168.5"/>
<text text-anchor="middle" x="221.5" y="-175.5" font-family="Helvetica,sans-Serif" font-size="10.00">input_stream.hpp</text>
</a>
</g>
</g>
<!-- Node1&#45;&gt;Node9 -->
<g id="edge8" class="edge"><title>Node1&#45;&gt;Node9</title>
<path fill="none" stroke="midnightblue" d="M221.5,-224.083C221.5,-217.006 221.5,-206.861 221.5,-197.986"/>
<polygon fill="midnightblue" stroke="midnightblue" points="225,-197.751 221.5,-187.751 218,-197.751 225,-197.751"/>
</g>
<!-- Node12 -->
<g id="node12" class="node"><title>Node12</title>
<g id="a_node12"><a xlink:href="exceptions_8hpp.html" target="_top" xlink:title="exceptions.hpp">
<polygon fill="none" stroke="black" points="297,-168.5 297,-187.5 380,-187.5 380,-168.5 297,-168.5"/>
<text text-anchor="middle" x="338.5" y="-175.5" font-family="Helvetica,sans-Serif" font-size="10.00">exceptions.hpp</text>
</a>
</g>
</g>
<!-- Node1&#45;&gt;Node12 -->
<g id="edge13" class="edge"><title>Node1&#45;&gt;Node12</title>
<path fill="none" stroke="midnightblue" d="M240.039,-224.444C259.123,-215.636 289.075,-201.812 310.936,-191.722"/>
<polygon fill="midnightblue" stroke="midnightblue" points="312.435,-194.885 320.048,-187.516 309.501,-188.529 312.435,-194.885"/>
</g>
<!-- Node3 -->
<g id="node3" class="node"><title>Node3</title>
<polygon fill="none" stroke="#bfbfbf" points="0,-0.5 0,-19.5 41,-19.5 41,-0.5 0,-0.5"/>
<text text-anchor="middle" x="20.5" y="-7.5" font-family="Helvetica,sans-Serif" font-size="10.00">string</text>
</g>
<!-- Node2&#45;&gt;Node3 -->
<g id="edge2" class="edge"><title>Node2&#45;&gt;Node3</title>
<path fill="none" stroke="midnightblue" d="M165.246,-56.4435C134.133,-46.6756 83.3707,-30.7385 50.9735,-20.5673"/>
<polygon fill="midnightblue" stroke="midnightblue" points="51.7376,-17.1388 41.1484,-17.4826 49.6408,-23.8174 51.7376,-17.1388"/>
</g>
<!-- Node4 -->
<g id="node4" class="node"><title>Node4</title>
<polygon fill="none" stroke="#bfbfbf" points="59.5,-0.5 59.5,-19.5 113.5,-19.5 113.5,-0.5 59.5,-0.5"/>
<text text-anchor="middle" x="86.5" y="-7.5" font-family="Helvetica,sans-Serif" font-size="10.00">iostream</text>
</g>
<!-- Node2&#45;&gt;Node4 -->
<g id="edge3" class="edge"><title>Node2&#45;&gt;Node4</title>
<path fill="none" stroke="midnightblue" d="M175.469,-56.324C158.47,-47.6641 132.124,-34.2424 112.507,-24.249"/>
<polygon fill="midnightblue" stroke="midnightblue" points="113.988,-21.0752 103.488,-19.6545 110.81,-27.3125 113.988,-21.0752"/>
</g>
<!-- Node5 -->
<g id="node5" class="node"><title>Node5</title>
<polygon fill="none" stroke="#bfbfbf" points="132,-0.5 132,-19.5 185,-19.5 185,-0.5 132,-0.5"/>
<text text-anchor="middle" x="158.5" y="-7.5" font-family="Helvetica,sans-Serif" font-size="10.00">cwctype</text>
</g>
<!-- Node2&#45;&gt;Node5 -->
<g id="edge4" class="edge"><title>Node2&#45;&gt;Node5</title>
<path fill="none" stroke="midnightblue" d="M186.886,-56.083C182.133,-48.5341 175.182,-37.4948 169.348,-28.2298"/>
<polygon fill="midnightblue" stroke="midnightblue" points="172.3,-26.3486 164.01,-19.7511 166.376,-30.0783 172.3,-26.3486"/>
</g>
<!-- Node6 -->
<g id="node6" class="node"><title>Node6</title>
<polygon fill="none" stroke="#bfbfbf" points="203.5,-0.5 203.5,-19.5 249.5,-19.5 249.5,-0.5 203.5,-0.5"/>
<text text-anchor="middle" x="226.5" y="-7.5" font-family="Helvetica,sans-Serif" font-size="10.00">cctype</text>
</g>
<!-- Node2&#45;&gt;Node6 -->
<g id="edge5" class="edge"><title>Node2&#45;&gt;Node6</title>
<path fill="none" stroke="midnightblue" d="M198.114,-56.083C202.867,-48.5341 209.818,-37.4948 215.652,-28.2298"/>
<polygon fill="midnightblue" stroke="midnightblue" points="218.624,-30.0783 220.99,-19.7511 212.7,-26.3486 218.624,-30.0783"/>
</g>
<!-- Node7 -->
<g id="node7" class="node"><title>Node7</title>
<polygon fill="none" stroke="#bfbfbf" points="267.5,-0.5 267.5,-19.5 317.5,-19.5 317.5,-0.5 267.5,-0.5"/>
<text text-anchor="middle" x="292.5" y="-7.5" font-family="Helvetica,sans-Serif" font-size="10.00">QString</text>
</g>
<!-- Node2&#45;&gt;Node7 -->
<g id="edge6" class="edge"><title>Node2&#45;&gt;Node7</title>
<path fill="none" stroke="midnightblue" d="M208.567,-56.324C224.458,-47.7428 249.007,-34.486 267.458,-24.5224"/>
<polygon fill="midnightblue" stroke="midnightblue" points="269.337,-27.4857 276.473,-19.6545 266.011,-21.3264 269.337,-27.4857"/>
</g>
<!-- Node8 -->
<g id="node8" class="node"><title>Node8</title>
<polygon fill="none" stroke="#bfbfbf" points="336,-0.5 336,-19.5 411,-19.5 411,-0.5 336,-0.5"/>
<text text-anchor="middle" x="373.5" y="-7.5" font-family="Helvetica,sans-Serif" font-size="10.00">QTextStream</text>
</g>
<!-- Node2&#45;&gt;Node8 -->
<g id="edge7" class="edge"><title>Node2&#45;&gt;Node8</title>
<path fill="none" stroke="midnightblue" d="M221.18,-56.4435C252.027,-47.2406 301.228,-32.5617 335.329,-22.3879"/>
<polygon fill="midnightblue" stroke="midnightblue" points="336.372,-25.7293 344.954,-19.5164 334.371,-19.0215 336.372,-25.7293"/>
</g>
<!-- Node9&#45;&gt;Node2 -->
<g id="edge9" class="edge"><title>Node9&#45;&gt;Node2</title>
<path fill="none" stroke="midnightblue" d="M210.51,-168.365C201.047,-160.171 188.064,-146.917 182.5,-132 176.832,-116.806 180.532,-98.4639 184.949,-85.1436"/>
<polygon fill="midnightblue" stroke="midnightblue" points="188.258,-86.2861 188.48,-75.6936 181.701,-83.8359 188.258,-86.2861"/>
</g>
<!-- Node10 -->
<g id="node10" class="node"><title>Node10</title>
<g id="a_node10"><a xlink:href="const_8hpp.html" target="_top" xlink:title="const.hpp">
<polygon fill="none" stroke="black" points="192,-112.5 192,-131.5 251,-131.5 251,-112.5 192,-112.5"/>
<text text-anchor="middle" x="221.5" y="-119.5" font-family="Helvetica,sans-Serif" font-size="10.00">const.hpp</text>
</a>
</g>
</g>
<!-- Node9&#45;&gt;Node10 -->
<g id="edge10" class="edge"><title>Node9&#45;&gt;Node10</title>
<path fill="none" stroke="midnightblue" d="M221.5,-168.083C221.5,-161.006 221.5,-150.861 221.5,-141.986"/>
<polygon fill="midnightblue" stroke="midnightblue" points="225,-141.751 221.5,-131.751 218,-141.751 225,-141.751"/>
</g>
<!-- Node11 -->
<g id="node11" class="node"><title>Node11</title>
<polygon fill="none" stroke="#bfbfbf" points="269,-112.5 269,-131.5 310,-131.5 310,-112.5 269,-112.5"/>
<text text-anchor="middle" x="289.5" y="-119.5" font-family="Helvetica,sans-Serif" font-size="10.00">stack</text>
</g>
<!-- Node9&#45;&gt;Node11 -->
<g id="edge12" class="edge"><title>Node9&#45;&gt;Node11</title>
<path fill="none" stroke="midnightblue" d="M232.425,-168.324C242.675,-160.185 258.221,-147.839 270.501,-138.087"/>
<polygon fill="midnightblue" stroke="midnightblue" points="272.721,-140.794 278.376,-131.834 268.368,-135.312 272.721,-140.794"/>
</g>
<!-- Node10&#45;&gt;Node2 -->
<g id="edge11" class="edge"><title>Node10&#45;&gt;Node2</title>
<path fill="none" stroke="midnightblue" d="M216.711,-112.083C212.742,-104.691 206.975,-93.9533 202.065,-84.8111"/>
<polygon fill="midnightblue" stroke="midnightblue" points="205.014,-82.9051 197.2,-75.7511 198.847,-86.217 205.014,-82.9051"/>
</g>
<!-- Node12&#45;&gt;Node2 -->
<g id="edge15" class="edge"><title>Node12&#45;&gt;Node2</title>
<path fill="none" stroke="midnightblue" d="M338.207,-168.193C337.278,-154.41 333.516,-127.7 318.5,-112 295.864,-88.3331 259.944,-77.0857 232.238,-71.7565"/>
<polygon fill="midnightblue" stroke="midnightblue" points="232.517,-68.2527 222.066,-69.9902 231.319,-75.1495 232.517,-68.2527"/>
</g>
<!-- Node13 -->
<g id="node13" class="node"><title>Node13</title>
<polygon fill="none" stroke="#bfbfbf" points="367,-112.5 367,-131.5 426,-131.5 426,-112.5 367,-112.5"/>
<text text-anchor="middle" x="396.5" y="-119.5" font-family="Helvetica,sans-Serif" font-size="10.00">stdexcept</text>
</g>
<!-- Node12&#45;&gt;Node13 -->
<g id="edge14" class="edge"><title>Node12&#45;&gt;Node13</title>
<path fill="none" stroke="midnightblue" d="M347.819,-168.324C356.393,-160.341 369.312,-148.313 379.688,-138.653"/>
<polygon fill="midnightblue" stroke="midnightblue" points="382.078,-141.21 387.012,-131.834 377.308,-136.086 382.078,-141.21"/>
</g>
</g>
</svg>
