<?xml version="1.0" encoding="UTF-8" standalone="no"?>
<!DOCTYPE svg PUBLIC "-//W3C//DTD SVG 1.1//EN"
 "http://www.w3.org/Graphics/SVG/1.1/DTD/svg11.dtd">
<!-- Generated by graphviz version 2.43.0 (0)
 -->
<!-- Title: lex.hpp Pages: 1 -->
<svg width="507pt" height="247pt"
 viewBox="0.00 0.00 507.00 247.00" xmlns="http://www.w3.org/2000/svg" xmlns:xlink="http://www.w3.org/1999/xlink">
<g id="graph0" class="graph" transform="scale(1 1) rotate(0) translate(4 243)">
<title>lex.hpp</title>
<!-- Node1 -->
<g id="Node000001" class="node">
<title>Node1</title>
<g id="a_Node000001"><a xlink:title=" ">
<polygon fill="#999999" stroke="#666666" points="296.5,-239 243.5,-239 243.5,-220 296.5,-220 296.5,-239"/>
<text text-anchor="middle" x="270" y="-227" font-family="Helvetica,sans-Serif" font-size="10.00">lex.hpp</text>
</a>
</g>
</g>
<!-- Node2 -->
<g id="Node000002" class="node">
<title>Node2</title>
<g id="a_Node000002"><a xlink:href="types_8hpp.html" target="_top" xlink:title=" ">
<polygon fill="white" stroke="#666666" points="272.5,-74 207.5,-74 207.5,-55 272.5,-55 272.5,-74"/>
<text text-anchor="middle" x="240" y="-62" font-family="Helvetica,sans-Serif" font-size="10.00">types.hpp</text>
</a>
</g>
</g>
<!-- Node1&#45;&gt;Node2 -->
<g id="edge1_Node000001_Node000002" class="edge">
<title>Node1&#45;&gt;Node2</title>
<g id="a_edge1_Node000001_Node000002"><a xlink:title=" ">
<path fill="none" stroke="#63b8ff" d="M250.42,-219.98C236.33,-212.68 218.4,-200.68 210,-184 193.14,-150.51 213.84,-106.81 228.28,-82.94"/>
<polygon fill="#63b8ff" stroke="#63b8ff" points="231.38,-84.6 233.79,-74.28 225.47,-80.85 231.38,-84.6"/>
</a>
</g>
</g>
<!-- Node10 -->
<g id="Node000010" class="node">
<title>Node10</title>
<g id="a_Node000010"><a xlink:href="input__stream_8hpp.html" target="_top" xlink:title=" ">
<polygon fill="white" stroke="#666666" points="321,-184 219,-184 219,-165 321,-165 321,-184"/>
<text text-anchor="middle" x="270" y="-172" font-family="Helvetica,sans-Serif" font-size="10.00">input_stream.hpp</text>
</a>
</g>
</g>
<!-- Node1&#45;&gt;Node10 -->
<g id="edge9_Node000001_Node000010" class="edge">
<title>Node1&#45;&gt;Node10</title>
<g id="a_edge9_Node000001_Node000010"><a xlink:title=" ">
<path fill="none" stroke="#63b8ff" d="M270,-219.75C270,-212.8 270,-202.85 270,-194.13"/>
<polygon fill="#63b8ff" stroke="#63b8ff" points="273.5,-194.09 270,-184.09 266.5,-194.09 273.5,-194.09"/>
</a>
</g>
</g>
<!-- Node13 -->
<g id="Node000013" class="node">
<title>Node13</title>
<g id="a_Node000013"><a xlink:href="exceptions_8hpp.html" target="_top" xlink:title=" ">
<polygon fill="white" stroke="#666666" points="437.5,-184 346.5,-184 346.5,-165 437.5,-165 437.5,-184"/>
<text text-anchor="middle" x="392" y="-172" font-family="Helvetica,sans-Serif" font-size="10.00">exceptions.hpp</text>
</a>
</g>
</g>
<!-- Node1&#45;&gt;Node13 -->
<g id="edge14_Node000001_Node000013" class="edge">
<title>Node1&#45;&gt;Node13</title>
<g id="a_edge14_Node000001_Node000013"><a xlink:title=" ">
<path fill="none" stroke="#63b8ff" d="M289.6,-219.98C309.32,-211.42 339.95,-198.11 362.58,-188.28"/>
<polygon fill="#63b8ff" stroke="#63b8ff" points="364.26,-191.37 372.04,-184.17 361.48,-184.94 364.26,-191.37"/>
</a>
</g>
</g>
<!-- Node3 -->
<g id="Node000003" class="node">
<title>Node3</title>
<g id="a_Node000003"><a xlink:title=" ">
<polygon fill="#e0e0e0" stroke="#999999" points="44,-19 0,-19 0,0 44,0 44,-19"/>
<text text-anchor="middle" x="22" y="-7" font-family="Helvetica,sans-Serif" font-size="10.00">string</text>
</a>
</g>
</g>
<!-- Node2&#45;&gt;Node3 -->
<g id="edge2_Node000002_Node000003" class="edge">
<title>Node2&#45;&gt;Node3</title>
<g id="a_edge2_Node000002_Node000003"><a xlink:title=" ">
<path fill="none" stroke="#63b8ff" d="M207.49,-56.12C172.09,-48 113.58,-34.36 54.24,-19.25"/>
<polygon fill="#63b8ff" stroke="#63b8ff" points="54.88,-15.81 44.33,-16.72 53.15,-22.59 54.88,-15.81"/>
</a>
</g>
</g>
<!-- Node4 -->
<g id="Node000004" class="node">
<title>Node4</title>
<g id="a_Node000004"><a xlink:title=" ">
<polygon fill="#e0e0e0" stroke="#999999" points="122,-19 62,-19 62,0 122,0 122,-19"/>
<text text-anchor="middle" x="92" y="-7" font-family="Helvetica,sans-Serif" font-size="10.00">iostream</text>
</a>
</g>
</g>
<!-- Node2&#45;&gt;Node4 -->
<g id="edge3_Node000002_Node000004" class="edge">
<title>Node2&#45;&gt;Node4</title>
<g id="a_edge3_Node000002_Node000004"><a xlink:title=" ">
<path fill="none" stroke="#63b8ff" d="M216.22,-54.98C191.77,-46.23 153.47,-32.51 125.85,-22.62"/>
<polygon fill="#63b8ff" stroke="#63b8ff" points="126.81,-19.25 116.21,-19.17 124.45,-25.84 126.81,-19.25"/>
</a>
</g>
</g>
<!-- Node5 -->
<g id="Node000005" class="node">
<title>Node5</title>
<g id="a_Node000005"><a xlink:title=" ">
<polygon fill="#e0e0e0" stroke="#999999" points="197.5,-19 140.5,-19 140.5,0 197.5,0 197.5,-19"/>
<text text-anchor="middle" x="169" y="-7" font-family="Helvetica,sans-Serif" font-size="10.00">cwctype</text>
</a>
</g>
</g>
<!-- Node2&#45;&gt;Node5 -->
<g id="edge4_Node000002_Node000005" class="edge">
<title>Node2&#45;&gt;Node5</title>
<g id="a_edge4_Node000002_Node000005"><a xlink:title=" ">
<path fill="none" stroke="#63b8ff" d="M228.59,-54.98C217.89,-47 201.66,-34.88 188.84,-25.31"/>
<polygon fill="#63b8ff" stroke="#63b8ff" points="190.72,-22.35 180.61,-19.17 186.53,-27.96 190.72,-22.35"/>
</a>
</g>
</g>
<!-- Node6 -->
<g id="Node000006" class="node">
<title>Node6</title>
<g id="a_Node000006"><a xlink:title=" ">
<polygon fill="#e0e0e0" stroke="#999999" points="264.5,-19 215.5,-19 215.5,0 264.5,0 264.5,-19"/>
<text text-anchor="middle" x="240" y="-7" font-family="Helvetica,sans-Serif" font-size="10.00">cctype</text>
</a>
</g>
</g>
<!-- Node2&#45;&gt;Node6 -->
<g id="edge5_Node000002_Node000006" class="edge">
<title>Node2&#45;&gt;Node6</title>
<g id="a_edge5_Node000002_Node000006"><a xlink:title=" ">
<path fill="none" stroke="#63b8ff" d="M240,-54.75C240,-47.8 240,-37.85 240,-29.13"/>
<polygon fill="#63b8ff" stroke="#63b8ff" points="243.5,-29.09 240,-19.09 236.5,-29.09 243.5,-29.09"/>
</a>
</g>
</g>
<!-- Node7 -->
<g id="Node000007" class="node">
<title>Node7</title>
<g id="a_Node000007"><a xlink:title=" ">
<polygon fill="#e0e0e0" stroke="#999999" points="329.5,-19 282.5,-19 282.5,0 329.5,0 329.5,-19"/>
<text text-anchor="middle" x="306" y="-7" font-family="Helvetica,sans-Serif" font-size="10.00">vector</text>
</a>
</g>
</g>
<!-- Node2&#45;&gt;Node7 -->
<g id="edge6_Node000002_Node000007" class="edge">
<title>Node2&#45;&gt;Node7</title>
<g id="a_edge6_Node000002_Node000007"><a xlink:title=" ">
<path fill="none" stroke="#63b8ff" d="M250.6,-54.98C260.46,-47.07 275.35,-35.11 287.22,-25.58"/>
<polygon fill="#63b8ff" stroke="#63b8ff" points="289.6,-28.16 295.2,-19.17 285.21,-22.7 289.6,-28.16"/>
</a>
</g>
</g>
<!-- Node8 -->
<g id="Node000008" class="node">
<title>Node8</title>
<g id="a_Node000008"><a xlink:title=" ">
<polygon fill="#e0e0e0" stroke="#999999" points="400.5,-19 347.5,-19 347.5,0 400.5,0 400.5,-19"/>
<text text-anchor="middle" x="374" y="-7" font-family="Helvetica,sans-Serif" font-size="10.00">QString</text>
</a>
</g>
</g>
<!-- Node2&#45;&gt;Node8 -->
<g id="edge7_Node000002_Node000008" class="edge">
<title>Node2&#45;&gt;Node8</title>
<g id="a_edge7_Node000002_Node000008"><a xlink:title=" ">
<path fill="none" stroke="#63b8ff" d="M261.53,-54.98C283.47,-46.3 317.74,-32.75 342.69,-22.88"/>
<polygon fill="#63b8ff" stroke="#63b8ff" points="344.07,-26.1 352.08,-19.17 341.49,-19.59 344.07,-26.1"/>
</a>
</g>
</g>
<!-- Node9 -->
<g id="Node000009" class="node">
<title>Node9</title>
<g id="a_Node000009"><a xlink:title=" ">
<polygon fill="#e0e0e0" stroke="#999999" points="499,-19 419,-19 419,0 499,0 499,-19"/>
<text text-anchor="middle" x="459" y="-7" font-family="Helvetica,sans-Serif" font-size="10.00">QTextStream</text>
</a>
</g>
</g>
<!-- Node2&#45;&gt;Node9 -->
<g id="edge8_Node000002_Node000009" class="edge">
<title>Node2&#45;&gt;Node9</title>
<g id="a_edge8_Node000002_Node000009"><a xlink:title=" ">
<path fill="none" stroke="#63b8ff" d="M272.79,-55.57C310.27,-46.49 371.84,-31.59 413.84,-21.43"/>
<polygon fill="#63b8ff" stroke="#63b8ff" points="414.91,-24.77 423.81,-19.02 413.27,-17.97 414.91,-24.77"/>
</a>
</g>
</g>
<!-- Node10&#45;&gt;Node2 -->
<g id="edge10_Node000010_Node000002" class="edge">
<title>Node10&#45;&gt;Node2</title>
<g id="a_edge10_Node000010_Node000002"><a xlink:title=" ">
<path fill="none" stroke="#63b8ff" d="M258.07,-164.8C248.17,-156.77 234.81,-143.87 229,-129 223.28,-114.34 227.16,-96.63 231.82,-83.64"/>
<polygon fill="#63b8ff" stroke="#63b8ff" points="235.22,-84.59 235.73,-74.01 228.73,-81.96 235.22,-84.59"/>
</a>
</g>
</g>
<!-- Node11 -->
<g id="Node000011" class="node">
<title>Node11</title>
<g id="a_Node000011"><a xlink:href="const_8hpp.html" target="_top" xlink:title=" ">
<polygon fill="white" stroke="#666666" points="302,-129 238,-129 238,-110 302,-110 302,-129"/>
<text text-anchor="middle" x="270" y="-117" font-family="Helvetica,sans-Serif" font-size="10.00">const.hpp</text>
</a>
</g>
</g>
<!-- Node10&#45;&gt;Node11 -->
<g id="edge11_Node000010_Node000011" class="edge">
<title>Node10&#45;&gt;Node11</title>
<g id="a_edge11_Node000010_Node000011"><a xlink:title=" ">
<path fill="none" stroke="#63b8ff" d="M270,-164.75C270,-157.8 270,-147.85 270,-139.13"/>
<polygon fill="#63b8ff" stroke="#63b8ff" points="273.5,-139.09 270,-129.09 266.5,-139.09 273.5,-139.09"/>
</a>
</g>
</g>
<!-- Node12 -->
<g id="Node000012" class="node">
<title>Node12</title>
<g id="a_Node000012"><a xlink:title=" ">
<polygon fill="#e0e0e0" stroke="#999999" points="363.5,-129 320.5,-129 320.5,-110 363.5,-110 363.5,-129"/>
<text text-anchor="middle" x="342" y="-117" font-family="Helvetica,sans-Serif" font-size="10.00">stack</text>
</a>
</g>
</g>
<!-- Node10&#45;&gt;Node12 -->
<g id="edge13_Node000010_Node000012" class="edge">
<title>Node10&#45;&gt;Node12</title>
<g id="a_edge13_Node000010_Node000012"><a xlink:title=" ">
<path fill="none" stroke="#63b8ff" d="M281.57,-164.98C292.42,-157 308.88,-144.88 321.88,-135.31"/>
<polygon fill="#63b8ff" stroke="#63b8ff" points="324.24,-137.92 330.22,-129.17 320.09,-132.28 324.24,-137.92"/>
</a>
</g>
</g>
<!-- Node11&#45;&gt;Node2 -->
<g id="edge12_Node000011_Node000002" class="edge">
<title>Node11&#45;&gt;Node2</title>
<g id="a_edge12_Node000011_Node000002"><a xlink:title=" ">
<path fill="none" stroke="#63b8ff" d="M265.05,-109.75C260.94,-102.49 254.97,-91.95 249.9,-82.98"/>
<polygon fill="#63b8ff" stroke="#63b8ff" points="252.83,-81.07 244.86,-74.09 246.74,-84.52 252.83,-81.07"/>
</a>
</g>
</g>
<!-- Node13&#45;&gt;Node2 -->
<g id="edge16_Node000013_Node000002" class="edge">
<title>Node13&#45;&gt;Node2</title>
<g id="a_edge16_Node000013_Node000002"><a xlink:title=" ">
<path fill="none" stroke="#63b8ff" d="M391.68,-164.86C390.71,-151.35 386.89,-125.19 372,-110 348.48,-86 311.61,-74.95 282.81,-69.85"/>
<polygon fill="#63b8ff" stroke="#63b8ff" points="283.03,-66.34 272.6,-68.23 281.93,-73.26 283.03,-66.34"/>
</a>
</g>
</g>
<!-- Node14 -->
<g id="Node000014" class="node">
<title>Node14</title>
<g id="a_Node000014"><a xlink:title=" ">
<polygon fill="#e0e0e0" stroke="#999999" points="485.5,-129 420.5,-129 420.5,-110 485.5,-110 485.5,-129"/>
<text text-anchor="middle" x="453" y="-117" font-family="Helvetica,sans-Serif" font-size="10.00">stdexcept</text>
</a>
</g>
</g>
<!-- Node13&#45;&gt;Node14 -->
<g id="edge15_Node000013_Node000014" class="edge">
<title>Node13&#45;&gt;Node14</title>
<g id="a_edge15_Node000013_Node000014"><a xlink:title=" ">
<path fill="none" stroke="#63b8ff" d="M401.8,-164.98C410.82,-157.15 424.41,-145.34 435.32,-135.86"/>
<polygon fill="#63b8ff" stroke="#63b8ff" points="437.77,-138.37 443.02,-129.17 433.18,-133.09 437.77,-138.37"/>
</a>
</g>
</g>
</g>
</svg>
