<?xml version="1.0" encoding="UTF-8" standalone="no"?>
<!DOCTYPE svg PUBLIC "-//W3C//DTD SVG 1.1//EN"
 "http://www.w3.org/Graphics/SVG/1.1/DTD/svg11.dtd">
<!-- Generated by graphviz version 2.43.0 (0)
 -->
<!-- Title: lex.hpp Pages: 1 -->
<svg width="458pt" height="252pt"
 viewBox="0.00 0.00 457.50 252.00" xmlns="http://www.w3.org/2000/svg" xmlns:xlink="http://www.w3.org/1999/xlink">
<g id="graph0" class="graph" transform="scale(1 1) rotate(0) translate(4 248)">
<title>lex.hpp</title>
<!-- Node1 -->
<g id="node1" class="node">
<title>Node1</title>
<g id="a_node1"><a xlink:title=" ">
<polygon fill="#bfbfbf" stroke="black" points="207.5,-224.5 207.5,-243.5 260.5,-243.5 260.5,-224.5 207.5,-224.5"/>
<text text-anchor="middle" x="234" y="-231.5" font-family="Helvetica,sans-Serif" font-size="10.00">lex.hpp</text>
</a>
</g>
</g>
<!-- Node2 -->
<g id="node2" class="node">
<title>Node2</title>
<g id="a_node2"><a xlink:href="types_8hpp.html" target="_top" xlink:title=" ">
<polygon fill="none" stroke="black" points="171.5,-56.5 171.5,-75.5 236.5,-75.5 236.5,-56.5 171.5,-56.5"/>
<text text-anchor="middle" x="204" y="-63.5" font-family="Helvetica,sans-Serif" font-size="10.00">types.hpp</text>
</a>
</g>
</g>
<!-- Node1&#45;&gt;Node2 -->
<g id="edge1" class="edge">
<title>Node1&#45;&gt;Node2</title>
<path fill="none" stroke="midnightblue" d="M214.7,-224.48C200.57,-217.08 182.44,-204.89 174,-188 156.82,-153.63 177.9,-108.74 192.43,-84.45"/>
<polygon fill="midnightblue" stroke="midnightblue" points="195.59,-85.99 197.95,-75.66 189.67,-82.27 195.59,-85.99"/>
</g>
<!-- Node9 -->
<g id="node9" class="node">
<title>Node9</title>
<g id="a_node9"><a xlink:href="input__stream_8hpp.html" target="_top" xlink:title=" ">
<polygon fill="none" stroke="black" points="183,-168.5 183,-187.5 285,-187.5 285,-168.5 183,-168.5"/>
<text text-anchor="middle" x="234" y="-175.5" font-family="Helvetica,sans-Serif" font-size="10.00">input_stream.hpp</text>
</a>
</g>
</g>
<!-- Node1&#45;&gt;Node9 -->
<g id="edge8" class="edge">
<title>Node1&#45;&gt;Node9</title>
<path fill="none" stroke="midnightblue" d="M234,-224.08C234,-217.01 234,-206.86 234,-197.99"/>
<polygon fill="midnightblue" stroke="midnightblue" points="237.5,-197.75 234,-187.75 230.5,-197.75 237.5,-197.75"/>
</g>
<!-- Node12 -->
<g id="node12" class="node">
<title>Node12</title>
<g id="a_node12"><a xlink:href="exceptions_8hpp.html" target="_top" xlink:title=" ">
<polygon fill="none" stroke="black" points="310.5,-168.5 310.5,-187.5 401.5,-187.5 401.5,-168.5 310.5,-168.5"/>
<text text-anchor="middle" x="356" y="-175.5" font-family="Helvetica,sans-Serif" font-size="10.00">exceptions.hpp</text>
</a>
</g>
</g>
<!-- Node1&#45;&gt;Node12 -->
<g id="edge13" class="edge">
<title>Node1&#45;&gt;Node12</title>
<path fill="none" stroke="midnightblue" d="M253.33,-224.44C273.32,-215.6 304.74,-201.69 327.56,-191.59"/>
<polygon fill="midnightblue" stroke="midnightblue" points="329.03,-194.76 336.76,-187.52 326.2,-188.36 329.03,-194.76"/>
</g>
<!-- Node3 -->
<g id="node3" class="node">
<title>Node3</title>
<g id="a_node3"><a xlink:title=" ">
<polygon fill="none" stroke="#bfbfbf" points="0,-0.5 0,-19.5 44,-19.5 44,-0.5 0,-0.5"/>
<text text-anchor="middle" x="22" y="-7.5" font-family="Helvetica,sans-Serif" font-size="10.00">string</text>
</a>
</g>
</g>
<!-- Node2&#45;&gt;Node3 -->
<g id="edge2" class="edge">
<title>Node2&#45;&gt;Node3</title>
<path fill="none" stroke="midnightblue" d="M175.16,-56.44C142.19,-46.66 88.36,-30.69 54.08,-20.52"/>
<polygon fill="midnightblue" stroke="midnightblue" points="54.7,-17.05 44.12,-17.56 52.71,-23.76 54.7,-17.05"/>
</g>
<!-- Node4 -->
<g id="node4" class="node">
<title>Node4</title>
<g id="a_node4"><a xlink:title=" ">
<polygon fill="none" stroke="#bfbfbf" points="62,-0.5 62,-19.5 122,-19.5 122,-0.5 62,-0.5"/>
<text text-anchor="middle" x="92" y="-7.5" font-family="Helvetica,sans-Serif" font-size="10.00">iostream</text>
</a>
</g>
</g>
<!-- Node2&#45;&gt;Node4 -->
<g id="edge3" class="edge">
<title>Node2&#45;&gt;Node4</title>
<path fill="none" stroke="midnightblue" d="M186.01,-56.32C167.96,-47.62 139.95,-34.12 119.2,-24.11"/>
<polygon fill="midnightblue" stroke="midnightblue" points="120.48,-20.84 109.95,-19.65 117.44,-27.15 120.48,-20.84"/>
</g>
<!-- Node5 -->
<g id="node5" class="node">
<title>Node5</title>
<g id="a_node5"><a xlink:title=" ">
<polygon fill="none" stroke="#bfbfbf" points="140.5,-0.5 140.5,-19.5 197.5,-19.5 197.5,-0.5 140.5,-0.5"/>
<text text-anchor="middle" x="169" y="-7.5" font-family="Helvetica,sans-Serif" font-size="10.00">cwctype</text>
</a>
</g>
</g>
<!-- Node2&#45;&gt;Node5 -->
<g id="edge4" class="edge">
<title>Node2&#45;&gt;Node5</title>
<path fill="none" stroke="midnightblue" d="M198.22,-56.08C193.33,-48.53 186.17,-37.49 180.17,-28.23"/>
<polygon fill="midnightblue" stroke="midnightblue" points="183.05,-26.24 174.67,-19.75 177.17,-30.05 183.05,-26.24"/>
</g>
<!-- Node6 -->
<g id="node6" class="node">
<title>Node6</title>
<g id="a_node6"><a xlink:title=" ">
<polygon fill="none" stroke="#bfbfbf" points="215.5,-0.5 215.5,-19.5 264.5,-19.5 264.5,-0.5 215.5,-0.5"/>
<text text-anchor="middle" x="240" y="-7.5" font-family="Helvetica,sans-Serif" font-size="10.00">cctype</text>
</a>
</g>
</g>
<!-- Node2&#45;&gt;Node6 -->
<g id="edge5" class="edge">
<title>Node2&#45;&gt;Node6</title>
<path fill="none" stroke="midnightblue" d="M209.94,-56.08C214.98,-48.53 222.34,-37.49 228.51,-28.23"/>
<polygon fill="midnightblue" stroke="midnightblue" points="231.53,-30.01 234.17,-19.75 225.71,-26.13 231.53,-30.01"/>
</g>
<!-- Node7 -->
<g id="node7" class="node">
<title>Node7</title>
<g id="a_node7"><a xlink:title=" ">
<polygon fill="none" stroke="#bfbfbf" points="282.5,-0.5 282.5,-19.5 335.5,-19.5 335.5,-0.5 282.5,-0.5"/>
<text text-anchor="middle" x="309" y="-7.5" font-family="Helvetica,sans-Serif" font-size="10.00">QString</text>
</a>
</g>
</g>
<!-- Node2&#45;&gt;Node7 -->
<g id="edge6" class="edge">
<title>Node2&#45;&gt;Node7</title>
<path fill="none" stroke="midnightblue" d="M220.87,-56.32C237.71,-47.66 263.81,-34.24 283.24,-24.25"/>
<polygon fill="midnightblue" stroke="midnightblue" points="284.88,-27.34 292.17,-19.65 281.68,-21.12 284.88,-27.34"/>
</g>
<!-- Node8 -->
<g id="node8" class="node">
<title>Node8</title>
<g id="a_node8"><a xlink:title=" ">
<polygon fill="none" stroke="#bfbfbf" points="354,-0.5 354,-19.5 434,-19.5 434,-0.5 354,-0.5"/>
<text text-anchor="middle" x="394" y="-7.5" font-family="Helvetica,sans-Serif" font-size="10.00">QTextStream</text>
</a>
</g>
</g>
<!-- Node2&#45;&gt;Node8 -->
<g id="edge7" class="edge">
<title>Node2&#45;&gt;Node8</title>
<path fill="none" stroke="midnightblue" d="M234.11,-56.44C266.63,-47.2 318.58,-32.44 354.39,-22.26"/>
<polygon fill="midnightblue" stroke="midnightblue" points="355.37,-25.62 364.03,-19.52 353.46,-18.88 355.37,-25.62"/>
</g>
<!-- Node9&#45;&gt;Node2 -->
<g id="edge9" class="edge">
<title>Node9&#45;&gt;Node2</title>
<path fill="none" stroke="midnightblue" d="M222.46,-168.49C212.52,-160.38 198.88,-147.18 193,-132 187.13,-116.84 191.16,-98.49 195.91,-85.16"/>
<polygon fill="midnightblue" stroke="midnightblue" points="199.23,-86.29 199.7,-75.71 192.73,-83.69 199.23,-86.29"/>
</g>
<!-- Node10 -->
<g id="node10" class="node">
<title>Node10</title>
<g id="a_node10"><a xlink:href="const_8hpp.html" target="_top" xlink:title=" ">
<polygon fill="none" stroke="black" points="202,-112.5 202,-131.5 266,-131.5 266,-112.5 202,-112.5"/>
<text text-anchor="middle" x="234" y="-119.5" font-family="Helvetica,sans-Serif" font-size="10.00">const.hpp</text>
</a>
</g>
</g>
<!-- Node9&#45;&gt;Node10 -->
<g id="edge10" class="edge">
<title>Node9&#45;&gt;Node10</title>
<path fill="none" stroke="midnightblue" d="M234,-168.08C234,-161.01 234,-150.86 234,-141.99"/>
<polygon fill="midnightblue" stroke="midnightblue" points="237.5,-141.75 234,-131.75 230.5,-141.75 237.5,-141.75"/>
</g>
<!-- Node11 -->
<g id="node11" class="node">
<title>Node11</title>
<g id="a_node11"><a xlink:title=" ">
<polygon fill="none" stroke="#bfbfbf" points="284.5,-112.5 284.5,-131.5 327.5,-131.5 327.5,-112.5 284.5,-112.5"/>
<text text-anchor="middle" x="306" y="-119.5" font-family="Helvetica,sans-Serif" font-size="10.00">stack</text>
</a>
</g>
</g>
<!-- Node9&#45;&gt;Node11 -->
<g id="edge12" class="edge">
<title>Node9&#45;&gt;Node11</title>
<path fill="none" stroke="midnightblue" d="M245.57,-168.32C256.42,-160.18 272.88,-147.84 285.88,-138.09"/>
<polygon fill="midnightblue" stroke="midnightblue" points="288.32,-140.63 294.22,-131.83 284.12,-135.03 288.32,-140.63"/>
</g>
<!-- Node10&#45;&gt;Node2 -->
<g id="edge11" class="edge">
<title>Node10&#45;&gt;Node2</title>
<path fill="none" stroke="midnightblue" d="M229.05,-112.08C224.9,-104.61 218.85,-93.72 213.73,-84.52"/>
<polygon fill="midnightblue" stroke="midnightblue" points="216.78,-82.79 208.86,-75.75 210.66,-86.19 216.78,-82.79"/>
</g>
<!-- Node12&#45;&gt;Node2 -->
<g id="edge15" class="edge">
<title>Node12&#45;&gt;Node2</title>
<path fill="none" stroke="midnightblue" d="M355.73,-168.17C354.84,-154.35 351.13,-127.59 336,-112 312.57,-87.86 275.69,-76.67 246.87,-71.48"/>
<polygon fill="midnightblue" stroke="midnightblue" points="247.08,-67.97 236.65,-69.83 245.96,-74.88 247.08,-67.97"/>
</g>
<!-- Node13 -->
<g id="node13" class="node">
<title>Node13</title>
<g id="a_node13"><a xlink:title=" ">
<polygon fill="none" stroke="#bfbfbf" points="384.5,-112.5 384.5,-131.5 449.5,-131.5 449.5,-112.5 384.5,-112.5"/>
<text text-anchor="middle" x="417" y="-119.5" font-family="Helvetica,sans-Serif" font-size="10.00">stdexcept</text>
</a>
</g>
</g>
<!-- Node12&#45;&gt;Node13 -->
<g id="edge14" class="edge">
<title>Node12&#45;&gt;Node13</title>
<path fill="none" stroke="midnightblue" d="M365.8,-168.32C374.82,-160.34 388.41,-148.31 399.32,-138.65"/>
<polygon fill="midnightblue" stroke="midnightblue" points="401.85,-141.08 407.02,-131.83 397.21,-135.84 401.85,-141.08"/>
</g>
</g>
</svg>
