<?xml version="1.0" encoding="UTF-8" standalone="no"?>
<!DOCTYPE svg PUBLIC "-//W3C//DTD SVG 1.1//EN"
 "http://www.w3.org/Graphics/SVG/1.1/DTD/svg11.dtd">
<!-- Generated by graphviz version 2.38.0 (20140413.2041)
 -->
<!-- Title: parser.hpp Pages: 1 -->
<svg width="986pt" height="308pt"
 viewBox="0.00 0.00 985.50 308.00" xmlns="http://www.w3.org/2000/svg" xmlns:xlink="http://www.w3.org/1999/xlink">
<g id="graph0" class="graph" transform="scale(1 1) rotate(0) translate(4 304)">
<title>parser.hpp</title>
<!-- Node1 -->
<g id="node1" class="node"><title>Node1</title>
<polygon fill="#bfbfbf" stroke="black" points="371.5,-280.5 371.5,-299.5 433.5,-299.5 433.5,-280.5 371.5,-280.5"/>
<text text-anchor="middle" x="402.5" y="-287.5" font-family="Helvetica,sans-Serif" font-size="10.00">parser.hpp</text>
</g>
<!-- Node2 -->
<g id="node2" class="node"><title>Node2</title>
<g id="a_node2"><a xlink:href="types_8hpp.html" target="_top" xlink:title="types.hpp">
<polygon fill="none" stroke="black" points="236,-56.5 236,-75.5 295,-75.5 295,-56.5 236,-56.5"/>
<text text-anchor="middle" x="265.5" y="-63.5" font-family="Helvetica,sans-Serif" font-size="10.00">types.hpp</text>
</a>
</g>
</g>
<!-- Node1&#45;&gt;Node2 -->
<g id="edge1" class="edge"><title>Node1&#45;&gt;Node2</title>
<path fill="none" stroke="midnightblue" d="M433.635,-286.576C548.507,-277.041 938.847,-239.104 878.5,-168 804.156,-80.4045 429.021,-68.6546 305.212,-67.1779"/>
<polygon fill="midnightblue" stroke="midnightblue" points="305.076,-63.6764 295.041,-67.0733 305.004,-70.676 305.076,-63.6764"/>
</g>
<!-- Node9 -->
<g id="node9" class="node"><title>Node9</title>
<g id="a_node9"><a xlink:href="input__stream_8hpp.html" target="_top" xlink:title="input_stream.hpp">
<polygon fill="none" stroke="black" points="255.5,-168.5 255.5,-187.5 347.5,-187.5 347.5,-168.5 255.5,-168.5"/>
<text text-anchor="middle" x="301.5" y="-175.5" font-family="Helvetica,sans-Serif" font-size="10.00">input_stream.hpp</text>
</a>
</g>
</g>
<!-- Node1&#45;&gt;Node9 -->
<g id="edge8" class="edge"><title>Node1&#45;&gt;Node9</title>
<path fill="none" stroke="midnightblue" d="M394.575,-280.368C377.686,-261.974 337.925,-218.671 316.239,-195.052"/>
<polygon fill="midnightblue" stroke="midnightblue" points="318.73,-192.59 309.388,-187.591 313.574,-197.325 318.73,-192.59"/>
</g>
<!-- Node10 -->
<g id="node10" class="node"><title>Node10</title>
<g id="a_node10"><a xlink:href="const_8hpp.html" target="_top" xlink:title="const.hpp">
<polygon fill="none" stroke="black" points="0,-112.5 0,-131.5 59,-131.5 59,-112.5 0,-112.5"/>
<text text-anchor="middle" x="29.5" y="-119.5" font-family="Helvetica,sans-Serif" font-size="10.00">const.hpp</text>
</a>
</g>
</g>
<!-- Node1&#45;&gt;Node10 -->
<g id="edge30" class="edge"><title>Node1&#45;&gt;Node10</title>
<path fill="none" stroke="midnightblue" d="M371.482,-289.586C294.03,-290.364 95.0986,-287.941 49.5,-244 21.8645,-217.369 23.2302,-168.253 26.4581,-141.518"/>
<polygon fill="midnightblue" stroke="midnightblue" points="29.9311,-141.955 27.8764,-131.561 23.0011,-140.968 29.9311,-141.955"/>
</g>
<!-- Node11 -->
<g id="node11" class="node"><title>Node11</title>
<polygon fill="none" stroke="#bfbfbf" points="337,-112.5 337,-131.5 378,-131.5 378,-112.5 337,-112.5"/>
<text text-anchor="middle" x="357.5" y="-119.5" font-family="Helvetica,sans-Serif" font-size="10.00">stack</text>
</g>
<!-- Node1&#45;&gt;Node11 -->
<g id="edge36" class="edge"><title>Node1&#45;&gt;Node11</title>
<path fill="none" stroke="midnightblue" d="M400.081,-280.075C392.997,-253.945 372.196,-177.211 362.536,-141.577"/>
<polygon fill="midnightblue" stroke="midnightblue" points="365.817,-140.304 359.823,-131.568 359.061,-142.136 365.817,-140.304"/>
</g>
<!-- Node12 -->
<g id="node12" class="node"><title>Node12</title>
<g id="a_node12"><a xlink:href="tag_8hpp.html" target="_top" xlink:title="tag.hpp">
<polygon fill="none" stroke="black" points="528,-224.5 528,-243.5 577,-243.5 577,-224.5 528,-224.5"/>
<text text-anchor="middle" x="552.5" y="-231.5" font-family="Helvetica,sans-Serif" font-size="10.00">tag.hpp</text>
</a>
</g>
</g>
<!-- Node1&#45;&gt;Node12 -->
<g id="edge13" class="edge"><title>Node1&#45;&gt;Node12</title>
<path fill="none" stroke="midnightblue" d="M426.268,-280.444C451.393,-271.399 491.211,-257.064 519.4,-246.916"/>
<polygon fill="midnightblue" stroke="midnightblue" points="520.62,-250.197 528.843,-243.516 518.249,-243.611 520.62,-250.197"/>
</g>
<!-- Node13 -->
<g id="node13" class="node"><title>Node13</title>
<polygon fill="none" stroke="#bfbfbf" points="679.5,-168.5 679.5,-187.5 769.5,-187.5 769.5,-168.5 679.5,-168.5"/>
<text text-anchor="middle" x="724.5" y="-175.5" font-family="Helvetica,sans-Serif" font-size="10.00">QDomDocument</text>
</g>
<!-- Node1&#45;&gt;Node13 -->
<g id="edge37" class="edge"><title>Node1&#45;&gt;Node13</title>
<path fill="none" stroke="midnightblue" d="M433.803,-283.252C470.681,-276.037 533.514,-262.347 585.5,-244 626.849,-229.408 672.487,-206.71 699.806,-192.362"/>
<polygon fill="midnightblue" stroke="midnightblue" points="701.474,-195.439 708.669,-187.662 698.194,-189.255 701.474,-195.439"/>
</g>
<!-- Node14 -->
<g id="node14" class="node"><title>Node14</title>
<polygon fill="none" stroke="#bfbfbf" points="788,-168.5 788,-187.5 869,-187.5 869,-168.5 788,-168.5"/>
<text text-anchor="middle" x="828.5" y="-175.5" font-family="Helvetica,sans-Serif" font-size="10.00">QDomElement</text>
</g>
<!-- Node1&#45;&gt;Node14 -->
<g id="edge38" class="edge"><title>Node1&#45;&gt;Node14</title>
<path fill="none" stroke="midnightblue" d="M433.702,-283.673C476.555,-276.117 555.894,-261.27 622.5,-244 683.909,-228.077 754.111,-204.815 794.67,-190.867"/>
<polygon fill="midnightblue" stroke="midnightblue" points="796.012,-194.106 804.32,-187.531 793.725,-187.49 796.012,-194.106"/>
</g>
<!-- Node15 -->
<g id="node15" class="node"><title>Node15</title>
<g id="a_node15"><a xlink:href="parser__info_8hpp.html" target="_top" xlink:title="parser_info.hpp">
<polygon fill="none" stroke="black" points="404,-168.5 404,-187.5 487,-187.5 487,-168.5 404,-168.5"/>
<text text-anchor="middle" x="445.5" y="-175.5" font-family="Helvetica,sans-Serif" font-size="10.00">parser_info.hpp</text>
</a>
</g>
</g>
<!-- Node1&#45;&gt;Node15 -->
<g id="edge29" class="edge"><title>Node1&#45;&gt;Node15</title>
<path fill="none" stroke="midnightblue" d="M405.874,-280.368C412.876,-262.456 429.112,-220.923 438.484,-196.948"/>
<polygon fill="midnightblue" stroke="midnightblue" points="441.76,-198.179 442.142,-187.591 435.241,-195.631 441.76,-198.179"/>
</g>
<!-- Node16 -->
<g id="node16" class="node"><title>Node16</title>
<g id="a_node16"><a xlink:href="exceptions_8hpp.html" target="_top" xlink:title="exceptions.hpp">
<polygon fill="none" stroke="black" points="116,-168.5 116,-187.5 199,-187.5 199,-168.5 116,-168.5"/>
<text text-anchor="middle" x="157.5" y="-175.5" font-family="Helvetica,sans-Serif" font-size="10.00">exceptions.hpp</text>
</a>
</g>
</g>
<!-- Node1&#45;&gt;Node16 -->
<g id="edge24" class="edge"><title>Node1&#45;&gt;Node16</title>
<path fill="none" stroke="midnightblue" d="M371.365,-287.307C332.196,-283.943 264.068,-273.909 214.5,-244 194.892,-232.169 178.409,-211.351 168.292,-196.461"/>
<polygon fill="midnightblue" stroke="midnightblue" points="170.975,-194.167 162.593,-187.687 165.105,-197.98 170.975,-194.167"/>
</g>
<!-- Node20 -->
<g id="node20" class="node"><title>Node20</title>
<g id="a_node20"><a xlink:href="lex_8hpp.html" target="_top" xlink:title="lex.hpp">
<polygon fill="none" stroke="black" points="223.5,-224.5 223.5,-243.5 271.5,-243.5 271.5,-224.5 223.5,-224.5"/>
<text text-anchor="middle" x="247.5" y="-231.5" font-family="Helvetica,sans-Serif" font-size="10.00">lex.hpp</text>
</a>
</g>
</g>
<!-- Node1&#45;&gt;Node20 -->
<g id="edge25" class="edge"><title>Node1&#45;&gt;Node20</title>
<path fill="none" stroke="midnightblue" d="M377.94,-280.444C351.901,-271.372 310.59,-256.98 281.446,-246.826"/>
<polygon fill="midnightblue" stroke="midnightblue" points="282.285,-243.412 271.69,-243.428 279.982,-250.023 282.285,-243.412"/>
</g>
<!-- Node21 -->
<g id="node21" class="node"><title>Node21</title>
<g id="a_node21"><a xlink:href="string__format_8hpp.html" target="_top" xlink:title="string_format.hpp">
<polygon fill="none" stroke="black" points="58.5,-224.5 58.5,-243.5 150.5,-243.5 150.5,-224.5 58.5,-224.5"/>
<text text-anchor="middle" x="104.5" y="-231.5" font-family="Helvetica,sans-Serif" font-size="10.00">string_format.hpp</text>
</a>
</g>
</g>
<!-- Node1&#45;&gt;Node21 -->
<g id="edge31" class="edge"><title>Node1&#45;&gt;Node21</title>
<path fill="none" stroke="midnightblue" d="M371.452,-283.374C321.604,-274.341 223.003,-256.474 160.592,-245.164"/>
<polygon fill="midnightblue" stroke="midnightblue" points="160.983,-241.678 150.52,-243.339 159.735,-248.566 160.983,-241.678"/>
</g>
<!-- Node22 -->
<g id="node22" class="node"><title>Node22</title>
<polygon fill="none" stroke="#bfbfbf" points="925.5,-224.5 925.5,-243.5 977.5,-243.5 977.5,-224.5 925.5,-224.5"/>
<text text-anchor="middle" x="951.5" y="-231.5" font-family="Helvetica,sans-Serif" font-size="10.00">memory</text>
</g>
<!-- Node1&#45;&gt;Node22 -->
<g id="edge35" class="edge"><title>Node1&#45;&gt;Node22</title>
<path fill="none" stroke="midnightblue" d="M433.66,-287.691C513.509,-284.025 731.812,-272.03 911.5,-244 912.766,-243.803 914.052,-243.588 915.348,-243.361"/>
<polygon fill="midnightblue" stroke="midnightblue" points="916.202,-246.76 925.346,-241.409 914.86,-239.89 916.202,-246.76"/>
</g>
<!-- Node3 -->
<g id="node3" class="node"><title>Node3</title>
<polygon fill="none" stroke="#bfbfbf" points="73,-0.5 73,-19.5 114,-19.5 114,-0.5 73,-0.5"/>
<text text-anchor="middle" x="93.5" y="-7.5" font-family="Helvetica,sans-Serif" font-size="10.00">string</text>
</g>
<!-- Node2&#45;&gt;Node3 -->
<g id="edge2" class="edge"><title>Node2&#45;&gt;Node3</title>
<path fill="none" stroke="midnightblue" d="M238.246,-56.4435C207.133,-46.6756 156.371,-30.7385 123.973,-20.5673"/>
<polygon fill="midnightblue" stroke="midnightblue" points="124.738,-17.1388 114.148,-17.4826 122.641,-23.8174 124.738,-17.1388"/>
</g>
<!-- Node4 -->
<g id="node4" class="node"><title>Node4</title>
<polygon fill="none" stroke="#bfbfbf" points="132.5,-0.5 132.5,-19.5 186.5,-19.5 186.5,-0.5 132.5,-0.5"/>
<text text-anchor="middle" x="159.5" y="-7.5" font-family="Helvetica,sans-Serif" font-size="10.00">iostream</text>
</g>
<!-- Node2&#45;&gt;Node4 -->
<g id="edge3" class="edge"><title>Node2&#45;&gt;Node4</title>
<path fill="none" stroke="midnightblue" d="M248.469,-56.324C231.47,-47.6641 205.124,-34.2424 185.507,-24.249"/>
<polygon fill="midnightblue" stroke="midnightblue" points="186.988,-21.0752 176.488,-19.6545 183.81,-27.3125 186.988,-21.0752"/>
</g>
<!-- Node5 -->
<g id="node5" class="node"><title>Node5</title>
<polygon fill="none" stroke="#bfbfbf" points="205,-0.5 205,-19.5 258,-19.5 258,-0.5 205,-0.5"/>
<text text-anchor="middle" x="231.5" y="-7.5" font-family="Helvetica,sans-Serif" font-size="10.00">cwctype</text>
</g>
<!-- Node2&#45;&gt;Node5 -->
<g id="edge4" class="edge"><title>Node2&#45;&gt;Node5</title>
<path fill="none" stroke="midnightblue" d="M259.886,-56.083C255.133,-48.5341 248.182,-37.4948 242.348,-28.2298"/>
<polygon fill="midnightblue" stroke="midnightblue" points="245.3,-26.3486 237.01,-19.7511 239.376,-30.0783 245.3,-26.3486"/>
</g>
<!-- Node6 -->
<g id="node6" class="node"><title>Node6</title>
<polygon fill="none" stroke="#bfbfbf" points="276.5,-0.5 276.5,-19.5 322.5,-19.5 322.5,-0.5 276.5,-0.5"/>
<text text-anchor="middle" x="299.5" y="-7.5" font-family="Helvetica,sans-Serif" font-size="10.00">cctype</text>
</g>
<!-- Node2&#45;&gt;Node6 -->
<g id="edge5" class="edge"><title>Node2&#45;&gt;Node6</title>
<path fill="none" stroke="midnightblue" d="M271.114,-56.083C275.867,-48.5341 282.818,-37.4948 288.652,-28.2298"/>
<polygon fill="midnightblue" stroke="midnightblue" points="291.624,-30.0783 293.99,-19.7511 285.7,-26.3486 291.624,-30.0783"/>
</g>
<!-- Node7 -->
<g id="node7" class="node"><title>Node7</title>
<polygon fill="none" stroke="#bfbfbf" points="340.5,-0.5 340.5,-19.5 390.5,-19.5 390.5,-0.5 340.5,-0.5"/>
<text text-anchor="middle" x="365.5" y="-7.5" font-family="Helvetica,sans-Serif" font-size="10.00">QString</text>
</g>
<!-- Node2&#45;&gt;Node7 -->
<g id="edge6" class="edge"><title>Node2&#45;&gt;Node7</title>
<path fill="none" stroke="midnightblue" d="M281.567,-56.324C297.458,-47.7428 322.007,-34.486 340.458,-24.5224"/>
<polygon fill="midnightblue" stroke="midnightblue" points="342.337,-27.4857 349.473,-19.6545 339.011,-21.3264 342.337,-27.4857"/>
</g>
<!-- Node8 -->
<g id="node8" class="node"><title>Node8</title>
<polygon fill="none" stroke="#bfbfbf" points="409,-0.5 409,-19.5 484,-19.5 484,-0.5 409,-0.5"/>
<text text-anchor="middle" x="446.5" y="-7.5" font-family="Helvetica,sans-Serif" font-size="10.00">QTextStream</text>
</g>
<!-- Node2&#45;&gt;Node8 -->
<g id="edge7" class="edge"><title>Node2&#45;&gt;Node8</title>
<path fill="none" stroke="midnightblue" d="M294.18,-56.4435C325.027,-47.2406 374.228,-32.5617 408.329,-22.3879"/>
<polygon fill="midnightblue" stroke="midnightblue" points="409.372,-25.7293 417.954,-19.5164 407.371,-19.0215 409.372,-25.7293"/>
</g>
<!-- Node9&#45;&gt;Node2 -->
<g id="edge9" class="edge"><title>Node9&#45;&gt;Node2</title>
<path fill="none" stroke="midnightblue" d="M298.675,-168.368C292.839,-150.537 279.342,-109.295 271.48,-85.2717"/>
<polygon fill="midnightblue" stroke="midnightblue" points="274.749,-84.0067 268.312,-75.5914 268.096,-86.1841 274.749,-84.0067"/>
</g>
<!-- Node9&#45;&gt;Node10 -->
<g id="edge10" class="edge"><title>Node9&#45;&gt;Node10</title>
<path fill="none" stroke="midnightblue" d="M258.401,-168.444C206.408,-158.121 119.715,-140.91 69.2619,-130.894"/>
<polygon fill="midnightblue" stroke="midnightblue" points="69.8637,-127.445 59.3736,-128.931 68.5006,-134.311 69.8637,-127.445"/>
</g>
<!-- Node9&#45;&gt;Node11 -->
<g id="edge12" class="edge"><title>Node9&#45;&gt;Node11</title>
<path fill="none" stroke="midnightblue" d="M310.497,-168.324C318.694,-160.42 331.006,-148.548 340.972,-138.938"/>
<polygon fill="midnightblue" stroke="midnightblue" points="343.57,-141.295 348.339,-131.834 338.711,-136.256 343.57,-141.295"/>
</g>
<!-- Node10&#45;&gt;Node2 -->
<g id="edge11" class="edge"><title>Node10&#45;&gt;Node2</title>
<path fill="none" stroke="midnightblue" d="M59.3896,-114.161C101.682,-104.484 179.058,-86.7791 226.03,-76.0312"/>
<polygon fill="midnightblue" stroke="midnightblue" points="226.886,-79.426 235.853,-73.7836 225.324,-72.6023 226.886,-79.426"/>
</g>
<!-- Node12&#45;&gt;Node2 -->
<g id="edge18" class="edge"><title>Node12&#45;&gt;Node2</title>
<path fill="none" stroke="midnightblue" d="M556.643,-224.107C562.223,-210.679 570.185,-184.996 558.5,-168 501.501,-85.0888 371.438,-69.4134 305.464,-66.9868"/>
<polygon fill="midnightblue" stroke="midnightblue" points="305.542,-63.4877 295.447,-66.7028 305.343,-70.4849 305.542,-63.4877"/>
</g>
<!-- Node12&#45;&gt;Node13 -->
<g id="edge14" class="edge"><title>Node12&#45;&gt;Node13</title>
<path fill="none" stroke="midnightblue" d="M577.143,-225.263C606.018,-216.198 654.146,-201.088 687.507,-190.614"/>
<polygon fill="midnightblue" stroke="midnightblue" points="688.856,-193.859 697.348,-187.524 686.759,-187.18 688.856,-193.859"/>
</g>
<!-- Node12&#45;&gt;Node14 -->
<g id="edge15" class="edge"><title>Node12&#45;&gt;Node14</title>
<path fill="none" stroke="midnightblue" d="M577.48,-228.113C622.638,-219.277 718.663,-200.49 777.986,-188.883"/>
<polygon fill="midnightblue" stroke="midnightblue" points="778.754,-192.299 787.896,-186.944 777.41,-185.43 778.754,-192.299"/>
</g>
<!-- Node12&#45;&gt;Node15 -->
<g id="edge16" class="edge"><title>Node12&#45;&gt;Node15</title>
<path fill="none" stroke="midnightblue" d="M535.309,-224.324C518.149,-215.664 491.554,-202.242 471.753,-192.249"/>
<polygon fill="midnightblue" stroke="midnightblue" points="473.153,-189.035 462.649,-187.655 469.999,-195.285 473.153,-189.035"/>
</g>
<!-- Node12&#45;&gt;Node16 -->
<g id="edge19" class="edge"><title>Node12&#45;&gt;Node16</title>
<path fill="none" stroke="midnightblue" d="M527.791,-229.622C464.413,-220.958 295.034,-197.802 209.075,-186.051"/>
<polygon fill="midnightblue" stroke="midnightblue" points="209.4,-182.563 199.018,-184.676 208.452,-189.498 209.4,-182.563"/>
</g>
<!-- Node18 -->
<g id="node18" class="node"><title>Node18</title>
<polygon fill="none" stroke="#bfbfbf" points="505.5,-168.5 505.5,-187.5 549.5,-187.5 549.5,-168.5 505.5,-168.5"/>
<text text-anchor="middle" x="527.5" y="-175.5" font-family="Helvetica,sans-Serif" font-size="10.00">vector</text>
</g>
<!-- Node12&#45;&gt;Node18 -->
<g id="edge22" class="edge"><title>Node12&#45;&gt;Node18</title>
<path fill="none" stroke="midnightblue" d="M548.372,-224.083C544.986,-216.77 540.084,-206.181 535.881,-197.103"/>
<polygon fill="midnightblue" stroke="midnightblue" points="538.929,-195.355 531.551,-187.751 532.577,-198.296 538.929,-195.355"/>
</g>
<!-- Node19 -->
<g id="node19" class="node"><title>Node19</title>
<polygon fill="none" stroke="#bfbfbf" points="605.5,-168.5 605.5,-187.5 661.5,-187.5 661.5,-168.5 605.5,-168.5"/>
<text text-anchor="middle" x="633.5" y="-175.5" font-family="Helvetica,sans-Serif" font-size="10.00">algorithm</text>
</g>
<!-- Node12&#45;&gt;Node19 -->
<g id="edge23" class="edge"><title>Node12&#45;&gt;Node19</title>
<path fill="none" stroke="midnightblue" d="M565.514,-224.324C578.032,-215.979 597.182,-203.212 611.971,-193.352"/>
<polygon fill="midnightblue" stroke="midnightblue" points="614.139,-196.114 620.518,-187.655 610.256,-190.289 614.139,-196.114"/>
</g>
<!-- Node15&#45;&gt;Node2 -->
<g id="edge17" class="edge"><title>Node15&#45;&gt;Node2</title>
<path fill="none" stroke="midnightblue" d="M439.636,-168.197C430.043,-154.419 409.725,-127.715 386.5,-112 361.702,-95.2198 329.834,-83.6984 305.028,-76.5168"/>
<polygon fill="midnightblue" stroke="midnightblue" points="305.786,-73.0949 295.214,-73.7932 303.914,-79.84 305.786,-73.0949"/>
</g>
<!-- Node16&#45;&gt;Node2 -->
<g id="edge21" class="edge"><title>Node16&#45;&gt;Node2</title>
<path fill="none" stroke="midnightblue" d="M165.975,-168.368C184.113,-149.894 226.922,-106.293 250.043,-82.7436"/>
<polygon fill="midnightblue" stroke="midnightblue" points="252.556,-85.1792 257.065,-75.5914 247.561,-80.275 252.556,-85.1792"/>
</g>
<!-- Node17 -->
<g id="node17" class="node"><title>Node17</title>
<polygon fill="none" stroke="#bfbfbf" points="116,-112.5 116,-131.5 175,-131.5 175,-112.5 116,-112.5"/>
<text text-anchor="middle" x="145.5" y="-119.5" font-family="Helvetica,sans-Serif" font-size="10.00">stdexcept</text>
</g>
<!-- Node16&#45;&gt;Node17 -->
<g id="edge20" class="edge"><title>Node16&#45;&gt;Node17</title>
<path fill="none" stroke="midnightblue" d="M155.518,-168.083C153.928,-160.927 151.641,-150.635 149.654,-141.691"/>
<polygon fill="midnightblue" stroke="midnightblue" points="153.031,-140.754 147.445,-131.751 146.197,-142.272 153.031,-140.754"/>
</g>
<!-- Node20&#45;&gt;Node2 -->
<g id="edge26" class="edge"><title>Node20&#45;&gt;Node2</title>
<path fill="none" stroke="midnightblue" d="M247.251,-224.374C247.004,-215.316 246.641,-200.659 246.5,-188 246.401,-179.112 245.675,-176.85 246.5,-168 249.213,-138.906 256.23,-105.702 260.935,-85.5537"/>
<polygon fill="midnightblue" stroke="midnightblue" points="264.4,-86.1105 263.328,-75.5701 257.593,-84.4787 264.4,-86.1105"/>
</g>
<!-- Node20&#45;&gt;Node9 -->
<g id="edge27" class="edge"><title>Node20&#45;&gt;Node9</title>
<path fill="none" stroke="midnightblue" d="M256.417,-224.083C264.28,-216.22 275.931,-204.569 285.419,-195.081"/>
<polygon fill="midnightblue" stroke="midnightblue" points="288.153,-197.297 292.749,-187.751 283.203,-192.347 288.153,-197.297"/>
</g>
<!-- Node20&#45;&gt;Node16 -->
<g id="edge28" class="edge"><title>Node20&#45;&gt;Node16</title>
<path fill="none" stroke="midnightblue" d="M233.04,-224.324C219,-215.9 197.452,-202.971 180.957,-193.074"/>
<polygon fill="midnightblue" stroke="midnightblue" points="182.3,-189.798 171.924,-187.655 178.698,-195.801 182.3,-189.798"/>
</g>
<!-- Node21&#45;&gt;Node2 -->
<g id="edge32" class="edge"><title>Node21&#45;&gt;Node2</title>
<path fill="none" stroke="midnightblue" d="M101.479,-224.256C94.6129,-202.637 80.3656,-145.97 106.5,-112 121.045,-93.0946 183.782,-79.7627 225.966,-72.7404"/>
<polygon fill="midnightblue" stroke="midnightblue" points="226.627,-76.1791 235.943,-71.1325 225.513,-69.2683 226.627,-76.1791"/>
</g>
<!-- Node21&#45;&gt;Node10 -->
<g id="edge33" class="edge"><title>Node21&#45;&gt;Node10</title>
<path fill="none" stroke="midnightblue" d="M98.5362,-224.388C92.2789,-215.341 82.167,-200.692 73.5,-188 62.4926,-171.881 50.0285,-153.451 41.1836,-140.343"/>
<polygon fill="midnightblue" stroke="midnightblue" points="43.9479,-138.182 35.4554,-131.847 38.1439,-142.095 43.9479,-138.182"/>
</g>
<!-- Node21&#45;&gt;Node16 -->
<g id="edge34" class="edge"><title>Node21&#45;&gt;Node16</title>
<path fill="none" stroke="midnightblue" d="M113.252,-224.083C120.97,-216.22 132.405,-204.569 141.717,-195.081"/>
<polygon fill="midnightblue" stroke="midnightblue" points="144.404,-197.34 148.911,-187.751 139.408,-192.436 144.404,-197.34"/>
</g>
</g>
</svg>
