<?xml version="1.0" encoding="UTF-8" standalone="no"?>
<!DOCTYPE svg PUBLIC "-//W3C//DTD SVG 1.1//EN"
 "http://www.w3.org/Graphics/SVG/1.1/DTD/svg11.dtd">
<!-- Generated by graphviz version 2.38.0 (20140413.2041)
 -->
<!-- Title: parser_info.hpp Pages: 1 -->
<svg width="539pt" height="252pt"
 viewBox="0.00 0.00 538.79 252.00" xmlns="http://www.w3.org/2000/svg" xmlns:xlink="http://www.w3.org/1999/xlink">
<g id="graph0" class="graph" transform="scale(1 1) rotate(0) translate(4 248)">
<title>parser_info.hpp</title>
<!-- Node1 -->
<g id="node1" class="node"><title>Node1</title>
<polygon fill="#bfbfbf" stroke="black" points="171.792,-224.5 171.792,-243.5 254.792,-243.5 254.792,-224.5 171.792,-224.5"/>
<text text-anchor="middle" x="213.292" y="-231.5" font-family="Helvetica,sans-Serif" font-size="10.00">parser_info.hpp</text>
</g>
<!-- Node2 -->
<g id="node2" class="node"><title>Node2</title>
<g id="a_node2"><a xlink:href="tag_8hpp.html" target="_top" xlink:title="tag.hpp">
<polygon fill="none" stroke="black" points="159.792,-168.5 159.792,-187.5 208.792,-187.5 208.792,-168.5 159.792,-168.5"/>
<text text-anchor="middle" x="184.292" y="-175.5" font-family="Helvetica,sans-Serif" font-size="10.00">tag.hpp</text>
</a>
</g>
</g>
<!-- Node1&#45;&gt;Node2 -->
<g id="edge1" class="edge"><title>Node1&#45;&gt;Node2</title>
<path fill="none" stroke="midnightblue" d="M203.616,-214.983C198.694,-205.817 192.934,-195.092 188.992,-187.751"/>
<polygon fill="midnightblue" stroke="midnightblue" points="200.688,-216.929 208.503,-224.083 206.855,-213.617 200.688,-216.929"/>
</g>
<!-- Node3 -->
<g id="node3" class="node"><title>Node3</title>
<g id="a_node3"><a xlink:href="parser_8hpp.html" target="_top" xlink:title="parser.hpp">
<polygon fill="none" stroke="black" points="13.2919,-112.5 13.2919,-131.5 75.2919,-131.5 75.2919,-112.5 13.2919,-112.5"/>
<text text-anchor="middle" x="44.2919" y="-119.5" font-family="Helvetica,sans-Serif" font-size="10.00">parser.hpp</text>
</a>
</g>
</g>
<!-- Node1&#45;&gt;Node3 -->
<g id="edge16" class="edge"><title>Node1&#45;&gt;Node3</title>
<path fill="none" stroke="midnightblue" d="M191.344,-218.714C155.732,-195.535 86.4348,-150.43 57.4915,-131.591"/>
<polygon fill="midnightblue" stroke="midnightblue" points="189.74,-221.847 200.031,-224.368 193.559,-215.98 189.74,-221.847"/>
</g>
<!-- Node4 -->
<g id="node4" class="node"><title>Node4</title>
<g id="a_node4"><a xlink:href="all_8hpp.html" target="_top" xlink:title="all.hpp">
<polygon fill="none" stroke="black" points="162.792,-0.5 162.792,-19.5 207.792,-19.5 207.792,-0.5 162.792,-0.5"/>
<text text-anchor="middle" x="185.292" y="-7.5" font-family="Helvetica,sans-Serif" font-size="10.00">all.hpp</text>
</a>
</g>
</g>
<!-- Node1&#45;&gt;Node4 -->
<g id="edge17" class="edge"><title>Node1&#45;&gt;Node4</title>
<path fill="none" stroke="midnightblue" d="M161.625,-224.437C111.304,-213.015 37.6675,-187.379 4.29191,-132 -13.1591,-103.044 31.0748,-61.614 38.2919,-56 75.58,-26.9946 131.578,-16.5863 162.588,-12.9246"/>
<polygon fill="midnightblue" stroke="midnightblue" points="161.159,-227.917 171.672,-226.6 162.633,-221.074 161.159,-227.917"/>
</g>
<!-- Node6 -->
<g id="node6" class="node"><title>Node6</title>
<g id="a_node6"><a xlink:href="tag__no__value_8hpp.html" target="_top" xlink:title="tag_no_value.hpp">
<polygon fill="none" stroke="black" points="207.792,-112.5 207.792,-131.5 300.792,-131.5 300.792,-112.5 207.792,-112.5"/>
<text text-anchor="middle" x="254.292" y="-119.5" font-family="Helvetica,sans-Serif" font-size="10.00">tag_no_value.hpp</text>
</a>
</g>
</g>
<!-- Node1&#45;&gt;Node6 -->
<g id="edge18" class="edge"><title>Node1&#45;&gt;Node6</title>
<path fill="none" stroke="midnightblue" d="M220.002,-214.998C228.948,-190.997 244.426,-149.468 251.09,-131.591"/>
<polygon fill="midnightblue" stroke="midnightblue" points="216.722,-213.776 216.509,-224.368 223.281,-216.221 216.722,-213.776"/>
</g>
<!-- Node8 -->
<g id="node8" class="node"><title>Node8</title>
<g id="a_node8"><a xlink:href="tag__scalar__vector_8hpp.html" target="_top" xlink:title="tag_scalar_vector.hpp">
<polygon fill="none" stroke="black" points="417.792,-112.5 417.792,-131.5 530.792,-131.5 530.792,-112.5 417.792,-112.5"/>
<text text-anchor="middle" x="474.292" y="-119.5" font-family="Helvetica,sans-Serif" font-size="10.00">tag_scalar_vector.hpp</text>
</a>
</g>
</g>
<!-- Node1&#45;&gt;Node8 -->
<g id="edge22" class="edge"><title>Node1&#45;&gt;Node8</title>
<path fill="none" stroke="midnightblue" d="M264.797,-227.237C303.479,-221.356 356.863,-209.86 399.292,-188 427.782,-173.322 454.464,-145.66 466.926,-131.63"/>
<polygon fill="midnightblue" stroke="midnightblue" points="264.194,-223.788 254.797,-228.682 265.195,-230.716 264.194,-223.788"/>
</g>
<!-- Node10 -->
<g id="node10" class="node"><title>Node10</title>
<g id="a_node10"><a xlink:href="format_8hpp.html" target="_top" xlink:title="format.hpp">
<polygon fill="none" stroke="black" points="327.792,-168.5 327.792,-187.5 390.792,-187.5 390.792,-168.5 327.792,-168.5"/>
<text text-anchor="middle" x="359.292" y="-175.5" font-family="Helvetica,sans-Serif" font-size="10.00">format.hpp</text>
</a>
</g>
</g>
<!-- Node1&#45;&gt;Node10 -->
<g id="edge19" class="edge"><title>Node1&#45;&gt;Node10</title>
<path fill="none" stroke="midnightblue" d="M245.991,-220.906C273.44,-210.754 311.96,-196.506 336.266,-187.516"/>
<polygon fill="midnightblue" stroke="midnightblue" points="244.591,-217.692 236.426,-224.444 247.019,-224.257 244.591,-217.692"/>
</g>
<!-- Node2&#45;&gt;Node3 -->
<g id="edge2" class="edge"><title>Node2&#45;&gt;Node3</title>
<path fill="none" stroke="midnightblue" d="M152.59,-164.772C126.292,-154.629 89.5764,-140.467 66.3715,-131.516"/>
<polygon fill="midnightblue" stroke="midnightblue" points="151.519,-168.11 162.108,-168.444 154.038,-161.579 151.519,-168.11"/>
</g>
<!-- Node2&#45;&gt;Node4 -->
<g id="edge6" class="edge"><title>Node2&#45;&gt;Node4</title>
<path fill="none" stroke="midnightblue" d="M175.796,-159.258C165.573,-135.546 150.886,-92.2987 160.292,-56 163.834,-42.3307 172.527,-28.393 178.663,-19.7252"/>
<polygon fill="midnightblue" stroke="midnightblue" points="172.632,-160.753 179.949,-168.415 179.007,-157.862 172.632,-160.753"/>
</g>
<!-- Node5 -->
<g id="node5" class="node"><title>Node5</title>
<g id="a_node5"><a xlink:href="utils_8hpp.html" target="_top" xlink:title="utils.hpp">
<polygon fill="none" stroke="black" points="59.7919,-56.5 59.7919,-75.5 112.792,-75.5 112.792,-56.5 59.7919,-56.5"/>
<text text-anchor="middle" x="86.2919" y="-63.5" font-family="Helvetica,sans-Serif" font-size="10.00">utils.hpp</text>
</a>
</g>
</g>
<!-- Node2&#45;&gt;Node5 -->
<g id="edge15" class="edge"><title>Node2&#45;&gt;Node5</title>
<path fill="none" stroke="midnightblue" d="M162.547,-162.536C151.248,-154.384 137.672,-143.538 127.292,-132 111.051,-113.948 97.18,-88.7104 90.5178,-75.6285"/>
<polygon fill="midnightblue" stroke="midnightblue" points="160.815,-165.596 171.016,-168.458 164.827,-159.859 160.815,-165.596"/>
</g>
<!-- Node2&#45;&gt;Node6 -->
<g id="edge7" class="edge"><title>Node2&#45;&gt;Node6</title>
<path fill="none" stroke="midnightblue" d="M203.606,-162.101C216.204,-152.382 232.22,-140.027 242.841,-131.834"/>
<polygon fill="midnightblue" stroke="midnightblue" points="201.319,-159.445 195.539,-168.324 205.594,-164.987 201.319,-159.445"/>
</g>
<!-- Node7 -->
<g id="node7" class="node"><title>Node7</title>
<g id="a_node7"><a xlink:href="tag__scalar_8hpp.html" target="_top" xlink:title="tag_scalar.hpp">
<polygon fill="none" stroke="black" points="319.292,-112.5 319.292,-131.5 399.292,-131.5 399.292,-112.5 319.292,-112.5"/>
<text text-anchor="middle" x="359.292" y="-119.5" font-family="Helvetica,sans-Serif" font-size="10.00">tag_scalar.hpp</text>
</a>
</g>
</g>
<!-- Node2&#45;&gt;Node7 -->
<g id="edge9" class="edge"><title>Node2&#45;&gt;Node7</title>
<path fill="none" stroke="midnightblue" d="M218.681,-166.388C251.699,-156.2 300.946,-141.004 331.539,-131.564"/>
<polygon fill="midnightblue" stroke="midnightblue" points="217.517,-163.085 208.994,-169.378 219.581,-169.773 217.517,-163.085"/>
</g>
<!-- Node2&#45;&gt;Node8 -->
<g id="edge11" class="edge"><title>Node2&#45;&gt;Node8</title>
<path fill="none" stroke="midnightblue" d="M219.14,-170.511C271.464,-160.768 370.371,-142.351 428.476,-131.531"/>
<polygon fill="midnightblue" stroke="midnightblue" points="218.207,-167.124 209.017,-172.396 219.489,-174.006 218.207,-167.124"/>
</g>
<!-- Node9 -->
<g id="node9" class="node"><title>Node9</title>
<g id="a_node9"><a xlink:href="tag__vector__of__tags_8hpp.html" target="_top" xlink:title="tag_vector_of_tags.hpp">
<polygon fill="none" stroke="black" points="169.792,-56.5 169.792,-75.5 288.792,-75.5 288.792,-56.5 169.792,-56.5"/>
<text text-anchor="middle" x="229.292" y="-63.5" font-family="Helvetica,sans-Serif" font-size="10.00">tag_vector_of_tags.hpp</text>
</a>
</g>
</g>
<!-- Node2&#45;&gt;Node9 -->
<g id="edge13" class="edge"><title>Node2&#45;&gt;Node9</title>
<path fill="none" stroke="midnightblue" d="M186.396,-157.972C188.338,-144.684 191.92,-126.754 198.292,-112 204.235,-98.2393 214.651,-84.323 221.754,-75.685"/>
<polygon fill="midnightblue" stroke="midnightblue" points="182.878,-157.896 185.083,-168.259 189.821,-158.783 182.878,-157.896"/>
</g>
<!-- Node3&#45;&gt;Node4 -->
<g id="edge3" class="edge"><title>Node3&#45;&gt;Node4</title>
<path fill="none" stroke="midnightblue" d="M40.944,-102.253C39.5104,-88.0672 40.0674,-68.8912 50.2919,-56 77.5421,-21.6428 131.905,-13.2958 162.682,-11.4072"/>
<polygon fill="midnightblue" stroke="midnightblue" points="37.5055,-102.934 42.3738,-112.344 44.4363,-101.952 37.5055,-102.934"/>
</g>
<!-- Node3&#45;&gt;Node5 -->
<g id="edge4" class="edge"><title>Node3&#45;&gt;Node5</title>
<path fill="none" stroke="midnightblue" d="M57.4021,-104.144C64.7197,-94.7357 73.5328,-83.4046 79.4855,-75.7511"/>
<polygon fill="midnightblue" stroke="midnightblue" points="54.6041,-102.041 51.2274,-112.083 60.1295,-106.338 54.6041,-102.041"/>
</g>
<!-- Node5&#45;&gt;Node4 -->
<g id="edge5" class="edge"><title>Node5&#45;&gt;Node4</title>
<path fill="none" stroke="midnightblue" d="M111.129,-51.4526C129.406,-41.4835 153.708,-28.2279 169.425,-19.6545"/>
<polygon fill="midnightblue" stroke="midnightblue" points="109.301,-48.4628 102.198,-56.324 112.653,-54.608 109.301,-48.4628"/>
</g>
<!-- Node6&#45;&gt;Node4 -->
<g id="edge8" class="edge"><title>Node6&#45;&gt;Node4</title>
<path fill="none" stroke="midnightblue" d="M275.383,-106.082C291.392,-92.8709 308.841,-73.0874 297.292,-56 277.343,-26.4857 234.499,-16.326 207.965,-12.8308"/>
<polygon fill="midnightblue" stroke="midnightblue" points="273.064,-103.45 267.303,-112.342 277.352,-108.984 273.064,-103.45"/>
</g>
<!-- Node7&#45;&gt;Node4 -->
<g id="edge10" class="edge"><title>Node7&#45;&gt;Node4</title>
<path fill="none" stroke="midnightblue" d="M350.598,-103.076C342.706,-88.5264 329.789,-68.4502 313.292,-56 281.329,-31.8775 235.371,-19.9487 208.101,-14.6563"/>
<polygon fill="midnightblue" stroke="midnightblue" points="347.555,-104.812 355.241,-112.104 353.78,-101.61 347.555,-104.812"/>
</g>
<!-- Node8&#45;&gt;Node4 -->
<g id="edge12" class="edge"><title>Node8&#45;&gt;Node4</title>
<path fill="none" stroke="midnightblue" d="M449.047,-107.565C421.944,-93.4885 377.366,-71.3324 337.292,-56 292.31,-38.7899 237.797,-24.0807 207.804,-16.4955"/>
<polygon fill="midnightblue" stroke="midnightblue" points="447.719,-110.82 458.201,-112.358 450.966,-104.618 447.719,-110.82"/>
</g>
<!-- Node9&#45;&gt;Node4 -->
<g id="edge14" class="edge"><title>Node9&#45;&gt;Node4</title>
<path fill="none" stroke="midnightblue" d="M215.557,-48.144C207.891,-38.7357 198.659,-27.4046 192.422,-19.7511"/>
<polygon fill="midnightblue" stroke="midnightblue" points="212.996,-50.5415 222.026,-56.083 218.423,-46.1198 212.996,-50.5415"/>
</g>
<!-- Node10&#45;&gt;Node7 -->
<g id="edge20" class="edge"><title>Node10&#45;&gt;Node7</title>
<path fill="none" stroke="midnightblue" d="M359.292,-157.805C359.292,-148.91 359.292,-138.78 359.292,-131.751"/>
<polygon fill="midnightblue" stroke="midnightblue" points="355.792,-158.083 359.292,-168.083 362.792,-158.083 355.792,-158.083"/>
</g>
<!-- Node10&#45;&gt;Node8 -->
<g id="edge21" class="edge"><title>Node10&#45;&gt;Node8</title>
<path fill="none" stroke="midnightblue" d="M386.773,-164.096C408.258,-154.007 437.514,-140.27 456.155,-131.516"/>
<polygon fill="midnightblue" stroke="midnightblue" points="385.078,-161.025 377.514,-168.444 388.053,-167.361 385.078,-161.025"/>
</g>
</g>
</svg>
