<?xml version="1.0" encoding="UTF-8" standalone="no"?>
<!DOCTYPE svg PUBLIC "-//W3C//DTD SVG 1.1//EN"
 "http://www.w3.org/Graphics/SVG/1.1/DTD/svg11.dtd">
<!-- Generated by graphviz version 2.43.0 (0)
 -->
<!-- Title: parser.hpp Pages: 1 -->
<svg width="1048pt" height="308pt"
 viewBox="0.00 0.00 1048.00 308.00" xmlns="http://www.w3.org/2000/svg" xmlns:xlink="http://www.w3.org/1999/xlink">
<g id="graph0" class="graph" transform="scale(1 1) rotate(0) translate(4 304)">
<title>parser.hpp</title>
<!-- Node1 -->
<g id="node1" class="node">
<title>Node1</title>
<g id="a_node1"><a xlink:title=" ">
<polygon fill="#bfbfbf" stroke="black" points="401,-280.5 401,-299.5 469,-299.5 469,-280.5 401,-280.5"/>
<text text-anchor="middle" x="435" y="-287.5" font-family="Helvetica,sans-Serif" font-size="10.00">parser.hpp</text>
</a>
</g>
</g>
<!-- Node2 -->
<g id="node2" class="node">
<title>Node2</title>
<g id="a_node2"><a xlink:href="types_8hpp.html" target="_top" xlink:title=" ">
<polygon fill="none" stroke="black" points="252.5,-56.5 252.5,-75.5 317.5,-75.5 317.5,-56.5 252.5,-56.5"/>
<text text-anchor="middle" x="285" y="-63.5" font-family="Helvetica,sans-Serif" font-size="10.00">types.hpp</text>
</a>
</g>
</g>
<!-- Node1&#45;&gt;Node2 -->
<g id="edge1" class="edge">
<title>Node1&#45;&gt;Node2</title>
<path fill="none" stroke="midnightblue" d="M469.39,-286.65C592.16,-277.61 998.26,-241.85 935,-168 855.97,-75.75 459.41,-67.07 327.64,-66.77"/>
<polygon fill="midnightblue" stroke="midnightblue" points="327.53,-63.27 317.53,-66.77 327.53,-70.27 327.53,-63.27"/>
</g>
<!-- Node9 -->
<g id="node9" class="node">
<title>Node9</title>
<g id="a_node9"><a xlink:href="input__stream_8hpp.html" target="_top" xlink:title=" ">
<polygon fill="none" stroke="black" points="268,-168.5 268,-187.5 370,-187.5 370,-168.5 268,-168.5"/>
<text text-anchor="middle" x="319" y="-175.5" font-family="Helvetica,sans-Serif" font-size="10.00">input_stream.hpp</text>
</a>
</g>
</g>
<!-- Node1&#45;&gt;Node9 -->
<g id="edge8" class="edge">
<title>Node1&#45;&gt;Node9</title>
<path fill="none" stroke="midnightblue" d="M424.67,-280.22C414.25,-271.28 397.77,-256.94 384,-244 366.66,-227.71 347.48,-208.35 334.47,-195.02"/>
<polygon fill="midnightblue" stroke="midnightblue" points="336.73,-192.32 327.25,-187.58 331.71,-197.2 336.73,-192.32"/>
</g>
<!-- Node10 -->
<g id="node10" class="node">
<title>Node10</title>
<g id="a_node10"><a xlink:href="const_8hpp.html" target="_top" xlink:title=" ">
<polygon fill="none" stroke="black" points="0,-112.5 0,-131.5 64,-131.5 64,-112.5 0,-112.5"/>
<text text-anchor="middle" x="32" y="-119.5" font-family="Helvetica,sans-Serif" font-size="10.00">const.hpp</text>
</a>
</g>
</g>
<!-- Node1&#45;&gt;Node10 -->
<g id="edge30" class="edge">
<title>Node1&#45;&gt;Node10</title>
<path fill="none" stroke="midnightblue" d="M400.73,-289.72C317.84,-290.72 109.72,-288.62 60,-244 31.07,-218.04 29,-168.65 30.31,-141.69"/>
<polygon fill="midnightblue" stroke="midnightblue" points="33.8,-141.87 31,-131.65 26.82,-141.38 33.8,-141.87"/>
</g>
<!-- Node11 -->
<g id="node11" class="node">
<title>Node11</title>
<g id="a_node11"><a xlink:title=" ">
<polygon fill="none" stroke="#bfbfbf" points="355.5,-112.5 355.5,-131.5 398.5,-131.5 398.5,-112.5 355.5,-112.5"/>
<text text-anchor="middle" x="377" y="-119.5" font-family="Helvetica,sans-Serif" font-size="10.00">stack</text>
</a>
</g>
</g>
<!-- Node1&#45;&gt;Node11 -->
<g id="edge36" class="edge">
<title>Node1&#45;&gt;Node11</title>
<path fill="none" stroke="midnightblue" d="M431.88,-280.08C422.71,-253.83 395.71,-176.55 383.33,-141.12"/>
<polygon fill="midnightblue" stroke="midnightblue" points="386.6,-139.85 379.99,-131.57 379.99,-142.16 386.6,-139.85"/>
</g>
<!-- Node12 -->
<g id="node12" class="node">
<title>Node12</title>
<g id="a_node12"><a xlink:href="tag_8hpp.html" target="_top" xlink:title=" ">
<polygon fill="none" stroke="black" points="559.5,-224.5 559.5,-243.5 612.5,-243.5 612.5,-224.5 559.5,-224.5"/>
<text text-anchor="middle" x="586" y="-231.5" font-family="Helvetica,sans-Serif" font-size="10.00">tag.hpp</text>
</a>
</g>
</g>
<!-- Node1&#45;&gt;Node12 -->
<g id="edge13" class="edge">
<title>Node1&#45;&gt;Node12</title>
<path fill="none" stroke="midnightblue" d="M458.93,-280.44C484.22,-271.4 524.3,-257.06 552.68,-246.92"/>
<polygon fill="midnightblue" stroke="midnightblue" points="553.95,-250.18 562.19,-243.52 551.59,-243.59 553.95,-250.18"/>
</g>
<!-- Node13 -->
<g id="node13" class="node">
<title>Node13</title>
<g id="a_node13"><a xlink:title=" ">
<polygon fill="none" stroke="#bfbfbf" points="722,-168.5 722,-187.5 820,-187.5 820,-168.5 722,-168.5"/>
<text text-anchor="middle" x="771" y="-175.5" font-family="Helvetica,sans-Serif" font-size="10.00">QDomDocument</text>
</a>
</g>
</g>
<!-- Node1&#45;&gt;Node13 -->
<g id="edge37" class="edge">
<title>Node1&#45;&gt;Node13</title>
<path fill="none" stroke="midnightblue" d="M469.29,-282.63C507.18,-275.16 569.77,-261.53 622,-244 666.23,-229.16 715.47,-206.38 744.8,-192.1"/>
<polygon fill="midnightblue" stroke="midnightblue" points="746.52,-195.16 753.95,-187.61 743.44,-188.88 746.52,-195.16"/>
</g>
<!-- Node14 -->
<g id="node14" class="node">
<title>Node14</title>
<g id="a_node14"><a xlink:title=" ">
<polygon fill="none" stroke="#bfbfbf" points="838,-168.5 838,-187.5 926,-187.5 926,-168.5 838,-168.5"/>
<text text-anchor="middle" x="882" y="-175.5" font-family="Helvetica,sans-Serif" font-size="10.00">QDomElement</text>
</a>
</g>
</g>
<!-- Node1&#45;&gt;Node14 -->
<g id="edge38" class="edge">
<title>Node1&#45;&gt;Node14</title>
<path fill="none" stroke="midnightblue" d="M469.29,-283.16C513.75,-275.36 593.6,-260.59 661,-244 726.93,-227.77 802.61,-204.48 846.11,-190.63"/>
<polygon fill="midnightblue" stroke="midnightblue" points="847.21,-193.95 855.67,-187.58 845.08,-187.29 847.21,-193.95"/>
</g>
<!-- Node15 -->
<g id="node15" class="node">
<title>Node15</title>
<g id="a_node15"><a xlink:href="parser__info_8hpp.html" target="_top" xlink:title=" ">
<polygon fill="none" stroke="black" points="426,-168.5 426,-187.5 518,-187.5 518,-168.5 426,-168.5"/>
<text text-anchor="middle" x="472" y="-175.5" font-family="Helvetica,sans-Serif" font-size="10.00">parser_info.hpp</text>
</a>
</g>
</g>
<!-- Node1&#45;&gt;Node15 -->
<g id="edge29" class="edge">
<title>Node1&#45;&gt;Node15</title>
<path fill="none" stroke="midnightblue" d="M437.9,-280.37C443.9,-262.54 457.77,-221.3 465.85,-197.27"/>
<polygon fill="midnightblue" stroke="midnightblue" points="469.24,-198.19 469.11,-187.59 462.6,-195.95 469.24,-198.19"/>
</g>
<!-- Node16 -->
<g id="node16" class="node">
<title>Node16</title>
<g id="a_node16"><a xlink:href="exceptions_8hpp.html" target="_top" xlink:title=" ">
<polygon fill="none" stroke="black" points="120.5,-168.5 120.5,-187.5 211.5,-187.5 211.5,-168.5 120.5,-168.5"/>
<text text-anchor="middle" x="166" y="-175.5" font-family="Helvetica,sans-Serif" font-size="10.00">exceptions.hpp</text>
</a>
</g>
</g>
<!-- Node1&#45;&gt;Node16 -->
<g id="edge24" class="edge">
<title>Node1&#45;&gt;Node16</title>
<path fill="none" stroke="midnightblue" d="M400.96,-285.77C361.46,-280.96 295.21,-269.57 244,-244 219.25,-231.64 195.53,-210.01 180.88,-195.12"/>
<polygon fill="midnightblue" stroke="midnightblue" points="183.17,-192.44 173.73,-187.64 178.11,-197.28 183.17,-192.44"/>
</g>
<!-- Node20 -->
<g id="node20" class="node">
<title>Node20</title>
<g id="a_node20"><a xlink:href="lex_8hpp.html" target="_top" xlink:title=" ">
<polygon fill="none" stroke="black" points="253.5,-224.5 253.5,-243.5 306.5,-243.5 306.5,-224.5 253.5,-224.5"/>
<text text-anchor="middle" x="280" y="-231.5" font-family="Helvetica,sans-Serif" font-size="10.00">lex.hpp</text>
</a>
</g>
</g>
<!-- Node1&#45;&gt;Node20 -->
<g id="edge25" class="edge">
<title>Node1&#45;&gt;Node20</title>
<path fill="none" stroke="midnightblue" d="M410.44,-280.44C384.48,-271.4 343.33,-257.06 314.2,-246.92"/>
<polygon fill="midnightblue" stroke="midnightblue" points="315.04,-243.5 304.45,-243.52 312.74,-250.11 315.04,-243.5"/>
</g>
<!-- Node21 -->
<g id="node21" class="node">
<title>Node21</title>
<g id="a_node21"><a xlink:href="string__format_8hpp.html" target="_top" xlink:title=" ">
<polygon fill="none" stroke="black" points="69,-224.5 69,-243.5 173,-243.5 173,-224.5 69,-224.5"/>
<text text-anchor="middle" x="121" y="-231.5" font-family="Helvetica,sans-Serif" font-size="10.00">string_format.hpp</text>
</a>
</g>
</g>
<!-- Node1&#45;&gt;Node21 -->
<g id="edge31" class="edge">
<title>Node1&#45;&gt;Node21</title>
<path fill="none" stroke="midnightblue" d="M400.8,-283.12C347.99,-274.04 245.91,-256.48 180.73,-245.27"/>
<polygon fill="midnightblue" stroke="midnightblue" points="181.05,-241.78 170.6,-243.53 179.86,-248.67 181.05,-241.78"/>
</g>
<!-- Node22 -->
<g id="node22" class="node">
<title>Node22</title>
<g id="a_node22"><a xlink:title=" ">
<polygon fill="none" stroke="#bfbfbf" points="982,-224.5 982,-243.5 1040,-243.5 1040,-224.5 982,-224.5"/>
<text text-anchor="middle" x="1011" y="-231.5" font-family="Helvetica,sans-Serif" font-size="10.00">memory</text>
</a>
</g>
</g>
<!-- Node1&#45;&gt;Node22 -->
<g id="edge35" class="edge">
<title>Node1&#45;&gt;Node22</title>
<path fill="none" stroke="midnightblue" d="M469.15,-287.56C553.95,-283.69 780.78,-271.39 968,-244 969.27,-243.81 970.57,-243.61 971.87,-243.4"/>
<polygon fill="midnightblue" stroke="midnightblue" points="972.72,-246.8 981.94,-241.58 971.48,-239.91 972.72,-246.8"/>
</g>
<!-- Node3 -->
<g id="node3" class="node">
<title>Node3</title>
<g id="a_node3"><a xlink:title=" ">
<polygon fill="none" stroke="#bfbfbf" points="81,-0.5 81,-19.5 125,-19.5 125,-0.5 81,-0.5"/>
<text text-anchor="middle" x="103" y="-7.5" font-family="Helvetica,sans-Serif" font-size="10.00">string</text>
</a>
</g>
</g>
<!-- Node2&#45;&gt;Node3 -->
<g id="edge2" class="edge">
<title>Node2&#45;&gt;Node3</title>
<path fill="none" stroke="midnightblue" d="M256.16,-56.44C223.19,-46.66 169.36,-30.69 135.08,-20.52"/>
<polygon fill="midnightblue" stroke="midnightblue" points="135.7,-17.05 125.12,-17.56 133.71,-23.76 135.7,-17.05"/>
</g>
<!-- Node4 -->
<g id="node4" class="node">
<title>Node4</title>
<g id="a_node4"><a xlink:title=" ">
<polygon fill="none" stroke="#bfbfbf" points="143,-0.5 143,-19.5 203,-19.5 203,-0.5 143,-0.5"/>
<text text-anchor="middle" x="173" y="-7.5" font-family="Helvetica,sans-Serif" font-size="10.00">iostream</text>
</a>
</g>
</g>
<!-- Node2&#45;&gt;Node4 -->
<g id="edge3" class="edge">
<title>Node2&#45;&gt;Node4</title>
<path fill="none" stroke="midnightblue" d="M267.01,-56.32C248.96,-47.62 220.95,-34.12 200.2,-24.11"/>
<polygon fill="midnightblue" stroke="midnightblue" points="201.48,-20.84 190.95,-19.65 198.44,-27.15 201.48,-20.84"/>
</g>
<!-- Node5 -->
<g id="node5" class="node">
<title>Node5</title>
<g id="a_node5"><a xlink:title=" ">
<polygon fill="none" stroke="#bfbfbf" points="221.5,-0.5 221.5,-19.5 278.5,-19.5 278.5,-0.5 221.5,-0.5"/>
<text text-anchor="middle" x="250" y="-7.5" font-family="Helvetica,sans-Serif" font-size="10.00">cwctype</text>
</a>
</g>
</g>
<!-- Node2&#45;&gt;Node5 -->
<g id="edge4" class="edge">
<title>Node2&#45;&gt;Node5</title>
<path fill="none" stroke="midnightblue" d="M279.22,-56.08C274.33,-48.53 267.17,-37.49 261.17,-28.23"/>
<polygon fill="midnightblue" stroke="midnightblue" points="264.05,-26.24 255.67,-19.75 258.17,-30.05 264.05,-26.24"/>
</g>
<!-- Node6 -->
<g id="node6" class="node">
<title>Node6</title>
<g id="a_node6"><a xlink:title=" ">
<polygon fill="none" stroke="#bfbfbf" points="296.5,-0.5 296.5,-19.5 345.5,-19.5 345.5,-0.5 296.5,-0.5"/>
<text text-anchor="middle" x="321" y="-7.5" font-family="Helvetica,sans-Serif" font-size="10.00">cctype</text>
</a>
</g>
</g>
<!-- Node2&#45;&gt;Node6 -->
<g id="edge5" class="edge">
<title>Node2&#45;&gt;Node6</title>
<path fill="none" stroke="midnightblue" d="M290.94,-56.08C295.98,-48.53 303.34,-37.49 309.51,-28.23"/>
<polygon fill="midnightblue" stroke="midnightblue" points="312.53,-30.01 315.17,-19.75 306.71,-26.13 312.53,-30.01"/>
</g>
<!-- Node7 -->
<g id="node7" class="node">
<title>Node7</title>
<g id="a_node7"><a xlink:title=" ">
<polygon fill="none" stroke="#bfbfbf" points="363.5,-0.5 363.5,-19.5 416.5,-19.5 416.5,-0.5 363.5,-0.5"/>
<text text-anchor="middle" x="390" y="-7.5" font-family="Helvetica,sans-Serif" font-size="10.00">QString</text>
</a>
</g>
</g>
<!-- Node2&#45;&gt;Node7 -->
<g id="edge6" class="edge">
<title>Node2&#45;&gt;Node7</title>
<path fill="none" stroke="midnightblue" d="M301.87,-56.32C318.71,-47.66 344.81,-34.24 364.24,-24.25"/>
<polygon fill="midnightblue" stroke="midnightblue" points="365.88,-27.34 373.17,-19.65 362.68,-21.12 365.88,-27.34"/>
</g>
<!-- Node8 -->
<g id="node8" class="node">
<title>Node8</title>
<g id="a_node8"><a xlink:title=" ">
<polygon fill="none" stroke="#bfbfbf" points="435,-0.5 435,-19.5 515,-19.5 515,-0.5 435,-0.5"/>
<text text-anchor="middle" x="475" y="-7.5" font-family="Helvetica,sans-Serif" font-size="10.00">QTextStream</text>
</a>
</g>
</g>
<!-- Node2&#45;&gt;Node8 -->
<g id="edge7" class="edge">
<title>Node2&#45;&gt;Node8</title>
<path fill="none" stroke="midnightblue" d="M315.11,-56.44C347.63,-47.2 399.58,-32.44 435.39,-22.26"/>
<polygon fill="midnightblue" stroke="midnightblue" points="436.37,-25.62 445.03,-19.52 434.46,-18.88 436.37,-25.62"/>
</g>
<!-- Node9&#45;&gt;Node2 -->
<g id="edge9" class="edge">
<title>Node9&#45;&gt;Node2</title>
<path fill="none" stroke="midnightblue" d="M316.33,-168.37C310.82,-150.54 298.07,-109.3 290.65,-85.27"/>
<polygon fill="midnightblue" stroke="midnightblue" points="293.95,-84.11 287.66,-75.59 287.26,-86.18 293.95,-84.11"/>
</g>
<!-- Node9&#45;&gt;Node10 -->
<g id="edge10" class="edge">
<title>Node9&#45;&gt;Node10</title>
<path fill="none" stroke="midnightblue" d="M273.52,-168.44C218.85,-158.16 127.8,-141.02 74.49,-130.99"/>
<polygon fill="midnightblue" stroke="midnightblue" points="74.82,-127.5 64.35,-129.09 73.53,-134.38 74.82,-127.5"/>
</g>
<!-- Node9&#45;&gt;Node11 -->
<g id="edge12" class="edge">
<title>Node9&#45;&gt;Node11</title>
<path fill="none" stroke="midnightblue" d="M328.32,-168.32C336.89,-160.34 349.81,-148.31 360.19,-138.65"/>
<polygon fill="midnightblue" stroke="midnightblue" points="362.58,-141.21 367.51,-131.83 357.81,-136.09 362.58,-141.21"/>
</g>
<!-- Node10&#45;&gt;Node2 -->
<g id="edge11" class="edge">
<title>Node10&#45;&gt;Node2</title>
<path fill="none" stroke="midnightblue" d="M64.04,-114.16C109.32,-104.5 192.12,-86.82 242.49,-76.07"/>
<polygon fill="midnightblue" stroke="midnightblue" points="243.37,-79.46 252.42,-73.95 241.91,-72.62 243.37,-79.46"/>
</g>
<!-- Node12&#45;&gt;Node2 -->
<g id="edge18" class="edge">
<title>Node12&#45;&gt;Node2</title>
<path fill="none" stroke="midnightblue" d="M590.41,-224.07C596.37,-210.59 604.95,-184.85 593,-168 532.37,-82.55 397.01,-67.97 327.69,-66.37"/>
<polygon fill="midnightblue" stroke="midnightblue" points="327.61,-62.87 317.56,-66.22 327.51,-69.87 327.61,-62.87"/>
</g>
<!-- Node12&#45;&gt;Node13 -->
<g id="edge14" class="edge">
<title>Node12&#45;&gt;Node13</title>
<path fill="none" stroke="midnightblue" d="M612.51,-225.26C643.83,-216.12 696.22,-200.83 732.14,-190.34"/>
<polygon fill="midnightblue" stroke="midnightblue" points="733.18,-193.69 741.8,-187.52 731.22,-186.97 733.18,-193.69"/>
</g>
<!-- Node12&#45;&gt;Node14 -->
<g id="edge15" class="edge">
<title>Node12&#45;&gt;Node14</title>
<path fill="none" stroke="midnightblue" d="M612.53,-228.16C660.88,-219.34 764.24,-200.48 827.97,-188.86"/>
<polygon fill="midnightblue" stroke="midnightblue" points="828.63,-192.29 837.84,-187.06 827.37,-185.41 828.63,-192.29"/>
</g>
<!-- Node12&#45;&gt;Node15 -->
<g id="edge16" class="edge">
<title>Node12&#45;&gt;Node15</title>
<path fill="none" stroke="midnightblue" d="M567.94,-224.44C549.43,-215.68 520.42,-201.94 499.14,-191.86"/>
<polygon fill="midnightblue" stroke="midnightblue" points="500.51,-188.63 489.98,-187.52 497.52,-194.96 500.51,-188.63"/>
</g>
<!-- Node12&#45;&gt;Node16 -->
<g id="edge19" class="edge">
<title>Node12&#45;&gt;Node16</title>
<path fill="none" stroke="midnightblue" d="M559.41,-229.58C492.04,-220.92 313.52,-197.97 221.93,-186.19"/>
<polygon fill="midnightblue" stroke="midnightblue" points="222.1,-182.68 211.74,-184.88 221.21,-189.63 222.1,-182.68"/>
</g>
<!-- Node18 -->
<g id="node18" class="node">
<title>Node18</title>
<g id="a_node18"><a xlink:title=" ">
<polygon fill="none" stroke="#bfbfbf" points="536.5,-168.5 536.5,-187.5 583.5,-187.5 583.5,-168.5 536.5,-168.5"/>
<text text-anchor="middle" x="560" y="-175.5" font-family="Helvetica,sans-Serif" font-size="10.00">vector</text>
</a>
</g>
</g>
<!-- Node12&#45;&gt;Node18 -->
<g id="edge22" class="edge">
<title>Node12&#45;&gt;Node18</title>
<path fill="none" stroke="midnightblue" d="M581.71,-224.08C578.15,-216.69 572.98,-205.95 568.58,-196.81"/>
<polygon fill="midnightblue" stroke="midnightblue" points="571.71,-195.24 564.21,-187.75 565.4,-198.28 571.71,-195.24"/>
</g>
<!-- Node19 -->
<g id="node19" class="node">
<title>Node19</title>
<g id="a_node19"><a xlink:title=" ">
<polygon fill="none" stroke="#bfbfbf" points="640,-168.5 640,-187.5 704,-187.5 704,-168.5 640,-168.5"/>
<text text-anchor="middle" x="672" y="-175.5" font-family="Helvetica,sans-Serif" font-size="10.00">algorithm</text>
</a>
</g>
</g>
<!-- Node12&#45;&gt;Node19 -->
<g id="edge23" class="edge">
<title>Node12&#45;&gt;Node19</title>
<path fill="none" stroke="midnightblue" d="M599.82,-224.32C613.23,-215.9 633.82,-202.97 649.59,-193.07"/>
<polygon fill="midnightblue" stroke="midnightblue" points="651.61,-195.94 658.22,-187.65 647.89,-190.01 651.61,-195.94"/>
</g>
<!-- Node15&#45;&gt;Node2 -->
<g id="edge17" class="edge">
<title>Node15&#45;&gt;Node2</title>
<path fill="none" stroke="midnightblue" d="M465.47,-168.21C454.84,-154.45 432.5,-127.77 408,-112 383.3,-96.1 352.2,-84.79 327.45,-77.48"/>
<polygon fill="midnightblue" stroke="midnightblue" points="328.2,-74.05 317.62,-74.69 326.28,-80.79 328.2,-74.05"/>
</g>
<!-- Node16&#45;&gt;Node2 -->
<g id="edge21" class="edge">
<title>Node16&#45;&gt;Node2</title>
<path fill="none" stroke="midnightblue" d="M175.34,-168.37C195.41,-149.81 242.9,-105.91 268.3,-82.44"/>
<polygon fill="midnightblue" stroke="midnightblue" points="270.74,-84.95 275.71,-75.59 265.99,-79.81 270.74,-84.95"/>
</g>
<!-- Node17 -->
<g id="node17" class="node">
<title>Node17</title>
<g id="a_node17"><a xlink:title=" ">
<polygon fill="none" stroke="#bfbfbf" points="120.5,-112.5 120.5,-131.5 185.5,-131.5 185.5,-112.5 120.5,-112.5"/>
<text text-anchor="middle" x="153" y="-119.5" font-family="Helvetica,sans-Serif" font-size="10.00">stdexcept</text>
</a>
</g>
</g>
<!-- Node16&#45;&gt;Node17 -->
<g id="edge20" class="edge">
<title>Node16&#45;&gt;Node17</title>
<path fill="none" stroke="midnightblue" d="M163.85,-168.08C162.13,-160.93 159.65,-150.64 157.5,-141.69"/>
<polygon fill="midnightblue" stroke="midnightblue" points="160.85,-140.65 155.11,-131.75 154.04,-142.29 160.85,-140.65"/>
</g>
<!-- Node20&#45;&gt;Node2 -->
<g id="edge26" class="edge">
<title>Node20&#45;&gt;Node2</title>
<path fill="none" stroke="midnightblue" d="M274.62,-224.44C269.44,-215.68 261.99,-201.47 259,-188 250.85,-151.27 266.01,-108.18 276.41,-84.61"/>
<polygon fill="midnightblue" stroke="midnightblue" points="279.59,-86.06 280.62,-75.52 273.24,-83.12 279.59,-86.06"/>
</g>
<!-- Node20&#45;&gt;Node9 -->
<g id="edge27" class="edge">
<title>Node20&#45;&gt;Node9</title>
<path fill="none" stroke="midnightblue" d="M286.44,-224.08C291.95,-216.46 300.03,-205.26 306.76,-195.94"/>
<polygon fill="midnightblue" stroke="midnightblue" points="309.66,-197.91 312.68,-187.75 303.99,-193.81 309.66,-197.91"/>
</g>
<!-- Node20&#45;&gt;Node16 -->
<g id="edge28" class="edge">
<title>Node20&#45;&gt;Node16</title>
<path fill="none" stroke="midnightblue" d="M261.94,-224.44C243.43,-215.68 214.42,-201.94 193.14,-191.86"/>
<polygon fill="midnightblue" stroke="midnightblue" points="194.51,-188.63 183.98,-187.52 191.52,-194.96 194.51,-188.63"/>
</g>
<!-- Node21&#45;&gt;Node2 -->
<g id="edge32" class="edge">
<title>Node21&#45;&gt;Node2</title>
<path fill="none" stroke="midnightblue" d="M116.67,-224.26C106.66,-202.65 84.67,-146 111,-112 126.94,-91.41 196.04,-78.55 242.21,-72.08"/>
<polygon fill="midnightblue" stroke="midnightblue" points="242.82,-75.53 252.27,-70.72 241.89,-68.59 242.82,-75.53"/>
</g>
<!-- Node21&#45;&gt;Node10 -->
<g id="edge33" class="edge">
<title>Node21&#45;&gt;Node10</title>
<path fill="none" stroke="midnightblue" d="M112.03,-224.39C103.04,-215.58 89,-201.34 78,-188 65.27,-172.55 52.22,-153.77 43.28,-140.38"/>
<polygon fill="midnightblue" stroke="midnightblue" points="45.99,-138.13 37.57,-131.71 40.15,-141.98 45.99,-138.13"/>
</g>
<!-- Node21&#45;&gt;Node16 -->
<g id="edge34" class="edge">
<title>Node21&#45;&gt;Node16</title>
<path fill="none" stroke="midnightblue" d="M128.43,-224.08C134.85,-216.38 144.31,-205.03 152.12,-195.65"/>
<polygon fill="midnightblue" stroke="midnightblue" points="154.99,-197.67 158.71,-187.75 149.62,-193.19 154.99,-197.67"/>
</g>
</g>
</svg>
