<?xml version="1.0" encoding="UTF-8" standalone="no"?>
<!DOCTYPE svg PUBLIC "-//W3C//DTD SVG 1.1//EN"
 "http://www.w3.org/Graphics/SVG/1.1/DTD/svg11.dtd">
<!-- Generated by graphviz version 2.38.0 (20140413.2041)
 -->
<!-- Title: parser.hpp Pages: 1 -->
<svg width="94pt" height="140pt"
 viewBox="0.00 0.00 93.50 140.00" xmlns="http://www.w3.org/2000/svg" xmlns:xlink="http://www.w3.org/1999/xlink">
<g id="graph0" class="graph" transform="scale(1 1) rotate(0) translate(4 136)">
<title>parser.hpp</title>
<!-- Node1 -->
<g id="node1" class="node"><title>Node1</title>
<polygon fill="#bfbfbf" stroke="black" points="-3.55271e-15,-112.5 -3.55271e-15,-131.5 62,-131.5 62,-112.5 -3.55271e-15,-112.5"/>
<text text-anchor="middle" x="31" y="-119.5" font-family="Helvetica,sans-Serif" font-size="10.00">parser.hpp</text>
</g>
<!-- Node2 -->
<g id="node2" class="node"><title>Node2</title>
<g id="a_node2"><a xlink:href="all_8hpp.html" target="_top" xlink:title="all.hpp">
<polygon fill="none" stroke="black" points="8.5,-0.5 8.5,-19.5 53.5,-19.5 53.5,-0.5 8.5,-0.5"/>
<text text-anchor="middle" x="31" y="-7.5" font-family="Helvetica,sans-Serif" font-size="10.00">all.hpp</text>
</a>
</g>
</g>
<!-- Node1&#45;&gt;Node2 -->
<g id="edge1" class="edge"><title>Node1&#45;&gt;Node2</title>
<path fill="none" stroke="midnightblue" d="M27.4719,-102.547C26.0919,-94.4374 24.6788,-84.7796 24,-76 22.4427,-55.8572 26.4352,-32.3006 29.0128,-19.8158"/>
<polygon fill="midnightblue" stroke="midnightblue" points="24.0337,-103.204 29.2611,-112.419 30.9215,-101.955 24.0337,-103.204"/>
</g>
<!-- Node3 -->
<g id="node3" class="node"><title>Node3</title>
<g id="a_node3"><a xlink:href="utils_8hpp.html" target="_top" xlink:title="utils.hpp">
<polygon fill="none" stroke="black" points="32.5,-56.5 32.5,-75.5 85.5,-75.5 85.5,-56.5 32.5,-56.5"/>
<text text-anchor="middle" x="59" y="-63.5" font-family="Helvetica,sans-Serif" font-size="10.00">utils.hpp</text>
</a>
</g>
</g>
<!-- Node1&#45;&gt;Node3 -->
<g id="edge2" class="edge"><title>Node1&#45;&gt;Node3</title>
<path fill="none" stroke="midnightblue" d="M40.3423,-102.983C45.095,-93.8168 50.6559,-83.0922 54.4624,-75.7511"/>
<polygon fill="midnightblue" stroke="midnightblue" points="37.1197,-101.594 35.6236,-112.083 43.334,-104.817 37.1197,-101.594"/>
</g>
<!-- Node3&#45;&gt;Node2 -->
<g id="edge3" class="edge"><title>Node3&#45;&gt;Node2</title>
<path fill="none" stroke="midnightblue" d="M49.6577,-46.9827C44.905,-37.8168 39.3441,-27.0922 35.5376,-19.7511"/>
<polygon fill="midnightblue" stroke="midnightblue" points="46.666,-48.8166 54.3764,-56.083 52.8803,-45.5943 46.666,-48.8166"/>
</g>
</g>
</svg>
