<?xml version="1.0" encoding="UTF-8" standalone="no"?>
<!DOCTYPE svg PUBLIC "-//W3C//DTD SVG 1.1//EN"
 "http://www.w3.org/Graphics/SVG/1.1/DTD/svg11.dtd">
<!-- Generated by graphviz version 2.43.0 (0)
 -->
<!-- Title: parser.hpp Pages: 1 -->
<svg width="1014pt" height="302pt"
 viewBox="0.00 0.00 1014.00 302.00" xmlns="http://www.w3.org/2000/svg" xmlns:xlink="http://www.w3.org/1999/xlink">
<g id="graph0" class="graph" transform="scale(1 1) rotate(0) translate(4 298)">
<title>parser.hpp</title>
<!-- Node1 -->
<g id="Node000001" class="node">
<title>Node1</title>
<g id="a_Node000001"><a xlink:title=" ">
<polygon fill="#999999" stroke="#666666" points="618,-294 550,-294 550,-275 618,-275 618,-294"/>
<text text-anchor="middle" x="584" y="-282" font-family="Helvetica,sans-Serif" font-size="10.00">parser.hpp</text>
</a>
</g>
</g>
<!-- Node2 -->
<g id="Node000002" class="node">
<title>Node2</title>
<g id="a_Node000002"><a xlink:href="types_8hpp.html" target="_top" xlink:title=" ">
<polygon fill="white" stroke="#666666" points="642.5,-74 577.5,-74 577.5,-55 642.5,-55 642.5,-74"/>
<text text-anchor="middle" x="610" y="-62" font-family="Helvetica,sans-Serif" font-size="10.00">types.hpp</text>
</a>
</g>
</g>
<!-- Node1&#45;&gt;Node2 -->
<g id="edge1_Node000001_Node000002" class="edge">
<title>Node1&#45;&gt;Node2</title>
<g id="a_edge1_Node000001_Node000002"><a xlink:title=" ">
<path fill="none" stroke="#63b8ff" d="M618.12,-283.68C664.95,-282.48 750.34,-274.98 812,-239 860.1,-210.93 865.55,-184.31 872,-129 872.98,-120.61 877.45,-116.45 872,-110 844.45,-77.38 719.77,-68.67 652.82,-66.34"/>
<polygon fill="#63b8ff" stroke="#63b8ff" points="652.7,-62.84 642.59,-66.02 652.48,-69.83 652.7,-62.84"/>
</a>
</g>
</g>
<!-- Node10 -->
<g id="Node000010" class="node">
<title>Node10</title>
<g id="a_Node000010"><a xlink:href="input__stream_8hpp.html" target="_top" xlink:title=" ">
<polygon fill="white" stroke="#666666" points="816,-184 714,-184 714,-165 816,-165 816,-184"/>
<text text-anchor="middle" x="765" y="-172" font-family="Helvetica,sans-Serif" font-size="10.00">input_stream.hpp</text>
</a>
</g>
</g>
<!-- Node1&#45;&gt;Node10 -->
<g id="edge9_Node000001_Node000010" class="edge">
<title>Node1&#45;&gt;Node10</title>
<g id="a_edge9_Node000001_Node000010"><a xlink:title=" ">
<path fill="none" stroke="#63b8ff" d="M618.12,-279.87C649.29,-275.05 695.22,-264 727,-239 741.8,-227.35 752.12,-208.22 758.23,-193.99"/>
<polygon fill="#63b8ff" stroke="#63b8ff" points="761.65,-194.86 762.08,-184.27 755.14,-192.28 761.65,-194.86"/>
</a>
</g>
</g>
<!-- Node11 -->
<g id="Node000011" class="node">
<title>Node11</title>
<g id="a_Node000011"><a xlink:href="const_8hpp.html" target="_top" xlink:title=" ">
<polygon fill="white" stroke="#666666" points="863,-129 799,-129 799,-110 863,-110 863,-129"/>
<text text-anchor="middle" x="831" y="-117" font-family="Helvetica,sans-Serif" font-size="10.00">const.hpp</text>
</a>
</g>
</g>
<!-- Node1&#45;&gt;Node11 -->
<g id="edge31_Node000001_Node000011" class="edge">
<title>Node1&#45;&gt;Node11</title>
<g id="a_edge31_Node000001_Node000011"><a xlink:title=" ">
<path fill="none" stroke="#63b8ff" d="M618.16,-282.88C677.49,-279.66 797.59,-263.18 843,-184 851.01,-170.04 846.27,-151.79 840.56,-138.44"/>
<polygon fill="#63b8ff" stroke="#63b8ff" points="843.68,-136.84 836.2,-129.33 837.37,-139.87 843.68,-136.84"/>
</a>
</g>
</g>
<!-- Node12 -->
<g id="Node000012" class="node">
<title>Node12</title>
<g id="a_Node000012"><a xlink:title=" ">
<polygon fill="#e0e0e0" stroke="#999999" points="724.5,-129 681.5,-129 681.5,-110 724.5,-110 724.5,-129"/>
<text text-anchor="middle" x="703" y="-117" font-family="Helvetica,sans-Serif" font-size="10.00">stack</text>
</a>
</g>
</g>
<!-- Node1&#45;&gt;Node12 -->
<g id="edge37_Node000001_Node000012" class="edge">
<title>Node1&#45;&gt;Node12</title>
<g id="a_edge37_Node000001_Node000012"><a xlink:title=" ">
<path fill="none" stroke="#63b8ff" d="M618.17,-279.26C643.43,-274.19 676.38,-263.12 694,-239 705.23,-223.63 704.95,-168.86 703.91,-139.47"/>
<polygon fill="#63b8ff" stroke="#63b8ff" points="707.4,-139.1 703.49,-129.26 700.41,-139.39 707.4,-139.1"/>
</a>
</g>
</g>
<!-- Node13 -->
<g id="Node000013" class="node">
<title>Node13</title>
<g id="a_Node000013"><a xlink:href="tag_8hpp.html" target="_top" xlink:title=" ">
<polygon fill="white" stroke="#666666" points="336.5,-239 283.5,-239 283.5,-220 336.5,-220 336.5,-239"/>
<text text-anchor="middle" x="310" y="-227" font-family="Helvetica,sans-Serif" font-size="10.00">tag.hpp</text>
</a>
</g>
</g>
<!-- Node1&#45;&gt;Node13 -->
<g id="edge14_Node000001_Node000013" class="edge">
<title>Node1&#45;&gt;Node13</title>
<g id="a_edge14_Node000001_Node000013"><a xlink:title=" ">
<path fill="none" stroke="#63b8ff" d="M549.85,-276.89C498.07,-266.88 400.1,-247.93 346.79,-237.62"/>
<polygon fill="#63b8ff" stroke="#63b8ff" points="347.24,-234.14 336.76,-235.68 345.91,-241.01 347.24,-234.14"/>
</a>
</g>
</g>
<!-- Node14 -->
<g id="Node000014" class="node">
<title>Node14</title>
<g id="a_Node000014"><a xlink:title=" ">
<polygon fill="#e0e0e0" stroke="#999999" points="98,-184 0,-184 0,-165 98,-165 98,-184"/>
<text text-anchor="middle" x="49" y="-172" font-family="Helvetica,sans-Serif" font-size="10.00">QDomDocument</text>
</a>
</g>
</g>
<!-- Node1&#45;&gt;Node14 -->
<g id="edge38_Node000001_Node000014" class="edge">
<title>Node1&#45;&gt;Node14</title>
<g id="a_edge38_Node000001_Node000014"><a xlink:title=" ">
<path fill="none" stroke="#63b8ff" d="M549.8,-281.66C485.98,-277.68 344.76,-266.34 229,-239 174.55,-226.14 113.63,-202.62 78.46,-188.1"/>
<polygon fill="#63b8ff" stroke="#63b8ff" points="79.4,-184.7 68.82,-184.08 76.7,-191.16 79.4,-184.7"/>
</a>
</g>
</g>
<!-- Node15 -->
<g id="Node000015" class="node">
<title>Node15</title>
<g id="a_Node000015"><a xlink:title=" ">
<polygon fill="#e0e0e0" stroke="#999999" points="472,-184 384,-184 384,-165 472,-165 472,-184"/>
<text text-anchor="middle" x="428" y="-172" font-family="Helvetica,sans-Serif" font-size="10.00">QDomElement</text>
</a>
</g>
</g>
<!-- Node1&#45;&gt;Node15 -->
<g id="edge39_Node000001_Node000015" class="edge">
<title>Node1&#45;&gt;Node15</title>
<g id="a_edge39_Node000001_Node000015"><a xlink:title=" ">
<path fill="none" stroke="#63b8ff" d="M561.58,-274.91C542.46,-267.04 514.7,-254.31 493,-239 473.57,-225.3 454.49,-205.72 442.08,-191.93"/>
<polygon fill="#63b8ff" stroke="#63b8ff" points="444.51,-189.39 435.27,-184.2 439.25,-194.02 444.51,-189.39"/>
</a>
</g>
</g>
<!-- Node16 -->
<g id="Node000016" class="node">
<title>Node16</title>
<g id="a_Node000016"><a xlink:href="parser__info_8hpp.html" target="_top" xlink:title=" ">
<polygon fill="white" stroke="#666666" points="208,-184 116,-184 116,-165 208,-165 208,-184"/>
<text text-anchor="middle" x="162" y="-172" font-family="Helvetica,sans-Serif" font-size="10.00">parser_info.hpp</text>
</a>
</g>
</g>
<!-- Node1&#45;&gt;Node16 -->
<g id="edge30_Node000001_Node000016" class="edge">
<title>Node1&#45;&gt;Node16</title>
<g id="a_edge30_Node000001_Node000016"><a xlink:title=" ">
<path fill="none" stroke="#63b8ff" d="M549.55,-282.71C491.28,-280.46 370.22,-271.87 274,-239 239.57,-227.24 203.65,-204.77 182.05,-189.96"/>
<polygon fill="#63b8ff" stroke="#63b8ff" points="183.92,-186.99 173.72,-184.13 179.91,-192.73 183.92,-186.99"/>
</a>
</g>
</g>
<!-- Node17 -->
<g id="Node000017" class="node">
<title>Node17</title>
<g id="a_Node000017"><a xlink:href="exceptions_8hpp.html" target="_top" xlink:title=" ">
<polygon fill="white" stroke="#666666" points="581.5,-184 490.5,-184 490.5,-165 581.5,-165 581.5,-184"/>
<text text-anchor="middle" x="536" y="-172" font-family="Helvetica,sans-Serif" font-size="10.00">exceptions.hpp</text>
</a>
</g>
</g>
<!-- Node1&#45;&gt;Node17 -->
<g id="edge25_Node000001_Node000017" class="edge">
<title>Node1&#45;&gt;Node17</title>
<g id="a_edge25_Node000001_Node000017"><a xlink:title=" ">
<path fill="none" stroke="#63b8ff" d="M550.6,-274.98C532.22,-268.4 510.98,-257.24 500,-239 490.28,-222.84 504.02,-204.02 517.23,-191.08"/>
<polygon fill="#63b8ff" stroke="#63b8ff" points="519.74,-193.53 524.77,-184.21 515.02,-188.36 519.74,-193.53"/>
</a>
</g>
</g>
<!-- Node20 -->
<g id="Node000020" class="node">
<title>Node20</title>
<g id="a_Node000020"><a xlink:href="lex_8hpp.html" target="_top" xlink:title=" ">
<polygon fill="white" stroke="#666666" points="562.5,-239 509.5,-239 509.5,-220 562.5,-220 562.5,-239"/>
<text text-anchor="middle" x="536" y="-227" font-family="Helvetica,sans-Serif" font-size="10.00">lex.hpp</text>
</a>
</g>
</g>
<!-- Node1&#45;&gt;Node20 -->
<g id="edge26_Node000001_Node000020" class="edge">
<title>Node1&#45;&gt;Node20</title>
<g id="a_edge26_Node000001_Node000020"><a xlink:title=" ">
<path fill="none" stroke="#63b8ff" d="M576.07,-274.75C569.15,-267.11 558.93,-255.82 550.55,-246.56"/>
<polygon fill="#63b8ff" stroke="#63b8ff" points="553.09,-244.15 543.78,-239.09 547.9,-248.85 553.09,-244.15"/>
</a>
</g>
</g>
<!-- Node21 -->
<g id="Node000021" class="node">
<title>Node21</title>
<g id="a_Node000021"><a xlink:href="string__format_8hpp.html" target="_top" xlink:title=" ">
<polygon fill="white" stroke="#666666" points="685,-239 581,-239 581,-220 685,-220 685,-239"/>
<text text-anchor="middle" x="633" y="-227" font-family="Helvetica,sans-Serif" font-size="10.00">string_format.hpp</text>
</a>
</g>
</g>
<!-- Node1&#45;&gt;Node21 -->
<g id="edge32_Node000001_Node000021" class="edge">
<title>Node1&#45;&gt;Node21</title>
<g id="a_edge32_Node000001_Node000021"><a xlink:title=" ">
<path fill="none" stroke="#63b8ff" d="M592.09,-274.75C599.16,-267.11 609.59,-255.82 618.15,-246.56"/>
<polygon fill="#63b8ff" stroke="#63b8ff" points="620.84,-248.81 625.06,-239.09 615.7,-244.06 620.84,-248.81"/>
</a>
</g>
</g>
<!-- Node22 -->
<g id="Node000022" class="node">
<title>Node22</title>
<g id="a_Node000022"><a xlink:title=" ">
<polygon fill="#e0e0e0" stroke="#999999" points="1006,-239 948,-239 948,-220 1006,-220 1006,-239"/>
<text text-anchor="middle" x="977" y="-227" font-family="Helvetica,sans-Serif" font-size="10.00">memory</text>
</a>
</g>
</g>
<!-- Node1&#45;&gt;Node22 -->
<g id="edge36_Node000001_Node000022" class="edge">
<title>Node1&#45;&gt;Node22</title>
<g id="a_edge36_Node000001_Node000022"><a xlink:title=" ">
<path fill="none" stroke="#63b8ff" d="M618.39,-279.92C681.25,-273.2 818.82,-257.68 934,-239 935.27,-238.79 936.55,-238.58 937.85,-238.36"/>
<polygon fill="#63b8ff" stroke="#63b8ff" points="938.69,-241.76 947.9,-236.53 937.44,-234.87 938.69,-241.76"/>
</a>
</g>
</g>
<!-- Node3 -->
<g id="Node000003" class="node">
<title>Node3</title>
<g id="a_Node000003"><a xlink:title=" ">
<polygon fill="#e0e0e0" stroke="#999999" points="832,-19 788,-19 788,0 832,0 832,-19"/>
<text text-anchor="middle" x="810" y="-7" font-family="Helvetica,sans-Serif" font-size="10.00">string</text>
</a>
</g>
</g>
<!-- Node2&#45;&gt;Node3 -->
<g id="edge2_Node000002_Node000003" class="edge">
<title>Node2&#45;&gt;Node3</title>
<g id="a_edge2_Node000002_Node000003"><a xlink:title=" ">
<path fill="none" stroke="#63b8ff" d="M642.74,-54.98C674.81,-46.62 725.32,-33.38 778.11,-19.22"/>
<polygon fill="#63b8ff" stroke="#63b8ff" points="779.24,-22.54 787.99,-16.56 777.43,-15.78 779.24,-22.54"/>
</a>
</g>
</g>
<!-- Node4 -->
<g id="Node000004" class="node">
<title>Node4</title>
<g id="a_Node000004"><a xlink:title=" ">
<polygon fill="#e0e0e0" stroke="#999999" points="458,-19 398,-19 398,0 458,0 458,-19"/>
<text text-anchor="middle" x="428" y="-7" font-family="Helvetica,sans-Serif" font-size="10.00">iostream</text>
</a>
</g>
</g>
<!-- Node2&#45;&gt;Node4 -->
<g id="edge3_Node000002_Node000004" class="edge">
<title>Node2&#45;&gt;Node4</title>
<g id="a_edge3_Node000002_Node000004"><a xlink:title=" ">
<path fill="none" stroke="#63b8ff" d="M580.76,-54.98C549.94,-46.01 501.22,-31.82 467.11,-21.89"/>
<polygon fill="#63b8ff" stroke="#63b8ff" points="468.05,-18.52 457.47,-19.08 466.09,-25.24 468.05,-18.52"/>
</a>
</g>
</g>
<!-- Node5 -->
<g id="Node000005" class="node">
<title>Node5</title>
<g id="a_Node000005"><a xlink:title=" ">
<polygon fill="#e0e0e0" stroke="#999999" points="533.5,-19 476.5,-19 476.5,0 533.5,0 533.5,-19"/>
<text text-anchor="middle" x="505" y="-7" font-family="Helvetica,sans-Serif" font-size="10.00">cwctype</text>
</a>
</g>
</g>
<!-- Node2&#45;&gt;Node5 -->
<g id="edge4_Node000002_Node000005" class="edge">
<title>Node2&#45;&gt;Node5</title>
<g id="a_edge4_Node000002_Node000005"><a xlink:title=" ">
<path fill="none" stroke="#63b8ff" d="M593.13,-54.98C576.39,-46.54 550.5,-33.47 531.11,-23.68"/>
<polygon fill="#63b8ff" stroke="#63b8ff" points="532.68,-20.55 522.18,-19.17 529.53,-26.8 532.68,-20.55"/>
</a>
</g>
</g>
<!-- Node6 -->
<g id="Node000006" class="node">
<title>Node6</title>
<g id="a_Node000006"><a xlink:title=" ">
<polygon fill="#e0e0e0" stroke="#999999" points="600.5,-19 551.5,-19 551.5,0 600.5,0 600.5,-19"/>
<text text-anchor="middle" x="576" y="-7" font-family="Helvetica,sans-Serif" font-size="10.00">cctype</text>
</a>
</g>
</g>
<!-- Node2&#45;&gt;Node6 -->
<g id="edge5_Node000002_Node000006" class="edge">
<title>Node2&#45;&gt;Node6</title>
<g id="a_edge5_Node000002_Node000006"><a xlink:title=" ">
<path fill="none" stroke="#63b8ff" d="M604.39,-54.75C599.68,-47.42 592.83,-36.73 587.03,-27.7"/>
<polygon fill="#63b8ff" stroke="#63b8ff" points="589.86,-25.62 581.51,-19.09 583.96,-29.4 589.86,-25.62"/>
</a>
</g>
</g>
<!-- Node7 -->
<g id="Node000007" class="node">
<title>Node7</title>
<g id="a_Node000007"><a xlink:title=" ">
<polygon fill="#e0e0e0" stroke="#999999" points="302.5,-19 255.5,-19 255.5,0 302.5,0 302.5,-19"/>
<text text-anchor="middle" x="279" y="-7" font-family="Helvetica,sans-Serif" font-size="10.00">vector</text>
</a>
</g>
</g>
<!-- Node2&#45;&gt;Node7 -->
<g id="edge6_Node000002_Node000007" class="edge">
<title>Node2&#45;&gt;Node7</title>
<g id="a_edge6_Node000002_Node000007"><a xlink:title=" ">
<path fill="none" stroke="#63b8ff" d="M577.36,-58.27C514.32,-48.18 376.45,-26.1 312.64,-15.89"/>
<polygon fill="#63b8ff" stroke="#63b8ff" points="313.12,-12.42 302.69,-14.29 312.01,-19.33 313.12,-12.42"/>
</a>
</g>
</g>
<!-- Node8 -->
<g id="Node000008" class="node">
<title>Node8</title>
<g id="a_Node000008"><a xlink:title=" ">
<polygon fill="#e0e0e0" stroke="#999999" points="671.5,-19 618.5,-19 618.5,0 671.5,0 671.5,-19"/>
<text text-anchor="middle" x="645" y="-7" font-family="Helvetica,sans-Serif" font-size="10.00">QString</text>
</a>
</g>
</g>
<!-- Node2&#45;&gt;Node8 -->
<g id="edge7_Node000002_Node000008" class="edge">
<title>Node2&#45;&gt;Node8</title>
<g id="a_edge7_Node000002_Node000008"><a xlink:title=" ">
<path fill="none" stroke="#63b8ff" d="M615.78,-54.75C620.62,-47.42 627.68,-36.73 633.64,-27.7"/>
<polygon fill="#63b8ff" stroke="#63b8ff" points="636.74,-29.36 639.33,-19.09 630.9,-25.5 636.74,-29.36"/>
</a>
</g>
</g>
<!-- Node9 -->
<g id="Node000009" class="node">
<title>Node9</title>
<g id="a_Node000009"><a xlink:title=" ">
<polygon fill="#e0e0e0" stroke="#999999" points="770,-19 690,-19 690,0 770,0 770,-19"/>
<text text-anchor="middle" x="730" y="-7" font-family="Helvetica,sans-Serif" font-size="10.00">QTextStream</text>
</a>
</g>
</g>
<!-- Node2&#45;&gt;Node9 -->
<g id="edge8_Node000002_Node000009" class="edge">
<title>Node2&#45;&gt;Node9</title>
<g id="a_edge8_Node000002_Node000009"><a xlink:title=" ">
<path fill="none" stroke="#63b8ff" d="M629.28,-54.98C648.67,-46.42 678.81,-33.11 701.07,-23.28"/>
<polygon fill="#63b8ff" stroke="#63b8ff" points="702.64,-26.41 710.37,-19.17 699.81,-20.01 702.64,-26.41"/>
</a>
</g>
</g>
<!-- Node10&#45;&gt;Node2 -->
<g id="edge10_Node000010_Node000002" class="edge">
<title>Node10&#45;&gt;Node2</title>
<g id="a_edge10_Node000010_Node000002"><a xlink:title=" ">
<path fill="none" stroke="#63b8ff" d="M763.01,-164.83C759.47,-151.28 750.81,-125.06 734,-110 711.37,-89.72 678.83,-78.51 652.76,-72.41"/>
<polygon fill="#63b8ff" stroke="#63b8ff" points="653.27,-68.94 642.76,-70.24 651.79,-75.78 653.27,-68.94"/>
</a>
</g>
</g>
<!-- Node10&#45;&gt;Node11 -->
<g id="edge11_Node000010_Node000011" class="edge">
<title>Node10&#45;&gt;Node11</title>
<g id="a_edge11_Node000010_Node000011"><a xlink:title=" ">
<path fill="none" stroke="#63b8ff" d="M775.6,-164.98C785.46,-157.07 800.35,-145.11 812.22,-135.58"/>
<polygon fill="#63b8ff" stroke="#63b8ff" points="814.6,-138.16 820.2,-129.17 810.21,-132.7 814.6,-138.16"/>
</a>
</g>
</g>
<!-- Node10&#45;&gt;Node12 -->
<g id="edge13_Node000010_Node000012" class="edge">
<title>Node10&#45;&gt;Node12</title>
<g id="a_edge13_Node000010_Node000012"><a xlink:title=" ">
<path fill="none" stroke="#63b8ff" d="M755.04,-164.98C745.87,-157.15 732.06,-145.34 720.97,-135.86"/>
<polygon fill="#63b8ff" stroke="#63b8ff" points="723.02,-133.01 713.14,-129.17 718.47,-138.33 723.02,-133.01"/>
</a>
</g>
</g>
<!-- Node11&#45;&gt;Node2 -->
<g id="edge12_Node000011_Node000002" class="edge">
<title>Node11&#45;&gt;Node2</title>
<g id="a_edge12_Node000011_Node000002"><a xlink:title=" ">
<path fill="none" stroke="#63b8ff" d="M798.86,-110.79C760.19,-101.52 695.11,-85.91 652.36,-75.66"/>
<polygon fill="#63b8ff" stroke="#63b8ff" points="653.07,-72.23 642.53,-73.3 651.44,-79.04 653.07,-72.23"/>
</a>
</g>
</g>
<!-- Node13&#45;&gt;Node2 -->
<g id="edge19_Node000013_Node000002" class="edge">
<title>Node13&#45;&gt;Node2</title>
<g id="a_edge19_Node000013_Node000002"><a xlink:title=" ">
<path fill="none" stroke="#63b8ff" d="M303.48,-219.85C294.49,-206.77 280.71,-181.74 293,-165 325.88,-120.22 488.72,-86.5 567.35,-72.55"/>
<polygon fill="#63b8ff" stroke="#63b8ff" points="568.17,-75.96 577.42,-70.79 566.96,-69.06 568.17,-75.96"/>
</a>
</g>
</g>
<!-- Node13&#45;&gt;Node7 -->
<g id="edge23_Node000013_Node000007" class="edge">
<title>Node13&#45;&gt;Node7</title>
<g id="a_edge23_Node000013_Node000007"><a xlink:title=" ">
<path fill="none" stroke="#63b8ff" d="M303.47,-219.86C297.42,-211.27 288.78,-197.48 285,-184 269.72,-129.46 273.64,-61.5 276.8,-29.21"/>
<polygon fill="#63b8ff" stroke="#63b8ff" points="280.31,-29.34 277.9,-19.02 273.35,-28.59 280.31,-29.34"/>
</a>
</g>
</g>
<!-- Node13&#45;&gt;Node14 -->
<g id="edge15_Node000013_Node000014" class="edge">
<title>Node13&#45;&gt;Node14</title>
<g id="a_edge15_Node000013_Node000014"><a xlink:title=" ">
<path fill="none" stroke="#63b8ff" d="M283.05,-223.03C240.26,-214.34 156.01,-197.23 101.13,-186.09"/>
<polygon fill="#63b8ff" stroke="#63b8ff" points="101.74,-182.64 91.24,-184.08 100.34,-189.5 101.74,-182.64"/>
</a>
</g>
</g>
<!-- Node13&#45;&gt;Node15 -->
<g id="edge16_Node000013_Node000015" class="edge">
<title>Node13&#45;&gt;Node15</title>
<g id="a_edge16_Node000013_Node000015"><a xlink:title=" ">
<path fill="none" stroke="#63b8ff" d="M328.96,-219.98C348.03,-211.42 377.66,-198.11 399.55,-188.28"/>
<polygon fill="#63b8ff" stroke="#63b8ff" points="401.01,-191.46 408.7,-184.17 398.14,-185.07 401.01,-191.46"/>
</a>
</g>
</g>
<!-- Node13&#45;&gt;Node16 -->
<g id="edge17_Node000013_Node000016" class="edge">
<title>Node13&#45;&gt;Node16</title>
<g id="a_edge17_Node000013_Node000016"><a xlink:title=" ">
<path fill="none" stroke="#63b8ff" d="M286.22,-219.98C261.77,-211.23 223.47,-197.51 195.85,-187.62"/>
<polygon fill="#63b8ff" stroke="#63b8ff" points="196.81,-184.25 186.21,-184.17 194.45,-190.84 196.81,-184.25"/>
</a>
</g>
</g>
<!-- Node13&#45;&gt;Node17 -->
<g id="edge20_Node000013_Node000017" class="edge">
<title>Node13&#45;&gt;Node17</title>
<g id="a_edge20_Node000013_Node000017"><a xlink:title=" ">
<path fill="none" stroke="#63b8ff" d="M336.81,-222.21C374.5,-213.37 443.69,-197.15 489.77,-186.34"/>
<polygon fill="#63b8ff" stroke="#63b8ff" points="490.58,-189.75 499.52,-184.05 488.99,-182.93 490.58,-189.75"/>
</a>
</g>
</g>
<!-- Node19 -->
<g id="Node000019" class="node">
<title>Node19</title>
<g id="a_Node000019"><a xlink:title=" ">
<polygon fill="#e0e0e0" stroke="#999999" points="366,-184 302,-184 302,-165 366,-165 366,-184"/>
<text text-anchor="middle" x="334" y="-172" font-family="Helvetica,sans-Serif" font-size="10.00">algorithm</text>
</a>
</g>
</g>
<!-- Node13&#45;&gt;Node19 -->
<g id="edge24_Node000013_Node000019" class="edge">
<title>Node13&#45;&gt;Node19</title>
<g id="a_edge24_Node000013_Node000019"><a xlink:title=" ">
<path fill="none" stroke="#63b8ff" d="M313.96,-219.75C317.21,-212.57 321.92,-202.18 325.95,-193.27"/>
<polygon fill="#63b8ff" stroke="#63b8ff" points="329.17,-194.64 330.11,-184.09 322.8,-191.75 329.17,-194.64"/>
</a>
</g>
</g>
<!-- Node16&#45;&gt;Node2 -->
<g id="edge18_Node000016_Node000002" class="edge">
<title>Node16&#45;&gt;Node2</title>
<g id="a_edge18_Node000016_Node000002"><a xlink:title=" ">
<path fill="none" stroke="#63b8ff" d="M176.52,-164.95C200.8,-151.08 251.55,-123.82 298,-110 391.69,-82.12 506.58,-71.48 567.44,-67.6"/>
<polygon fill="#63b8ff" stroke="#63b8ff" points="567.67,-71.09 577.44,-66.99 567.25,-64.1 567.67,-71.09"/>
</a>
</g>
</g>
<!-- Node17&#45;&gt;Node2 -->
<g id="edge22_Node000017_Node000002" class="edge">
<title>Node17&#45;&gt;Node2</title>
<g id="a_edge22_Node000017_Node000002"><a xlink:title=" ">
<path fill="none" stroke="#63b8ff" d="M526.68,-164.85C514.22,-152.22 495.02,-128.23 507,-110 520.45,-89.53 545.54,-78.43 567.59,-72.44"/>
<polygon fill="#63b8ff" stroke="#63b8ff" points="568.57,-75.8 577.45,-70.03 566.9,-69 568.57,-75.8"/>
</a>
</g>
</g>
<!-- Node18 -->
<g id="Node000018" class="node">
<title>Node18</title>
<g id="a_Node000018"><a xlink:title=" ">
<polygon fill="#e0e0e0" stroke="#999999" points="581.5,-129 516.5,-129 516.5,-110 581.5,-110 581.5,-129"/>
<text text-anchor="middle" x="549" y="-117" font-family="Helvetica,sans-Serif" font-size="10.00">stdexcept</text>
</a>
</g>
</g>
<!-- Node17&#45;&gt;Node18 -->
<g id="edge21_Node000017_Node000018" class="edge">
<title>Node17&#45;&gt;Node18</title>
<g id="a_edge21_Node000017_Node000018"><a xlink:title=" ">
<path fill="none" stroke="#63b8ff" d="M538.15,-164.75C539.87,-157.72 542.35,-147.62 544.5,-138.84"/>
<polygon fill="#63b8ff" stroke="#63b8ff" points="547.91,-139.63 546.89,-129.09 541.11,-137.97 547.91,-139.63"/>
</a>
</g>
</g>
<!-- Node20&#45;&gt;Node2 -->
<g id="edge27_Node000020_Node000002" class="edge">
<title>Node20&#45;&gt;Node2</title>
<g id="a_edge27_Node000020_Node000002"><a xlink:title=" ">
<path fill="none" stroke="#63b8ff" d="M551.67,-219.89C564.13,-212.17 580.94,-199.67 590,-184 608.22,-152.51 610.9,-108.93 610.75,-84.35"/>
<polygon fill="#63b8ff" stroke="#63b8ff" points="614.25,-84.14 610.52,-74.22 607.25,-84.3 614.25,-84.14"/>
</a>
</g>
</g>
<!-- Node20&#45;&gt;Node10 -->
<g id="edge28_Node000020_Node000010" class="edge">
<title>Node20&#45;&gt;Node10</title>
<g id="a_edge28_Node000020_Node000010"><a xlink:title=" ">
<path fill="none" stroke="#63b8ff" d="M562.73,-222.17C565.86,-221.44 569,-220.7 572,-220 621.64,-208.42 678.52,-195.32 717.59,-186.36"/>
<polygon fill="#63b8ff" stroke="#63b8ff" points="718.66,-189.7 727.63,-184.06 717.1,-182.88 718.66,-189.7"/>
</a>
</g>
</g>
<!-- Node20&#45;&gt;Node17 -->
<g id="edge29_Node000020_Node000017" class="edge">
<title>Node20&#45;&gt;Node17</title>
<g id="a_edge29_Node000020_Node000017"><a xlink:title=" ">
<path fill="none" stroke="#63b8ff" d="M536,-219.75C536,-212.8 536,-202.85 536,-194.13"/>
<polygon fill="#63b8ff" stroke="#63b8ff" points="539.5,-194.09 536,-184.09 532.5,-194.09 539.5,-194.09"/>
</a>
</g>
</g>
<!-- Node21&#45;&gt;Node2 -->
<g id="edge33_Node000021_Node000002" class="edge">
<title>Node21&#45;&gt;Node2</title>
<g id="a_edge33_Node000021_Node000002"><a xlink:title=" ">
<path fill="none" stroke="#63b8ff" d="M633.02,-219.79C632.91,-200.05 631.81,-150.52 624,-110 622.31,-101.25 619.49,-91.81 616.82,-83.88"/>
<polygon fill="#63b8ff" stroke="#63b8ff" points="620.04,-82.47 613.4,-74.21 613.44,-84.81 620.04,-82.47"/>
</a>
</g>
</g>
<!-- Node21&#45;&gt;Node11 -->
<g id="edge34_Node000021_Node000011" class="edge">
<title>Node21&#45;&gt;Node11</title>
<g id="a_edge34_Node000021_Node000011"><a xlink:title=" ">
<path fill="none" stroke="#63b8ff" d="M685.21,-223.23C735.6,-216.99 806.87,-204.73 825,-184 835.58,-171.9 836.09,-153.1 834.55,-139.09"/>
<polygon fill="#63b8ff" stroke="#63b8ff" points="837.99,-138.46 833.03,-129.1 831.07,-139.52 837.99,-138.46"/>
</a>
</g>
</g>
<!-- Node21&#45;&gt;Node17 -->
<g id="edge35_Node000021_Node000017" class="edge">
<title>Node21&#45;&gt;Node17</title>
<g id="a_edge35_Node000021_Node000017"><a xlink:title=" ">
<path fill="none" stroke="#63b8ff" d="M617.42,-219.98C602.23,-211.69 578.9,-198.94 561.1,-189.22"/>
<polygon fill="#63b8ff" stroke="#63b8ff" points="562.32,-185.89 551.87,-184.17 558.97,-192.04 562.32,-185.89"/>
</a>
</g>
</g>
</g>
</svg>
