<?xml version="1.0" encoding="UTF-8" standalone="no"?>
<!DOCTYPE svg PUBLIC "-//W3C//DTD SVG 1.1//EN"
 "http://www.w3.org/Graphics/SVG/1.1/DTD/svg11.dtd">
<!-- Generated by graphviz version 2.43.0 (0)
 -->
<!-- Title: parser_info.hpp Pages: 1 -->
<!--zoomable 252 -->
<svg id="main" version="1.1" xmlns="http://www.w3.org/2000/svg" xmlns:xlink="http://www.w3.org/1999/xlink" xml:space="preserve" onload="init(evt)">
<style type="text/css"><![CDATA[
.edge:hover path { stroke: red; }
.edge:hover polygon { stroke: red; fill: red; }
]]></style>
<script type="text/javascript"><![CDATA[
var edges = document.getElementsByTagName('g');
if (edges && edges.length) {
  for (var i=0;i<edges.length;i++) {
    if (edges[i].id.substr(0,4)=='edge') {
      edges[i].setAttribute('class','edge');
    }
  }
}
]]></script>
        <defs>
                <circle id="rim" cx="0" cy="0" r="7"/>
                <circle id="rim2" cx="0" cy="0" r="3.5"/>
                <g id="zoomPlus">
                        <use xlink:href="#rim" fill="#404040">
                                <set attributeName="fill" to="#808080" begin="zoomplus.mouseover" end="zoomplus.mouseout"/>
                        </use>
                        <path d="M-4,0h8M0,-4v8" fill="none" stroke="white" stroke-width="1.5" pointer-events="none"/>
                </g>
                <g id="zoomMin">
                        <use xlink:href="#rim" fill="#404040">
                                <set attributeName="fill" to="#808080" begin="zoomminus.mouseover" end="zoomminus.mouseout"/>
                        </use>
                        <path d="M-4,0h8" fill="none" stroke="white" stroke-width="1.5" pointer-events="none"/>
                </g>
                <g id="dirArrow">
                        <path fill="none" stroke="white" stroke-width="1.5" d="M0,-3.0v7 M-2.5,-0.5L0,-3.0L2.5,-0.5"/>
                </g>
               <g id="resetDef">
                       <use xlink:href="#rim2" fill="#404040">
                               <set attributeName="fill" to="#808080" begin="reset.mouseover" end="reset.mouseout"/>
                       </use>
               </g>
        </defs>

<script type="text/javascript">
var viewWidth = 571;
var viewHeight = 252;
var sectionId = 'dynsection-1';
</script>
<script xlink:href="svgpan.js"/>
<svg id="graph" class="graph">
<g id="viewport">
<title>parser_info.hpp</title>
<!-- Node1 -->
<g id="node1" class="node">
<title>Node1</title>
<g id="a_node1"><a xlink:title=" ">
<polygon fill="#bfbfbf" stroke="black" points="185.59,-224.5 185.59,-243.5 277.59,-243.5 277.59,-224.5 185.59,-224.5"/>
<text text-anchor="middle" x="231.59" y="-231.5" font-family="Helvetica,sans-Serif" font-size="10.00">parser_info.hpp</text>
</a>
</g>
</g>
<!-- Node2 -->
<g id="node2" class="node">
<title>Node2</title>
<g id="a_node2"><a xlink:href="tag_8hpp.html" target="_top" xlink:title=" ">
<polygon fill="none" stroke="black" points="165.09,-168.5 165.09,-187.5 218.09,-187.5 218.09,-168.5 165.09,-168.5"/>
<text text-anchor="middle" x="191.59" y="-175.5" font-family="Helvetica,sans-Serif" font-size="10.00">tag.hpp</text>
</a>
</g>
</g>
<!-- Node1&#45;&gt;Node2 -->
<g id="edge1" class="edge">
<title>Node1&#45;&gt;Node2</title>
<path fill="none" stroke="midnightblue" d="M218.89,-215.86C211.97,-206.5 203.69,-195.33 198.07,-187.75"/>
<polygon fill="midnightblue" stroke="midnightblue" points="216.22,-218.13 224.99,-224.08 221.85,-213.96 216.22,-218.13"/>
</g>
<!-- Node3 -->
<g id="node3" class="node">
<title>Node3</title>
<g id="a_node3"><a xlink:href="parser_8hpp.html" target="_top" xlink:title=" ">
<polygon fill="none" stroke="black" points="13.59,-112.5 13.59,-131.5 81.59,-131.5 81.59,-112.5 13.59,-112.5"/>
<text text-anchor="middle" x="47.59" y="-119.5" font-family="Helvetica,sans-Serif" font-size="10.00">parser.hpp</text>
</a>
</g>
</g>
<!-- Node1&#45;&gt;Node3 -->
<g id="edge16" class="edge">
<title>Node1&#45;&gt;Node3</title>
<path fill="none" stroke="midnightblue" d="M208.34,-219.29C193.28,-210.4 173.26,-198.54 155.59,-188 121.96,-167.92 82.56,-144.14 61.9,-131.65"/>
<polygon fill="midnightblue" stroke="midnightblue" points="206.61,-222.34 217,-224.4 210.17,-216.31 206.61,-222.34"/>
</g>
<!-- Node4 -->
<g id="node4" class="node">
<title>Node4</title>
<g id="a_node4"><a xlink:href="all_8hpp.html" target="_top" xlink:title=" ">
<polygon fill="none" stroke="black" points="169.59,-0.5 169.59,-19.5 219.59,-19.5 219.59,-0.5 169.59,-0.5"/>
<text text-anchor="middle" x="194.59" y="-7.5" font-family="Helvetica,sans-Serif" font-size="10.00">all.hpp</text>
</a>
</g>
</g>
<!-- Node1&#45;&gt;Node4 -->
<g id="edge17" class="edge">
<title>Node1&#45;&gt;Node4</title>
<path fill="none" stroke="midnightblue" d="M175.72,-225.83C121.21,-215.5 41.3,-190.7 4.59,-132 -13.62,-102.88 30.85,-62.61 39.59,-56 78.6,-26.51 136.44,-16.32 169.32,-12.81"/>
<polygon fill="midnightblue" stroke="midnightblue" points="175.13,-229.28 185.59,-227.59 176.36,-222.39 175.13,-229.28"/>
</g>
<!-- Node6 -->
<g id="node6" class="node">
<title>Node6</title>
<g id="a_node6"><a xlink:href="tag__no__value_8hpp.html" target="_top" xlink:title=" ">
<polygon fill="none" stroke="black" points="214.09,-112.5 214.09,-131.5 317.09,-131.5 317.09,-112.5 214.09,-112.5"/>
<text text-anchor="middle" x="265.59" y="-119.5" font-family="Helvetica,sans-Serif" font-size="10.00">tag_no_value.hpp</text>
</a>
</g>
</g>
<!-- Node1&#45;&gt;Node6 -->
<g id="edge18" class="edge">
<title>Node1&#45;&gt;Node6</title>
<path fill="none" stroke="midnightblue" d="M237.26,-214.67C244.69,-190.62 257.44,-149.39 262.94,-131.59"/>
<polygon fill="midnightblue" stroke="midnightblue" points="233.87,-213.78 234.26,-224.37 240.56,-215.85 233.87,-213.78"/>
</g>
<!-- Node8 -->
<g id="node8" class="node">
<title>Node8</title>
<g id="a_node8"><a xlink:href="tag__scalar__vector_8hpp.html" target="_top" xlink:title=" ">
<polygon fill="none" stroke="black" points="440.09,-112.5 440.09,-131.5 563.09,-131.5 563.09,-112.5 440.09,-112.5"/>
<text text-anchor="middle" x="501.59" y="-119.5" font-family="Helvetica,sans-Serif" font-size="10.00">tag_scalar_vector.hpp</text>
</a>
</g>
</g>
<!-- Node1&#45;&gt;Node8 -->
<g id="edge22" class="edge">
<title>Node1&#45;&gt;Node8</title>
<path fill="none" stroke="midnightblue" d="M287.85,-226.81C327.43,-220.81 380.75,-209.36 423.59,-188 452.93,-173.37 480.81,-145.69 493.87,-131.64"/>
<polygon fill="midnightblue" stroke="midnightblue" points="287.25,-223.36 277.85,-228.25 288.25,-230.29 287.25,-223.36"/>
</g>
<!-- Node10 -->
<g id="node10" class="node">
<title>Node10</title>
<g id="a_node10"><a xlink:href="format_8hpp.html" target="_top" xlink:title=" ">
<polygon fill="none" stroke="black" points="343.09,-168.5 343.09,-187.5 414.09,-187.5 414.09,-168.5 343.09,-168.5"/>
<text text-anchor="middle" x="378.59" y="-175.5" font-family="Helvetica,sans-Serif" font-size="10.00">format.hpp</text>
</a>
</g>
</g>
<!-- Node1&#45;&gt;Node10 -->
<g id="edge19" class="edge">
<title>Node1&#45;&gt;Node10</title>
<path fill="none" stroke="midnightblue" d="M264.52,-220.91C292.15,-210.75 330.94,-196.51 355.41,-187.52"/>
<polygon fill="midnightblue" stroke="midnightblue" points="263.06,-217.71 254.88,-224.44 265.48,-224.28 263.06,-217.71"/>
</g>
<!-- Node2&#45;&gt;Node3 -->
<g id="edge2" class="edge">
<title>Node2&#45;&gt;Node3</title>
<path fill="none" stroke="midnightblue" d="M159.34,-164.91C132.27,-154.75 94.28,-140.51 70.3,-131.52"/>
<polygon fill="midnightblue" stroke="midnightblue" points="158.18,-168.21 168.77,-168.44 160.64,-161.66 158.18,-168.21"/>
</g>
<!-- Node2&#45;&gt;Node4 -->
<g id="edge6" class="edge">
<title>Node2&#45;&gt;Node4</title>
<path fill="none" stroke="midnightblue" d="M182.59,-159.2C171.76,-135.43 156.27,-92.11 166.59,-56 170.59,-42.02 180.32,-28.16 187.18,-19.59"/>
<polygon fill="midnightblue" stroke="midnightblue" points="179.51,-160.88 186.99,-168.39 185.82,-157.85 179.51,-160.88"/>
</g>
<!-- Node5 -->
<g id="node5" class="node">
<title>Node5</title>
<g id="a_node5"><a xlink:href="utils_8hpp.html" target="_top" xlink:title=" ">
<polygon fill="none" stroke="black" points="60.09,-56.5 60.09,-75.5 119.09,-75.5 119.09,-56.5 60.09,-56.5"/>
<text text-anchor="middle" x="89.59" y="-63.5" font-family="Helvetica,sans-Serif" font-size="10.00">utils.hpp</text>
</a>
</g>
</g>
<!-- Node2&#45;&gt;Node5 -->
<g id="edge15" class="edge">
<title>Node2&#45;&gt;Node5</title>
<path fill="none" stroke="midnightblue" d="M169.94,-162.7C158.42,-154.5 144.43,-143.56 133.59,-132 116.63,-113.9 101.55,-88.69 94.24,-75.62"/>
<polygon fill="midnightblue" stroke="midnightblue" points="167.96,-165.59 178.18,-168.41 171.95,-159.84 167.96,-165.59"/>
</g>
<!-- Node2&#45;&gt;Node6 -->
<g id="edge7" class="edge">
<title>Node2&#45;&gt;Node6</title>
<path fill="none" stroke="midnightblue" d="M211.63,-162.38C225,-152.62 242.15,-140.11 253.49,-131.83"/>
<polygon fill="midnightblue" stroke="midnightblue" points="209.5,-159.6 203.48,-168.32 213.62,-165.26 209.5,-159.6"/>
</g>
<!-- Node7 -->
<g id="node7" class="node">
<title>Node7</title>
<g id="a_node7"><a xlink:href="tag__scalar_8hpp.html" target="_top" xlink:title=" ">
<polygon fill="none" stroke="black" points="335.09,-112.5 335.09,-131.5 422.09,-131.5 422.09,-112.5 335.09,-112.5"/>
<text text-anchor="middle" x="378.59" y="-119.5" font-family="Helvetica,sans-Serif" font-size="10.00">tag_scalar.hpp</text>
</a>
</g>
</g>
<!-- Node2&#45;&gt;Node7 -->
<g id="edge9" class="edge">
<title>Node2&#45;&gt;Node7</title>
<path fill="none" stroke="midnightblue" d="M228.3,-166.4C263.63,-156.2 316.38,-140.97 349.07,-131.52"/>
<polygon fill="midnightblue" stroke="midnightblue" points="227.02,-163.13 218.38,-169.26 228.96,-169.85 227.02,-163.13"/>
</g>
<!-- Node2&#45;&gt;Node8 -->
<g id="edge11" class="edge">
<title>Node2&#45;&gt;Node8</title>
<path fill="none" stroke="midnightblue" d="M228.44,-170.58C284.3,-160.85 390.47,-142.36 452.72,-131.51"/>
<polygon fill="midnightblue" stroke="midnightblue" points="227.54,-167.19 218.29,-172.35 228.74,-174.08 227.54,-167.19"/>
</g>
<!-- Node9 -->
<g id="node9" class="node">
<title>Node9</title>
<g id="a_node9"><a xlink:href="tag__vector__of__tags_8hpp.html" target="_top" xlink:title=" ">
<polygon fill="none" stroke="black" points="176.09,-56.5 176.09,-75.5 307.09,-75.5 307.09,-56.5 176.09,-56.5"/>
<text text-anchor="middle" x="241.59" y="-63.5" font-family="Helvetica,sans-Serif" font-size="10.00">tag_vector_of_tags.hpp</text>
</a>
</g>
</g>
<!-- Node2&#45;&gt;Node9 -->
<g id="edge13" class="edge">
<title>Node2&#45;&gt;Node9</title>
<path fill="none" stroke="midnightblue" d="M192.91,-158.2C194.42,-144.79 197.66,-126.62 204.59,-112 211.35,-97.74 223.61,-84.15 232.16,-75.71"/>
<polygon fill="midnightblue" stroke="midnightblue" points="189.42,-157.89 192,-168.16 196.39,-158.52 189.42,-157.89"/>
</g>
<!-- Node3&#45;&gt;Node4 -->
<g id="edge3" class="edge">
<title>Node3&#45;&gt;Node4</title>
<path fill="none" stroke="midnightblue" d="M43.16,-102.31C40.95,-88.15 40.57,-68.99 50.59,-56 78.75,-19.5 136.25,-11.92 169.44,-10.74"/>
<polygon fill="midnightblue" stroke="midnightblue" points="39.78,-103.25 45.16,-112.37 46.65,-101.88 39.78,-103.25"/>
</g>
<!-- Node3&#45;&gt;Node5 -->
<g id="edge4" class="edge">
<title>Node3&#45;&gt;Node5</title>
<path fill="none" stroke="midnightblue" d="M60.7,-104.14C68.02,-94.74 76.83,-83.4 82.79,-75.75"/>
<polygon fill="midnightblue" stroke="midnightblue" points="57.9,-102.04 54.53,-112.08 63.43,-106.34 57.9,-102.04"/>
</g>
<!-- Node5&#45;&gt;Node4 -->
<g id="edge5" class="edge">
<title>Node5&#45;&gt;Node4</title>
<path fill="none" stroke="midnightblue" d="M115.4,-51.73C134.84,-41.73 160.94,-28.31 177.76,-19.65"/>
<polygon fill="midnightblue" stroke="midnightblue" points="113.75,-48.64 106.46,-56.32 116.96,-54.86 113.75,-48.64"/>
</g>
<!-- Node6&#45;&gt;Node4 -->
<g id="edge8" class="edge">
<title>Node6&#45;&gt;Node4</title>
<path fill="none" stroke="midnightblue" d="M289.57,-106.81C308.29,-93.88 329.2,-74.08 316.59,-56 294.78,-24.7 248.6,-15.11 219.73,-12.21"/>
<polygon fill="midnightblue" stroke="midnightblue" points="287.45,-104.02 280.98,-112.41 291.27,-109.88 287.45,-104.02"/>
</g>
<!-- Node7&#45;&gt;Node4 -->
<g id="edge10" class="edge">
<title>Node7&#45;&gt;Node4</title>
<path fill="none" stroke="midnightblue" d="M369.68,-102.99C361.61,-88.39 348.4,-68.28 331.59,-56 297.53,-31.11 248.96,-19.49 219.73,-14.45"/>
<polygon fill="midnightblue" stroke="midnightblue" points="366.7,-104.82 374.44,-112.05 372.89,-101.57 366.7,-104.82"/>
</g>
<!-- Node8&#45;&gt;Node4 -->
<g id="edge12" class="edge">
<title>Node8&#45;&gt;Node4</title>
<path fill="none" stroke="midnightblue" d="M475.38,-107.93C446.52,-93.87 398.51,-71.46 355.59,-56 308.49,-39.04 251.76,-24.5 219.77,-16.82"/>
<polygon fill="midnightblue" stroke="midnightblue" points="473.88,-111.09 484.4,-112.36 476.96,-104.81 473.88,-111.09"/>
</g>
<!-- Node9&#45;&gt;Node4 -->
<g id="edge14" class="edge">
<title>Node9&#45;&gt;Node4</title>
<path fill="none" stroke="midnightblue" d="M227.17,-48.43C218.93,-38.97 208.94,-27.48 202.21,-19.75"/>
<polygon fill="midnightblue" stroke="midnightblue" points="224.63,-50.84 233.83,-56.08 229.91,-46.24 224.63,-50.84"/>
</g>
<!-- Node10&#45;&gt;Node7 -->
<g id="edge20" class="edge">
<title>Node10&#45;&gt;Node7</title>
<path fill="none" stroke="midnightblue" d="M378.59,-157.8C378.59,-148.91 378.59,-138.78 378.59,-131.75"/>
<polygon fill="midnightblue" stroke="midnightblue" points="375.09,-158.08 378.59,-168.08 382.09,-158.08 375.09,-158.08"/>
</g>
<!-- Node10&#45;&gt;Node8 -->
<g id="edge21" class="edge">
<title>Node10&#45;&gt;Node8</title>
<path fill="none" stroke="midnightblue" d="M407.37,-164.37C430.4,-154.26 462.08,-140.35 482.19,-131.52"/>
<polygon fill="midnightblue" stroke="midnightblue" points="405.83,-161.22 398.08,-168.44 408.65,-167.63 405.83,-161.22"/>
</g>
</g>
</svg>
        <g id="navigator" transform="translate(0 0)" fill="#404254">
                <rect fill="#f2f5e9" fill-opacity="0.5" stroke="#606060" stroke-width=".5" x="0" y="0" width="60" height="60"/>
                <use id="zoomplus" xlink:href="#zoomPlus" x="17" y="9" onmousedown="handleZoom(evt,'in')"/>
                <use id="zoomminus" xlink:href="#zoomMin" x="42" y="9" onmousedown="handleZoom(evt,'out')"/>
                <use id="reset" xlink:href="#resetDef" x="30" y="36" onmousedown="handleReset()"/>
                <g id="arrowUp" xlink:href="#dirArrow" transform="translate(30 24)" onmousedown="handlePan(0,-1)">
                  <use xlink:href="#rim" fill="#404040">
                        <set attributeName="fill" to="#808080" begin="arrowUp.mouseover" end="arrowUp.mouseout"/>
                  </use>
                  <path fill="none" stroke="white" stroke-width="1.5" d="M0,-3.0v7 M-2.5,-0.5L0,-3.0L2.5,-0.5"/>
                </g>
                <g id="arrowRight" xlink:href="#dirArrow" transform="rotate(90) translate(36 -43)" onmousedown="handlePan(1,0)">
                  <use xlink:href="#rim" fill="#404040">
                        <set attributeName="fill" to="#808080" begin="arrowRight.mouseover" end="arrowRight.mouseout"/>
                  </use>
                  <path fill="none" stroke="white" stroke-width="1.5" d="M0,-3.0v7 M-2.5,-0.5L0,-3.0L2.5,-0.5"/>
                </g>
                <g id="arrowDown" xlink:href="#dirArrow" transform="rotate(180) translate(-30 -48)" onmousedown="handlePan(0,1)">
                  <use xlink:href="#rim" fill="#404040">
                        <set attributeName="fill" to="#808080" begin="arrowDown.mouseover" end="arrowDown.mouseout"/>
                  </use>
                  <path fill="none" stroke="white" stroke-width="1.5" d="M0,-3.0v7 M-2.5,-0.5L0,-3.0L2.5,-0.5"/>
                </g>
                <g id="arrowLeft" xlink:href="#dirArrow" transform="rotate(270) translate(-36 17)" onmousedown="handlePan(-1,0)">
                  <use xlink:href="#rim" fill="#404040">
                        <set attributeName="fill" to="#808080" begin="arrowLeft.mouseover" end="arrowLeft.mouseout"/>
                  </use>
                  <path fill="none" stroke="white" stroke-width="1.5" d="M0,-3.0v7 M-2.5,-0.5L0,-3.0L2.5,-0.5"/>
                </g>
        </g>
        <svg viewBox="0 0 15 15" width="100%" height="30px" preserveAspectRatio="xMaxYMin meet">
         <g id="arrow_out" transform="scale(0.3 0.3)">
          <a xlink:href="parser__info_8hpp__dep__incl_org.svg" target="_base">
           <rect id="button" ry="5" rx="5" y="6" x="6" height="38" width="38"
                fill="#f2f5e9" fill-opacity="0.5" stroke="#606060" stroke-width="1.0"/>
           <path id="arrow"
             d="M 11.500037,31.436501 C 11.940474,20.09759 22.043105,11.32322 32.158766,21.979434 L 37.068811,17.246167 C 37.068811,17.246167 37.088388,32 37.088388,32 L 22.160133,31.978069 C 22.160133,31.978069 26.997745,27.140456 26.997745,27.140456 C 18.528582,18.264221 13.291696,25.230495 11.500037,31.436501 z"
             style="fill:#404040;"/>
          </a>
         </g>
        </svg>
</svg>
