<?xml version="1.0" encoding="UTF-8" standalone="no"?>
<!DOCTYPE svg PUBLIC "-//W3C//DTD SVG 1.1//EN"
 "http://www.w3.org/Graphics/SVG/1.1/DTD/svg11.dtd">
<!-- Generated by graphviz version 2.43.0 (0)
 -->
<!-- Title: parser_info.hpp Pages: 1 -->
<svg width="604pt" height="247pt"
 viewBox="0.00 0.00 604.47 247.00" xmlns="http://www.w3.org/2000/svg" xmlns:xlink="http://www.w3.org/1999/xlink">
<g id="graph0" class="graph" transform="scale(1 1) rotate(0) translate(4 243)">
<title>parser_info.hpp</title>
<!-- Node1 -->
<g id="Node000001" class="node">
<title>Node1</title>
<g id="a_Node000001"><a xlink:title=" ">
<polygon fill="#999999" stroke="#666666" points="280.97,-239 188.97,-239 188.97,-220 280.97,-220 280.97,-239"/>
<text text-anchor="middle" x="234.97" y="-227" font-family="Helvetica,sans-Serif" font-size="10.00">parser_info.hpp</text>
</a>
</g>
</g>
<!-- Node2 -->
<g id="Node000002" class="node">
<title>Node2</title>
<g id="a_Node000002"><a xlink:href="all_8hpp.html" target="_top" xlink:title=" ">
<polygon fill="white" stroke="#666666" points="263.97,-19 213.97,-19 213.97,0 263.97,0 263.97,-19"/>
<text text-anchor="middle" x="238.97" y="-7" font-family="Helvetica,sans-Serif" font-size="10.00">all.hpp</text>
</a>
</g>
</g>
<!-- Node1&#45;&gt;Node2 -->
<g id="edge1_Node000001_Node000002" class="edge">
<title>Node1&#45;&gt;Node2</title>
<g id="a_edge1_Node000001_Node000002"><a xlink:title=" ">
<path fill="none" stroke="#63b8ff" d="M178.73,-221.5C98.25,-209.01 -35.41,-177.55 8.97,-110 55.55,-39.09 164.61,-18.48 213.95,-12.68"/>
<polygon fill="#63b8ff" stroke="#63b8ff" points="178.33,-224.98 188.74,-223.01 179.37,-218.06 178.33,-224.98"/>
</a>
</g>
</g>
<!-- Node3 -->
<g id="Node000003" class="node">
<title>Node3</title>
<g id="a_Node000003"><a xlink:href="format_8hpp.html" target="_top" xlink:title=" ">
<polygon fill="white" stroke="#666666" points="238.47,-184 167.47,-184 167.47,-165 238.47,-165 238.47,-184"/>
<text text-anchor="middle" x="202.97" y="-172" font-family="Helvetica,sans-Serif" font-size="10.00">format.hpp</text>
</a>
</g>
</g>
<!-- Node1&#45;&gt;Node3 -->
<g id="edge2_Node000001_Node000003" class="edge">
<title>Node1&#45;&gt;Node3</title>
<g id="a_edge2_Node000001_Node000003"><a xlink:title=" ">
<path fill="none" stroke="#63b8ff" d="M224.46,-211.1C218.99,-202.04 212.55,-191.37 208.15,-184.09"/>
<polygon fill="#63b8ff" stroke="#63b8ff" points="221.52,-213 229.68,-219.75 227.51,-209.38 221.52,-213"/>
</a>
</g>
</g>
<!-- Node5 -->
<g id="Node000005" class="node">
<title>Node5</title>
<g id="a_Node000005"><a xlink:href="tag__scalar__vector_8hpp.html" target="_top" xlink:title=" ">
<polygon fill="white" stroke="#666666" points="141.47,-129 18.47,-129 18.47,-110 141.47,-110 141.47,-129"/>
<text text-anchor="middle" x="79.97" y="-117" font-family="Helvetica,sans-Serif" font-size="10.00">tag_scalar_vector.hpp</text>
</a>
</g>
</g>
<!-- Node1&#45;&gt;Node5 -->
<g id="edge22_Node000001_Node000005" class="edge">
<title>Node1&#45;&gt;Node5</title>
<g id="a_edge22_Node000001_Node000005"><a xlink:title=" ">
<path fill="none" stroke="#63b8ff" d="M209.38,-215.05C194.09,-206.69 174.49,-195.4 157.97,-184 132.09,-166.16 104.04,-142.01 89.67,-129.25"/>
<polygon fill="#63b8ff" stroke="#63b8ff" points="207.82,-218.19 218.28,-219.86 211.14,-212.03 207.82,-218.19"/>
</a>
</g>
</g>
<!-- Node6 -->
<g id="Node000006" class="node">
<title>Node6</title>
<g id="a_Node000006"><a xlink:href="parser_8hpp.html" target="_top" xlink:title=" ">
<polygon fill="white" stroke="#666666" points="332.97,-129 264.97,-129 264.97,-110 332.97,-110 332.97,-129"/>
<text text-anchor="middle" x="298.97" y="-117" font-family="Helvetica,sans-Serif" font-size="10.00">parser.hpp</text>
</a>
</g>
</g>
<!-- Node1&#45;&gt;Node6 -->
<g id="edge7_Node000001_Node000006" class="edge">
<title>Node1&#45;&gt;Node6</title>
<g id="a_edge7_Node000001_Node000006"><a xlink:title=" ">
<path fill="none" stroke="#63b8ff" d="M245.48,-210.76C259.39,-187.28 283.37,-146.81 293.84,-129.16"/>
<polygon fill="#63b8ff" stroke="#63b8ff" points="242.29,-209.27 240.2,-219.66 248.31,-212.84 242.29,-209.27"/>
</a>
</g>
</g>
<!-- Node8 -->
<g id="Node000008" class="node">
<title>Node8</title>
<g id="a_Node000008"><a xlink:href="tag_8hpp.html" target="_top" xlink:title=" ">
<polygon fill="white" stroke="#666666" points="375.47,-184 322.47,-184 322.47,-165 375.47,-165 375.47,-184"/>
<text text-anchor="middle" x="348.97" y="-172" font-family="Helvetica,sans-Serif" font-size="10.00">tag.hpp</text>
</a>
</g>
</g>
<!-- Node1&#45;&gt;Node8 -->
<g id="edge11_Node000001_Node000008" class="edge">
<title>Node1&#45;&gt;Node8</title>
<g id="a_edge11_Node000001_Node000008"><a xlink:title=" ">
<path fill="none" stroke="#63b8ff" d="M262.36,-215.77C283.39,-205.99 311.86,-192.75 330.32,-184.17"/>
<polygon fill="#63b8ff" stroke="#63b8ff" points="260.87,-212.6 253.28,-219.98 263.83,-218.94 260.87,-212.6"/>
</a>
</g>
</g>
<!-- Node9 -->
<g id="Node000009" class="node">
<title>Node9</title>
<g id="a_Node000009"><a xlink:href="tag__no__value_8hpp.html" target="_top" xlink:title=" ">
<polygon fill="white" stroke="#666666" points="596.47,-129 493.47,-129 493.47,-110 596.47,-110 596.47,-129"/>
<text text-anchor="middle" x="544.97" y="-117" font-family="Helvetica,sans-Serif" font-size="10.00">tag_no_value.hpp</text>
</a>
</g>
</g>
<!-- Node1&#45;&gt;Node9 -->
<g id="edge21_Node000001_Node000009" class="edge">
<title>Node1&#45;&gt;Node9</title>
<g id="a_edge21_Node000001_Node000009"><a xlink:title=" ">
<path fill="none" stroke="#63b8ff" d="M276.05,-217.25C306.15,-208.76 347.86,-196.49 383.97,-184 435.36,-166.23 494.56,-141.84 524.84,-129.08"/>
<polygon fill="#63b8ff" stroke="#63b8ff" points="275,-213.91 266.32,-219.98 276.89,-220.65 275,-213.91"/>
</a>
</g>
</g>
<!-- Node4 -->
<g id="Node000004" class="node">
<title>Node4</title>
<g id="a_Node000004"><a xlink:href="tag__scalar_8hpp.html" target="_top" xlink:title=" ">
<polygon fill="white" stroke="#666666" points="246.47,-129 159.47,-129 159.47,-110 246.47,-110 246.47,-129"/>
<text text-anchor="middle" x="202.97" y="-117" font-family="Helvetica,sans-Serif" font-size="10.00">tag_scalar.hpp</text>
</a>
</g>
</g>
<!-- Node3&#45;&gt;Node4 -->
<g id="edge3_Node000003_Node000004" class="edge">
<title>Node3&#45;&gt;Node4</title>
<g id="a_edge3_Node000003_Node000004"><a xlink:title=" ">
<path fill="none" stroke="#63b8ff" d="M202.97,-154.66C202.97,-145.93 202.97,-135.99 202.97,-129.09"/>
<polygon fill="#63b8ff" stroke="#63b8ff" points="199.47,-154.75 202.97,-164.75 206.47,-154.75 199.47,-154.75"/>
</a>
</g>
</g>
<!-- Node3&#45;&gt;Node5 -->
<g id="edge5_Node000003_Node000005" class="edge">
<title>Node3&#45;&gt;Node5</title>
<g id="a_edge5_Node000003_Node000005"><a xlink:title=" ">
<path fill="none" stroke="#63b8ff" d="M173.72,-160.9C151,-151.11 120.1,-137.79 100.09,-129.17"/>
<polygon fill="#63b8ff" stroke="#63b8ff" points="172.64,-164.24 183.2,-164.98 175.41,-157.81 172.64,-164.24"/>
</a>
</g>
</g>
<!-- Node4&#45;&gt;Node2 -->
<g id="edge4_Node000004_Node000002" class="edge">
<title>Node4&#45;&gt;Node2</title>
<g id="a_edge4_Node000004_Node000002"><a xlink:title=" ">
<path fill="none" stroke="#63b8ff" d="M196.42,-100.24C192.81,-87.2 190.12,-69.46 195.97,-55 202.09,-39.86 216.1,-27.01 226.47,-19.07"/>
<polygon fill="#63b8ff" stroke="#63b8ff" points="193.13,-101.46 199.5,-109.93 199.8,-99.34 193.13,-101.46"/>
</a>
</g>
</g>
<!-- Node5&#45;&gt;Node2 -->
<g id="edge6_Node000005_Node000002" class="edge">
<title>Node5&#45;&gt;Node2</title>
<g id="a_edge6_Node000005_Node000002"><a xlink:title=" ">
<path fill="none" stroke="#63b8ff" d="M101.3,-104.01C134.85,-81.22 198.89,-37.72 226.16,-19.2"/>
<polygon fill="#63b8ff" stroke="#63b8ff" points="99.01,-101.33 92.71,-109.84 102.95,-107.12 99.01,-101.33"/>
</a>
</g>
</g>
<!-- Node6&#45;&gt;Node2 -->
<g id="edge8_Node000006_Node000002" class="edge">
<title>Node6&#45;&gt;Node2</title>
<g id="a_edge8_Node000006_Node000002"><a xlink:title=" ">
<path fill="none" stroke="#63b8ff" d="M264.85,-105.54C251.13,-98.44 236.74,-88.15 228.97,-74 219.3,-56.39 228.17,-32.15 234.29,-19.31"/>
<polygon fill="#63b8ff" stroke="#63b8ff" points="263.62,-108.83 274.16,-109.95 266.62,-102.51 263.62,-108.83"/>
</a>
</g>
</g>
<!-- Node7 -->
<g id="Node000007" class="node">
<title>Node7</title>
<g id="a_Node000007"><a xlink:href="utils_8hpp.html" target="_top" xlink:title=" ">
<polygon fill="white" stroke="#666666" points="297.47,-74 238.47,-74 238.47,-55 297.47,-55 297.47,-74"/>
<text text-anchor="middle" x="267.97" y="-62" font-family="Helvetica,sans-Serif" font-size="10.00">utils.hpp</text>
</a>
</g>
</g>
<!-- Node6&#45;&gt;Node7 -->
<g id="edge9_Node000006_Node000007" class="edge">
<title>Node6&#45;&gt;Node7</title>
<g id="a_edge9_Node000006_Node000007"><a xlink:title=" ">
<path fill="none" stroke="#63b8ff" d="M288.79,-101.1C283.49,-92.04 277.25,-81.37 272.99,-74.09"/>
<polygon fill="#63b8ff" stroke="#63b8ff" points="285.78,-102.88 293.85,-109.75 291.82,-99.35 285.78,-102.88"/>
</a>
</g>
</g>
<!-- Node7&#45;&gt;Node2 -->
<g id="edge10_Node000007_Node000002" class="edge">
<title>Node7&#45;&gt;Node2</title>
<g id="a_edge10_Node000007_Node000002"><a xlink:title=" ">
<path fill="none" stroke="#63b8ff" d="M258.29,-45.82C253.37,-36.82 247.61,-26.29 243.67,-19.09"/>
<polygon fill="#63b8ff" stroke="#63b8ff" points="255.31,-47.66 263.18,-54.75 261.45,-44.3 255.31,-47.66"/>
</a>
</g>
</g>
<!-- Node8&#45;&gt;Node2 -->
<g id="edge12_Node000008_Node000002" class="edge">
<title>Node8&#45;&gt;Node2</title>
<g id="a_edge12_Node000008_Node000002"><a xlink:title=" ">
<path fill="none" stroke="#63b8ff" d="M376.29,-160.37C417.44,-138.88 487.24,-94.6 454.97,-55 431.14,-25.77 316.07,-15.17 264.3,-11.84"/>
<polygon fill="#63b8ff" stroke="#63b8ff" points="374.59,-157.32 367.26,-164.97 377.76,-163.55 374.59,-157.32"/>
</a>
</g>
</g>
<!-- Node8&#45;&gt;Node4 -->
<g id="edge16_Node000008_Node000004" class="edge">
<title>Node8&#45;&gt;Node4</title>
<g id="a_edge16_Node000008_Node000004"><a xlink:title=" ">
<path fill="none" stroke="#63b8ff" d="M316.05,-161.55C288.94,-151.71 251.13,-137.98 226.85,-129.17"/>
<polygon fill="#63b8ff" stroke="#63b8ff" points="314.91,-164.86 325.51,-164.98 317.3,-158.28 314.91,-164.86"/>
</a>
</g>
</g>
<!-- Node8&#45;&gt;Node5 -->
<g id="edge17_Node000008_Node000005" class="edge">
<title>Node8&#45;&gt;Node5</title>
<g id="a_edge17_Node000008_Node000005"><a xlink:title=" ">
<path fill="none" stroke="#63b8ff" d="M312.29,-166.27C263.09,-156.58 175.84,-139.39 123.4,-129.06"/>
<polygon fill="#63b8ff" stroke="#63b8ff" points="311.7,-169.73 322.19,-168.22 313.05,-162.86 311.7,-169.73"/>
</a>
</g>
</g>
<!-- Node8&#45;&gt;Node6 -->
<g id="edge13_Node000008_Node000006" class="edge">
<title>Node8&#45;&gt;Node6</title>
<g id="a_edge13_Node000008_Node000006"><a xlink:title=" ">
<path fill="none" stroke="#63b8ff" d="M333.62,-157.24C324.86,-147.95 314.23,-136.68 307.07,-129.09"/>
<polygon fill="#63b8ff" stroke="#63b8ff" points="331.3,-159.88 340.71,-164.75 336.39,-155.07 331.3,-159.88"/>
</a>
</g>
</g>
<!-- Node8&#45;&gt;Node7 -->
<g id="edge20_Node000008_Node000007" class="edge">
<title>Node8&#45;&gt;Node7</title>
<g id="a_edge20_Node000008_Node000007"><a xlink:title=" ">
<path fill="none" stroke="#63b8ff" d="M351.09,-154.88C351.69,-141.4 350.47,-123.28 341.97,-110 330.81,-92.58 310.18,-81.01 293.53,-74.04"/>
<polygon fill="#63b8ff" stroke="#63b8ff" points="347.59,-154.66 350.28,-164.91 354.57,-155.23 347.59,-154.66"/>
</a>
</g>
</g>
<!-- Node8&#45;&gt;Node9 -->
<g id="edge14_Node000008_Node000009" class="edge">
<title>Node8&#45;&gt;Node9</title>
<g id="a_edge14_Node000008_Node000009"><a xlink:title=" ">
<path fill="none" stroke="#63b8ff" d="M385.63,-163.59C422.38,-153.65 478.37,-138.51 513.26,-129.07"/>
<polygon fill="#63b8ff" stroke="#63b8ff" points="384.55,-160.25 375.81,-166.24 386.37,-167.01 384.55,-160.25"/>
</a>
</g>
</g>
<!-- Node10 -->
<g id="Node000010" class="node">
<title>Node10</title>
<g id="a_Node000010"><a xlink:href="tag__vector__of__tags_8hpp.html" target="_top" xlink:title=" ">
<polygon fill="white" stroke="#666666" points="446.47,-74 315.47,-74 315.47,-55 446.47,-55 446.47,-74"/>
<text text-anchor="middle" x="380.97" y="-62" font-family="Helvetica,sans-Serif" font-size="10.00">tag_vector_of_tags.hpp</text>
</a>
</g>
</g>
<!-- Node8&#45;&gt;Node10 -->
<g id="edge18_Node000008_Node000010" class="edge">
<title>Node8&#45;&gt;Node10</title>
<g id="a_edge18_Node000008_Node000010"><a xlink:title=" ">
<path fill="none" stroke="#63b8ff" d="M361.26,-156.48C366.38,-148.52 371.85,-138.67 374.97,-129 381.01,-110.24 381.55,-86.87 381.32,-74.37"/>
<polygon fill="#63b8ff" stroke="#63b8ff" points="358.31,-154.61 355.57,-164.85 364.09,-158.55 358.31,-154.61"/>
</a>
</g>
</g>
<!-- Node9&#45;&gt;Node2 -->
<g id="edge15_Node000009_Node000002" class="edge">
<title>Node9&#45;&gt;Node2</title>
<g id="a_edge15_Node000009_Node000002"><a xlink:title=" ">
<path fill="none" stroke="#63b8ff" d="M534.5,-101.16C524.65,-86.44 508.52,-65.99 488.97,-55 415.18,-13.52 311.45,-9.23 264.19,-9.68"/>
<polygon fill="#63b8ff" stroke="#63b8ff" points="531.72,-103.3 540.04,-109.86 537.62,-99.54 531.72,-103.3"/>
</a>
</g>
</g>
<!-- Node10&#45;&gt;Node2 -->
<g id="edge19_Node000010_Node000002" class="edge">
<title>Node10&#45;&gt;Node2</title>
<g id="a_edge19_Node000010_Node000002"><a xlink:title=" ">
<path fill="none" stroke="#63b8ff" d="M348.6,-51.42C322.26,-41.59 285.71,-27.95 262.2,-19.17"/>
<polygon fill="#63b8ff" stroke="#63b8ff" points="347.56,-54.77 358.15,-54.98 350.01,-48.21 347.56,-54.77"/>
</a>
</g>
</g>
</g>
</svg>
