<?xml version="1.0" encoding="UTF-8" standalone="no"?>
<!DOCTYPE svg PUBLIC "-//W3C//DTD SVG 1.1//EN"
 "http://www.w3.org/Graphics/SVG/1.1/DTD/svg11.dtd">
<!-- Generated by graphviz version 2.38.0 (20140413.2041)
 -->
<!-- Title: string_format.hpp Pages: 1 -->
<svg width="419pt" height="196pt"
 viewBox="0.00 0.00 419.00 196.00" xmlns="http://www.w3.org/2000/svg" xmlns:xlink="http://www.w3.org/1999/xlink">
<g id="graph0" class="graph" transform="scale(1 1) rotate(0) translate(4 192)">
<title>string_format.hpp</title>
<!-- Node1 -->
<g id="node1" class="node"><title>Node1</title>
<polygon fill="#bfbfbf" stroke="black" points="146.5,-168.5 146.5,-187.5 238.5,-187.5 238.5,-168.5 146.5,-168.5"/>
<text text-anchor="middle" x="192.5" y="-175.5" font-family="Helvetica,sans-Serif" font-size="10.00">string_format.hpp</text>
</g>
<!-- Node2 -->
<g id="node2" class="node"><title>Node2</title>
<g id="a_node2"><a xlink:href="types_8hpp.html" target="_top" xlink:title="types.hpp">
<polygon fill="none" stroke="black" points="163,-56.5 163,-75.5 222,-75.5 222,-56.5 163,-56.5"/>
<text text-anchor="middle" x="192.5" y="-63.5" font-family="Helvetica,sans-Serif" font-size="10.00">types.hpp</text>
</a>
</g>
</g>
<!-- Node1&#45;&gt;Node2 -->
<g id="edge1" class="edge"><title>Node1&#45;&gt;Node2</title>
<path fill="none" stroke="midnightblue" d="M181.083,-168.282C166.874,-156.286 145.405,-133.701 153.5,-112 157.673,-100.812 166.02,-90.5598 173.924,-82.6759"/>
<polygon fill="midnightblue" stroke="midnightblue" points="176.562,-85.0029 181.51,-75.6346 171.799,-79.8724 176.562,-85.0029"/>
</g>
<!-- Node9 -->
<g id="node9" class="node"><title>Node9</title>
<g id="a_node9"><a xlink:href="const_8hpp.html" target="_top" xlink:title="const.hpp">
<polygon fill="none" stroke="black" points="163,-112.5 163,-131.5 222,-131.5 222,-112.5 163,-112.5"/>
<text text-anchor="middle" x="192.5" y="-119.5" font-family="Helvetica,sans-Serif" font-size="10.00">const.hpp</text>
</a>
</g>
</g>
<!-- Node1&#45;&gt;Node9 -->
<g id="edge8" class="edge"><title>Node1&#45;&gt;Node9</title>
<path fill="none" stroke="midnightblue" d="M192.5,-168.083C192.5,-161.006 192.5,-150.861 192.5,-141.986"/>
<polygon fill="midnightblue" stroke="midnightblue" points="196,-141.751 192.5,-131.751 189,-141.751 196,-141.751"/>
</g>
<!-- Node10 -->
<g id="node10" class="node"><title>Node10</title>
<g id="a_node10"><a xlink:href="exceptions_8hpp.html" target="_top" xlink:title="exceptions.hpp">
<polygon fill="none" stroke="black" points="240,-112.5 240,-131.5 323,-131.5 323,-112.5 240,-112.5"/>
<text text-anchor="middle" x="281.5" y="-119.5" font-family="Helvetica,sans-Serif" font-size="10.00">exceptions.hpp</text>
</a>
</g>
</g>
<!-- Node1&#45;&gt;Node10 -->
<g id="edge10" class="edge"><title>Node1&#45;&gt;Node10</title>
<path fill="none" stroke="midnightblue" d="M206.799,-168.324C220.683,-159.9 241.992,-146.971 258.304,-137.074"/>
<polygon fill="midnightblue" stroke="midnightblue" points="260.502,-139.834 267.236,-131.655 256.871,-133.85 260.502,-139.834"/>
</g>
<!-- Node3 -->
<g id="node3" class="node"><title>Node3</title>
<polygon fill="none" stroke="#bfbfbf" points="0,-0.5 0,-19.5 41,-19.5 41,-0.5 0,-0.5"/>
<text text-anchor="middle" x="20.5" y="-7.5" font-family="Helvetica,sans-Serif" font-size="10.00">string</text>
</g>
<!-- Node2&#45;&gt;Node3 -->
<g id="edge2" class="edge"><title>Node2&#45;&gt;Node3</title>
<path fill="none" stroke="midnightblue" d="M165.246,-56.4435C134.133,-46.6756 83.3707,-30.7385 50.9735,-20.5673"/>
<polygon fill="midnightblue" stroke="midnightblue" points="51.7376,-17.1388 41.1484,-17.4826 49.6408,-23.8174 51.7376,-17.1388"/>
</g>
<!-- Node4 -->
<g id="node4" class="node"><title>Node4</title>
<polygon fill="none" stroke="#bfbfbf" points="59.5,-0.5 59.5,-19.5 113.5,-19.5 113.5,-0.5 59.5,-0.5"/>
<text text-anchor="middle" x="86.5" y="-7.5" font-family="Helvetica,sans-Serif" font-size="10.00">iostream</text>
</g>
<!-- Node2&#45;&gt;Node4 -->
<g id="edge3" class="edge"><title>Node2&#45;&gt;Node4</title>
<path fill="none" stroke="midnightblue" d="M175.469,-56.324C158.47,-47.6641 132.124,-34.2424 112.507,-24.249"/>
<polygon fill="midnightblue" stroke="midnightblue" points="113.988,-21.0752 103.488,-19.6545 110.81,-27.3125 113.988,-21.0752"/>
</g>
<!-- Node5 -->
<g id="node5" class="node"><title>Node5</title>
<polygon fill="none" stroke="#bfbfbf" points="132,-0.5 132,-19.5 185,-19.5 185,-0.5 132,-0.5"/>
<text text-anchor="middle" x="158.5" y="-7.5" font-family="Helvetica,sans-Serif" font-size="10.00">cwctype</text>
</g>
<!-- Node2&#45;&gt;Node5 -->
<g id="edge4" class="edge"><title>Node2&#45;&gt;Node5</title>
<path fill="none" stroke="midnightblue" d="M186.886,-56.083C182.133,-48.5341 175.182,-37.4948 169.348,-28.2298"/>
<polygon fill="midnightblue" stroke="midnightblue" points="172.3,-26.3486 164.01,-19.7511 166.376,-30.0783 172.3,-26.3486"/>
</g>
<!-- Node6 -->
<g id="node6" class="node"><title>Node6</title>
<polygon fill="none" stroke="#bfbfbf" points="203.5,-0.5 203.5,-19.5 249.5,-19.5 249.5,-0.5 203.5,-0.5"/>
<text text-anchor="middle" x="226.5" y="-7.5" font-family="Helvetica,sans-Serif" font-size="10.00">cctype</text>
</g>
<!-- Node2&#45;&gt;Node6 -->
<g id="edge5" class="edge"><title>Node2&#45;&gt;Node6</title>
<path fill="none" stroke="midnightblue" d="M198.114,-56.083C202.867,-48.5341 209.818,-37.4948 215.652,-28.2298"/>
<polygon fill="midnightblue" stroke="midnightblue" points="218.624,-30.0783 220.99,-19.7511 212.7,-26.3486 218.624,-30.0783"/>
</g>
<!-- Node7 -->
<g id="node7" class="node"><title>Node7</title>
<polygon fill="none" stroke="#bfbfbf" points="267.5,-0.5 267.5,-19.5 317.5,-19.5 317.5,-0.5 267.5,-0.5"/>
<text text-anchor="middle" x="292.5" y="-7.5" font-family="Helvetica,sans-Serif" font-size="10.00">QString</text>
</g>
<!-- Node2&#45;&gt;Node7 -->
<g id="edge6" class="edge"><title>Node2&#45;&gt;Node7</title>
<path fill="none" stroke="midnightblue" d="M208.567,-56.324C224.458,-47.7428 249.007,-34.486 267.458,-24.5224"/>
<polygon fill="midnightblue" stroke="midnightblue" points="269.337,-27.4857 276.473,-19.6545 266.011,-21.3264 269.337,-27.4857"/>
</g>
<!-- Node8 -->
<g id="node8" class="node"><title>Node8</title>
<polygon fill="none" stroke="#bfbfbf" points="336,-0.5 336,-19.5 411,-19.5 411,-0.5 336,-0.5"/>
<text text-anchor="middle" x="373.5" y="-7.5" font-family="Helvetica,sans-Serif" font-size="10.00">QTextStream</text>
</g>
<!-- Node2&#45;&gt;Node8 -->
<g id="edge7" class="edge"><title>Node2&#45;&gt;Node8</title>
<path fill="none" stroke="midnightblue" d="M221.18,-56.4435C252.027,-47.2406 301.228,-32.5617 335.329,-22.3879"/>
<polygon fill="midnightblue" stroke="midnightblue" points="336.372,-25.7293 344.954,-19.5164 334.371,-19.0215 336.372,-25.7293"/>
</g>
<!-- Node9&#45;&gt;Node2 -->
<g id="edge9" class="edge"><title>Node9&#45;&gt;Node2</title>
<path fill="none" stroke="midnightblue" d="M192.5,-112.083C192.5,-105.006 192.5,-94.8611 192.5,-85.9865"/>
<polygon fill="midnightblue" stroke="midnightblue" points="196,-85.751 192.5,-75.7511 189,-85.7511 196,-85.751"/>
</g>
<!-- Node10&#45;&gt;Node2 -->
<g id="edge12" class="edge"><title>Node10&#45;&gt;Node2</title>
<path fill="none" stroke="midnightblue" d="M267.201,-112.324C253.317,-103.9 232.008,-90.9709 215.696,-81.0741"/>
<polygon fill="midnightblue" stroke="midnightblue" points="217.129,-77.8495 206.764,-75.6545 213.498,-83.8341 217.129,-77.8495"/>
</g>
<!-- Node11 -->
<g id="node11" class="node"><title>Node11</title>
<polygon fill="none" stroke="#bfbfbf" points="252,-56.5 252,-75.5 311,-75.5 311,-56.5 252,-56.5"/>
<text text-anchor="middle" x="281.5" y="-63.5" font-family="Helvetica,sans-Serif" font-size="10.00">stdexcept</text>
</g>
<!-- Node10&#45;&gt;Node11 -->
<g id="edge11" class="edge"><title>Node10&#45;&gt;Node11</title>
<path fill="none" stroke="midnightblue" d="M281.5,-112.083C281.5,-105.006 281.5,-94.8611 281.5,-85.9865"/>
<polygon fill="midnightblue" stroke="midnightblue" points="285,-85.751 281.5,-75.7511 278,-85.7511 285,-85.751"/>
</g>
</g>
</svg>
