<?xml version="1.0" encoding="UTF-8" standalone="no"?>
<!DOCTYPE svg PUBLIC "-//W3C//DTD SVG 1.1//EN"
 "http://www.w3.org/Graphics/SVG/1.1/DTD/svg11.dtd">
<!-- Generated by graphviz version 2.43.0 (0)
 -->
<!-- Title: string_format.hpp Pages: 1 -->
<svg width="275pt" height="196pt"
 viewBox="0.00 0.00 275.00 196.00" xmlns="http://www.w3.org/2000/svg" xmlns:xlink="http://www.w3.org/1999/xlink">
<g id="graph0" class="graph" transform="scale(1 1) rotate(0) translate(4 192)">
<title>string_format.hpp</title>
<!-- Node1 -->
<g id="node1" class="node">
<title>Node1</title>
<g id="a_node1"><a xlink:title=" ">
<polygon fill="#bfbfbf" stroke="black" points="63.5,-168.5 63.5,-187.5 167.5,-187.5 167.5,-168.5 63.5,-168.5"/>
<text text-anchor="middle" x="115.5" y="-175.5" font-family="Helvetica,sans-Serif" font-size="10.00">string_format.hpp</text>
</a>
</g>
</g>
<!-- Node2 -->
<g id="node2" class="node">
<title>Node2</title>
<g id="a_node2"><a xlink:href="parser_8hpp.html" target="_top" xlink:title=" ">
<polygon fill="none" stroke="black" points="8.5,-112.5 8.5,-131.5 76.5,-131.5 76.5,-112.5 8.5,-112.5"/>
<text text-anchor="middle" x="42.5" y="-119.5" font-family="Helvetica,sans-Serif" font-size="10.00">parser.hpp</text>
</a>
</g>
</g>
<!-- Node1&#45;&gt;Node2 -->
<g id="edge1" class="edge">
<title>Node1&#45;&gt;Node2</title>
<path fill="none" stroke="midnightblue" d="M95.36,-162.1C82.22,-152.38 65.52,-140.03 54.45,-131.83"/>
<polygon fill="midnightblue" stroke="midnightblue" points="93.65,-165.19 103.78,-168.32 97.82,-159.56 93.65,-165.19"/>
</g>
<!-- Node5 -->
<g id="node5" class="node">
<title>Node5</title>
<g id="a_node5"><a xlink:href="tag__scalar_8hpp.html" target="_top" xlink:title=" ">
<polygon fill="none" stroke="black" points="90,-56.5 90,-75.5 177,-75.5 177,-56.5 90,-56.5"/>
<text text-anchor="middle" x="133.5" y="-63.5" font-family="Helvetica,sans-Serif" font-size="10.00">tag_scalar.hpp</text>
</a>
</g>
</g>
<!-- Node1&#45;&gt;Node5 -->
<g id="edge5" class="edge">
<title>Node1&#45;&gt;Node5</title>
<path fill="none" stroke="midnightblue" d="M118.56,-158.35C122.5,-134.25 129.2,-93.31 132.1,-75.59"/>
<polygon fill="midnightblue" stroke="midnightblue" points="115.08,-157.93 116.92,-168.37 121.99,-159.06 115.08,-157.93"/>
</g>
<!-- Node6 -->
<g id="node6" class="node">
<title>Node6</title>
<g id="a_node6"><a xlink:href="tag__scalar__vector_8hpp.html" target="_top" xlink:title=" ">
<polygon fill="none" stroke="black" points="144,-112.5 144,-131.5 267,-131.5 267,-112.5 144,-112.5"/>
<text text-anchor="middle" x="205.5" y="-119.5" font-family="Helvetica,sans-Serif" font-size="10.00">tag_scalar_vector.hpp</text>
</a>
</g>
</g>
<!-- Node1&#45;&gt;Node6 -->
<g id="edge7" class="edge">
<title>Node1&#45;&gt;Node6</title>
<path fill="none" stroke="midnightblue" d="M138.54,-163.18C155.1,-153.24 176.92,-140.15 191.08,-131.65"/>
<polygon fill="midnightblue" stroke="midnightblue" points="136.74,-160.18 129.96,-168.32 140.34,-166.18 136.74,-160.18"/>
</g>
<!-- Node3 -->
<g id="node3" class="node">
<title>Node3</title>
<g id="a_node3"><a xlink:href="all_8hpp.html" target="_top" xlink:title=" ">
<polygon fill="none" stroke="black" points="62.5,-0.5 62.5,-19.5 112.5,-19.5 112.5,-0.5 62.5,-0.5"/>
<text text-anchor="middle" x="87.5" y="-7.5" font-family="Helvetica,sans-Serif" font-size="10.00">all.hpp</text>
</a>
</g>
</g>
<!-- Node2&#45;&gt;Node3 -->
<g id="edge2" class="edge">
<title>Node2&#45;&gt;Node3</title>
<path fill="none" stroke="midnightblue" d="M23.06,-105.78C8.7,-92.61 -6.71,-73.05 3.5,-56 16.17,-34.85 42.55,-23.08 62.38,-16.93"/>
<polygon fill="midnightblue" stroke="midnightblue" points="20.89,-108.53 30.76,-112.38 25.45,-103.21 20.89,-108.53"/>
</g>
<!-- Node4 -->
<g id="node4" class="node">
<title>Node4</title>
<g id="a_node4"><a xlink:href="utils_8hpp.html" target="_top" xlink:title=" ">
<polygon fill="none" stroke="black" points="13,-56.5 13,-75.5 72,-75.5 72,-56.5 13,-56.5"/>
<text text-anchor="middle" x="42.5" y="-63.5" font-family="Helvetica,sans-Serif" font-size="10.00">utils.hpp</text>
</a>
</g>
</g>
<!-- Node2&#45;&gt;Node4 -->
<g id="edge3" class="edge">
<title>Node2&#45;&gt;Node4</title>
<path fill="none" stroke="midnightblue" d="M42.5,-101.8C42.5,-92.91 42.5,-82.78 42.5,-75.75"/>
<polygon fill="midnightblue" stroke="midnightblue" points="39,-102.08 42.5,-112.08 46,-102.08 39,-102.08"/>
</g>
<!-- Node4&#45;&gt;Node3 -->
<g id="edge4" class="edge">
<title>Node4&#45;&gt;Node3</title>
<path fill="none" stroke="midnightblue" d="M56.55,-48.14C64.39,-38.74 73.83,-27.4 80.21,-19.75"/>
<polygon fill="midnightblue" stroke="midnightblue" points="53.65,-46.16 49.93,-56.08 59.03,-50.64 53.65,-46.16"/>
</g>
<!-- Node5&#45;&gt;Node3 -->
<g id="edge6" class="edge">
<title>Node5&#45;&gt;Node3</title>
<path fill="none" stroke="midnightblue" d="M119.39,-48.43C111.33,-38.97 101.54,-27.48 94.96,-19.75"/>
<polygon fill="midnightblue" stroke="midnightblue" points="116.76,-50.74 125.91,-56.08 122.09,-46.2 116.76,-50.74"/>
</g>
<!-- Node6&#45;&gt;Node3 -->
<g id="edge8" class="edge">
<title>Node6&#45;&gt;Node3</title>
<path fill="none" stroke="midnightblue" d="M204.19,-102.26C202.3,-88.07 197.69,-68.9 186.5,-56 167.33,-33.89 135.08,-22.06 112.62,-16.16"/>
<polygon fill="midnightblue" stroke="midnightblue" points="200.72,-102.75 205.2,-112.35 207.69,-102.05 200.72,-102.75"/>
</g>
</g>
</svg>
