<?xml version="1.0" encoding="UTF-8" standalone="no"?>
<!DOCTYPE svg PUBLIC "-//W3C//DTD SVG 1.1//EN"
 "http://www.w3.org/Graphics/SVG/1.1/DTD/svg11.dtd">
<!-- Generated by graphviz version 2.38.0 (20140413.2041)
 -->
<!-- Title: string_format.hpp Pages: 1 -->
<svg width="257pt" height="196pt"
 viewBox="0.00 0.00 256.84 196.00" xmlns="http://www.w3.org/2000/svg" xmlns:xlink="http://www.w3.org/1999/xlink">
<g id="graph0" class="graph" transform="scale(1 1) rotate(0) translate(4 192)">
<title>string_format.hpp</title>
<!-- Node1 -->
<g id="node1" class="node"><title>Node1</title>
<polygon fill="#bfbfbf" stroke="black" points="61.3424,-168.5 61.3424,-187.5 153.342,-187.5 153.342,-168.5 61.3424,-168.5"/>
<text text-anchor="middle" x="107.342" y="-175.5" font-family="Helvetica,sans-Serif" font-size="10.00">string_format.hpp</text>
</g>
<!-- Node2 -->
<g id="node2" class="node"><title>Node2</title>
<g id="a_node2"><a xlink:href="parser_8hpp.html" target="_top" xlink:title="parser.hpp">
<polygon fill="none" stroke="black" points="8.34238,-112.5 8.34238,-131.5 70.3424,-131.5 70.3424,-112.5 8.34238,-112.5"/>
<text text-anchor="middle" x="39.3424" y="-119.5" font-family="Helvetica,sans-Serif" font-size="10.00">parser.hpp</text>
</a>
</g>
</g>
<!-- Node1&#45;&gt;Node2 -->
<g id="edge1" class="edge"><title>Node1&#45;&gt;Node2</title>
<path fill="none" stroke="midnightblue" d="M88.5804,-162.101C76.3424,-152.382 60.7837,-140.027 50.4665,-131.834"/>
<polygon fill="midnightblue" stroke="midnightblue" points="86.4093,-164.846 96.417,-168.324 90.7625,-159.364 86.4093,-164.846"/>
</g>
<!-- Node5 -->
<g id="node5" class="node"><title>Node5</title>
<g id="a_node5"><a xlink:href="tag__scalar_8hpp.html" target="_top" xlink:title="tag_scalar.hpp">
<polygon fill="none" stroke="black" points="84.3424,-56.5 84.3424,-75.5 164.342,-75.5 164.342,-56.5 84.3424,-56.5"/>
<text text-anchor="middle" x="124.342" y="-63.5" font-family="Helvetica,sans-Serif" font-size="10.00">tag_scalar.hpp</text>
</a>
</g>
</g>
<!-- Node1&#45;&gt;Node5 -->
<g id="edge5" class="edge"><title>Node1&#45;&gt;Node5</title>
<path fill="none" stroke="midnightblue" d="M110.225,-158.348C113.949,-134.254 120.277,-93.3079 123.015,-75.5914"/>
<polygon fill="midnightblue" stroke="midnightblue" points="106.745,-157.951 108.676,-168.368 113.663,-159.02 106.745,-157.951"/>
</g>
<!-- Node6 -->
<g id="node6" class="node"><title>Node6</title>
<g id="a_node6"><a xlink:href="tag__scalar__vector_8hpp.html" target="_top" xlink:title="tag_scalar_vector.hpp">
<polygon fill="none" stroke="black" points="135.842,-112.5 135.842,-131.5 248.842,-131.5 248.842,-112.5 135.842,-112.5"/>
<text text-anchor="middle" x="192.342" y="-119.5" font-family="Helvetica,sans-Serif" font-size="10.00">tag_scalar_vector.hpp</text>
</a>
</g>
</g>
<!-- Node1&#45;&gt;Node6 -->
<g id="edge7" class="edge"><title>Node1&#45;&gt;Node6</title>
<path fill="none" stroke="midnightblue" d="M129.536,-162.901C145.122,-152.999 165.472,-140.071 178.72,-131.655"/>
<polygon fill="midnightblue" stroke="midnightblue" points="127.563,-160.007 120.999,-168.324 131.317,-165.916 127.563,-160.007"/>
</g>
<!-- Node3 -->
<g id="node3" class="node"><title>Node3</title>
<g id="a_node3"><a xlink:href="all_8hpp.html" target="_top" xlink:title="all.hpp">
<polygon fill="none" stroke="black" points="58.8424,-0.5 58.8424,-19.5 103.842,-19.5 103.842,-0.5 58.8424,-0.5"/>
<text text-anchor="middle" x="81.3424" y="-7.5" font-family="Helvetica,sans-Serif" font-size="10.00">all.hpp</text>
</a>
</g>
</g>
<!-- Node2&#45;&gt;Node3 -->
<g id="edge2" class="edge"><title>Node2&#45;&gt;Node3</title>
<path fill="none" stroke="midnightblue" d="M20.6402,-105.095C7.4643,-91.8804 -6.25761,-72.6215 3.34238,-56 15.1491,-35.5578 40.165,-23.5748 58.6996,-17.1839"/>
<polygon fill="midnightblue" stroke="midnightblue" points="18.4568,-107.845 28.1544,-112.112 23.2343,-102.729 18.4568,-107.845"/>
</g>
<!-- Node4 -->
<g id="node4" class="node"><title>Node4</title>
<g id="a_node4"><a xlink:href="utils_8hpp.html" target="_top" xlink:title="utils.hpp">
<polygon fill="none" stroke="black" points="12.8424,-56.5 12.8424,-75.5 65.8424,-75.5 65.8424,-56.5 12.8424,-56.5"/>
<text text-anchor="middle" x="39.3424" y="-63.5" font-family="Helvetica,sans-Serif" font-size="10.00">utils.hpp</text>
</a>
</g>
</g>
<!-- Node2&#45;&gt;Node4 -->
<g id="edge3" class="edge"><title>Node2&#45;&gt;Node4</title>
<path fill="none" stroke="midnightblue" d="M39.3424,-101.805C39.3424,-92.9102 39.3424,-82.7798 39.3424,-75.7511"/>
<polygon fill="midnightblue" stroke="midnightblue" points="35.8425,-102.083 39.3424,-112.083 42.8425,-102.083 35.8425,-102.083"/>
</g>
<!-- Node4&#45;&gt;Node3 -->
<g id="edge4" class="edge"><title>Node4&#45;&gt;Node3</title>
<path fill="none" stroke="midnightblue" d="M52.4526,-48.144C59.7702,-38.7357 68.5832,-27.4046 74.536,-19.7511"/>
<polygon fill="midnightblue" stroke="midnightblue" points="49.6545,-46.0406 46.2778,-56.083 55.18,-50.3383 49.6545,-46.0406"/>
</g>
<!-- Node5&#45;&gt;Node3 -->
<g id="edge6" class="edge"><title>Node5&#45;&gt;Node3</title>
<path fill="none" stroke="midnightblue" d="M110.92,-48.144C103.428,-38.7357 94.4053,-27.4046 88.3108,-19.7511"/>
<polygon fill="midnightblue" stroke="midnightblue" points="108.275,-50.4404 117.242,-56.083 113.75,-46.0799 108.275,-50.4404"/>
</g>
<!-- Node6&#45;&gt;Node3 -->
<g id="edge8" class="edge"><title>Node6&#45;&gt;Node3</title>
<path fill="none" stroke="midnightblue" d="M190.927,-102.344C188.975,-88.2082 184.341,-69.0541 173.342,-56 155.356,-34.6515 124.828,-22.5631 103.907,-16.4063"/>
<polygon fill="midnightblue" stroke="midnightblue" points="187.457,-102.816 191.987,-112.393 194.418,-102.081 187.457,-102.816"/>
</g>
</g>
</svg>
