<?xml version="1.0" encoding="UTF-8" standalone="no"?>
<!DOCTYPE svg PUBLIC "-//W3C//DTD SVG 1.1//EN"
 "http://www.w3.org/Graphics/SVG/1.1/DTD/svg11.dtd">
<!-- Generated by graphviz version 2.43.0 (0)
 -->
<!-- Title: string_format.hpp Pages: 1 -->
<svg width="442pt" height="196pt"
 viewBox="0.00 0.00 442.00 196.00" xmlns="http://www.w3.org/2000/svg" xmlns:xlink="http://www.w3.org/1999/xlink">
<g id="graph0" class="graph" transform="scale(1 1) rotate(0) translate(4 192)">
<title>string_format.hpp</title>
<!-- Node1 -->
<g id="node1" class="node">
<title>Node1</title>
<g id="a_node1"><a xlink:title=" ">
<polygon fill="#bfbfbf" stroke="black" points="152,-168.5 152,-187.5 256,-187.5 256,-168.5 152,-168.5"/>
<text text-anchor="middle" x="204" y="-175.5" font-family="Helvetica,sans-Serif" font-size="10.00">string_format.hpp</text>
</a>
</g>
</g>
<!-- Node2 -->
<g id="node2" class="node">
<title>Node2</title>
<g id="a_node2"><a xlink:href="types_8hpp.html" target="_top" xlink:title=" ">
<polygon fill="none" stroke="black" points="171.5,-56.5 171.5,-75.5 236.5,-75.5 236.5,-56.5 171.5,-56.5"/>
<text text-anchor="middle" x="204" y="-63.5" font-family="Helvetica,sans-Serif" font-size="10.00">types.hpp</text>
</a>
</g>
</g>
<!-- Node1&#45;&gt;Node2 -->
<g id="edge1" class="edge">
<title>Node1&#45;&gt;Node2</title>
<path fill="none" stroke="midnightblue" d="M192.46,-168.49C182.52,-160.38 168.88,-147.18 163,-132 155.91,-113.69 170.51,-94.96 184.21,-82.34"/>
<polygon fill="midnightblue" stroke="midnightblue" points="186.69,-84.82 192.01,-75.66 182.14,-79.51 186.69,-84.82"/>
</g>
<!-- Node9 -->
<g id="node9" class="node">
<title>Node9</title>
<g id="a_node9"><a xlink:href="const_8hpp.html" target="_top" xlink:title=" ">
<polygon fill="none" stroke="black" points="172,-112.5 172,-131.5 236,-131.5 236,-112.5 172,-112.5"/>
<text text-anchor="middle" x="204" y="-119.5" font-family="Helvetica,sans-Serif" font-size="10.00">const.hpp</text>
</a>
</g>
</g>
<!-- Node1&#45;&gt;Node9 -->
<g id="edge8" class="edge">
<title>Node1&#45;&gt;Node9</title>
<path fill="none" stroke="midnightblue" d="M204,-168.08C204,-161.01 204,-150.86 204,-141.99"/>
<polygon fill="midnightblue" stroke="midnightblue" points="207.5,-141.75 204,-131.75 200.5,-141.75 207.5,-141.75"/>
</g>
<!-- Node10 -->
<g id="node10" class="node">
<title>Node10</title>
<g id="a_node10"><a xlink:href="exceptions_8hpp.html" target="_top" xlink:title=" ">
<polygon fill="none" stroke="black" points="254.5,-112.5 254.5,-131.5 345.5,-131.5 345.5,-112.5 254.5,-112.5"/>
<text text-anchor="middle" x="300" y="-119.5" font-family="Helvetica,sans-Serif" font-size="10.00">exceptions.hpp</text>
</a>
</g>
</g>
<!-- Node1&#45;&gt;Node10 -->
<g id="edge10" class="edge">
<title>Node1&#45;&gt;Node10</title>
<path fill="none" stroke="midnightblue" d="M219.42,-168.32C234.54,-159.82 257.82,-146.73 275.47,-136.8"/>
<polygon fill="midnightblue" stroke="midnightblue" points="277.61,-139.61 284.61,-131.65 274.18,-133.51 277.61,-139.61"/>
</g>
<!-- Node3 -->
<g id="node3" class="node">
<title>Node3</title>
<g id="a_node3"><a xlink:title=" ">
<polygon fill="none" stroke="#bfbfbf" points="0,-0.5 0,-19.5 44,-19.5 44,-0.5 0,-0.5"/>
<text text-anchor="middle" x="22" y="-7.5" font-family="Helvetica,sans-Serif" font-size="10.00">string</text>
</a>
</g>
</g>
<!-- Node2&#45;&gt;Node3 -->
<g id="edge2" class="edge">
<title>Node2&#45;&gt;Node3</title>
<path fill="none" stroke="midnightblue" d="M175.16,-56.44C142.19,-46.66 88.36,-30.69 54.08,-20.52"/>
<polygon fill="midnightblue" stroke="midnightblue" points="54.7,-17.05 44.12,-17.56 52.71,-23.76 54.7,-17.05"/>
</g>
<!-- Node4 -->
<g id="node4" class="node">
<title>Node4</title>
<g id="a_node4"><a xlink:title=" ">
<polygon fill="none" stroke="#bfbfbf" points="62,-0.5 62,-19.5 122,-19.5 122,-0.5 62,-0.5"/>
<text text-anchor="middle" x="92" y="-7.5" font-family="Helvetica,sans-Serif" font-size="10.00">iostream</text>
</a>
</g>
</g>
<!-- Node2&#45;&gt;Node4 -->
<g id="edge3" class="edge">
<title>Node2&#45;&gt;Node4</title>
<path fill="none" stroke="midnightblue" d="M186.01,-56.32C167.96,-47.62 139.95,-34.12 119.2,-24.11"/>
<polygon fill="midnightblue" stroke="midnightblue" points="120.48,-20.84 109.95,-19.65 117.44,-27.15 120.48,-20.84"/>
</g>
<!-- Node5 -->
<g id="node5" class="node">
<title>Node5</title>
<g id="a_node5"><a xlink:title=" ">
<polygon fill="none" stroke="#bfbfbf" points="140.5,-0.5 140.5,-19.5 197.5,-19.5 197.5,-0.5 140.5,-0.5"/>
<text text-anchor="middle" x="169" y="-7.5" font-family="Helvetica,sans-Serif" font-size="10.00">cwctype</text>
</a>
</g>
</g>
<!-- Node2&#45;&gt;Node5 -->
<g id="edge4" class="edge">
<title>Node2&#45;&gt;Node5</title>
<path fill="none" stroke="midnightblue" d="M198.22,-56.08C193.33,-48.53 186.17,-37.49 180.17,-28.23"/>
<polygon fill="midnightblue" stroke="midnightblue" points="183.05,-26.24 174.67,-19.75 177.17,-30.05 183.05,-26.24"/>
</g>
<!-- Node6 -->
<g id="node6" class="node">
<title>Node6</title>
<g id="a_node6"><a xlink:title=" ">
<polygon fill="none" stroke="#bfbfbf" points="215.5,-0.5 215.5,-19.5 264.5,-19.5 264.5,-0.5 215.5,-0.5"/>
<text text-anchor="middle" x="240" y="-7.5" font-family="Helvetica,sans-Serif" font-size="10.00">cctype</text>
</a>
</g>
</g>
<!-- Node2&#45;&gt;Node6 -->
<g id="edge5" class="edge">
<title>Node2&#45;&gt;Node6</title>
<path fill="none" stroke="midnightblue" d="M209.94,-56.08C214.98,-48.53 222.34,-37.49 228.51,-28.23"/>
<polygon fill="midnightblue" stroke="midnightblue" points="231.53,-30.01 234.17,-19.75 225.71,-26.13 231.53,-30.01"/>
</g>
<!-- Node7 -->
<g id="node7" class="node">
<title>Node7</title>
<g id="a_node7"><a xlink:title=" ">
<polygon fill="none" stroke="#bfbfbf" points="282.5,-0.5 282.5,-19.5 335.5,-19.5 335.5,-0.5 282.5,-0.5"/>
<text text-anchor="middle" x="309" y="-7.5" font-family="Helvetica,sans-Serif" font-size="10.00">QString</text>
</a>
</g>
</g>
<!-- Node2&#45;&gt;Node7 -->
<g id="edge6" class="edge">
<title>Node2&#45;&gt;Node7</title>
<path fill="none" stroke="midnightblue" d="M220.87,-56.32C237.71,-47.66 263.81,-34.24 283.24,-24.25"/>
<polygon fill="midnightblue" stroke="midnightblue" points="284.88,-27.34 292.17,-19.65 281.68,-21.12 284.88,-27.34"/>
</g>
<!-- Node8 -->
<g id="node8" class="node">
<title>Node8</title>
<g id="a_node8"><a xlink:title=" ">
<polygon fill="none" stroke="#bfbfbf" points="354,-0.5 354,-19.5 434,-19.5 434,-0.5 354,-0.5"/>
<text text-anchor="middle" x="394" y="-7.5" font-family="Helvetica,sans-Serif" font-size="10.00">QTextStream</text>
</a>
</g>
</g>
<!-- Node2&#45;&gt;Node8 -->
<g id="edge7" class="edge">
<title>Node2&#45;&gt;Node8</title>
<path fill="none" stroke="midnightblue" d="M234.11,-56.44C266.63,-47.2 318.58,-32.44 354.39,-22.26"/>
<polygon fill="midnightblue" stroke="midnightblue" points="355.37,-25.62 364.03,-19.52 353.46,-18.88 355.37,-25.62"/>
</g>
<!-- Node9&#45;&gt;Node2 -->
<g id="edge9" class="edge">
<title>Node9&#45;&gt;Node2</title>
<path fill="none" stroke="midnightblue" d="M204,-112.08C204,-105.01 204,-94.86 204,-85.99"/>
<polygon fill="midnightblue" stroke="midnightblue" points="207.5,-85.75 204,-75.75 200.5,-85.75 207.5,-85.75"/>
</g>
<!-- Node10&#45;&gt;Node2 -->
<g id="edge12" class="edge">
<title>Node10&#45;&gt;Node2</title>
<path fill="none" stroke="midnightblue" d="M284.58,-112.32C269.46,-103.82 246.18,-90.73 228.53,-80.8"/>
<polygon fill="midnightblue" stroke="midnightblue" points="229.82,-77.51 219.39,-75.65 226.39,-83.61 229.82,-77.51"/>
</g>
<!-- Node11 -->
<g id="node11" class="node">
<title>Node11</title>
<g id="a_node11"><a xlink:title=" ">
<polygon fill="none" stroke="#bfbfbf" points="267.5,-56.5 267.5,-75.5 332.5,-75.5 332.5,-56.5 267.5,-56.5"/>
<text text-anchor="middle" x="300" y="-63.5" font-family="Helvetica,sans-Serif" font-size="10.00">stdexcept</text>
</a>
</g>
</g>
<!-- Node10&#45;&gt;Node11 -->
<g id="edge11" class="edge">
<title>Node10&#45;&gt;Node11</title>
<path fill="none" stroke="midnightblue" d="M300,-112.08C300,-105.01 300,-94.86 300,-85.99"/>
<polygon fill="midnightblue" stroke="midnightblue" points="303.5,-85.75 300,-75.75 296.5,-85.75 303.5,-85.75"/>
</g>
</g>
</svg>
