<?xml version="1.0" encoding="UTF-8" standalone="no"?>
<!DOCTYPE svg PUBLIC "-//W3C//DTD SVG 1.1//EN"
 "http://www.w3.org/Graphics/SVG/1.1/DTD/svg11.dtd">
<!-- Generated by graphviz version 2.43.0 (0)
 -->
<!-- Title: string_format.hpp Pages: 1 -->
<svg width="275pt" height="192pt"
 viewBox="0.00 0.00 274.94 192.00" xmlns="http://www.w3.org/2000/svg" xmlns:xlink="http://www.w3.org/1999/xlink">

<svg id="main" version="1.1" xmlns="http://www.w3.org/2000/svg" xmlns:xlink="http://www.w3.org/1999/xlink" xml:space="preserve" onload="init(evt)">
<style type="text/css"><![CDATA[
.node, .edge {opacity: 0.7;}
.node.selected, .edge.selected {opacity: 1;}
.edge:hover path { stroke: red; }
.edge:hover polygon { stroke: red; fill: red; }
]]></style>
<script type="application/ecmascript" xlink:href="svg.min.js"/>
<svg id="graph" class="graph">
<g id="graph0" class="graph" transform="scale(1 1) rotate(0) translate(4 188)">
<title>string_format.hpp</title>
<!-- Node1 -->
<g id="Node000001" class="node">
<title>Node1</title>
<g id="a_Node000001"><a xlink:title=" ">
<polygon fill="#999999" stroke="#666666" points="167.44,-184 63.44,-184 63.44,-165 167.44,-165 167.44,-184"/>
<text text-anchor="middle" x="115.44" y="-172" font-family="Helvetica,sans-Serif" font-size="10.00">string_format.hpp</text>
</a>
</g>
</g>
<!-- Node2 -->
<g id="Node000002" class="node">
<title>Node2</title>
<g id="a_Node000002"><a xlink:href="parser_8hpp.html" target="_top" xlink:title=" ">
<polygon fill="white" stroke="#666666" points="76.44,-129 8.44,-129 8.44,-110 76.44,-110 76.44,-129"/>
<text text-anchor="middle" x="42.44" y="-117" font-family="Helvetica,sans-Serif" font-size="10.00">parser.hpp</text>
</a>
</g>
</g>
<!-- Node1&#45;&gt;Node2 -->
<g id="edge1_Node000001_Node000002" class="edge">
<title>Node1&#45;&gt;Node2</title>
<g id="a_edge1_Node000001_Node000002"><a xlink:title=" ">
<path fill="none" stroke="#63b8ff" d="M95.29,-158.88C82.16,-149.34 65.45,-137.21 54.38,-129.17"/>
<polygon fill="#63b8ff" stroke="#63b8ff" points="93.56,-161.94 103.71,-164.98 97.67,-156.28 93.56,-161.94"/>
</a>
</g>
</g>
<!-- Node5 -->
<g id="Node000005" class="node">
<title>Node5</title>
<g id="a_Node000005"><a xlink:href="tag__scalar_8hpp.html" target="_top" xlink:title=" ">
<polygon fill="white" stroke="#666666" points="176.94,-74 89.94,-74 89.94,-55 176.94,-55 176.94,-74"/>
<text text-anchor="middle" x="133.44" y="-62" font-family="Helvetica,sans-Serif" font-size="10.00">tag_scalar.hpp</text>
</a>
</g>
</g>
<!-- Node1&#45;&gt;Node5 -->
<g id="edge5_Node000001_Node000005" class="edge">
<title>Node1&#45;&gt;Node5</title>
<g id="a_edge5_Node000001_Node000005"><a xlink:title=" ">
<path fill="none" stroke="#63b8ff" d="M118.61,-154.48C122.55,-130.84 129.1,-91.5 131.99,-74.16"/>
<polygon fill="#63b8ff" stroke="#63b8ff" points="115.1,-154.22 116.91,-164.66 122.01,-155.37 115.1,-154.22"/>
</a>
</g>
</g>
<!-- Node6 -->
<g id="Node000006" class="node">
<title>Node6</title>
<g id="a_Node000006"><a xlink:href="tag__scalar__vector_8hpp.html" target="_top" xlink:title=" ">
<polygon fill="white" stroke="#666666" points="266.94,-129 143.94,-129 143.94,-110 266.94,-110 266.94,-129"/>
<text text-anchor="middle" x="205.44" y="-117" font-family="Helvetica,sans-Serif" font-size="10.00">tag_scalar_vector.hpp</text>
</a>
</g>
</g>
<!-- Node1&#45;&gt;Node6 -->
<g id="edge7_Node000001_Node000006" class="edge">
<title>Node1&#45;&gt;Node6</title>
<g id="a_edge7_Node000001_Node000006"><a xlink:title=" ">
<path fill="none" stroke="#63b8ff" d="M138.88,-159.7C155.27,-150.04 176.66,-137.44 190.71,-129.17"/>
<polygon fill="#63b8ff" stroke="#63b8ff" points="136.74,-156.89 129.9,-164.98 140.29,-162.93 136.74,-156.89"/>
</a>
</g>
</g>
<!-- Node3 -->
<g id="Node000003" class="node">
<title>Node3</title>
<g id="a_Node000003"><a xlink:href="all_8hpp.html" target="_top" xlink:title=" ">
<polygon fill="white" stroke="#666666" points="112.44,-19 62.44,-19 62.44,0 112.44,0 112.44,-19"/>
<text text-anchor="middle" x="87.44" y="-7" font-family="Helvetica,sans-Serif" font-size="10.00">all.hpp</text>
</a>
</g>
</g>
<!-- Node2&#45;&gt;Node3 -->
<g id="edge2_Node000002_Node000003" class="edge">
<title>Node2&#45;&gt;Node3</title>
<g id="a_edge2_Node000002_Node000003"><a xlink:title=" ">
<path fill="none" stroke="#63b8ff" d="M22.82,-103.45C8.58,-90.62 -6.58,-71.65 3.44,-55 16.12,-33.93 42.49,-22.31 62.33,-16.28"/>
<polygon fill="#63b8ff" stroke="#63b8ff" points="20.57,-106.14 30.47,-109.9 25.08,-100.78 20.57,-106.14"/>
</a>
</g>
</g>
<!-- Node4 -->
<g id="Node000004" class="node">
<title>Node4</title>
<g id="a_Node000004"><a xlink:href="utils_8hpp.html" target="_top" xlink:title=" ">
<polygon fill="white" stroke="#666666" points="71.94,-74 12.94,-74 12.94,-55 71.94,-55 71.94,-74"/>
<text text-anchor="middle" x="42.44" y="-62" font-family="Helvetica,sans-Serif" font-size="10.00">utils.hpp</text>
</a>
</g>
</g>
<!-- Node2&#45;&gt;Node4 -->
<g id="edge3_Node000002_Node000004" class="edge">
<title>Node2&#45;&gt;Node4</title>
<g id="a_edge3_Node000002_Node000004"><a xlink:title=" ">
<path fill="none" stroke="#63b8ff" d="M42.44,-99.66C42.44,-90.93 42.44,-80.99 42.44,-74.09"/>
<polygon fill="#63b8ff" stroke="#63b8ff" points="38.94,-99.75 42.44,-109.75 45.94,-99.75 38.94,-99.75"/>
</a>
</g>
</g>
<!-- Node4&#45;&gt;Node3 -->
<g id="edge4_Node000004_Node000003" class="edge">
<title>Node4&#45;&gt;Node3</title>
<g id="a_edge4_Node000004_Node000003"><a xlink:title=" ">
<path fill="none" stroke="#63b8ff" d="M56.48,-46.96C64.32,-37.72 73.77,-26.6 80.14,-19.09"/>
<polygon fill="#63b8ff" stroke="#63b8ff" points="53.67,-44.86 49.87,-54.75 59.01,-49.39 53.67,-44.86"/>
</a>
</g>
</g>
<!-- Node5&#45;&gt;Node3 -->
<g id="edge6_Node000005_Node000003" class="edge">
<title>Node5&#45;&gt;Node3</title>
<g id="a_edge6_Node000005_Node000003"><a xlink:title=" ">
<path fill="none" stroke="#63b8ff" d="M119.08,-46.96C111.06,-37.72 101.41,-26.6 94.89,-19.09"/>
<polygon fill="#63b8ff" stroke="#63b8ff" points="116.64,-49.49 125.84,-54.75 121.93,-44.9 116.64,-49.49"/>
</a>
</g>
</g>
<!-- Node6&#45;&gt;Node3 -->
<g id="edge8_Node000006_Node000003" class="edge">
<title>Node6&#45;&gt;Node3</title>
<g id="a_edge8_Node000006_Node000003"><a xlink:title=" ">
<path fill="none" stroke="#63b8ff" d="M203.9,-99.3C201.89,-85.53 197.22,-67.31 186.44,-55 167.19,-33.03 134.95,-21.35 112.52,-15.56"/>
<polygon fill="#63b8ff" stroke="#63b8ff" points="200.46,-100.05 205.05,-109.6 207.42,-99.27 200.46,-100.05"/>
</a>
</g>
</g>
</g>
</svg>
</svg>

<style type='text/css'>
<![CDATA[
[data-mouse-over-selected='false'] { opacity: 0.7; }
[data-mouse-over-selected='true']  { opacity: 1.0; }
]]>
</style>
<script type="application/ecmascript"><![CDATA[
document.addEventListener('DOMContentLoaded', (event) => {
  highlightEdges();
  highlightAdjacentNodes();
});
]]></script>
</svg>
