<?xml version="1.0" encoding="UTF-8" standalone="no"?>
<!DOCTYPE svg PUBLIC "-//W3C//DTD SVG 1.1//EN"
 "http://www.w3.org/Graphics/SVG/1.1/DTD/svg11.dtd">
<!-- Generated by graphviz version 2.43.0 (0)
 -->
<!-- Title: tag.hpp Pages: 1 -->
<svg width="492pt" height="192pt"
 viewBox="0.00 0.00 492.27 192.00" xmlns="http://www.w3.org/2000/svg" xmlns:xlink="http://www.w3.org/1999/xlink">

<svg id="main" version="1.1" xmlns="http://www.w3.org/2000/svg" xmlns:xlink="http://www.w3.org/1999/xlink" xml:space="preserve" onload="init(evt)">
<style type="text/css"><![CDATA[
.node, .edge {opacity: 0.7;}
.node.selected, .edge.selected {opacity: 1;}
.edge:hover path { stroke: red; }
.edge:hover polygon { stroke: red; fill: red; }
]]></style>
<script type="application/ecmascript" xlink:href="svg.min.js"/>
<svg id="graph" class="graph">
<g id="graph0" class="graph" transform="scale(1 1) rotate(0) translate(4 188)">
<title>tag.hpp</title>
<!-- Node1 -->
<g id="Node000001" class="node">
<title>Node1</title>
<g id="a_Node000001"><a xlink:title=" ">
<polygon fill="#999999" stroke="#666666" points="172.27,-184 119.27,-184 119.27,-165 172.27,-165 172.27,-184"/>
<text text-anchor="middle" x="145.77" y="-172" font-family="Helvetica,sans-Serif" font-size="10.00">tag.hpp</text>
</a>
</g>
</g>
<!-- Node2 -->
<g id="Node000002" class="node">
<title>Node2</title>
<g id="a_Node000002"><a xlink:href="all_8hpp.html" target="_top" xlink:title=" ">
<polygon fill="white" stroke="#666666" points="187.77,-19 137.77,-19 137.77,0 187.77,0 187.77,-19"/>
<text text-anchor="middle" x="162.77" y="-7" font-family="Helvetica,sans-Serif" font-size="10.00">all.hpp</text>
</a>
</g>
</g>
<!-- Node1&#45;&gt;Node2 -->
<g id="edge1_Node000001_Node000002" class="edge">
<title>Node1&#45;&gt;Node2</title>
<g id="a_edge1_Node000001_Node000002"><a xlink:title=" ">
<path fill="none" stroke="#63b8ff" d="M108.72,-173.41C74.99,-171.11 26.9,-161.78 2.77,-129 -2.24,-122.2 1.72,-118.38 2.77,-110 5.9,-84.97 -0.65,-73.25 16.77,-55 48.69,-21.55 104.93,-13.03 137.5,-10.99"/>
<polygon fill="#63b8ff" stroke="#63b8ff" points="108.95,-176.93 119.12,-173.93 109.3,-169.94 108.95,-176.93"/>
</a>
</g>
</g>
<!-- Node3 -->
<g id="Node000003" class="node">
<title>Node3</title>
<g id="a_Node000003"><a xlink:href="parser_8hpp.html" target="_top" xlink:title=" ">
<polygon fill="white" stroke="#666666" points="79.77,-129 11.77,-129 11.77,-110 79.77,-110 79.77,-129"/>
<text text-anchor="middle" x="45.77" y="-117" font-family="Helvetica,sans-Serif" font-size="10.00">parser.hpp</text>
</a>
</g>
</g>
<!-- Node1&#45;&gt;Node3 -->
<g id="edge2_Node000001_Node000003" class="edge">
<title>Node1&#45;&gt;Node3</title>
<g id="a_edge2_Node000001_Node000003"><a xlink:title=" ">
<path fill="none" stroke="#63b8ff" d="M120.73,-160.23C102.4,-150.51 78.03,-137.6 62.12,-129.17"/>
<polygon fill="#63b8ff" stroke="#63b8ff" points="119.22,-163.39 129.7,-164.98 122.5,-157.21 119.22,-163.39"/>
</a>
</g>
</g>
<!-- Node4 -->
<g id="Node000004" class="node">
<title>Node4</title>
<g id="a_Node000004"><a xlink:href="utils_8hpp.html" target="_top" xlink:title=" ">
<polygon fill="white" stroke="#666666" points="93.27,-74 34.27,-74 34.27,-55 93.27,-55 93.27,-74"/>
<text text-anchor="middle" x="63.77" y="-62" font-family="Helvetica,sans-Serif" font-size="10.00">utils.hpp</text>
</a>
</g>
</g>
<!-- Node1&#45;&gt;Node4 -->
<g id="edge14_Node000001_Node000004" class="edge">
<title>Node1&#45;&gt;Node4</title>
<g id="a_edge14_Node000001_Node000004"><a xlink:title=" ">
<path fill="none" stroke="#63b8ff" d="M133,-156.69C115.3,-133.37 83.92,-92.05 70.34,-74.16"/>
<polygon fill="#63b8ff" stroke="#63b8ff" points="130.22,-158.81 139.06,-164.66 135.8,-154.58 130.22,-158.81"/>
</a>
</g>
</g>
<!-- Node5 -->
<g id="Node000005" class="node">
<title>Node5</title>
<g id="a_Node000005"><a xlink:href="tag__no__value_8hpp.html" target="_top" xlink:title=" ">
<polygon fill="white" stroke="#666666" points="214.27,-74 111.27,-74 111.27,-55 214.27,-55 214.27,-74"/>
<text text-anchor="middle" x="162.77" y="-62" font-family="Helvetica,sans-Serif" font-size="10.00">tag_no_value.hpp</text>
</a>
</g>
</g>
<!-- Node1&#45;&gt;Node5 -->
<g id="edge6_Node000001_Node000005" class="edge">
<title>Node1&#45;&gt;Node5</title>
<g id="a_edge6_Node000001_Node000005"><a xlink:title=" ">
<path fill="none" stroke="#63b8ff" d="M148.76,-154.48C152.48,-130.84 158.67,-91.5 161.4,-74.16"/>
<polygon fill="#63b8ff" stroke="#63b8ff" points="145.25,-154.24 147.16,-164.66 152.17,-155.33 145.25,-154.24"/>
</a>
</g>
</g>
<!-- Node6 -->
<g id="Node000006" class="node">
<title>Node6</title>
<g id="a_Node000006"><a xlink:href="tag__scalar_8hpp.html" target="_top" xlink:title=" ">
<polygon fill="white" stroke="#666666" points="319.27,-74 232.27,-74 232.27,-55 319.27,-55 319.27,-74"/>
<text text-anchor="middle" x="275.77" y="-62" font-family="Helvetica,sans-Serif" font-size="10.00">tag_scalar.hpp</text>
</a>
</g>
</g>
<!-- Node1&#45;&gt;Node6 -->
<g id="edge8_Node000001_Node000006" class="edge">
<title>Node1&#45;&gt;Node6</title>
<g id="a_edge8_Node000001_Node000006"><a xlink:title=" ">
<path fill="none" stroke="#63b8ff" d="M158.65,-157.01C169.73,-143.46 186.6,-124.23 203.77,-110 221.3,-95.46 244,-82.22 259.18,-74.03"/>
<polygon fill="#63b8ff" stroke="#63b8ff" points="155.78,-155 152.26,-165 161.24,-159.38 155.78,-155"/>
</a>
</g>
</g>
<!-- Node7 -->
<g id="Node000007" class="node">
<title>Node7</title>
<g id="a_Node000007"><a xlink:href="tag__scalar__vector_8hpp.html" target="_top" xlink:title=" ">
<polygon fill="white" stroke="#666666" points="335.27,-129 212.27,-129 212.27,-110 335.27,-110 335.27,-129"/>
<text text-anchor="middle" x="273.77" y="-117" font-family="Helvetica,sans-Serif" font-size="10.00">tag_scalar_vector.hpp</text>
</a>
</g>
</g>
<!-- Node1&#45;&gt;Node7 -->
<g id="edge10_Node000001_Node000007" class="edge">
<title>Node1&#45;&gt;Node7</title>
<g id="a_edge10_Node000001_Node000007"><a xlink:title=" ">
<path fill="none" stroke="#63b8ff" d="M175.88,-161.03C199.55,-151.23 231.91,-137.83 252.83,-129.17"/>
<polygon fill="#63b8ff" stroke="#63b8ff" points="174.23,-157.93 166.33,-164.98 176.91,-164.39 174.23,-157.93"/>
</a>
</g>
</g>
<!-- Node8 -->
<g id="Node000008" class="node">
<title>Node8</title>
<g id="a_Node000008"><a xlink:href="tag__vector__of__tags_8hpp.html" target="_top" xlink:title=" ">
<polygon fill="white" stroke="#666666" points="484.27,-129 353.27,-129 353.27,-110 484.27,-110 484.27,-129"/>
<text text-anchor="middle" x="418.77" y="-117" font-family="Helvetica,sans-Serif" font-size="10.00">tag_vector_of_tags.hpp</text>
</a>
</g>
</g>
<!-- Node1&#45;&gt;Node8 -->
<g id="edge12_Node000001_Node000008" class="edge">
<title>Node1&#45;&gt;Node8</title>
<g id="a_edge12_Node000001_Node000008"><a xlink:title=" ">
<path fill="none" stroke="#63b8ff" d="M182.44,-166.38C232.22,-156.72 321.06,-139.47 374.49,-129.1"/>
<polygon fill="#63b8ff" stroke="#63b8ff" points="181.59,-162.98 172.44,-168.32 182.92,-169.85 181.59,-162.98"/>
</a>
</g>
</g>
<!-- Node3&#45;&gt;Node2 -->
<g id="edge3_Node000003_Node000002" class="edge">
<title>Node3&#45;&gt;Node2</title>
<g id="a_edge3_Node000003_Node000002"><a xlink:title=" ">
<path fill="none" stroke="#63b8ff" d="M32.7,-101.49C23.95,-87.87 15.72,-68.83 25.77,-55 51.42,-19.7 105.75,-11.85 137.75,-10.42"/>
<polygon fill="#63b8ff" stroke="#63b8ff" points="30.01,-103.74 38.62,-109.92 35.74,-99.72 30.01,-103.74"/>
</a>
</g>
</g>
<!-- Node3&#45;&gt;Node4 -->
<g id="edge4_Node000003_Node000004" class="edge">
<title>Node3&#45;&gt;Node4</title>
<g id="a_edge4_Node000003_Node000004"><a xlink:title=" ">
<path fill="none" stroke="#63b8ff" d="M51.97,-100.24C54.98,-91.37 58.45,-81.14 60.85,-74.09"/>
<polygon fill="#63b8ff" stroke="#63b8ff" points="48.64,-99.15 48.74,-109.75 55.27,-101.4 48.64,-99.15"/>
</a>
</g>
</g>
<!-- Node4&#45;&gt;Node2 -->
<g id="edge5_Node000004_Node000002" class="edge">
<title>Node4&#45;&gt;Node2</title>
<g id="a_edge5_Node000004_Node000002"><a xlink:title=" ">
<path fill="none" stroke="#63b8ff" d="M88.55,-50.23C106.7,-40.51 130.83,-27.6 146.57,-19.17"/>
<polygon fill="#63b8ff" stroke="#63b8ff" points="86.84,-47.18 79.67,-54.98 90.14,-53.35 86.84,-47.18"/>
</a>
</g>
</g>
<!-- Node5&#45;&gt;Node2 -->
<g id="edge7_Node000005_Node000002" class="edge">
<title>Node5&#45;&gt;Node2</title>
<g id="a_edge7_Node000005_Node000002"><a xlink:title=" ">
<path fill="none" stroke="#63b8ff" d="M162.77,-44.66C162.77,-35.93 162.77,-25.99 162.77,-19.09"/>
<polygon fill="#63b8ff" stroke="#63b8ff" points="159.27,-44.75 162.77,-54.75 166.27,-44.75 159.27,-44.75"/>
</a>
</g>
</g>
<!-- Node6&#45;&gt;Node2 -->
<g id="edge9_Node000006_Node000002" class="edge">
<title>Node6&#45;&gt;Node2</title>
<g id="a_edge9_Node000006_Node000002"><a xlink:title=" ">
<path fill="none" stroke="#63b8ff" d="M248.33,-50.63C227.52,-40.87 199.47,-27.71 181.25,-19.17"/>
<polygon fill="#63b8ff" stroke="#63b8ff" points="247.07,-53.91 257.61,-54.98 250.04,-47.57 247.07,-53.91"/>
</a>
</g>
</g>
<!-- Node7&#45;&gt;Node2 -->
<g id="edge11_Node000007_Node000002" class="edge">
<title>Node7&#45;&gt;Node2</title>
<g id="a_edge11_Node000007_Node000002"><a xlink:title=" ">
<path fill="none" stroke="#63b8ff" d="M299.44,-104.82C319.7,-92.23 342.45,-72.84 328.77,-55 311.69,-32.75 230.17,-19.18 188.07,-13.54"/>
<polygon fill="#63b8ff" stroke="#63b8ff" points="297.58,-101.86 290.74,-109.94 301.13,-107.89 297.58,-101.86"/>
</a>
</g>
</g>
<!-- Node8&#45;&gt;Node2 -->
<g id="edge13_Node000008_Node000002" class="edge">
<title>Node8&#45;&gt;Node2</title>
<g id="a_edge13_Node000008_Node000002"><a xlink:title=" ">
<path fill="none" stroke="#63b8ff" d="M403.88,-101.91C389.97,-87.42 367.93,-66.9 344.77,-55 292.83,-28.32 224.25,-17.18 187.9,-12.9"/>
<polygon fill="#63b8ff" stroke="#63b8ff" points="401.7,-104.7 411.07,-109.63 406.82,-99.93 401.7,-104.7"/>
</a>
</g>
</g>
</g>
</svg>
</svg>

<style type='text/css'>
<![CDATA[
[data-mouse-over-selected='false'] { opacity: 0.7; }
[data-mouse-over-selected='true']  { opacity: 1.0; }
]]>
</style>
<script type="application/ecmascript"><![CDATA[
document.addEventListener('DOMContentLoaded', (event) => {
  highlightEdges();
  highlightAdjacentNodes();
});
]]></script>
</svg>
