<?xml version="1.0" encoding="UTF-8" standalone="no"?>
<!DOCTYPE svg PUBLIC "-//W3C//DTD SVG 1.1//EN"
 "http://www.w3.org/Graphics/SVG/1.1/DTD/svg11.dtd">
<!-- Generated by graphviz version 2.43.0 (0)
 -->
<!-- Title: tag.hpp Pages: 1 -->
<svg width="617pt" height="196pt"
 viewBox="0.00 0.00 617.00 196.00" xmlns="http://www.w3.org/2000/svg" xmlns:xlink="http://www.w3.org/1999/xlink">
<g id="graph0" class="graph" transform="scale(1 1) rotate(0) translate(4 192)">
<title>tag.hpp</title>
<!-- Node1 -->
<g id="node1" class="node">
<title>Node1</title>
<g id="a_node1"><a xlink:title=" ">
<polygon fill="#bfbfbf" stroke="black" points="315.5,-168.5 315.5,-187.5 368.5,-187.5 368.5,-168.5 315.5,-168.5"/>
<text text-anchor="middle" x="342" y="-175.5" font-family="Helvetica,sans-Serif" font-size="10.00">tag.hpp</text>
</a>
</g>
</g>
<!-- Node2 -->
<g id="node2" class="node">
<title>Node2</title>
<g id="a_node2"><a xlink:title=" ">
<polygon fill="none" stroke="#bfbfbf" points="0,-112.5 0,-131.5 98,-131.5 98,-112.5 0,-112.5"/>
<text text-anchor="middle" x="49" y="-119.5" font-family="Helvetica,sans-Serif" font-size="10.00">QDomDocument</text>
</a>
</g>
</g>
<!-- Node1&#45;&gt;Node2 -->
<g id="edge1" class="edge">
<title>Node1&#45;&gt;Node2</title>
<path fill="none" stroke="midnightblue" d="M315.48,-172.11C268.24,-163.41 168.57,-145.04 105.42,-133.4"/>
<polygon fill="midnightblue" stroke="midnightblue" points="105.69,-129.89 95.22,-131.52 104.42,-136.77 105.69,-129.89"/>
</g>
<!-- Node3 -->
<g id="node3" class="node">
<title>Node3</title>
<g id="a_node3"><a xlink:title=" ">
<polygon fill="none" stroke="#bfbfbf" points="116,-112.5 116,-131.5 204,-131.5 204,-112.5 116,-112.5"/>
<text text-anchor="middle" x="160" y="-119.5" font-family="Helvetica,sans-Serif" font-size="10.00">QDomElement</text>
</a>
</g>
</g>
<!-- Node1&#45;&gt;Node3 -->
<g id="edge2" class="edge">
<title>Node1&#45;&gt;Node3</title>
<path fill="none" stroke="midnightblue" d="M315.15,-169.03C284.37,-159.9 233.67,-144.86 198.65,-134.47"/>
<polygon fill="midnightblue" stroke="midnightblue" points="199.35,-131.03 188.77,-131.54 197.36,-137.74 199.35,-131.03"/>
</g>
<!-- Node4 -->
<g id="node4" class="node">
<title>Node4</title>
<g id="a_node4"><a xlink:href="parser__info_8hpp.html" target="_top" xlink:title=" ">
<polygon fill="none" stroke="black" points="222,-112.5 222,-131.5 314,-131.5 314,-112.5 222,-112.5"/>
<text text-anchor="middle" x="268" y="-119.5" font-family="Helvetica,sans-Serif" font-size="10.00">parser_info.hpp</text>
</a>
</g>
</g>
<!-- Node1&#45;&gt;Node4 -->
<g id="edge3" class="edge">
<title>Node1&#45;&gt;Node4</title>
<path fill="none" stroke="midnightblue" d="M330.11,-168.32C318.85,-160.11 301.71,-147.6 288.29,-137.81"/>
<polygon fill="midnightblue" stroke="midnightblue" points="290.25,-134.9 280.11,-131.83 286.12,-140.56 290.25,-134.9"/>
</g>
<!-- Node5 -->
<g id="node5" class="node">
<title>Node5</title>
<g id="a_node5"><a xlink:href="types_8hpp.html" target="_top" xlink:title=" ">
<polygon fill="none" stroke="black" points="304.5,-56.5 304.5,-75.5 369.5,-75.5 369.5,-56.5 304.5,-56.5"/>
<text text-anchor="middle" x="337" y="-63.5" font-family="Helvetica,sans-Serif" font-size="10.00">types.hpp</text>
</a>
</g>
</g>
<!-- Node1&#45;&gt;Node5 -->
<g id="edge11" class="edge">
<title>Node1&#45;&gt;Node5</title>
<path fill="none" stroke="midnightblue" d="M341.61,-168.37C340.8,-150.62 338.94,-109.67 337.85,-85.6"/>
<polygon fill="midnightblue" stroke="midnightblue" points="341.34,-85.42 337.39,-75.59 334.35,-85.74 341.34,-85.42"/>
</g>
<!-- Node12 -->
<g id="node12" class="node">
<title>Node12</title>
<g id="a_node12"><a xlink:href="exceptions_8hpp.html" target="_top" xlink:title=" ">
<polygon fill="none" stroke="black" points="370.5,-112.5 370.5,-131.5 461.5,-131.5 461.5,-112.5 370.5,-112.5"/>
<text text-anchor="middle" x="416" y="-119.5" font-family="Helvetica,sans-Serif" font-size="10.00">exceptions.hpp</text>
</a>
</g>
</g>
<!-- Node1&#45;&gt;Node12 -->
<g id="edge12" class="edge">
<title>Node1&#45;&gt;Node12</title>
<path fill="none" stroke="midnightblue" d="M353.89,-168.32C365.15,-160.11 382.29,-147.6 395.71,-137.81"/>
<polygon fill="midnightblue" stroke="midnightblue" points="397.88,-140.56 403.89,-131.83 393.75,-134.9 397.88,-140.56"/>
</g>
<!-- Node14 -->
<g id="node14" class="node">
<title>Node14</title>
<g id="a_node14"><a xlink:title=" ">
<polygon fill="none" stroke="#bfbfbf" points="479.5,-112.5 479.5,-131.5 526.5,-131.5 526.5,-112.5 479.5,-112.5"/>
<text text-anchor="middle" x="503" y="-119.5" font-family="Helvetica,sans-Serif" font-size="10.00">vector</text>
</a>
</g>
</g>
<!-- Node1&#45;&gt;Node14 -->
<g id="edge15" class="edge">
<title>Node1&#45;&gt;Node14</title>
<path fill="none" stroke="midnightblue" d="M367.51,-168.44C395.15,-159.17 439.37,-144.34 469.72,-134.16"/>
<polygon fill="midnightblue" stroke="midnightblue" points="471.07,-137.4 479.44,-130.9 468.85,-130.76 471.07,-137.4"/>
</g>
<!-- Node15 -->
<g id="node15" class="node">
<title>Node15</title>
<g id="a_node15"><a xlink:title=" ">
<polygon fill="none" stroke="#bfbfbf" points="545,-112.5 545,-131.5 609,-131.5 609,-112.5 545,-112.5"/>
<text text-anchor="middle" x="577" y="-119.5" font-family="Helvetica,sans-Serif" font-size="10.00">algorithm</text>
</a>
</g>
</g>
<!-- Node1&#45;&gt;Node15 -->
<g id="edge16" class="edge">
<title>Node1&#45;&gt;Node15</title>
<path fill="none" stroke="midnightblue" d="M368.5,-170.91C409.07,-161.59 486.92,-143.7 535.17,-132.61"/>
<polygon fill="midnightblue" stroke="midnightblue" points="536.03,-136.01 544.99,-130.36 534.46,-129.18 536.03,-136.01"/>
</g>
<!-- Node4&#45;&gt;Node5 -->
<g id="edge4" class="edge">
<title>Node4&#45;&gt;Node5</title>
<path fill="none" stroke="midnightblue" d="M279.09,-112.32C289.49,-104.18 305.26,-91.84 317.72,-82.09"/>
<polygon fill="midnightblue" stroke="midnightblue" points="319.99,-84.75 325.71,-75.83 315.68,-79.24 319.99,-84.75"/>
</g>
<!-- Node6 -->
<g id="node6" class="node">
<title>Node6</title>
<g id="a_node6"><a xlink:title=" ">
<polygon fill="none" stroke="#bfbfbf" points="133,-0.5 133,-19.5 177,-19.5 177,-0.5 133,-0.5"/>
<text text-anchor="middle" x="155" y="-7.5" font-family="Helvetica,sans-Serif" font-size="10.00">string</text>
</a>
</g>
</g>
<!-- Node5&#45;&gt;Node6 -->
<g id="edge5" class="edge">
<title>Node5&#45;&gt;Node6</title>
<path fill="none" stroke="midnightblue" d="M308.16,-56.44C275.19,-46.66 221.36,-30.69 187.08,-20.52"/>
<polygon fill="midnightblue" stroke="midnightblue" points="187.7,-17.05 177.12,-17.56 185.71,-23.76 187.7,-17.05"/>
</g>
<!-- Node7 -->
<g id="node7" class="node">
<title>Node7</title>
<g id="a_node7"><a xlink:title=" ">
<polygon fill="none" stroke="#bfbfbf" points="195,-0.5 195,-19.5 255,-19.5 255,-0.5 195,-0.5"/>
<text text-anchor="middle" x="225" y="-7.5" font-family="Helvetica,sans-Serif" font-size="10.00">iostream</text>
</a>
</g>
</g>
<!-- Node5&#45;&gt;Node7 -->
<g id="edge6" class="edge">
<title>Node5&#45;&gt;Node7</title>
<path fill="none" stroke="midnightblue" d="M319.01,-56.32C300.96,-47.62 272.95,-34.12 252.2,-24.11"/>
<polygon fill="midnightblue" stroke="midnightblue" points="253.48,-20.84 242.95,-19.65 250.44,-27.15 253.48,-20.84"/>
</g>
<!-- Node8 -->
<g id="node8" class="node">
<title>Node8</title>
<g id="a_node8"><a xlink:title=" ">
<polygon fill="none" stroke="#bfbfbf" points="273.5,-0.5 273.5,-19.5 330.5,-19.5 330.5,-0.5 273.5,-0.5"/>
<text text-anchor="middle" x="302" y="-7.5" font-family="Helvetica,sans-Serif" font-size="10.00">cwctype</text>
</a>
</g>
</g>
<!-- Node5&#45;&gt;Node8 -->
<g id="edge7" class="edge">
<title>Node5&#45;&gt;Node8</title>
<path fill="none" stroke="midnightblue" d="M331.22,-56.08C326.33,-48.53 319.17,-37.49 313.17,-28.23"/>
<polygon fill="midnightblue" stroke="midnightblue" points="316.05,-26.24 307.67,-19.75 310.17,-30.05 316.05,-26.24"/>
</g>
<!-- Node9 -->
<g id="node9" class="node">
<title>Node9</title>
<g id="a_node9"><a xlink:title=" ">
<polygon fill="none" stroke="#bfbfbf" points="348.5,-0.5 348.5,-19.5 397.5,-19.5 397.5,-0.5 348.5,-0.5"/>
<text text-anchor="middle" x="373" y="-7.5" font-family="Helvetica,sans-Serif" font-size="10.00">cctype</text>
</a>
</g>
</g>
<!-- Node5&#45;&gt;Node9 -->
<g id="edge8" class="edge">
<title>Node5&#45;&gt;Node9</title>
<path fill="none" stroke="midnightblue" d="M342.94,-56.08C347.98,-48.53 355.34,-37.49 361.51,-28.23"/>
<polygon fill="midnightblue" stroke="midnightblue" points="364.53,-30.01 367.17,-19.75 358.71,-26.13 364.53,-30.01"/>
</g>
<!-- Node10 -->
<g id="node10" class="node">
<title>Node10</title>
<g id="a_node10"><a xlink:title=" ">
<polygon fill="none" stroke="#bfbfbf" points="415.5,-0.5 415.5,-19.5 468.5,-19.5 468.5,-0.5 415.5,-0.5"/>
<text text-anchor="middle" x="442" y="-7.5" font-family="Helvetica,sans-Serif" font-size="10.00">QString</text>
</a>
</g>
</g>
<!-- Node5&#45;&gt;Node10 -->
<g id="edge9" class="edge">
<title>Node5&#45;&gt;Node10</title>
<path fill="none" stroke="midnightblue" d="M353.87,-56.32C370.71,-47.66 396.81,-34.24 416.24,-24.25"/>
<polygon fill="midnightblue" stroke="midnightblue" points="417.88,-27.34 425.17,-19.65 414.68,-21.12 417.88,-27.34"/>
</g>
<!-- Node11 -->
<g id="node11" class="node">
<title>Node11</title>
<g id="a_node11"><a xlink:title=" ">
<polygon fill="none" stroke="#bfbfbf" points="487,-0.5 487,-19.5 567,-19.5 567,-0.5 487,-0.5"/>
<text text-anchor="middle" x="527" y="-7.5" font-family="Helvetica,sans-Serif" font-size="10.00">QTextStream</text>
</a>
</g>
</g>
<!-- Node5&#45;&gt;Node11 -->
<g id="edge10" class="edge">
<title>Node5&#45;&gt;Node11</title>
<path fill="none" stroke="midnightblue" d="M367.11,-56.44C399.63,-47.2 451.58,-32.44 487.39,-22.26"/>
<polygon fill="midnightblue" stroke="midnightblue" points="488.37,-25.62 497.03,-19.52 486.46,-18.88 488.37,-25.62"/>
</g>
<!-- Node12&#45;&gt;Node5 -->
<g id="edge14" class="edge">
<title>Node12&#45;&gt;Node5</title>
<path fill="none" stroke="midnightblue" d="M403.31,-112.32C391.1,-103.98 372.42,-91.21 358,-81.35"/>
<polygon fill="midnightblue" stroke="midnightblue" points="359.89,-78.41 349.66,-75.65 355.94,-84.19 359.89,-78.41"/>
</g>
<!-- Node13 -->
<g id="node13" class="node">
<title>Node13</title>
<g id="a_node13"><a xlink:title=" ">
<polygon fill="none" stroke="#bfbfbf" points="387.5,-56.5 387.5,-75.5 452.5,-75.5 452.5,-56.5 387.5,-56.5"/>
<text text-anchor="middle" x="420" y="-63.5" font-family="Helvetica,sans-Serif" font-size="10.00">stdexcept</text>
</a>
</g>
</g>
<!-- Node12&#45;&gt;Node13 -->
<g id="edge13" class="edge">
<title>Node12&#45;&gt;Node13</title>
<path fill="none" stroke="midnightblue" d="M416.66,-112.08C417.18,-105.01 417.94,-94.86 418.59,-85.99"/>
<polygon fill="midnightblue" stroke="midnightblue" points="422.1,-85.98 419.35,-75.75 415.12,-85.47 422.1,-85.98"/>
</g>
</g>
</svg>
