<?xml version="1.0" encoding="UTF-8" standalone="no"?>
<!DOCTYPE svg PUBLIC "-//W3C//DTD SVG 1.1//EN"
 "http://www.w3.org/Graphics/SVG/1.1/DTD/svg11.dtd">
<!-- Generated by graphviz version 2.38.0 (20140413.2041)
 -->
<!-- Title: tag_scalar_vector.hpp Pages: 1 -->
<!--zoomable 252 -->
<svg id="main" version="1.1" xmlns="http://www.w3.org/2000/svg" xmlns:xlink="http://www.w3.org/1999/xlink" xml:space="preserve" onload="init(evt)">
<style type="text/css"><![CDATA[
.edge:hover path { stroke: red; }
.edge:hover polygon { stroke: red; fill: red; }
]]></style>
<script type="text/javascript"><![CDATA[
var edges = document.getElementsByTagName('g');
if (edges && edges.length) {
  for (var i=0;i<edges.length;i++) {
    if (edges[i].id.substr(0,4)=='edge') {
      edges[i].setAttribute('class','edge');
    }
  }
}
]]></script>
        <defs>
                <circle id="rim" cx="0" cy="0" r="7"/>
                <circle id="rim2" cx="0" cy="0" r="3.5"/>
                <g id="zoomPlus">
                        <use xlink:href="#rim" fill="#404040">
                                <set attributeName="fill" to="#808080" begin="zoomplus.mouseover" end="zoomplus.mouseout"/>
                        </use>
                        <path d="M-4,0h8M0,-4v8" fill="none" stroke="white" stroke-width="1.5" pointer-events="none"/>
                </g>
                <g id="zoomMin">
                        <use xlink:href="#rim" fill="#404040">
                                <set attributeName="fill" to="#808080" begin="zoomminus.mouseover" end="zoomminus.mouseout"/>
                        </use>
                        <path d="M-4,0h8" fill="none" stroke="white" stroke-width="1.5" pointer-events="none"/>
                </g>
                <g id="dirArrow">
                        <path fill="none" stroke="white" stroke-width="1.5" d="M0,-3.0v7 M-2.5,-0.5L0,-3.0L2.5,-0.5"/>
                </g>
               <g id="resetDef">
                       <use xlink:href="#rim2" fill="#404040">
                               <set attributeName="fill" to="#808080" begin="reset.mouseover" end="reset.mouseout"/>
                       </use>
               </g>
        </defs>

<script type="text/javascript">
var viewWidth = 1005;
var viewHeight = 252;
var sectionId = 'dynsection-0';
</script>
<script xlink:href="svgpan.js"/>
<svg id="graph" class="graph">
<g id="viewport">
<title>tag_scalar_vector.hpp</title>
<!-- Node1 -->
<g id="node1" class="node"><title>Node1</title>
<polygon fill="#bfbfbf" stroke="black" points="468.5,-224.5 468.5,-243.5 581.5,-243.5 581.5,-224.5 468.5,-224.5"/>
<text text-anchor="middle" x="525" y="-231.5" font-family="Helvetica,sans-Serif" font-size="10.00">tag_scalar_vector.hpp</text>
</g>
<!-- Node2 -->
<g id="node2" class="node"><title>Node2</title>
<g id="a_node2"><a xlink:href="tag_8hpp.html" target="_top" xlink:title="tag.hpp">
<polygon fill="none" stroke="black" points="292.5,-168.5 292.5,-187.5 341.5,-187.5 341.5,-168.5 292.5,-168.5"/>
<text text-anchor="middle" x="317" y="-175.5" font-family="Helvetica,sans-Serif" font-size="10.00">tag.hpp</text>
</a>
</g>
</g>
<!-- Node1&#45;&gt;Node2 -->
<g id="edge1" class="edge"><title>Node1&#45;&gt;Node2</title>
<path fill="none" stroke="midnightblue" d="M492.042,-224.444C453.66,-214.479 390.551,-198.095 351.515,-187.961"/>
<polygon fill="midnightblue" stroke="midnightblue" points="352.221,-184.528 341.662,-185.403 350.461,-191.303 352.221,-184.528"/>
</g>
<!-- Node3 -->
<g id="node3" class="node"><title>Node3</title>
<polygon fill="none" stroke="#bfbfbf" points="0,-112.5 0,-131.5 90,-131.5 90,-112.5 0,-112.5"/>
<text text-anchor="middle" x="45" y="-119.5" font-family="Helvetica,sans-Serif" font-size="10.00">QDomDocument</text>
</g>
<!-- Node1&#45;&gt;Node3 -->
<g id="edge34" class="edge"><title>Node1&#45;&gt;Node3</title>
<path fill="none" stroke="midnightblue" d="M468.378,-227.536C408.529,-221.026 311.681,-208.39 230,-188 173.996,-174.02 111.021,-150.044 74.8781,-135.446"/>
<polygon fill="midnightblue" stroke="midnightblue" points="76.005,-132.126 65.4235,-131.594 73.3635,-138.609 76.005,-132.126"/>
</g>
<!-- Node4 -->
<g id="node4" class="node"><title>Node4</title>
<polygon fill="none" stroke="#bfbfbf" points="108.5,-112.5 108.5,-131.5 189.5,-131.5 189.5,-112.5 108.5,-112.5"/>
<text text-anchor="middle" x="149" y="-119.5" font-family="Helvetica,sans-Serif" font-size="10.00">QDomElement</text>
</g>
<!-- Node1&#45;&gt;Node4 -->
<g id="edge35" class="edge"><title>Node1&#45;&gt;Node4</title>
<path fill="none" stroke="midnightblue" d="M468.183,-226.802C418.449,-220.353 344.704,-208.294 283,-188 242.311,-174.618 198.171,-151.337 172.085,-136.572"/>
<polygon fill="midnightblue" stroke="midnightblue" points="173.746,-133.49 163.33,-131.552 170.264,-139.563 173.746,-133.49"/>
</g>
<!-- Node5 -->
<g id="node5" class="node"><title>Node5</title>
<g id="a_node5"><a xlink:href="parser__info_8hpp.html" target="_top" xlink:title="parser_info.hpp">
<polygon fill="none" stroke="black" points="382.5,-112.5 382.5,-131.5 465.5,-131.5 465.5,-112.5 382.5,-112.5"/>
<text text-anchor="middle" x="424" y="-119.5" font-family="Helvetica,sans-Serif" font-size="10.00">parser_info.hpp</text>
</a>
</g>
</g>
<!-- Node1&#45;&gt;Node5 -->
<g id="edge33" class="edge"><title>Node1&#45;&gt;Node5</title>
<path fill="none" stroke="midnightblue" d="M517.075,-224.368C500.186,-205.974 460.425,-162.671 438.739,-139.052"/>
<polygon fill="midnightblue" stroke="midnightblue" points="441.23,-136.59 431.888,-131.591 436.074,-141.325 441.23,-136.59"/>
</g>
<!-- Node6 -->
<g id="node6" class="node"><title>Node6</title>
<g id="a_node6"><a xlink:href="types_8hpp.html" target="_top" xlink:title="types.hpp">
<polygon fill="none" stroke="black" points="589.5,-56.5 589.5,-75.5 648.5,-75.5 648.5,-56.5 589.5,-56.5"/>
<text text-anchor="middle" x="619" y="-63.5" font-family="Helvetica,sans-Serif" font-size="10.00">types.hpp</text>
</a>
</g>
</g>
<!-- Node1&#45;&gt;Node6 -->
<g id="edge31" class="edge"><title>Node1&#45;&gt;Node6</title>
<path fill="none" stroke="midnightblue" d="M581.561,-229.286C642.02,-224.093 732.384,-212.409 756,-188 779.651,-163.555 785.201,-139.365 765,-112 740.802,-79.2208 693.077,-69.577 658.772,-67.1065"/>
<polygon fill="midnightblue" stroke="midnightblue" points="658.772,-63.6014 648.597,-66.5524 658.392,-70.5911 658.772,-63.6014"/>
</g>
<!-- Node13 -->
<g id="node13" class="node"><title>Node13</title>
<g id="a_node13"><a xlink:href="exceptions_8hpp.html" target="_top" xlink:title="exceptions.hpp">
<polygon fill="none" stroke="black" points="483.5,-112.5 483.5,-131.5 566.5,-131.5 566.5,-112.5 483.5,-112.5"/>
<text text-anchor="middle" x="525" y="-119.5" font-family="Helvetica,sans-Serif" font-size="10.00">exceptions.hpp</text>
</a>
</g>
</g>
<!-- Node1&#45;&gt;Node13 -->
<g id="edge32" class="edge"><title>Node1&#45;&gt;Node13</title>
<path fill="none" stroke="midnightblue" d="M525,-224.368C525,-206.617 525,-165.666 525,-141.597"/>
<polygon fill="midnightblue" stroke="midnightblue" points="528.5,-141.591 525,-131.591 521.5,-141.591 528.5,-141.591"/>
</g>
<!-- Node15 -->
<g id="node15" class="node"><title>Node15</title>
<polygon fill="none" stroke="#bfbfbf" points="320,-112.5 320,-131.5 364,-131.5 364,-112.5 320,-112.5"/>
<text text-anchor="middle" x="342" y="-119.5" font-family="Helvetica,sans-Serif" font-size="10.00">vector</text>
</g>
<!-- Node1&#45;&gt;Node15 -->
<g id="edge37" class="edge"><title>Node1&#45;&gt;Node15</title>
<path fill="none" stroke="midnightblue" d="M510.64,-224.368C479.104,-205.412 403.556,-160.001 365.195,-136.942"/>
<polygon fill="midnightblue" stroke="midnightblue" points="366.667,-133.744 356.293,-131.591 363.061,-139.743 366.667,-133.744"/>
</g>
<!-- Node17 -->
<g id="node17" class="node"><title>Node17</title>
<g id="a_node17"><a xlink:href="constraint_8hpp.html" target="_top" xlink:title="constraint.hpp">
<polygon fill="none" stroke="black" points="835,-168.5 835,-187.5 913,-187.5 913,-168.5 835,-168.5"/>
<text text-anchor="middle" x="874" y="-175.5" font-family="Helvetica,sans-Serif" font-size="10.00">constraint.hpp</text>
</a>
</g>
</g>
<!-- Node1&#45;&gt;Node17 -->
<g id="edge18" class="edge"><title>Node1&#45;&gt;Node17</title>
<path fill="none" stroke="midnightblue" d="M581.515,-224.706C641.115,-215.889 737.735,-201.398 821,-188 822.27,-187.796 823.557,-187.587 824.855,-187.376"/>
<polygon fill="midnightblue" stroke="midnightblue" points="825.641,-190.793 834.938,-185.712 824.502,-183.887 825.641,-190.793"/>
</g>
<!-- Node18 -->
<g id="node18" class="node"><title>Node18</title>
<g id="a_node18"><a xlink:href="format_8hpp.html" target="_top" xlink:title="format.hpp">
<polygon fill="none" stroke="black" points="563.5,-168.5 563.5,-187.5 626.5,-187.5 626.5,-168.5 563.5,-168.5"/>
<text text-anchor="middle" x="595" y="-175.5" font-family="Helvetica,sans-Serif" font-size="10.00">format.hpp</text>
</a>
</g>
</g>
<!-- Node1&#45;&gt;Node18 -->
<g id="edge19" class="edge"><title>Node1&#45;&gt;Node18</title>
<path fill="none" stroke="midnightblue" d="M536.247,-224.324C546.797,-216.185 562.801,-203.839 575.442,-194.087"/>
<polygon fill="midnightblue" stroke="midnightblue" points="577.769,-196.713 583.549,-187.834 573.493,-191.171 577.769,-196.713"/>
</g>
<!-- Node21 -->
<g id="node21" class="node"><title>Node21</title>
<g id="a_node21"><a xlink:href="string__format_8hpp.html" target="_top" xlink:title="string_format.hpp">
<polygon fill="none" stroke="black" points="655,-168.5 655,-187.5 747,-187.5 747,-168.5 655,-168.5"/>
<text text-anchor="middle" x="701" y="-175.5" font-family="Helvetica,sans-Serif" font-size="10.00">string_format.hpp</text>
</a>
</g>
</g>
<!-- Node1&#45;&gt;Node21 -->
<g id="edge27" class="edge"><title>Node1&#45;&gt;Node21</title>
<path fill="none" stroke="midnightblue" d="M552.888,-224.444C582.754,-215.28 630.315,-200.688 663.456,-190.519"/>
<polygon fill="midnightblue" stroke="midnightblue" points="664.709,-193.796 673.243,-187.516 662.656,-187.104 664.709,-193.796"/>
</g>
<!-- Node22 -->
<g id="node22" class="node"><title>Node22</title>
<polygon fill="none" stroke="#bfbfbf" points="931.5,-168.5 931.5,-187.5 996.5,-187.5 996.5,-168.5 931.5,-168.5"/>
<text text-anchor="middle" x="964" y="-175.5" font-family="Helvetica,sans-Serif" font-size="10.00">QDomText</text>
</g>
<!-- Node1&#45;&gt;Node22 -->
<g id="edge36" class="edge"><title>Node1&#45;&gt;Node22</title>
<path fill="none" stroke="midnightblue" d="M581.78,-228.331C657.091,-221.746 794.323,-208.389 921.153,-187.991"/>
<polygon fill="midnightblue" stroke="midnightblue" points="921.735,-191.442 931.043,-186.382 920.611,-184.533 921.735,-191.442"/>
</g>
<!-- Node2&#45;&gt;Node3 -->
<g id="edge2" class="edge"><title>Node2&#45;&gt;Node3</title>
<path fill="none" stroke="midnightblue" d="M292.382,-172.113C248.62,-163.425 156.385,-145.113 97.7351,-133.469"/>
<polygon fill="midnightblue" stroke="midnightblue" points="98.3994,-130.033 87.9093,-131.519 97.0363,-136.899 98.3994,-130.033"/>
</g>
<!-- Node2&#45;&gt;Node4 -->
<g id="edge3" class="edge"><title>Node2&#45;&gt;Node4</title>
<path fill="none" stroke="midnightblue" d="M292.211,-169.032C263.922,-159.939 217.403,-144.987 185.092,-134.601"/>
<polygon fill="midnightblue" stroke="midnightblue" points="186.148,-131.264 175.556,-131.536 184.006,-137.928 186.148,-131.264"/>
</g>
<!-- Node2&#45;&gt;Node5 -->
<g id="edge4" class="edge"><title>Node2&#45;&gt;Node5</title>
<path fill="none" stroke="midnightblue" d="M334.191,-168.324C351.351,-159.664 377.946,-146.242 397.747,-136.249"/>
<polygon fill="midnightblue" stroke="midnightblue" points="399.501,-139.285 406.851,-131.655 396.347,-133.035 399.501,-139.285"/>
</g>
<!-- Node2&#45;&gt;Node6 -->
<g id="edge12" class="edge"><title>Node2&#45;&gt;Node6</title>
<path fill="none" stroke="midnightblue" d="M312.601,-168.206C306.415,-154.44 297.338,-127.753 311,-112 348.064,-69.2651 507.072,-84.4884 563,-76 568.221,-75.2076 573.711,-74.3523 579.13,-73.4952"/>
<polygon fill="midnightblue" stroke="midnightblue" points="580.048,-76.8931 589.371,-71.8608 578.944,-69.9806 580.048,-76.8931"/>
</g>
<!-- Node2&#45;&gt;Node13 -->
<g id="edge13" class="edge"><title>Node2&#45;&gt;Node13</title>
<path fill="none" stroke="midnightblue" d="M341.677,-170.593C376.346,-161.593 439.971,-145.075 482.384,-134.064"/>
<polygon fill="midnightblue" stroke="midnightblue" points="483.35,-137.429 492.149,-131.529 481.591,-130.654 483.35,-137.429"/>
</g>
<!-- Node2&#45;&gt;Node15 -->
<g id="edge16" class="edge"><title>Node2&#45;&gt;Node15</title>
<path fill="none" stroke="midnightblue" d="M321.128,-168.083C324.514,-160.77 329.416,-150.181 333.619,-141.103"/>
<polygon fill="midnightblue" stroke="midnightblue" points="336.923,-142.296 337.949,-131.751 330.571,-139.355 336.923,-142.296"/>
</g>
<!-- Node16 -->
<g id="node16" class="node"><title>Node16</title>
<polygon fill="none" stroke="#bfbfbf" points="208,-112.5 208,-131.5 264,-131.5 264,-112.5 208,-112.5"/>
<text text-anchor="middle" x="236" y="-119.5" font-family="Helvetica,sans-Serif" font-size="10.00">algorithm</text>
</g>
<!-- Node2&#45;&gt;Node16 -->
<g id="edge17" class="edge"><title>Node2&#45;&gt;Node16</title>
<path fill="none" stroke="midnightblue" d="M303.986,-168.324C291.468,-159.979 272.318,-147.212 257.529,-137.352"/>
<polygon fill="midnightblue" stroke="midnightblue" points="259.244,-134.289 248.982,-131.655 255.361,-140.114 259.244,-134.289"/>
</g>
<!-- Node5&#45;&gt;Node6 -->
<g id="edge5" class="edge"><title>Node5&#45;&gt;Node6</title>
<path fill="none" stroke="midnightblue" d="M454.898,-112.444C488.568,-103.12 542.536,-88.1746 579.318,-77.9889"/>
<polygon fill="midnightblue" stroke="midnightblue" points="580.502,-81.2927 589.205,-75.2508 578.634,-74.5466 580.502,-81.2927"/>
</g>
<!-- Node7 -->
<g id="node7" class="node"><title>Node7</title>
<polygon fill="none" stroke="#bfbfbf" points="598.5,-0.5 598.5,-19.5 639.5,-19.5 639.5,-0.5 598.5,-0.5"/>
<text text-anchor="middle" x="619" y="-7.5" font-family="Helvetica,sans-Serif" font-size="10.00">string</text>
</g>
<!-- Node6&#45;&gt;Node7 -->
<g id="edge6" class="edge"><title>Node6&#45;&gt;Node7</title>
<path fill="none" stroke="midnightblue" d="M619,-56.083C619,-49.0059 619,-38.8611 619,-29.9865"/>
<polygon fill="midnightblue" stroke="midnightblue" points="622.5,-29.751 619,-19.7511 615.5,-29.7511 622.5,-29.751"/>
</g>
<!-- Node8 -->
<g id="node8" class="node"><title>Node8</title>
<polygon fill="none" stroke="#bfbfbf" points="658,-0.5 658,-19.5 712,-19.5 712,-0.5 658,-0.5"/>
<text text-anchor="middle" x="685" y="-7.5" font-family="Helvetica,sans-Serif" font-size="10.00">iostream</text>
</g>
<!-- Node6&#45;&gt;Node8 -->
<g id="edge7" class="edge"><title>Node6&#45;&gt;Node8</title>
<path fill="none" stroke="midnightblue" d="M629.604,-56.324C639.456,-48.2631 654.351,-36.0765 666.215,-26.3695"/>
<polygon fill="midnightblue" stroke="midnightblue" points="668.68,-28.8752 674.203,-19.8339 664.247,-23.4575 668.68,-28.8752"/>
</g>
<!-- Node9 -->
<g id="node9" class="node"><title>Node9</title>
<polygon fill="none" stroke="#bfbfbf" points="730.5,-0.5 730.5,-19.5 783.5,-19.5 783.5,-0.5 730.5,-0.5"/>
<text text-anchor="middle" x="757" y="-7.5" font-family="Helvetica,sans-Serif" font-size="10.00">cwctype</text>
</g>
<!-- Node6&#45;&gt;Node9 -->
<g id="edge8" class="edge"><title>Node6&#45;&gt;Node9</title>
<path fill="none" stroke="midnightblue" d="M640.867,-56.4435C663.779,-47.4776 699.975,-33.314 725.866,-23.1827"/>
<polygon fill="midnightblue" stroke="midnightblue" points="727.199,-26.4198 735.236,-19.5164 724.648,-19.9011 727.199,-26.4198"/>
</g>
<!-- Node10 -->
<g id="node10" class="node"><title>Node10</title>
<polygon fill="none" stroke="#bfbfbf" points="441,-0.5 441,-19.5 487,-19.5 487,-0.5 441,-0.5"/>
<text text-anchor="middle" x="464" y="-7.5" font-family="Helvetica,sans-Serif" font-size="10.00">cctype</text>
</g>
<!-- Node6&#45;&gt;Node10 -->
<g id="edge9" class="edge"><title>Node6&#45;&gt;Node10</title>
<path fill="none" stroke="midnightblue" d="M594.44,-56.4435C568.172,-47.2922 526.362,-32.726 497.18,-22.5594"/>
<polygon fill="midnightblue" stroke="midnightblue" points="498.026,-19.1478 487.431,-19.1629 495.723,-25.7581 498.026,-19.1478"/>
</g>
<!-- Node11 -->
<g id="node11" class="node"><title>Node11</title>
<polygon fill="none" stroke="#bfbfbf" points="811,-0.5 811,-19.5 861,-19.5 861,-0.5 811,-0.5"/>
<text text-anchor="middle" x="836" y="-7.5" font-family="Helvetica,sans-Serif" font-size="10.00">QString</text>
</g>
<!-- Node6&#45;&gt;Node11 -->
<g id="edge10" class="edge"><title>Node6&#45;&gt;Node11</title>
<path fill="none" stroke="midnightblue" d="M648.718,-57.6048C688.395,-47.7313 758.566,-30.2692 800.832,-19.7516"/>
<polygon fill="midnightblue" stroke="midnightblue" points="801.825,-23.1111 810.684,-17.2998 800.135,-16.3182 801.825,-23.1111"/>
</g>
<!-- Node12 -->
<g id="node12" class="node"><title>Node12</title>
<polygon fill="none" stroke="#bfbfbf" points="505.5,-0.5 505.5,-19.5 580.5,-19.5 580.5,-0.5 505.5,-0.5"/>
<text text-anchor="middle" x="543" y="-7.5" font-family="Helvetica,sans-Serif" font-size="10.00">QTextStream</text>
</g>
<!-- Node6&#45;&gt;Node12 -->
<g id="edge11" class="edge"><title>Node6&#45;&gt;Node12</title>
<path fill="none" stroke="midnightblue" d="M606.789,-56.324C595.224,-48.1066 577.625,-35.6017 563.839,-25.8069"/>
<polygon fill="midnightblue" stroke="midnightblue" points="565.612,-22.7729 555.433,-19.8339 561.557,-28.4791 565.612,-22.7729"/>
</g>
<!-- Node13&#45;&gt;Node6 -->
<g id="edge15" class="edge"><title>Node13&#45;&gt;Node6</title>
<path fill="none" stroke="midnightblue" d="M540.103,-112.324C554.903,-103.822 577.694,-90.7288 594.982,-80.7975"/>
<polygon fill="midnightblue" stroke="midnightblue" points="597.007,-83.6707 603.935,-75.6545 593.52,-77.6009 597.007,-83.6707"/>
</g>
<!-- Node14 -->
<g id="node14" class="node"><title>Node14</title>
<polygon fill="none" stroke="#bfbfbf" points="495.5,-56.5 495.5,-75.5 554.5,-75.5 554.5,-56.5 495.5,-56.5"/>
<text text-anchor="middle" x="525" y="-63.5" font-family="Helvetica,sans-Serif" font-size="10.00">stdexcept</text>
</g>
<!-- Node13&#45;&gt;Node14 -->
<g id="edge14" class="edge"><title>Node13&#45;&gt;Node14</title>
<path fill="none" stroke="midnightblue" d="M525,-112.083C525,-105.006 525,-94.8611 525,-85.9865"/>
<polygon fill="midnightblue" stroke="midnightblue" points="528.5,-85.751 525,-75.7511 521.5,-85.7511 528.5,-85.751"/>
</g>
<!-- Node18&#45;&gt;Node5 -->
<g id="edge20" class="edge"><title>Node18&#45;&gt;Node5</title>
<path fill="none" stroke="midnightblue" d="M567.905,-168.444C539.012,-159.32 493.075,-144.813 460.895,-134.651"/>
<polygon fill="midnightblue" stroke="midnightblue" points="461.559,-131.19 450.969,-131.516 459.451,-137.865 461.559,-131.19"/>
</g>
<!-- Node18&#45;&gt;Node6 -->
<g id="edge24" class="edge"><title>Node18&#45;&gt;Node6</title>
<path fill="none" stroke="midnightblue" d="M596.883,-168.368C600.756,-150.617 609.691,-109.666 614.942,-85.5974"/>
<polygon fill="midnightblue" stroke="midnightblue" points="618.413,-86.1077 617.126,-75.5914 611.574,-84.6155 618.413,-86.1077"/>
</g>
<!-- Node18&#45;&gt;Node11 -->
<g id="edge26" class="edge"><title>Node18&#45;&gt;Node11</title>
<path fill="none" stroke="midnightblue" d="M626.743,-170.378C666.033,-161.744 730.184,-146.079 750,-132 788.208,-104.854 815.531,-55.2136 828.152,-28.7376"/>
<polygon fill="midnightblue" stroke="midnightblue" points="831.391,-30.0727 832.393,-19.5253 825.032,-27.1459 831.391,-30.0727"/>
</g>
<!-- Node18&#45;&gt;Node13 -->
<g id="edge21" class="edge"><title>Node18&#45;&gt;Node13</title>
<path fill="none" stroke="midnightblue" d="M583.753,-168.324C573.203,-160.185 557.199,-147.839 544.558,-138.087"/>
<polygon fill="midnightblue" stroke="midnightblue" points="546.507,-135.171 536.451,-131.834 542.231,-140.713 546.507,-135.171"/>
</g>
<!-- Node19 -->
<g id="node19" class="node"><title>Node19</title>
<g id="a_node19"><a xlink:href="const_8hpp.html" target="_top" xlink:title="const.hpp">
<polygon fill="none" stroke="black" points="681.5,-112.5 681.5,-131.5 740.5,-131.5 740.5,-112.5 681.5,-112.5"/>
<text text-anchor="middle" x="711" y="-119.5" font-family="Helvetica,sans-Serif" font-size="10.00">const.hpp</text>
</a>
</g>
</g>
<!-- Node18&#45;&gt;Node19 -->
<g id="edge22" class="edge"><title>Node18&#45;&gt;Node19</title>
<path fill="none" stroke="midnightblue" d="M613.381,-168.444C632.216,-159.675 661.731,-145.935 683.379,-135.858"/>
<polygon fill="midnightblue" stroke="midnightblue" points="685.117,-138.91 692.705,-131.516 682.162,-132.564 685.117,-138.91"/>
</g>
<!-- Node20 -->
<g id="node20" class="node"><title>Node20</title>
<polygon fill="none" stroke="#bfbfbf" points="623,-112.5 623,-131.5 663,-131.5 663,-112.5 623,-112.5"/>
<text text-anchor="middle" x="643" y="-119.5" font-family="Helvetica,sans-Serif" font-size="10.00">limits</text>
</g>
<!-- Node18&#45;&gt;Node20 -->
<g id="edge25" class="edge"><title>Node18&#45;&gt;Node20</title>
<path fill="none" stroke="midnightblue" d="M602.926,-168.083C609.846,-160.298 620.065,-148.801 628.452,-139.367"/>
<polygon fill="midnightblue" stroke="midnightblue" points="631.194,-141.55 635.221,-131.751 625.962,-136.9 631.194,-141.55"/>
</g>
<!-- Node19&#45;&gt;Node6 -->
<g id="edge23" class="edge"><title>Node19&#45;&gt;Node6</title>
<path fill="none" stroke="midnightblue" d="M696.219,-112.324C681.733,-103.822 659.427,-90.7288 642.507,-80.7975"/>
<polygon fill="midnightblue" stroke="midnightblue" points="644.141,-77.6981 633.745,-75.6545 640.597,-83.735 644.141,-77.6981"/>
</g>
<!-- Node21&#45;&gt;Node6 -->
<g id="edge28" class="edge"><title>Node21&#45;&gt;Node6</title>
<path fill="none" stroke="midnightblue" d="M715.621,-168.484C734.885,-156.164 764.697,-132.589 750,-112 729.503,-83.2868 689.478,-72.7044 659.038,-68.9022"/>
<polygon fill="midnightblue" stroke="midnightblue" points="659.028,-65.3821 648.718,-67.8214 658.299,-72.3441 659.028,-65.3821"/>
</g>
<!-- Node21&#45;&gt;Node13 -->
<g id="edge30" class="edge"><title>Node21&#45;&gt;Node13</title>
<path fill="none" stroke="midnightblue" d="M673.112,-168.444C643.246,-159.28 595.685,-144.688 562.544,-134.519"/>
<polygon fill="midnightblue" stroke="midnightblue" points="563.344,-131.104 552.757,-131.516 561.291,-137.796 563.344,-131.104"/>
</g>
<!-- Node21&#45;&gt;Node19 -->
<g id="edge29" class="edge"><title>Node21&#45;&gt;Node19</title>
<path fill="none" stroke="midnightblue" d="M702.651,-168.083C703.976,-160.927 705.882,-150.635 707.539,-141.691"/>
<polygon fill="midnightblue" stroke="midnightblue" points="711,-142.221 709.379,-131.751 704.117,-140.947 711,-142.221"/>
</g>
</g>
</svg>
        <g id="navigator" transform="translate(0 0)" fill="#404254">
                <rect fill="#f2f5e9" fill-opacity="0.5" stroke="#606060" stroke-width=".5" x="0" y="0" width="60" height="60"/>
                <use id="zoomplus" xlink:href="#zoomPlus" x="17" y="9" onmousedown="handleZoom(evt,'in')"/>
                <use id="zoomminus" xlink:href="#zoomMin" x="42" y="9" onmousedown="handleZoom(evt,'out')"/>
                <use id="reset" xlink:href="#resetDef" x="30" y="36" onmousedown="handleReset()"/>
                <g id="arrowUp" xlink:href="#dirArrow" transform="translate(30 24)" onmousedown="handlePan(0,-1)">
                  <use xlink:href="#rim" fill="#404040">
                        <set attributeName="fill" to="#808080" begin="arrowUp.mouseover" end="arrowUp.mouseout"/>
                  </use>
                  <path fill="none" stroke="white" stroke-width="1.5" d="M0,-3.0v7 M-2.5,-0.5L0,-3.0L2.5,-0.5"/>
                </g>
                <g id="arrowRight" xlink:href="#dirArrow" transform="rotate(90) translate(36 -43)" onmousedown="handlePan(1,0)">
                  <use xlink:href="#rim" fill="#404040">
                        <set attributeName="fill" to="#808080" begin="arrowRight.mouseover" end="arrowRight.mouseout"/>
                  </use>
                  <path fill="none" stroke="white" stroke-width="1.5" d="M0,-3.0v7 M-2.5,-0.5L0,-3.0L2.5,-0.5"/>
                </g>
                <g id="arrowDown" xlink:href="#dirArrow" transform="rotate(180) translate(-30 -48)" onmousedown="handlePan(0,1)">
                  <use xlink:href="#rim" fill="#404040">
                        <set attributeName="fill" to="#808080" begin="arrowDown.mouseover" end="arrowDown.mouseout"/>
                  </use>
                  <path fill="none" stroke="white" stroke-width="1.5" d="M0,-3.0v7 M-2.5,-0.5L0,-3.0L2.5,-0.5"/>
                </g>
                <g id="arrowLeft" xlink:href="#dirArrow" transform="rotate(270) translate(-36 17)" onmousedown="handlePan(-1,0)">
                  <use xlink:href="#rim" fill="#404040">
                        <set attributeName="fill" to="#808080" begin="arrowLeft.mouseover" end="arrowLeft.mouseout"/>
                  </use>
                  <path fill="none" stroke="white" stroke-width="1.5" d="M0,-3.0v7 M-2.5,-0.5L0,-3.0L2.5,-0.5"/>
                </g>
        </g>
        <svg viewBox="0 0 15 15" width="100%" height="30px" preserveAspectRatio="xMaxYMin meet">
         <g id="arrow_out" transform="scale(0.3 0.3)">
          <a xlink:href="tag__scalar__vector_8hpp__incl_org.svg" target="_base">
           <rect id="button" ry="5" rx="5" y="6" x="6" height="38" width="38"
                fill="#f2f5e9" fill-opacity="0.5" stroke="#606060" stroke-width="1.0"/>
           <path id="arrow"
             d="M 11.500037,31.436501 C 11.940474,20.09759 22.043105,11.32322 32.158766,21.979434 L 37.068811,17.246167 C 37.068811,17.246167 37.088388,32 37.088388,32 L 22.160133,31.978069 C 22.160133,31.978069 26.997745,27.140456 26.997745,27.140456 C 18.528582,18.264221 13.291696,25.230495 11.500037,31.436501 z"
             style="fill:#404040;"/>
          </a>
         </g>
        </svg>
</svg>
