<?xml version="1.0" encoding="UTF-8" standalone="no"?>
<!DOCTYPE svg PUBLIC "-//W3C//DTD SVG 1.1//EN"
 "http://www.w3.org/Graphics/SVG/1.1/DTD/svg11.dtd">
<!-- Generated by graphviz version 2.38.0 (20140413.2041)
 -->
<!-- Title: tag_vector_of_tags.hpp Pages: 1 -->
<!--zoomable 252 -->
<svg id="main" version="1.1" xmlns="http://www.w3.org/2000/svg" xmlns:xlink="http://www.w3.org/1999/xlink" xml:space="preserve" onload="init(evt)">
<style type="text/css"><![CDATA[
.edge:hover path { stroke: red; }
.edge:hover polygon { stroke: red; fill: red; }
]]></style>
<script type="text/javascript"><![CDATA[
var edges = document.getElementsByTagName('g');
if (edges && edges.length) {
  for (var i=0;i<edges.length;i++) {
    if (edges[i].id.substr(0,4)=='edge') {
      edges[i].setAttribute('class','edge');
    }
  }
}
]]></script>
        <defs>
                <circle id="rim" cx="0" cy="0" r="7"/>
                <circle id="rim2" cx="0" cy="0" r="3.5"/>
                <g id="zoomPlus">
                        <use xlink:href="#rim" fill="#404040">
                                <set attributeName="fill" to="#808080" begin="zoomplus.mouseover" end="zoomplus.mouseout"/>
                        </use>
                        <path d="M-4,0h8M0,-4v8" fill="none" stroke="white" stroke-width="1.5" pointer-events="none"/>
                </g>
                <g id="zoomMin">
                        <use xlink:href="#rim" fill="#404040">
                                <set attributeName="fill" to="#808080" begin="zoomminus.mouseover" end="zoomminus.mouseout"/>
                        </use>
                        <path d="M-4,0h8" fill="none" stroke="white" stroke-width="1.5" pointer-events="none"/>
                </g>
                <g id="dirArrow">
                        <path fill="none" stroke="white" stroke-width="1.5" d="M0,-3.0v7 M-2.5,-0.5L0,-3.0L2.5,-0.5"/>
                </g>
               <g id="resetDef">
                       <use xlink:href="#rim2" fill="#404040">
                               <set attributeName="fill" to="#808080" begin="reset.mouseover" end="reset.mouseout"/>
                       </use>
               </g>
        </defs>

<script type="text/javascript">
var viewWidth = 589;
var viewHeight = 252;
var sectionId = 'dynsection-0';
</script>
<script xlink:href="svgpan.js"/>
<svg id="graph" class="graph">
<g id="viewport">
<title>tag_vector_of_tags.hpp</title>
<!-- Node1 -->
<g id="node1" class="node"><title>Node1</title>
<polygon fill="#bfbfbf" stroke="black" points="395.704,-224.5 395.704,-243.5 514.704,-243.5 514.704,-224.5 395.704,-224.5"/>
<text text-anchor="middle" x="455.204" y="-231.5" font-family="Helvetica,sans-Serif" font-size="10.00">tag_vector_of_tags.hpp</text>
</g>
<!-- Node2 -->
<g id="node2" class="node"><title>Node2</title>
<g id="a_node2"><a xlink:href="tag_8hpp.html" target="_top" xlink:title="tag.hpp">
<polygon fill="none" stroke="black" points="334.704,-168.5 334.704,-187.5 383.704,-187.5 383.704,-168.5 334.704,-168.5"/>
<text text-anchor="middle" x="359.204" y="-175.5" font-family="Helvetica,sans-Serif" font-size="10.00">tag.hpp</text>
</a>
</g>
</g>
<!-- Node1&#45;&gt;Node2 -->
<g id="edge1" class="edge"><title>Node1&#45;&gt;Node2</title>
<path fill="none" stroke="midnightblue" d="M439.78,-224.324C424.664,-215.822 401.388,-202.729 383.733,-192.797"/>
<polygon fill="midnightblue" stroke="midnightblue" points="385.021,-189.507 374.59,-187.655 381.589,-195.608 385.021,-189.507"/>
</g>
<!-- Node6 -->
<g id="node6" class="node"><title>Node6</title>
<g id="a_node6"><a xlink:href="types_8hpp.html" target="_top" xlink:title="types.hpp">
<polygon fill="none" stroke="black" points="197.704,-56.5 197.704,-75.5 256.704,-75.5 256.704,-56.5 197.704,-56.5"/>
<text text-anchor="middle" x="227.204" y="-63.5" font-family="Helvetica,sans-Serif" font-size="10.00">types.hpp</text>
</a>
</g>
</g>
<!-- Node1&#45;&gt;Node6 -->
<g id="edge19" class="edge"><title>Node1&#45;&gt;Node6</title>
<path fill="none" stroke="midnightblue" d="M395.5,-228.641C284.363,-219.153 52.6041,-192.438 4.20385,-132 -1.35248,-125.062 -1.42568,-118.879 4.20385,-112 26.8686,-84.3047 129.193,-73.27 187.039,-69.1865"/>
<polygon fill="midnightblue" stroke="midnightblue" points="187.548,-72.6603 197.293,-68.5024 187.082,-65.6759 187.548,-72.6603"/>
</g>
<!-- Node13 -->
<g id="node13" class="node"><title>Node13</title>
<g id="a_node13"><a xlink:href="exceptions_8hpp.html" target="_top" xlink:title="exceptions.hpp">
<polygon fill="none" stroke="black" points="435.704,-112.5 435.704,-131.5 518.704,-131.5 518.704,-112.5 435.704,-112.5"/>
<text text-anchor="middle" x="477.204" y="-119.5" font-family="Helvetica,sans-Serif" font-size="10.00">exceptions.hpp</text>
</a>
</g>
</g>
<!-- Node1&#45;&gt;Node13 -->
<g id="edge18" class="edge"><title>Node1&#45;&gt;Node13</title>
<path fill="none" stroke="midnightblue" d="M456.93,-224.368C460.48,-206.617 468.671,-165.666 473.484,-141.597"/>
<polygon fill="midnightblue" stroke="midnightblue" points="476.956,-142.084 475.486,-131.591 470.092,-140.711 476.956,-142.084"/>
</g>
<!-- Node15 -->
<g id="node15" class="node"><title>Node15</title>
<polygon fill="none" stroke="#bfbfbf" points="537.204,-112.5 537.204,-131.5 581.204,-131.5 581.204,-112.5 537.204,-112.5"/>
<text text-anchor="middle" x="559.204" y="-119.5" font-family="Helvetica,sans-Serif" font-size="10.00">vector</text>
</g>
<!-- Node1&#45;&gt;Node15 -->
<g id="edge20" class="edge"><title>Node1&#45;&gt;Node15</title>
<path fill="none" stroke="midnightblue" d="M462.353,-224.375C472.932,-211.723 493.523,-187.517 512.204,-168 521.87,-157.901 533.174,-147.05 542.273,-138.535"/>
<polygon fill="midnightblue" stroke="midnightblue" points="544.657,-141.098 549.605,-131.73 539.895,-135.967 544.657,-141.098"/>
</g>
<!-- Node17 -->
<g id="node17" class="node"><title>Node17</title>
<polygon fill="none" stroke="#bfbfbf" points="521.204,-168.5 521.204,-187.5 573.204,-187.5 573.204,-168.5 521.204,-168.5"/>
<text text-anchor="middle" x="547.204" y="-175.5" font-family="Helvetica,sans-Serif" font-size="10.00">memory</text>
</g>
<!-- Node1&#45;&gt;Node17 -->
<g id="edge21" class="edge"><title>Node1&#45;&gt;Node17</title>
<path fill="none" stroke="midnightblue" d="M469.985,-224.324C484.471,-215.822 506.777,-202.729 523.697,-192.797"/>
<polygon fill="midnightblue" stroke="midnightblue" points="525.607,-195.735 532.459,-187.655 522.063,-189.698 525.607,-195.735"/>
</g>
<!-- Node3 -->
<g id="node3" class="node"><title>Node3</title>
<polygon fill="none" stroke="#bfbfbf" points="189.204,-112.5 189.204,-131.5 279.204,-131.5 279.204,-112.5 189.204,-112.5"/>
<text text-anchor="middle" x="234.204" y="-119.5" font-family="Helvetica,sans-Serif" font-size="10.00">QDomDocument</text>
</g>
<!-- Node2&#45;&gt;Node3 -->
<g id="edge2" class="edge"><title>Node2&#45;&gt;Node3</title>
<path fill="none" stroke="midnightblue" d="M339.397,-168.444C318.917,-159.596 286.721,-145.687 263.339,-135.586"/>
<polygon fill="midnightblue" stroke="midnightblue" points="264.486,-132.269 253.918,-131.516 261.71,-138.695 264.486,-132.269"/>
</g>
<!-- Node4 -->
<g id="node4" class="node"><title>Node4</title>
<polygon fill="none" stroke="#bfbfbf" points="297.704,-112.5 297.704,-131.5 378.704,-131.5 378.704,-112.5 297.704,-112.5"/>
<text text-anchor="middle" x="338.204" y="-119.5" font-family="Helvetica,sans-Serif" font-size="10.00">QDomElement</text>
</g>
<!-- Node2&#45;&gt;Node4 -->
<g id="edge3" class="edge"><title>Node2&#45;&gt;Node4</title>
<path fill="none" stroke="midnightblue" d="M355.736,-168.083C352.892,-160.77 348.774,-150.181 345.244,-141.103"/>
<polygon fill="midnightblue" stroke="midnightblue" points="348.494,-139.803 341.607,-131.751 341.97,-142.34 348.494,-139.803"/>
</g>
<!-- Node5 -->
<g id="node5" class="node"><title>Node5</title>
<g id="a_node5"><a xlink:href="parser__info_8hpp.html" target="_top" xlink:title="parser_info.hpp">
<polygon fill="none" stroke="black" points="13.7038,-112.5 13.7038,-131.5 96.7038,-131.5 96.7038,-112.5 13.7038,-112.5"/>
<text text-anchor="middle" x="55.2038" y="-119.5" font-family="Helvetica,sans-Serif" font-size="10.00">parser_info.hpp</text>
</a>
</g>
</g>
<!-- Node2&#45;&gt;Node5 -->
<g id="edge4" class="edge"><title>Node2&#45;&gt;Node5</title>
<path fill="none" stroke="midnightblue" d="M334.584,-172.627C285.208,-163.856 173.164,-143.953 106.945,-132.191"/>
<polygon fill="midnightblue" stroke="midnightblue" points="107.185,-128.679 96.7271,-130.376 105.961,-135.571 107.185,-128.679"/>
</g>
<!-- Node2&#45;&gt;Node6 -->
<g id="edge12" class="edge"><title>Node2&#45;&gt;Node6</title>
<path fill="none" stroke="midnightblue" d="M368.255,-168.315C380.859,-155.158 400.707,-129.825 387.204,-112 372.717,-92.8761 309.54,-79.6095 267.041,-72.6599"/>
<polygon fill="midnightblue" stroke="midnightblue" points="267.413,-69.1754 256.989,-71.07 266.32,-76.0894 267.413,-69.1754"/>
</g>
<!-- Node2&#45;&gt;Node13 -->
<g id="edge13" class="edge"><title>Node2&#45;&gt;Node13</title>
<path fill="none" stroke="midnightblue" d="M377.901,-168.444C397.148,-159.636 427.356,-145.812 449.404,-135.722"/>
<polygon fill="midnightblue" stroke="midnightblue" points="450.957,-138.86 458.594,-131.516 448.044,-132.495 450.957,-138.86"/>
</g>
<!-- Node2&#45;&gt;Node15 -->
<g id="edge16" class="edge"><title>Node2&#45;&gt;Node15</title>
<path fill="none" stroke="midnightblue" d="M383.88,-170.614C415.034,-162.511 470.514,-147.95 527.051,-132.279"/>
<polygon fill="midnightblue" stroke="midnightblue" points="528.173,-135.6 536.87,-129.549 526.298,-128.855 528.173,-135.6"/>
</g>
<!-- Node16 -->
<g id="node16" class="node"><title>Node16</title>
<polygon fill="none" stroke="#bfbfbf" points="115.204,-112.5 115.204,-131.5 171.204,-131.5 171.204,-112.5 115.204,-112.5"/>
<text text-anchor="middle" x="143.204" y="-119.5" font-family="Helvetica,sans-Serif" font-size="10.00">algorithm</text>
</g>
<!-- Node2&#45;&gt;Node16 -->
<g id="edge17" class="edge"><title>Node2&#45;&gt;Node16</title>
<path fill="none" stroke="midnightblue" d="M334.426,-170.806C296.902,-161.425 225.369,-143.541 181.227,-132.506"/>
<polygon fill="midnightblue" stroke="midnightblue" points="181.989,-129.089 171.439,-130.059 180.291,-135.88 181.989,-129.089"/>
</g>
<!-- Node5&#45;&gt;Node6 -->
<g id="edge5" class="edge"><title>Node5&#45;&gt;Node6</title>
<path fill="none" stroke="midnightblue" d="M82.4578,-112.444C111.645,-103.28 158.125,-88.6876 190.513,-78.5192"/>
<polygon fill="midnightblue" stroke="midnightblue" points="191.585,-81.8512 200.077,-75.5164 189.488,-75.1726 191.585,-81.8512"/>
</g>
<!-- Node7 -->
<g id="node7" class="node"><title>Node7</title>
<polygon fill="none" stroke="#bfbfbf" points="34.7038,-0.5 34.7038,-19.5 75.7038,-19.5 75.7038,-0.5 34.7038,-0.5"/>
<text text-anchor="middle" x="55.2038" y="-7.5" font-family="Helvetica,sans-Serif" font-size="10.00">string</text>
</g>
<!-- Node6&#45;&gt;Node7 -->
<g id="edge6" class="edge"><title>Node6&#45;&gt;Node7</title>
<path fill="none" stroke="midnightblue" d="M199.95,-56.4435C168.837,-46.6756 118.075,-30.7385 85.6773,-20.5673"/>
<polygon fill="midnightblue" stroke="midnightblue" points="86.4415,-17.1388 75.8522,-17.4826 84.3447,-23.8174 86.4415,-17.1388"/>
</g>
<!-- Node8 -->
<g id="node8" class="node"><title>Node8</title>
<polygon fill="none" stroke="#bfbfbf" points="94.2038,-0.5 94.2038,-19.5 148.204,-19.5 148.204,-0.5 94.2038,-0.5"/>
<text text-anchor="middle" x="121.204" y="-7.5" font-family="Helvetica,sans-Serif" font-size="10.00">iostream</text>
</g>
<!-- Node6&#45;&gt;Node8 -->
<g id="edge7" class="edge"><title>Node6&#45;&gt;Node8</title>
<path fill="none" stroke="midnightblue" d="M210.173,-56.324C193.174,-47.6641 166.828,-34.2424 147.211,-24.249"/>
<polygon fill="midnightblue" stroke="midnightblue" points="148.691,-21.0752 138.192,-19.6545 145.514,-27.3125 148.691,-21.0752"/>
</g>
<!-- Node9 -->
<g id="node9" class="node"><title>Node9</title>
<polygon fill="none" stroke="#bfbfbf" points="166.704,-0.5 166.704,-19.5 219.704,-19.5 219.704,-0.5 166.704,-0.5"/>
<text text-anchor="middle" x="193.204" y="-7.5" font-family="Helvetica,sans-Serif" font-size="10.00">cwctype</text>
</g>
<!-- Node6&#45;&gt;Node9 -->
<g id="edge8" class="edge"><title>Node6&#45;&gt;Node9</title>
<path fill="none" stroke="midnightblue" d="M221.589,-56.083C216.836,-48.5341 209.886,-37.4948 204.052,-28.2298"/>
<polygon fill="midnightblue" stroke="midnightblue" points="207.004,-26.3486 198.714,-19.7511 201.08,-30.0783 207.004,-26.3486"/>
</g>
<!-- Node10 -->
<g id="node10" class="node"><title>Node10</title>
<polygon fill="none" stroke="#bfbfbf" points="238.204,-0.5 238.204,-19.5 284.204,-19.5 284.204,-0.5 238.204,-0.5"/>
<text text-anchor="middle" x="261.204" y="-7.5" font-family="Helvetica,sans-Serif" font-size="10.00">cctype</text>
</g>
<!-- Node6&#45;&gt;Node10 -->
<g id="edge9" class="edge"><title>Node6&#45;&gt;Node10</title>
<path fill="none" stroke="midnightblue" d="M232.818,-56.083C237.571,-48.5341 244.522,-37.4948 250.355,-28.2298"/>
<polygon fill="midnightblue" stroke="midnightblue" points="253.328,-30.0783 255.694,-19.7511 247.404,-26.3486 253.328,-30.0783"/>
</g>
<!-- Node11 -->
<g id="node11" class="node"><title>Node11</title>
<polygon fill="none" stroke="#bfbfbf" points="302.204,-0.5 302.204,-19.5 352.204,-19.5 352.204,-0.5 302.204,-0.5"/>
<text text-anchor="middle" x="327.204" y="-7.5" font-family="Helvetica,sans-Serif" font-size="10.00">QString</text>
</g>
<!-- Node6&#45;&gt;Node11 -->
<g id="edge10" class="edge"><title>Node6&#45;&gt;Node11</title>
<path fill="none" stroke="midnightblue" d="M243.271,-56.324C259.162,-47.7428 283.711,-34.486 302.162,-24.5224"/>
<polygon fill="midnightblue" stroke="midnightblue" points="304.041,-27.4857 311.177,-19.6545 300.715,-21.3264 304.041,-27.4857"/>
</g>
<!-- Node12 -->
<g id="node12" class="node"><title>Node12</title>
<polygon fill="none" stroke="#bfbfbf" points="370.704,-0.5 370.704,-19.5 445.704,-19.5 445.704,-0.5 370.704,-0.5"/>
<text text-anchor="middle" x="408.204" y="-7.5" font-family="Helvetica,sans-Serif" font-size="10.00">QTextStream</text>
</g>
<!-- Node6&#45;&gt;Node12 -->
<g id="edge11" class="edge"><title>Node6&#45;&gt;Node12</title>
<path fill="none" stroke="midnightblue" d="M255.884,-56.4435C286.731,-47.2406 335.932,-32.5617 370.033,-22.3879"/>
<polygon fill="midnightblue" stroke="midnightblue" points="371.076,-25.7293 379.658,-19.5164 369.075,-19.0215 371.076,-25.7293"/>
</g>
<!-- Node13&#45;&gt;Node6 -->
<g id="edge15" class="edge"><title>Node13&#45;&gt;Node6</title>
<path fill="none" stroke="midnightblue" d="M437.591,-112.444C390.87,-102.352 313.665,-85.6756 266.906,-75.5756"/>
<polygon fill="midnightblue" stroke="midnightblue" points="267.359,-72.0929 256.846,-73.4026 265.881,-78.9351 267.359,-72.0929"/>
</g>
<!-- Node14 -->
<g id="node14" class="node"><title>Node14</title>
<polygon fill="none" stroke="#bfbfbf" points="447.704,-56.5 447.704,-75.5 506.704,-75.5 506.704,-56.5 447.704,-56.5"/>
<text text-anchor="middle" x="477.204" y="-63.5" font-family="Helvetica,sans-Serif" font-size="10.00">stdexcept</text>
</g>
<!-- Node13&#45;&gt;Node14 -->
<g id="edge14" class="edge"><title>Node13&#45;&gt;Node14</title>
<path fill="none" stroke="midnightblue" d="M477.204,-112.083C477.204,-105.006 477.204,-94.8611 477.204,-85.9865"/>
<polygon fill="midnightblue" stroke="midnightblue" points="480.704,-85.751 477.204,-75.7511 473.704,-85.7511 480.704,-85.751"/>
</g>
</g>
</svg>
        <g id="navigator" transform="translate(0 0)" fill="#404254">
                <rect fill="#f2f5e9" fill-opacity="0.5" stroke="#606060" stroke-width=".5" x="0" y="0" width="60" height="60"/>
                <use id="zoomplus" xlink:href="#zoomPlus" x="17" y="9" onmousedown="handleZoom(evt,'in')"/>
                <use id="zoomminus" xlink:href="#zoomMin" x="42" y="9" onmousedown="handleZoom(evt,'out')"/>
                <use id="reset" xlink:href="#resetDef" x="30" y="36" onmousedown="handleReset()"/>
                <g id="arrowUp" xlink:href="#dirArrow" transform="translate(30 24)" onmousedown="handlePan(0,-1)">
                  <use xlink:href="#rim" fill="#404040">
                        <set attributeName="fill" to="#808080" begin="arrowUp.mouseover" end="arrowUp.mouseout"/>
                  </use>
                  <path fill="none" stroke="white" stroke-width="1.5" d="M0,-3.0v7 M-2.5,-0.5L0,-3.0L2.5,-0.5"/>
                </g>
                <g id="arrowRight" xlink:href="#dirArrow" transform="rotate(90) translate(36 -43)" onmousedown="handlePan(1,0)">
                  <use xlink:href="#rim" fill="#404040">
                        <set attributeName="fill" to="#808080" begin="arrowRight.mouseover" end="arrowRight.mouseout"/>
                  </use>
                  <path fill="none" stroke="white" stroke-width="1.5" d="M0,-3.0v7 M-2.5,-0.5L0,-3.0L2.5,-0.5"/>
                </g>
                <g id="arrowDown" xlink:href="#dirArrow" transform="rotate(180) translate(-30 -48)" onmousedown="handlePan(0,1)">
                  <use xlink:href="#rim" fill="#404040">
                        <set attributeName="fill" to="#808080" begin="arrowDown.mouseover" end="arrowDown.mouseout"/>
                  </use>
                  <path fill="none" stroke="white" stroke-width="1.5" d="M0,-3.0v7 M-2.5,-0.5L0,-3.0L2.5,-0.5"/>
                </g>
                <g id="arrowLeft" xlink:href="#dirArrow" transform="rotate(270) translate(-36 17)" onmousedown="handlePan(-1,0)">
                  <use xlink:href="#rim" fill="#404040">
                        <set attributeName="fill" to="#808080" begin="arrowLeft.mouseover" end="arrowLeft.mouseout"/>
                  </use>
                  <path fill="none" stroke="white" stroke-width="1.5" d="M0,-3.0v7 M-2.5,-0.5L0,-3.0L2.5,-0.5"/>
                </g>
        </g>
        <svg viewBox="0 0 15 15" width="100%" height="30px" preserveAspectRatio="xMaxYMin meet">
         <g id="arrow_out" transform="scale(0.3 0.3)">
          <a xlink:href="tag__vector__of__tags_8hpp__incl_org.svg" target="_base">
           <rect id="button" ry="5" rx="5" y="6" x="6" height="38" width="38"
                fill="#f2f5e9" fill-opacity="0.5" stroke="#606060" stroke-width="1.0"/>
           <path id="arrow"
             d="M 11.500037,31.436501 C 11.940474,20.09759 22.043105,11.32322 32.158766,21.979434 L 37.068811,17.246167 C 37.068811,17.246167 37.088388,32 37.088388,32 L 22.160133,31.978069 C 22.160133,31.978069 26.997745,27.140456 26.997745,27.140456 C 18.528582,18.264221 13.291696,25.230495 11.500037,31.436501 z"
             style="fill:#404040;"/>
          </a>
         </g>
        </svg>
</svg>
