<?xml version="1.0" encoding="UTF-8" standalone="no"?>
<!DOCTYPE svg PUBLIC "-//W3C//DTD SVG 1.1//EN"
 "http://www.w3.org/Graphics/SVG/1.1/DTD/svg11.dtd">
<!-- Generated by graphviz version 2.43.0 (0)
 -->
<!-- Title: tag.hpp Pages: 1 -->
<svg width="519pt" height="196pt"
 viewBox="0.00 0.00 518.50 196.00" xmlns="http://www.w3.org/2000/svg" xmlns:xlink="http://www.w3.org/1999/xlink">
<g id="graph0" class="graph" transform="scale(1 1) rotate(0) translate(4 192)">
<title>tag.hpp</title>
<!-- Node1 -->
<g id="node1" class="node">
<title>Node1</title>
<g id="a_node1"><a xlink:title=" ">
<polygon fill="#bfbfbf" stroke="black" points="145.5,-168.5 145.5,-187.5 198.5,-187.5 198.5,-168.5 145.5,-168.5"/>
<text text-anchor="middle" x="172" y="-175.5" font-family="Helvetica,sans-Serif" font-size="10.00">tag.hpp</text>
</a>
</g>
</g>
<!-- Node2 -->
<g id="node2" class="node">
<title>Node2</title>
<g id="a_node2"><a xlink:href="parser_8hpp.html" target="_top" xlink:title=" ">
<polygon fill="none" stroke="black" points="0,-112.5 0,-131.5 68,-131.5 68,-112.5 0,-112.5"/>
<text text-anchor="middle" x="34" y="-119.5" font-family="Helvetica,sans-Serif" font-size="10.00">parser.hpp</text>
</a>
</g>
</g>
<!-- Node1&#45;&gt;Node2 -->
<g id="edge1" class="edge">
<title>Node1&#45;&gt;Node2</title>
<path fill="none" stroke="midnightblue" d="M140.75,-164.77C114.83,-154.63 78.64,-140.47 55.76,-131.52"/>
<polygon fill="midnightblue" stroke="midnightblue" points="139.55,-168.06 150.13,-168.44 142.1,-161.54 139.55,-168.06"/>
</g>
<!-- Node3 -->
<g id="node3" class="node">
<title>Node3</title>
<g id="a_node3"><a xlink:href="all_8hpp.html" target="_top" xlink:title=" ">
<polygon fill="none" stroke="black" points="189,-0.5 189,-19.5 239,-19.5 239,-0.5 189,-0.5"/>
<text text-anchor="middle" x="214" y="-7.5" font-family="Helvetica,sans-Serif" font-size="10.00">all.hpp</text>
</a>
</g>
</g>
<!-- Node1&#45;&gt;Node3 -->
<g id="edge5" class="edge">
<title>Node1&#45;&gt;Node3</title>
<path fill="none" stroke="midnightblue" d="M163.07,-159.04C152.19,-134.47 137.21,-89.58 154,-56 162.44,-39.11 180.57,-26.92 194.7,-19.52"/>
<polygon fill="midnightblue" stroke="midnightblue" points="159.96,-160.67 167.37,-168.24 166.3,-157.7 159.96,-160.67"/>
</g>
<!-- Node4 -->
<g id="node4" class="node">
<title>Node4</title>
<g id="a_node4"><a xlink:href="utils_8hpp.html" target="_top" xlink:title=" ">
<polygon fill="none" stroke="black" points="46.5,-56.5 46.5,-75.5 105.5,-75.5 105.5,-56.5 46.5,-56.5"/>
<text text-anchor="middle" x="76" y="-63.5" font-family="Helvetica,sans-Serif" font-size="10.00">utils.hpp</text>
</a>
</g>
</g>
<!-- Node1&#45;&gt;Node4 -->
<g id="edge14" class="edge">
<title>Node1&#45;&gt;Node4</title>
<path fill="none" stroke="midnightblue" d="M152.48,-162.16C142.23,-153.87 129.79,-143.02 120,-132 103.53,-113.46 88.24,-88.43 80.78,-75.51"/>
<polygon fill="midnightblue" stroke="midnightblue" points="150.46,-165.02 160.48,-168.47 154.79,-159.53 150.46,-165.02"/>
</g>
<!-- Node5 -->
<g id="node5" class="node">
<title>Node5</title>
<g id="a_node5"><a xlink:href="tag__no__value_8hpp.html" target="_top" xlink:title=" ">
<polygon fill="none" stroke="black" points="162.5,-56.5 162.5,-75.5 265.5,-75.5 265.5,-56.5 162.5,-56.5"/>
<text text-anchor="middle" x="214" y="-63.5" font-family="Helvetica,sans-Serif" font-size="10.00">tag_no_value.hpp</text>
</a>
</g>
</g>
<!-- Node1&#45;&gt;Node5 -->
<g id="edge6" class="edge">
<title>Node1&#45;&gt;Node5</title>
<path fill="none" stroke="midnightblue" d="M178.69,-158.48C183.43,-145.44 190,-127.61 196,-112 200.89,-99.28 206.8,-84.64 210.48,-75.6"/>
<polygon fill="midnightblue" stroke="midnightblue" points="175.3,-157.55 175.19,-168.14 181.89,-159.93 175.3,-157.55"/>
</g>
<!-- Node6 -->
<g id="node6" class="node">
<title>Node6</title>
<g id="a_node6"><a xlink:href="tag__scalar_8hpp.html" target="_top" xlink:title=" ">
<polygon fill="none" stroke="black" points="283.5,-56.5 283.5,-75.5 370.5,-75.5 370.5,-56.5 283.5,-56.5"/>
<text text-anchor="middle" x="327" y="-63.5" font-family="Helvetica,sans-Serif" font-size="10.00">tag_scalar.hpp</text>
</a>
</g>
</g>
<!-- Node1&#45;&gt;Node6 -->
<g id="edge8" class="edge">
<title>Node1&#45;&gt;Node6</title>
<path fill="none" stroke="midnightblue" d="M184.02,-160.02C194.79,-145.76 211.67,-125.6 230,-112 252.07,-95.63 281.04,-83.15 301.56,-75.53"/>
<polygon fill="midnightblue" stroke="midnightblue" points="180.97,-158.27 177.88,-168.4 186.61,-162.4 180.97,-158.27"/>
</g>
<!-- Node7 -->
<g id="node7" class="node">
<title>Node7</title>
<g id="a_node7"><a xlink:href="tag__scalar__vector_8hpp.html" target="_top" xlink:title=" ">
<polygon fill="none" stroke="black" points="238.5,-112.5 238.5,-131.5 361.5,-131.5 361.5,-112.5 238.5,-112.5"/>
<text text-anchor="middle" x="300" y="-119.5" font-family="Helvetica,sans-Serif" font-size="10.00">tag_scalar_vector.hpp</text>
</a>
</g>
</g>
<!-- Node1&#45;&gt;Node7 -->
<g id="edge10" class="edge">
<title>Node1&#45;&gt;Node7</title>
<path fill="none" stroke="midnightblue" d="M201.62,-164.5C225.62,-154.38 258.78,-140.39 279.81,-131.52"/>
<polygon fill="midnightblue" stroke="midnightblue" points="200.14,-161.33 192.28,-168.44 202.86,-167.78 200.14,-161.33"/>
</g>
<!-- Node8 -->
<g id="node8" class="node">
<title>Node8</title>
<g id="a_node8"><a xlink:href="tag__vector__of__tags_8hpp.html" target="_top" xlink:title=" ">
<polygon fill="none" stroke="black" points="379.5,-112.5 379.5,-131.5 510.5,-131.5 510.5,-112.5 379.5,-112.5"/>
<text text-anchor="middle" x="445" y="-119.5" font-family="Helvetica,sans-Serif" font-size="10.00">tag_vector_of_tags.hpp</text>
</a>
</g>
</g>
<!-- Node1&#45;&gt;Node8 -->
<g id="edge12" class="edge">
<title>Node1&#45;&gt;Node8</title>
<path fill="none" stroke="midnightblue" d="M208.74,-169.73C258.83,-159.83 348.41,-142.11 401.7,-131.56"/>
<polygon fill="midnightblue" stroke="midnightblue" points="207.8,-166.35 198.67,-171.72 209.16,-173.22 207.8,-166.35"/>
</g>
<!-- Node2&#45;&gt;Node3 -->
<g id="edge2" class="edge">
<title>Node2&#45;&gt;Node3</title>
<path fill="none" stroke="midnightblue" d="M29.72,-102.12C27.66,-87.86 27.54,-68.65 38,-56 57.09,-32.91 144.79,-19.31 188.74,-13.83"/>
<polygon fill="midnightblue" stroke="midnightblue" points="26.34,-103.09 31.63,-112.27 33.22,-101.8 26.34,-103.09"/>
</g>
<!-- Node2&#45;&gt;Node4 -->
<g id="edge3" class="edge">
<title>Node2&#45;&gt;Node4</title>
<path fill="none" stroke="midnightblue" d="M47.11,-104.14C54.43,-94.74 63.24,-83.4 69.19,-75.75"/>
<polygon fill="midnightblue" stroke="midnightblue" points="44.31,-102.04 40.94,-112.08 49.84,-106.34 44.31,-102.04"/>
</g>
<!-- Node4&#45;&gt;Node3 -->
<g id="edge4" class="edge">
<title>Node4&#45;&gt;Node3</title>
<path fill="none" stroke="midnightblue" d="M107.25,-52.77C133.17,-42.63 169.36,-28.47 192.24,-19.52"/>
<polygon fill="midnightblue" stroke="midnightblue" points="105.9,-49.54 97.87,-56.44 108.45,-56.06 105.9,-49.54"/>
</g>
<!-- Node5&#45;&gt;Node3 -->
<g id="edge7" class="edge">
<title>Node5&#45;&gt;Node3</title>
<path fill="none" stroke="midnightblue" d="M214,-45.8C214,-36.91 214,-26.78 214,-19.75"/>
<polygon fill="midnightblue" stroke="midnightblue" points="210.5,-46.08 214,-56.08 217.5,-46.08 210.5,-46.08"/>
</g>
<!-- Node6&#45;&gt;Node3 -->
<g id="edge9" class="edge">
<title>Node6&#45;&gt;Node3</title>
<path fill="none" stroke="midnightblue" d="M300,-52.1C278.89,-42.01 250.14,-28.27 231.82,-19.52"/>
<polygon fill="midnightblue" stroke="midnightblue" points="298.56,-55.29 309.09,-56.44 301.58,-48.97 298.56,-55.29"/>
</g>
<!-- Node7&#45;&gt;Node3 -->
<g id="edge11" class="edge">
<title>Node7&#45;&gt;Node3</title>
<path fill="none" stroke="midnightblue" d="M335.66,-108.81C364.17,-97.1 396.8,-77.96 380,-56 362.95,-33.71 281.42,-19.89 239.31,-14.12"/>
<polygon fill="midnightblue" stroke="midnightblue" points="334.27,-105.6 326.23,-112.49 336.82,-112.12 334.27,-105.6"/>
</g>
<!-- Node8&#45;&gt;Node3 -->
<g id="edge13" class="edge">
<title>Node8&#45;&gt;Node3</title>
<path fill="none" stroke="midnightblue" d="M436.04,-103.14C427.68,-88.29 413.82,-67.77 396,-56 346.84,-23.54 276.21,-14.48 239.05,-11.96"/>
<polygon fill="midnightblue" stroke="midnightblue" points="433.14,-105.14 440.93,-112.33 439.32,-101.86 433.14,-105.14"/>
</g>
</g>
</svg>
