<?xml version="1.0" encoding="UTF-8" standalone="no"?>
<!DOCTYPE svg PUBLIC "-//W3C//DTD SVG 1.1//EN"
 "http://www.w3.org/Graphics/SVG/1.1/DTD/svg11.dtd">
<!-- Generated by graphviz version 2.38.0 (20140413.2041)
 -->
<!-- Title: tag.hpp Pages: 1 -->
<!--zoomable 196 -->
<svg id="main" version="1.1" xmlns="http://www.w3.org/2000/svg" xmlns:xlink="http://www.w3.org/1999/xlink" xml:space="preserve" onload="init(evt)">
<style type="text/css"><![CDATA[
.edge:hover path { stroke: red; }
.edge:hover polygon { stroke: red; fill: red; }
]]></style>
<script type="text/javascript"><![CDATA[
var edges = document.getElementsByTagName('g');
if (edges && edges.length) {
  for (var i=0;i<edges.length;i++) {
    if (edges[i].id.substr(0,4)=='edge') {
      edges[i].setAttribute('class','edge');
    }
  }
}
]]></script>
        <defs>
                <circle id="rim" cx="0" cy="0" r="7"/>
                <circle id="rim2" cx="0" cy="0" r="3.5"/>
                <g id="zoomPlus">
                        <use xlink:href="#rim" fill="#404040">
                                <set attributeName="fill" to="#808080" begin="zoomplus.mouseover" end="zoomplus.mouseout"/>
                        </use>
                        <path d="M-4,0h8M0,-4v8" fill="none" stroke="white" stroke-width="1.5" pointer-events="none"/>
                </g>
                <g id="zoomMin">
                        <use xlink:href="#rim" fill="#404040">
                                <set attributeName="fill" to="#808080" begin="zoomminus.mouseover" end="zoomminus.mouseout"/>
                        </use>
                        <path d="M-4,0h8" fill="none" stroke="white" stroke-width="1.5" pointer-events="none"/>
                </g>
                <g id="dirArrow">
                        <path fill="none" stroke="white" stroke-width="1.5" d="M0,-3.0v7 M-2.5,-0.5L0,-3.0L2.5,-0.5"/>
                </g>
               <g id="resetDef">
                       <use xlink:href="#rim2" fill="#404040">
                               <set attributeName="fill" to="#808080" begin="reset.mouseover" end="reset.mouseout"/>
                       </use>
               </g>
        </defs>

<script type="text/javascript">
var viewWidth = 575;
var viewHeight = 196;
var sectionId = 'dynsection-0';
</script>
<script xlink:href="svgpan.js"/>
<svg id="graph" class="graph">
<g id="viewport">
<title>tag.hpp</title>
<!-- Node1 -->
<g id="node1" class="node"><title>Node1</title>
<polygon fill="#bfbfbf" stroke="black" points="294.5,-168.5 294.5,-187.5 343.5,-187.5 343.5,-168.5 294.5,-168.5"/>
<text text-anchor="middle" x="319" y="-175.5" font-family="Helvetica,sans-Serif" font-size="10.00">tag.hpp</text>
</g>
<!-- Node2 -->
<g id="node2" class="node"><title>Node2</title>
<polygon fill="none" stroke="#bfbfbf" points="0,-112.5 0,-131.5 90,-131.5 90,-112.5 0,-112.5"/>
<text text-anchor="middle" x="45" y="-119.5" font-family="Helvetica,sans-Serif" font-size="10.00">QDomDocument</text>
</g>
<!-- Node1&#45;&gt;Node2 -->
<g id="edge1" class="edge"><title>Node1&#45;&gt;Node2</title>
<path fill="none" stroke="midnightblue" d="M294.201,-172.113C250.118,-163.425 157.204,-145.113 98.1229,-133.469"/>
<polygon fill="midnightblue" stroke="midnightblue" points="98.7129,-130.018 88.2248,-131.519 97.3593,-136.886 98.7129,-130.018"/>
</g>
<!-- Node3 -->
<g id="node3" class="node"><title>Node3</title>
<polygon fill="none" stroke="#bfbfbf" points="108.5,-112.5 108.5,-131.5 189.5,-131.5 189.5,-112.5 108.5,-112.5"/>
<text text-anchor="middle" x="149" y="-119.5" font-family="Helvetica,sans-Serif" font-size="10.00">QDomElement</text>
</g>
<!-- Node1&#45;&gt;Node3 -->
<g id="edge2" class="edge"><title>Node1&#45;&gt;Node3</title>
<path fill="none" stroke="midnightblue" d="M294.281,-169.148C265.739,-160.082 218.515,-145.081 185.687,-134.653"/>
<polygon fill="midnightblue" stroke="midnightblue" points="186.588,-131.267 175.997,-131.576 184.468,-137.939 186.588,-131.267"/>
</g>
<!-- Node4 -->
<g id="node4" class="node"><title>Node4</title>
<g id="a_node4"><a xlink:href="parser__info_8hpp.html" target="_top" xlink:title="parser_info.hpp">
<polygon fill="none" stroke="black" points="207.5,-112.5 207.5,-131.5 290.5,-131.5 290.5,-112.5 207.5,-112.5"/>
<text text-anchor="middle" x="249" y="-119.5" font-family="Helvetica,sans-Serif" font-size="10.00">parser_info.hpp</text>
</a>
</g>
</g>
<!-- Node1&#45;&gt;Node4 -->
<g id="edge3" class="edge"><title>Node1&#45;&gt;Node4</title>
<path fill="none" stroke="midnightblue" d="M307.753,-168.324C297.203,-160.185 281.199,-147.839 268.558,-138.087"/>
<polygon fill="midnightblue" stroke="midnightblue" points="270.507,-135.171 260.451,-131.834 266.231,-140.713 270.507,-135.171"/>
</g>
<!-- Node5 -->
<g id="node5" class="node"><title>Node5</title>
<g id="a_node5"><a xlink:href="types_8hpp.html" target="_top" xlink:title="types.hpp">
<polygon fill="none" stroke="black" points="285.5,-56.5 285.5,-75.5 344.5,-75.5 344.5,-56.5 285.5,-56.5"/>
<text text-anchor="middle" x="315" y="-63.5" font-family="Helvetica,sans-Serif" font-size="10.00">types.hpp</text>
</a>
</g>
</g>
<!-- Node1&#45;&gt;Node5 -->
<g id="edge11" class="edge"><title>Node1&#45;&gt;Node5</title>
<path fill="none" stroke="midnightblue" d="M318.686,-168.368C318.041,-150.617 316.552,-109.666 315.676,-85.5974"/>
<polygon fill="midnightblue" stroke="midnightblue" points="319.174,-85.4576 315.312,-75.5914 312.178,-85.712 319.174,-85.4576"/>
</g>
<!-- Node12 -->
<g id="node12" class="node"><title>Node12</title>
<g id="a_node12"><a xlink:href="exceptions_8hpp.html" target="_top" xlink:title="exceptions.hpp">
<polygon fill="none" stroke="black" points="347.5,-112.5 347.5,-131.5 430.5,-131.5 430.5,-112.5 347.5,-112.5"/>
<text text-anchor="middle" x="389" y="-119.5" font-family="Helvetica,sans-Serif" font-size="10.00">exceptions.hpp</text>
</a>
</g>
</g>
<!-- Node1&#45;&gt;Node12 -->
<g id="edge12" class="edge"><title>Node1&#45;&gt;Node12</title>
<path fill="none" stroke="midnightblue" d="M330.247,-168.324C340.797,-160.185 356.801,-147.839 369.442,-138.087"/>
<polygon fill="midnightblue" stroke="midnightblue" points="371.769,-140.713 377.549,-131.834 367.493,-135.171 371.769,-140.713"/>
</g>
<!-- Node14 -->
<g id="node14" class="node"><title>Node14</title>
<polygon fill="none" stroke="#bfbfbf" points="449,-112.5 449,-131.5 493,-131.5 493,-112.5 449,-112.5"/>
<text text-anchor="middle" x="471" y="-119.5" font-family="Helvetica,sans-Serif" font-size="10.00">vector</text>
</g>
<!-- Node1&#45;&gt;Node14 -->
<g id="edge15" class="edge"><title>Node1&#45;&gt;Node14</title>
<path fill="none" stroke="midnightblue" d="M343.085,-168.444C368.994,-159.239 410.323,-144.556 438.96,-134.383"/>
<polygon fill="midnightblue" stroke="midnightblue" points="440.263,-137.634 448.514,-130.988 437.92,-131.038 440.263,-137.634"/>
</g>
<!-- Node15 -->
<g id="node15" class="node"><title>Node15</title>
<polygon fill="none" stroke="#bfbfbf" points="511,-112.5 511,-131.5 567,-131.5 567,-112.5 511,-112.5"/>
<text text-anchor="middle" x="539" y="-119.5" font-family="Helvetica,sans-Serif" font-size="10.00">algorithm</text>
</g>
<!-- Node1&#45;&gt;Node15 -->
<g id="edge16" class="edge"><title>Node1&#45;&gt;Node15</title>
<path fill="none" stroke="midnightblue" d="M343.809,-170.91C382.07,-161.519 455.762,-143.431 500.842,-132.366"/>
<polygon fill="midnightblue" stroke="midnightblue" points="501.948,-135.699 510.825,-129.916 500.279,-128.9 501.948,-135.699"/>
</g>
<!-- Node4&#45;&gt;Node5 -->
<g id="edge4" class="edge"><title>Node4&#45;&gt;Node5</title>
<path fill="none" stroke="midnightblue" d="M259.604,-112.324C269.456,-104.263 284.351,-92.0765 296.215,-82.3695"/>
<polygon fill="midnightblue" stroke="midnightblue" points="298.68,-84.8752 304.203,-75.8339 294.247,-79.4575 298.68,-84.8752"/>
</g>
<!-- Node6 -->
<g id="node6" class="node"><title>Node6</title>
<polygon fill="none" stroke="#bfbfbf" points="122.5,-0.5 122.5,-19.5 163.5,-19.5 163.5,-0.5 122.5,-0.5"/>
<text text-anchor="middle" x="143" y="-7.5" font-family="Helvetica,sans-Serif" font-size="10.00">string</text>
</g>
<!-- Node5&#45;&gt;Node6 -->
<g id="edge5" class="edge"><title>Node5&#45;&gt;Node6</title>
<path fill="none" stroke="midnightblue" d="M287.746,-56.4435C256.633,-46.6756 205.871,-30.7385 173.473,-20.5673"/>
<polygon fill="midnightblue" stroke="midnightblue" points="174.238,-17.1388 163.648,-17.4826 172.141,-23.8174 174.238,-17.1388"/>
</g>
<!-- Node7 -->
<g id="node7" class="node"><title>Node7</title>
<polygon fill="none" stroke="#bfbfbf" points="182,-0.5 182,-19.5 236,-19.5 236,-0.5 182,-0.5"/>
<text text-anchor="middle" x="209" y="-7.5" font-family="Helvetica,sans-Serif" font-size="10.00">iostream</text>
</g>
<!-- Node5&#45;&gt;Node7 -->
<g id="edge6" class="edge"><title>Node5&#45;&gt;Node7</title>
<path fill="none" stroke="midnightblue" d="M297.969,-56.324C280.97,-47.6641 254.624,-34.2424 235.007,-24.249"/>
<polygon fill="midnightblue" stroke="midnightblue" points="236.488,-21.0752 225.988,-19.6545 233.31,-27.3125 236.488,-21.0752"/>
</g>
<!-- Node8 -->
<g id="node8" class="node"><title>Node8</title>
<polygon fill="none" stroke="#bfbfbf" points="254.5,-0.5 254.5,-19.5 307.5,-19.5 307.5,-0.5 254.5,-0.5"/>
<text text-anchor="middle" x="281" y="-7.5" font-family="Helvetica,sans-Serif" font-size="10.00">cwctype</text>
</g>
<!-- Node5&#45;&gt;Node8 -->
<g id="edge7" class="edge"><title>Node5&#45;&gt;Node8</title>
<path fill="none" stroke="midnightblue" d="M309.386,-56.083C304.633,-48.5341 297.682,-37.4948 291.848,-28.2298"/>
<polygon fill="midnightblue" stroke="midnightblue" points="294.8,-26.3486 286.51,-19.7511 288.876,-30.0783 294.8,-26.3486"/>
</g>
<!-- Node9 -->
<g id="node9" class="node"><title>Node9</title>
<polygon fill="none" stroke="#bfbfbf" points="326,-0.5 326,-19.5 372,-19.5 372,-0.5 326,-0.5"/>
<text text-anchor="middle" x="349" y="-7.5" font-family="Helvetica,sans-Serif" font-size="10.00">cctype</text>
</g>
<!-- Node5&#45;&gt;Node9 -->
<g id="edge8" class="edge"><title>Node5&#45;&gt;Node9</title>
<path fill="none" stroke="midnightblue" d="M320.614,-56.083C325.367,-48.5341 332.318,-37.4948 338.152,-28.2298"/>
<polygon fill="midnightblue" stroke="midnightblue" points="341.124,-30.0783 343.49,-19.7511 335.2,-26.3486 341.124,-30.0783"/>
</g>
<!-- Node10 -->
<g id="node10" class="node"><title>Node10</title>
<polygon fill="none" stroke="#bfbfbf" points="390,-0.5 390,-19.5 440,-19.5 440,-0.5 390,-0.5"/>
<text text-anchor="middle" x="415" y="-7.5" font-family="Helvetica,sans-Serif" font-size="10.00">QString</text>
</g>
<!-- Node5&#45;&gt;Node10 -->
<g id="edge9" class="edge"><title>Node5&#45;&gt;Node10</title>
<path fill="none" stroke="midnightblue" d="M331.067,-56.324C346.958,-47.7428 371.507,-34.486 389.958,-24.5224"/>
<polygon fill="midnightblue" stroke="midnightblue" points="391.837,-27.4857 398.973,-19.6545 388.511,-21.3264 391.837,-27.4857"/>
</g>
<!-- Node11 -->
<g id="node11" class="node"><title>Node11</title>
<polygon fill="none" stroke="#bfbfbf" points="458.5,-0.5 458.5,-19.5 533.5,-19.5 533.5,-0.5 458.5,-0.5"/>
<text text-anchor="middle" x="496" y="-7.5" font-family="Helvetica,sans-Serif" font-size="10.00">QTextStream</text>
</g>
<!-- Node5&#45;&gt;Node11 -->
<g id="edge10" class="edge"><title>Node5&#45;&gt;Node11</title>
<path fill="none" stroke="midnightblue" d="M343.68,-56.4435C374.527,-47.2406 423.728,-32.5617 457.829,-22.3879"/>
<polygon fill="midnightblue" stroke="midnightblue" points="458.872,-25.7293 467.454,-19.5164 456.871,-19.0215 458.872,-25.7293"/>
</g>
<!-- Node12&#45;&gt;Node5 -->
<g id="edge14" class="edge"><title>Node12&#45;&gt;Node5</title>
<path fill="none" stroke="midnightblue" d="M377.111,-112.324C365.85,-104.107 348.713,-91.6017 335.291,-81.8069"/>
<polygon fill="midnightblue" stroke="midnightblue" points="337.247,-78.9014 327.106,-75.8339 333.12,-84.5559 337.247,-78.9014"/>
</g>
<!-- Node13 -->
<g id="node13" class="node"><title>Node13</title>
<polygon fill="none" stroke="#bfbfbf" points="362.5,-56.5 362.5,-75.5 421.5,-75.5 421.5,-56.5 362.5,-56.5"/>
<text text-anchor="middle" x="392" y="-63.5" font-family="Helvetica,sans-Serif" font-size="10.00">stdexcept</text>
</g>
<!-- Node12&#45;&gt;Node13 -->
<g id="edge13" class="edge"><title>Node12&#45;&gt;Node13</title>
<path fill="none" stroke="midnightblue" d="M389.495,-112.083C389.889,-105.006 390.452,-94.8611 390.945,-85.9865"/>
<polygon fill="midnightblue" stroke="midnightblue" points="394.454,-85.9299 391.514,-75.7511 387.464,-85.5415 394.454,-85.9299"/>
</g>
</g>
</svg>
        <g id="navigator" transform="translate(0 0)" fill="#404254">
                <rect fill="#f2f5e9" fill-opacity="0.5" stroke="#606060" stroke-width=".5" x="0" y="0" width="60" height="60"/>
                <use id="zoomplus" xlink:href="#zoomPlus" x="17" y="9" onmousedown="handleZoom(evt,'in')"/>
                <use id="zoomminus" xlink:href="#zoomMin" x="42" y="9" onmousedown="handleZoom(evt,'out')"/>
                <use id="reset" xlink:href="#resetDef" x="30" y="36" onmousedown="handleReset()"/>
                <g id="arrowUp" xlink:href="#dirArrow" transform="translate(30 24)" onmousedown="handlePan(0,-1)">
                  <use xlink:href="#rim" fill="#404040">
                        <set attributeName="fill" to="#808080" begin="arrowUp.mouseover" end="arrowUp.mouseout"/>
                  </use>
                  <path fill="none" stroke="white" stroke-width="1.5" d="M0,-3.0v7 M-2.5,-0.5L0,-3.0L2.5,-0.5"/>
                </g>
                <g id="arrowRight" xlink:href="#dirArrow" transform="rotate(90) translate(36 -43)" onmousedown="handlePan(1,0)">
                  <use xlink:href="#rim" fill="#404040">
                        <set attributeName="fill" to="#808080" begin="arrowRight.mouseover" end="arrowRight.mouseout"/>
                  </use>
                  <path fill="none" stroke="white" stroke-width="1.5" d="M0,-3.0v7 M-2.5,-0.5L0,-3.0L2.5,-0.5"/>
                </g>
                <g id="arrowDown" xlink:href="#dirArrow" transform="rotate(180) translate(-30 -48)" onmousedown="handlePan(0,1)">
                  <use xlink:href="#rim" fill="#404040">
                        <set attributeName="fill" to="#808080" begin="arrowDown.mouseover" end="arrowDown.mouseout"/>
                  </use>
                  <path fill="none" stroke="white" stroke-width="1.5" d="M0,-3.0v7 M-2.5,-0.5L0,-3.0L2.5,-0.5"/>
                </g>
                <g id="arrowLeft" xlink:href="#dirArrow" transform="rotate(270) translate(-36 17)" onmousedown="handlePan(-1,0)">
                  <use xlink:href="#rim" fill="#404040">
                        <set attributeName="fill" to="#808080" begin="arrowLeft.mouseover" end="arrowLeft.mouseout"/>
                  </use>
                  <path fill="none" stroke="white" stroke-width="1.5" d="M0,-3.0v7 M-2.5,-0.5L0,-3.0L2.5,-0.5"/>
                </g>
        </g>
        <svg viewBox="0 0 15 15" width="100%" height="30px" preserveAspectRatio="xMaxYMin meet">
         <g id="arrow_out" transform="scale(0.3 0.3)">
          <a xlink:href="tag_8hpp__incl_org.svg" target="_base">
           <rect id="button" ry="5" rx="5" y="6" x="6" height="38" width="38"
                fill="#f2f5e9" fill-opacity="0.5" stroke="#606060" stroke-width="1.0"/>
           <path id="arrow"
             d="M 11.500037,31.436501 C 11.940474,20.09759 22.043105,11.32322 32.158766,21.979434 L 37.068811,17.246167 C 37.068811,17.246167 37.088388,32 37.088388,32 L 22.160133,31.978069 C 22.160133,31.978069 26.997745,27.140456 26.997745,27.140456 C 18.528582,18.264221 13.291696,25.230495 11.500037,31.436501 z"
             style="fill:#404040;"/>
          </a>
         </g>
        </svg>
</svg>
