<?xml version="1.0" encoding="UTF-8" standalone="no"?>
<!DOCTYPE svg PUBLIC "-//W3C//DTD SVG 1.1//EN"
 "http://www.w3.org/Graphics/SVG/1.1/DTD/svg11.dtd">
<!-- Generated by graphviz version 2.43.0 (0)
 -->
<!-- Title: tag_scalar.hpp Pages: 1 -->
<svg width="875pt" height="252pt"
 viewBox="0.00 0.00 874.50 252.00" xmlns="http://www.w3.org/2000/svg" xmlns:xlink="http://www.w3.org/1999/xlink">
<g id="graph0" class="graph" transform="scale(1 1) rotate(0) translate(4 248)">
<title>tag_scalar.hpp</title>
<!-- Node1 -->
<g id="node1" class="node">
<title>Node1</title>
<g id="a_node1"><a xlink:title=" ">
<polygon fill="#bfbfbf" stroke="black" points="399.5,-224.5 399.5,-243.5 486.5,-243.5 486.5,-224.5 399.5,-224.5"/>
<text text-anchor="middle" x="443" y="-231.5" font-family="Helvetica,sans-Serif" font-size="10.00">tag_scalar.hpp</text>
</a>
</g>
</g>
<!-- Node2 -->
<g id="node2" class="node">
<title>Node2</title>
<g id="a_node2"><a xlink:href="tag_8hpp.html" target="_top" xlink:title=" ">
<polygon fill="none" stroke="black" points="290.5,-168.5 290.5,-187.5 343.5,-187.5 343.5,-168.5 290.5,-168.5"/>
<text text-anchor="middle" x="317" y="-175.5" font-family="Helvetica,sans-Serif" font-size="10.00">tag.hpp</text>
</a>
</g>
</g>
<!-- Node1&#45;&gt;Node2 -->
<g id="edge1" class="edge">
<title>Node1&#45;&gt;Node2</title>
<path fill="none" stroke="midnightblue" d="M423.03,-224.44C402.39,-215.6 369.94,-201.69 346.37,-191.59"/>
<polygon fill="midnightblue" stroke="midnightblue" points="347.44,-188.24 336.87,-187.52 344.68,-194.67 347.44,-188.24"/>
</g>
<!-- Node3 -->
<g id="node3" class="node">
<title>Node3</title>
<g id="a_node3"><a xlink:title=" ">
<polygon fill="none" stroke="#bfbfbf" points="0,-112.5 0,-131.5 98,-131.5 98,-112.5 0,-112.5"/>
<text text-anchor="middle" x="49" y="-119.5" font-family="Helvetica,sans-Serif" font-size="10.00">QDomDocument</text>
</a>
</g>
</g>
<!-- Node1&#45;&gt;Node3 -->
<g id="edge33" class="edge">
<title>Node1&#45;&gt;Node3</title>
<path fill="none" stroke="midnightblue" d="M399.41,-225.11C357.26,-217.11 291.76,-203.69 236,-188 180.51,-172.38 117.45,-149.33 80.57,-135.28"/>
<polygon fill="midnightblue" stroke="midnightblue" points="81.48,-131.89 70.89,-131.58 78.98,-138.42 81.48,-131.89"/>
</g>
<!-- Node4 -->
<g id="node4" class="node">
<title>Node4</title>
<g id="a_node4"><a xlink:title=" ">
<polygon fill="none" stroke="#bfbfbf" points="116,-112.5 116,-131.5 204,-131.5 204,-112.5 116,-112.5"/>
<text text-anchor="middle" x="160" y="-119.5" font-family="Helvetica,sans-Serif" font-size="10.00">QDomElement</text>
</a>
</g>
</g>
<!-- Node1&#45;&gt;Node4 -->
<g id="edge34" class="edge">
<title>Node1&#45;&gt;Node4</title>
<path fill="none" stroke="midnightblue" d="M402.91,-224.48C369.62,-216.8 321.36,-204.21 281,-188 245.06,-173.56 206.01,-151.28 182.27,-136.92"/>
<polygon fill="midnightblue" stroke="midnightblue" points="184.02,-133.89 173.67,-131.65 180.37,-139.86 184.02,-133.89"/>
</g>
<!-- Node13 -->
<g id="node13" class="node">
<title>Node13</title>
<g id="a_node13"><a xlink:href="exceptions_8hpp.html" target="_top" xlink:title=" ">
<polygon fill="none" stroke="black" points="408.5,-112.5 408.5,-131.5 499.5,-131.5 499.5,-112.5 408.5,-112.5"/>
<text text-anchor="middle" x="454" y="-119.5" font-family="Helvetica,sans-Serif" font-size="10.00">exceptions.hpp</text>
</a>
</g>
</g>
<!-- Node1&#45;&gt;Node13 -->
<g id="edge31" class="edge">
<title>Node1&#45;&gt;Node13</title>
<path fill="none" stroke="midnightblue" d="M427.2,-224.35C407.98,-212.6 379.43,-190.49 391,-168 398.08,-154.25 411.52,-143.77 424.18,-136.39"/>
<polygon fill="midnightblue" stroke="midnightblue" points="426,-139.39 433.15,-131.57 422.69,-133.22 426,-139.39"/>
</g>
<!-- Node17 -->
<g id="node17" class="node">
<title>Node17</title>
<g id="a_node17"><a xlink:href="constraint_8hpp.html" target="_top" xlink:title=" ">
<polygon fill="none" stroke="black" points="400,-168.5 400,-187.5 486,-187.5 486,-168.5 400,-168.5"/>
<text text-anchor="middle" x="443" y="-175.5" font-family="Helvetica,sans-Serif" font-size="10.00">constraint.hpp</text>
</a>
</g>
</g>
<!-- Node1&#45;&gt;Node17 -->
<g id="edge18" class="edge">
<title>Node1&#45;&gt;Node17</title>
<path fill="none" stroke="midnightblue" d="M443,-224.08C443,-217.01 443,-206.86 443,-197.99"/>
<polygon fill="midnightblue" stroke="midnightblue" points="446.5,-197.75 443,-187.75 439.5,-197.75 446.5,-197.75"/>
</g>
<!-- Node18 -->
<g id="node18" class="node">
<title>Node18</title>
<g id="a_node18"><a xlink:href="format_8hpp.html" target="_top" xlink:title=" ">
<polygon fill="none" stroke="black" points="664.5,-168.5 664.5,-187.5 735.5,-187.5 735.5,-168.5 664.5,-168.5"/>
<text text-anchor="middle" x="700" y="-175.5" font-family="Helvetica,sans-Serif" font-size="10.00">format.hpp</text>
</a>
</g>
</g>
<!-- Node1&#45;&gt;Node18 -->
<g id="edge19" class="edge">
<title>Node1&#45;&gt;Node18</title>
<path fill="none" stroke="midnightblue" d="M483.72,-224.44C530.24,-214.67 606.14,-198.72 654.54,-188.55"/>
<polygon fill="midnightblue" stroke="midnightblue" points="655.37,-191.95 664.43,-186.47 653.93,-185.1 655.37,-191.95"/>
</g>
<!-- Node19 -->
<g id="node19" class="node">
<title>Node19</title>
<g id="a_node19"><a xlink:href="const_8hpp.html" target="_top" xlink:title=" ">
<polygon fill="none" stroke="black" points="666,-112.5 666,-131.5 730,-131.5 730,-112.5 666,-112.5"/>
<text text-anchor="middle" x="698" y="-119.5" font-family="Helvetica,sans-Serif" font-size="10.00">const.hpp</text>
</a>
</g>
</g>
<!-- Node1&#45;&gt;Node19 -->
<g id="edge32" class="edge">
<title>Node1&#45;&gt;Node19</title>
<path fill="none" stroke="midnightblue" d="M486.63,-226.97C522.96,-220.74 575.3,-208.9 617,-188 642.3,-175.32 667.02,-153.76 682.36,-138.97"/>
<polygon fill="midnightblue" stroke="midnightblue" points="685.22,-141.07 689.87,-131.55 680.3,-136.09 685.22,-141.07"/>
</g>
<!-- Node21 -->
<g id="node21" class="node">
<title>Node21</title>
<g id="a_node21"><a xlink:href="string__format_8hpp.html" target="_top" xlink:title=" ">
<polygon fill="none" stroke="black" points="504,-168.5 504,-187.5 608,-187.5 608,-168.5 504,-168.5"/>
<text text-anchor="middle" x="556" y="-175.5" font-family="Helvetica,sans-Serif" font-size="10.00">string_format.hpp</text>
</a>
</g>
</g>
<!-- Node1&#45;&gt;Node21 -->
<g id="edge27" class="edge">
<title>Node1&#45;&gt;Node21</title>
<path fill="none" stroke="midnightblue" d="M460.91,-224.44C479.25,-215.68 508.01,-201.94 529.09,-191.86"/>
<polygon fill="midnightblue" stroke="midnightblue" points="530.67,-194.99 538.18,-187.52 527.65,-188.67 530.67,-194.99"/>
</g>
<!-- Node22 -->
<g id="node22" class="node">
<title>Node22</title>
<g id="a_node22"><a xlink:title=" ">
<polygon fill="none" stroke="#bfbfbf" points="754,-168.5 754,-187.5 822,-187.5 822,-168.5 754,-168.5"/>
<text text-anchor="middle" x="788" y="-175.5" font-family="Helvetica,sans-Serif" font-size="10.00">QDomText</text>
</a>
</g>
</g>
<!-- Node1&#45;&gt;Node22 -->
<g id="edge35" class="edge">
<title>Node1&#45;&gt;Node22</title>
<path fill="none" stroke="midnightblue" d="M486.64,-227.31C543.52,-219.72 646.31,-205.38 743.75,-188.14"/>
<polygon fill="midnightblue" stroke="midnightblue" points="744.54,-191.55 753.77,-186.35 743.31,-184.66 744.54,-191.55"/>
</g>
<!-- Node2&#45;&gt;Node3 -->
<g id="edge2" class="edge">
<title>Node2&#45;&gt;Node3</title>
<path fill="none" stroke="midnightblue" d="M290.32,-171.62C246.36,-162.77 157.91,-144.95 101.18,-133.51"/>
<polygon fill="midnightblue" stroke="midnightblue" points="101.81,-130.07 91.32,-131.53 100.43,-136.93 101.81,-130.07"/>
</g>
<!-- Node2&#45;&gt;Node4 -->
<g id="edge3" class="edge">
<title>Node2&#45;&gt;Node4</title>
<path fill="none" stroke="midnightblue" d="M292.12,-168.44C265.71,-159.36 223.78,-144.94 194.26,-134.78"/>
<polygon fill="midnightblue" stroke="midnightblue" points="195.36,-131.46 184.76,-131.52 193.08,-138.08 195.36,-131.46"/>
</g>
<!-- Node5 -->
<g id="node5" class="node">
<title>Node5</title>
<g id="a_node5"><a xlink:href="parser__info_8hpp.html" target="_top" xlink:title=" ">
<polygon fill="none" stroke="black" points="556,-112.5 556,-131.5 648,-131.5 648,-112.5 556,-112.5"/>
<text text-anchor="middle" x="602" y="-119.5" font-family="Helvetica,sans-Serif" font-size="10.00">parser_info.hpp</text>
</a>
</g>
</g>
<!-- Node2&#45;&gt;Node5 -->
<g id="edge4" class="edge">
<title>Node2&#45;&gt;Node5</title>
<path fill="none" stroke="midnightblue" d="M343.56,-171.97C389.83,-163.2 486.12,-144.96 547.21,-133.38"/>
<polygon fill="midnightblue" stroke="midnightblue" points="547.9,-136.81 557.08,-131.51 546.6,-129.93 547.9,-136.81"/>
</g>
<!-- Node6 -->
<g id="node6" class="node">
<title>Node6</title>
<g id="a_node6"><a xlink:href="types_8hpp.html" target="_top" xlink:title=" ">
<polygon fill="none" stroke="black" points="569.5,-56.5 569.5,-75.5 634.5,-75.5 634.5,-56.5 569.5,-56.5"/>
<text text-anchor="middle" x="602" y="-63.5" font-family="Helvetica,sans-Serif" font-size="10.00">types.hpp</text>
</a>
</g>
</g>
<!-- Node2&#45;&gt;Node6 -->
<g id="edge12" class="edge">
<title>Node2&#45;&gt;Node6</title>
<path fill="none" stroke="midnightblue" d="M325.2,-168.34C339.03,-154.25 368.49,-126.52 399,-112 450.94,-87.28 516.88,-75.9 559.26,-70.83"/>
<polygon fill="midnightblue" stroke="midnightblue" points="559.7,-74.3 569.24,-69.7 558.91,-67.34 559.7,-74.3"/>
</g>
<!-- Node2&#45;&gt;Node13 -->
<g id="edge13" class="edge">
<title>Node2&#45;&gt;Node13</title>
<path fill="none" stroke="midnightblue" d="M338.71,-168.44C361.35,-159.52 397.07,-145.44 422.75,-135.32"/>
<polygon fill="midnightblue" stroke="midnightblue" points="424.37,-138.44 432.39,-131.52 421.81,-131.93 424.37,-138.44"/>
</g>
<!-- Node15 -->
<g id="node15" class="node">
<title>Node15</title>
<g id="a_node15"><a xlink:title=" ">
<polygon fill="none" stroke="#bfbfbf" points="222.5,-112.5 222.5,-131.5 269.5,-131.5 269.5,-112.5 222.5,-112.5"/>
<text text-anchor="middle" x="246" y="-119.5" font-family="Helvetica,sans-Serif" font-size="10.00">vector</text>
</a>
</g>
</g>
<!-- Node2&#45;&gt;Node15 -->
<g id="edge16" class="edge">
<title>Node2&#45;&gt;Node15</title>
<path fill="none" stroke="midnightblue" d="M305.59,-168.32C294.89,-160.18 278.66,-147.84 265.84,-138.09"/>
<polygon fill="midnightblue" stroke="midnightblue" points="267.69,-135.1 257.61,-131.83 263.46,-140.67 267.69,-135.1"/>
</g>
<!-- Node16 -->
<g id="node16" class="node">
<title>Node16</title>
<g id="a_node16"><a xlink:title=" ">
<polygon fill="none" stroke="#bfbfbf" points="288,-112.5 288,-131.5 352,-131.5 352,-112.5 288,-112.5"/>
<text text-anchor="middle" x="320" y="-119.5" font-family="Helvetica,sans-Serif" font-size="10.00">algorithm</text>
</a>
</g>
</g>
<!-- Node2&#45;&gt;Node16 -->
<g id="edge17" class="edge">
<title>Node2&#45;&gt;Node16</title>
<path fill="none" stroke="midnightblue" d="M317.5,-168.08C317.89,-161.01 318.45,-150.86 318.95,-141.99"/>
<polygon fill="midnightblue" stroke="midnightblue" points="322.45,-141.93 319.51,-131.75 315.46,-141.54 322.45,-141.93"/>
</g>
<!-- Node5&#45;&gt;Node6 -->
<g id="edge5" class="edge">
<title>Node5&#45;&gt;Node6</title>
<path fill="none" stroke="midnightblue" d="M602,-112.08C602,-105.01 602,-94.86 602,-85.99"/>
<polygon fill="midnightblue" stroke="midnightblue" points="605.5,-85.75 602,-75.75 598.5,-85.75 605.5,-85.75"/>
</g>
<!-- Node7 -->
<g id="node7" class="node">
<title>Node7</title>
<g id="a_node7"><a xlink:title=" ">
<polygon fill="none" stroke="#bfbfbf" points="580,-0.5 580,-19.5 624,-19.5 624,-0.5 580,-0.5"/>
<text text-anchor="middle" x="602" y="-7.5" font-family="Helvetica,sans-Serif" font-size="10.00">string</text>
</a>
</g>
</g>
<!-- Node6&#45;&gt;Node7 -->
<g id="edge6" class="edge">
<title>Node6&#45;&gt;Node7</title>
<path fill="none" stroke="midnightblue" d="M602,-56.08C602,-49.01 602,-38.86 602,-29.99"/>
<polygon fill="midnightblue" stroke="midnightblue" points="605.5,-29.75 602,-19.75 598.5,-29.75 605.5,-29.75"/>
</g>
<!-- Node8 -->
<g id="node8" class="node">
<title>Node8</title>
<g id="a_node8"><a xlink:title=" ">
<polygon fill="none" stroke="#bfbfbf" points="642,-0.5 642,-19.5 702,-19.5 702,-0.5 642,-0.5"/>
<text text-anchor="middle" x="672" y="-7.5" font-family="Helvetica,sans-Serif" font-size="10.00">iostream</text>
</a>
</g>
</g>
<!-- Node6&#45;&gt;Node8 -->
<g id="edge7" class="edge">
<title>Node6&#45;&gt;Node8</title>
<path fill="none" stroke="midnightblue" d="M613.25,-56.32C623.8,-48.18 639.8,-35.84 652.44,-26.09"/>
<polygon fill="midnightblue" stroke="midnightblue" points="654.77,-28.71 660.55,-19.83 650.49,-23.17 654.77,-28.71"/>
</g>
<!-- Node9 -->
<g id="node9" class="node">
<title>Node9</title>
<g id="a_node9"><a xlink:title=" ">
<polygon fill="none" stroke="#bfbfbf" points="720.5,-0.5 720.5,-19.5 777.5,-19.5 777.5,-0.5 720.5,-0.5"/>
<text text-anchor="middle" x="749" y="-7.5" font-family="Helvetica,sans-Serif" font-size="10.00">cwctype</text>
</a>
</g>
</g>
<!-- Node6&#45;&gt;Node9 -->
<g id="edge8" class="edge">
<title>Node6&#45;&gt;Node9</title>
<path fill="none" stroke="midnightblue" d="M625.29,-56.44C649.81,-47.44 688.6,-33.19 716.2,-23.05"/>
<polygon fill="midnightblue" stroke="midnightblue" points="717.64,-26.25 725.82,-19.52 715.22,-19.68 717.64,-26.25"/>
</g>
<!-- Node10 -->
<g id="node10" class="node">
<title>Node10</title>
<g id="a_node10"><a xlink:title=" ">
<polygon fill="none" stroke="#bfbfbf" points="414.5,-0.5 414.5,-19.5 463.5,-19.5 463.5,-0.5 414.5,-0.5"/>
<text text-anchor="middle" x="439" y="-7.5" font-family="Helvetica,sans-Serif" font-size="10.00">cctype</text>
</a>
</g>
</g>
<!-- Node6&#45;&gt;Node10 -->
<g id="edge9" class="edge">
<title>Node6&#45;&gt;Node10</title>
<path fill="none" stroke="midnightblue" d="M576.17,-56.44C548.43,-47.25 504.2,-32.6 473.49,-22.43"/>
<polygon fill="midnightblue" stroke="midnightblue" points="474.23,-18.99 463.64,-19.16 472.03,-25.63 474.23,-18.99"/>
</g>
<!-- Node11 -->
<g id="node11" class="node">
<title>Node11</title>
<g id="a_node11"><a xlink:title=" ">
<polygon fill="none" stroke="#bfbfbf" points="813.5,-0.5 813.5,-19.5 866.5,-19.5 866.5,-0.5 813.5,-0.5"/>
<text text-anchor="middle" x="840" y="-7.5" font-family="Helvetica,sans-Serif" font-size="10.00">QString</text>
</a>
</g>
</g>
<!-- Node6&#45;&gt;Node11 -->
<g id="edge10" class="edge">
<title>Node6&#45;&gt;Node11</title>
<path fill="none" stroke="midnightblue" d="M634.59,-57.6C678.74,-47.59 757.31,-29.76 803.43,-19.3"/>
<polygon fill="midnightblue" stroke="midnightblue" points="804.32,-22.68 813.3,-17.06 802.78,-15.86 804.32,-22.68"/>
</g>
<!-- Node12 -->
<g id="node12" class="node">
<title>Node12</title>
<g id="a_node12"><a xlink:title=" ">
<polygon fill="none" stroke="#bfbfbf" points="482,-0.5 482,-19.5 562,-19.5 562,-0.5 482,-0.5"/>
<text text-anchor="middle" x="522" y="-7.5" font-family="Helvetica,sans-Serif" font-size="10.00">QTextStream</text>
</a>
</g>
</g>
<!-- Node6&#45;&gt;Node12 -->
<g id="edge11" class="edge">
<title>Node6&#45;&gt;Node12</title>
<path fill="none" stroke="midnightblue" d="M589.15,-56.32C576.78,-47.98 557.87,-35.21 543.26,-25.35"/>
<polygon fill="midnightblue" stroke="midnightblue" points="545.07,-22.35 534.82,-19.65 541.15,-28.15 545.07,-22.35"/>
</g>
<!-- Node13&#45;&gt;Node6 -->
<g id="edge15" class="edge">
<title>Node13&#45;&gt;Node6</title>
<path fill="none" stroke="midnightblue" d="M477.45,-112.44C502.13,-103.44 541.19,-89.19 568.98,-79.05"/>
<polygon fill="midnightblue" stroke="midnightblue" points="570.46,-82.23 578.66,-75.52 568.06,-75.66 570.46,-82.23"/>
</g>
<!-- Node14 -->
<g id="node14" class="node">
<title>Node14</title>
<g id="a_node14"><a xlink:title=" ">
<polygon fill="none" stroke="#bfbfbf" points="421.5,-56.5 421.5,-75.5 486.5,-75.5 486.5,-56.5 421.5,-56.5"/>
<text text-anchor="middle" x="454" y="-63.5" font-family="Helvetica,sans-Serif" font-size="10.00">stdexcept</text>
</a>
</g>
</g>
<!-- Node13&#45;&gt;Node14 -->
<g id="edge14" class="edge">
<title>Node13&#45;&gt;Node14</title>
<path fill="none" stroke="midnightblue" d="M454,-112.08C454,-105.01 454,-94.86 454,-85.99"/>
<polygon fill="midnightblue" stroke="midnightblue" points="457.5,-85.75 454,-75.75 450.5,-85.75 457.5,-85.75"/>
</g>
<!-- Node18&#45;&gt;Node5 -->
<g id="edge20" class="edge">
<title>Node18&#45;&gt;Node5</title>
<path fill="none" stroke="midnightblue" d="M684.25,-168.32C668.68,-159.74 644.62,-146.49 626.54,-136.52"/>
<polygon fill="midnightblue" stroke="midnightblue" points="628.15,-133.42 617.71,-131.65 624.78,-139.55 628.15,-133.42"/>
</g>
<!-- Node18&#45;&gt;Node6 -->
<g id="edge24" class="edge">
<title>Node18&#45;&gt;Node6</title>
<path fill="none" stroke="midnightblue" d="M711.68,-168.5C727.69,-155.8 752.97,-131.29 739,-112 717.7,-82.58 676.53,-72.05 644.86,-68.45"/>
<polygon fill="midnightblue" stroke="midnightblue" points="644.81,-64.93 634.53,-67.48 644.16,-71.9 644.81,-64.93"/>
</g>
<!-- Node18&#45;&gt;Node11 -->
<g id="edge26" class="edge">
<title>Node18&#45;&gt;Node11</title>
<path fill="none" stroke="midnightblue" d="M732.99,-168.49C772.02,-158.08 832.55,-140.79 839,-132 861.08,-101.9 852.99,-55.29 845.97,-29.59"/>
<polygon fill="midnightblue" stroke="midnightblue" points="849.23,-28.26 843.03,-19.67 842.52,-30.25 849.23,-28.26"/>
</g>
<!-- Node18&#45;&gt;Node13 -->
<g id="edge21" class="edge">
<title>Node18&#45;&gt;Node13</title>
<path fill="none" stroke="midnightblue" d="M664.49,-169.21C621.88,-159.85 550.24,-144.12 502.54,-133.65"/>
<polygon fill="midnightblue" stroke="midnightblue" points="503.26,-130.23 492.74,-131.5 501.76,-137.07 503.26,-130.23"/>
</g>
<!-- Node18&#45;&gt;Node19 -->
<g id="edge22" class="edge">
<title>Node18&#45;&gt;Node19</title>
<path fill="none" stroke="midnightblue" d="M699.67,-168.08C699.41,-161.01 699.03,-150.86 698.7,-141.99"/>
<polygon fill="midnightblue" stroke="midnightblue" points="702.19,-141.61 698.32,-131.75 695.2,-141.87 702.19,-141.61"/>
</g>
<!-- Node20 -->
<g id="node20" class="node">
<title>Node20</title>
<g id="a_node20"><a xlink:title=" ">
<polygon fill="none" stroke="#bfbfbf" points="786,-112.5 786,-131.5 830,-131.5 830,-112.5 786,-112.5"/>
<text text-anchor="middle" x="808" y="-119.5" font-family="Helvetica,sans-Serif" font-size="10.00">limits</text>
</a>
</g>
</g>
<!-- Node18&#45;&gt;Node20 -->
<g id="edge25" class="edge">
<title>Node18&#45;&gt;Node20</title>
<path fill="none" stroke="midnightblue" d="M717.35,-168.32C734.67,-159.66 761.52,-146.24 781.5,-136.25"/>
<polygon fill="midnightblue" stroke="midnightblue" points="783.31,-139.26 790.69,-131.65 780.18,-133 783.31,-139.26"/>
</g>
<!-- Node19&#45;&gt;Node6 -->
<g id="edge23" class="edge">
<title>Node19&#45;&gt;Node6</title>
<path fill="none" stroke="midnightblue" d="M682.58,-112.32C667.46,-103.82 644.18,-90.73 626.53,-80.8"/>
<polygon fill="midnightblue" stroke="midnightblue" points="627.82,-77.51 617.39,-75.65 624.39,-83.61 627.82,-77.51"/>
</g>
<!-- Node21&#45;&gt;Node6 -->
<g id="edge28" class="edge">
<title>Node21&#45;&gt;Node6</title>
<path fill="none" stroke="midnightblue" d="M551.77,-168.11C546.24,-155.14 538.22,-130.53 547,-112 553.13,-99.07 564.99,-88.62 576.14,-81.05"/>
<polygon fill="midnightblue" stroke="midnightblue" points="578.19,-83.9 584.8,-75.61 574.47,-77.97 578.19,-83.9"/>
</g>
<!-- Node21&#45;&gt;Node13 -->
<g id="edge30" class="edge">
<title>Node21&#45;&gt;Node13</title>
<path fill="none" stroke="midnightblue" d="M539.61,-168.32C523.33,-159.7 498.13,-146.36 479.28,-136.39"/>
<polygon fill="midnightblue" stroke="midnightblue" points="480.82,-133.24 470.35,-131.65 477.55,-139.43 480.82,-133.24"/>
</g>
<!-- Node21&#45;&gt;Node19 -->
<g id="edge29" class="edge">
<title>Node21&#45;&gt;Node19</title>
<path fill="none" stroke="midnightblue" d="M578.5,-168.44C602.08,-159.48 639.32,-145.31 665.96,-135.18"/>
<polygon fill="midnightblue" stroke="midnightblue" points="667.5,-138.34 675.6,-131.52 665.01,-131.8 667.5,-138.34"/>
</g>
</g>
</svg>
