<?xml version="1.0" encoding="UTF-8" standalone="no"?>
<!DOCTYPE svg PUBLIC "-//W3C//DTD SVG 1.1//EN"
 "http://www.w3.org/Graphics/SVG/1.1/DTD/svg11.dtd">
<!-- Generated by graphviz version 2.43.0 (0)
 -->
<!-- Title: tag_vector_of_tags.hpp Pages: 1 -->
<svg width="630pt" height="252pt"
 viewBox="0.00 0.00 629.74 252.00" xmlns="http://www.w3.org/2000/svg" xmlns:xlink="http://www.w3.org/1999/xlink">
<g id="graph0" class="graph" transform="scale(1 1) rotate(0) translate(4 248)">
<title>tag_vector_of_tags.hpp</title>
<!-- Node1 -->
<g id="node1" class="node">
<title>Node1</title>
<g id="a_node1"><a xlink:title=" ">
<polygon fill="#bfbfbf" stroke="black" points="422.74,-224.5 422.74,-243.5 553.74,-243.5 553.74,-224.5 422.74,-224.5"/>
<text text-anchor="middle" x="488.24" y="-231.5" font-family="Helvetica,sans-Serif" font-size="10.00">tag_vector_of_tags.hpp</text>
</a>
</g>
</g>
<!-- Node2 -->
<g id="node2" class="node">
<title>Node2</title>
<g id="a_node2"><a xlink:href="tag_8hpp.html" target="_top" xlink:title=" ">
<polygon fill="none" stroke="black" points="361.74,-168.5 361.74,-187.5 414.74,-187.5 414.74,-168.5 361.74,-168.5"/>
<text text-anchor="middle" x="388.24" y="-175.5" font-family="Helvetica,sans-Serif" font-size="10.00">tag.hpp</text>
</a>
</g>
</g>
<!-- Node1&#45;&gt;Node2 -->
<g id="edge1" class="edge">
<title>Node1&#45;&gt;Node2</title>
<path fill="none" stroke="midnightblue" d="M472.17,-224.32C456.28,-215.74 431.73,-202.49 413.28,-192.52"/>
<polygon fill="midnightblue" stroke="midnightblue" points="414.73,-189.33 404.27,-187.65 411.4,-195.49 414.73,-189.33"/>
</g>
<!-- Node6 -->
<g id="node6" class="node">
<title>Node6</title>
<g id="a_node6"><a xlink:href="types_8hpp.html" target="_top" xlink:title=" ">
<polygon fill="none" stroke="black" points="211.74,-56.5 211.74,-75.5 276.74,-75.5 276.74,-56.5 211.74,-56.5"/>
<text text-anchor="middle" x="244.24" y="-63.5" font-family="Helvetica,sans-Serif" font-size="10.00">types.hpp</text>
</a>
</g>
</g>
<!-- Node1&#45;&gt;Node6 -->
<g id="edge19" class="edge">
<title>Node1&#45;&gt;Node6</title>
<path fill="none" stroke="midnightblue" d="M422.36,-229.21C302.48,-220.78 56.22,-195.94 4.24,-132 -1.37,-125.1 -1.44,-118.84 4.24,-112 28.81,-82.4 139.18,-72.15 201.34,-68.69"/>
<polygon fill="midnightblue" stroke="midnightblue" points="201.81,-72.17 211.61,-68.16 201.45,-65.18 201.81,-72.17"/>
</g>
<!-- Node13 -->
<g id="node13" class="node">
<title>Node13</title>
<g id="a_node13"><a xlink:href="exceptions_8hpp.html" target="_top" xlink:title=" ">
<polygon fill="none" stroke="black" points="465.74,-112.5 465.74,-131.5 556.74,-131.5 556.74,-112.5 465.74,-112.5"/>
<text text-anchor="middle" x="511.24" y="-119.5" font-family="Helvetica,sans-Serif" font-size="10.00">exceptions.hpp</text>
</a>
</g>
</g>
<!-- Node1&#45;&gt;Node13 -->
<g id="edge18" class="edge">
<title>Node1&#45;&gt;Node13</title>
<path fill="none" stroke="midnightblue" d="M490.04,-224.37C493.76,-206.62 502.32,-165.67 507.35,-141.6"/>
<polygon fill="midnightblue" stroke="midnightblue" points="510.82,-142.1 509.44,-131.59 503.97,-140.66 510.82,-142.1"/>
</g>
<!-- Node15 -->
<g id="node15" class="node">
<title>Node15</title>
<g id="a_node15"><a xlink:title=" ">
<polygon fill="none" stroke="#bfbfbf" points="574.74,-112.5 574.74,-131.5 621.74,-131.5 621.74,-112.5 574.74,-112.5"/>
<text text-anchor="middle" x="598.24" y="-119.5" font-family="Helvetica,sans-Serif" font-size="10.00">vector</text>
</a>
</g>
</g>
<!-- Node1&#45;&gt;Node15 -->
<g id="edge20" class="edge">
<title>Node1&#45;&gt;Node15</title>
<path fill="none" stroke="midnightblue" d="M495.24,-224.23C505.63,-211.39 525.98,-186.95 545.24,-168 555.99,-157.42 568.88,-146.44 579.26,-137.98"/>
<polygon fill="midnightblue" stroke="midnightblue" points="581.68,-140.52 587.28,-131.52 577.29,-135.06 581.68,-140.52"/>
</g>
<!-- Node17 -->
<g id="node17" class="node">
<title>Node17</title>
<g id="a_node17"><a xlink:title=" ">
<polygon fill="none" stroke="#bfbfbf" points="554.24,-168.5 554.24,-187.5 612.24,-187.5 612.24,-168.5 554.24,-168.5"/>
<text text-anchor="middle" x="583.24" y="-175.5" font-family="Helvetica,sans-Serif" font-size="10.00">memory</text>
</a>
</g>
</g>
<!-- Node1&#45;&gt;Node17 -->
<g id="edge21" class="edge">
<title>Node1&#45;&gt;Node17</title>
<path fill="none" stroke="midnightblue" d="M503.5,-224.32C518.46,-215.82 541.49,-202.73 558.97,-192.8"/>
<polygon fill="midnightblue" stroke="midnightblue" points="561.05,-195.64 568.01,-187.65 557.59,-189.55 561.05,-195.64"/>
</g>
<!-- Node3 -->
<g id="node3" class="node">
<title>Node3</title>
<g id="a_node3"><a xlink:title=" ">
<polygon fill="none" stroke="#bfbfbf" points="205.24,-112.5 205.24,-131.5 303.24,-131.5 303.24,-112.5 205.24,-112.5"/>
<text text-anchor="middle" x="254.24" y="-119.5" font-family="Helvetica,sans-Serif" font-size="10.00">QDomDocument</text>
</a>
</g>
</g>
<!-- Node2&#45;&gt;Node3 -->
<g id="edge2" class="edge">
<title>Node2&#45;&gt;Node3</title>
<path fill="none" stroke="midnightblue" d="M367.01,-168.44C344.86,-159.52 309.92,-145.44 284.8,-135.32"/>
<polygon fill="midnightblue" stroke="midnightblue" points="285.96,-132.01 275.37,-131.52 283.34,-138.5 285.96,-132.01"/>
</g>
<!-- Node4 -->
<g id="node4" class="node">
<title>Node4</title>
<g id="a_node4"><a xlink:title=" ">
<polygon fill="none" stroke="#bfbfbf" points="321.24,-112.5 321.24,-131.5 409.24,-131.5 409.24,-112.5 321.24,-112.5"/>
<text text-anchor="middle" x="365.24" y="-119.5" font-family="Helvetica,sans-Serif" font-size="10.00">QDomElement</text>
</a>
</g>
</g>
<!-- Node2&#45;&gt;Node4 -->
<g id="edge3" class="edge">
<title>Node2&#45;&gt;Node4</title>
<path fill="none" stroke="midnightblue" d="M384.44,-168.08C381.33,-160.77 376.82,-150.18 372.95,-141.1"/>
<polygon fill="midnightblue" stroke="midnightblue" points="376.11,-139.58 368.97,-131.75 369.67,-142.32 376.11,-139.58"/>
</g>
<!-- Node5 -->
<g id="node5" class="node">
<title>Node5</title>
<g id="a_node5"><a xlink:href="parser__info_8hpp.html" target="_top" xlink:title=" ">
<polygon fill="none" stroke="black" points="13.24,-112.5 13.24,-131.5 105.24,-131.5 105.24,-112.5 13.24,-112.5"/>
<text text-anchor="middle" x="59.24" y="-119.5" font-family="Helvetica,sans-Serif" font-size="10.00">parser_info.hpp</text>
</a>
</g>
</g>
<!-- Node2&#45;&gt;Node5 -->
<g id="edge4" class="edge">
<title>Node2&#45;&gt;Node5</title>
<path fill="none" stroke="midnightblue" d="M361.6,-172.63C308.23,-163.87 187.23,-144.01 115.52,-132.24"/>
<polygon fill="midnightblue" stroke="midnightblue" points="115.75,-128.73 105.32,-130.56 114.62,-135.64 115.75,-128.73"/>
</g>
<!-- Node2&#45;&gt;Node6 -->
<g id="edge12" class="edge">
<title>Node2&#45;&gt;Node6</title>
<path fill="none" stroke="midnightblue" d="M397.78,-168.33C411.08,-155.19 432.09,-129.89 418.24,-112 402.3,-91.41 333.2,-78.55 287.03,-72.08"/>
<polygon fill="midnightblue" stroke="midnightblue" points="287.35,-68.59 276.97,-70.72 286.42,-75.53 287.35,-68.59"/>
</g>
<!-- Node2&#45;&gt;Node13 -->
<g id="edge13" class="edge">
<title>Node2&#45;&gt;Node13</title>
<path fill="none" stroke="midnightblue" d="M407.73,-168.44C427.88,-159.6 459.56,-145.69 482.57,-135.59"/>
<polygon fill="midnightblue" stroke="midnightblue" points="484.09,-138.74 491.84,-131.52 481.28,-132.33 484.09,-138.74"/>
</g>
<!-- Node2&#45;&gt;Node15 -->
<g id="edge16" class="edge">
<title>Node2&#45;&gt;Node15</title>
<path fill="none" stroke="midnightblue" d="M414.84,-170.51C447.84,-162.41 506.09,-147.94 564.71,-132.36"/>
<polygon fill="midnightblue" stroke="midnightblue" points="565.73,-135.71 574.49,-129.75 563.93,-128.95 565.73,-135.71"/>
</g>
<!-- Node16 -->
<g id="node16" class="node">
<title>Node16</title>
<g id="a_node16"><a xlink:title=" ">
<polygon fill="none" stroke="#bfbfbf" points="123.24,-112.5 123.24,-131.5 187.24,-131.5 187.24,-112.5 123.24,-112.5"/>
<text text-anchor="middle" x="155.24" y="-119.5" font-family="Helvetica,sans-Serif" font-size="10.00">algorithm</text>
</a>
</g>
</g>
<!-- Node2&#45;&gt;Node16 -->
<g id="edge17" class="edge">
<title>Node2&#45;&gt;Node16</title>
<path fill="none" stroke="midnightblue" d="M361.51,-170.81C321.42,-161.51 245.34,-143.88 197.63,-132.82"/>
<polygon fill="midnightblue" stroke="midnightblue" points="198.14,-129.35 187.61,-130.5 196.56,-136.17 198.14,-129.35"/>
</g>
<!-- Node5&#45;&gt;Node6 -->
<g id="edge5" class="edge">
<title>Node5&#45;&gt;Node6</title>
<path fill="none" stroke="midnightblue" d="M88.55,-112.44C120.08,-103.24 170.37,-88.56 205.23,-78.39"/>
<polygon fill="midnightblue" stroke="midnightblue" points="206.44,-81.68 215.06,-75.52 204.48,-74.96 206.44,-81.68"/>
</g>
<!-- Node7 -->
<g id="node7" class="node">
<title>Node7</title>
<g id="a_node7"><a xlink:title=" ">
<polygon fill="none" stroke="#bfbfbf" points="40.24,-0.5 40.24,-19.5 84.24,-19.5 84.24,-0.5 40.24,-0.5"/>
<text text-anchor="middle" x="62.24" y="-7.5" font-family="Helvetica,sans-Serif" font-size="10.00">string</text>
</a>
</g>
</g>
<!-- Node6&#45;&gt;Node7 -->
<g id="edge6" class="edge">
<title>Node6&#45;&gt;Node7</title>
<path fill="none" stroke="midnightblue" d="M215.4,-56.44C182.43,-46.66 128.6,-30.69 94.32,-20.52"/>
<polygon fill="midnightblue" stroke="midnightblue" points="94.94,-17.05 84.36,-17.56 92.95,-23.76 94.94,-17.05"/>
</g>
<!-- Node8 -->
<g id="node8" class="node">
<title>Node8</title>
<g id="a_node8"><a xlink:title=" ">
<polygon fill="none" stroke="#bfbfbf" points="102.24,-0.5 102.24,-19.5 162.24,-19.5 162.24,-0.5 102.24,-0.5"/>
<text text-anchor="middle" x="132.24" y="-7.5" font-family="Helvetica,sans-Serif" font-size="10.00">iostream</text>
</a>
</g>
</g>
<!-- Node6&#45;&gt;Node8 -->
<g id="edge7" class="edge">
<title>Node6&#45;&gt;Node8</title>
<path fill="none" stroke="midnightblue" d="M226.25,-56.32C208.2,-47.62 180.19,-34.12 159.44,-24.11"/>
<polygon fill="midnightblue" stroke="midnightblue" points="160.72,-20.84 150.19,-19.65 157.68,-27.15 160.72,-20.84"/>
</g>
<!-- Node9 -->
<g id="node9" class="node">
<title>Node9</title>
<g id="a_node9"><a xlink:title=" ">
<polygon fill="none" stroke="#bfbfbf" points="180.74,-0.5 180.74,-19.5 237.74,-19.5 237.74,-0.5 180.74,-0.5"/>
<text text-anchor="middle" x="209.24" y="-7.5" font-family="Helvetica,sans-Serif" font-size="10.00">cwctype</text>
</a>
</g>
</g>
<!-- Node6&#45;&gt;Node9 -->
<g id="edge8" class="edge">
<title>Node6&#45;&gt;Node9</title>
<path fill="none" stroke="midnightblue" d="M238.46,-56.08C233.57,-48.53 226.41,-37.49 220.41,-28.23"/>
<polygon fill="midnightblue" stroke="midnightblue" points="223.29,-26.24 214.91,-19.75 217.41,-30.05 223.29,-26.24"/>
</g>
<!-- Node10 -->
<g id="node10" class="node">
<title>Node10</title>
<g id="a_node10"><a xlink:title=" ">
<polygon fill="none" stroke="#bfbfbf" points="255.74,-0.5 255.74,-19.5 304.74,-19.5 304.74,-0.5 255.74,-0.5"/>
<text text-anchor="middle" x="280.24" y="-7.5" font-family="Helvetica,sans-Serif" font-size="10.00">cctype</text>
</a>
</g>
</g>
<!-- Node6&#45;&gt;Node10 -->
<g id="edge9" class="edge">
<title>Node6&#45;&gt;Node10</title>
<path fill="none" stroke="midnightblue" d="M250.18,-56.08C255.22,-48.53 262.58,-37.49 268.75,-28.23"/>
<polygon fill="midnightblue" stroke="midnightblue" points="271.77,-30.01 274.41,-19.75 265.95,-26.13 271.77,-30.01"/>
</g>
<!-- Node11 -->
<g id="node11" class="node">
<title>Node11</title>
<g id="a_node11"><a xlink:title=" ">
<polygon fill="none" stroke="#bfbfbf" points="322.74,-0.5 322.74,-19.5 375.74,-19.5 375.74,-0.5 322.74,-0.5"/>
<text text-anchor="middle" x="349.24" y="-7.5" font-family="Helvetica,sans-Serif" font-size="10.00">QString</text>
</a>
</g>
</g>
<!-- Node6&#45;&gt;Node11 -->
<g id="edge10" class="edge">
<title>Node6&#45;&gt;Node11</title>
<path fill="none" stroke="midnightblue" d="M261.11,-56.32C277.95,-47.66 304.05,-34.24 323.48,-24.25"/>
<polygon fill="midnightblue" stroke="midnightblue" points="325.12,-27.34 332.41,-19.65 321.92,-21.12 325.12,-27.34"/>
</g>
<!-- Node12 -->
<g id="node12" class="node">
<title>Node12</title>
<g id="a_node12"><a xlink:title=" ">
<polygon fill="none" stroke="#bfbfbf" points="394.24,-0.5 394.24,-19.5 474.24,-19.5 474.24,-0.5 394.24,-0.5"/>
<text text-anchor="middle" x="434.24" y="-7.5" font-family="Helvetica,sans-Serif" font-size="10.00">QTextStream</text>
</a>
</g>
</g>
<!-- Node6&#45;&gt;Node12 -->
<g id="edge11" class="edge">
<title>Node6&#45;&gt;Node12</title>
<path fill="none" stroke="midnightblue" d="M274.35,-56.44C306.87,-47.2 358.82,-32.44 394.63,-22.26"/>
<polygon fill="midnightblue" stroke="midnightblue" points="395.61,-25.62 404.27,-19.52 393.7,-18.88 395.61,-25.62"/>
</g>
<!-- Node13&#45;&gt;Node6 -->
<g id="edge15" class="edge">
<title>Node13&#45;&gt;Node6</title>
<path fill="none" stroke="midnightblue" d="M468.93,-112.44C419.13,-102.37 336.91,-85.74 286.94,-75.64"/>
<polygon fill="midnightblue" stroke="midnightblue" points="287.59,-72.2 277.09,-73.64 286.2,-79.06 287.59,-72.2"/>
</g>
<!-- Node14 -->
<g id="node14" class="node">
<title>Node14</title>
<g id="a_node14"><a xlink:title=" ">
<polygon fill="none" stroke="#bfbfbf" points="478.74,-56.5 478.74,-75.5 543.74,-75.5 543.74,-56.5 478.74,-56.5"/>
<text text-anchor="middle" x="511.24" y="-63.5" font-family="Helvetica,sans-Serif" font-size="10.00">stdexcept</text>
</a>
</g>
</g>
<!-- Node13&#45;&gt;Node14 -->
<g id="edge14" class="edge">
<title>Node13&#45;&gt;Node14</title>
<path fill="none" stroke="midnightblue" d="M511.24,-112.08C511.24,-105.01 511.24,-94.86 511.24,-85.99"/>
<polygon fill="midnightblue" stroke="midnightblue" points="514.74,-85.75 511.24,-75.75 507.74,-85.75 514.74,-85.75"/>
</g>
</g>
</svg>
