<?xml version="1.0" encoding="UTF-8" standalone="no"?>
<!DOCTYPE svg PUBLIC "-//W3C//DTD SVG 1.1//EN"
 "http://www.w3.org/Graphics/SVG/1.1/DTD/svg11.dtd">
<!-- Generated by graphviz version 2.43.0 (0)
 -->
<!-- Title: tag_scalar_vector.hpp Pages: 1 -->
<svg width="1066pt" height="252pt"
 viewBox="0.00 0.00 1066.00 252.00" xmlns="http://www.w3.org/2000/svg" xmlns:xlink="http://www.w3.org/1999/xlink">
<g id="graph0" class="graph" transform="scale(1 1) rotate(0) translate(4 248)">
<title>tag_scalar_vector.hpp</title>
<!-- Node1 -->
<g id="node1" class="node">
<title>Node1</title>
<g id="a_node1"><a xlink:title=" ">
<polygon fill="#bfbfbf" stroke="black" points="502.5,-224.5 502.5,-243.5 625.5,-243.5 625.5,-224.5 502.5,-224.5"/>
<text text-anchor="middle" x="564" y="-231.5" font-family="Helvetica,sans-Serif" font-size="10.00">tag_scalar_vector.hpp</text>
</a>
</g>
</g>
<!-- Node2 -->
<g id="node2" class="node">
<title>Node2</title>
<g id="a_node2"><a xlink:href="tag_8hpp.html" target="_top" xlink:title=" ">
<polygon fill="none" stroke="black" points="313.5,-168.5 313.5,-187.5 366.5,-187.5 366.5,-168.5 313.5,-168.5"/>
<text text-anchor="middle" x="340" y="-175.5" font-family="Helvetica,sans-Serif" font-size="10.00">tag.hpp</text>
</a>
</g>
</g>
<!-- Node1&#45;&gt;Node2 -->
<g id="edge1" class="edge">
<title>Node1&#45;&gt;Node2</title>
<path fill="none" stroke="midnightblue" d="M528.51,-224.44C486.91,-214.42 418.34,-197.89 376.37,-187.77"/>
<polygon fill="midnightblue" stroke="midnightblue" points="377.1,-184.34 366.56,-185.4 375.46,-191.15 377.1,-184.34"/>
</g>
<!-- Node3 -->
<g id="node3" class="node">
<title>Node3</title>
<g id="a_node3"><a xlink:title=" ">
<polygon fill="none" stroke="#bfbfbf" points="0,-112.5 0,-131.5 98,-131.5 98,-112.5 0,-112.5"/>
<text text-anchor="middle" x="49" y="-119.5" font-family="Helvetica,sans-Serif" font-size="10.00">QDomDocument</text>
</a>
</g>
</g>
<!-- Node1&#45;&gt;Node3 -->
<g id="edge34" class="edge">
<title>Node1&#45;&gt;Node3</title>
<path fill="none" stroke="midnightblue" d="M502.24,-227.42C438.12,-220.88 335.17,-208.28 248,-188 187.72,-173.98 119.59,-149.85 80.72,-135.27"/>
<polygon fill="midnightblue" stroke="midnightblue" points="81.62,-131.86 71.02,-131.6 79.14,-138.41 81.62,-131.86"/>
</g>
<!-- Node4 -->
<g id="node4" class="node">
<title>Node4</title>
<g id="a_node4"><a xlink:title=" ">
<polygon fill="none" stroke="#bfbfbf" points="116,-112.5 116,-131.5 204,-131.5 204,-112.5 116,-112.5"/>
<text text-anchor="middle" x="160" y="-119.5" font-family="Helvetica,sans-Serif" font-size="10.00">QDomElement</text>
</a>
</g>
</g>
<!-- Node1&#45;&gt;Node4 -->
<g id="edge35" class="edge">
<title>Node1&#45;&gt;Node4</title>
<path fill="none" stroke="midnightblue" d="M502.3,-226.77C448.97,-220.34 370.24,-208.32 304,-188 260.37,-174.61 212.63,-151.17 184.55,-136.4"/>
<polygon fill="midnightblue" stroke="midnightblue" points="185.94,-133.18 175.47,-131.57 182.65,-139.36 185.94,-133.18"/>
</g>
<!-- Node5 -->
<g id="node5" class="node">
<title>Node5</title>
<g id="a_node5"><a xlink:href="parser__info_8hpp.html" target="_top" xlink:title=" ">
<polygon fill="none" stroke="black" points="408,-112.5 408,-131.5 500,-131.5 500,-112.5 408,-112.5"/>
<text text-anchor="middle" x="454" y="-119.5" font-family="Helvetica,sans-Serif" font-size="10.00">parser_info.hpp</text>
</a>
</g>
</g>
<!-- Node1&#45;&gt;Node5 -->
<g id="edge33" class="edge">
<title>Node1&#45;&gt;Node5</title>
<path fill="none" stroke="midnightblue" d="M555.37,-224.37C536.89,-205.89 493.29,-162.29 469.74,-138.74"/>
<polygon fill="midnightblue" stroke="midnightblue" points="472.14,-136.19 462.59,-131.59 467.19,-141.14 472.14,-136.19"/>
</g>
<!-- Node6 -->
<g id="node6" class="node">
<title>Node6</title>
<g id="a_node6"><a xlink:href="types_8hpp.html" target="_top" xlink:title=" ">
<polygon fill="none" stroke="black" points="622.5,-56.5 622.5,-75.5 687.5,-75.5 687.5,-56.5 622.5,-56.5"/>
<text text-anchor="middle" x="655" y="-63.5" font-family="Helvetica,sans-Serif" font-size="10.00">types.hpp</text>
</a>
</g>
</g>
<!-- Node1&#45;&gt;Node6 -->
<g id="edge31" class="edge">
<title>Node1&#45;&gt;Node6</title>
<path fill="none" stroke="midnightblue" d="M625.65,-230.28C691.17,-226 788.64,-215.13 813,-188 835.6,-162.83 837.47,-138.93 817,-112 802.57,-93.01 740.56,-79.93 697.59,-72.95"/>
<polygon fill="midnightblue" stroke="midnightblue" points="698.08,-69.49 687.66,-71.39 696.99,-76.4 698.08,-69.49"/>
</g>
<!-- Node13 -->
<g id="node13" class="node">
<title>Node13</title>
<g id="a_node13"><a xlink:href="exceptions_8hpp.html" target="_top" xlink:title=" ">
<polygon fill="none" stroke="black" points="518.5,-112.5 518.5,-131.5 609.5,-131.5 609.5,-112.5 518.5,-112.5"/>
<text text-anchor="middle" x="564" y="-119.5" font-family="Helvetica,sans-Serif" font-size="10.00">exceptions.hpp</text>
</a>
</g>
</g>
<!-- Node1&#45;&gt;Node13 -->
<g id="edge32" class="edge">
<title>Node1&#45;&gt;Node13</title>
<path fill="none" stroke="midnightblue" d="M564,-224.37C564,-206.62 564,-165.67 564,-141.6"/>
<polygon fill="midnightblue" stroke="midnightblue" points="567.5,-141.59 564,-131.59 560.5,-141.59 567.5,-141.59"/>
</g>
<!-- Node15 -->
<g id="node15" class="node">
<title>Node15</title>
<g id="a_node15"><a xlink:title=" ">
<polygon fill="none" stroke="#bfbfbf" points="342.5,-112.5 342.5,-131.5 389.5,-131.5 389.5,-112.5 342.5,-112.5"/>
<text text-anchor="middle" x="366" y="-119.5" font-family="Helvetica,sans-Serif" font-size="10.00">vector</text>
</a>
</g>
</g>
<!-- Node1&#45;&gt;Node15 -->
<g id="edge37" class="edge">
<title>Node1&#45;&gt;Node15</title>
<path fill="none" stroke="midnightblue" d="M548.46,-224.37C514.12,-205.29 431.56,-159.42 390.31,-136.51"/>
<polygon fill="midnightblue" stroke="midnightblue" points="391.91,-133.39 381.46,-131.59 388.51,-139.51 391.91,-133.39"/>
</g>
<!-- Node17 -->
<g id="node17" class="node">
<title>Node17</title>
<g id="a_node17"><a xlink:href="constraint_8hpp.html" target="_top" xlink:title=" ">
<polygon fill="none" stroke="black" points="886,-168.5 886,-187.5 972,-187.5 972,-168.5 886,-168.5"/>
<text text-anchor="middle" x="929" y="-175.5" font-family="Helvetica,sans-Serif" font-size="10.00">constraint.hpp</text>
</a>
</g>
</g>
<!-- Node1&#45;&gt;Node17 -->
<g id="edge18" class="edge">
<title>Node1&#45;&gt;Node17</title>
<path fill="none" stroke="midnightblue" d="M623.65,-224.49C685.72,-215.59 785.72,-201.11 872,-188 873.25,-187.81 874.52,-187.62 875.8,-187.42"/>
<polygon fill="midnightblue" stroke="midnightblue" points="876.4,-190.87 885.75,-185.88 875.33,-183.95 876.4,-190.87"/>
</g>
<!-- Node18 -->
<g id="node18" class="node">
<title>Node18</title>
<g id="a_node18"><a xlink:href="format_8hpp.html" target="_top" xlink:title=" ">
<polygon fill="none" stroke="black" points="602.5,-168.5 602.5,-187.5 673.5,-187.5 673.5,-168.5 602.5,-168.5"/>
<text text-anchor="middle" x="638" y="-175.5" font-family="Helvetica,sans-Serif" font-size="10.00">format.hpp</text>
</a>
</g>
</g>
<!-- Node1&#45;&gt;Node18 -->
<g id="edge19" class="edge">
<title>Node1&#45;&gt;Node18</title>
<path fill="none" stroke="midnightblue" d="M575.89,-224.32C587.15,-216.11 604.29,-203.6 617.71,-193.81"/>
<polygon fill="midnightblue" stroke="midnightblue" points="619.88,-196.56 625.89,-187.83 615.75,-190.9 619.88,-196.56"/>
</g>
<!-- Node21 -->
<g id="node21" class="node">
<title>Node21</title>
<g id="a_node21"><a xlink:href="string__format_8hpp.html" target="_top" xlink:title=" ">
<polygon fill="none" stroke="black" points="700,-168.5 700,-187.5 804,-187.5 804,-168.5 700,-168.5"/>
<text text-anchor="middle" x="752" y="-175.5" font-family="Helvetica,sans-Serif" font-size="10.00">string_format.hpp</text>
</a>
</g>
</g>
<!-- Node1&#45;&gt;Node21 -->
<g id="edge27" class="edge">
<title>Node1&#45;&gt;Node21</title>
<path fill="none" stroke="midnightblue" d="M593.79,-224.44C625.83,-215.24 676.93,-200.56 712.35,-190.39"/>
<polygon fill="midnightblue" stroke="midnightblue" points="713.71,-193.64 722.35,-187.52 711.77,-186.91 713.71,-193.64"/>
</g>
<!-- Node22 -->
<g id="node22" class="node">
<title>Node22</title>
<g id="a_node22"><a xlink:title=" ">
<polygon fill="none" stroke="#bfbfbf" points="990,-168.5 990,-187.5 1058,-187.5 1058,-168.5 990,-168.5"/>
<text text-anchor="middle" x="1024" y="-175.5" font-family="Helvetica,sans-Serif" font-size="10.00">QDomText</text>
</a>
</g>
</g>
<!-- Node1&#45;&gt;Node22 -->
<g id="edge36" class="edge">
<title>Node1&#45;&gt;Node22</title>
<path fill="none" stroke="midnightblue" d="M625.72,-228.26C705.27,-221.72 848.02,-208.55 979.53,-188.09"/>
<polygon fill="midnightblue" stroke="midnightblue" points="980.45,-191.49 989.79,-186.48 979.37,-184.58 980.45,-191.49"/>
</g>
<!-- Node2&#45;&gt;Node3 -->
<g id="edge2" class="edge">
<title>Node2&#45;&gt;Node3</title>
<path fill="none" stroke="midnightblue" d="M313.4,-172.06C266.36,-163.33 167.52,-144.99 104.91,-133.38"/>
<polygon fill="midnightblue" stroke="midnightblue" points="105.28,-129.88 94.81,-131.5 104,-136.77 105.28,-129.88"/>
</g>
<!-- Node2&#45;&gt;Node4 -->
<g id="edge3" class="edge">
<title>Node2&#45;&gt;Node4</title>
<path fill="none" stroke="midnightblue" d="M313.44,-169.03C283,-159.9 232.86,-144.86 198.22,-134.47"/>
<polygon fill="midnightblue" stroke="midnightblue" points="199.04,-131.06 188.45,-131.54 197.03,-137.76 199.04,-131.06"/>
</g>
<!-- Node2&#45;&gt;Node5 -->
<g id="edge4" class="edge">
<title>Node2&#45;&gt;Node5</title>
<path fill="none" stroke="midnightblue" d="M358.06,-168.44C376.57,-159.68 405.58,-145.94 426.86,-135.86"/>
<polygon fill="midnightblue" stroke="midnightblue" points="428.48,-138.96 436.02,-131.52 425.49,-132.63 428.48,-138.96"/>
</g>
<!-- Node2&#45;&gt;Node6 -->
<g id="edge12" class="edge">
<title>Node2&#45;&gt;Node6</title>
<path fill="none" stroke="midnightblue" d="M335.38,-168.19C328.87,-154.41 319.23,-127.7 333,-112 373.34,-65.99 545.55,-85.53 606,-76 608.07,-75.67 610.19,-75.33 612.32,-74.97"/>
<polygon fill="midnightblue" stroke="midnightblue" points="613.1,-78.39 622.36,-73.23 611.91,-71.49 613.1,-78.39"/>
</g>
<!-- Node2&#45;&gt;Node13 -->
<g id="edge13" class="edge">
<title>Node2&#45;&gt;Node13</title>
<path fill="none" stroke="midnightblue" d="M366.58,-170.59C404.07,-161.55 473.01,-144.94 518.68,-133.92"/>
<polygon fill="midnightblue" stroke="midnightblue" points="519.72,-137.27 528.62,-131.53 518.08,-130.47 519.72,-137.27"/>
</g>
<!-- Node2&#45;&gt;Node15 -->
<g id="edge16" class="edge">
<title>Node2&#45;&gt;Node15</title>
<path fill="none" stroke="midnightblue" d="M344.29,-168.08C347.85,-160.69 353.02,-149.95 357.42,-140.81"/>
<polygon fill="midnightblue" stroke="midnightblue" points="360.6,-142.28 361.79,-131.75 354.29,-139.24 360.6,-142.28"/>
</g>
<!-- Node16 -->
<g id="node16" class="node">
<title>Node16</title>
<g id="a_node16"><a xlink:title=" ">
<polygon fill="none" stroke="#bfbfbf" points="222,-112.5 222,-131.5 286,-131.5 286,-112.5 222,-112.5"/>
<text text-anchor="middle" x="254" y="-119.5" font-family="Helvetica,sans-Serif" font-size="10.00">algorithm</text>
</a>
</g>
</g>
<!-- Node2&#45;&gt;Node16 -->
<g id="edge17" class="edge">
<title>Node2&#45;&gt;Node16</title>
<path fill="none" stroke="midnightblue" d="M326.18,-168.32C312.77,-159.9 292.18,-146.97 276.41,-137.07"/>
<polygon fill="midnightblue" stroke="midnightblue" points="278.11,-134.01 267.78,-131.65 274.39,-139.94 278.11,-134.01"/>
</g>
<!-- Node5&#45;&gt;Node6 -->
<g id="edge5" class="edge">
<title>Node5&#45;&gt;Node6</title>
<path fill="none" stroke="midnightblue" d="M485.85,-112.44C520.4,-103.16 575.68,-88.31 613.58,-78.13"/>
<polygon fill="midnightblue" stroke="midnightblue" points="614.55,-81.49 623.3,-75.52 612.73,-74.73 614.55,-81.49"/>
</g>
<!-- Node7 -->
<g id="node7" class="node">
<title>Node7</title>
<g id="a_node7"><a xlink:title=" ">
<polygon fill="none" stroke="#bfbfbf" points="633,-0.5 633,-19.5 677,-19.5 677,-0.5 633,-0.5"/>
<text text-anchor="middle" x="655" y="-7.5" font-family="Helvetica,sans-Serif" font-size="10.00">string</text>
</a>
</g>
</g>
<!-- Node6&#45;&gt;Node7 -->
<g id="edge6" class="edge">
<title>Node6&#45;&gt;Node7</title>
<path fill="none" stroke="midnightblue" d="M655,-56.08C655,-49.01 655,-38.86 655,-29.99"/>
<polygon fill="midnightblue" stroke="midnightblue" points="658.5,-29.75 655,-19.75 651.5,-29.75 658.5,-29.75"/>
</g>
<!-- Node8 -->
<g id="node8" class="node">
<title>Node8</title>
<g id="a_node8"><a xlink:title=" ">
<polygon fill="none" stroke="#bfbfbf" points="695,-0.5 695,-19.5 755,-19.5 755,-0.5 695,-0.5"/>
<text text-anchor="middle" x="725" y="-7.5" font-family="Helvetica,sans-Serif" font-size="10.00">iostream</text>
</a>
</g>
</g>
<!-- Node6&#45;&gt;Node8 -->
<g id="edge7" class="edge">
<title>Node6&#45;&gt;Node8</title>
<path fill="none" stroke="midnightblue" d="M666.25,-56.32C676.8,-48.18 692.8,-35.84 705.44,-26.09"/>
<polygon fill="midnightblue" stroke="midnightblue" points="707.77,-28.71 713.55,-19.83 703.49,-23.17 707.77,-28.71"/>
</g>
<!-- Node9 -->
<g id="node9" class="node">
<title>Node9</title>
<g id="a_node9"><a xlink:title=" ">
<polygon fill="none" stroke="#bfbfbf" points="773.5,-0.5 773.5,-19.5 830.5,-19.5 830.5,-0.5 773.5,-0.5"/>
<text text-anchor="middle" x="802" y="-7.5" font-family="Helvetica,sans-Serif" font-size="10.00">cwctype</text>
</a>
</g>
</g>
<!-- Node6&#45;&gt;Node9 -->
<g id="edge8" class="edge">
<title>Node6&#45;&gt;Node9</title>
<path fill="none" stroke="midnightblue" d="M678.29,-56.44C702.81,-47.44 741.6,-33.19 769.2,-23.05"/>
<polygon fill="midnightblue" stroke="midnightblue" points="770.64,-26.25 778.82,-19.52 768.22,-19.68 770.64,-26.25"/>
</g>
<!-- Node10 -->
<g id="node10" class="node">
<title>Node10</title>
<g id="a_node10"><a xlink:title=" ">
<polygon fill="none" stroke="#bfbfbf" points="467.5,-0.5 467.5,-19.5 516.5,-19.5 516.5,-0.5 467.5,-0.5"/>
<text text-anchor="middle" x="492" y="-7.5" font-family="Helvetica,sans-Serif" font-size="10.00">cctype</text>
</a>
</g>
</g>
<!-- Node6&#45;&gt;Node10 -->
<g id="edge9" class="edge">
<title>Node6&#45;&gt;Node10</title>
<path fill="none" stroke="midnightblue" d="M629.17,-56.44C601.43,-47.25 557.2,-32.6 526.49,-22.43"/>
<polygon fill="midnightblue" stroke="midnightblue" points="527.23,-18.99 516.64,-19.16 525.03,-25.63 527.23,-18.99"/>
</g>
<!-- Node11 -->
<g id="node11" class="node">
<title>Node11</title>
<g id="a_node11"><a xlink:title=" ">
<polygon fill="none" stroke="#bfbfbf" points="862.5,-0.5 862.5,-19.5 915.5,-19.5 915.5,-0.5 862.5,-0.5"/>
<text text-anchor="middle" x="889" y="-7.5" font-family="Helvetica,sans-Serif" font-size="10.00">QString</text>
</a>
</g>
</g>
<!-- Node6&#45;&gt;Node11 -->
<g id="edge10" class="edge">
<title>Node6&#45;&gt;Node11</title>
<path fill="none" stroke="midnightblue" d="M687.54,-57.49C730.76,-47.52 806.91,-29.94 852.19,-19.49"/>
<polygon fill="midnightblue" stroke="midnightblue" points="853.22,-22.85 862.18,-17.19 851.65,-16.03 853.22,-22.85"/>
</g>
<!-- Node12 -->
<g id="node12" class="node">
<title>Node12</title>
<g id="a_node12"><a xlink:title=" ">
<polygon fill="none" stroke="#bfbfbf" points="535,-0.5 535,-19.5 615,-19.5 615,-0.5 535,-0.5"/>
<text text-anchor="middle" x="575" y="-7.5" font-family="Helvetica,sans-Serif" font-size="10.00">QTextStream</text>
</a>
</g>
</g>
<!-- Node6&#45;&gt;Node12 -->
<g id="edge11" class="edge">
<title>Node6&#45;&gt;Node12</title>
<path fill="none" stroke="midnightblue" d="M642.15,-56.32C629.78,-47.98 610.87,-35.21 596.26,-25.35"/>
<polygon fill="midnightblue" stroke="midnightblue" points="598.07,-22.35 587.82,-19.65 594.15,-28.15 598.07,-22.35"/>
</g>
<!-- Node13&#45;&gt;Node6 -->
<g id="edge15" class="edge">
<title>Node13&#45;&gt;Node6</title>
<path fill="none" stroke="midnightblue" d="M578.62,-112.32C592.95,-103.82 615.01,-90.73 631.75,-80.8"/>
<polygon fill="midnightblue" stroke="midnightblue" points="633.6,-83.77 640.42,-75.65 630.03,-77.75 633.6,-83.77"/>
</g>
<!-- Node14 -->
<g id="node14" class="node">
<title>Node14</title>
<g id="a_node14"><a xlink:title=" ">
<polygon fill="none" stroke="#bfbfbf" points="531.5,-56.5 531.5,-75.5 596.5,-75.5 596.5,-56.5 531.5,-56.5"/>
<text text-anchor="middle" x="564" y="-63.5" font-family="Helvetica,sans-Serif" font-size="10.00">stdexcept</text>
</a>
</g>
</g>
<!-- Node13&#45;&gt;Node14 -->
<g id="edge14" class="edge">
<title>Node13&#45;&gt;Node14</title>
<path fill="none" stroke="midnightblue" d="M564,-112.08C564,-105.01 564,-94.86 564,-85.99"/>
<polygon fill="midnightblue" stroke="midnightblue" points="567.5,-85.75 564,-75.75 560.5,-85.75 567.5,-85.75"/>
</g>
<!-- Node18&#45;&gt;Node5 -->
<g id="edge20" class="edge">
<title>Node18&#45;&gt;Node5</title>
<path fill="none" stroke="midnightblue" d="M608.84,-168.44C577.49,-159.24 527.47,-144.56 492.8,-134.39"/>
<polygon fill="midnightblue" stroke="midnightblue" points="493.6,-130.97 483.02,-131.52 491.63,-137.69 493.6,-130.97"/>
</g>
<!-- Node18&#45;&gt;Node6 -->
<g id="edge24" class="edge">
<title>Node18&#45;&gt;Node6</title>
<path fill="none" stroke="midnightblue" d="M639.33,-168.37C642.08,-150.62 648.41,-109.67 652.13,-85.6"/>
<polygon fill="midnightblue" stroke="midnightblue" points="655.6,-86.01 653.67,-75.59 648.69,-84.94 655.6,-86.01"/>
</g>
<!-- Node18&#45;&gt;Node11 -->
<g id="edge26" class="edge">
<title>Node18&#45;&gt;Node11</title>
<path fill="none" stroke="midnightblue" d="M673.52,-170.06C714.95,-161.48 780.42,-146.25 801,-132 839.84,-105.11 867.9,-55.36 880.9,-28.8"/>
<polygon fill="midnightblue" stroke="midnightblue" points="884.16,-30.09 885.27,-19.56 877.84,-27.1 884.16,-30.09"/>
</g>
<!-- Node18&#45;&gt;Node13 -->
<g id="edge21" class="edge">
<title>Node18&#45;&gt;Node13</title>
<path fill="none" stroke="midnightblue" d="M626.11,-168.32C614.85,-160.11 597.71,-147.6 584.29,-137.81"/>
<polygon fill="midnightblue" stroke="midnightblue" points="586.25,-134.9 576.11,-131.83 582.12,-140.56 586.25,-134.9"/>
</g>
<!-- Node19 -->
<g id="node19" class="node">
<title>Node19</title>
<g id="a_node19"><a xlink:href="const_8hpp.html" target="_top" xlink:title=" ">
<polygon fill="none" stroke="black" points="728,-112.5 728,-131.5 792,-131.5 792,-112.5 728,-112.5"/>
<text text-anchor="middle" x="760" y="-119.5" font-family="Helvetica,sans-Serif" font-size="10.00">const.hpp</text>
</a>
</g>
</g>
<!-- Node18&#45;&gt;Node19 -->
<g id="edge22" class="edge">
<title>Node18&#45;&gt;Node19</title>
<path fill="none" stroke="midnightblue" d="M657.33,-168.44C677.32,-159.6 708.74,-145.69 731.56,-135.59"/>
<polygon fill="midnightblue" stroke="midnightblue" points="733.03,-138.76 740.76,-131.52 730.2,-132.36 733.03,-138.76"/>
</g>
<!-- Node20 -->
<g id="node20" class="node">
<title>Node20</title>
<g id="a_node20"><a xlink:title=" ">
<polygon fill="none" stroke="#bfbfbf" points="666,-112.5 666,-131.5 710,-131.5 710,-112.5 666,-112.5"/>
<text text-anchor="middle" x="688" y="-119.5" font-family="Helvetica,sans-Serif" font-size="10.00">limits</text>
</a>
</g>
</g>
<!-- Node18&#45;&gt;Node20 -->
<g id="edge25" class="edge">
<title>Node18&#45;&gt;Node20</title>
<path fill="none" stroke="midnightblue" d="M646.26,-168.08C653.46,-160.3 664.11,-148.8 672.85,-139.37"/>
<polygon fill="midnightblue" stroke="midnightblue" points="675.67,-141.47 679.9,-131.75 670.53,-136.71 675.67,-141.47"/>
</g>
<!-- Node19&#45;&gt;Node6 -->
<g id="edge23" class="edge">
<title>Node19&#45;&gt;Node6</title>
<path fill="none" stroke="midnightblue" d="M743.13,-112.32C726.29,-103.66 700.19,-90.24 680.76,-80.25"/>
<polygon fill="midnightblue" stroke="midnightblue" points="682.32,-77.12 671.83,-75.65 679.12,-83.34 682.32,-77.12"/>
</g>
<!-- Node21&#45;&gt;Node6 -->
<g id="edge28" class="edge">
<title>Node21&#45;&gt;Node6</title>
<path fill="none" stroke="midnightblue" d="M766.71,-168.42C786.08,-156.02 816.02,-132.35 801,-112 777.52,-80.19 731.87,-70.17 697.84,-67.34"/>
<polygon fill="midnightblue" stroke="midnightblue" points="697.9,-63.84 687.69,-66.68 697.44,-70.83 697.9,-63.84"/>
</g>
<!-- Node21&#45;&gt;Node13 -->
<g id="edge30" class="edge">
<title>Node21&#45;&gt;Node13</title>
<path fill="none" stroke="midnightblue" d="M722.21,-168.44C690.17,-159.24 639.07,-144.56 603.65,-134.39"/>
<polygon fill="midnightblue" stroke="midnightblue" points="604.23,-130.91 593.65,-131.52 602.29,-137.64 604.23,-130.91"/>
</g>
<!-- Node21&#45;&gt;Node19 -->
<g id="edge29" class="edge">
<title>Node21&#45;&gt;Node19</title>
<path fill="none" stroke="midnightblue" d="M753.32,-168.08C754.38,-160.93 755.91,-150.64 757.23,-141.69"/>
<polygon fill="midnightblue" stroke="midnightblue" points="760.7,-142.16 758.7,-131.75 753.78,-141.13 760.7,-142.16"/>
</g>
</g>
</svg>
