<?xml version="1.0" encoding="UTF-8" standalone="no"?>
<!DOCTYPE svg PUBLIC "-//W3C//DTD SVG 1.1//EN"
 "http://www.w3.org/Graphics/SVG/1.1/DTD/svg11.dtd">
<!-- Generated by graphviz version 2.38.0 (20140413.2041)
 -->
<!-- Title: tag_scalar.hpp Pages: 1 -->
<!--zoomable 252 -->
<svg id="main" version="1.1" xmlns="http://www.w3.org/2000/svg" xmlns:xlink="http://www.w3.org/1999/xlink" xml:space="preserve" onload="init(evt)">
<style type="text/css"><![CDATA[
.edge:hover path { stroke: red; }
.edge:hover polygon { stroke: red; fill: red; }
]]></style>
<script type="text/javascript"><![CDATA[
var edges = document.getElementsByTagName('g');
if (edges && edges.length) {
  for (var i=0;i<edges.length;i++) {
    if (edges[i].id.substr(0,4)=='edge') {
      edges[i].setAttribute('class','edge');
    }
  }
}
]]></script>
        <defs>
                <circle id="rim" cx="0" cy="0" r="7"/>
                <circle id="rim2" cx="0" cy="0" r="3.5"/>
                <g id="zoomPlus">
                        <use xlink:href="#rim" fill="#404040">
                                <set attributeName="fill" to="#808080" begin="zoomplus.mouseover" end="zoomplus.mouseout"/>
                        </use>
                        <path d="M-4,0h8M0,-4v8" fill="none" stroke="white" stroke-width="1.5" pointer-events="none"/>
                </g>
                <g id="zoomMin">
                        <use xlink:href="#rim" fill="#404040">
                                <set attributeName="fill" to="#808080" begin="zoomminus.mouseover" end="zoomminus.mouseout"/>
                        </use>
                        <path d="M-4,0h8" fill="none" stroke="white" stroke-width="1.5" pointer-events="none"/>
                </g>
                <g id="dirArrow">
                        <path fill="none" stroke="white" stroke-width="1.5" d="M0,-3.0v7 M-2.5,-0.5L0,-3.0L2.5,-0.5"/>
                </g>
               <g id="resetDef">
                       <use xlink:href="#rim2" fill="#404040">
                               <set attributeName="fill" to="#808080" begin="reset.mouseover" end="reset.mouseout"/>
                       </use>
               </g>
        </defs>

<script type="text/javascript">
var viewWidth = 822;
var viewHeight = 252;
var sectionId = 'dynsection-0';
</script>
<script xlink:href="svgpan.js"/>
<svg id="graph" class="graph">
<g id="viewport">
<title>tag_scalar.hpp</title>
<!-- Node1 -->
<g id="node1" class="node"><title>Node1</title>
<polygon fill="#bfbfbf" stroke="black" points="377,-224.5 377,-243.5 457,-243.5 457,-224.5 377,-224.5"/>
<text text-anchor="middle" x="417" y="-231.5" font-family="Helvetica,sans-Serif" font-size="10.00">tag_scalar.hpp</text>
</g>
<!-- Node2 -->
<g id="node2" class="node"><title>Node2</title>
<g id="a_node2"><a xlink:href="tag_8hpp.html" target="_top" xlink:title="tag.hpp">
<polygon fill="none" stroke="black" points="272.5,-168.5 272.5,-187.5 321.5,-187.5 321.5,-168.5 272.5,-168.5"/>
<text text-anchor="middle" x="297" y="-175.5" font-family="Helvetica,sans-Serif" font-size="10.00">tag.hpp</text>
</a>
</g>
</g>
<!-- Node1&#45;&gt;Node2 -->
<g id="edge1" class="edge"><title>Node1&#45;&gt;Node2</title>
<path fill="none" stroke="midnightblue" d="M397.986,-224.444C378.412,-215.636 347.692,-201.812 325.271,-191.722"/>
<polygon fill="midnightblue" stroke="midnightblue" points="326.481,-188.428 315.925,-187.516 323.608,-194.812 326.481,-188.428"/>
</g>
<!-- Node3 -->
<g id="node3" class="node"><title>Node3</title>
<polygon fill="none" stroke="#bfbfbf" points="0,-112.5 0,-131.5 90,-131.5 90,-112.5 0,-112.5"/>
<text text-anchor="middle" x="45" y="-119.5" font-family="Helvetica,sans-Serif" font-size="10.00">QDomDocument</text>
</g>
<!-- Node1&#45;&gt;Node3 -->
<g id="edge33" class="edge"><title>Node1&#45;&gt;Node3</title>
<path fill="none" stroke="midnightblue" d="M376.818,-225.345C336.923,-217.378 274.198,-203.859 221,-188 168.866,-172.458 109.847,-149.53 75.1155,-135.468"/>
<polygon fill="midnightblue" stroke="midnightblue" points="76.1516,-132.111 65.5702,-131.578 73.5101,-138.593 76.1516,-132.111"/>
</g>
<!-- Node4 -->
<g id="node4" class="node"><title>Node4</title>
<polygon fill="none" stroke="#bfbfbf" points="108.5,-112.5 108.5,-131.5 189.5,-131.5 189.5,-112.5 108.5,-112.5"/>
<text text-anchor="middle" x="149" y="-119.5" font-family="Helvetica,sans-Serif" font-size="10.00">QDomElement</text>
</g>
<!-- Node1&#45;&gt;Node4 -->
<g id="edge34" class="edge"><title>Node1&#45;&gt;Node4</title>
<path fill="none" stroke="midnightblue" d="M378.803,-224.483C347.107,-216.794 301.206,-204.21 263,-188 229.233,-173.674 192.849,-151.658 170.495,-137.292"/>
<polygon fill="midnightblue" stroke="midnightblue" points="172.113,-134.169 161.823,-131.647 168.295,-140.035 172.113,-134.169"/>
</g>
<!-- Node13 -->
<g id="node13" class="node"><title>Node13</title>
<g id="a_node13"><a xlink:href="exceptions_8hpp.html" target="_top" xlink:title="exceptions.hpp">
<polygon fill="none" stroke="black" points="382.5,-112.5 382.5,-131.5 465.5,-131.5 465.5,-112.5 382.5,-112.5"/>
<text text-anchor="middle" x="424" y="-119.5" font-family="Helvetica,sans-Serif" font-size="10.00">exceptions.hpp</text>
</a>
</g>
</g>
<!-- Node1&#45;&gt;Node13 -->
<g id="edge31" class="edge"><title>Node1&#45;&gt;Node13</title>
<path fill="none" stroke="midnightblue" d="M402.77,-224.461C385.079,-212.667 358.427,-190.311 369,-168 375.128,-155.068 386.994,-144.617 398.141,-137.053"/>
<polygon fill="midnightblue" stroke="midnightblue" points="400.195,-139.896 406.802,-131.614 396.472,-133.968 400.195,-139.896"/>
</g>
<!-- Node17 -->
<g id="node17" class="node"><title>Node17</title>
<g id="a_node17"><a xlink:href="constraint_8hpp.html" target="_top" xlink:title="constraint.hpp">
<polygon fill="none" stroke="black" points="378,-168.5 378,-187.5 456,-187.5 456,-168.5 378,-168.5"/>
<text text-anchor="middle" x="417" y="-175.5" font-family="Helvetica,sans-Serif" font-size="10.00">constraint.hpp</text>
</a>
</g>
</g>
<!-- Node1&#45;&gt;Node17 -->
<g id="edge18" class="edge"><title>Node1&#45;&gt;Node17</title>
<path fill="none" stroke="midnightblue" d="M417,-224.083C417,-217.006 417,-206.861 417,-197.986"/>
<polygon fill="midnightblue" stroke="midnightblue" points="420.5,-197.751 417,-187.751 413.5,-197.751 420.5,-197.751"/>
</g>
<!-- Node18 -->
<g id="node18" class="node"><title>Node18</title>
<g id="a_node18"><a xlink:href="format_8hpp.html" target="_top" xlink:title="format.hpp">
<polygon fill="none" stroke="black" points="622.5,-168.5 622.5,-187.5 685.5,-187.5 685.5,-168.5 622.5,-168.5"/>
<text text-anchor="middle" x="654" y="-175.5" font-family="Helvetica,sans-Serif" font-size="10.00">format.hpp</text>
</a>
</g>
</g>
<!-- Node1&#45;&gt;Node18 -->
<g id="edge19" class="edge"><title>Node1&#45;&gt;Node18</title>
<path fill="none" stroke="midnightblue" d="M454.553,-224.444C497.54,-214.649 567.75,-198.652 612.374,-188.484"/>
<polygon fill="midnightblue" stroke="midnightblue" points="613.338,-191.854 622.311,-186.22 611.783,-185.029 613.338,-191.854"/>
</g>
<!-- Node19 -->
<g id="node19" class="node"><title>Node19</title>
<g id="a_node19"><a xlink:href="const_8hpp.html" target="_top" xlink:title="const.hpp">
<polygon fill="none" stroke="black" points="623.5,-112.5 623.5,-131.5 682.5,-131.5 682.5,-112.5 623.5,-112.5"/>
<text text-anchor="middle" x="653" y="-119.5" font-family="Helvetica,sans-Serif" font-size="10.00">const.hpp</text>
</a>
</g>
</g>
<!-- Node1&#45;&gt;Node19 -->
<g id="edge32" class="edge"><title>Node1&#45;&gt;Node19</title>
<path fill="none" stroke="midnightblue" d="M457.041,-226.393C490.066,-219.841 537.426,-207.854 575,-188 599.196,-175.215 622.732,-154.031 637.509,-139.338"/>
<polygon fill="midnightblue" stroke="midnightblue" points="640.264,-141.527 644.766,-131.937 635.266,-136.626 640.264,-141.527"/>
</g>
<!-- Node21 -->
<g id="node21" class="node"><title>Node21</title>
<g id="a_node21"><a xlink:href="string__format_8hpp.html" target="_top" xlink:title="string_format.hpp">
<polygon fill="none" stroke="black" points="474,-168.5 474,-187.5 566,-187.5 566,-168.5 474,-168.5"/>
<text text-anchor="middle" x="520" y="-175.5" font-family="Helvetica,sans-Serif" font-size="10.00">string_format.hpp</text>
</a>
</g>
</g>
<!-- Node1&#45;&gt;Node21 -->
<g id="edge27" class="edge"><title>Node1&#45;&gt;Node21</title>
<path fill="none" stroke="midnightblue" d="M433.549,-224.324C449.992,-215.703 475.435,-202.364 494.468,-192.386"/>
<polygon fill="midnightblue" stroke="midnightblue" points="496.261,-195.398 503.492,-187.655 493.011,-189.198 496.261,-195.398"/>
</g>
<!-- Node22 -->
<g id="node22" class="node"><title>Node22</title>
<polygon fill="none" stroke="#bfbfbf" points="703.5,-168.5 703.5,-187.5 768.5,-187.5 768.5,-168.5 703.5,-168.5"/>
<text text-anchor="middle" x="736" y="-175.5" font-family="Helvetica,sans-Serif" font-size="10.00">QDomText</text>
</g>
<!-- Node1&#45;&gt;Node22 -->
<g id="edge35" class="edge"><title>Node1&#45;&gt;Node22</title>
<path fill="none" stroke="midnightblue" d="M457.175,-227.214C509.38,-219.537 603.588,-205.149 693.293,-188.247"/>
<polygon fill="midnightblue" stroke="midnightblue" points="694.188,-191.64 703.36,-186.336 692.883,-184.763 694.188,-191.64"/>
</g>
<!-- Node2&#45;&gt;Node3 -->
<g id="edge2" class="edge"><title>Node2&#45;&gt;Node3</title>
<path fill="none" stroke="midnightblue" d="M272.378,-171.724C231.424,-162.948 148.52,-145.183 94.9401,-133.701"/>
<polygon fill="midnightblue" stroke="midnightblue" points="95.4763,-130.237 84.9649,-131.564 94.0096,-137.082 95.4763,-130.237"/>
</g>
<!-- Node2&#45;&gt;Node4 -->
<g id="edge3" class="edge"><title>Node2&#45;&gt;Node4</title>
<path fill="none" stroke="midnightblue" d="M273.549,-168.444C248.867,-159.438 209.815,-145.189 182.023,-135.049"/>
<polygon fill="midnightblue" stroke="midnightblue" points="182.935,-131.656 172.341,-131.516 180.536,-138.232 182.935,-131.656"/>
</g>
<!-- Node5 -->
<g id="node5" class="node"><title>Node5</title>
<g id="a_node5"><a xlink:href="parser__info_8hpp.html" target="_top" xlink:title="parser_info.hpp">
<polygon fill="none" stroke="black" points="522.5,-112.5 522.5,-131.5 605.5,-131.5 605.5,-112.5 522.5,-112.5"/>
<text text-anchor="middle" x="564" y="-119.5" font-family="Helvetica,sans-Serif" font-size="10.00">parser_info.hpp</text>
</a>
</g>
</g>
<!-- Node2&#45;&gt;Node5 -->
<g id="edge4" class="edge"><title>Node2&#45;&gt;Node5</title>
<path fill="none" stroke="midnightblue" d="M321.64,-172.017C364.752,-163.297 454.731,-145.099 512.098,-133.497"/>
<polygon fill="midnightblue" stroke="midnightblue" points="512.953,-136.895 522.061,-131.482 511.566,-130.034 512.953,-136.895"/>
</g>
<!-- Node6 -->
<g id="node6" class="node"><title>Node6</title>
<g id="a_node6"><a xlink:href="types_8hpp.html" target="_top" xlink:title="types.hpp">
<polygon fill="none" stroke="black" points="534.5,-56.5 534.5,-75.5 593.5,-75.5 593.5,-56.5 534.5,-56.5"/>
<text text-anchor="middle" x="564" y="-63.5" font-family="Helvetica,sans-Serif" font-size="10.00">types.hpp</text>
</a>
</g>
</g>
<!-- Node2&#45;&gt;Node6 -->
<g id="edge12" class="edge"><title>Node2&#45;&gt;Node6</title>
<path fill="none" stroke="midnightblue" d="M304.48,-168.355C317.13,-154.303 344.2,-126.61 373,-112 421.667,-87.3115 484.213,-75.9005 524.213,-70.8172"/>
<polygon fill="midnightblue" stroke="midnightblue" points="524.858,-74.2651 534.371,-69.6011 524.026,-67.3148 524.858,-74.2651"/>
</g>
<!-- Node2&#45;&gt;Node13 -->
<g id="edge13" class="edge"><title>Node2&#45;&gt;Node13</title>
<path fill="none" stroke="midnightblue" d="M317.124,-168.444C338.024,-159.557 370.935,-145.563 394.716,-135.451"/>
<polygon fill="midnightblue" stroke="midnightblue" points="396.138,-138.65 403.971,-131.516 393.398,-132.208 396.138,-138.65"/>
</g>
<!-- Node15 -->
<g id="node15" class="node"><title>Node15</title>
<polygon fill="none" stroke="#bfbfbf" points="208,-112.5 208,-131.5 252,-131.5 252,-112.5 208,-112.5"/>
<text text-anchor="middle" x="230" y="-119.5" font-family="Helvetica,sans-Serif" font-size="10.00">vector</text>
</g>
<!-- Node2&#45;&gt;Node15 -->
<g id="edge16" class="edge"><title>Node2&#45;&gt;Node15</title>
<path fill="none" stroke="midnightblue" d="M286.235,-168.324C276.234,-160.263 261.113,-148.077 249.07,-138.369"/>
<polygon fill="midnightblue" stroke="midnightblue" points="250.943,-135.384 240.961,-131.834 246.55,-140.834 250.943,-135.384"/>
</g>
<!-- Node16 -->
<g id="node16" class="node"><title>Node16</title>
<polygon fill="none" stroke="#bfbfbf" points="270,-112.5 270,-131.5 326,-131.5 326,-112.5 270,-112.5"/>
<text text-anchor="middle" x="298" y="-119.5" font-family="Helvetica,sans-Serif" font-size="10.00">algorithm</text>
</g>
<!-- Node2&#45;&gt;Node16 -->
<g id="edge17" class="edge"><title>Node2&#45;&gt;Node16</title>
<path fill="none" stroke="midnightblue" d="M297.165,-168.083C297.296,-161.006 297.484,-150.861 297.648,-141.986"/>
<polygon fill="midnightblue" stroke="midnightblue" points="301.152,-141.814 297.838,-131.751 294.153,-141.685 301.152,-141.814"/>
</g>
<!-- Node5&#45;&gt;Node6 -->
<g id="edge5" class="edge"><title>Node5&#45;&gt;Node6</title>
<path fill="none" stroke="midnightblue" d="M564,-112.083C564,-105.006 564,-94.8611 564,-85.9865"/>
<polygon fill="midnightblue" stroke="midnightblue" points="567.5,-85.751 564,-75.7511 560.5,-85.7511 567.5,-85.751"/>
</g>
<!-- Node7 -->
<g id="node7" class="node"><title>Node7</title>
<polygon fill="none" stroke="#bfbfbf" points="543.5,-0.5 543.5,-19.5 584.5,-19.5 584.5,-0.5 543.5,-0.5"/>
<text text-anchor="middle" x="564" y="-7.5" font-family="Helvetica,sans-Serif" font-size="10.00">string</text>
</g>
<!-- Node6&#45;&gt;Node7 -->
<g id="edge6" class="edge"><title>Node6&#45;&gt;Node7</title>
<path fill="none" stroke="midnightblue" d="M564,-56.083C564,-49.0059 564,-38.8611 564,-29.9865"/>
<polygon fill="midnightblue" stroke="midnightblue" points="567.5,-29.751 564,-19.7511 560.5,-29.7511 567.5,-29.751"/>
</g>
<!-- Node8 -->
<g id="node8" class="node"><title>Node8</title>
<polygon fill="none" stroke="#bfbfbf" points="603,-0.5 603,-19.5 657,-19.5 657,-0.5 603,-0.5"/>
<text text-anchor="middle" x="630" y="-7.5" font-family="Helvetica,sans-Serif" font-size="10.00">iostream</text>
</g>
<!-- Node6&#45;&gt;Node8 -->
<g id="edge7" class="edge"><title>Node6&#45;&gt;Node8</title>
<path fill="none" stroke="midnightblue" d="M574.604,-56.324C584.456,-48.2631 599.351,-36.0765 611.215,-26.3695"/>
<polygon fill="midnightblue" stroke="midnightblue" points="613.68,-28.8752 619.203,-19.8339 609.247,-23.4575 613.68,-28.8752"/>
</g>
<!-- Node9 -->
<g id="node9" class="node"><title>Node9</title>
<polygon fill="none" stroke="#bfbfbf" points="675.5,-0.5 675.5,-19.5 728.5,-19.5 728.5,-0.5 675.5,-0.5"/>
<text text-anchor="middle" x="702" y="-7.5" font-family="Helvetica,sans-Serif" font-size="10.00">cwctype</text>
</g>
<!-- Node6&#45;&gt;Node9 -->
<g id="edge8" class="edge"><title>Node6&#45;&gt;Node9</title>
<path fill="none" stroke="midnightblue" d="M585.867,-56.4435C608.779,-47.4776 644.975,-33.314 670.866,-23.1827"/>
<polygon fill="midnightblue" stroke="midnightblue" points="672.199,-26.4198 680.236,-19.5164 669.648,-19.9011 672.199,-26.4198"/>
</g>
<!-- Node10 -->
<g id="node10" class="node"><title>Node10</title>
<polygon fill="none" stroke="#bfbfbf" points="386,-0.5 386,-19.5 432,-19.5 432,-0.5 386,-0.5"/>
<text text-anchor="middle" x="409" y="-7.5" font-family="Helvetica,sans-Serif" font-size="10.00">cctype</text>
</g>
<!-- Node6&#45;&gt;Node10 -->
<g id="edge9" class="edge"><title>Node6&#45;&gt;Node10</title>
<path fill="none" stroke="midnightblue" d="M539.44,-56.4435C513.172,-47.2922 471.362,-32.726 442.18,-22.5594"/>
<polygon fill="midnightblue" stroke="midnightblue" points="443.026,-19.1478 432.431,-19.1629 440.723,-25.7581 443.026,-19.1478"/>
</g>
<!-- Node11 -->
<g id="node11" class="node"><title>Node11</title>
<polygon fill="none" stroke="#bfbfbf" points="764,-0.5 764,-19.5 814,-19.5 814,-0.5 764,-0.5"/>
<text text-anchor="middle" x="789" y="-7.5" font-family="Helvetica,sans-Serif" font-size="10.00">QString</text>
</g>
<!-- Node6&#45;&gt;Node11 -->
<g id="edge10" class="edge"><title>Node6&#45;&gt;Node11</title>
<path fill="none" stroke="midnightblue" d="M593.878,-57.8292C635.268,-47.8957 709.911,-29.9814 753.903,-19.4232"/>
<polygon fill="midnightblue" stroke="midnightblue" points="754.953,-22.7708 763.86,-17.0336 753.319,-15.9641 754.953,-22.7708"/>
</g>
<!-- Node12 -->
<g id="node12" class="node"><title>Node12</title>
<polygon fill="none" stroke="#bfbfbf" points="450.5,-0.5 450.5,-19.5 525.5,-19.5 525.5,-0.5 450.5,-0.5"/>
<text text-anchor="middle" x="488" y="-7.5" font-family="Helvetica,sans-Serif" font-size="10.00">QTextStream</text>
</g>
<!-- Node6&#45;&gt;Node12 -->
<g id="edge11" class="edge"><title>Node6&#45;&gt;Node12</title>
<path fill="none" stroke="midnightblue" d="M551.789,-56.324C540.224,-48.1066 522.625,-35.6017 508.839,-25.8069"/>
<polygon fill="midnightblue" stroke="midnightblue" points="510.612,-22.7729 500.433,-19.8339 506.557,-28.4791 510.612,-22.7729"/>
</g>
<!-- Node13&#45;&gt;Node6 -->
<g id="edge15" class="edge"><title>Node13&#45;&gt;Node6</title>
<path fill="none" stroke="midnightblue" d="M446.183,-112.444C469.428,-103.478 506.149,-89.314 532.415,-79.1827"/>
<polygon fill="midnightblue" stroke="midnightblue" points="533.85,-82.3807 541.92,-75.5164 531.331,-75.8497 533.85,-82.3807"/>
</g>
<!-- Node14 -->
<g id="node14" class="node"><title>Node14</title>
<polygon fill="none" stroke="#bfbfbf" points="394.5,-56.5 394.5,-75.5 453.5,-75.5 453.5,-56.5 394.5,-56.5"/>
<text text-anchor="middle" x="424" y="-63.5" font-family="Helvetica,sans-Serif" font-size="10.00">stdexcept</text>
</g>
<!-- Node13&#45;&gt;Node14 -->
<g id="edge14" class="edge"><title>Node13&#45;&gt;Node14</title>
<path fill="none" stroke="midnightblue" d="M424,-112.083C424,-105.006 424,-94.8611 424,-85.9865"/>
<polygon fill="midnightblue" stroke="midnightblue" points="427.5,-85.751 424,-75.7511 420.5,-85.7511 427.5,-85.751"/>
</g>
<!-- Node18&#45;&gt;Node5 -->
<g id="edge20" class="edge"><title>Node18&#45;&gt;Node5</title>
<path fill="none" stroke="midnightblue" d="M639.54,-168.324C625.5,-159.9 603.952,-146.971 587.457,-137.074"/>
<polygon fill="midnightblue" stroke="midnightblue" points="588.8,-133.798 578.424,-131.655 585.198,-139.801 588.8,-133.798"/>
</g>
<!-- Node18&#45;&gt;Node6 -->
<g id="edge24" class="edge"><title>Node18&#45;&gt;Node6</title>
<path fill="none" stroke="midnightblue" d="M665.655,-168.292C681.289,-155.535 705.601,-131.199 692,-112 672.146,-83.9742 633.384,-73.2752 603.694,-69.2573"/>
<polygon fill="midnightblue" stroke="midnightblue" points="603.951,-65.7639 593.617,-68.0973 603.151,-72.7179 603.951,-65.7639"/>
</g>
<!-- Node18&#45;&gt;Node11 -->
<g id="edge26" class="edge"><title>Node18&#45;&gt;Node11</title>
<path fill="none" stroke="midnightblue" d="M685.485,-168.495C723.104,-158.021 781.786,-140.567 788,-132 809.919,-101.781 801.89,-55.2117 794.928,-29.5522"/>
<polygon fill="midnightblue" stroke="midnightblue" points="798.194,-28.2559 792.008,-19.6551 791.481,-30.2369 798.194,-28.2559"/>
</g>
<!-- Node18&#45;&gt;Node13 -->
<g id="edge21" class="edge"><title>Node18&#45;&gt;Node13</title>
<path fill="none" stroke="midnightblue" d="M622.019,-169.492C582.544,-160.223 515.123,-144.394 470.07,-133.817"/>
<polygon fill="midnightblue" stroke="midnightblue" points="470.789,-130.39 460.254,-131.512 469.189,-137.205 470.789,-130.39"/>
</g>
<!-- Node18&#45;&gt;Node19 -->
<g id="edge22" class="edge"><title>Node18&#45;&gt;Node19</title>
<path fill="none" stroke="midnightblue" d="M653.835,-168.083C653.704,-161.006 653.516,-150.861 653.352,-141.986"/>
<polygon fill="midnightblue" stroke="midnightblue" points="656.847,-141.685 653.162,-131.751 649.848,-141.814 656.847,-141.685"/>
</g>
<!-- Node20 -->
<g id="node20" class="node"><title>Node20</title>
<polygon fill="none" stroke="#bfbfbf" points="739,-112.5 739,-131.5 779,-131.5 779,-112.5 739,-112.5"/>
<text text-anchor="middle" x="759" y="-119.5" font-family="Helvetica,sans-Serif" font-size="10.00">limits</text>
</g>
<!-- Node18&#45;&gt;Node20 -->
<g id="edge25" class="edge"><title>Node18&#45;&gt;Node20</title>
<path fill="none" stroke="midnightblue" d="M670.87,-168.324C687.709,-159.664 713.807,-146.242 733.238,-136.249"/>
<polygon fill="midnightblue" stroke="midnightblue" points="734.88,-139.341 742.172,-131.655 731.678,-133.116 734.88,-139.341"/>
</g>
<!-- Node19&#45;&gt;Node6 -->
<g id="edge23" class="edge"><title>Node19&#45;&gt;Node6</title>
<path fill="none" stroke="midnightblue" d="M638.701,-112.324C624.817,-103.9 603.508,-90.9709 587.196,-81.0741"/>
<polygon fill="midnightblue" stroke="midnightblue" points="588.629,-77.8495 578.264,-75.6545 584.998,-83.8341 588.629,-77.8495"/>
</g>
<!-- Node21&#45;&gt;Node6 -->
<g id="edge28" class="edge"><title>Node21&#45;&gt;Node6</title>
<path fill="none" stroke="midnightblue" d="M516.533,-168.142C512.039,-155.199 505.701,-130.634 514,-112 519.568,-99.4981 530.516,-89.0124 540.751,-81.3167"/>
<polygon fill="midnightblue" stroke="midnightblue" points="542.851,-84.1193 549.048,-75.5256 538.844,-78.3794 542.851,-84.1193"/>
</g>
<!-- Node21&#45;&gt;Node13 -->
<g id="edge30" class="edge"><title>Node21&#45;&gt;Node13</title>
<path fill="none" stroke="midnightblue" d="M504.576,-168.324C489.46,-159.822 466.185,-146.729 448.529,-136.797"/>
<polygon fill="midnightblue" stroke="midnightblue" points="449.817,-133.507 439.386,-131.655 446.386,-139.608 449.817,-133.507"/>
</g>
<!-- Node21&#45;&gt;Node19 -->
<g id="edge29" class="edge"><title>Node21&#45;&gt;Node19</title>
<path fill="none" stroke="midnightblue" d="M541.074,-168.444C563.06,-159.517 597.734,-145.439 622.664,-135.317"/>
<polygon fill="midnightblue" stroke="midnightblue" points="624.076,-138.521 632.024,-131.516 621.442,-132.035 624.076,-138.521"/>
</g>
</g>
</svg>
        <g id="navigator" transform="translate(0 0)" fill="#404254">
                <rect fill="#f2f5e9" fill-opacity="0.5" stroke="#606060" stroke-width=".5" x="0" y="0" width="60" height="60"/>
                <use id="zoomplus" xlink:href="#zoomPlus" x="17" y="9" onmousedown="handleZoom(evt,'in')"/>
                <use id="zoomminus" xlink:href="#zoomMin" x="42" y="9" onmousedown="handleZoom(evt,'out')"/>
                <use id="reset" xlink:href="#resetDef" x="30" y="36" onmousedown="handleReset()"/>
                <g id="arrowUp" xlink:href="#dirArrow" transform="translate(30 24)" onmousedown="handlePan(0,-1)">
                  <use xlink:href="#rim" fill="#404040">
                        <set attributeName="fill" to="#808080" begin="arrowUp.mouseover" end="arrowUp.mouseout"/>
                  </use>
                  <path fill="none" stroke="white" stroke-width="1.5" d="M0,-3.0v7 M-2.5,-0.5L0,-3.0L2.5,-0.5"/>
                </g>
                <g id="arrowRight" xlink:href="#dirArrow" transform="rotate(90) translate(36 -43)" onmousedown="handlePan(1,0)">
                  <use xlink:href="#rim" fill="#404040">
                        <set attributeName="fill" to="#808080" begin="arrowRight.mouseover" end="arrowRight.mouseout"/>
                  </use>
                  <path fill="none" stroke="white" stroke-width="1.5" d="M0,-3.0v7 M-2.5,-0.5L0,-3.0L2.5,-0.5"/>
                </g>
                <g id="arrowDown" xlink:href="#dirArrow" transform="rotate(180) translate(-30 -48)" onmousedown="handlePan(0,1)">
                  <use xlink:href="#rim" fill="#404040">
                        <set attributeName="fill" to="#808080" begin="arrowDown.mouseover" end="arrowDown.mouseout"/>
                  </use>
                  <path fill="none" stroke="white" stroke-width="1.5" d="M0,-3.0v7 M-2.5,-0.5L0,-3.0L2.5,-0.5"/>
                </g>
                <g id="arrowLeft" xlink:href="#dirArrow" transform="rotate(270) translate(-36 17)" onmousedown="handlePan(-1,0)">
                  <use xlink:href="#rim" fill="#404040">
                        <set attributeName="fill" to="#808080" begin="arrowLeft.mouseover" end="arrowLeft.mouseout"/>
                  </use>
                  <path fill="none" stroke="white" stroke-width="1.5" d="M0,-3.0v7 M-2.5,-0.5L0,-3.0L2.5,-0.5"/>
                </g>
        </g>
        <svg viewBox="0 0 15 15" width="100%" height="30px" preserveAspectRatio="xMaxYMin meet">
         <g id="arrow_out" transform="scale(0.3 0.3)">
          <a xlink:href="tag__scalar_8hpp__incl_org.svg" target="_base">
           <rect id="button" ry="5" rx="5" y="6" x="6" height="38" width="38"
                fill="#f2f5e9" fill-opacity="0.5" stroke="#606060" stroke-width="1.0"/>
           <path id="arrow"
             d="M 11.500037,31.436501 C 11.940474,20.09759 22.043105,11.32322 32.158766,21.979434 L 37.068811,17.246167 C 37.068811,17.246167 37.088388,32 37.088388,32 L 22.160133,31.978069 C 22.160133,31.978069 26.997745,27.140456 26.997745,27.140456 C 18.528582,18.264221 13.291696,25.230495 11.500037,31.436501 z"
             style="fill:#404040;"/>
          </a>
         </g>
        </svg>
</svg>
