<?xml version="1.0" encoding="UTF-8" standalone="no"?>
<!DOCTYPE svg PUBLIC "-//W3C//DTD SVG 1.1//EN"
 "http://www.w3.org/Graphics/SVG/1.1/DTD/svg11.dtd">
<!-- Generated by graphviz version 2.38.0 (20140413.2041)
 -->
<!-- Title: tag.hpp Pages: 1 -->
<svg width="491pt" height="196pt"
 viewBox="0.00 0.00 490.50 196.00" xmlns="http://www.w3.org/2000/svg" xmlns:xlink="http://www.w3.org/1999/xlink">
<g id="graph0" class="graph" transform="scale(1 1) rotate(0) translate(4 192)">
<title>tag.hpp</title>
<!-- Node1 -->
<g id="node1" class="node"><title>Node1</title>
<polygon fill="#bfbfbf" stroke="black" points="141.5,-168.5 141.5,-187.5 190.5,-187.5 190.5,-168.5 141.5,-168.5"/>
<text text-anchor="middle" x="166" y="-175.5" font-family="Helvetica,sans-Serif" font-size="10.00">tag.hpp</text>
</g>
<!-- Node2 -->
<g id="node2" class="node"><title>Node2</title>
<g id="a_node2"><a xlink:href="parser_8hpp.html" target="_top" xlink:title="parser.hpp">
<polygon fill="none" stroke="black" points="0,-112.5 0,-131.5 62,-131.5 62,-112.5 0,-112.5"/>
<text text-anchor="middle" x="31" y="-119.5" font-family="Helvetica,sans-Serif" font-size="10.00">parser.hpp</text>
</a>
</g>
</g>
<!-- Node1&#45;&gt;Node2 -->
<g id="edge1" class="edge"><title>Node1&#45;&gt;Node2</title>
<path fill="none" stroke="midnightblue" d="M135.094,-164.638C109.76,-154.504 74.5686,-140.427 52.2911,-131.516"/>
<polygon fill="midnightblue" stroke="midnightblue" points="134.024,-167.979 144.609,-168.444 136.624,-161.48 134.024,-167.979"/>
</g>
<!-- Node3 -->
<g id="node3" class="node"><title>Node3</title>
<g id="a_node3"><a xlink:href="all_8hpp.html" target="_top" xlink:title="all.hpp">
<polygon fill="none" stroke="black" points="180.5,-0.5 180.5,-19.5 225.5,-19.5 225.5,-0.5 180.5,-0.5"/>
<text text-anchor="middle" x="203" y="-7.5" font-family="Helvetica,sans-Serif" font-size="10.00">all.hpp</text>
</a>
</g>
</g>
<!-- Node1&#45;&gt;Node3 -->
<g id="edge5" class="edge"><title>Node1&#45;&gt;Node3</title>
<path fill="none" stroke="midnightblue" d="M156.995,-159.136C146,-134.664 130.756,-89.8929 147,-56 154.924,-39.4667 172.213,-27.0831 185.498,-19.5351"/>
<polygon fill="midnightblue" stroke="midnightblue" points="153.891,-160.759 161.342,-168.29 160.214,-157.756 153.891,-160.759"/>
</g>
<!-- Node4 -->
<g id="node4" class="node"><title>Node4</title>
<g id="a_node4"><a xlink:href="utils_8hpp.html" target="_top" xlink:title="utils.hpp">
<polygon fill="none" stroke="black" points="46.5,-56.5 46.5,-75.5 99.5,-75.5 99.5,-56.5 46.5,-56.5"/>
<text text-anchor="middle" x="73" y="-63.5" font-family="Helvetica,sans-Serif" font-size="10.00">utils.hpp</text>
</a>
</g>
</g>
<!-- Node1&#45;&gt;Node4 -->
<g id="edge14" class="edge"><title>Node1&#45;&gt;Node4</title>
<path fill="none" stroke="midnightblue" d="M145.946,-161.972C135.725,-153.761 123.485,-143.034 114,-132 98.1701,-113.586 84.1257,-88.5015 77.3289,-75.538"/>
<polygon fill="midnightblue" stroke="midnightblue" points="143.919,-164.83 153.953,-168.23 148.229,-159.314 143.919,-164.83"/>
</g>
<!-- Node5 -->
<g id="node5" class="node"><title>Node5</title>
<g id="a_node5"><a xlink:href="tag__no__value_8hpp.html" target="_top" xlink:title="tag_no_value.hpp">
<polygon fill="none" stroke="black" points="156.5,-56.5 156.5,-75.5 249.5,-75.5 249.5,-56.5 156.5,-56.5"/>
<text text-anchor="middle" x="203" y="-63.5" font-family="Helvetica,sans-Serif" font-size="10.00">tag_no_value.hpp</text>
</a>
</g>
</g>
<!-- Node1&#45;&gt;Node5 -->
<g id="edge6" class="edge"><title>Node1&#45;&gt;Node5</title>
<path fill="none" stroke="midnightblue" d="M172.164,-158.674C180.253,-134.625 194.124,-93.3881 200.11,-75.5914"/>
<polygon fill="midnightblue" stroke="midnightblue" points="168.774,-157.774 168.903,-168.368 175.409,-160.006 168.774,-157.774"/>
</g>
<!-- Node6 -->
<g id="node6" class="node"><title>Node6</title>
<g id="a_node6"><a xlink:href="tag__scalar_8hpp.html" target="_top" xlink:title="tag_scalar.hpp">
<polygon fill="none" stroke="black" points="268,-56.5 268,-75.5 348,-75.5 348,-56.5 268,-56.5"/>
<text text-anchor="middle" x="308" y="-63.5" font-family="Helvetica,sans-Serif" font-size="10.00">tag_scalar.hpp</text>
</a>
</g>
</g>
<!-- Node1&#45;&gt;Node6 -->
<g id="edge8" class="edge"><title>Node1&#45;&gt;Node6</title>
<path fill="none" stroke="midnightblue" d="M178.291,-159.778C188.959,-145.691 205.421,-125.896 223,-112 242.78,-96.365 268.799,-83.5182 286.814,-75.6101"/>
<polygon fill="midnightblue" stroke="midnightblue" points="175.278,-157.966 172.163,-168.092 180.913,-162.119 175.278,-157.966"/>
</g>
<!-- Node7 -->
<g id="node7" class="node"><title>Node7</title>
<g id="a_node7"><a xlink:href="tag__scalar__vector_8hpp.html" target="_top" xlink:title="tag_scalar_vector.hpp">
<polygon fill="none" stroke="black" points="232.5,-112.5 232.5,-131.5 345.5,-131.5 345.5,-112.5 232.5,-112.5"/>
<text text-anchor="middle" x="289" y="-119.5" font-family="Helvetica,sans-Serif" font-size="10.00">tag_scalar_vector.hpp</text>
</a>
</g>
</g>
<!-- Node1&#45;&gt;Node7 -->
<g id="edge10" class="edge"><title>Node1&#45;&gt;Node7</title>
<path fill="none" stroke="midnightblue" d="M194.773,-164.368C217.807,-154.255 249.484,-140.349 269.601,-131.516"/>
<polygon fill="midnightblue" stroke="midnightblue" points="193.239,-161.219 185.49,-168.444 196.053,-167.628 193.239,-161.219"/>
</g>
<!-- Node8 -->
<g id="node8" class="node"><title>Node8</title>
<g id="a_node8"><a xlink:href="tag__vector__of__tags_8hpp.html" target="_top" xlink:title="tag_vector_of_tags.hpp">
<polygon fill="none" stroke="black" points="363.5,-112.5 363.5,-131.5 482.5,-131.5 482.5,-112.5 363.5,-112.5"/>
<text text-anchor="middle" x="423" y="-119.5" font-family="Helvetica,sans-Serif" font-size="10.00">tag_vector_of_tags.hpp</text>
</a>
</g>
</g>
<!-- Node1&#45;&gt;Node8 -->
<g id="edge12" class="edge"><title>Node1&#45;&gt;Node8</title>
<path fill="none" stroke="midnightblue" d="M200.697,-169.71C247.964,-159.778 332.426,-142.031 382.523,-131.505"/>
<polygon fill="midnightblue" stroke="midnightblue" points="199.709,-166.341 190.642,-171.822 201.148,-173.191 199.709,-166.341"/>
</g>
<!-- Node2&#45;&gt;Node3 -->
<g id="edge2" class="edge"><title>Node2&#45;&gt;Node3</title>
<path fill="none" stroke="midnightblue" d="M27.4478,-102.086C25.9039,-87.8103 26.4121,-68.5944 37,-56 55.398,-34.1154 139.16,-19.7914 180.201,-13.9627"/>
<polygon fill="midnightblue" stroke="midnightblue" points="24.0284,-102.885 28.9726,-112.255 30.951,-101.847 24.0284,-102.885"/>
</g>
<!-- Node2&#45;&gt;Node4 -->
<g id="edge3" class="edge"><title>Node2&#45;&gt;Node4</title>
<path fill="none" stroke="midnightblue" d="M44.1102,-104.144C51.4278,-94.7357 60.2409,-83.4046 66.1936,-75.7511"/>
<polygon fill="midnightblue" stroke="midnightblue" points="41.3122,-102.041 37.9354,-112.083 46.8376,-106.338 41.3122,-102.041"/>
</g>
<!-- Node4&#45;&gt;Node3 -->
<g id="edge4" class="edge"><title>Node4&#45;&gt;Node3</title>
<path fill="none" stroke="midnightblue" d="M103.085,-52.503C127.457,-42.3795 161.14,-28.388 182.497,-19.5164"/>
<polygon fill="midnightblue" stroke="midnightblue" points="101.491,-49.3752 93.5989,-56.4435 104.177,-55.8397 101.491,-49.3752"/>
</g>
<!-- Node5&#45;&gt;Node3 -->
<g id="edge7" class="edge"><title>Node5&#45;&gt;Node3</title>
<path fill="none" stroke="midnightblue" d="M203,-45.8045C203,-36.9102 203,-26.7798 203,-19.7511"/>
<polygon fill="midnightblue" stroke="midnightblue" points="199.5,-46.083 203,-56.083 206.5,-46.083 199.5,-46.083"/>
</g>
<!-- Node6&#45;&gt;Node3 -->
<g id="edge9" class="edge"><title>Node6&#45;&gt;Node3</title>
<path fill="none" stroke="midnightblue" d="M282.19,-51.7261C262.747,-41.7271 236.652,-28.3065 219.828,-19.6545"/>
<polygon fill="midnightblue" stroke="midnightblue" points="280.636,-54.8629 291.13,-56.324 283.838,-48.6379 280.636,-54.8629"/>
</g>
<!-- Node7&#45;&gt;Node3 -->
<g id="edge11" class="edge"><title>Node7&#45;&gt;Node3</title>
<path fill="none" stroke="midnightblue" d="M319.408,-108.131C343.988,-95.8551 372.2,-76.2777 357,-56 341.17,-34.8826 264.392,-20.3712 225.572,-14.2571"/>
<polygon fill="midnightblue" stroke="midnightblue" points="317.801,-105.019 310.264,-112.464 320.799,-111.345 317.801,-105.019"/>
</g>
<!-- Node8&#45;&gt;Node3 -->
<g id="edge13" class="edge"><title>Node8&#45;&gt;Node3</title>
<path fill="none" stroke="midnightblue" d="M413.996,-103.204C405.606,-88.4032 391.734,-67.9014 374,-56 327.481,-24.78 260.383,-15.2033 225.689,-12.2777"/>
<polygon fill="midnightblue" stroke="midnightblue" points="411.097,-105.205 418.908,-112.364 417.266,-101.897 411.097,-105.205"/>
</g>
</g>
</svg>
