<?xml version="1.0" encoding="UTF-8" standalone="no"?>
<!DOCTYPE svg PUBLIC "-//W3C//DTD SVG 1.1//EN"
 "http://www.w3.org/Graphics/SVG/1.1/DTD/svg11.dtd">
<!-- Generated by graphviz version 2.43.0 (0)
 -->
<!-- Title: tag_scalar_vector.hpp Pages: 1 -->
<svg width="992pt" height="247pt"
 viewBox="0.00 0.00 991.71 247.00" xmlns="http://www.w3.org/2000/svg" xmlns:xlink="http://www.w3.org/1999/xlink">
<g id="graph0" class="graph" transform="scale(1 1) rotate(0) translate(4 243)">
<title>tag_scalar_vector.hpp</title>
<!-- Node1 -->
<g id="Node000001" class="node">
<title>Node1</title>
<g id="a_Node000001"><a xlink:title=" ">
<polygon fill="#999999" stroke="#666666" points="521.21,-239 398.21,-239 398.21,-220 521.21,-220 521.21,-239"/>
<text text-anchor="middle" x="459.71" y="-227" font-family="Helvetica,sans-Serif" font-size="10.00">tag_scalar_vector.hpp</text>
</a>
</g>
</g>
<!-- Node2 -->
<g id="Node000002" class="node">
<title>Node2</title>
<g id="a_Node000002"><a xlink:href="tag_8hpp.html" target="_top" xlink:title=" ">
<polygon fill="white" stroke="#666666" points="365.21,-184 312.21,-184 312.21,-165 365.21,-165 365.21,-184"/>
<text text-anchor="middle" x="338.71" y="-172" font-family="Helvetica,sans-Serif" font-size="10.00">tag.hpp</text>
</a>
</g>
</g>
<!-- Node1&#45;&gt;Node2 -->
<g id="edge1_Node000001_Node000002" class="edge">
<title>Node1&#45;&gt;Node2</title>
<g id="a_edge1_Node000001_Node000002"><a xlink:title=" ">
<path fill="none" stroke="#63b8ff" d="M440.27,-219.98C420.72,-211.42 390.33,-198.11 367.89,-188.28"/>
<polygon fill="#63b8ff" stroke="#63b8ff" points="369.07,-184.98 358.51,-184.17 366.26,-191.39 369.07,-184.98"/>
</a>
</g>
</g>
<!-- Node3 -->
<g id="Node000003" class="node">
<title>Node3</title>
<g id="a_Node000003"><a xlink:title=" ">
<polygon fill="#e0e0e0" stroke="#999999" points="117.71,-129 19.71,-129 19.71,-110 117.71,-110 117.71,-129"/>
<text text-anchor="middle" x="68.71" y="-117" font-family="Helvetica,sans-Serif" font-size="10.00">QDomDocument</text>
</a>
</g>
</g>
<!-- Node1&#45;&gt;Node3 -->
<g id="edge35_Node000001_Node000003" class="edge">
<title>Node1&#45;&gt;Node3</title>
<g id="a_edge35_Node000001_Node000003"><a xlink:title=" ">
<path fill="none" stroke="#63b8ff" d="M414.45,-219.97C373.28,-211.88 311.01,-198.78 257.71,-184 202.07,-168.57 138.69,-146.29 101.29,-132.63"/>
<polygon fill="#63b8ff" stroke="#63b8ff" points="102.05,-129.18 91.45,-129.02 99.64,-135.75 102.05,-129.18"/>
</a>
</g>
</g>
<!-- Node4 -->
<g id="Node000004" class="node">
<title>Node4</title>
<g id="a_Node000004"><a xlink:title=" ">
<polygon fill="#e0e0e0" stroke="#999999" points="223.71,-129 135.71,-129 135.71,-110 223.71,-110 223.71,-129"/>
<text text-anchor="middle" x="179.71" y="-117" font-family="Helvetica,sans-Serif" font-size="10.00">QDomElement</text>
</a>
</g>
</g>
<!-- Node1&#45;&gt;Node4 -->
<g id="edge36_Node000001_Node000004" class="edge">
<title>Node1&#45;&gt;Node4</title>
<g id="a_edge36_Node000001_Node000004"><a xlink:title=" ">
<path fill="none" stroke="#63b8ff" d="M421.58,-219.96C389.35,-212.21 342.24,-199.62 302.71,-184 266.61,-169.73 227.09,-148.18 202.84,-134.22"/>
<polygon fill="#63b8ff" stroke="#63b8ff" points="204.44,-131.11 194.04,-129.1 200.92,-137.16 204.44,-131.11"/>
</a>
</g>
</g>
<!-- Node5 -->
<g id="Node000005" class="node">
<title>Node5</title>
<g id="a_Node000005"><a xlink:href="parser__info_8hpp.html" target="_top" xlink:title=" ">
<polygon fill="white" stroke="#666666" points="601.71,-129 509.71,-129 509.71,-110 601.71,-110 601.71,-129"/>
<text text-anchor="middle" x="555.71" y="-117" font-family="Helvetica,sans-Serif" font-size="10.00">parser_info.hpp</text>
</a>
</g>
</g>
<!-- Node1&#45;&gt;Node5 -->
<g id="edge34_Node000001_Node000005" class="edge">
<title>Node1&#45;&gt;Node5</title>
<g id="a_edge34_Node000001_Node000005"><a xlink:title=" ">
<path fill="none" stroke="#63b8ff" d="M460.3,-219.77C461.6,-206.59 465.73,-181.43 478.71,-165 489.89,-150.85 506.89,-140.36 522.08,-133.12"/>
<polygon fill="#63b8ff" stroke="#63b8ff" points="523.53,-136.31 531.23,-129.03 520.67,-129.91 523.53,-136.31"/>
</a>
</g>
</g>
<!-- Node6 -->
<g id="Node000006" class="node">
<title>Node6</title>
<g id="a_Node000006"><a xlink:href="types_8hpp.html" target="_top" xlink:title=" ">
<polygon fill="white" stroke="#666666" points="659.21,-74 594.21,-74 594.21,-55 659.21,-55 659.21,-74"/>
<text text-anchor="middle" x="626.71" y="-62" font-family="Helvetica,sans-Serif" font-size="10.00">types.hpp</text>
</a>
</g>
</g>
<!-- Node1&#45;&gt;Node6 -->
<g id="edge32_Node000001_Node000006" class="edge">
<title>Node1&#45;&gt;Node6</title>
<g id="a_edge32_Node000001_Node000006"><a xlink:title=" ">
<path fill="none" stroke="#63b8ff" d="M521.4,-226.39C605.42,-222.49 750.46,-211.85 794.71,-184 819.44,-168.44 822.37,-157 830.71,-129 833.13,-120.91 836.01,-116.58 830.71,-110 810.89,-85.39 723.42,-73.66 669.66,-68.68"/>
<polygon fill="#63b8ff" stroke="#63b8ff" points="669.66,-65.17 659.39,-67.77 669.04,-72.14 669.66,-65.17"/>
</a>
</g>
</g>
<!-- Node11 -->
<g id="Node000011" class="node">
<title>Node11</title>
<g id="a_Node000011"><a xlink:title=" ">
<polygon fill="#e0e0e0" stroke="#999999" points="275.21,-19 228.21,-19 228.21,0 275.21,0 275.21,-19"/>
<text text-anchor="middle" x="251.71" y="-7" font-family="Helvetica,sans-Serif" font-size="10.00">vector</text>
</a>
</g>
</g>
<!-- Node1&#45;&gt;Node11 -->
<g id="edge38_Node000001_Node000011" class="edge">
<title>Node1&#45;&gt;Node11</title>
<g id="a_edge38_Node000001_Node000011"><a xlink:title=" ">
<path fill="none" stroke="#63b8ff" d="M398.16,-224.47C286.22,-215.67 56.59,-190.4 10.71,-129 -45.92,-53.19 138.72,-23.11 217.67,-13.89"/>
<polygon fill="#63b8ff" stroke="#63b8ff" points="218.52,-17.32 228.07,-12.73 217.74,-10.36 218.52,-17.32"/>
</a>
</g>
</g>
<!-- Node14 -->
<g id="Node000014" class="node">
<title>Node14</title>
<g id="a_Node000014"><a xlink:href="exceptions_8hpp.html" target="_top" xlink:title=" ">
<polygon fill="white" stroke="#666666" points="491.21,-129 400.21,-129 400.21,-110 491.21,-110 491.21,-129"/>
<text text-anchor="middle" x="445.71" y="-117" font-family="Helvetica,sans-Serif" font-size="10.00">exceptions.hpp</text>
</a>
</g>
</g>
<!-- Node1&#45;&gt;Node14 -->
<g id="edge33_Node000001_Node000014" class="edge">
<title>Node1&#45;&gt;Node14</title>
<g id="a_edge33_Node000001_Node000014"><a xlink:title=" ">
<path fill="none" stroke="#63b8ff" d="M456.12,-219.82C452.66,-210.99 447.68,-196.81 445.71,-184 443.43,-169.15 443.58,-152.12 444.22,-139.43"/>
<polygon fill="#63b8ff" stroke="#63b8ff" points="447.73,-139.4 444.89,-129.19 440.74,-138.94 447.73,-139.4"/>
</a>
</g>
</g>
<!-- Node17 -->
<g id="Node000017" class="node">
<title>Node17</title>
<g id="a_Node000017"><a xlink:href="constraint_8hpp.html" target="_top" xlink:title=" ">
<polygon fill="white" stroke="#666666" points="695.71,-184 609.71,-184 609.71,-165 695.71,-165 695.71,-184"/>
<text text-anchor="middle" x="652.71" y="-172" font-family="Helvetica,sans-Serif" font-size="10.00">constraint.hpp</text>
</a>
</g>
</g>
<!-- Node1&#45;&gt;Node17 -->
<g id="edge19_Node000001_Node000017" class="edge">
<title>Node1&#45;&gt;Node17</title>
<g id="a_edge19_Node000001_Node000017"><a xlink:title=" ">
<path fill="none" stroke="#63b8ff" d="M490.72,-219.98C523.55,-210.97 575.51,-196.7 611.7,-186.76"/>
<polygon fill="#63b8ff" stroke="#63b8ff" points="612.75,-190.11 621.46,-184.08 610.89,-183.36 612.75,-190.11"/>
</a>
</g>
</g>
<!-- Node18 -->
<g id="Node000018" class="node">
<title>Node18</title>
<g id="a_Node000018"><a xlink:href="format_8hpp.html" target="_top" xlink:title=" ">
<polygon fill="white" stroke="#666666" points="785.21,-184 714.21,-184 714.21,-165 785.21,-165 785.21,-184"/>
<text text-anchor="middle" x="749.71" y="-172" font-family="Helvetica,sans-Serif" font-size="10.00">format.hpp</text>
</a>
</g>
</g>
<!-- Node1&#45;&gt;Node18 -->
<g id="edge20_Node000001_Node000018" class="edge">
<title>Node1&#45;&gt;Node18</title>
<g id="a_edge20_Node000001_Node000018"><a xlink:title=" ">
<path fill="none" stroke="#63b8ff" d="M507.16,-219.98C554.41,-211.48 629.29,-197.94 703.82,-184.15"/>
<polygon fill="#63b8ff" stroke="#63b8ff" points="704.66,-187.56 713.86,-182.3 703.39,-180.68 704.66,-187.56"/>
</a>
</g>
</g>
<!-- Node21 -->
<g id="Node000021" class="node">
<title>Node21</title>
<g id="a_Node000021"><a xlink:href="string__format_8hpp.html" target="_top" xlink:title=" ">
<polygon fill="white" stroke="#666666" points="591.71,-184 487.71,-184 487.71,-165 591.71,-165 591.71,-184"/>
<text text-anchor="middle" x="539.71" y="-172" font-family="Helvetica,sans-Serif" font-size="10.00">string_format.hpp</text>
</a>
</g>
</g>
<!-- Node1&#45;&gt;Node21 -->
<g id="edge28_Node000001_Node000021" class="edge">
<title>Node1&#45;&gt;Node21</title>
<g id="a_edge28_Node000001_Node000021"><a xlink:title=" ">
<path fill="none" stroke="#63b8ff" d="M472.57,-219.98C484.86,-211.84 503.62,-199.41 518.19,-189.76"/>
<polygon fill="#63b8ff" stroke="#63b8ff" points="520.22,-192.61 526.63,-184.17 516.36,-186.78 520.22,-192.61"/>
</a>
</g>
</g>
<!-- Node22 -->
<g id="Node000022" class="node">
<title>Node22</title>
<g id="a_Node000022"><a xlink:title=" ">
<polygon fill="#e0e0e0" stroke="#999999" points="983.71,-184 915.71,-184 915.71,-165 983.71,-165 983.71,-184"/>
<text text-anchor="middle" x="949.71" y="-172" font-family="Helvetica,sans-Serif" font-size="10.00">QDomText</text>
</a>
</g>
</g>
<!-- Node1&#45;&gt;Node22 -->
<g id="edge37_Node000001_Node000022" class="edge">
<title>Node1&#45;&gt;Node22</title>
<g id="a_edge37_Node000001_Node000022"><a xlink:title=" ">
<path fill="none" stroke="#63b8ff" d="M521.38,-223.76C606.97,-216.85 766.5,-202.75 901.71,-184 902.99,-183.82 904.28,-183.64 905.58,-183.45"/>
<polygon fill="#63b8ff" stroke="#63b8ff" points="906.34,-186.87 915.68,-181.85 905.25,-179.95 906.34,-186.87"/>
</a>
</g>
</g>
<!-- Node2&#45;&gt;Node3 -->
<g id="edge2_Node000002_Node000003" class="edge">
<title>Node2&#45;&gt;Node3</title>
<g id="a_edge2_Node000002_Node000003"><a xlink:title=" ">
<path fill="none" stroke="#63b8ff" d="M311.84,-168.22C267.8,-159.58 179.45,-142.24 122.26,-131.01"/>
<polygon fill="#63b8ff" stroke="#63b8ff" points="122.8,-127.55 112.31,-129.06 121.45,-134.42 122.8,-127.55"/>
</a>
</g>
</g>
<!-- Node2&#45;&gt;Node4 -->
<g id="edge3_Node000002_Node000004" class="edge">
<title>Node2&#45;&gt;Node4</title>
<g id="a_edge3_Node000002_Node000004"><a xlink:title=" ">
<path fill="none" stroke="#63b8ff" d="M313.17,-164.98C286.59,-156.13 244.78,-142.19 215.04,-132.28"/>
<polygon fill="#63b8ff" stroke="#63b8ff" points="216.05,-128.92 205.46,-129.08 213.84,-135.56 216.05,-128.92"/>
</a>
</g>
</g>
<!-- Node2&#45;&gt;Node5 -->
<g id="edge4_Node000002_Node000005" class="edge">
<title>Node2&#45;&gt;Node5</title>
<g id="a_edge4_Node000002_Node000005"><a xlink:title=" ">
<path fill="none" stroke="#63b8ff" d="M365.32,-167C401.55,-158.15 466.88,-142.2 510.78,-131.47"/>
<polygon fill="#63b8ff" stroke="#63b8ff" points="511.74,-134.84 520.62,-129.07 510.08,-128.04 511.74,-134.84"/>
</a>
</g>
</g>
<!-- Node2&#45;&gt;Node6 -->
<g id="edge13_Node000002_Node000006" class="edge">
<title>Node2&#45;&gt;Node6</title>
<g id="a_edge13_Node000002_Node000006"><a xlink:title=" ">
<path fill="none" stroke="#63b8ff" d="M343.14,-164.89C350.8,-150.92 367.92,-123.52 390.71,-110 451.14,-74.15 534.27,-66.21 584.04,-64.98"/>
<polygon fill="#63b8ff" stroke="#63b8ff" points="584.19,-68.48 594.13,-64.81 584.07,-61.48 584.19,-68.48"/>
</a>
</g>
</g>
<!-- Node2&#45;&gt;Node11 -->
<g id="edge17_Node000002_Node000011" class="edge">
<title>Node2&#45;&gt;Node11</title>
<g id="a_edge17_Node000002_Node000011"><a xlink:title=" ">
<path fill="none" stroke="#63b8ff" d="M316.75,-164.89C301.34,-157.66 281.61,-145.81 270.71,-129 250.85,-98.36 249.28,-54.14 250.26,-29.29"/>
<polygon fill="#63b8ff" stroke="#63b8ff" points="253.77,-29.26 250.86,-19.07 246.78,-28.85 253.77,-29.26"/>
</a>
</g>
</g>
<!-- Node2&#45;&gt;Node14 -->
<g id="edge14_Node000002_Node000014" class="edge">
<title>Node2&#45;&gt;Node14</title>
<g id="a_edge14_Node000002_Node000014"><a xlink:title=" ">
<path fill="none" stroke="#63b8ff" d="M355.91,-164.98C372.96,-156.54 399.35,-143.47 419.11,-133.68"/>
<polygon fill="#63b8ff" stroke="#63b8ff" points="420.8,-136.75 428.21,-129.17 417.7,-130.47 420.8,-136.75"/>
</a>
</g>
</g>
<!-- Node16 -->
<g id="Node000016" class="node">
<title>Node16</title>
<g id="a_Node000016"><a xlink:title=" ">
<polygon fill="#e0e0e0" stroke="#999999" points="343.71,-129 279.71,-129 279.71,-110 343.71,-110 343.71,-129"/>
<text text-anchor="middle" x="311.71" y="-117" font-family="Helvetica,sans-Serif" font-size="10.00">algorithm</text>
</a>
</g>
</g>
<!-- Node2&#45;&gt;Node16 -->
<g id="edge18_Node000002_Node000016" class="edge">
<title>Node2&#45;&gt;Node16</title>
<g id="a_edge18_Node000002_Node000016"><a xlink:title=" ">
<path fill="none" stroke="#63b8ff" d="M334.26,-164.75C330.6,-157.57 325.31,-147.18 320.77,-138.27"/>
<polygon fill="#63b8ff" stroke="#63b8ff" points="323.75,-136.41 316.09,-129.09 317.51,-139.59 323.75,-136.41"/>
</a>
</g>
</g>
<!-- Node5&#45;&gt;Node6 -->
<g id="edge5_Node000005_Node000006" class="edge">
<title>Node5&#45;&gt;Node6</title>
<g id="a_edge5_Node000005_Node000006"><a xlink:title=" ">
<path fill="none" stroke="#63b8ff" d="M567.12,-109.98C577.82,-102 594.06,-89.88 606.88,-80.31"/>
<polygon fill="#63b8ff" stroke="#63b8ff" points="609.18,-82.96 615.1,-74.17 604.99,-77.35 609.18,-82.96"/>
</a>
</g>
</g>
<!-- Node7 -->
<g id="Node000007" class="node">
<title>Node7</title>
<g id="a_Node000007"><a xlink:title=" ">
<polygon fill="#e0e0e0" stroke="#999999" points="726.71,-19 682.71,-19 682.71,0 726.71,0 726.71,-19"/>
<text text-anchor="middle" x="704.71" y="-7" font-family="Helvetica,sans-Serif" font-size="10.00">string</text>
</a>
</g>
</g>
<!-- Node6&#45;&gt;Node7 -->
<g id="edge6_Node000006_Node000007" class="edge">
<title>Node6&#45;&gt;Node7</title>
<g id="a_edge6_Node000006_Node000007"><a xlink:title=" ">
<path fill="none" stroke="#63b8ff" d="M639.25,-54.98C651.12,-46.92 669.18,-34.65 683.33,-25.03"/>
<polygon fill="#63b8ff" stroke="#63b8ff" points="685.65,-27.69 691.95,-19.17 681.72,-21.9 685.65,-27.69"/>
</a>
</g>
</g>
<!-- Node8 -->
<g id="Node000008" class="node">
<title>Node8</title>
<g id="a_Node000008"><a xlink:title=" ">
<polygon fill="#e0e0e0" stroke="#999999" points="804.71,-19 744.71,-19 744.71,0 804.71,0 804.71,-19"/>
<text text-anchor="middle" x="774.71" y="-7" font-family="Helvetica,sans-Serif" font-size="10.00">iostream</text>
</a>
</g>
</g>
<!-- Node6&#45;&gt;Node8 -->
<g id="edge7_Node000006_Node000008" class="edge">
<title>Node6&#45;&gt;Node8</title>
<g id="a_edge7_Node000006_Node000008"><a xlink:title=" ">
<path fill="none" stroke="#63b8ff" d="M650.49,-54.98C674.95,-46.23 713.25,-32.51 740.86,-22.62"/>
<polygon fill="#63b8ff" stroke="#63b8ff" points="742.27,-25.84 750.5,-19.17 739.91,-19.25 742.27,-25.84"/>
</a>
</g>
</g>
<!-- Node9 -->
<g id="Node000009" class="node">
<title>Node9</title>
<g id="a_Node000009"><a xlink:title=" ">
<polygon fill="#e0e0e0" stroke="#999999" points="499.21,-19 442.21,-19 442.21,0 499.21,0 499.21,-19"/>
<text text-anchor="middle" x="470.71" y="-7" font-family="Helvetica,sans-Serif" font-size="10.00">cwctype</text>
</a>
</g>
</g>
<!-- Node6&#45;&gt;Node9 -->
<g id="edge8_Node000006_Node000009" class="edge">
<title>Node6&#45;&gt;Node9</title>
<g id="a_edge8_Node000006_Node000009"><a xlink:title=" ">
<path fill="none" stroke="#63b8ff" d="M601.65,-54.98C575.69,-46.16 534.91,-32.31 505.76,-22.41"/>
<polygon fill="#63b8ff" stroke="#63b8ff" points="506.57,-18.99 495.98,-19.08 504.32,-25.61 506.57,-18.99"/>
</a>
</g>
</g>
<!-- Node10 -->
<g id="Node000010" class="node">
<title>Node10</title>
<g id="a_Node000010"><a xlink:title=" ">
<polygon fill="#e0e0e0" stroke="#999999" points="566.21,-19 517.21,-19 517.21,0 566.21,0 566.21,-19"/>
<text text-anchor="middle" x="541.71" y="-7" font-family="Helvetica,sans-Serif" font-size="10.00">cctype</text>
</a>
</g>
</g>
<!-- Node6&#45;&gt;Node10 -->
<g id="edge9_Node000006_Node000010" class="edge">
<title>Node6&#45;&gt;Node10</title>
<g id="a_edge9_Node000006_Node000010"><a xlink:title=" ">
<path fill="none" stroke="#63b8ff" d="M613.06,-54.98C599.88,-46.77 579.69,-34.18 564.15,-24.49"/>
<polygon fill="#63b8ff" stroke="#63b8ff" points="565.96,-21.49 555.62,-19.17 562.25,-27.43 565.96,-21.49"/>
</a>
</g>
</g>
<!-- Node6&#45;&gt;Node11 -->
<g id="edge10_Node000006_Node000011" class="edge">
<title>Node6&#45;&gt;Node11</title>
<g id="a_edge10_Node000006_Node000011"><a xlink:title=" ">
<path fill="none" stroke="#63b8ff" d="M594.09,-58.89C523.58,-48.92 357.57,-25.46 285.78,-15.31"/>
<polygon fill="#63b8ff" stroke="#63b8ff" points="285.88,-11.79 275.49,-13.86 284.9,-18.73 285.88,-11.79"/>
</a>
</g>
</g>
<!-- Node12 -->
<g id="Node000012" class="node">
<title>Node12</title>
<g id="a_Node000012"><a xlink:title=" ">
<polygon fill="#e0e0e0" stroke="#999999" points="876.21,-19 823.21,-19 823.21,0 876.21,0 876.21,-19"/>
<text text-anchor="middle" x="849.71" y="-7" font-family="Helvetica,sans-Serif" font-size="10.00">QString</text>
</a>
</g>
</g>
<!-- Node6&#45;&gt;Node12 -->
<g id="edge11_Node000006_Node000012" class="edge">
<title>Node6&#45;&gt;Node12</title>
<g id="a_edge11_Node000006_Node000012"><a xlink:title=" ">
<path fill="none" stroke="#63b8ff" d="M659.62,-55.68C700.58,-45.94 770.35,-29.36 813.01,-19.22"/>
<polygon fill="#63b8ff" stroke="#63b8ff" points="814.06,-22.57 822.98,-16.86 812.44,-15.76 814.06,-22.57"/>
</a>
</g>
</g>
<!-- Node13 -->
<g id="Node000013" class="node">
<title>Node13</title>
<g id="a_Node000013"><a xlink:title=" ">
<polygon fill="#e0e0e0" stroke="#999999" points="664.71,-19 584.71,-19 584.71,0 664.71,0 664.71,-19"/>
<text text-anchor="middle" x="624.71" y="-7" font-family="Helvetica,sans-Serif" font-size="10.00">QTextStream</text>
</a>
</g>
</g>
<!-- Node6&#45;&gt;Node13 -->
<g id="edge12_Node000006_Node000013" class="edge">
<title>Node6&#45;&gt;Node13</title>
<g id="a_edge12_Node000006_Node000013"><a xlink:title=" ">
<path fill="none" stroke="#63b8ff" d="M626.38,-54.75C626.12,-47.8 625.75,-37.85 625.42,-29.13"/>
<polygon fill="#63b8ff" stroke="#63b8ff" points="628.91,-28.95 625.04,-19.09 621.92,-29.21 628.91,-28.95"/>
</a>
</g>
</g>
<!-- Node14&#45;&gt;Node6 -->
<g id="edge16_Node000014_Node000006" class="edge">
<title>Node14&#45;&gt;Node6</title>
<g id="a_edge16_Node000014_Node000006"><a xlink:title=" ">
<path fill="none" stroke="#63b8ff" d="M474.8,-109.98C505.32,-101.05 553.48,-86.94 587.38,-77.02"/>
<polygon fill="#63b8ff" stroke="#63b8ff" points="588.79,-80.25 597.41,-74.08 586.83,-73.53 588.79,-80.25"/>
</a>
</g>
</g>
<!-- Node15 -->
<g id="Node000015" class="node">
<title>Node15</title>
<g id="a_Node000015"><a xlink:title=" ">
<polygon fill="#e0e0e0" stroke="#999999" points="478.21,-74 413.21,-74 413.21,-55 478.21,-55 478.21,-74"/>
<text text-anchor="middle" x="445.71" y="-62" font-family="Helvetica,sans-Serif" font-size="10.00">stdexcept</text>
</a>
</g>
</g>
<!-- Node14&#45;&gt;Node15 -->
<g id="edge15_Node000014_Node000015" class="edge">
<title>Node14&#45;&gt;Node15</title>
<g id="a_edge15_Node000014_Node000015"><a xlink:title=" ">
<path fill="none" stroke="#63b8ff" d="M445.71,-109.75C445.71,-102.8 445.71,-92.85 445.71,-84.13"/>
<polygon fill="#63b8ff" stroke="#63b8ff" points="449.22,-84.09 445.71,-74.09 442.22,-84.09 449.22,-84.09"/>
</a>
</g>
</g>
<!-- Node18&#45;&gt;Node5 -->
<g id="edge21_Node000018_Node000005" class="edge">
<title>Node18&#45;&gt;Node5</title>
<g id="a_edge21_Node000018_Node000005"><a xlink:title=" ">
<path fill="none" stroke="#63b8ff" d="M718.55,-164.98C685.55,-155.97 633.32,-141.7 596.94,-131.76"/>
<polygon fill="#63b8ff" stroke="#63b8ff" points="597.7,-128.34 587.13,-129.08 595.85,-135.09 597.7,-128.34"/>
</a>
</g>
</g>
<!-- Node18&#45;&gt;Node6 -->
<g id="edge25_Node000018_Node000006" class="edge">
<title>Node18&#45;&gt;Node6</title>
<g id="a_edge25_Node000018_Node000006"><a xlink:title=" ">
<path fill="none" stroke="#63b8ff" d="M749.37,-164.57C748.38,-151.13 744.66,-125.63 730.71,-110 714.8,-92.16 690.51,-81.23 669.4,-74.66"/>
<polygon fill="#63b8ff" stroke="#63b8ff" points="670.24,-71.26 659.66,-71.86 668.3,-77.99 670.24,-71.26"/>
</a>
</g>
</g>
<!-- Node18&#45;&gt;Node12 -->
<g id="edge27_Node000018_Node000012" class="edge">
<title>Node18&#45;&gt;Node12</title>
<g id="a_edge27_Node000018_Node000012"><a xlink:title=" ">
<path fill="none" stroke="#63b8ff" d="M778.54,-164.94C796.4,-158.11 818.24,-146.71 830.71,-129 851.84,-99.01 852.9,-54.23 851.49,-29.18"/>
<polygon fill="#63b8ff" stroke="#63b8ff" points="854.98,-28.9 850.74,-19.19 848,-29.42 854.98,-28.9"/>
</a>
</g>
</g>
<!-- Node18&#45;&gt;Node14 -->
<g id="edge22_Node000018_Node000014" class="edge">
<title>Node18&#45;&gt;Node14</title>
<g id="a_edge22_Node000018_Node000014"><a xlink:title=" ">
<path fill="none" stroke="#63b8ff" d="M713.86,-166.67C710.77,-166.1 707.69,-165.54 704.71,-165 634.84,-152.4 554.21,-138.67 501.72,-129.85"/>
<polygon fill="#63b8ff" stroke="#63b8ff" points="502.05,-126.35 491.6,-128.15 500.89,-133.26 502.05,-126.35"/>
</a>
</g>
</g>
<!-- Node19 -->
<g id="Node000019" class="node">
<title>Node19</title>
<g id="a_Node000019"><a xlink:href="const_8hpp.html" target="_top" xlink:title=" ">
<polygon fill="white" stroke="#666666" points="721.71,-129 657.71,-129 657.71,-110 721.71,-110 721.71,-129"/>
<text text-anchor="middle" x="689.71" y="-117" font-family="Helvetica,sans-Serif" font-size="10.00">const.hpp</text>
</a>
</g>
</g>
<!-- Node18&#45;&gt;Node19 -->
<g id="edge23_Node000018_Node000019" class="edge">
<title>Node18&#45;&gt;Node19</title>
<g id="a_edge23_Node000018_Node000019"><a xlink:title=" ">
<path fill="none" stroke="#63b8ff" d="M740.07,-164.98C731.21,-157.15 717.84,-145.34 707.11,-135.86"/>
<polygon fill="#63b8ff" stroke="#63b8ff" points="709.34,-133.17 699.53,-129.17 704.71,-138.41 709.34,-133.17"/>
</a>
</g>
</g>
<!-- Node20 -->
<g id="Node000020" class="node">
<title>Node20</title>
<g id="a_Node000020"><a xlink:title=" ">
<polygon fill="#e0e0e0" stroke="#999999" points="821.71,-129 777.71,-129 777.71,-110 821.71,-110 821.71,-129"/>
<text text-anchor="middle" x="799.71" y="-117" font-family="Helvetica,sans-Serif" font-size="10.00">limits</text>
</a>
</g>
</g>
<!-- Node18&#45;&gt;Node20 -->
<g id="edge26_Node000018_Node000020" class="edge">
<title>Node18&#45;&gt;Node20</title>
<g id="a_edge26_Node000018_Node000020"><a xlink:title=" ">
<path fill="none" stroke="#63b8ff" d="M757.97,-164.75C765.18,-157.11 775.82,-145.82 784.56,-136.56"/>
<polygon fill="#63b8ff" stroke="#63b8ff" points="787.3,-138.76 791.61,-129.09 782.2,-133.96 787.3,-138.76"/>
</a>
</g>
</g>
<!-- Node19&#45;&gt;Node6 -->
<g id="edge24_Node000019_Node000006" class="edge">
<title>Node19&#45;&gt;Node6</title>
<g id="a_edge24_Node000019_Node000006"><a xlink:title=" ">
<path fill="none" stroke="#63b8ff" d="M679.59,-109.98C670.28,-102.15 656.25,-90.34 644.98,-80.86"/>
<polygon fill="#63b8ff" stroke="#63b8ff" points="646.93,-77.93 637.02,-74.17 642.42,-83.29 646.93,-77.93"/>
</a>
</g>
</g>
<!-- Node21&#45;&gt;Node6 -->
<g id="edge29_Node000021_Node000006" class="edge">
<title>Node21&#45;&gt;Node6</title>
<g id="a_edge29_Node000021_Node000006"><a xlink:title=" ">
<path fill="none" stroke="#63b8ff" d="M561.85,-164.98C577.76,-157.74 598.48,-145.82 610.71,-129 620.22,-115.93 624.11,-97.79 625.68,-84.24"/>
<polygon fill="#63b8ff" stroke="#63b8ff" points="629.18,-84.41 626.53,-74.16 622.2,-83.83 629.18,-84.41"/>
</a>
</g>
</g>
<!-- Node21&#45;&gt;Node14 -->
<g id="edge31_Node000021_Node000014" class="edge">
<title>Node21&#45;&gt;Node14</title>
<g id="a_edge31_Node000021_Node000014"><a xlink:title=" ">
<path fill="none" stroke="#63b8ff" d="M524.61,-164.98C509.9,-156.69 487.29,-143.94 470.04,-134.22"/>
<polygon fill="#63b8ff" stroke="#63b8ff" points="471.52,-131.03 461.09,-129.17 468.08,-137.13 471.52,-131.03"/>
</a>
</g>
</g>
<!-- Node21&#45;&gt;Node19 -->
<g id="edge30_Node000021_Node000019" class="edge">
<title>Node21&#45;&gt;Node19</title>
<g id="a_edge30_Node000021_Node000019"><a xlink:title=" ">
<path fill="none" stroke="#63b8ff" d="M563.82,-164.98C588.6,-156.23 627.42,-142.51 655.4,-132.62"/>
<polygon fill="#63b8ff" stroke="#63b8ff" points="656.91,-135.8 665.18,-129.17 654.58,-129.2 656.91,-135.8"/>
</a>
</g>
</g>
</g>
</svg>
