<?xml version="1.0" encoding="UTF-8" standalone="no"?>
<!DOCTYPE svg PUBLIC "-//W3C//DTD SVG 1.1//EN"
 "http://www.w3.org/Graphics/SVG/1.1/DTD/svg11.dtd">
<!-- Generated by graphviz version 2.38.0 (20140413.2041)
 -->
<!-- Title: types.hpp Pages: 1 -->
<!--zoomable 364 -->
<svg id="main" version="1.1" xmlns="http://www.w3.org/2000/svg" xmlns:xlink="http://www.w3.org/1999/xlink" xml:space="preserve" onload="init(evt)">
<style type="text/css"><![CDATA[
.edge:hover path { stroke: red; }
.edge:hover polygon { stroke: red; fill: red; }
]]></style>
<script type="text/javascript"><![CDATA[
var edges = document.getElementsByTagName('g');
if (edges && edges.length) {
  for (var i=0;i<edges.length;i++) {
    if (edges[i].id.substr(0,4)=='edge') {
      edges[i].setAttribute('class','edge');
    }
  }
}
]]></script>
        <defs>
                <circle id="rim" cx="0" cy="0" r="7"/>
                <circle id="rim2" cx="0" cy="0" r="3.5"/>
                <g id="zoomPlus">
                        <use xlink:href="#rim" fill="#404040">
                                <set attributeName="fill" to="#808080" begin="zoomplus.mouseover" end="zoomplus.mouseout"/>
                        </use>
                        <path d="M-4,0h8M0,-4v8" fill="none" stroke="white" stroke-width="1.5" pointer-events="none"/>
                </g>
                <g id="zoomMin">
                        <use xlink:href="#rim" fill="#404040">
                                <set attributeName="fill" to="#808080" begin="zoomminus.mouseover" end="zoomminus.mouseout"/>
                        </use>
                        <path d="M-4,0h8" fill="none" stroke="white" stroke-width="1.5" pointer-events="none"/>
                </g>
                <g id="dirArrow">
                        <path fill="none" stroke="white" stroke-width="1.5" d="M0,-3.0v7 M-2.5,-0.5L0,-3.0L2.5,-0.5"/>
                </g>
               <g id="resetDef">
                       <use xlink:href="#rim2" fill="#404040">
                               <set attributeName="fill" to="#808080" begin="reset.mouseover" end="reset.mouseout"/>
                       </use>
               </g>
        </defs>

<script type="text/javascript">
var viewWidth = 1075;
var viewHeight = 364;
var sectionId = 'dynsection-1';
</script>
<script xlink:href="svgpan.js"/>
<svg id="graph" class="graph">
<g id="viewport">
<title>types.hpp</title>
<!-- Node1 -->
<g id="node1" class="node"><title>Node1</title>
<polygon fill="#bfbfbf" stroke="black" points="441.5,-336.5 441.5,-355.5 500.5,-355.5 500.5,-336.5 441.5,-336.5"/>
<text text-anchor="middle" x="471" y="-343.5" font-family="Helvetica,sans-Serif" font-size="10.00">types.hpp</text>
</g>
<!-- Node2 -->
<g id="node2" class="node"><title>Node2</title>
<g id="a_node2"><a xlink:href="exceptions_8hpp.html" target="_top" xlink:title="exceptions.hpp">
<polygon fill="none" stroke="black" points="504.5,-224.5 504.5,-243.5 587.5,-243.5 587.5,-224.5 504.5,-224.5"/>
<text text-anchor="middle" x="546" y="-231.5" font-family="Helvetica,sans-Serif" font-size="10.00">exceptions.hpp</text>
</a>
</g>
</g>
<!-- Node1&#45;&gt;Node2 -->
<g id="edge1" class="edge"><title>Node1&#45;&gt;Node2</title>
<path fill="none" stroke="midnightblue" d="M482.62,-327.957C498.874,-304.118 527.789,-261.709 540.142,-243.591"/>
<polygon fill="midnightblue" stroke="midnightblue" points="479.627,-326.135 476.885,-336.368 485.41,-330.078 479.627,-326.135"/>
</g>
<!-- Node4 -->
<g id="node4" class="node"><title>Node4</title>
<g id="a_node4"><a xlink:href="tag_8hpp.html" target="_top" xlink:title="tag.hpp">
<polygon fill="none" stroke="black" points="780.5,-168.5 780.5,-187.5 829.5,-187.5 829.5,-168.5 780.5,-168.5"/>
<text text-anchor="middle" x="805" y="-175.5" font-family="Helvetica,sans-Serif" font-size="10.00">tag.hpp</text>
</a>
</g>
</g>
<!-- Node1&#45;&gt;Node4 -->
<g id="edge52" class="edge"><title>Node1&#45;&gt;Node4</title>
<path fill="none" stroke="midnightblue" d="M510.893,-341.443C556.865,-336.35 634.039,-324.713 696,-300 739.409,-282.687 756.575,-281.096 785,-244 798.07,-226.943 802.665,-201.286 804.229,-187.878"/>
<polygon fill="midnightblue" stroke="midnightblue" points="510.316,-337.985 500.74,-342.517 511.053,-344.946 510.316,-337.985"/>
</g>
<!-- Node5 -->
<g id="node5" class="node"><title>Node5</title>
<g id="a_node5"><a xlink:href="parser_8hpp.html" target="_top" xlink:title="parser.hpp">
<polygon fill="none" stroke="black" points="281,-112.5 281,-131.5 343,-131.5 343,-112.5 281,-112.5"/>
<text text-anchor="middle" x="312" y="-119.5" font-family="Helvetica,sans-Serif" font-size="10.00">parser.hpp</text>
</a>
</g>
</g>
<!-- Node1&#45;&gt;Node5 -->
<g id="edge33" class="edge"><title>Node1&#45;&gt;Node5</title>
<path fill="none" stroke="midnightblue" d="M430.915,-344.972C368.038,-343.728 243.261,-336.375 145,-300 101.876,-284.036 80.0235,-284.367 58,-244 9.86766,-155.777 203.176,-131.205 280.919,-124.958"/>
<polygon fill="midnightblue" stroke="midnightblue" points="431.135,-348.476 441.188,-345.131 431.244,-341.477 431.135,-348.476"/>
</g>
<!-- Node6 -->
<g id="node6" class="node"><title>Node6</title>
<g id="a_node6"><a xlink:href="utils_8hpp.html" target="_top" xlink:title="utils.hpp">
<polygon fill="none" stroke="black" points="304.5,-56.5 304.5,-75.5 357.5,-75.5 357.5,-56.5 304.5,-56.5"/>
<text text-anchor="middle" x="331" y="-63.5" font-family="Helvetica,sans-Serif" font-size="10.00">utils.hpp</text>
</a>
</g>
</g>
<!-- Node1&#45;&gt;Node6 -->
<g id="edge58" class="edge"><title>Node1&#45;&gt;Node6</title>
<path fill="none" stroke="midnightblue" d="M431.149,-344.171C317.51,-340.738 0,-323.249 0,-235 0,-235 0,-235 0,-177 0,-112.963 225.927,-79.6554 304.472,-70.0109"/>
<polygon fill="midnightblue" stroke="midnightblue" points="431.085,-347.671 441.18,-344.453 431.282,-340.673 431.085,-347.671"/>
</g>
<!-- Node9 -->
<g id="node9" class="node"><title>Node9</title>
<g id="a_node9"><a xlink:href="tag__scalar__vector_8hpp.html" target="_top" xlink:title="tag_scalar_vector.hpp">
<polygon fill="none" stroke="black" points="794.5,-112.5 794.5,-131.5 907.5,-131.5 907.5,-112.5 794.5,-112.5"/>
<text text-anchor="middle" x="851" y="-119.5" font-family="Helvetica,sans-Serif" font-size="10.00">tag_scalar_vector.hpp</text>
</a>
</g>
</g>
<!-- Node1&#45;&gt;Node9 -->
<g id="edge56" class="edge"><title>Node1&#45;&gt;Node9</title>
<path fill="none" stroke="midnightblue" d="M510.761,-343.84C563.842,-341.057 659.886,-331.653 735,-300 812.99,-267.135 850.596,-263.416 889,-188 899.558,-167.266 877.063,-143.94 862.374,-131.651"/>
<polygon fill="midnightblue" stroke="midnightblue" points="510.56,-340.346 500.736,-344.313 510.89,-347.338 510.56,-340.346"/>
</g>
<!-- Node10 -->
<g id="node10" class="node"><title>Node10</title>
<g id="a_node10"><a xlink:href="tag__vector__of__tags_8hpp.html" target="_top" xlink:title="tag_vector_of_tags.hpp">
<polygon fill="none" stroke="black" points="925.5,-112.5 925.5,-131.5 1044.5,-131.5 1044.5,-112.5 925.5,-112.5"/>
<text text-anchor="middle" x="985" y="-119.5" font-family="Helvetica,sans-Serif" font-size="10.00">tag_vector_of_tags.hpp</text>
</a>
</g>
</g>
<!-- Node1&#45;&gt;Node10 -->
<g id="edge57" class="edge"><title>Node1&#45;&gt;Node10</title>
<path fill="none" stroke="midnightblue" d="M510.699,-343.768C569.671,-340.911 683.213,-331.431 774,-300 821.405,-283.588 832.66,-275.127 872,-244 917.758,-207.796 962.001,-152.924 978.359,-131.756"/>
<polygon fill="midnightblue" stroke="midnightblue" points="510.518,-340.273 500.684,-344.215 510.83,-347.266 510.518,-340.273"/>
</g>
<!-- Node11 -->
<g id="node11" class="node"><title>Node11</title>
<g id="a_node11"><a xlink:href="lex_8hpp.html" target="_top" xlink:title="lex.hpp">
<polygon fill="none" stroke="black" points="142,-168.5 142,-187.5 190,-187.5 190,-168.5 142,-168.5"/>
<text text-anchor="middle" x="166" y="-175.5" font-family="Helvetica,sans-Serif" font-size="10.00">lex.hpp</text>
</a>
</g>
</g>
<!-- Node1&#45;&gt;Node11 -->
<g id="edge53" class="edge"><title>Node1&#45;&gt;Node11</title>
<path fill="none" stroke="midnightblue" d="M431.471,-336.229C402.193,-328.852 361.851,-316.8 329,-300 264.675,-267.103 198.846,-209.301 175.171,-187.577"/>
<polygon fill="midnightblue" stroke="midnightblue" points="430.789,-339.666 441.335,-338.644 432.454,-332.867 430.789,-339.666"/>
</g>
<!-- Node12 -->
<g id="node12" class="node"><title>Node12</title>
<g id="a_node12"><a xlink:href="string__format_8hpp.html" target="_top" xlink:title="string_format.hpp">
<polygon fill="none" stroke="black" points="322,-168.5 322,-187.5 414,-187.5 414,-168.5 322,-168.5"/>
<text text-anchor="middle" x="368" y="-175.5" font-family="Helvetica,sans-Serif" font-size="10.00">string_format.hpp</text>
</a>
</g>
</g>
<!-- Node1&#45;&gt;Node12 -->
<g id="edge54" class="edge"><title>Node1&#45;&gt;Node12</title>
<path fill="none" stroke="midnightblue" d="M460.025,-327.312C438.065,-291.921 389.447,-213.565 373.316,-187.568"/>
<polygon fill="midnightblue" stroke="midnightblue" points="457.216,-329.423 465.462,-336.075 463.164,-325.733 457.216,-329.423"/>
</g>
<!-- Node13 -->
<g id="node13" class="node"><title>Node13</title>
<g id="a_node13"><a xlink:href="format_8hpp.html" target="_top" xlink:title="format.hpp">
<polygon fill="none" stroke="black" points="622.5,-168.5 622.5,-187.5 685.5,-187.5 685.5,-168.5 622.5,-168.5"/>
<text text-anchor="middle" x="654" y="-175.5" font-family="Helvetica,sans-Serif" font-size="10.00">format.hpp</text>
</a>
</g>
</g>
<!-- Node1&#45;&gt;Node13 -->
<g id="edge55" class="edge"><title>Node1&#45;&gt;Node13</title>
<path fill="none" stroke="midnightblue" d="M499.404,-332.031C532.718,-315.611 587.848,-284.512 623,-244 637.912,-226.813 647.29,-201.211 651.465,-187.846"/>
<polygon fill="midnightblue" stroke="midnightblue" points="497.705,-328.964 490.216,-336.459 500.744,-335.27 497.705,-328.964"/>
</g>
<!-- Node14 -->
<g id="node14" class="node"><title>Node14</title>
<g id="a_node14"><a xlink:href="input__stream_8hpp.html" target="_top" xlink:title="input_stream.hpp">
<polygon fill="none" stroke="black" points="67,-224.5 67,-243.5 159,-243.5 159,-224.5 67,-224.5"/>
<text text-anchor="middle" x="113" y="-231.5" font-family="Helvetica,sans-Serif" font-size="10.00">input_stream.hpp</text>
</a>
</g>
</g>
<!-- Node1&#45;&gt;Node14 -->
<g id="edge34" class="edge"><title>Node1&#45;&gt;Node14</title>
<path fill="none" stroke="midnightblue" d="M430.809,-342.233C360.146,-336.83 216.967,-323.318 173,-300 147.764,-286.617 127.526,-258.368 118.344,-243.92"/>
<polygon fill="midnightblue" stroke="midnightblue" points="430.862,-345.747 441.095,-343.001 431.384,-338.766 430.862,-345.747"/>
</g>
<!-- Node15 -->
<g id="node15" class="node"><title>Node15</title>
<g id="a_node15"><a xlink:href="const_8hpp.html" target="_top" xlink:title="const.hpp">
<polygon fill="none" stroke="black" points="338.5,-280.5 338.5,-299.5 397.5,-299.5 397.5,-280.5 338.5,-280.5"/>
<text text-anchor="middle" x="368" y="-287.5" font-family="Helvetica,sans-Serif" font-size="10.00">const.hpp</text>
</a>
</g>
</g>
<!-- Node1&#45;&gt;Node15 -->
<g id="edge38" class="edge"><title>Node1&#45;&gt;Node15</title>
<path fill="none" stroke="midnightblue" d="M445.421,-331.59C426.377,-321.605 400.936,-308.267 384.508,-299.655"/>
<polygon fill="midnightblue" stroke="midnightblue" points="443.969,-334.78 454.451,-336.324 447.22,-328.581 443.969,-334.78"/>
</g>
<!-- Node16 -->
<g id="node16" class="node"><title>Node16</title>
<g id="a_node16"><a xlink:href="parser__info_8hpp.html" target="_top" xlink:title="parser_info.hpp">
<polygon fill="none" stroke="black" points="693.5,-224.5 693.5,-243.5 776.5,-243.5 776.5,-224.5 693.5,-224.5"/>
<text text-anchor="middle" x="735" y="-231.5" font-family="Helvetica,sans-Serif" font-size="10.00">parser_info.hpp</text>
</a>
</g>
</g>
<!-- Node1&#45;&gt;Node16 -->
<g id="edge45" class="edge"><title>Node1&#45;&gt;Node16</title>
<path fill="none" stroke="midnightblue" d="M510.783,-342.243C552.229,-337.969 617.977,-327.16 668,-300 694.491,-285.617 717.856,-257.821 728.653,-243.696"/>
<polygon fill="midnightblue" stroke="midnightblue" points="510.417,-338.762 500.794,-343.194 511.081,-345.73 510.417,-338.762"/>
</g>
<!-- Node3 -->
<g id="node3" class="node"><title>Node3</title>
<g id="a_node3"><a xlink:href="all_8hpp.html" target="_top" xlink:title="all.hpp">
<polygon fill="none" stroke="black" points="630.5,-0.5 630.5,-19.5 675.5,-19.5 675.5,-0.5 630.5,-0.5"/>
<text text-anchor="middle" x="653" y="-7.5" font-family="Helvetica,sans-Serif" font-size="10.00">all.hpp</text>
</a>
</g>
</g>
<!-- Node2&#45;&gt;Node3 -->
<g id="edge2" class="edge"><title>Node2&#45;&gt;Node3</title>
<path fill="none" stroke="midnightblue" d="M530.905,-216.739C510.759,-192.966 479.735,-147.674 499,-112 527.031,-60.0947 594.647,-30.5453 630.231,-18.0882"/>
<polygon fill="midnightblue" stroke="midnightblue" points="528.481,-219.283 537.721,-224.466 533.73,-214.652 528.481,-219.283"/>
</g>
<!-- Node2&#45;&gt;Node4 -->
<g id="edge3" class="edge"><title>Node2&#45;&gt;Node4</title>
<path fill="none" stroke="midnightblue" d="M596.984,-222.37C652.249,-210.848 738.158,-192.936 780.169,-184.177"/>
<polygon fill="midnightblue" stroke="midnightblue" points="596.114,-218.976 587.039,-224.444 597.543,-225.829 596.114,-218.976"/>
</g>
<!-- Node2&#45;&gt;Node5 -->
<g id="edge18" class="edge"><title>Node2&#45;&gt;Node5</title>
<path fill="none" stroke="midnightblue" d="M494.1,-230.383C432.637,-226.078 335.707,-215.084 313,-188 299.659,-172.086 304.979,-145.469 309.027,-131.756"/>
<polygon fill="midnightblue" stroke="midnightblue" points="494.18,-233.896 504.39,-231.064 494.643,-226.911 494.18,-233.896"/>
</g>
<!-- Node2&#45;&gt;Node6 -->
<g id="edge32" class="edge"><title>Node2&#45;&gt;Node6</title>
<path fill="none" stroke="midnightblue" d="M518.877,-219.638C502.954,-211.336 482.736,-199.988 466,-188 414.058,-150.794 359.605,-96.5099 339.284,-75.6273"/>
<polygon fill="midnightblue" stroke="midnightblue" points="517.67,-222.952 528.167,-224.392 520.859,-216.721 517.67,-222.952"/>
</g>
<!-- Node7 -->
<g id="node7" class="node"><title>Node7</title>
<g id="a_node7"><a xlink:href="tag__no__value_8hpp.html" target="_top" xlink:title="tag_no_value.hpp">
<polygon fill="none" stroke="black" points="606.5,-112.5 606.5,-131.5 699.5,-131.5 699.5,-112.5 606.5,-112.5"/>
<text text-anchor="middle" x="653" y="-119.5" font-family="Helvetica,sans-Serif" font-size="10.00">tag_no_value.hpp</text>
</a>
</g>
</g>
<!-- Node2&#45;&gt;Node7 -->
<g id="edge25" class="edge"><title>Node2&#45;&gt;Node7</title>
<path fill="none" stroke="midnightblue" d="M561.664,-216.897C584.667,-193.249 626.786,-149.949 644.643,-131.591"/>
<polygon fill="midnightblue" stroke="midnightblue" points="558.86,-214.76 554.396,-224.368 563.878,-219.641 558.86,-214.76"/>
</g>
<!-- Node8 -->
<g id="node8" class="node"><title>Node8</title>
<g id="a_node8"><a xlink:href="tag__scalar_8hpp.html" target="_top" xlink:title="tag_scalar.hpp">
<polygon fill="none" stroke="black" points="508,-112.5 508,-131.5 588,-131.5 588,-112.5 508,-112.5"/>
<text text-anchor="middle" x="548" y="-119.5" font-family="Helvetica,sans-Serif" font-size="10.00">tag_scalar.hpp</text>
</a>
</g>
</g>
<!-- Node2&#45;&gt;Node8 -->
<g id="edge29" class="edge"><title>Node2&#45;&gt;Node8</title>
<path fill="none" stroke="midnightblue" d="M546.339,-214.348C546.777,-190.254 547.522,-149.308 547.844,-131.591"/>
<polygon fill="midnightblue" stroke="midnightblue" points="542.839,-214.306 546.157,-224.368 549.838,-214.434 542.839,-214.306"/>
</g>
<!-- Node2&#45;&gt;Node9 -->
<g id="edge30" class="edge"><title>Node2&#45;&gt;Node9</title>
<path fill="none" stroke="midnightblue" d="M597.959,-228.223C677.205,-220.461 820.928,-204.329 838,-188 853.469,-173.205 853.322,-145.596 852.085,-131.603"/>
<polygon fill="midnightblue" stroke="midnightblue" points="597.308,-224.769 587.692,-229.217 597.983,-231.737 597.308,-224.769"/>
</g>
<!-- Node2&#45;&gt;Node10 -->
<g id="edge31" class="edge"><title>Node2&#45;&gt;Node10</title>
<path fill="none" stroke="midnightblue" d="M597.659,-230.749C660.504,-226.836 769.205,-216.262 858,-188 902.136,-173.952 949.557,-145.744 971.914,-131.559"/>
<polygon fill="midnightblue" stroke="midnightblue" points="597.377,-227.259 587.601,-231.342 597.79,-234.247 597.377,-227.259"/>
</g>
<!-- Node2&#45;&gt;Node11 -->
<g id="edge19" class="edge"><title>Node2&#45;&gt;Node11</title>
<path fill="none" stroke="midnightblue" d="M494.254,-225.647C411.079,-213.827 250.834,-191.055 190.117,-182.427"/>
<polygon fill="midnightblue" stroke="midnightblue" points="493.853,-229.125 504.246,-227.067 494.838,-222.194 493.853,-229.125"/>
</g>
<!-- Node2&#45;&gt;Node12 -->
<g id="edge21" class="edge"><title>Node2&#45;&gt;Node12</title>
<path fill="none" stroke="midnightblue" d="M507.883,-221.436C474.322,-211.255 426.226,-196.664 396.073,-187.516"/>
<polygon fill="midnightblue" stroke="midnightblue" points="507.21,-224.89 517.795,-224.444 509.242,-218.191 507.21,-224.89"/>
</g>
<!-- Node2&#45;&gt;Node13 -->
<g id="edge26" class="edge"><title>Node2&#45;&gt;Node13</title>
<path fill="none" stroke="midnightblue" d="M572.548,-219.726C592.546,-209.727 619.387,-196.307 636.691,-187.655"/>
<polygon fill="midnightblue" stroke="midnightblue" points="570.731,-216.721 563.352,-224.324 573.862,-222.982 570.731,-216.721"/>
</g>
<!-- Node4&#45;&gt;Node3 -->
<g id="edge8" class="edge"><title>Node4&#45;&gt;Node3</title>
<path fill="none" stroke="midnightblue" d="M790.03,-160.651C758.245,-125.939 684.955,-45.8978 660.845,-19.5681"/>
<polygon fill="midnightblue" stroke="midnightblue" points="787.493,-163.064 796.828,-168.075 792.656,-158.336 787.493,-163.064"/>
</g>
<!-- Node4&#45;&gt;Node5 -->
<g id="edge4" class="edge"><title>Node4&#45;&gt;Node5</title>
<path fill="none" stroke="midnightblue" d="M770.267,-172.876C757.039,-171.322 741.825,-169.556 728,-168 584.165,-151.815 412.224,-133.564 343.061,-126.268"/>
<polygon fill="midnightblue" stroke="midnightblue" points="770.044,-176.374 780.385,-174.068 770.863,-169.422 770.044,-176.374"/>
</g>
<!-- Node4&#45;&gt;Node6 -->
<g id="edge17" class="edge"><title>Node4&#45;&gt;Node6</title>
<path fill="none" stroke="midnightblue" d="M787.677,-161.632C769.295,-146.279 738.714,-123.371 708,-112 643.326,-88.0551 432.5,-73.1893 357.655,-68.5584"/>
<polygon fill="midnightblue" stroke="midnightblue" points="785.798,-164.63 795.669,-168.479 790.352,-159.315 785.798,-164.63"/>
</g>
<!-- Node4&#45;&gt;Node7 -->
<g id="edge9" class="edge"><title>Node4&#45;&gt;Node7</title>
<path fill="none" stroke="midnightblue" d="M771.332,-165.039C742.732,-154.879 702.388,-140.546 676.972,-131.516"/>
<polygon fill="midnightblue" stroke="midnightblue" points="770.32,-168.394 780.915,-168.444 772.664,-161.798 770.32,-168.394"/>
</g>
<!-- Node4&#45;&gt;Node8 -->
<g id="edge11" class="edge"><title>Node4&#45;&gt;Node8</title>
<path fill="none" stroke="midnightblue" d="M770.571,-169.766C723.212,-159.815 638.153,-141.943 588.02,-131.409"/>
<polygon fill="midnightblue" stroke="midnightblue" points="769.852,-173.191 780.358,-171.822 771.291,-166.341 769.852,-173.191"/>
</g>
<!-- Node4&#45;&gt;Node9 -->
<g id="edge13" class="edge"><title>Node4&#45;&gt;Node9</title>
<path fill="none" stroke="midnightblue" d="M819.114,-160.431C827.176,-150.967 836.959,-139.483 843.545,-131.751"/>
<polygon fill="midnightblue" stroke="midnightblue" points="816.416,-158.201 812.596,-168.083 821.745,-162.74 816.416,-158.201"/>
</g>
<!-- Node4&#45;&gt;Node10 -->
<g id="edge15" class="edge"><title>Node4&#45;&gt;Node10</title>
<path fill="none" stroke="midnightblue" d="M839.601,-166.62C873.578,-156.427 924.794,-141.062 956.497,-131.551"/>
<polygon fill="midnightblue" stroke="midnightblue" points="838.223,-163.379 829.651,-169.605 840.235,-170.084 838.223,-163.379"/>
</g>
<!-- Node5&#45;&gt;Node3 -->
<g id="edge5" class="edge"><title>Node5&#45;&gt;Node3</title>
<path fill="none" stroke="midnightblue" d="M338.733,-108.137C369.052,-93.9225 420.23,-71.0546 466,-56 524.048,-36.9069 594.663,-22.1159 630.215,-15.2329"/>
<polygon fill="midnightblue" stroke="midnightblue" points="337.202,-104.989 329.656,-112.427 340.193,-111.318 337.202,-104.989"/>
</g>
<!-- Node5&#45;&gt;Node6 -->
<g id="edge6" class="edge"><title>Node5&#45;&gt;Node6</title>
<path fill="none" stroke="midnightblue" d="M318.546,-102.396C321.724,-93.362 325.393,-82.936 327.921,-75.7511"/>
<polygon fill="midnightblue" stroke="midnightblue" points="315.155,-101.488 315.137,-112.083 321.758,-103.812 315.155,-101.488"/>
</g>
<!-- Node6&#45;&gt;Node3 -->
<g id="edge7" class="edge"><title>Node6&#45;&gt;Node3</title>
<path fill="none" stroke="midnightblue" d="M367.738,-58.839C434.831,-47.5873 575.332,-24.0251 630.282,-14.8099"/>
<polygon fill="midnightblue" stroke="midnightblue" points="366.908,-55.4292 357.625,-60.535 368.066,-62.3328 366.908,-55.4292"/>
</g>
<!-- Node7&#45;&gt;Node3 -->
<g id="edge10" class="edge"><title>Node7&#45;&gt;Node3</title>
<path fill="none" stroke="midnightblue" d="M653,-102.348C653,-78.2538 653,-37.3079 653,-19.5914"/>
<polygon fill="midnightblue" stroke="midnightblue" points="649.5,-102.368 653,-112.368 656.5,-102.369 649.5,-102.368"/>
</g>
<!-- Node8&#45;&gt;Node3 -->
<g id="edge12" class="edge"><title>Node8&#45;&gt;Node3</title>
<path fill="none" stroke="midnightblue" d="M563.371,-104.897C585.945,-81.2486 627.276,-37.9493 644.799,-19.5914"/>
<polygon fill="midnightblue" stroke="midnightblue" points="560.612,-102.718 556.239,-112.368 565.676,-107.552 560.612,-102.718"/>
</g>
<!-- Node9&#45;&gt;Node3 -->
<g id="edge14" class="edge"><title>Node9&#45;&gt;Node3</title>
<path fill="none" stroke="midnightblue" d="M836.626,-104.525C823.222,-90.0316 802.035,-69.236 780,-56 746.312,-35.7644 702.145,-22.7082 675.761,-16.1231"/>
<polygon fill="midnightblue" stroke="midnightblue" points="834.271,-107.14 843.566,-112.225 839.471,-102.453 834.271,-107.14"/>
</g>
<!-- Node10&#45;&gt;Node3 -->
<g id="edge16" class="edge"><title>Node10&#45;&gt;Node3</title>
<path fill="none" stroke="midnightblue" d="M953.19,-108.665C917.75,-95.0915 858.635,-72.9515 807,-56 760.687,-40.7958 705.728,-25.35 675.586,-17.0979"/>
<polygon fill="midnightblue" stroke="midnightblue" points="952.373,-112.101 962.963,-112.421 954.885,-105.567 952.373,-112.101"/>
</g>
<!-- Node11&#45;&gt;Node5 -->
<g id="edge20" class="edge"><title>Node11&#45;&gt;Node5</title>
<path fill="none" stroke="midnightblue" d="M198.699,-164.906C226.148,-154.754 264.668,-140.506 288.974,-131.516"/>
<polygon fill="midnightblue" stroke="midnightblue" points="197.299,-161.692 189.134,-168.444 199.727,-168.257 197.299,-161.692"/>
</g>
<!-- Node12&#45;&gt;Node5 -->
<g id="edge22" class="edge"><title>Node12&#45;&gt;Node5</title>
<path fill="none" stroke="midnightblue" d="M351.67,-161.253C341.735,-151.673 329.412,-139.791 321.161,-131.834"/>
<polygon fill="midnightblue" stroke="midnightblue" points="349.375,-163.902 359.003,-168.324 354.234,-158.863 349.375,-163.902"/>
</g>
<!-- Node12&#45;&gt;Node8 -->
<g id="edge23" class="edge"><title>Node12&#45;&gt;Node8</title>
<path fill="none" stroke="midnightblue" d="M406.108,-165.568C440.063,-155.381 488.989,-140.703 519.612,-131.516"/>
<polygon fill="midnightblue" stroke="midnightblue" points="405.094,-162.218 396.522,-168.444 407.106,-168.922 405.094,-162.218"/>
</g>
<!-- Node12&#45;&gt;Node9 -->
<g id="edge24" class="edge"><title>Node12&#45;&gt;Node9</title>
<path fill="none" stroke="midnightblue" d="M424.365,-170.698C517.269,-160.312 701.503,-139.714 794.496,-129.317"/>
<polygon fill="midnightblue" stroke="midnightblue" points="423.861,-167.233 414.312,-171.822 424.639,-174.189 423.861,-167.233"/>
</g>
<!-- Node13&#45;&gt;Node8 -->
<g id="edge27" class="edge"><title>Node13&#45;&gt;Node8</title>
<path fill="none" stroke="midnightblue" d="M627.944,-163.726C608.316,-153.727 581.972,-140.307 564.988,-131.655"/>
<polygon fill="midnightblue" stroke="midnightblue" points="626.47,-166.903 636.969,-168.324 629.648,-160.666 626.47,-166.903"/>
</g>
<!-- Node13&#45;&gt;Node9 -->
<g id="edge28" class="edge"><title>Node13&#45;&gt;Node9</title>
<path fill="none" stroke="midnightblue" d="M695.229,-165.699C732.409,-155.507 786.271,-140.743 819.931,-131.516"/>
<polygon fill="midnightblue" stroke="midnightblue" points="693.934,-162.424 685.215,-168.444 695.785,-169.175 693.934,-162.424"/>
</g>
<!-- Node14&#45;&gt;Node5 -->
<g id="edge35" class="edge"><title>Node14&#45;&gt;Node5</title>
<path fill="none" stroke="midnightblue" d="M113.952,-214.112C115.7,-199.544 120.431,-179.929 133,-168 173.324,-129.728 241.209,-122.663 280.775,-122.084"/>
<polygon fill="midnightblue" stroke="midnightblue" points="110.431,-214.215 113.095,-224.469 117.407,-214.791 110.431,-214.215"/>
</g>
<!-- Node14&#45;&gt;Node6 -->
<g id="edge37" class="edge"><title>Node14&#45;&gt;Node6</title>
<path fill="none" stroke="midnightblue" d="M109.369,-214.187C107.743,-200.256 107.891,-181.44 117,-168 160.793,-103.385 257.461,-79.0479 304.395,-70.7938"/>
<polygon fill="midnightblue" stroke="midnightblue" points="105.918,-214.774 110.916,-224.116 112.834,-213.696 105.918,-214.774"/>
</g>
<!-- Node14&#45;&gt;Node11 -->
<g id="edge36" class="edge"><title>Node14&#45;&gt;Node11</title>
<path fill="none" stroke="midnightblue" d="M128.981,-216.718C138.322,-207.2 149.746,-195.561 157.411,-187.751"/>
<polygon fill="midnightblue" stroke="midnightblue" points="126.259,-214.494 121.752,-224.083 131.254,-219.398 126.259,-214.494"/>
</g>
<!-- Node15&#45;&gt;Node5 -->
<g id="edge40" class="edge"><title>Node15&#45;&gt;Node5</title>
<path fill="none" stroke="midnightblue" d="M328.76,-279.184C310.594,-272.462 290.703,-261.494 280,-244 256.98,-206.373 290.59,-152.335 305.493,-131.573"/>
<polygon fill="midnightblue" stroke="midnightblue" points="327.73,-282.531 338.324,-282.41 329.967,-275.898 327.73,-282.531"/>
</g>
<!-- Node15&#45;&gt;Node7 -->
<g id="edge42" class="edge"><title>Node15&#45;&gt;Node7</title>
<path fill="none" stroke="midnightblue" d="M391.58,-275.265C448.431,-242.152 591.779,-158.659 638.226,-131.605"/>
<polygon fill="midnightblue" stroke="midnightblue" points="389.801,-272.251 382.922,-280.309 393.324,-278.3 389.801,-272.251"/>
</g>
<!-- Node15&#45;&gt;Node8 -->
<g id="edge44" class="edge"><title>Node15&#45;&gt;Node8</title>
<path fill="none" stroke="midnightblue" d="M350.642,-273.105C325.837,-248.485 286.069,-200.578 313,-168 337.284,-138.625 447.497,-128.241 507.975,-124.715"/>
<polygon fill="midnightblue" stroke="midnightblue" points="348.428,-275.831 358.066,-280.231 353.275,-270.781 348.428,-275.831"/>
</g>
<!-- Node15&#45;&gt;Node12 -->
<g id="edge41" class="edge"><title>Node15&#45;&gt;Node12</title>
<path fill="none" stroke="midnightblue" d="M368,-270.348C368,-246.254 368,-205.308 368,-187.591"/>
<polygon fill="midnightblue" stroke="midnightblue" points="364.5,-270.368 368,-280.368 371.5,-270.369 364.5,-270.368"/>
</g>
<!-- Node15&#45;&gt;Node13 -->
<g id="edge43" class="edge"><title>Node15&#45;&gt;Node13</title>
<path fill="none" stroke="midnightblue" d="M408.015,-288.674C455.748,-286.65 536.544,-277.929 596,-244 620.433,-230.058 639.979,-202.062 648.842,-187.795"/>
<polygon fill="midnightblue" stroke="midnightblue" points="407.65,-285.185 397.776,-289.027 407.89,-292.181 407.65,-285.185"/>
</g>
<!-- Node15&#45;&gt;Node14 -->
<g id="edge39" class="edge"><title>Node15&#45;&gt;Node14</title>
<path fill="none" stroke="midnightblue" d="M328.577,-280.652C281.044,-270.586 201.573,-253.757 153.544,-243.586"/>
<polygon fill="midnightblue" stroke="midnightblue" points="327.991,-284.105 338.499,-282.753 329.441,-277.257 327.991,-284.105"/>
</g>
<!-- Node16&#45;&gt;Node3 -->
<g id="edge48" class="edge"><title>Node16&#45;&gt;Node3</title>
<path fill="none" stroke="midnightblue" d="M786.854,-231.533C893.993,-226.612 1124.06,-205.191 1053,-112 1006.04,-50.4162 752.993,-20.8055 675.541,-13.0947"/>
<polygon fill="midnightblue" stroke="midnightblue" points="786.417,-228.048 776.576,-231.972 786.716,-235.042 786.417,-228.048"/>
</g>
<!-- Node16&#45;&gt;Node4 -->
<g id="edge46" class="edge"><title>Node16&#45;&gt;Node4</title>
<path fill="none" stroke="midnightblue" d="M754.314,-218.101C766.912,-208.382 782.928,-196.027 793.549,-187.834"/>
<polygon fill="midnightblue" stroke="midnightblue" points="752.027,-215.445 746.247,-224.324 756.302,-220.987 752.027,-215.445"/>
</g>
<!-- Node16&#45;&gt;Node5 -->
<g id="edge47" class="edge"><title>Node16&#45;&gt;Node5</title>
<path fill="none" stroke="midnightblue" d="M728.582,-214.627C722.262,-199.465 711.055,-178.756 694,-168 664.523,-149.41 429.117,-131.216 343.224,-125.133"/>
<polygon fill="midnightblue" stroke="midnightblue" points="725.344,-215.96 732.188,-224.047 731.882,-213.457 725.344,-215.96"/>
</g>
<!-- Node16&#45;&gt;Node7 -->
<g id="edge49" class="edge"><title>Node16&#45;&gt;Node7</title>
<path fill="none" stroke="midnightblue" d="M737.234,-213.944C737.889,-200.142 736.693,-181.597 728,-168 716.713,-150.345 695.8,-138.648 678.92,-131.615"/>
<polygon fill="midnightblue" stroke="midnightblue" points="733.721,-213.951 736.373,-224.209 740.697,-214.537 733.721,-213.951"/>
</g>
<!-- Node16&#45;&gt;Node9 -->
<g id="edge51" class="edge"><title>Node16&#45;&gt;Node9</title>
<path fill="none" stroke="midnightblue" d="M786.6,-230.401C816.762,-225.905 852.609,-214.78 872,-188 884.658,-170.518 868.704,-145.04 858.423,-131.772"/>
<polygon fill="midnightblue" stroke="midnightblue" points="786.093,-226.937 776.621,-231.684 786.986,-233.88 786.093,-226.937"/>
</g>
<!-- Node16&#45;&gt;Node13 -->
<g id="edge50" class="edge"><title>Node16&#45;&gt;Node13</title>
<path fill="none" stroke="midnightblue" d="M713.433,-218.622C698.636,-208.757 679.488,-195.992 666.982,-187.655"/>
<polygon fill="midnightblue" stroke="midnightblue" points="711.724,-221.689 721.986,-224.324 715.607,-215.865 711.724,-221.689"/>
</g>
</g>
</svg>
        <g id="navigator" transform="translate(0 0)" fill="#404254">
                <rect fill="#f2f5e9" fill-opacity="0.5" stroke="#606060" stroke-width=".5" x="0" y="0" width="60" height="60"/>
                <use id="zoomplus" xlink:href="#zoomPlus" x="17" y="9" onmousedown="handleZoom(evt,'in')"/>
                <use id="zoomminus" xlink:href="#zoomMin" x="42" y="9" onmousedown="handleZoom(evt,'out')"/>
                <use id="reset" xlink:href="#resetDef" x="30" y="36" onmousedown="handleReset()"/>
                <g id="arrowUp" xlink:href="#dirArrow" transform="translate(30 24)" onmousedown="handlePan(0,-1)">
                  <use xlink:href="#rim" fill="#404040">
                        <set attributeName="fill" to="#808080" begin="arrowUp.mouseover" end="arrowUp.mouseout"/>
                  </use>
                  <path fill="none" stroke="white" stroke-width="1.5" d="M0,-3.0v7 M-2.5,-0.5L0,-3.0L2.5,-0.5"/>
                </g>
                <g id="arrowRight" xlink:href="#dirArrow" transform="rotate(90) translate(36 -43)" onmousedown="handlePan(1,0)">
                  <use xlink:href="#rim" fill="#404040">
                        <set attributeName="fill" to="#808080" begin="arrowRight.mouseover" end="arrowRight.mouseout"/>
                  </use>
                  <path fill="none" stroke="white" stroke-width="1.5" d="M0,-3.0v7 M-2.5,-0.5L0,-3.0L2.5,-0.5"/>
                </g>
                <g id="arrowDown" xlink:href="#dirArrow" transform="rotate(180) translate(-30 -48)" onmousedown="handlePan(0,1)">
                  <use xlink:href="#rim" fill="#404040">
                        <set attributeName="fill" to="#808080" begin="arrowDown.mouseover" end="arrowDown.mouseout"/>
                  </use>
                  <path fill="none" stroke="white" stroke-width="1.5" d="M0,-3.0v7 M-2.5,-0.5L0,-3.0L2.5,-0.5"/>
                </g>
                <g id="arrowLeft" xlink:href="#dirArrow" transform="rotate(270) translate(-36 17)" onmousedown="handlePan(-1,0)">
                  <use xlink:href="#rim" fill="#404040">
                        <set attributeName="fill" to="#808080" begin="arrowLeft.mouseover" end="arrowLeft.mouseout"/>
                  </use>
                  <path fill="none" stroke="white" stroke-width="1.5" d="M0,-3.0v7 M-2.5,-0.5L0,-3.0L2.5,-0.5"/>
                </g>
        </g>
        <svg viewBox="0 0 15 15" width="100%" height="30px" preserveAspectRatio="xMaxYMin meet">
         <g id="arrow_out" transform="scale(0.3 0.3)">
          <a xlink:href="types_8hpp__dep__incl_org.svg" target="_base">
           <rect id="button" ry="5" rx="5" y="6" x="6" height="38" width="38"
                fill="#f2f5e9" fill-opacity="0.5" stroke="#606060" stroke-width="1.0"/>
           <path id="arrow"
             d="M 11.500037,31.436501 C 11.940474,20.09759 22.043105,11.32322 32.158766,21.979434 L 37.068811,17.246167 C 37.068811,17.246167 37.088388,32 37.088388,32 L 22.160133,31.978069 C 22.160133,31.978069 26.997745,27.140456 26.997745,27.140456 C 18.528582,18.264221 13.291696,25.230495 11.500037,31.436501 z"
             style="fill:#404040;"/>
          </a>
         </g>
        </svg>
</svg>
