<?xml version="1.0" encoding="UTF-8" standalone="no"?>
<!DOCTYPE svg PUBLIC "-//W3C//DTD SVG 1.1//EN"
 "http://www.w3.org/Graphics/SVG/1.1/DTD/svg11.dtd">
<!-- Generated by graphviz version 2.43.0 (0)
 -->
<!-- Title: types.hpp Pages: 1 -->
<svg width="1138pt" height="357pt"
 viewBox="0.00 0.00 1138.18 357.00" xmlns="http://www.w3.org/2000/svg" xmlns:xlink="http://www.w3.org/1999/xlink">
<g id="graph0" class="graph" transform="scale(1 1) rotate(0) translate(4 353)">
<title>types.hpp</title>
<!-- Node1 -->
<g id="Node000001" class="node">
<title>Node1</title>
<g id="a_Node000001"><a xlink:title=" ">
<polygon fill="#999999" stroke="#666666" points="527.5,-349 462.5,-349 462.5,-330 527.5,-330 527.5,-349"/>
<text text-anchor="middle" x="495" y="-337" font-family="Helvetica,sans-Serif" font-size="10.00">types.hpp</text>
</a>
</g>
</g>
<!-- Node2 -->
<g id="Node000002" class="node">
<title>Node2</title>
<g id="a_Node000002"><a xlink:href="const_8hpp.html" target="_top" xlink:title=" ">
<polygon fill="white" stroke="#666666" points="370,-294 306,-294 306,-275 370,-275 370,-294"/>
<text text-anchor="middle" x="338" y="-282" font-family="Helvetica,sans-Serif" font-size="10.00">const.hpp</text>
</a>
</g>
</g>
<!-- Node1&#45;&gt;Node2 -->
<g id="edge1_Node000001_Node000002" class="edge">
<title>Node1&#45;&gt;Node2</title>
<g id="a_edge1_Node000001_Node000002"><a xlink:title=" ">
<path fill="none" stroke="#63b8ff" d="M459.95,-326.67C430.68,-316.79 389.63,-302.93 363.42,-294.08"/>
<polygon fill="#63b8ff" stroke="#63b8ff" points="459.18,-330.1 469.78,-329.98 461.42,-323.47 459.18,-330.1"/>
</a>
</g>
</g>
<!-- Node3 -->
<g id="Node000003" class="node">
<title>Node3</title>
<g id="a_Node000003"><a xlink:href="format_8hpp.html" target="_top" xlink:title=" ">
<polygon fill="white" stroke="#666666" points="711.5,-184 640.5,-184 640.5,-165 711.5,-165 711.5,-184"/>
<text text-anchor="middle" x="676" y="-172" font-family="Helvetica,sans-Serif" font-size="10.00">format.hpp</text>
</a>
</g>
</g>
<!-- Node1&#45;&gt;Node3 -->
<g id="edge43_Node000001_Node000003" class="edge">
<title>Node1&#45;&gt;Node3</title>
<g id="a_edge43_Node000001_Node000003"><a xlink:title=" ">
<path fill="none" stroke="#63b8ff" d="M517.16,-324.48C544.6,-306.54 591.98,-273.63 627,-239 644.82,-221.38 661.81,-197.14 670.32,-184.31"/>
<polygon fill="#63b8ff" stroke="#63b8ff" points="515.17,-321.6 508.67,-329.97 518.97,-327.48 515.17,-321.6"/>
</a>
</g>
</g>
<!-- Node6 -->
<g id="Node000006" class="node">
<title>Node6</title>
<g id="a_Node000006"><a xlink:href="tag__scalar__vector_8hpp.html" target="_top" xlink:title=" ">
<polygon fill="white" stroke="#666666" points="956.5,-129 833.5,-129 833.5,-110 956.5,-110 956.5,-129"/>
<text text-anchor="middle" x="895" y="-117" font-family="Helvetica,sans-Serif" font-size="10.00">tag_scalar_vector.hpp</text>
</a>
</g>
</g>
<!-- Node1&#45;&gt;Node6 -->
<g id="edge56_Node000001_Node000006" class="edge">
<title>Node1&#45;&gt;Node6</title>
<g id="a_edge56_Node000001_Node000006"><a xlink:title=" ">
<path fill="none" stroke="#63b8ff" d="M537.74,-336.81C590.88,-333.47 683.56,-323.53 757,-294 837.74,-261.53 878.26,-260.91 919,-184 928.93,-165.25 913.03,-141.48 902.72,-129.01"/>
<polygon fill="#63b8ff" stroke="#63b8ff" points="537.43,-333.32 527.65,-337.39 537.84,-340.31 537.43,-333.32"/>
</a>
</g>
</g>
<!-- Node7 -->
<g id="Node000007" class="node">
<title>Node7</title>
<g id="a_Node000007"><a xlink:href="input__stream_8hpp.html" target="_top" xlink:title=" ">
<polygon fill="white" stroke="#666666" points="168,-239 66,-239 66,-220 168,-220 168,-239"/>
<text text-anchor="middle" x="117" y="-227" font-family="Helvetica,sans-Serif" font-size="10.00">input_stream.hpp</text>
</a>
</g>
</g>
<!-- Node1&#45;&gt;Node7 -->
<g id="edge44_Node000001_Node000007" class="edge">
<title>Node1&#45;&gt;Node7</title>
<g id="a_edge44_Node000001_Node000007"><a xlink:title=" ">
<path fill="none" stroke="#63b8ff" d="M451.98,-335.7C377.64,-330.31 228.64,-316.96 182,-294 155.67,-281.04 133.29,-253.39 123.02,-239.24"/>
<polygon fill="#63b8ff" stroke="#63b8ff" points="452.16,-339.22 462.38,-336.43 452.65,-332.24 452.16,-339.22"/>
</a>
</g>
</g>
<!-- Node8 -->
<g id="Node000008" class="node">
<title>Node8</title>
<g id="a_Node000008"><a xlink:href="lex_8hpp.html" target="_top" xlink:title=" ">
<polygon fill="white" stroke="#666666" points="195.5,-184 142.5,-184 142.5,-165 195.5,-165 195.5,-184"/>
<text text-anchor="middle" x="169" y="-172" font-family="Helvetica,sans-Serif" font-size="10.00">lex.hpp</text>
</a>
</g>
</g>
<!-- Node1&#45;&gt;Node8 -->
<g id="edge45_Node000001_Node000008" class="edge">
<title>Node1&#45;&gt;Node8</title>
<g id="a_edge45_Node000001_Node000008"><a xlink:title=" ">
<path fill="none" stroke="#63b8ff" d="M452.27,-335.36C410.6,-330.86 346.45,-319.99 297,-294 242.05,-265.11 193.03,-206.5 175.67,-184.3"/>
<polygon fill="#63b8ff" stroke="#63b8ff" points="452.06,-338.86 462.36,-336.38 452.76,-331.9 452.06,-338.86"/>
</a>
</g>
</g>
<!-- Node9 -->
<g id="Node000009" class="node">
<title>Node9</title>
<g id="a_Node000009"><a xlink:href="parser_8hpp.html" target="_top" xlink:title=" ">
<polygon fill="white" stroke="#666666" points="314,-129 246,-129 246,-110 314,-110 314,-129"/>
<text text-anchor="middle" x="280" y="-117" font-family="Helvetica,sans-Serif" font-size="10.00">parser.hpp</text>
</a>
</g>
</g>
<!-- Node1&#45;&gt;Node9 -->
<g id="edge46_Node000001_Node000009" class="edge">
<title>Node1&#45;&gt;Node9</title>
<g id="a_edge46_Node000001_Node000009"><a xlink:title=" ">
<path fill="none" stroke="#63b8ff" d="M452.32,-338.31C386.23,-336.84 255.91,-329.23 152,-294 105.8,-278.33 81.37,-281.27 57,-239 13.31,-163.23 173.14,-133.59 245.82,-124.2"/>
<polygon fill="#63b8ff" stroke="#63b8ff" points="452.3,-341.81 462.36,-338.5 452.43,-334.81 452.3,-341.81"/>
</a>
</g>
</g>
<!-- Node10 -->
<g id="Node000010" class="node">
<title>Node10</title>
<g id="a_Node000010"><a xlink:href="utils_8hpp.html" target="_top" xlink:title=" ">
<polygon fill="white" stroke="#666666" points="327.5,-74 268.5,-74 268.5,-55 327.5,-55 327.5,-74"/>
<text text-anchor="middle" x="298" y="-62" font-family="Helvetica,sans-Serif" font-size="10.00">utils.hpp</text>
</a>
</g>
</g>
<!-- Node1&#45;&gt;Node10 -->
<g id="edge58_Node000001_Node000010" class="edge">
<title>Node1&#45;&gt;Node10</title>
<g id="a_edge58_Node000001_Node000010"><a xlink:title=" ">
<path fill="none" stroke="#63b8ff" d="M451.82,-338.22C331.28,-336.29 0,-322.61 0,-230.5 0,-230.5 0,-230.5 0,-173.5 0,-116.82 192.96,-81.43 268.34,-69.76"/>
<polygon fill="#63b8ff" stroke="#63b8ff" points="452.09,-341.73 462.14,-338.37 452.19,-334.73 452.09,-341.73"/>
</a>
</g>
</g>
<!-- Node11 -->
<g id="Node000011" class="node">
<title>Node11</title>
<g id="a_Node000011"><a xlink:href="string__format_8hpp.html" target="_top" xlink:title=" ">
<polygon fill="white" stroke="#666666" points="470,-184 366,-184 366,-165 470,-165 470,-184"/>
<text text-anchor="middle" x="418" y="-172" font-family="Helvetica,sans-Serif" font-size="10.00">string_format.hpp</text>
</a>
</g>
</g>
<!-- Node1&#45;&gt;Node11 -->
<g id="edge54_Node000001_Node000011" class="edge">
<title>Node1&#45;&gt;Node11</title>
<g id="a_edge54_Node000001_Node000011"><a xlink:title=" ">
<path fill="none" stroke="#63b8ff" d="M486.39,-320.28C469.88,-285.32 434.3,-210.01 422.16,-184.31"/>
<polygon fill="#63b8ff" stroke="#63b8ff" points="483.42,-322.19 490.86,-329.74 489.75,-319.2 483.42,-322.19"/>
</a>
</g>
</g>
<!-- Node13 -->
<g id="Node000013" class="node">
<title>Node13</title>
<g id="a_Node000013"><a xlink:href="exceptions_8hpp.html" target="_top" xlink:title=" ">
<polygon fill="white" stroke="#666666" points="588.5,-239 497.5,-239 497.5,-220 588.5,-220 588.5,-239"/>
<text text-anchor="middle" x="543" y="-227" font-family="Helvetica,sans-Serif" font-size="10.00">exceptions.hpp</text>
</a>
</g>
</g>
<!-- Node1&#45;&gt;Node13 -->
<g id="edge23_Node000001_Node000013" class="edge">
<title>Node1&#45;&gt;Node13</title>
<g id="a_edge23_Node000001_Node000013"><a xlink:title=" ">
<path fill="none" stroke="#63b8ff" d="M503.03,-320.44C513.48,-296.92 531.34,-256.73 539.15,-239.16"/>
<polygon fill="#63b8ff" stroke="#63b8ff" points="499.79,-319.1 498.93,-329.66 506.19,-321.95 499.79,-319.1"/>
</a>
</g>
</g>
<!-- Node14 -->
<g id="Node000014" class="node">
<title>Node14</title>
<g id="a_Node000014"><a xlink:href="tag_8hpp.html" target="_top" xlink:title=" ">
<polygon fill="white" stroke="#666666" points="859.5,-184 806.5,-184 806.5,-165 859.5,-165 859.5,-184"/>
<text text-anchor="middle" x="833" y="-172" font-family="Helvetica,sans-Serif" font-size="10.00">tag.hpp</text>
</a>
</g>
</g>
<!-- Node1&#45;&gt;Node14 -->
<g id="edge55_Node000001_Node000014" class="edge">
<title>Node1&#45;&gt;Node14</title>
<g id="a_edge55_Node000001_Node000014"><a xlink:title=" ">
<path fill="none" stroke="#63b8ff" d="M537.78,-333.91C583.11,-328.13 656.25,-316.15 716,-294 762.83,-276.64 782.79,-277.99 814,-239 827.09,-222.65 831.17,-197.45 832.44,-184.25"/>
<polygon fill="#63b8ff" stroke="#63b8ff" points="537.21,-330.45 527.71,-335.15 538.06,-337.4 537.21,-330.45"/>
</a>
</g>
</g>
<!-- Node15 -->
<g id="Node000015" class="node">
<title>Node15</title>
<g id="a_Node000015"><a xlink:href="tag__vector__of__tags_8hpp.html" target="_top" xlink:title=" ">
<polygon fill="white" stroke="#666666" points="1105.5,-129 974.5,-129 974.5,-110 1105.5,-110 1105.5,-129"/>
<text text-anchor="middle" x="1040" y="-117" font-family="Helvetica,sans-Serif" font-size="10.00">tag_vector_of_tags.hpp</text>
</a>
</g>
</g>
<!-- Node1&#45;&gt;Node15 -->
<g id="edge57_Node000001_Node000015" class="edge">
<title>Node1&#45;&gt;Node15</title>
<g id="a_edge57_Node000001_Node000015"><a xlink:title=" ">
<path fill="none" stroke="#63b8ff" d="M537.69,-336.71C597.14,-333.22 707.62,-323.07 797,-294 847.1,-277.71 858.4,-268.57 902,-239 955.05,-203.01 1010.74,-149.59 1031.53,-129.01"/>
<polygon fill="#63b8ff" stroke="#63b8ff" points="537.34,-333.22 527.55,-337.27 537.73,-340.21 537.34,-333.22"/>
</a>
</g>
</g>
<!-- Node16 -->
<g id="Node000016" class="node">
<title>Node16</title>
<g id="a_Node000016"><a xlink:href="parser__info_8hpp.html" target="_top" xlink:title=" ">
<polygon fill="white" stroke="#666666" points="805,-239 713,-239 713,-220 805,-220 805,-239"/>
<text text-anchor="middle" x="759" y="-227" font-family="Helvetica,sans-Serif" font-size="10.00">parser_info.hpp</text>
</a>
</g>
</g>
<!-- Node1&#45;&gt;Node16 -->
<g id="edge47_Node000001_Node000016" class="edge">
<title>Node1&#45;&gt;Node16</title>
<g id="a_edge47_Node000001_Node000016"><a xlink:title=" ">
<path fill="none" stroke="#63b8ff" d="M537.62,-334.7C577.96,-329.73 639.28,-318.56 687,-294 714.27,-279.97 739.53,-253.3 751.59,-239.41"/>
<polygon fill="#63b8ff" stroke="#63b8ff" points="537.12,-331.23 527.59,-335.86 537.92,-338.18 537.12,-331.23"/>
</a>
</g>
</g>
<!-- Node2&#45;&gt;Node3 -->
<g id="edge2_Node000002_Node000003" class="edge">
<title>Node2&#45;&gt;Node3</title>
<g id="a_edge2_Node000002_Node000003"><a xlink:title=" ">
<path fill="none" stroke="#63b8ff" d="M380.22,-282.69C433.1,-280.26 525.45,-271.26 597,-239 626.84,-225.55 655.02,-198.12 668.2,-184.13"/>
<polygon fill="#63b8ff" stroke="#63b8ff" points="380.04,-279.2 370.19,-283.09 380.32,-286.19 380.04,-279.2"/>
</a>
</g>
</g>
<!-- Node4 -->
<g id="Node000004" class="node">
<title>Node4</title>
<g id="a_Node000004"><a xlink:href="tag__scalar_8hpp.html" target="_top" xlink:title=" ">
<polygon fill="white" stroke="#666666" points="617.5,-129 530.5,-129 530.5,-110 617.5,-110 617.5,-129"/>
<text text-anchor="middle" x="574" y="-117" font-family="Helvetica,sans-Serif" font-size="10.00">tag_scalar.hpp</text>
</a>
</g>
</g>
<!-- Node2&#45;&gt;Node4 -->
<g id="edge22_Node000002_Node000004" class="edge">
<title>Node2&#45;&gt;Node4</title>
<g id="a_edge22_Node000002_Node000004"><a xlink:title=" ">
<path fill="none" stroke="#63b8ff" d="M328.56,-265.63C316.57,-240.19 300.15,-193.47 324,-165 349.83,-134.16 465.89,-124.68 530.4,-121.77"/>
<polygon fill="#63b8ff" stroke="#63b8ff" points="325.55,-267.44 333.14,-274.83 331.82,-264.32 325.55,-267.44"/>
</a>
</g>
</g>
<!-- Node2&#45;&gt;Node7 -->
<g id="edge7_Node000002_Node000007" class="edge">
<title>Node2&#45;&gt;Node7</title>
<g id="a_edge7_Node000002_Node000007"><a xlink:title=" ">
<path fill="none" stroke="#63b8ff" d="M296.05,-273.44C254.51,-263.48 191.59,-248.39 152.47,-239.01"/>
<polygon fill="#63b8ff" stroke="#63b8ff" points="295.32,-276.86 305.86,-275.79 296.96,-270.06 295.32,-276.86"/>
</a>
</g>
</g>
<!-- Node2&#45;&gt;Node9 -->
<g id="edge15_Node000002_Node000009" class="edge">
<title>Node2&#45;&gt;Node9</title>
<g id="a_edge15_Node000002_Node000009"><a xlink:title=" ">
<path fill="none" stroke="#63b8ff" d="M313.71,-269.16C303.25,-261.6 292.06,-251.33 286,-239 267.65,-201.66 274.52,-149.46 278.24,-129.11"/>
<polygon fill="#63b8ff" stroke="#63b8ff" points="311.93,-272.18 322.19,-274.85 315.84,-266.37 311.93,-272.18"/>
</a>
</g>
</g>
<!-- Node2&#45;&gt;Node11 -->
<g id="edge16_Node000002_Node000011" class="edge">
<title>Node2&#45;&gt;Node11</title>
<g id="a_edge16_Node000002_Node000011"><a xlink:title=" ">
<path fill="none" stroke="#63b8ff" d="M350.68,-266.38C368,-243.01 398.39,-201.97 411.59,-184.16"/>
<polygon fill="#63b8ff" stroke="#63b8ff" points="347.69,-264.54 344.55,-274.66 353.31,-268.71 347.69,-264.54"/>
</a>
</g>
</g>
<!-- Node12 -->
<g id="Node000012" class="node">
<title>Node12</title>
<g id="a_Node000012"><a xlink:href="tag__no__value_8hpp.html" target="_top" xlink:title=" ">
<polygon fill="white" stroke="#666666" points="738.5,-129 635.5,-129 635.5,-110 738.5,-110 738.5,-129"/>
<text text-anchor="middle" x="687" y="-117" font-family="Helvetica,sans-Serif" font-size="10.00">tag_no_value.hpp</text>
</a>
</g>
</g>
<!-- Node2&#45;&gt;Node12 -->
<g id="edge20_Node000002_Node000012" class="edge">
<title>Node2&#45;&gt;Node12</title>
<g id="a_edge20_Node000002_Node000012"><a xlink:title=" ">
<path fill="none" stroke="#63b8ff" d="M334.85,-264.66C331.64,-238.37 330.35,-190.97 357,-165 400.2,-122.91 566.24,-137.16 626,-129 629.07,-128.58 632.23,-128.15 635.42,-127.71"/>
<polygon fill="#63b8ff" stroke="#63b8ff" points="331.42,-265.42 336.32,-274.81 338.35,-264.42 331.42,-265.42"/>
</a>
</g>
</g>
<!-- Node3&#45;&gt;Node4 -->
<g id="edge3_Node000003_Node000004" class="edge">
<title>Node3&#45;&gt;Node4</title>
<g id="a_edge3_Node000003_Node000004"><a xlink:title=" ">
<path fill="none" stroke="#63b8ff" d="M650.73,-160.37C631.99,-150.63 606.98,-137.64 590.69,-129.17"/>
<polygon fill="#63b8ff" stroke="#63b8ff" points="649.12,-163.48 659.61,-164.98 652.35,-157.27 649.12,-163.48"/>
</a>
</g>
</g>
<!-- Node3&#45;&gt;Node6 -->
<g id="edge5_Node000003_Node000006" class="edge">
<title>Node3&#45;&gt;Node6</title>
<g id="a_edge5_Node000003_Node000006"><a xlink:title=" ">
<path fill="none" stroke="#63b8ff" d="M720.93,-162.63C761.95,-152.7 821.79,-138.22 859.54,-129.08"/>
<polygon fill="#63b8ff" stroke="#63b8ff" points="720.08,-159.23 711.19,-164.98 721.73,-166.03 720.08,-159.23"/>
</a>
</g>
</g>
<!-- Node5 -->
<g id="Node000005" class="node">
<title>Node5</title>
<g id="a_Node000005"><a xlink:href="all_8hpp.html" target="_top" xlink:title=" ">
<polygon fill="white" stroke="#666666" points="712,-19 662,-19 662,0 712,0 712,-19"/>
<text text-anchor="middle" x="687" y="-7" font-family="Helvetica,sans-Serif" font-size="10.00">all.hpp</text>
</a>
</g>
</g>
<!-- Node4&#45;&gt;Node5 -->
<g id="edge4_Node000004_Node000005" class="edge">
<title>Node4&#45;&gt;Node5</title>
<g id="a_edge4_Node000004_Node000005"><a xlink:title=" ">
<path fill="none" stroke="#63b8ff" d="M590.63,-102.61C614.84,-79.47 658.97,-37.29 677.94,-19.16"/>
<polygon fill="#63b8ff" stroke="#63b8ff" points="588.06,-100.22 583.25,-109.66 592.89,-105.28 588.06,-100.22"/>
</a>
</g>
</g>
<!-- Node6&#45;&gt;Node5 -->
<g id="edge6_Node000006_Node000005" class="edge">
<title>Node6&#45;&gt;Node5</title>
<g id="a_edge6_Node000006_Node000005"><a xlink:title=" ">
<path fill="none" stroke="#63b8ff" d="M879.77,-102.8C865.28,-88.62 842.29,-68.04 819,-55 784.4,-35.62 739.96,-22.81 712.48,-16.1"/>
<polygon fill="#63b8ff" stroke="#63b8ff" points="877.35,-105.33 886.9,-109.93 882.3,-100.38 877.35,-105.33"/>
</a>
</g>
</g>
<!-- Node7&#45;&gt;Node8 -->
<g id="edge8_Node000007_Node000008" class="edge">
<title>Node7&#45;&gt;Node8</title>
<g id="a_edge8_Node000007_Node000008"><a xlink:title=" ">
<path fill="none" stroke="#63b8ff" d="M132.68,-212.52C141.84,-203.18 153.05,-191.75 160.57,-184.09"/>
<polygon fill="#63b8ff" stroke="#63b8ff" points="130.09,-210.16 125.59,-219.75 135.09,-215.06 130.09,-210.16"/>
</a>
</g>
</g>
<!-- Node7&#45;&gt;Node9 -->
<g id="edge13_Node000007_Node000009" class="edge">
<title>Node7&#45;&gt;Node9</title>
<g id="a_edge13_Node000007_Node000009"><a xlink:title=" ">
<path fill="none" stroke="#63b8ff" d="M116.99,-209.82C117.99,-195.76 121.61,-176.94 133,-165 162.45,-134.13 212.51,-124.46 245.91,-121.56"/>
<polygon fill="#63b8ff" stroke="#63b8ff" points="113.49,-209.74 116.66,-219.85 120.49,-209.97 113.49,-209.74"/>
</a>
</g>
</g>
<!-- Node7&#45;&gt;Node10 -->
<g id="edge14_Node000007_Node000010" class="edge">
<title>Node7&#45;&gt;Node10</title>
<g id="a_edge14_Node000007_Node000010"><a xlink:title=" ">
<path fill="none" stroke="#63b8ff" d="M112.99,-209.95C111.12,-196.5 110.84,-178.39 119,-165 152.22,-110.51 226.86,-83.51 268.5,-72.25"/>
<polygon fill="#63b8ff" stroke="#63b8ff" points="109.58,-210.72 114.79,-219.95 116.47,-209.49 109.58,-210.72"/>
</a>
</g>
</g>
<!-- Node8&#45;&gt;Node9 -->
<g id="edge9_Node000008_Node000009" class="edge">
<title>Node8&#45;&gt;Node9</title>
<g id="a_edge9_Node000008_Node000009"><a xlink:title=" ">
<path fill="none" stroke="#63b8ff" d="M195.95,-160.63C216.39,-150.87 243.95,-137.71 261.84,-129.17"/>
<polygon fill="#63b8ff" stroke="#63b8ff" points="194.35,-157.52 186.83,-164.98 197.37,-163.83 194.35,-157.52"/>
</a>
</g>
</g>
<!-- Node9&#45;&gt;Node5 -->
<g id="edge10_Node000009_Node000005" class="edge">
<title>Node9&#45;&gt;Node5</title>
<g id="a_edge10_Node000009_Node000005"><a xlink:title=" ">
<path fill="none" stroke="#63b8ff" d="M315.34,-106.81C356.53,-93.39 426.79,-71.16 488,-55 549.95,-38.64 623.78,-23.17 661.72,-15.51"/>
<polygon fill="#63b8ff" stroke="#63b8ff" points="314.18,-103.51 305.76,-109.94 316.35,-110.16 314.18,-103.51"/>
</a>
</g>
</g>
<!-- Node9&#45;&gt;Node10 -->
<g id="edge11_Node000009_Node000010" class="edge">
<title>Node9&#45;&gt;Node10</title>
<g id="a_edge11_Node000009_Node000010"><a xlink:title=" ">
<path fill="none" stroke="#63b8ff" d="M286.2,-100.24C289.21,-91.37 292.69,-81.14 295.08,-74.09"/>
<polygon fill="#63b8ff" stroke="#63b8ff" points="282.87,-99.15 282.97,-109.75 289.5,-101.4 282.87,-99.15"/>
</a>
</g>
</g>
<!-- Node10&#45;&gt;Node5 -->
<g id="edge12_Node000010_Node000005" class="edge">
<title>Node10&#45;&gt;Node5</title>
<g id="a_edge12_Node000010_Node000005"><a xlink:title=" ">
<path fill="none" stroke="#63b8ff" d="M337.7,-58.09C417.52,-47.22 595.47,-22.97 661.61,-13.96"/>
<polygon fill="#63b8ff" stroke="#63b8ff" points="336.99,-54.65 327.56,-59.47 337.94,-61.59 336.99,-54.65"/>
</a>
</g>
</g>
<!-- Node11&#45;&gt;Node4 -->
<g id="edge18_Node000011_Node000004" class="edge">
<title>Node11&#45;&gt;Node4</title>
<g id="a_edge18_Node000011_Node000004"><a xlink:title=" ">
<path fill="none" stroke="#63b8ff" d="M452.82,-161.67C481.91,-151.79 522.7,-137.93 548.74,-129.08"/>
<polygon fill="#63b8ff" stroke="#63b8ff" points="451.41,-158.45 443.06,-164.98 453.66,-165.08 451.41,-158.45"/>
</a>
</g>
</g>
<!-- Node11&#45;&gt;Node6 -->
<g id="edge19_Node000011_Node000006" class="edge">
<title>Node11&#45;&gt;Node6</title>
<g id="a_edge19_Node000011_Node000006"><a xlink:title=" ">
<path fill="none" stroke="#63b8ff" d="M480.39,-166.57C572.1,-156.38 742.29,-137.47 833.5,-127.33"/>
<polygon fill="#63b8ff" stroke="#63b8ff" points="479.96,-163.09 470.41,-167.68 480.74,-170.05 479.96,-163.09"/>
</a>
</g>
</g>
<!-- Node11&#45;&gt;Node9 -->
<g id="edge17_Node000011_Node000009" class="edge">
<title>Node11&#45;&gt;Node9</title>
<g id="a_edge17_Node000011_Node000009"><a xlink:title=" ">
<path fill="none" stroke="#63b8ff" d="M386.21,-161.29C360.63,-151.47 325.33,-137.91 302.58,-129.17"/>
<polygon fill="#63b8ff" stroke="#63b8ff" points="385.24,-164.67 395.83,-164.98 387.75,-158.13 385.24,-164.67"/>
</a>
</g>
</g>
<!-- Node12&#45;&gt;Node5 -->
<g id="edge21_Node000012_Node000005" class="edge">
<title>Node12&#45;&gt;Node5</title>
<g id="a_edge21_Node000012_Node000005"><a xlink:title=" ">
<path fill="none" stroke="#63b8ff" d="M687,-99.48C687,-75.84 687,-36.5 687,-19.16"/>
<polygon fill="#63b8ff" stroke="#63b8ff" points="683.5,-99.66 687,-109.66 690.5,-99.66 683.5,-99.66"/>
</a>
</g>
</g>
<!-- Node13&#45;&gt;Node3 -->
<g id="edge25_Node000013_Node000003" class="edge">
<title>Node13&#45;&gt;Node3</title>
<g id="a_edge25_Node000013_Node000003"><a xlink:title=" ">
<path fill="none" stroke="#63b8ff" d="M573.97,-216.16C598.59,-206.35 632.41,-192.87 654.24,-184.17"/>
<polygon fill="#63b8ff" stroke="#63b8ff" points="572.36,-213.03 564.37,-219.98 574.95,-219.53 572.36,-213.03"/>
</a>
</g>
</g>
<!-- Node13&#45;&gt;Node4 -->
<g id="edge39_Node000013_Node000004" class="edge">
<title>Node13&#45;&gt;Node4</title>
<g id="a_edge39_Node000013_Node000004"><a xlink:title=" ">
<path fill="none" stroke="#63b8ff" d="M548.37,-209.8C555.14,-186.2 566.51,-146.58 571.51,-129.16"/>
<polygon fill="#63b8ff" stroke="#63b8ff" points="544.93,-209.08 545.54,-219.66 551.66,-211.02 544.93,-209.08"/>
</a>
</g>
</g>
<!-- Node13&#45;&gt;Node5 -->
<g id="edge24_Node000013_Node000005" class="edge">
<title>Node13&#45;&gt;Node5</title>
<g id="a_edge24_Node000013_Node000005"><a xlink:title=" ">
<path fill="none" stroke="#63b8ff" d="M532.74,-210.71C520.2,-186.41 502.77,-142.18 521,-110 551.39,-56.35 623.5,-28.49 661.91,-17.01"/>
<polygon fill="#63b8ff" stroke="#63b8ff" points="529.84,-212.71 537.7,-219.82 535.99,-209.36 529.84,-212.71"/>
</a>
</g>
</g>
<!-- Node13&#45;&gt;Node6 -->
<g id="edge40_Node000013_Node000006" class="edge">
<title>Node13&#45;&gt;Node6</title>
<g id="a_edge40_Node000013_Node000006"><a xlink:title=" ">
<path fill="none" stroke="#63b8ff" d="M598.72,-223.87C685.96,-216.18 847.02,-200.03 868,-184 885.71,-170.47 891.94,-143.08 894.02,-129.11"/>
<polygon fill="#63b8ff" stroke="#63b8ff" points="598.38,-220.39 588.72,-224.74 598.99,-227.36 598.38,-220.39"/>
</a>
</g>
</g>
<!-- Node13&#45;&gt;Node8 -->
<g id="edge26_Node000013_Node000008" class="edge">
<title>Node13&#45;&gt;Node8</title>
<g id="a_edge26_Node000013_Node000008"><a xlink:title=" ">
<path fill="none" stroke="#63b8ff" d="M487.03,-220.57C405.23,-208.98 256.21,-187.86 195.65,-179.28"/>
<polygon fill="#63b8ff" stroke="#63b8ff" points="486.75,-224.06 497.14,-222 487.73,-217.13 486.75,-224.06"/>
</a>
</g>
</g>
<!-- Node13&#45;&gt;Node9 -->
<g id="edge27_Node000013_Node000009" class="edge">
<title>Node13&#45;&gt;Node9</title>
<g id="a_edge27_Node000013_Node000009"><a xlink:title=" ">
<path fill="none" stroke="#63b8ff" d="M487.52,-221.96C449.31,-215.87 398.19,-204.52 357,-184 328.46,-169.78 301.17,-143.2 288.07,-129.37"/>
<polygon fill="#63b8ff" stroke="#63b8ff" points="487.03,-225.42 497.44,-223.47 488.08,-218.5 487.03,-225.42"/>
</a>
</g>
</g>
<!-- Node13&#45;&gt;Node10 -->
<g id="edge42_Node000013_Node000010" class="edge">
<title>Node13&#45;&gt;Node10</title>
<g id="a_edge42_Node000013_Node000010"><a xlink:title=" ">
<path fill="none" stroke="#63b8ff" d="M529.02,-212.28C516.72,-198.63 497.89,-179.13 479,-165 424.72,-124.41 351.93,-89.52 317.55,-74.04"/>
<polygon fill="#63b8ff" stroke="#63b8ff" points="526.52,-214.75 535.77,-219.93 531.77,-210.11 526.52,-214.75"/>
</a>
</g>
</g>
<!-- Node13&#45;&gt;Node11 -->
<g id="edge28_Node000013_Node000011" class="edge">
<title>Node13&#45;&gt;Node11</title>
<g id="a_edge28_Node000013_Node000011"><a xlink:title=" ">
<path fill="none" stroke="#63b8ff" d="M513.59,-216.03C490.47,-206.23 458.87,-192.83 438.45,-184.17"/>
<polygon fill="#63b8ff" stroke="#63b8ff" points="512.34,-219.3 522.92,-219.98 515.08,-212.86 512.34,-219.3"/>
</a>
</g>
</g>
<!-- Node13&#45;&gt;Node12 -->
<g id="edge38_Node000013_Node000012" class="edge">
<title>Node13&#45;&gt;Node12</title>
<g id="a_edge38_Node000013_Node000012"><a xlink:title=" ">
<path fill="none" stroke="#63b8ff" d="M563,-213.5C593.57,-190.57 650.97,-147.52 675.46,-129.16"/>
<polygon fill="#63b8ff" stroke="#63b8ff" points="560.68,-210.86 554.78,-219.66 564.88,-216.46 560.68,-210.86"/>
</a>
</g>
</g>
<!-- Node13&#45;&gt;Node14 -->
<g id="edge29_Node000013_Node000014" class="edge">
<title>Node13&#45;&gt;Node14</title>
<g id="a_edge29_Node000013_Node000014"><a xlink:title=" ">
<path fill="none" stroke="#63b8ff" d="M598.69,-218.32C660.99,-206.94 759.33,-188.96 806.3,-180.38"/>
<polygon fill="#63b8ff" stroke="#63b8ff" points="597.84,-214.92 588.63,-220.16 599.1,-221.81 597.84,-214.92"/>
</a>
</g>
</g>
<!-- Node13&#45;&gt;Node15 -->
<g id="edge41_Node000013_Node000015" class="edge">
<title>Node13&#45;&gt;Node15</title>
<g id="a_edge41_Node000013_Node000015"><a xlink:title=" ">
<path fill="none" stroke="#63b8ff" d="M598.94,-226.02C668.3,-221.88 789.62,-211.14 890,-184 940.78,-170.27 996.95,-142.97 1023.88,-129.07"/>
<polygon fill="#63b8ff" stroke="#63b8ff" points="598.47,-222.54 588.69,-226.61 598.87,-229.53 598.47,-222.54"/>
</a>
</g>
</g>
<!-- Node14&#45;&gt;Node4 -->
<g id="edge33_Node000014_Node000004" class="edge">
<title>Node14&#45;&gt;Node4</title>
<g id="a_edge33_Node000014_Node000004"><a xlink:title=" ">
<path fill="none" stroke="#63b8ff" d="M796.38,-166.01C748.81,-156.27 665.95,-139.32 615.92,-129.08"/>
<polygon fill="#63b8ff" stroke="#63b8ff" points="795.76,-169.45 806.26,-168.03 797.16,-162.59 795.76,-169.45"/>
</a>
</g>
</g>
<!-- Node14&#45;&gt;Node5 -->
<g id="edge30_Node000014_Node000005" class="edge">
<title>Node14&#45;&gt;Node5</title>
<g id="a_edge30_Node000014_Node000005"><a xlink:title=" ">
<path fill="none" stroke="#63b8ff" d="M818.79,-156.85C807.76,-143.98 792.02,-125.76 778,-110 747.81,-76.08 711.12,-36.43 695.11,-19.21"/>
<polygon fill="#63b8ff" stroke="#63b8ff" points="816.44,-159.48 825.6,-164.81 821.76,-154.93 816.44,-159.48"/>
</a>
</g>
</g>
<!-- Node14&#45;&gt;Node6 -->
<g id="edge34_Node000014_Node000006" class="edge">
<title>Node14&#45;&gt;Node6</title>
<g id="a_edge34_Node000014_Node000006"><a xlink:title=" ">
<path fill="none" stroke="#63b8ff" d="M850.75,-158.32C861.81,-148.87 875.63,-137.06 884.86,-129.17"/>
<polygon fill="#63b8ff" stroke="#63b8ff" points="848.29,-155.83 842.96,-164.98 852.84,-161.15 848.29,-155.83"/>
</a>
</g>
</g>
<!-- Node14&#45;&gt;Node9 -->
<g id="edge31_Node000014_Node000009" class="edge">
<title>Node14&#45;&gt;Node9</title>
<g id="a_edge31_Node000014_Node000009"><a xlink:title=" ">
<path fill="none" stroke="#63b8ff" d="M796.12,-169.43C782.85,-167.99 767.75,-166.39 754,-165 589.32,-148.41 392.24,-130.55 314.22,-123.55"/>
<polygon fill="#63b8ff" stroke="#63b8ff" points="795.99,-172.93 806.32,-170.54 796.75,-165.98 795.99,-172.93"/>
</a>
</g>
</g>
<!-- Node14&#45;&gt;Node10 -->
<g id="edge37_Node000014_Node000010" class="edge">
<title>Node14&#45;&gt;Node10</title>
<g id="a_edge37_Node000014_Node000010"><a xlink:title=" ">
<path fill="none" stroke="#63b8ff" d="M816.99,-157.45C800.84,-142.36 774.43,-120.56 747,-110 669.87,-80.32 414.86,-69.33 327.59,-66.39"/>
<polygon fill="#63b8ff" stroke="#63b8ff" points="814.82,-160.22 824.45,-164.63 819.68,-155.18 814.82,-160.22"/>
</a>
</g>
</g>
<!-- Node14&#45;&gt;Node12 -->
<g id="edge32_Node000014_Node000012" class="edge">
<title>Node14&#45;&gt;Node12</title>
<g id="a_edge32_Node000014_Node000012"><a xlink:title=" ">
<path fill="none" stroke="#63b8ff" d="M800.08,-161.55C772.97,-151.71 735.17,-137.98 710.88,-129.17"/>
<polygon fill="#63b8ff" stroke="#63b8ff" points="798.95,-164.86 809.54,-164.98 801.34,-158.28 798.95,-164.86"/>
</a>
</g>
</g>
<!-- Node14&#45;&gt;Node15 -->
<g id="edge35_Node000014_Node000015" class="edge">
<title>Node14&#45;&gt;Node15</title>
<g id="a_edge35_Node000014_Node000015"><a xlink:title=" ">
<path fill="none" stroke="#63b8ff" d="M869.47,-164.16C908.25,-154.23 969.06,-138.66 1006.62,-129.05"/>
<polygon fill="#63b8ff" stroke="#63b8ff" points="868.46,-160.81 859.64,-166.68 870.19,-167.59 868.46,-160.81"/>
</a>
</g>
</g>
<!-- Node15&#45;&gt;Node5 -->
<g id="edge36_Node000015_Node000005" class="edge">
<title>Node15&#45;&gt;Node5</title>
<g id="a_edge36_Node000015_Node000005"><a xlink:title=" ">
<path fill="none" stroke="#63b8ff" d="M1005.45,-106.59C966.95,-93.45 902.77,-71.92 847,-55 799.54,-40.6 743.63,-25.46 712.05,-17.08"/>
<polygon fill="#63b8ff" stroke="#63b8ff" points="1004.54,-109.98 1015.13,-109.91 1006.81,-103.36 1004.54,-109.98"/>
</a>
</g>
</g>
<!-- Node16&#45;&gt;Node3 -->
<g id="edge49_Node000016_Node000003" class="edge">
<title>Node16&#45;&gt;Node3</title>
<g id="a_edge49_Node000016_Node000003"><a xlink:title=" ">
<path fill="none" stroke="#63b8ff" d="M736.96,-214.42C721.89,-204.81 702.41,-192.37 689.58,-184.17"/>
<polygon fill="#63b8ff" stroke="#63b8ff" points="735.35,-217.55 745.66,-219.98 739.12,-211.65 735.35,-217.55"/>
</a>
</g>
</g>
<!-- Node16&#45;&gt;Node5 -->
<g id="edge48_Node000016_Node000005" class="edge">
<title>Node16&#45;&gt;Node5</title>
<g id="a_edge48_Node000016_Node000005"><a xlink:title=" ">
<path fill="none" stroke="#63b8ff" d="M815.2,-228.67C934.36,-227.1 1195.17,-212.23 1115,-110 1064.34,-45.39 796.28,-19.09 712.23,-12.35"/>
<polygon fill="#63b8ff" stroke="#63b8ff" points="815.11,-225.17 805.15,-228.78 815.19,-232.17 815.11,-225.17"/>
</a>
</g>
</g>
<!-- Node16&#45;&gt;Node6 -->
<g id="edge53_Node000016_Node000006" class="edge">
<title>Node16&#45;&gt;Node6</title>
<g id="a_edge53_Node000016_Node000006"><a xlink:title=" ">
<path fill="none" stroke="#63b8ff" d="M815.36,-226.4C846.25,-222.01 882.2,-210.9 902,-184 913.97,-167.74 905.38,-142.51 899.42,-129.28"/>
<polygon fill="#63b8ff" stroke="#63b8ff" points="814.61,-222.97 805.11,-227.65 815.45,-229.91 814.61,-222.97"/>
</a>
</g>
</g>
<!-- Node16&#45;&gt;Node9 -->
<g id="edge50_Node000016_Node000009" class="edge">
<title>Node16&#45;&gt;Node9</title>
<g id="a_edge50_Node000016_Node000009"><a xlink:title=" ">
<path fill="none" stroke="#63b8ff" d="M752.89,-210.06C746.96,-195.26 736.4,-175.29 720,-165 685.86,-143.57 411.65,-127.36 314.21,-122.22"/>
<polygon fill="#63b8ff" stroke="#63b8ff" points="749.7,-211.53 756.42,-219.72 756.28,-209.13 749.7,-211.53"/>
</a>
</g>
</g>
<!-- Node16&#45;&gt;Node12 -->
<g id="edge52_Node000016_Node000012" class="edge">
<title>Node16&#45;&gt;Node12</title>
<g id="a_edge52_Node000016_Node000012"><a xlink:title=" ">
<path fill="none" stroke="#63b8ff" d="M761.64,-210.04C762.63,-196.64 761.97,-178.55 754,-165 744.02,-148.03 724.71,-136.25 709.37,-129.1"/>
<polygon fill="#63b8ff" stroke="#63b8ff" points="758.16,-209.68 760.55,-220 765.12,-210.44 758.16,-209.68"/>
</a>
</g>
</g>
<!-- Node16&#45;&gt;Node14 -->
<g id="edge51_Node000016_Node000014" class="edge">
<title>Node16&#45;&gt;Node14</title>
<g id="a_edge51_Node000016_Node000014"><a xlink:title=" ">
<path fill="none" stroke="#63b8ff" d="M779.03,-214.15C792.41,-204.57 809.56,-192.29 820.89,-184.17"/>
<polygon fill="#63b8ff" stroke="#63b8ff" points="776.98,-211.32 770.89,-219.98 781.06,-217.01 776.98,-211.32"/>
</a>
</g>
</g>
</g>
</svg>
