<?xml version="1.0" encoding="UTF-8" standalone="no"?>
<!DOCTYPE svg PUBLIC "-//W3C//DTD SVG 1.1//EN"
 "http://www.w3.org/Graphics/SVG/1.1/DTD/svg11.dtd">
<!-- Generated by graphviz version 2.43.0 (0)
 -->
<!-- Title: types.hpp Pages: 1 -->
<svg width="1133pt" height="364pt"
 viewBox="0.00 0.00 1132.98 364.00" xmlns="http://www.w3.org/2000/svg" xmlns:xlink="http://www.w3.org/1999/xlink">
<g id="graph0" class="graph" transform="scale(1 1) rotate(0) translate(4 360)">
<title>types.hpp</title>
<!-- Node1 -->
<g id="node1" class="node">
<title>Node1</title>
<g id="a_node1"><a xlink:title=" ">
<polygon fill="#bfbfbf" stroke="black" points="475.5,-336.5 475.5,-355.5 540.5,-355.5 540.5,-336.5 475.5,-336.5"/>
<text text-anchor="middle" x="508" y="-343.5" font-family="Helvetica,sans-Serif" font-size="10.00">types.hpp</text>
</a>
</g>
</g>
<!-- Node2 -->
<g id="node2" class="node">
<title>Node2</title>
<g id="a_node2"><a xlink:href="exceptions_8hpp.html" target="_top" xlink:title=" ">
<polygon fill="none" stroke="black" points="518.5,-224.5 518.5,-243.5 609.5,-243.5 609.5,-224.5 518.5,-224.5"/>
<text text-anchor="middle" x="564" y="-231.5" font-family="Helvetica,sans-Serif" font-size="10.00">exceptions.hpp</text>
</a>
</g>
</g>
<!-- Node1&#45;&gt;Node2 -->
<g id="edge1" class="edge">
<title>Node1&#45;&gt;Node2</title>
<path fill="none" stroke="midnightblue" d="M517,-327.32C529.19,-303.37 550.48,-261.55 559.63,-243.59"/>
<polygon fill="midnightblue" stroke="midnightblue" points="513.81,-325.87 512.39,-336.37 520.05,-329.04 513.81,-325.87"/>
</g>
<!-- Node4 -->
<g id="node4" class="node">
<title>Node4</title>
<g id="a_node4"><a xlink:href="tag_8hpp.html" target="_top" xlink:title=" ">
<polygon fill="none" stroke="black" points="806.5,-168.5 806.5,-187.5 859.5,-187.5 859.5,-168.5 806.5,-168.5"/>
<text text-anchor="middle" x="833" y="-175.5" font-family="Helvetica,sans-Serif" font-size="10.00">tag.hpp</text>
</a>
</g>
</g>
<!-- Node1&#45;&gt;Node4 -->
<g id="edge52" class="edge">
<title>Node1&#45;&gt;Node4</title>
<path fill="none" stroke="midnightblue" d="M550.75,-339.89C594,-333.78 662.27,-321.59 718,-300 764.06,-282.16 783.58,-282.91 814,-244 827.18,-227.14 831.22,-201.4 832.46,-187.93"/>
<polygon fill="midnightblue" stroke="midnightblue" points="550.01,-336.45 540.58,-341.27 550.96,-343.39 550.01,-336.45"/>
</g>
<!-- Node5 -->
<g id="node5" class="node">
<title>Node5</title>
<g id="a_node5"><a xlink:href="parser_8hpp.html" target="_top" xlink:title=" ">
<polygon fill="none" stroke="black" points="245,-112.5 245,-131.5 313,-131.5 313,-112.5 245,-112.5"/>
<text text-anchor="middle" x="279" y="-119.5" font-family="Helvetica,sans-Serif" font-size="10.00">parser.hpp</text>
</a>
</g>
</g>
<!-- Node1&#45;&gt;Node5 -->
<g id="edge33" class="edge">
<title>Node1&#45;&gt;Node5</title>
<path fill="none" stroke="midnightblue" d="M464.74,-345.11C396.44,-344.07 260.28,-336.99 152,-300 105.62,-284.16 81.31,-286.56 57,-244 13.56,-167.96 172.65,-136.95 244.98,-126.97"/>
<polygon fill="midnightblue" stroke="midnightblue" points="465.06,-348.62 475.1,-345.23 465.14,-341.62 465.06,-348.62"/>
</g>
<!-- Node6 -->
<g id="node6" class="node">
<title>Node6</title>
<g id="a_node6"><a xlink:href="utils_8hpp.html" target="_top" xlink:title=" ">
<polygon fill="none" stroke="black" points="267.5,-56.5 267.5,-75.5 326.5,-75.5 326.5,-56.5 267.5,-56.5"/>
<text text-anchor="middle" x="297" y="-63.5" font-family="Helvetica,sans-Serif" font-size="10.00">utils.hpp</text>
</a>
</g>
</g>
<!-- Node1&#45;&gt;Node6 -->
<g id="edge58" class="edge">
<title>Node1&#45;&gt;Node6</title>
<path fill="none" stroke="midnightblue" d="M465.33,-344.81C343.04,-343.12 0,-329.92 0,-235 0,-235 0,-235 0,-177 0,-120.37 192.31,-83.65 267.44,-71.47"/>
<polygon fill="midnightblue" stroke="midnightblue" points="465.41,-348.31 475.45,-344.93 465.49,-341.31 465.41,-348.31"/>
</g>
<!-- Node9 -->
<g id="node9" class="node">
<title>Node9</title>
<g id="a_node9"><a xlink:href="tag__scalar__vector_8hpp.html" target="_top" xlink:title=" ">
<polygon fill="none" stroke="black" points="829.5,-112.5 829.5,-131.5 952.5,-131.5 952.5,-112.5 829.5,-112.5"/>
<text text-anchor="middle" x="891" y="-119.5" font-family="Helvetica,sans-Serif" font-size="10.00">tag_scalar_vector.hpp</text>
</a>
</g>
</g>
<!-- Node1&#45;&gt;Node9 -->
<g id="edge56" class="edge">
<title>Node1&#45;&gt;Node9</title>
<path fill="none" stroke="midnightblue" d="M550.6,-342.95C601.83,-339.23 689.59,-328.86 759,-300 839.15,-266.67 878.91,-264.99 919,-188 929.21,-168.38 911.22,-144.22 899.64,-131.6"/>
<polygon fill="midnightblue" stroke="midnightblue" points="550.29,-339.46 540.55,-343.62 550.76,-346.44 550.29,-339.46"/>
</g>
<!-- Node10 -->
<g id="node10" class="node">
<title>Node10</title>
<g id="a_node10"><a xlink:href="tag__vector__of__tags_8hpp.html" target="_top" xlink:title=" ">
<polygon fill="none" stroke="black" points="970.5,-112.5 970.5,-131.5 1101.5,-131.5 1101.5,-112.5 970.5,-112.5"/>
<text text-anchor="middle" x="1036" y="-119.5" font-family="Helvetica,sans-Serif" font-size="10.00">tag_vector_of_tags.hpp</text>
</a>
</g>
</g>
<!-- Node1&#45;&gt;Node10 -->
<g id="edge57" class="edge">
<title>Node1&#45;&gt;Node10</title>
<path fill="none" stroke="midnightblue" d="M550.96,-343.02C608.73,-339.32 714.02,-328.89 799,-300 847.96,-283.35 858.8,-273.9 901,-244 953.13,-207.06 1007.47,-152.62 1027.74,-131.66"/>
<polygon fill="midnightblue" stroke="midnightblue" points="550.51,-339.54 540.74,-343.64 550.93,-346.53 550.51,-339.54"/>
</g>
<!-- Node11 -->
<g id="node11" class="node">
<title>Node11</title>
<g id="a_node11"><a xlink:href="lex_8hpp.html" target="_top" xlink:title=" ">
<polygon fill="none" stroke="black" points="142.5,-168.5 142.5,-187.5 195.5,-187.5 195.5,-168.5 142.5,-168.5"/>
<text text-anchor="middle" x="169" y="-175.5" font-family="Helvetica,sans-Serif" font-size="10.00">lex.hpp</text>
</a>
</g>
</g>
<!-- Node1&#45;&gt;Node11 -->
<g id="edge53" class="edge">
<title>Node1&#45;&gt;Node11</title>
<path fill="none" stroke="midnightblue" d="M465.43,-338.05C430.35,-331.3 379.89,-319.22 339,-300 271.79,-268.41 203.21,-209.82 178.55,-187.73"/>
<polygon fill="midnightblue" stroke="midnightblue" points="464.88,-341.5 475.35,-339.89 466.16,-334.62 464.88,-341.5"/>
</g>
<!-- Node12 -->
<g id="node12" class="node">
<title>Node12</title>
<g id="a_node12"><a xlink:href="string__format_8hpp.html" target="_top" xlink:title=" ">
<polygon fill="none" stroke="black" points="328,-168.5 328,-187.5 432,-187.5 432,-168.5 328,-168.5"/>
<text text-anchor="middle" x="380" y="-175.5" font-family="Helvetica,sans-Serif" font-size="10.00">string_format.hpp</text>
</a>
</g>
</g>
<!-- Node1&#45;&gt;Node12 -->
<g id="edge54" class="edge">
<title>Node1&#45;&gt;Node12</title>
<path fill="none" stroke="midnightblue" d="M494.71,-327.76C467.59,-292.59 406.74,-213.68 386.61,-187.57"/>
<polygon fill="midnightblue" stroke="midnightblue" points="492.24,-330.29 501.12,-336.08 497.78,-326.02 492.24,-330.29"/>
</g>
<!-- Node13 -->
<g id="node13" class="node">
<title>Node13</title>
<g id="a_node13"><a xlink:href="format_8hpp.html" target="_top" xlink:title=" ">
<polygon fill="none" stroke="black" points="640.5,-168.5 640.5,-187.5 711.5,-187.5 711.5,-168.5 640.5,-168.5"/>
<text text-anchor="middle" x="676" y="-175.5" font-family="Helvetica,sans-Serif" font-size="10.00">format.hpp</text>
</a>
</g>
</g>
<!-- Node1&#45;&gt;Node13 -->
<g id="edge55" class="edge">
<title>Node1&#45;&gt;Node13</title>
<path fill="none" stroke="midnightblue" d="M533.36,-331.47C563.31,-314.43 613.08,-282.65 645,-244 659.49,-226.45 669.04,-201 673.36,-187.76"/>
<polygon fill="midnightblue" stroke="midnightblue" points="531.41,-328.55 524.38,-336.47 534.82,-334.66 531.41,-328.55"/>
</g>
<!-- Node14 -->
<g id="node14" class="node">
<title>Node14</title>
<g id="a_node14"><a xlink:href="input__stream_8hpp.html" target="_top" xlink:title=" ">
<polygon fill="none" stroke="black" points="66,-224.5 66,-243.5 168,-243.5 168,-224.5 66,-224.5"/>
<text text-anchor="middle" x="117" y="-231.5" font-family="Helvetica,sans-Serif" font-size="10.00">input_stream.hpp</text>
</a>
</g>
</g>
<!-- Node1&#45;&gt;Node14 -->
<g id="edge34" class="edge">
<title>Node1&#45;&gt;Node14</title>
<path fill="none" stroke="midnightblue" d="M465.09,-342.47C388.31,-337.38 230.86,-324.29 182,-300 155.42,-286.79 133.15,-258.46 122.96,-243.96"/>
<polygon fill="midnightblue" stroke="midnightblue" points="465.17,-345.98 475.37,-343.13 465.62,-338.99 465.17,-345.98"/>
</g>
<!-- Node15 -->
<g id="node15" class="node">
<title>Node15</title>
<g id="a_node15"><a xlink:href="const_8hpp.html" target="_top" xlink:title=" ">
<polygon fill="none" stroke="black" points="348,-280.5 348,-299.5 412,-299.5 412,-280.5 348,-280.5"/>
<text text-anchor="middle" x="380" y="-287.5" font-family="Helvetica,sans-Serif" font-size="10.00">const.hpp</text>
</a>
</g>
</g>
<!-- Node1&#45;&gt;Node15 -->
<g id="edge38" class="edge">
<title>Node1&#45;&gt;Node15</title>
<path fill="none" stroke="midnightblue" d="M478.38,-332.5C454.38,-322.38 421.22,-308.39 400.19,-299.52"/>
<polygon fill="midnightblue" stroke="midnightblue" points="477.14,-335.78 487.72,-336.44 479.86,-329.33 477.14,-335.78"/>
</g>
<!-- Node16 -->
<g id="node16" class="node">
<title>Node16</title>
<g id="a_node16"><a xlink:href="parser__info_8hpp.html" target="_top" xlink:title=" ">
<polygon fill="none" stroke="black" points="713,-224.5 713,-243.5 805,-243.5 805,-224.5 713,-224.5"/>
<text text-anchor="middle" x="759" y="-231.5" font-family="Helvetica,sans-Serif" font-size="10.00">parser_info.hpp</text>
</a>
</g>
</g>
<!-- Node1&#45;&gt;Node16 -->
<g id="edge45" class="edge">
<title>Node1&#45;&gt;Node16</title>
<path fill="none" stroke="midnightblue" d="M551.02,-340.64C589.39,-335.33 646.11,-323.92 690,-300 716.88,-285.35 741.12,-257.68 752.37,-243.64"/>
<polygon fill="midnightblue" stroke="midnightblue" points="550.18,-337.22 540.71,-341.98 551.08,-344.16 550.18,-337.22"/>
</g>
<!-- Node3 -->
<g id="node3" class="node">
<title>Node3</title>
<g id="a_node3"><a xlink:href="all_8hpp.html" target="_top" xlink:title=" ">
<polygon fill="none" stroke="black" points="658,-0.5 658,-19.5 708,-19.5 708,-0.5 658,-0.5"/>
<text text-anchor="middle" x="683" y="-7.5" font-family="Helvetica,sans-Serif" font-size="10.00">all.hpp</text>
</a>
</g>
</g>
<!-- Node2&#45;&gt;Node3 -->
<g id="edge2" class="edge">
<title>Node2&#45;&gt;Node3</title>
<path fill="none" stroke="midnightblue" d="M548.75,-216.65C528.4,-192.77 497.13,-147.34 517,-112 547.33,-58.04 619.47,-29.54 657.9,-17.73"/>
<polygon fill="midnightblue" stroke="midnightblue" points="546.38,-219.26 555.63,-224.42 551.62,-214.61 546.38,-219.26"/>
</g>
<!-- Node2&#45;&gt;Node4 -->
<g id="edge3" class="edge">
<title>Node2&#45;&gt;Node4</title>
<path fill="none" stroke="midnightblue" d="M616.54,-222.45C673.61,-211 762.48,-193.16 806.48,-184.32"/>
<polygon fill="midnightblue" stroke="midnightblue" points="615.74,-219.04 606.62,-224.44 617.12,-225.91 615.74,-219.04"/>
</g>
<!-- Node2&#45;&gt;Node5 -->
<g id="edge18" class="edge">
<title>Node2&#45;&gt;Node5</title>
<path fill="none" stroke="midnightblue" d="M508.36,-228.05C445.82,-221.58 349.08,-208.6 319,-188 298.66,-174.08 286.76,-146.07 281.78,-131.8"/>
<polygon fill="midnightblue" stroke="midnightblue" points="508.17,-231.55 518.47,-229.07 508.87,-224.58 508.17,-231.55"/>
</g>
<!-- Node2&#45;&gt;Node6 -->
<g id="edge32" class="edge">
<title>Node2&#45;&gt;Node6</title>
<path fill="none" stroke="midnightblue" d="M539.02,-219.47C523.13,-210.73 502.19,-198.98 484,-188 417.47,-147.82 340.13,-96.14 309.97,-75.79"/>
<polygon fill="midnightblue" stroke="midnightblue" points="537.75,-222.76 548.2,-224.49 541.1,-216.62 537.75,-222.76"/>
</g>
<!-- Node7 -->
<g id="node7" class="node">
<title>Node7</title>
<g id="a_node7"><a xlink:href="tag__no__value_8hpp.html" target="_top" xlink:title=" ">
<polygon fill="none" stroke="black" points="631.5,-112.5 631.5,-131.5 734.5,-131.5 734.5,-112.5 631.5,-112.5"/>
<text text-anchor="middle" x="683" y="-119.5" font-family="Helvetica,sans-Serif" font-size="10.00">tag_no_value.hpp</text>
</a>
</g>
</g>
<!-- Node2&#45;&gt;Node7 -->
<g id="edge25" class="edge">
<title>Node2&#45;&gt;Node7</title>
<path fill="none" stroke="midnightblue" d="M579.98,-216.99C593.4,-203.67 613.19,-184.32 631,-168 645.08,-155.09 661.87,-140.74 672.49,-131.79"/>
<polygon fill="midnightblue" stroke="midnightblue" points="577.14,-214.89 572.52,-224.43 582.08,-219.85 577.14,-214.89"/>
</g>
<!-- Node8 -->
<g id="node8" class="node">
<title>Node8</title>
<g id="a_node8"><a xlink:href="tag__scalar_8hpp.html" target="_top" xlink:title=" ">
<polygon fill="none" stroke="black" points="526.5,-112.5 526.5,-131.5 613.5,-131.5 613.5,-112.5 526.5,-112.5"/>
<text text-anchor="middle" x="570" y="-119.5" font-family="Helvetica,sans-Serif" font-size="10.00">tag_scalar.hpp</text>
</a>
</g>
</g>
<!-- Node2&#45;&gt;Node8 -->
<g id="edge29" class="edge">
<title>Node2&#45;&gt;Node8</title>
<path fill="none" stroke="midnightblue" d="M565.02,-214.35C566.33,-190.25 568.57,-149.31 569.53,-131.59"/>
<polygon fill="midnightblue" stroke="midnightblue" points="561.52,-214.19 564.47,-224.37 568.51,-214.57 561.52,-214.19"/>
</g>
<!-- Node2&#45;&gt;Node9 -->
<g id="edge30" class="edge">
<title>Node2&#45;&gt;Node9</title>
<path fill="none" stroke="midnightblue" d="M619.64,-227.88C702.11,-219.82 849.17,-203.5 868,-188 885.19,-173.85 889.54,-145.95 890.64,-131.75"/>
<polygon fill="midnightblue" stroke="midnightblue" points="619.28,-224.4 609.67,-228.84 619.96,-231.36 619.28,-224.4"/>
</g>
<!-- Node2&#45;&gt;Node10 -->
<g id="edge31" class="edge">
<title>Node2&#45;&gt;Node10</title>
<path fill="none" stroke="midnightblue" d="M619.61,-230.02C685.11,-225.43 796.68,-214.24 889,-188 939.19,-173.73 994.49,-145.63 1020.66,-131.51"/>
<polygon fill="midnightblue" stroke="midnightblue" points="619.24,-226.54 609.5,-230.7 619.71,-233.52 619.24,-226.54"/>
</g>
<!-- Node2&#45;&gt;Node11 -->
<g id="edge19" class="edge">
<title>Node2&#45;&gt;Node11</title>
<path fill="none" stroke="midnightblue" d="M508.17,-225.37C421.87,-213.57 259.39,-191.36 195.64,-182.64"/>
<polygon fill="midnightblue" stroke="midnightblue" points="507.92,-228.87 518.3,-226.75 508.87,-221.93 507.92,-228.87"/>
</g>
<!-- Node2&#45;&gt;Node12 -->
<g id="edge21" class="edge">
<title>Node2&#45;&gt;Node12</title>
<path fill="none" stroke="midnightblue" d="M525.05,-221.57C490.34,-211.38 440.32,-196.7 409.02,-187.52"/>
<polygon fill="midnightblue" stroke="midnightblue" points="524.26,-224.99 534.84,-224.44 526.23,-218.27 524.26,-224.99"/>
</g>
<!-- Node2&#45;&gt;Node13 -->
<g id="edge26" class="edge">
<title>Node2&#45;&gt;Node13</title>
<path fill="none" stroke="midnightblue" d="M591.25,-219.86C612.02,-209.85 640.02,-196.35 658.05,-187.65"/>
<polygon fill="midnightblue" stroke="midnightblue" points="589.48,-216.83 581.99,-224.32 592.52,-223.13 589.48,-216.83"/>
</g>
<!-- Node4&#45;&gt;Node3 -->
<g id="edge8" class="edge">
<title>Node4&#45;&gt;Node3</title>
<path fill="none" stroke="midnightblue" d="M818.27,-160.4C806.57,-147.24 789.79,-128.4 775,-112 744.03,-77.65 706.86,-37.03 690.91,-19.62"/>
<polygon fill="midnightblue" stroke="midnightblue" points="815.89,-162.99 825.15,-168.14 821.12,-158.34 815.89,-162.99"/>
</g>
<!-- Node4&#45;&gt;Node5 -->
<g id="edge4" class="edge">
<title>Node4&#45;&gt;Node5</title>
<path fill="none" stroke="midnightblue" d="M796.12,-172.65C782.85,-171.13 767.76,-169.44 754,-168 588.81,-150.77 391.01,-132.92 313,-126"/>
<polygon fill="midnightblue" stroke="midnightblue" points="795.98,-176.16 806.32,-173.83 796.79,-169.21 795.98,-176.16"/>
</g>
<!-- Node4&#45;&gt;Node6 -->
<g id="edge17" class="edge">
<title>Node4&#45;&gt;Node6</title>
<path fill="none" stroke="midnightblue" d="M817.18,-161.5C800.32,-146.05 772.11,-123.06 743,-112 666.34,-82.88 413.63,-71.21 326.69,-67.99"/>
<polygon fill="midnightblue" stroke="midnightblue" points="814.82,-164.09 824.49,-168.4 819.62,-158.99 814.82,-164.09"/>
</g>
<!-- Node4&#45;&gt;Node7 -->
<g id="edge9" class="edge">
<title>Node4&#45;&gt;Node7</title>
<path fill="none" stroke="midnightblue" d="M799.78,-165.04C771.55,-154.88 731.74,-140.55 706.66,-131.52"/>
<polygon fill="midnightblue" stroke="midnightblue" points="798.64,-168.35 809.23,-168.44 801.01,-161.76 798.64,-168.35"/>
</g>
<!-- Node4&#45;&gt;Node8 -->
<g id="edge11" class="edge">
<title>Node4&#45;&gt;Node8</title>
<path fill="none" stroke="midnightblue" d="M796.29,-169.46C747.82,-159.51 662.7,-142.03 611.81,-131.59"/>
<polygon fill="midnightblue" stroke="midnightblue" points="795.84,-172.94 806.33,-171.53 797.24,-166.09 795.84,-172.94"/>
</g>
<!-- Node4&#45;&gt;Node9 -->
<g id="edge13" class="edge">
<title>Node4&#45;&gt;Node9</title>
<path fill="none" stroke="midnightblue" d="M849.91,-161.25C860.2,-151.67 872.97,-139.79 881.51,-131.83"/>
<polygon fill="midnightblue" stroke="midnightblue" points="847.25,-158.95 842.32,-168.32 852.02,-164.07 847.25,-158.95"/>
</g>
<!-- Node4&#45;&gt;Node10 -->
<g id="edge15" class="edge">
<title>Node4&#45;&gt;Node10</title>
<path fill="none" stroke="midnightblue" d="M869.24,-167.36C907.46,-157.19 967.12,-141.32 1003.76,-131.58"/>
<polygon fill="midnightblue" stroke="midnightblue" points="868.3,-163.99 859.54,-169.94 870.1,-170.75 868.3,-163.99"/>
</g>
<!-- Node5&#45;&gt;Node3 -->
<g id="edge5" class="edge">
<title>Node5&#45;&gt;Node3</title>
<path fill="none" stroke="midnightblue" d="M313.38,-109.12C353.89,-95.34 423.37,-72.43 484,-56 545.88,-39.23 619.74,-23.68 657.7,-16"/>
<polygon fill="midnightblue" stroke="midnightblue" points="312.06,-105.87 303.73,-112.41 314.32,-112.49 312.06,-105.87"/>
</g>
<!-- Node5&#45;&gt;Node6 -->
<g id="edge6" class="edge">
<title>Node5&#45;&gt;Node6</title>
<path fill="none" stroke="midnightblue" d="M285.2,-102.4C288.21,-93.36 291.69,-82.94 294.08,-75.75"/>
<polygon fill="midnightblue" stroke="midnightblue" points="281.81,-101.49 281.97,-112.08 288.46,-103.7 281.81,-101.49"/>
</g>
<!-- Node6&#45;&gt;Node3 -->
<g id="edge7" class="edge">
<title>Node6&#45;&gt;Node3</title>
<path fill="none" stroke="midnightblue" d="M336.74,-59.44C416.14,-48.33 592.38,-23.68 657.86,-14.52"/>
<polygon fill="midnightblue" stroke="midnightblue" points="336.07,-56 326.65,-60.85 337.04,-62.93 336.07,-56"/>
</g>
<!-- Node7&#45;&gt;Node3 -->
<g id="edge10" class="edge">
<title>Node7&#45;&gt;Node3</title>
<path fill="none" stroke="midnightblue" d="M683,-102.35C683,-78.25 683,-37.31 683,-19.59"/>
<polygon fill="midnightblue" stroke="midnightblue" points="679.5,-102.37 683,-112.37 686.5,-102.37 679.5,-102.37"/>
</g>
<!-- Node8&#45;&gt;Node3 -->
<g id="edge12" class="edge">
<title>Node8&#45;&gt;Node3</title>
<path fill="none" stroke="midnightblue" d="M586.23,-105.21C610.45,-81.63 655.23,-38.03 674.17,-19.59"/>
<polygon fill="midnightblue" stroke="midnightblue" points="583.59,-102.89 578.87,-112.37 588.47,-107.9 583.59,-102.89"/>
</g>
<!-- Node9&#45;&gt;Node3 -->
<g id="edge14" class="edge">
<title>Node9&#45;&gt;Node3</title>
<path fill="none" stroke="midnightblue" d="M875.83,-104.92C861.38,-90.41 838.42,-69.35 815,-56 780.29,-36.22 735.49,-23.24 708.02,-16.52"/>
<polygon fill="midnightblue" stroke="midnightblue" points="873.45,-107.49 882.93,-112.22 878.47,-102.61 873.45,-107.49"/>
</g>
<!-- Node10&#45;&gt;Node3 -->
<g id="edge16" class="edge">
<title>Node10&#45;&gt;Node3</title>
<path fill="none" stroke="midnightblue" d="M1002.11,-109.01C963.7,-95.55 899.13,-73.33 843,-56 795.58,-41.36 739.65,-26.08 708.06,-17.63"/>
<polygon fill="midnightblue" stroke="midnightblue" points="1001.16,-112.38 1011.75,-112.39 1003.48,-105.78 1001.16,-112.38"/>
</g>
<!-- Node11&#45;&gt;Node5 -->
<g id="edge20" class="edge">
<title>Node11&#45;&gt;Node5</title>
<path fill="none" stroke="midnightblue" d="M195.76,-163.86C216.16,-153.85 243.67,-140.35 261.37,-131.65"/>
<polygon fill="midnightblue" stroke="midnightblue" points="194.11,-160.78 186.67,-168.32 197.19,-167.06 194.11,-160.78"/>
</g>
<!-- Node12&#45;&gt;Node5 -->
<g id="edge22" class="edge">
<title>Node12&#45;&gt;Node5</title>
<path fill="none" stroke="midnightblue" d="M354.92,-163.59C336.24,-153.61 311.3,-140.27 295.19,-131.65"/>
<polygon fill="midnightblue" stroke="midnightblue" points="353.3,-166.7 363.77,-168.32 356.6,-160.52 353.3,-166.7"/>
</g>
<!-- Node12&#45;&gt;Node8 -->
<g id="edge23" class="edge">
<title>Node12&#45;&gt;Node8</title>
<path fill="none" stroke="midnightblue" d="M419.76,-165.7C455.62,-155.51 507.57,-140.74 540.03,-131.52"/>
<polygon fill="midnightblue" stroke="midnightblue" points="418.77,-162.34 410.11,-168.44 420.68,-169.08 418.77,-162.34"/>
</g>
<!-- Node12&#45;&gt;Node9 -->
<g id="edge24" class="edge">
<title>Node12&#45;&gt;Node9</title>
<path fill="none" stroke="midnightblue" d="M442.39,-170.41C540.88,-160 731.26,-139.88 829.32,-129.52"/>
<polygon fill="midnightblue" stroke="midnightblue" points="441.86,-166.94 432.28,-171.47 442.6,-173.9 441.86,-166.94"/>
</g>
<!-- Node13&#45;&gt;Node8 -->
<g id="edge27" class="edge">
<title>Node13&#45;&gt;Node8</title>
<path fill="none" stroke="midnightblue" d="M649.94,-163.73C630.32,-153.73 603.97,-140.31 586.99,-131.65"/>
<polygon fill="midnightblue" stroke="midnightblue" points="648.47,-166.9 658.97,-168.32 651.65,-160.67 648.47,-166.9"/>
</g>
<!-- Node13&#45;&gt;Node9 -->
<g id="edge28" class="edge">
<title>Node13&#45;&gt;Node9</title>
<path fill="none" stroke="midnightblue" d="M719.96,-165.96C760.57,-155.76 820.04,-140.82 857.09,-131.52"/>
<polygon fill="midnightblue" stroke="midnightblue" points="718.91,-162.61 710.07,-168.44 720.62,-169.4 718.91,-162.61"/>
</g>
<!-- Node14&#45;&gt;Node5 -->
<g id="edge35" class="edge">
<title>Node14&#45;&gt;Node5</title>
<path fill="none" stroke="midnightblue" d="M116.89,-213.9C117.83,-199.53 121.42,-180.27 133,-168 162.04,-137.24 211.57,-127.34 244.78,-124.25"/>
<polygon fill="midnightblue" stroke="midnightblue" points="113.38,-214.06 116.6,-224.16 120.38,-214.26 113.38,-214.06"/>
</g>
<!-- Node14&#45;&gt;Node6 -->
<g id="edge37" class="edge">
<title>Node14&#45;&gt;Node6</title>
<path fill="none" stroke="midnightblue" d="M112.92,-214.03C111.01,-200.27 110.71,-181.75 119,-168 151.85,-113.54 225.79,-85.86 267.29,-74.13"/>
<polygon fill="midnightblue" stroke="midnightblue" points="109.54,-215.03 114.74,-224.26 116.43,-213.8 109.54,-215.03"/>
</g>
<!-- Node14&#45;&gt;Node11 -->
<g id="edge36" class="edge">
<title>Node14&#45;&gt;Node11</title>
<path fill="none" stroke="midnightblue" d="M132.68,-216.72C141.84,-207.2 153.05,-195.56 160.57,-187.75"/>
<polygon fill="midnightblue" stroke="midnightblue" points="130,-214.45 125.59,-224.08 135.04,-219.31 130,-214.45"/>
</g>
<!-- Node15&#45;&gt;Node5 -->
<g id="edge40" class="edge">
<title>Node15&#45;&gt;Node5</title>
<path fill="none" stroke="midnightblue" d="M338.05,-279.39C318.93,-272.74 297.93,-261.78 286,-244 262.08,-208.36 271.84,-152.68 276.79,-131.54"/>
<polygon fill="midnightblue" stroke="midnightblue" points="337.24,-282.8 347.83,-282.48 339.35,-276.12 337.24,-282.8"/>
</g>
<!-- Node15&#45;&gt;Node7 -->
<g id="edge42" class="edge">
<title>Node15&#45;&gt;Node7</title>
<path fill="none" stroke="midnightblue" d="M404.7,-275.47C464.88,-242.5 617.81,-158.71 667.29,-131.61"/>
<polygon fill="midnightblue" stroke="midnightblue" points="402.95,-272.43 395.86,-280.31 406.32,-278.57 402.95,-272.43"/>
</g>
<!-- Node15&#45;&gt;Node8 -->
<g id="edge44" class="edge">
<title>Node15&#45;&gt;Node8</title>
<path fill="none" stroke="midnightblue" d="M361.63,-273.54C334.87,-249.17 291.23,-201.19 319,-168 344.96,-136.97 461.77,-127.31 526.49,-124.32"/>
<polygon fill="midnightblue" stroke="midnightblue" points="359.48,-276.31 369.3,-280.3 364.12,-271.06 359.48,-276.31"/>
</g>
<!-- Node15&#45;&gt;Node12 -->
<g id="edge41" class="edge">
<title>Node15&#45;&gt;Node12</title>
<path fill="none" stroke="midnightblue" d="M380,-270.35C380,-246.25 380,-205.31 380,-187.59"/>
<polygon fill="midnightblue" stroke="midnightblue" points="376.5,-270.37 380,-280.37 383.5,-270.37 376.5,-270.37"/>
</g>
<!-- Node15&#45;&gt;Node13 -->
<g id="edge43" class="edge">
<title>Node15&#45;&gt;Node13</title>
<path fill="none" stroke="midnightblue" d="M422.36,-289.06C472.25,-287.38 556.14,-278.97 618,-244 642.49,-230.16 662.01,-202.12 670.85,-187.82"/>
<polygon fill="midnightblue" stroke="midnightblue" points="422.16,-285.56 412.25,-289.32 422.34,-292.56 422.16,-285.56"/>
</g>
<!-- Node15&#45;&gt;Node14 -->
<g id="edge39" class="edge">
<title>Node15&#45;&gt;Node14</title>
<path fill="none" stroke="midnightblue" d="M337.74,-280.32C288.49,-270.21 207.6,-253.6 158.62,-243.55"/>
<polygon fill="midnightblue" stroke="midnightblue" points="337.25,-283.8 347.75,-282.38 338.66,-276.94 337.25,-283.8"/>
</g>
<!-- Node16&#45;&gt;Node3 -->
<g id="edge48" class="edge">
<title>Node16&#45;&gt;Node3</title>
<path fill="none" stroke="midnightblue" d="M815.63,-232.71C933.67,-230.11 1188.79,-213.02 1110,-112 1059.58,-47.35 792.07,-20.01 708.18,-12.95"/>
<polygon fill="midnightblue" stroke="midnightblue" points="815.26,-229.21 805.33,-232.91 815.39,-236.21 815.26,-229.21"/>
</g>
<!-- Node16&#45;&gt;Node4 -->
<g id="edge46" class="edge">
<title>Node16&#45;&gt;Node4</title>
<path fill="none" stroke="midnightblue" d="M779.03,-218.38C792.41,-208.62 809.56,-196.11 820.89,-187.83"/>
<polygon fill="midnightblue" stroke="midnightblue" points="776.9,-215.6 770.89,-224.32 781.03,-221.26 776.9,-215.6"/>
</g>
<!-- Node16&#45;&gt;Node5 -->
<g id="edge47" class="edge">
<title>Node16&#45;&gt;Node5</title>
<path fill="none" stroke="midnightblue" d="M753.2,-214.63C747.37,-199.43 736.8,-178.68 720,-168 685.9,-146.33 410.99,-129.93 313.3,-124.74"/>
<polygon fill="midnightblue" stroke="midnightblue" points="750.03,-216.19 756.63,-224.49 756.65,-213.89 750.03,-216.19"/>
</g>
<!-- Node16&#45;&gt;Node7 -->
<g id="edge49" class="edge">
<title>Node16&#45;&gt;Node7</title>
<path fill="none" stroke="midnightblue" d="M761.83,-214.06C762.92,-200.32 762.29,-181.79 754,-168 743.47,-150.49 723.23,-138.67 707.04,-131.56"/>
<polygon fill="midnightblue" stroke="midnightblue" points="758.32,-213.94 760.65,-224.27 765.28,-214.74 758.32,-213.94"/>
</g>
<!-- Node16&#45;&gt;Node9 -->
<g id="edge51" class="edge">
<title>Node16&#45;&gt;Node9</title>
<path fill="none" stroke="midnightblue" d="M815.38,-230.7C846.28,-226.19 882.22,-214.96 902,-188 914.46,-171.02 903.32,-144.87 896.08,-131.5"/>
<polygon fill="midnightblue" stroke="midnightblue" points="814.61,-227.26 805.12,-231.98 815.48,-234.21 814.61,-227.26"/>
</g>
<!-- Node16&#45;&gt;Node13 -->
<g id="edge50" class="edge">
<title>Node16&#45;&gt;Node13</title>
<path fill="none" stroke="midnightblue" d="M736.9,-218.62C721.74,-208.76 702.12,-195.99 689.3,-187.65"/>
<polygon fill="midnightblue" stroke="midnightblue" points="735.37,-221.8 745.66,-224.32 739.19,-215.94 735.37,-221.8"/>
</g>
</g>
</svg>
