<?xml version="1.0" encoding="UTF-8" standalone="no"?>
<!DOCTYPE svg PUBLIC "-//W3C//DTD SVG 1.1//EN"
 "http://www.w3.org/Graphics/SVG/1.1/DTD/svg11.dtd">
<!-- Generated by graphviz version 2.38.0 (20140413.2041)
 -->
<!-- Title: utils.hpp Pages: 1 -->
<svg width="974pt" height="364pt"
 viewBox="0.00 0.00 974.00 364.00" xmlns="http://www.w3.org/2000/svg" xmlns:xlink="http://www.w3.org/1999/xlink">
<g id="graph0" class="graph" transform="scale(1 1) rotate(0) translate(4 360)">
<title>utils.hpp</title>
<!-- Node1 -->
<g id="node1" class="node"><title>Node1</title>
<polygon fill="#bfbfbf" stroke="black" points="502.5,-336.5 502.5,-355.5 555.5,-355.5 555.5,-336.5 502.5,-336.5"/>
<text text-anchor="middle" x="529" y="-343.5" font-family="Helvetica,sans-Serif" font-size="10.00">utils.hpp</text>
</g>
<!-- Node2 -->
<g id="node2" class="node"><title>Node2</title>
<g id="a_node2"><a xlink:href="types_8hpp.html" target="_top" xlink:title="types.hpp">
<polygon fill="none" stroke="black" points="578.5,-56.5 578.5,-75.5 637.5,-75.5 637.5,-56.5 578.5,-56.5"/>
<text text-anchor="middle" x="608" y="-63.5" font-family="Helvetica,sans-Serif" font-size="10.00">types.hpp</text>
</a>
</g>
</g>
<!-- Node1&#45;&gt;Node2 -->
<g id="edge1" class="edge"><title>Node1&#45;&gt;Node2</title>
<path fill="none" stroke="midnightblue" d="M555.678,-344.057C650.558,-339.993 966,-320.08 966,-235 966,-235 966,-235 966,-177 966,-111.027 741.047,-80.5269 647.778,-70.7163"/>
<polygon fill="midnightblue" stroke="midnightblue" points="647.906,-67.2112 637.601,-69.6734 647.192,-74.1748 647.906,-67.2112"/>
</g>
<!-- Node9 -->
<g id="node9" class="node"><title>Node9</title>
<g id="a_node9"><a xlink:href="tag_8hpp.html" target="_top" xlink:title="tag.hpp">
<polygon fill="none" stroke="black" points="242.5,-224.5 242.5,-243.5 291.5,-243.5 291.5,-224.5 242.5,-224.5"/>
<text text-anchor="middle" x="267" y="-231.5" font-family="Helvetica,sans-Serif" font-size="10.00">tag.hpp</text>
</a>
</g>
</g>
<!-- Node1&#45;&gt;Node9 -->
<g id="edge8" class="edge"><title>Node1&#45;&gt;Node9</title>
<path fill="none" stroke="midnightblue" d="M502.408,-342.336C450.38,-336.694 337.458,-322.21 306,-300 289.909,-288.64 279.302,-268.345 273.267,-253.446"/>
<polygon fill="midnightblue" stroke="midnightblue" points="276.431,-251.911 269.668,-243.755 269.869,-254.348 276.431,-251.911"/>
</g>
<!-- Node10 -->
<g id="node10" class="node"><title>Node10</title>
<polygon fill="none" stroke="#bfbfbf" points="0,-168.5 0,-187.5 90,-187.5 90,-168.5 0,-168.5"/>
<text text-anchor="middle" x="45" y="-175.5" font-family="Helvetica,sans-Serif" font-size="10.00">QDomDocument</text>
</g>
<!-- Node1&#45;&gt;Node10 -->
<g id="edge44" class="edge"><title>Node1&#45;&gt;Node10</title>
<path fill="none" stroke="midnightblue" d="M502.379,-342.279C456.827,-337.148 361.358,-324.307 284,-300 226.696,-281.994 214.58,-271.149 161,-244 128.241,-227.401 91.4019,-206.332 68.2035,-192.758"/>
<polygon fill="midnightblue" stroke="midnightblue" points="69.8326,-189.655 59.438,-187.605 66.2853,-195.69 69.8326,-189.655"/>
</g>
<!-- Node11 -->
<g id="node11" class="node"><title>Node11</title>
<polygon fill="none" stroke="#bfbfbf" points="282.5,-168.5 282.5,-187.5 363.5,-187.5 363.5,-168.5 282.5,-168.5"/>
<text text-anchor="middle" x="323" y="-175.5" font-family="Helvetica,sans-Serif" font-size="10.00">QDomElement</text>
</g>
<!-- Node1&#45;&gt;Node11 -->
<g id="edge45" class="edge"><title>Node1&#45;&gt;Node11</title>
<path fill="none" stroke="midnightblue" d="M505.265,-336.442C468.794,-322.255 398.625,-290.718 355,-244 342.413,-230.52 333.747,-211.159 328.64,-197.075"/>
<polygon fill="midnightblue" stroke="midnightblue" points="331.93,-195.879 325.422,-187.519 325.296,-198.113 331.93,-195.879"/>
</g>
<!-- Node13 -->
<g id="node13" class="node"><title>Node13</title>
<g id="a_node13"><a xlink:href="exceptions_8hpp.html" target="_top" xlink:title="exceptions.hpp">
<polygon fill="none" stroke="black" points="636.5,-168.5 636.5,-187.5 719.5,-187.5 719.5,-168.5 636.5,-168.5"/>
<text text-anchor="middle" x="678" y="-175.5" font-family="Helvetica,sans-Serif" font-size="10.00">exceptions.hpp</text>
</a>
</g>
</g>
<!-- Node1&#45;&gt;Node13 -->
<g id="edge43" class="edge"><title>Node1&#45;&gt;Node13</title>
<path fill="none" stroke="midnightblue" d="M555.726,-340.591C600.78,-331.558 690.678,-306.284 729,-244 740.433,-225.418 720.274,-205.97 702.03,-193.245"/>
<polygon fill="midnightblue" stroke="midnightblue" points="703.656,-190.126 693.374,-187.572 699.819,-195.981 703.656,-190.126"/>
</g>
<!-- Node17 -->
<g id="node17" class="node"><title>Node17</title>
<g id="a_node17"><a xlink:href="input__stream_8hpp.html" target="_top" xlink:title="input_stream.hpp">
<polygon fill="none" stroke="black" points="776,-168.5 776,-187.5 868,-187.5 868,-168.5 776,-168.5"/>
<text text-anchor="middle" x="822" y="-175.5" font-family="Helvetica,sans-Serif" font-size="10.00">input_stream.hpp</text>
</a>
</g>
</g>
<!-- Node1&#45;&gt;Node17 -->
<g id="edge19" class="edge"><title>Node1&#45;&gt;Node17</title>
<path fill="none" stroke="midnightblue" d="M555.746,-342.06C634.874,-332.759 865.049,-301.158 909,-244 926.578,-221.14 892.098,-202.394 861.489,-191.006"/>
<polygon fill="midnightblue" stroke="midnightblue" points="862.353,-187.599 851.758,-187.571 860.023,-194.2 862.353,-187.599"/>
</g>
<!-- Node20 -->
<g id="node20" class="node"><title>Node20</title>
<g id="a_node20"><a xlink:href="parser_8hpp.html" target="_top" xlink:title="parser.hpp">
<polygon fill="none" stroke="black" points="498,-280.5 498,-299.5 560,-299.5 560,-280.5 498,-280.5"/>
<text text-anchor="middle" x="529" y="-287.5" font-family="Helvetica,sans-Serif" font-size="10.00">parser.hpp</text>
</a>
</g>
</g>
<!-- Node1&#45;&gt;Node20 -->
<g id="edge24" class="edge"><title>Node1&#45;&gt;Node20</title>
<path fill="none" stroke="midnightblue" d="M529,-336.083C529,-329.006 529,-318.861 529,-309.986"/>
<polygon fill="midnightblue" stroke="midnightblue" points="532.5,-309.751 529,-299.751 525.5,-309.751 532.5,-309.751"/>
</g>
<!-- Node3 -->
<g id="node3" class="node"><title>Node3</title>
<polygon fill="none" stroke="#bfbfbf" points="415.5,-0.5 415.5,-19.5 456.5,-19.5 456.5,-0.5 415.5,-0.5"/>
<text text-anchor="middle" x="436" y="-7.5" font-family="Helvetica,sans-Serif" font-size="10.00">string</text>
</g>
<!-- Node2&#45;&gt;Node3 -->
<g id="edge2" class="edge"><title>Node2&#45;&gt;Node3</title>
<path fill="none" stroke="midnightblue" d="M580.746,-56.4435C549.633,-46.6756 498.871,-30.7385 466.473,-20.5673"/>
<polygon fill="midnightblue" stroke="midnightblue" points="467.238,-17.1388 456.648,-17.4826 465.141,-23.8174 467.238,-17.1388"/>
</g>
<!-- Node4 -->
<g id="node4" class="node"><title>Node4</title>
<polygon fill="none" stroke="#bfbfbf" points="475,-0.5 475,-19.5 529,-19.5 529,-0.5 475,-0.5"/>
<text text-anchor="middle" x="502" y="-7.5" font-family="Helvetica,sans-Serif" font-size="10.00">iostream</text>
</g>
<!-- Node2&#45;&gt;Node4 -->
<g id="edge3" class="edge"><title>Node2&#45;&gt;Node4</title>
<path fill="none" stroke="midnightblue" d="M590.969,-56.324C573.97,-47.6641 547.624,-34.2424 528.007,-24.249"/>
<polygon fill="midnightblue" stroke="midnightblue" points="529.488,-21.0752 518.988,-19.6545 526.31,-27.3125 529.488,-21.0752"/>
</g>
<!-- Node5 -->
<g id="node5" class="node"><title>Node5</title>
<polygon fill="none" stroke="#bfbfbf" points="547.5,-0.5 547.5,-19.5 600.5,-19.5 600.5,-0.5 547.5,-0.5"/>
<text text-anchor="middle" x="574" y="-7.5" font-family="Helvetica,sans-Serif" font-size="10.00">cwctype</text>
</g>
<!-- Node2&#45;&gt;Node5 -->
<g id="edge4" class="edge"><title>Node2&#45;&gt;Node5</title>
<path fill="none" stroke="midnightblue" d="M602.386,-56.083C597.633,-48.5341 590.682,-37.4948 584.848,-28.2298"/>
<polygon fill="midnightblue" stroke="midnightblue" points="587.8,-26.3486 579.51,-19.7511 581.876,-30.0783 587.8,-26.3486"/>
</g>
<!-- Node6 -->
<g id="node6" class="node"><title>Node6</title>
<polygon fill="none" stroke="#bfbfbf" points="619,-0.5 619,-19.5 665,-19.5 665,-0.5 619,-0.5"/>
<text text-anchor="middle" x="642" y="-7.5" font-family="Helvetica,sans-Serif" font-size="10.00">cctype</text>
</g>
<!-- Node2&#45;&gt;Node6 -->
<g id="edge5" class="edge"><title>Node2&#45;&gt;Node6</title>
<path fill="none" stroke="midnightblue" d="M613.614,-56.083C618.367,-48.5341 625.318,-37.4948 631.152,-28.2298"/>
<polygon fill="midnightblue" stroke="midnightblue" points="634.124,-30.0783 636.49,-19.7511 628.2,-26.3486 634.124,-30.0783"/>
</g>
<!-- Node7 -->
<g id="node7" class="node"><title>Node7</title>
<polygon fill="none" stroke="#bfbfbf" points="683,-0.5 683,-19.5 733,-19.5 733,-0.5 683,-0.5"/>
<text text-anchor="middle" x="708" y="-7.5" font-family="Helvetica,sans-Serif" font-size="10.00">QString</text>
</g>
<!-- Node2&#45;&gt;Node7 -->
<g id="edge6" class="edge"><title>Node2&#45;&gt;Node7</title>
<path fill="none" stroke="midnightblue" d="M624.067,-56.324C639.958,-47.7428 664.507,-34.486 682.958,-24.5224"/>
<polygon fill="midnightblue" stroke="midnightblue" points="684.837,-27.4857 691.973,-19.6545 681.511,-21.3264 684.837,-27.4857"/>
</g>
<!-- Node8 -->
<g id="node8" class="node"><title>Node8</title>
<polygon fill="none" stroke="#bfbfbf" points="751.5,-0.5 751.5,-19.5 826.5,-19.5 826.5,-0.5 751.5,-0.5"/>
<text text-anchor="middle" x="789" y="-7.5" font-family="Helvetica,sans-Serif" font-size="10.00">QTextStream</text>
</g>
<!-- Node2&#45;&gt;Node8 -->
<g id="edge7" class="edge"><title>Node2&#45;&gt;Node8</title>
<path fill="none" stroke="midnightblue" d="M636.68,-56.4435C667.527,-47.2406 716.728,-32.5617 750.829,-22.3879"/>
<polygon fill="midnightblue" stroke="midnightblue" points="751.872,-25.7293 760.454,-19.5164 749.871,-19.0215 751.872,-25.7293"/>
</g>
<!-- Node9&#45;&gt;Node2 -->
<g id="edge13" class="edge"><title>Node9&#45;&gt;Node2</title>
<path fill="none" stroke="midnightblue" d="M265.353,-224.153C263.369,-210.785 261.586,-185.179 273,-168 302.269,-123.948 328.167,-129.717 378,-112 442.511,-89.0651 521.589,-76.8382 568.21,-71.1516"/>
<polygon fill="midnightblue" stroke="midnightblue" points="568.69,-74.6194 578.211,-69.9718 567.87,-67.6676 568.69,-74.6194"/>
</g>
<!-- Node9&#45;&gt;Node10 -->
<g id="edge9" class="edge"><title>Node9&#45;&gt;Node10</title>
<path fill="none" stroke="midnightblue" d="M242.394,-227.015C205.765,-218.105 136.289,-201.205 90.3065,-190.021"/>
<polygon fill="midnightblue" stroke="midnightblue" points="90.8451,-186.55 80.3011,-187.587 89.1906,-193.351 90.8451,-186.55"/>
</g>
<!-- Node9&#45;&gt;Node11 -->
<g id="edge10" class="edge"><title>Node9&#45;&gt;Node11</title>
<path fill="none" stroke="midnightblue" d="M275.997,-224.324C284.194,-216.42 296.506,-204.548 306.472,-194.938"/>
<polygon fill="midnightblue" stroke="midnightblue" points="309.07,-197.295 313.839,-187.834 304.211,-192.256 309.07,-197.295"/>
</g>
<!-- Node12 -->
<g id="node12" class="node"><title>Node12</title>
<g id="a_node12"><a xlink:href="parser__info_8hpp.html" target="_top" xlink:title="parser_info.hpp">
<polygon fill="none" stroke="black" points="420.5,-168.5 420.5,-187.5 503.5,-187.5 503.5,-168.5 420.5,-168.5"/>
<text text-anchor="middle" x="462" y="-175.5" font-family="Helvetica,sans-Serif" font-size="10.00">parser_info.hpp</text>
</a>
</g>
</g>
<!-- Node9&#45;&gt;Node12 -->
<g id="edge11" class="edge"><title>Node9&#45;&gt;Node12</title>
<path fill="none" stroke="midnightblue" d="M291.697,-226.161C324.317,-217.128 382.196,-201.1 421.322,-190.265"/>
<polygon fill="midnightblue" stroke="midnightblue" points="422.382,-193.603 431.085,-187.561 420.513,-186.857 422.382,-193.603"/>
</g>
<!-- Node9&#45;&gt;Node13 -->
<g id="edge14" class="edge"><title>Node9&#45;&gt;Node13</title>
<path fill="none" stroke="midnightblue" d="M291.784,-229.744C357.476,-221.113 537.121,-197.51 626.328,-185.789"/>
<polygon fill="midnightblue" stroke="midnightblue" points="627.027,-189.227 636.486,-184.454 626.115,-182.287 627.027,-189.227"/>
</g>
<!-- Node15 -->
<g id="node15" class="node"><title>Node15</title>
<polygon fill="none" stroke="#bfbfbf" points="108,-168.5 108,-187.5 152,-187.5 152,-168.5 108,-168.5"/>
<text text-anchor="middle" x="130" y="-175.5" font-family="Helvetica,sans-Serif" font-size="10.00">vector</text>
</g>
<!-- Node9&#45;&gt;Node15 -->
<g id="edge17" class="edge"><title>Node9&#45;&gt;Node15</title>
<path fill="none" stroke="midnightblue" d="M245.292,-224.444C222.645,-215.517 186.928,-201.439 161.248,-191.317"/>
<polygon fill="midnightblue" stroke="midnightblue" points="162.193,-187.927 151.606,-187.516 159.626,-194.44 162.193,-187.927"/>
</g>
<!-- Node16 -->
<g id="node16" class="node"><title>Node16</title>
<polygon fill="none" stroke="#bfbfbf" points="170,-168.5 170,-187.5 226,-187.5 226,-168.5 170,-168.5"/>
<text text-anchor="middle" x="198" y="-175.5" font-family="Helvetica,sans-Serif" font-size="10.00">algorithm</text>
</g>
<!-- Node9&#45;&gt;Node16 -->
<g id="edge18" class="edge"><title>Node9&#45;&gt;Node16</title>
<path fill="none" stroke="midnightblue" d="M255.914,-224.324C245.514,-216.185 229.739,-203.839 217.278,-194.087"/>
<polygon fill="midnightblue" stroke="midnightblue" points="219.32,-191.241 209.288,-187.834 215.006,-196.753 219.32,-191.241"/>
</g>
<!-- Node12&#45;&gt;Node2 -->
<g id="edge12" class="edge"><title>Node12&#45;&gt;Node2</title>
<path fill="none" stroke="midnightblue" d="M466.648,-168.345C474.31,-154.772 490.774,-128.342 511,-112 528.911,-97.5275 552.239,-86.5149 571.529,-79.0072"/>
<polygon fill="midnightblue" stroke="midnightblue" points="572.771,-82.2795 580.914,-75.5022 570.322,-75.7219 572.771,-82.2795"/>
</g>
<!-- Node13&#45;&gt;Node2 -->
<g id="edge16" class="edge"><title>Node13&#45;&gt;Node2</title>
<path fill="none" stroke="midnightblue" d="M672.507,-168.368C661.006,-150.296 634.203,-108.176 619.014,-84.3074"/>
<polygon fill="midnightblue" stroke="midnightblue" points="621.789,-82.149 613.467,-75.5914 615.883,-85.9071 621.789,-82.149"/>
</g>
<!-- Node14 -->
<g id="node14" class="node"><title>Node14</title>
<polygon fill="none" stroke="#bfbfbf" points="674.5,-112.5 674.5,-131.5 733.5,-131.5 733.5,-112.5 674.5,-112.5"/>
<text text-anchor="middle" x="704" y="-119.5" font-family="Helvetica,sans-Serif" font-size="10.00">stdexcept</text>
</g>
<!-- Node13&#45;&gt;Node14 -->
<g id="edge15" class="edge"><title>Node13&#45;&gt;Node14</title>
<path fill="none" stroke="midnightblue" d="M682.293,-168.083C685.852,-160.691 691.022,-149.953 695.424,-140.811"/>
<polygon fill="midnightblue" stroke="midnightblue" points="698.602,-142.279 699.787,-131.751 692.295,-139.243 698.602,-142.279"/>
</g>
<!-- Node17&#45;&gt;Node2 -->
<g id="edge20" class="edge"><title>Node17&#45;&gt;Node2</title>
<path fill="none" stroke="midnightblue" d="M821.936,-168.436C821.344,-154.5 818.067,-126.971 802,-112 779.919,-91.4252 697.731,-77.9846 647.687,-71.5165"/>
<polygon fill="midnightblue" stroke="midnightblue" points="647.887,-68.0142 637.529,-70.242 647.015,-74.9598 647.887,-68.0142"/>
</g>
<!-- Node18 -->
<g id="node18" class="node"><title>Node18</title>
<g id="a_node18"><a xlink:href="const_8hpp.html" target="_top" xlink:title="const.hpp">
<polygon fill="none" stroke="black" points="520.5,-112.5 520.5,-131.5 579.5,-131.5 579.5,-112.5 520.5,-112.5"/>
<text text-anchor="middle" x="550" y="-119.5" font-family="Helvetica,sans-Serif" font-size="10.00">const.hpp</text>
</a>
</g>
</g>
<!-- Node17&#45;&gt;Node18 -->
<g id="edge21" class="edge"><title>Node17&#45;&gt;Node18</title>
<path fill="none" stroke="midnightblue" d="M778.901,-168.444C726.908,-158.121 640.215,-140.91 589.762,-130.894"/>
<polygon fill="midnightblue" stroke="midnightblue" points="590.364,-127.445 579.874,-128.931 589.001,-134.311 590.364,-127.445"/>
</g>
<!-- Node19 -->
<g id="node19" class="node"><title>Node19</title>
<polygon fill="none" stroke="#bfbfbf" points="752.5,-112.5 752.5,-131.5 793.5,-131.5 793.5,-112.5 752.5,-112.5"/>
<text text-anchor="middle" x="773" y="-119.5" font-family="Helvetica,sans-Serif" font-size="10.00">stack</text>
</g>
<!-- Node17&#45;&gt;Node19 -->
<g id="edge23" class="edge"><title>Node17&#45;&gt;Node19</title>
<path fill="none" stroke="midnightblue" d="M813.909,-168.083C806.845,-160.298 796.412,-148.801 787.851,-139.367"/>
<polygon fill="midnightblue" stroke="midnightblue" points="790.253,-136.805 780.941,-131.751 785.069,-141.509 790.253,-136.805"/>
</g>
<!-- Node18&#45;&gt;Node2 -->
<g id="edge22" class="edge"><title>Node18&#45;&gt;Node2</title>
<path fill="none" stroke="midnightblue" d="M559.319,-112.324C567.893,-104.341 580.812,-92.3128 591.188,-82.6529"/>
<polygon fill="midnightblue" stroke="midnightblue" points="593.578,-85.2098 598.512,-75.8339 588.808,-80.0865 593.578,-85.2098"/>
</g>
<!-- Node20&#45;&gt;Node2 -->
<g id="edge25" class="edge"><title>Node20&#45;&gt;Node2</title>
<path fill="none" stroke="midnightblue" d="M507.956,-280.472C467.44,-262.69 384.813,-219.038 411,-168 441.24,-109.062 520.057,-83.7042 568.334,-73.4254"/>
<polygon fill="midnightblue" stroke="midnightblue" points="569.32,-76.7974 578.436,-71.399 567.943,-69.9341 569.32,-76.7974"/>
</g>
<!-- Node20&#45;&gt;Node9 -->
<g id="edge27" class="edge"><title>Node20&#45;&gt;Node9</title>
<path fill="none" stroke="midnightblue" d="M497.916,-282.593C448.713,-272.452 353.21,-252.768 301.789,-242.17"/>
<polygon fill="midnightblue" stroke="midnightblue" points="302.319,-238.706 291.818,-240.115 300.906,-245.562 302.319,-238.706"/>
</g>
<!-- Node20&#45;&gt;Node10 -->
<g id="edge41" class="edge"><title>Node20&#45;&gt;Node10</title>
<path fill="none" stroke="midnightblue" d="M497.957,-286.159C443.651,-280.774 328.129,-267.469 233,-244 176.148,-229.974 112.132,-206.013 75.3832,-191.431"/>
<polygon fill="midnightblue" stroke="midnightblue" points="76.3543,-188.05 65.7697,-187.583 73.7528,-194.548 76.3543,-188.05"/>
</g>
<!-- Node20&#45;&gt;Node11 -->
<g id="edge42" class="edge"><title>Node20&#45;&gt;Node11</title>
<path fill="none" stroke="midnightblue" d="M497.992,-284.467C466.768,-278.811 418.171,-266.95 382,-244 362.179,-231.423 344.85,-210.449 334.191,-195.736"/>
<polygon fill="midnightblue" stroke="midnightblue" points="337.046,-193.712 328.453,-187.515 331.306,-197.719 337.046,-193.712"/>
</g>
<!-- Node20&#45;&gt;Node12 -->
<g id="edge33" class="edge"><title>Node20&#45;&gt;Node12</title>
<path fill="none" stroke="midnightblue" d="M515.192,-280.355C503.534,-272.338 487.298,-259.352 478,-244 469.439,-229.866 465.452,-211.381 463.599,-197.738"/>
<polygon fill="midnightblue" stroke="midnightblue" points="467.059,-197.178 462.491,-187.619 460.101,-197.94 467.059,-197.178"/>
</g>
<!-- Node20&#45;&gt;Node13 -->
<g id="edge28" class="edge"><title>Node20&#45;&gt;Node13</title>
<path fill="none" stroke="midnightblue" d="M552.752,-280.422C572.242,-272.698 599.956,-260.094 621,-244 638.995,-230.238 655.585,-210.108 666.171,-195.904"/>
<polygon fill="midnightblue" stroke="midnightblue" points="669.188,-197.705 672.216,-187.551 663.517,-193.601 669.188,-197.705"/>
</g>
<!-- Node20&#45;&gt;Node17 -->
<g id="edge26" class="edge"><title>Node20&#45;&gt;Node17</title>
<path fill="none" stroke="midnightblue" d="M560.115,-289.028C606.856,-287.793 696.67,-280.379 762,-244 782.667,-232.492 800.186,-211.301 810.862,-196.245"/>
<polygon fill="midnightblue" stroke="midnightblue" points="813.871,-198.044 816.593,-187.805 808.08,-194.112 813.871,-198.044"/>
</g>
<!-- Node20&#45;&gt;Node18 -->
<g id="edge34" class="edge"><title>Node20&#45;&gt;Node18</title>
<path fill="none" stroke="midnightblue" d="M524.379,-280.339C519.941,-271.493 513.546,-257.22 511,-244 509.319,-235.271 509.371,-232.738 511,-224 516.689,-193.473 531.277,-160.285 540.909,-140.583"/>
<polygon fill="midnightblue" stroke="midnightblue" points="544.063,-142.102 545.421,-131.595 537.807,-138.962 544.063,-142.102"/>
</g>
<!-- Node20&#45;&gt;Node19 -->
<g id="edge40" class="edge"><title>Node20&#45;&gt;Node19</title>
<path fill="none" stroke="midnightblue" d="M560.11,-285.651C609.833,-279.713 704.152,-265.866 729,-244 744.692,-230.19 760.941,-171.974 768.557,-141.608"/>
<polygon fill="midnightblue" stroke="midnightblue" points="771.976,-142.36 770.955,-131.814 765.177,-140.695 771.976,-142.36"/>
</g>
<!-- Node21 -->
<g id="node21" class="node"><title>Node21</title>
<g id="a_node21"><a xlink:href="lex_8hpp.html" target="_top" xlink:title="lex.hpp">
<polygon fill="none" stroke="black" points="852,-224.5 852,-243.5 900,-243.5 900,-224.5 852,-224.5"/>
<text text-anchor="middle" x="876" y="-231.5" font-family="Helvetica,sans-Serif" font-size="10.00">lex.hpp</text>
</a>
</g>
</g>
<!-- Node20&#45;&gt;Node21 -->
<g id="edge29" class="edge"><title>Node20&#45;&gt;Node21</title>
<path fill="none" stroke="midnightblue" d="M560.292,-285.367C616.259,-278.663 737.09,-263.259 838,-244 839.274,-243.757 840.569,-243.5 841.876,-243.232"/>
<polygon fill="midnightblue" stroke="midnightblue" points="842.923,-246.586 851.946,-241.034 841.429,-239.748 842.923,-246.586"/>
</g>
<!-- Node22 -->
<g id="node22" class="node"><title>Node22</title>
<g id="a_node22"><a xlink:href="string__format_8hpp.html" target="_top" xlink:title="string_format.hpp">
<polygon fill="none" stroke="black" points="520,-224.5 520,-243.5 612,-243.5 612,-224.5 520,-224.5"/>
<text text-anchor="middle" x="566" y="-231.5" font-family="Helvetica,sans-Serif" font-size="10.00">string_format.hpp</text>
</a>
</g>
</g>
<!-- Node20&#45;&gt;Node22 -->
<g id="edge35" class="edge"><title>Node20&#45;&gt;Node22</title>
<path fill="none" stroke="midnightblue" d="M535.11,-280.083C540.282,-272.534 547.846,-261.495 554.194,-252.23"/>
<polygon fill="midnightblue" stroke="midnightblue" points="557.239,-253.979 560.004,-243.751 551.464,-250.022 557.239,-253.979"/>
</g>
<!-- Node23 -->
<g id="node23" class="node"><title>Node23</title>
<polygon fill="none" stroke="#bfbfbf" points="668,-224.5 668,-243.5 720,-243.5 720,-224.5 668,-224.5"/>
<text text-anchor="middle" x="694" y="-231.5" font-family="Helvetica,sans-Serif" font-size="10.00">memory</text>
</g>
<!-- Node20&#45;&gt;Node23 -->
<g id="edge39" class="edge"><title>Node20&#45;&gt;Node23</title>
<path fill="none" stroke="midnightblue" d="M555.145,-280.444C583.023,-271.32 627.348,-256.813 658.4,-246.651"/>
<polygon fill="midnightblue" stroke="midnightblue" points="659.562,-249.953 667.978,-243.516 657.385,-243.3 659.562,-249.953"/>
</g>
<!-- Node21&#45;&gt;Node2 -->
<g id="edge30" class="edge"><title>Node21&#45;&gt;Node2</title>
<path fill="none" stroke="midnightblue" d="M878.222,-224.196C881.02,-211.32 884.603,-186.838 877,-168 864.059,-135.938 853.26,-128.726 823,-112 767.382,-81.2574 693.072,-71.4704 647.971,-68.3837"/>
<polygon fill="midnightblue" stroke="midnightblue" points="647.905,-64.8734 637.711,-67.7632 647.482,-71.8607 647.905,-64.8734"/>
</g>
<!-- Node21&#45;&gt;Node13 -->
<g id="edge32" class="edge"><title>Node21&#45;&gt;Node13</title>
<path fill="none" stroke="midnightblue" d="M851.721,-226.379C818.688,-217.369 759.119,-201.123 719.067,-190.2"/>
<polygon fill="midnightblue" stroke="midnightblue" points="719.901,-186.8 709.333,-187.545 718.059,-193.553 719.901,-186.8"/>
</g>
<!-- Node21&#45;&gt;Node17 -->
<g id="edge31" class="edge"><title>Node21&#45;&gt;Node17</title>
<path fill="none" stroke="midnightblue" d="M867.083,-224.083C859.22,-216.22 847.569,-204.569 838.081,-195.081"/>
<polygon fill="midnightblue" stroke="midnightblue" points="840.297,-192.347 830.751,-187.751 835.347,-197.297 840.297,-192.347"/>
</g>
<!-- Node22&#45;&gt;Node2 -->
<g id="edge36" class="edge"><title>Node22&#45;&gt;Node2</title>
<path fill="none" stroke="midnightblue" d="M568.258,-224.075C574.869,-197.945 594.284,-121.211 603.3,-85.577"/>
<polygon fill="midnightblue" stroke="midnightblue" points="606.772,-86.1211 605.832,-75.5681 599.986,-84.4041 606.772,-86.1211"/>
</g>
<!-- Node22&#45;&gt;Node13 -->
<g id="edge38" class="edge"><title>Node22&#45;&gt;Node13</title>
<path fill="none" stroke="midnightblue" d="M583.995,-224.324C602.038,-215.625 630.047,-202.12 650.803,-192.113"/>
<polygon fill="midnightblue" stroke="midnightblue" points="652.562,-195.15 660.05,-187.655 649.522,-188.845 652.562,-195.15"/>
</g>
<!-- Node22&#45;&gt;Node18 -->
<g id="edge37" class="edge"><title>Node22&#45;&gt;Node18</title>
<path fill="none" stroke="midnightblue" d="M564.745,-224.368C562.162,-206.617 556.206,-165.666 552.705,-141.597"/>
<polygon fill="midnightblue" stroke="midnightblue" points="556.153,-140.983 551.25,-131.591 549.226,-141.991 556.153,-140.983"/>
</g>
</g>
</svg>
