<?xml version="1.0" encoding="UTF-8" standalone="no"?>
<!DOCTYPE svg PUBLIC "-//W3C//DTD SVG 1.1//EN"
 "http://www.w3.org/Graphics/SVG/1.1/DTD/svg11.dtd">
<!-- Generated by graphviz version 2.43.0 (0)
 -->
<!-- Title: utils.hpp Pages: 1 -->
<svg width="1022pt" height="364pt"
 viewBox="0.00 0.00 1022.00 364.00" xmlns="http://www.w3.org/2000/svg" xmlns:xlink="http://www.w3.org/1999/xlink">
<g id="graph0" class="graph" transform="scale(1 1) rotate(0) translate(4 360)">
<title>utils.hpp</title>
<!-- Node1 -->
<g id="node1" class="node">
<title>Node1</title>
<g id="a_node1"><a xlink:title=" ">
<polygon fill="#bfbfbf" stroke="black" points="526.5,-336.5 526.5,-355.5 585.5,-355.5 585.5,-336.5 526.5,-336.5"/>
<text text-anchor="middle" x="556" y="-343.5" font-family="Helvetica,sans-Serif" font-size="10.00">utils.hpp</text>
</a>
</g>
</g>
<!-- Node2 -->
<g id="node2" class="node">
<title>Node2</title>
<g id="a_node2"><a xlink:href="types_8hpp.html" target="_top" xlink:title=" ">
<polygon fill="none" stroke="black" points="609.5,-56.5 609.5,-75.5 674.5,-75.5 674.5,-56.5 609.5,-56.5"/>
<text text-anchor="middle" x="642" y="-63.5" font-family="Helvetica,sans-Serif" font-size="10.00">types.hpp</text>
</a>
</g>
</g>
<!-- Node1&#45;&gt;Node2 -->
<g id="edge1" class="edge">
<title>Node1&#45;&gt;Node2</title>
<path fill="none" stroke="midnightblue" d="M585.7,-344.26C687.19,-340.95 1014,-323.42 1014,-235 1014,-235 1014,-235 1014,-177 1014,-109.01 782.63,-79.85 684.83,-70.55"/>
<polygon fill="midnightblue" stroke="midnightblue" points="684.97,-67.05 674.69,-69.62 684.32,-74.02 684.97,-67.05"/>
</g>
<!-- Node9 -->
<g id="node9" class="node">
<title>Node9</title>
<g id="a_node9"><a xlink:href="tag_8hpp.html" target="_top" xlink:title=" ">
<polygon fill="none" stroke="black" points="262.5,-224.5 262.5,-243.5 315.5,-243.5 315.5,-224.5 262.5,-224.5"/>
<text text-anchor="middle" x="289" y="-231.5" font-family="Helvetica,sans-Serif" font-size="10.00">tag.hpp</text>
</a>
</g>
</g>
<!-- Node1&#45;&gt;Node9 -->
<g id="edge8" class="edge">
<title>Node1&#45;&gt;Node9</title>
<path fill="none" stroke="midnightblue" d="M526.2,-342C472.37,-336.12 361.57,-321.7 330,-300 313.54,-288.69 302.32,-268.38 295.83,-253.47"/>
<polygon fill="midnightblue" stroke="midnightblue" points="298.91,-251.74 291.93,-243.77 292.41,-254.35 298.91,-251.74"/>
</g>
<!-- Node10 -->
<g id="node10" class="node">
<title>Node10</title>
<g id="a_node10"><a xlink:title=" ">
<polygon fill="none" stroke="#bfbfbf" points="0,-168.5 0,-187.5 98,-187.5 98,-168.5 0,-168.5"/>
<text text-anchor="middle" x="49" y="-175.5" font-family="Helvetica,sans-Serif" font-size="10.00">QDomDocument</text>
</a>
</g>
</g>
<!-- Node1&#45;&gt;Node10 -->
<g id="edge44" class="edge">
<title>Node1&#45;&gt;Node10</title>
<path fill="none" stroke="midnightblue" d="M526.45,-341.92C479.42,-336.52 384.98,-323.59 308,-300 249.02,-281.92 236.91,-270.08 181,-244 143.89,-226.69 101.49,-205.57 74.98,-192.2"/>
<polygon fill="midnightblue" stroke="midnightblue" points="76.48,-189.03 65.98,-187.65 73.32,-195.28 76.48,-189.03"/>
</g>
<!-- Node11 -->
<g id="node11" class="node">
<title>Node11</title>
<g id="a_node11"><a xlink:title=" ">
<polygon fill="none" stroke="#bfbfbf" points="302,-168.5 302,-187.5 390,-187.5 390,-168.5 302,-168.5"/>
<text text-anchor="middle" x="346" y="-175.5" font-family="Helvetica,sans-Serif" font-size="10.00">QDomElement</text>
</a>
</g>
</g>
<!-- Node1&#45;&gt;Node11 -->
<g id="edge45" class="edge">
<title>Node1&#45;&gt;Node11</title>
<path fill="none" stroke="midnightblue" d="M531.41,-336.47C494.01,-322.42 422.49,-291.18 378,-244 365.35,-230.58 356.69,-211.21 351.6,-197.11"/>
<polygon fill="midnightblue" stroke="midnightblue" points="354.89,-195.91 348.4,-187.54 348.25,-198.13 354.89,-195.91"/>
</g>
<!-- Node13 -->
<g id="node13" class="node">
<title>Node13</title>
<g id="a_node13"><a xlink:href="exceptions_8hpp.html" target="_top" xlink:title=" ">
<polygon fill="none" stroke="black" points="670.5,-168.5 670.5,-187.5 761.5,-187.5 761.5,-168.5 670.5,-168.5"/>
<text text-anchor="middle" x="716" y="-175.5" font-family="Helvetica,sans-Serif" font-size="10.00">exceptions.hpp</text>
</a>
</g>
</g>
<!-- Node1&#45;&gt;Node13 -->
<g id="edge43" class="edge">
<title>Node1&#45;&gt;Node13</title>
<path fill="none" stroke="midnightblue" d="M585.82,-341.07C634.5,-332.86 729.77,-308.93 771,-244 783.1,-224.95 761.22,-205.51 741.58,-192.92"/>
<polygon fill="midnightblue" stroke="midnightblue" points="743.21,-189.82 732.84,-187.64 739.59,-195.81 743.21,-189.82"/>
</g>
<!-- Node17 -->
<g id="node17" class="node">
<title>Node17</title>
<g id="a_node17"><a xlink:href="input__stream_8hpp.html" target="_top" xlink:title=" ">
<polygon fill="none" stroke="black" points="818,-168.5 818,-187.5 920,-187.5 920,-168.5 818,-168.5"/>
<text text-anchor="middle" x="869" y="-175.5" font-family="Helvetica,sans-Serif" font-size="10.00">input_stream.hpp</text>
</a>
</g>
</g>
<!-- Node1&#45;&gt;Node17 -->
<g id="edge19" class="edge">
<title>Node1&#45;&gt;Node17</title>
<path fill="none" stroke="midnightblue" d="M585.71,-342.16C670.56,-333.37 910.8,-303.57 957,-244 974.8,-221.04 939.92,-202.32 908.95,-190.96"/>
<polygon fill="midnightblue" stroke="midnightblue" points="909.7,-187.51 899.11,-187.53 907.4,-194.13 909.7,-187.51"/>
</g>
<!-- Node20 -->
<g id="node20" class="node">
<title>Node20</title>
<g id="a_node20"><a xlink:href="parser_8hpp.html" target="_top" xlink:title=" ">
<polygon fill="none" stroke="black" points="522,-280.5 522,-299.5 590,-299.5 590,-280.5 522,-280.5"/>
<text text-anchor="middle" x="556" y="-287.5" font-family="Helvetica,sans-Serif" font-size="10.00">parser.hpp</text>
</a>
</g>
</g>
<!-- Node1&#45;&gt;Node20 -->
<g id="edge24" class="edge">
<title>Node1&#45;&gt;Node20</title>
<path fill="none" stroke="midnightblue" d="M556,-336.08C556,-329.01 556,-318.86 556,-309.99"/>
<polygon fill="midnightblue" stroke="midnightblue" points="559.5,-309.75 556,-299.75 552.5,-309.75 559.5,-309.75"/>
</g>
<!-- Node3 -->
<g id="node3" class="node">
<title>Node3</title>
<g id="a_node3"><a xlink:title=" ">
<polygon fill="none" stroke="#bfbfbf" points="438,-0.5 438,-19.5 482,-19.5 482,-0.5 438,-0.5"/>
<text text-anchor="middle" x="460" y="-7.5" font-family="Helvetica,sans-Serif" font-size="10.00">string</text>
</a>
</g>
</g>
<!-- Node2&#45;&gt;Node3 -->
<g id="edge2" class="edge">
<title>Node2&#45;&gt;Node3</title>
<path fill="none" stroke="midnightblue" d="M613.16,-56.44C580.19,-46.66 526.36,-30.69 492.08,-20.52"/>
<polygon fill="midnightblue" stroke="midnightblue" points="492.7,-17.05 482.12,-17.56 490.71,-23.76 492.7,-17.05"/>
</g>
<!-- Node4 -->
<g id="node4" class="node">
<title>Node4</title>
<g id="a_node4"><a xlink:title=" ">
<polygon fill="none" stroke="#bfbfbf" points="500,-0.5 500,-19.5 560,-19.5 560,-0.5 500,-0.5"/>
<text text-anchor="middle" x="530" y="-7.5" font-family="Helvetica,sans-Serif" font-size="10.00">iostream</text>
</a>
</g>
</g>
<!-- Node2&#45;&gt;Node4 -->
<g id="edge3" class="edge">
<title>Node2&#45;&gt;Node4</title>
<path fill="none" stroke="midnightblue" d="M624.01,-56.32C605.96,-47.62 577.95,-34.12 557.2,-24.11"/>
<polygon fill="midnightblue" stroke="midnightblue" points="558.48,-20.84 547.95,-19.65 555.44,-27.15 558.48,-20.84"/>
</g>
<!-- Node5 -->
<g id="node5" class="node">
<title>Node5</title>
<g id="a_node5"><a xlink:title=" ">
<polygon fill="none" stroke="#bfbfbf" points="578.5,-0.5 578.5,-19.5 635.5,-19.5 635.5,-0.5 578.5,-0.5"/>
<text text-anchor="middle" x="607" y="-7.5" font-family="Helvetica,sans-Serif" font-size="10.00">cwctype</text>
</a>
</g>
</g>
<!-- Node2&#45;&gt;Node5 -->
<g id="edge4" class="edge">
<title>Node2&#45;&gt;Node5</title>
<path fill="none" stroke="midnightblue" d="M636.22,-56.08C631.33,-48.53 624.17,-37.49 618.17,-28.23"/>
<polygon fill="midnightblue" stroke="midnightblue" points="621.05,-26.24 612.67,-19.75 615.17,-30.05 621.05,-26.24"/>
</g>
<!-- Node6 -->
<g id="node6" class="node">
<title>Node6</title>
<g id="a_node6"><a xlink:title=" ">
<polygon fill="none" stroke="#bfbfbf" points="653.5,-0.5 653.5,-19.5 702.5,-19.5 702.5,-0.5 653.5,-0.5"/>
<text text-anchor="middle" x="678" y="-7.5" font-family="Helvetica,sans-Serif" font-size="10.00">cctype</text>
</a>
</g>
</g>
<!-- Node2&#45;&gt;Node6 -->
<g id="edge5" class="edge">
<title>Node2&#45;&gt;Node6</title>
<path fill="none" stroke="midnightblue" d="M647.94,-56.08C652.98,-48.53 660.34,-37.49 666.51,-28.23"/>
<polygon fill="midnightblue" stroke="midnightblue" points="669.53,-30.01 672.17,-19.75 663.71,-26.13 669.53,-30.01"/>
</g>
<!-- Node7 -->
<g id="node7" class="node">
<title>Node7</title>
<g id="a_node7"><a xlink:title=" ">
<polygon fill="none" stroke="#bfbfbf" points="720.5,-0.5 720.5,-19.5 773.5,-19.5 773.5,-0.5 720.5,-0.5"/>
<text text-anchor="middle" x="747" y="-7.5" font-family="Helvetica,sans-Serif" font-size="10.00">QString</text>
</a>
</g>
</g>
<!-- Node2&#45;&gt;Node7 -->
<g id="edge6" class="edge">
<title>Node2&#45;&gt;Node7</title>
<path fill="none" stroke="midnightblue" d="M658.87,-56.32C675.71,-47.66 701.81,-34.24 721.24,-24.25"/>
<polygon fill="midnightblue" stroke="midnightblue" points="722.88,-27.34 730.17,-19.65 719.68,-21.12 722.88,-27.34"/>
</g>
<!-- Node8 -->
<g id="node8" class="node">
<title>Node8</title>
<g id="a_node8"><a xlink:title=" ">
<polygon fill="none" stroke="#bfbfbf" points="792,-0.5 792,-19.5 872,-19.5 872,-0.5 792,-0.5"/>
<text text-anchor="middle" x="832" y="-7.5" font-family="Helvetica,sans-Serif" font-size="10.00">QTextStream</text>
</a>
</g>
</g>
<!-- Node2&#45;&gt;Node8 -->
<g id="edge7" class="edge">
<title>Node2&#45;&gt;Node8</title>
<path fill="none" stroke="midnightblue" d="M672.11,-56.44C704.63,-47.2 756.58,-32.44 792.39,-22.26"/>
<polygon fill="midnightblue" stroke="midnightblue" points="793.37,-25.62 802.03,-19.52 791.46,-18.88 793.37,-25.62"/>
</g>
<!-- Node9&#45;&gt;Node2 -->
<g id="edge13" class="edge">
<title>Node9&#45;&gt;Node2</title>
<path fill="none" stroke="midnightblue" d="M286.97,-224.15C284.43,-210.79 281.68,-185.18 293,-168 323.4,-121.86 351.67,-129.75 404,-112 470.22,-89.53 550.84,-77.27 599.21,-71.43"/>
<polygon fill="midnightblue" stroke="midnightblue" points="599.79,-74.88 609.31,-70.25 598.97,-67.93 599.79,-74.88"/>
</g>
<!-- Node9&#45;&gt;Node10 -->
<g id="edge9" class="edge">
<title>Node9&#45;&gt;Node10</title>
<path fill="none" stroke="midnightblue" d="M262.4,-227.01C222.55,-218.05 146.74,-200.99 97.04,-189.81"/>
<polygon fill="midnightblue" stroke="midnightblue" points="97.69,-186.37 87.16,-187.59 96.15,-193.2 97.69,-186.37"/>
</g>
<!-- Node9&#45;&gt;Node11 -->
<g id="edge10" class="edge">
<title>Node9&#45;&gt;Node11</title>
<path fill="none" stroke="midnightblue" d="M298.16,-224.32C306.5,-216.42 319.03,-204.55 329.18,-194.94"/>
<polygon fill="midnightblue" stroke="midnightblue" points="331.82,-197.25 336.68,-187.83 327.01,-192.17 331.82,-197.25"/>
</g>
<!-- Node12 -->
<g id="node12" class="node">
<title>Node12</title>
<g id="a_node12"><a xlink:href="parser__info_8hpp.html" target="_top" xlink:title=" ">
<polygon fill="none" stroke="black" points="446,-168.5 446,-187.5 538,-187.5 538,-168.5 446,-168.5"/>
<text text-anchor="middle" x="492" y="-175.5" font-family="Helvetica,sans-Serif" font-size="10.00">parser_info.hpp</text>
</a>
</g>
</g>
<!-- Node9&#45;&gt;Node12 -->
<g id="edge11" class="edge">
<title>Node9&#45;&gt;Node12</title>
<path fill="none" stroke="midnightblue" d="M315.54,-225.94C349.72,-216.85 409.53,-200.94 449.93,-190.19"/>
<polygon fill="midnightblue" stroke="midnightblue" points="451,-193.53 459.76,-187.58 449.2,-186.76 451,-193.53"/>
</g>
<!-- Node9&#45;&gt;Node13 -->
<g id="edge14" class="edge">
<title>Node9&#45;&gt;Node13</title>
<path fill="none" stroke="midnightblue" d="M315.71,-229.62C384.26,-220.95 567.5,-197.78 660.38,-186.03"/>
<polygon fill="midnightblue" stroke="midnightblue" points="660.95,-189.49 670.43,-184.76 660.07,-182.54 660.95,-189.49"/>
</g>
<!-- Node15 -->
<g id="node15" class="node">
<title>Node15</title>
<g id="a_node15"><a xlink:title=" ">
<polygon fill="none" stroke="#bfbfbf" points="116.5,-168.5 116.5,-187.5 163.5,-187.5 163.5,-168.5 116.5,-168.5"/>
<text text-anchor="middle" x="140" y="-175.5" font-family="Helvetica,sans-Serif" font-size="10.00">vector</text>
</a>
</g>
</g>
<!-- Node9&#45;&gt;Node15 -->
<g id="edge17" class="edge">
<title>Node9&#45;&gt;Node15</title>
<path fill="none" stroke="midnightblue" d="M265.39,-224.44C240.54,-215.44 201.23,-201.19 173.25,-191.05"/>
<polygon fill="midnightblue" stroke="midnightblue" points="174.09,-187.63 163.5,-187.52 171.71,-194.21 174.09,-187.63"/>
</g>
<!-- Node16 -->
<g id="node16" class="node">
<title>Node16</title>
<g id="a_node16"><a xlink:title=" ">
<polygon fill="none" stroke="#bfbfbf" points="182,-168.5 182,-187.5 246,-187.5 246,-168.5 182,-168.5"/>
<text text-anchor="middle" x="214" y="-175.5" font-family="Helvetica,sans-Serif" font-size="10.00">algorithm</text>
</a>
</g>
</g>
<!-- Node9&#45;&gt;Node16 -->
<g id="edge18" class="edge">
<title>Node9&#45;&gt;Node16</title>
<path fill="none" stroke="midnightblue" d="M276.95,-224.32C265.54,-216.11 248.17,-203.6 234.57,-193.81"/>
<polygon fill="midnightblue" stroke="midnightblue" points="236.43,-190.84 226.27,-187.83 232.34,-196.52 236.43,-190.84"/>
</g>
<!-- Node12&#45;&gt;Node2 -->
<g id="edge12" class="edge">
<title>Node12&#45;&gt;Node2</title>
<path fill="none" stroke="midnightblue" d="M496.62,-168.31C504.24,-154.68 520.65,-128.19 541,-112 559.46,-97.31 583.47,-86.36 603.45,-78.93"/>
<polygon fill="midnightblue" stroke="midnightblue" points="604.65,-82.22 612.89,-75.57 602.3,-75.63 604.65,-82.22"/>
</g>
<!-- Node13&#45;&gt;Node2 -->
<g id="edge16" class="edge">
<title>Node13&#45;&gt;Node2</title>
<path fill="none" stroke="midnightblue" d="M710.19,-168.37C697.98,-150.22 669.45,-107.8 653.43,-83.99"/>
<polygon fill="midnightblue" stroke="midnightblue" points="656.27,-81.94 647.78,-75.59 650.46,-85.84 656.27,-81.94"/>
</g>
<!-- Node14 -->
<g id="node14" class="node">
<title>Node14</title>
<g id="a_node14"><a xlink:title=" ">
<polygon fill="none" stroke="#bfbfbf" points="708.5,-112.5 708.5,-131.5 773.5,-131.5 773.5,-112.5 708.5,-112.5"/>
<text text-anchor="middle" x="741" y="-119.5" font-family="Helvetica,sans-Serif" font-size="10.00">stdexcept</text>
</a>
</g>
</g>
<!-- Node13&#45;&gt;Node14 -->
<g id="edge15" class="edge">
<title>Node13&#45;&gt;Node14</title>
<path fill="none" stroke="midnightblue" d="M720.13,-168.08C723.51,-160.77 728.42,-150.18 732.62,-141.1"/>
<polygon fill="midnightblue" stroke="midnightblue" points="735.92,-142.3 736.95,-131.75 729.57,-139.36 735.92,-142.3"/>
</g>
<!-- Node17&#45;&gt;Node2 -->
<g id="edge20" class="edge">
<title>Node17&#45;&gt;Node2</title>
<path fill="none" stroke="midnightblue" d="M868.38,-168.38C866.89,-154.36 861.86,-126.71 845,-112 821.48,-91.47 737.07,-78.14 684.79,-71.65"/>
<polygon fill="midnightblue" stroke="midnightblue" points="685.14,-68.17 674.79,-70.45 684.3,-75.12 685.14,-68.17"/>
</g>
<!-- Node18 -->
<g id="node18" class="node">
<title>Node18</title>
<g id="a_node18"><a xlink:href="const_8hpp.html" target="_top" xlink:title=" ">
<polygon fill="none" stroke="black" points="550,-112.5 550,-131.5 614,-131.5 614,-112.5 550,-112.5"/>
<text text-anchor="middle" x="582" y="-119.5" font-family="Helvetica,sans-Serif" font-size="10.00">const.hpp</text>
</a>
</g>
</g>
<!-- Node17&#45;&gt;Node18 -->
<g id="edge21" class="edge">
<title>Node17&#45;&gt;Node18</title>
<path fill="none" stroke="midnightblue" d="M823.52,-168.44C768.85,-158.16 677.8,-141.02 624.49,-130.99"/>
<polygon fill="midnightblue" stroke="midnightblue" points="624.82,-127.5 614.35,-129.09 623.53,-134.38 624.82,-127.5"/>
</g>
<!-- Node19 -->
<g id="node19" class="node">
<title>Node19</title>
<g id="a_node19"><a xlink:title=" ">
<polygon fill="none" stroke="#bfbfbf" points="793.5,-112.5 793.5,-131.5 836.5,-131.5 836.5,-112.5 793.5,-112.5"/>
<text text-anchor="middle" x="815" y="-119.5" font-family="Helvetica,sans-Serif" font-size="10.00">stack</text>
</a>
</g>
</g>
<!-- Node17&#45;&gt;Node19 -->
<g id="edge23" class="edge">
<title>Node17&#45;&gt;Node19</title>
<path fill="none" stroke="midnightblue" d="M860.08,-168.08C852.22,-160.22 840.57,-148.57 831.08,-139.08"/>
<polygon fill="midnightblue" stroke="midnightblue" points="833.3,-136.35 823.75,-131.75 828.35,-141.3 833.3,-136.35"/>
</g>
<!-- Node18&#45;&gt;Node2 -->
<g id="edge22" class="edge">
<title>Node18&#45;&gt;Node2</title>
<path fill="none" stroke="midnightblue" d="M591.64,-112.32C600.51,-104.34 613.87,-92.31 624.61,-82.65"/>
<polygon fill="midnightblue" stroke="midnightblue" points="627.09,-85.13 632.18,-75.83 622.41,-79.92 627.09,-85.13"/>
</g>
<!-- Node20&#45;&gt;Node2 -->
<g id="edge25" class="edge">
<title>Node20&#45;&gt;Node2</title>
<path fill="none" stroke="midnightblue" d="M534.7,-280.45C493.69,-262.64 410.1,-218.94 437,-168 468.63,-108.1 549.26,-83.17 599.45,-73.21"/>
<polygon fill="midnightblue" stroke="midnightblue" points="600.18,-76.64 609.37,-71.36 598.9,-69.76 600.18,-76.64"/>
</g>
<!-- Node20&#45;&gt;Node9 -->
<g id="edge27" class="edge">
<title>Node20&#45;&gt;Node9</title>
<path fill="none" stroke="midnightblue" d="M521.91,-282.11C471.54,-271.92 377.6,-252.92 325.74,-242.43"/>
<polygon fill="midnightblue" stroke="midnightblue" points="326.15,-238.94 315.65,-240.39 324.76,-245.8 326.15,-238.94"/>
</g>
<!-- Node20&#45;&gt;Node10 -->
<g id="edge41" class="edge">
<title>Node20&#45;&gt;Node10</title>
<path fill="none" stroke="midnightblue" d="M521.58,-285.71C465.02,-279.91 349.1,-266.29 253,-244 191.08,-229.64 120.85,-205.46 81.05,-190.99"/>
<polygon fill="midnightblue" stroke="midnightblue" points="82.2,-187.68 71.61,-187.53 79.8,-194.25 82.2,-187.68"/>
</g>
<!-- Node20&#45;&gt;Node11 -->
<g id="edge42" class="edge">
<title>Node20&#45;&gt;Node11</title>
<path fill="none" stroke="midnightblue" d="M521.99,-284.11C490.11,-278.34 442.09,-266.54 406,-244 385.94,-231.47 368.3,-210.48 357.43,-195.76"/>
<polygon fill="midnightblue" stroke="midnightblue" points="360.22,-193.65 351.57,-187.53 354.52,-197.7 360.22,-193.65"/>
</g>
<!-- Node20&#45;&gt;Node12 -->
<g id="edge33" class="edge">
<title>Node20&#45;&gt;Node12</title>
<path fill="none" stroke="midnightblue" d="M540.52,-280.44C528,-272.65 511.01,-259.94 502,-244 494.01,-229.87 491.81,-211.38 491.44,-197.74"/>
<polygon fill="midnightblue" stroke="midnightblue" points="494.94,-197.63 491.46,-187.62 487.94,-197.61 494.94,-197.63"/>
</g>
<!-- Node20&#45;&gt;Node13 -->
<g id="edge28" class="edge">
<title>Node20&#45;&gt;Node13</title>
<path fill="none" stroke="midnightblue" d="M582.91,-280.47C604.23,-272.93 634.14,-260.54 657,-244 675.64,-230.51 692.81,-210.33 703.76,-196.04"/>
<polygon fill="midnightblue" stroke="midnightblue" points="706.86,-197.74 710.02,-187.63 701.24,-193.57 706.86,-197.74"/>
</g>
<!-- Node20&#45;&gt;Node17 -->
<g id="edge26" class="edge">
<title>Node20&#45;&gt;Node17</title>
<path fill="none" stroke="midnightblue" d="M590.15,-289.12C639.96,-287.94 734.22,-280.54 804,-244 825.98,-232.49 845.24,-210.98 856.97,-195.87"/>
<polygon fill="midnightblue" stroke="midnightblue" points="859.8,-197.94 862.98,-187.83 854.19,-193.75 859.8,-197.94"/>
</g>
<!-- Node20&#45;&gt;Node18 -->
<g id="edge34" class="edge">
<title>Node20&#45;&gt;Node18</title>
<path fill="none" stroke="midnightblue" d="M550.07,-280.31C542.37,-267.98 530.44,-244.61 535,-224 538.71,-207.23 559.9,-165.11 572.53,-140.89"/>
<polygon fill="midnightblue" stroke="midnightblue" points="575.78,-142.21 577.34,-131.73 569.59,-138.96 575.78,-142.21"/>
</g>
<!-- Node20&#45;&gt;Node19 -->
<g id="edge40" class="edge">
<title>Node20&#45;&gt;Node19</title>
<path fill="none" stroke="midnightblue" d="M590.29,-285.87C643.93,-280.32 744.34,-267.1 771,-244 786.8,-230.31 803,-172.04 810.58,-141.63"/>
<polygon fill="midnightblue" stroke="midnightblue" points="814,-142.37 812.97,-131.83 807.2,-140.72 814,-142.37"/>
</g>
<!-- Node21 -->
<g id="node21" class="node">
<title>Node21</title>
<g id="a_node21"><a xlink:href="lex_8hpp.html" target="_top" xlink:title=" ">
<polygon fill="none" stroke="black" points="894.5,-224.5 894.5,-243.5 947.5,-243.5 947.5,-224.5 894.5,-224.5"/>
<text text-anchor="middle" x="921" y="-231.5" font-family="Helvetica,sans-Serif" font-size="10.00">lex.hpp</text>
</a>
</g>
</g>
<!-- Node20&#45;&gt;Node21 -->
<g id="edge29" class="edge">
<title>Node20&#45;&gt;Node21</title>
<path fill="none" stroke="midnightblue" d="M590.19,-285.14C649.43,-278.26 774.9,-262.8 880,-244 881.29,-243.77 882.6,-243.53 883.93,-243.27"/>
<polygon fill="midnightblue" stroke="midnightblue" points="885.05,-246.62 894.15,-241.21 883.66,-239.76 885.05,-246.62"/>
</g>
<!-- Node22 -->
<g id="node22" class="node">
<title>Node22</title>
<g id="a_node22"><a xlink:href="string__format_8hpp.html" target="_top" xlink:title=" ">
<polygon fill="none" stroke="black" points="544,-224.5 544,-243.5 648,-243.5 648,-224.5 544,-224.5"/>
<text text-anchor="middle" x="596" y="-231.5" font-family="Helvetica,sans-Serif" font-size="10.00">string_format.hpp</text>
</a>
</g>
</g>
<!-- Node20&#45;&gt;Node22 -->
<g id="edge35" class="edge">
<title>Node20&#45;&gt;Node22</title>
<path fill="none" stroke="midnightblue" d="M562.61,-280.08C568.26,-272.46 576.54,-261.26 583.45,-251.94"/>
<polygon fill="midnightblue" stroke="midnightblue" points="586.38,-253.87 589.52,-243.75 580.75,-249.7 586.38,-253.87"/>
</g>
<!-- Node23 -->
<g id="node23" class="node">
<title>Node23</title>
<g id="a_node23"><a xlink:title=" ">
<polygon fill="none" stroke="#bfbfbf" points="704,-224.5 704,-243.5 762,-243.5 762,-224.5 704,-224.5"/>
<text text-anchor="middle" x="733" y="-231.5" font-family="Helvetica,sans-Serif" font-size="10.00">memory</text>
</a>
</g>
</g>
<!-- Node20&#45;&gt;Node23 -->
<g id="edge39" class="edge">
<title>Node20&#45;&gt;Node23</title>
<path fill="none" stroke="midnightblue" d="M584.05,-280.44C614.08,-271.28 661.91,-256.69 695.24,-246.52"/>
<polygon fill="midnightblue" stroke="midnightblue" points="696.54,-249.78 705.09,-243.52 694.5,-243.09 696.54,-249.78"/>
</g>
<!-- Node21&#45;&gt;Node2 -->
<g id="edge30" class="edge">
<title>Node21&#45;&gt;Node2</title>
<path fill="none" stroke="midnightblue" d="M924.91,-224.15C930.02,-211.22 937.38,-186.67 929,-168 913.65,-133.82 899.53,-128.71 866,-112 807.58,-82.88 731.71,-72.6 684.97,-68.98"/>
<polygon fill="midnightblue" stroke="midnightblue" points="685.1,-65.48 674.88,-68.26 684.61,-72.46 685.1,-65.48"/>
</g>
<!-- Node21&#45;&gt;Node13 -->
<g id="edge32" class="edge">
<title>Node21&#45;&gt;Node13</title>
<path fill="none" stroke="midnightblue" d="M894.2,-225.94C859.68,-216.85 799.29,-200.94 758.48,-190.19"/>
<polygon fill="midnightblue" stroke="midnightblue" points="759.12,-186.74 748.56,-187.58 757.34,-193.51 759.12,-186.74"/>
</g>
<!-- Node21&#45;&gt;Node17 -->
<g id="edge31" class="edge">
<title>Node21&#45;&gt;Node17</title>
<path fill="none" stroke="midnightblue" d="M912.41,-224.08C904.84,-216.22 893.62,-204.57 884.49,-195.08"/>
<polygon fill="midnightblue" stroke="midnightblue" points="886.88,-192.53 877.43,-187.75 881.84,-197.38 886.88,-192.53"/>
</g>
<!-- Node22&#45;&gt;Node2 -->
<g id="edge36" class="edge">
<title>Node22&#45;&gt;Node2</title>
<path fill="none" stroke="midnightblue" d="M598.47,-224.08C605.71,-197.95 626.98,-121.21 636.85,-85.58"/>
<polygon fill="midnightblue" stroke="midnightblue" points="640.33,-86.14 639.63,-75.57 633.58,-84.27 640.33,-86.14"/>
</g>
<!-- Node22&#45;&gt;Node13 -->
<g id="edge38" class="edge">
<title>Node22&#45;&gt;Node13</title>
<path fill="none" stroke="midnightblue" d="M615.01,-224.44C634.59,-215.64 665.31,-201.81 687.73,-191.72"/>
<polygon fill="midnightblue" stroke="midnightblue" points="689.39,-194.81 697.07,-187.52 686.52,-188.43 689.39,-194.81"/>
</g>
<!-- Node22&#45;&gt;Node18 -->
<g id="edge37" class="edge">
<title>Node22&#45;&gt;Node18</title>
<path fill="none" stroke="midnightblue" d="M594.9,-224.37C592.64,-206.62 587.43,-165.67 584.37,-141.6"/>
<polygon fill="midnightblue" stroke="midnightblue" points="587.83,-141.07 583.09,-131.59 580.88,-141.95 587.83,-141.07"/>
</g>
</g>
</svg>
