<?xml version="1.0" encoding="UTF-8" standalone="no"?>
<!DOCTYPE svg PUBLIC "-//W3C//DTD SVG 1.1//EN"
 "http://www.w3.org/Graphics/SVG/1.1/DTD/svg11.dtd">
<!-- Generated by graphviz version 2.43.0 (0)
 -->
<!-- Title: utils.hpp Pages: 1 -->
<!--zoomable 357 -->

<svg id="main" version="1.1" xmlns="http://www.w3.org/2000/svg" xmlns:xlink="http://www.w3.org/1999/xlink" xml:space="preserve" onload="init(evt)">
<style type="text/css"><![CDATA[
.node, .edge {opacity: 0.7;}
.node.selected, .edge.selected {opacity: 1;}
.edge:hover path { stroke: red; }
.edge:hover polygon { stroke: red; fill: red; }
]]></style>

<defs>
  <circle id="rim" cx="0" cy="0" r="7"/>
  <circle id="rim2" cx="0" cy="0" r="3.5"/>
  <g id="zoomPlus">
    <use xlink:href="#rim" fill="#404040"><set attributeName="fill" to="#808080" begin="zoomplus.mouseover" end="zoomplus.mouseout"/></use>
    <path d="M-4,0h8M0,-4v8" fill="none" stroke="white" stroke-width="1.5" pointer-events="none"/>
  </g>
  <g id="zoomMin">
    <use xlink:href="#rim" fill="#404040"><set attributeName="fill" to="#808080" begin="zoomminus.mouseover" end="zoomminus.mouseout"/></use>
    <path d="M-4,0h8" fill="none" stroke="white" stroke-width="1.5" pointer-events="none"/>
  </g>
  <g id="arrowUp" transform="translate(30 24)">
    <use xlink:href="#rim"/>
    <path pointer-events="none" fill="none" stroke="white" stroke-width="1.5" d="M0,-3.0v7 M-2.5,-0.5L0,-3.0L2.5,-0.5"/>
  </g>
  <g id="arrowRight" transform="rotate(90) translate(36 -43)">
    <use xlink:href="#rim"/>
    <path pointer-events="none" fill="none" stroke="white" stroke-width="1.5" d="M0,-3.0v7 M-2.5,-0.5L0,-3.0L2.5,-0.5"/>
  </g>
  <g id="arrowDown" transform="rotate(180) translate(-30 -48)">
    <use xlink:href="#rim"/>
    <path pointer-events="none" fill="none" stroke="white" stroke-width="1.5" d="M0,-3.0v7 M-2.5,-0.5L0,-3.0L2.5,-0.5"/>
  </g>
  <g id="arrowLeft" transform="rotate(270) translate(-36 17)">
    <use xlink:href="#rim"/>
    <path pointer-events="none" fill="none" stroke="white" stroke-width="1.5" d="M0,-3.0v7 M-2.5,-0.5L0,-3.0L2.5,-0.5"/>
  </g>
  <g id="resetDef">
    <use xlink:href="#rim2" fill="#404040"><set attributeName="fill" to="#808080" begin="reset.mouseover" end="reset.mouseout"/></use>
  </g>
</defs>
<script type="application/ecmascript">
var viewWidth = 1004;
var viewHeight = 357;
var sectionId = 'dynsection-0';
</script>
<script type="application/ecmascript" xlink:href="svg.min.js"/>
<svg id="graph" class="graph">
<g id="viewport">
<title>utils.hpp</title>
<!-- Node1 -->
<g id="Node000001" class="node">
<title>Node1</title>
<g id="a_Node000001"><a xlink:title=" ">
<polygon fill="#999999" stroke="#666666" points="609.5,-349 550.5,-349 550.5,-330 609.5,-330 609.5,-349"/>
<text text-anchor="middle" x="580" y="-337" font-family="Helvetica,sans-Serif" font-size="10.00">utils.hpp</text>
</a>
</g>
</g>
<!-- Node2 -->
<g id="Node000002" class="node">
<title>Node2</title>
<g id="a_Node000002"><a xlink:href="types_8hpp.html" target="_top" xlink:title=" ">
<polygon fill="white" stroke="#666666" points="627.5,-74 562.5,-74 562.5,-55 627.5,-55 627.5,-74"/>
<text text-anchor="middle" x="595" y="-62" font-family="Helvetica,sans-Serif" font-size="10.00">types.hpp</text>
</a>
</g>
</g>
<!-- Node1&#45;&gt;Node2 -->
<g id="edge1_Node000001_Node000002" class="edge">
<title>Node1&#45;&gt;Node2</title>
<g id="a_edge1_Node000001_Node000002"><a xlink:title=" ">
<path fill="none" stroke="#63b8ff" d="M609.58,-337.2C704.62,-332.22 996,-310.43 996,-230.5 996,-230.5 996,-230.5 996,-173.5 996,-99.96 741.38,-75.04 637.92,-67.96"/>
<polygon fill="#63b8ff" stroke="#63b8ff" points="638.02,-64.45 627.82,-67.29 637.56,-71.44 638.02,-64.45"/>
</a>
</g>
</g>
<!-- Node10 -->
<g id="Node000010" class="node">
<title>Node10</title>
<g id="a_Node000010"><a xlink:href="tag_8hpp.html" target="_top" xlink:title=" ">
<polygon fill="white" stroke="#666666" points="317.5,-239 264.5,-239 264.5,-220 317.5,-220 317.5,-239"/>
<text text-anchor="middle" x="291" y="-227" font-family="Helvetica,sans-Serif" font-size="10.00">tag.hpp</text>
</a>
</g>
</g>
<!-- Node1&#45;&gt;Node10 -->
<g id="edge9_Node000001_Node000010" class="edge">
<title>Node1&#45;&gt;Node10</title>
<g id="a_edge9_Node000001_Node000010"><a xlink:title=" ">
<path fill="none" stroke="#63b8ff" d="M550.07,-336.11C492.17,-331.02 367.41,-317.58 332,-294 315.65,-283.11 304.41,-263.25 297.88,-248.63"/>
<polygon fill="#63b8ff" stroke="#63b8ff" points="301.01,-247.03 293.96,-239.11 294.54,-249.69 301.01,-247.03"/>
</a>
</g>
</g>
<!-- Node11 -->
<g id="Node000011" class="node">
<title>Node11</title>
<g id="a_Node000011"><a xlink:title=" ">
<polygon fill="#e0e0e0" stroke="#999999" points="98,-184 0,-184 0,-165 98,-165 98,-184"/>
<text text-anchor="middle" x="49" y="-172" font-family="Helvetica,sans-Serif" font-size="10.00">QDomDocument</text>
</a>
</g>
</g>
<!-- Node1&#45;&gt;Node11 -->
<g id="edge45_Node000001_Node000011" class="edge">
<title>Node1&#45;&gt;Node11</title>
<g id="a_edge45_Node000001_Node000011"><a xlink:title=" ">
<path fill="none" stroke="#63b8ff" d="M550.3,-336.01C500.01,-331.26 395.23,-319.06 310,-294 250.99,-276.65 239.02,-264.4 183,-239 145.62,-222.06 102.83,-201.59 75.86,-188.56"/>
<polygon fill="#63b8ff" stroke="#63b8ff" points="77.21,-185.32 66.68,-184.11 74.16,-191.62 77.21,-185.32"/>
</a>
</g>
</g>
<!-- Node12 -->
<g id="Node000012" class="node">
<title>Node12</title>
<g id="a_Node000012"><a xlink:title=" ">
<polygon fill="#e0e0e0" stroke="#999999" points="472,-184 384,-184 384,-165 472,-165 472,-184"/>
<text text-anchor="middle" x="428" y="-172" font-family="Helvetica,sans-Serif" font-size="10.00">QDomElement</text>
</a>
</g>
</g>
<!-- Node1&#45;&gt;Node12 -->
<g id="edge46_Node000001_Node000012" class="edge">
<title>Node1&#45;&gt;Node12</title>
<g id="a_edge46_Node000001_Node000012"><a xlink:title=" ">
<path fill="none" stroke="#63b8ff" d="M554.82,-329.95C519.99,-316.64 458.33,-287.33 431,-239 423.36,-225.49 423.21,-207.66 424.62,-194.34"/>
<polygon fill="#63b8ff" stroke="#63b8ff" points="428.09,-194.79 426.05,-184.39 421.17,-193.8 428.09,-194.79"/>
</a>
</g>
</g>
<!-- Node14 -->
<g id="Node000014" class="node">
<title>Node14</title>
<g id="a_Node000014"><a xlink:href="exceptions_8hpp.html" target="_top" xlink:title=" ">
<polygon fill="white" stroke="#666666" points="695.5,-184 604.5,-184 604.5,-165 695.5,-165 695.5,-184"/>
<text text-anchor="middle" x="650" y="-172" font-family="Helvetica,sans-Serif" font-size="10.00">exceptions.hpp</text>
</a>
</g>
</g>
<!-- Node1&#45;&gt;Node14 -->
<g id="edge44_Node000001_Node000014" class="edge">
<title>Node1&#45;&gt;Node14</title>
<g id="a_edge44_Node000001_Node000014"><a xlink:title=" ">
<path fill="none" stroke="#63b8ff" d="M601.85,-330C633.59,-316.3 691.24,-286.04 715,-239 725.58,-218.05 701.92,-200.01 680.24,-188.57"/>
<polygon fill="#63b8ff" stroke="#63b8ff" points="681.69,-185.38 671.17,-184.08 678.58,-191.65 681.69,-185.38"/>
</a>
</g>
</g>
<!-- Node17 -->
<g id="Node000017" class="node">
<title>Node17</title>
<g id="a_Node000017"><a xlink:href="input__stream_8hpp.html" target="_top" xlink:title=" ">
<polygon fill="white" stroke="#666666" points="854,-184 752,-184 752,-165 854,-165 854,-184"/>
<text text-anchor="middle" x="803" y="-172" font-family="Helvetica,sans-Serif" font-size="10.00">input_stream.hpp</text>
</a>
</g>
</g>
<!-- Node1&#45;&gt;Node17 -->
<g id="edge20_Node000001_Node000017" class="edge">
<title>Node1&#45;&gt;Node17</title>
<g id="a_edge20_Node000001_Node000017"><a xlink:title=" ">
<path fill="none" stroke="#63b8ff" d="M609.72,-333.83C682.37,-321.73 865.65,-286.97 901,-239 918.84,-214.79 883.09,-197.31 849.87,-186.9"/>
<polygon fill="#63b8ff" stroke="#63b8ff" points="850.75,-183.51 840.17,-184.02 848.76,-190.22 850.75,-183.51"/>
</a>
</g>
</g>
<!-- Node20 -->
<g id="Node000020" class="node">
<title>Node20</title>
<g id="a_Node000020"><a xlink:href="parser_8hpp.html" target="_top" xlink:title=" ">
<polygon fill="white" stroke="#666666" points="614,-294 546,-294 546,-275 614,-275 614,-294"/>
<text text-anchor="middle" x="580" y="-282" font-family="Helvetica,sans-Serif" font-size="10.00">parser.hpp</text>
</a>
</g>
</g>
<!-- Node1&#45;&gt;Node20 -->
<g id="edge25_Node000001_Node000020" class="edge">
<title>Node1&#45;&gt;Node20</title>
<g id="a_edge25_Node000001_Node000020"><a xlink:title=" ">
<path fill="none" stroke="#63b8ff" d="M580,-329.75C580,-322.8 580,-312.85 580,-304.13"/>
<polygon fill="#63b8ff" stroke="#63b8ff" points="583.5,-304.09 580,-294.09 576.5,-304.09 583.5,-304.09"/>
</a>
</g>
</g>
<!-- Node3 -->
<g id="Node000003" class="node">
<title>Node3</title>
<g id="a_Node000003"><a xlink:title=" ">
<polygon fill="#e0e0e0" stroke="#999999" points="817,-19 773,-19 773,0 817,0 817,-19"/>
<text text-anchor="middle" x="795" y="-7" font-family="Helvetica,sans-Serif" font-size="10.00">string</text>
</a>
</g>
</g>
<!-- Node2&#45;&gt;Node3 -->
<g id="edge2_Node000002_Node000003" class="edge">
<title>Node2&#45;&gt;Node3</title>
<g id="a_edge2_Node000002_Node000003"><a xlink:title=" ">
<path fill="none" stroke="#63b8ff" d="M627.74,-54.98C659.81,-46.62 710.32,-33.38 763.11,-19.22"/>
<polygon fill="#63b8ff" stroke="#63b8ff" points="764.24,-22.54 772.99,-16.56 762.43,-15.78 764.24,-22.54"/>
</a>
</g>
</g>
<!-- Node4 -->
<g id="Node000004" class="node">
<title>Node4</title>
<g id="a_Node000004"><a xlink:title=" ">
<polygon fill="#e0e0e0" stroke="#999999" points="443,-19 383,-19 383,0 443,0 443,-19"/>
<text text-anchor="middle" x="413" y="-7" font-family="Helvetica,sans-Serif" font-size="10.00">iostream</text>
</a>
</g>
</g>
<!-- Node2&#45;&gt;Node4 -->
<g id="edge3_Node000002_Node000004" class="edge">
<title>Node2&#45;&gt;Node4</title>
<g id="a_edge3_Node000002_Node000004"><a xlink:title=" ">
<path fill="none" stroke="#63b8ff" d="M565.76,-54.98C534.94,-46.01 486.22,-31.82 452.11,-21.89"/>
<polygon fill="#63b8ff" stroke="#63b8ff" points="453.05,-18.52 442.47,-19.08 451.09,-25.24 453.05,-18.52"/>
</a>
</g>
</g>
<!-- Node5 -->
<g id="Node000005" class="node">
<title>Node5</title>
<g id="a_Node000005"><a xlink:title=" ">
<polygon fill="#e0e0e0" stroke="#999999" points="518.5,-19 461.5,-19 461.5,0 518.5,0 518.5,-19"/>
<text text-anchor="middle" x="490" y="-7" font-family="Helvetica,sans-Serif" font-size="10.00">cwctype</text>
</a>
</g>
</g>
<!-- Node2&#45;&gt;Node5 -->
<g id="edge4_Node000002_Node000005" class="edge">
<title>Node2&#45;&gt;Node5</title>
<g id="a_edge4_Node000002_Node000005"><a xlink:title=" ">
<path fill="none" stroke="#63b8ff" d="M578.13,-54.98C561.39,-46.54 535.5,-33.47 516.11,-23.68"/>
<polygon fill="#63b8ff" stroke="#63b8ff" points="517.68,-20.55 507.18,-19.17 514.53,-26.8 517.68,-20.55"/>
</a>
</g>
</g>
<!-- Node6 -->
<g id="Node000006" class="node">
<title>Node6</title>
<g id="a_Node000006"><a xlink:title=" ">
<polygon fill="#e0e0e0" stroke="#999999" points="585.5,-19 536.5,-19 536.5,0 585.5,0 585.5,-19"/>
<text text-anchor="middle" x="561" y="-7" font-family="Helvetica,sans-Serif" font-size="10.00">cctype</text>
</a>
</g>
</g>
<!-- Node2&#45;&gt;Node6 -->
<g id="edge5_Node000002_Node000006" class="edge">
<title>Node2&#45;&gt;Node6</title>
<g id="a_edge5_Node000002_Node000006"><a xlink:title=" ">
<path fill="none" stroke="#63b8ff" d="M589.39,-54.75C584.68,-47.42 577.83,-36.73 572.03,-27.7"/>
<polygon fill="#63b8ff" stroke="#63b8ff" points="574.86,-25.62 566.51,-19.09 568.96,-29.4 574.86,-25.62"/>
</a>
</g>
</g>
<!-- Node7 -->
<g id="Node000007" class="node">
<title>Node7</title>
<g id="a_Node000007"><a xlink:title=" ">
<polygon fill="#e0e0e0" stroke="#999999" points="249.5,-19 202.5,-19 202.5,0 249.5,0 249.5,-19"/>
<text text-anchor="middle" x="226" y="-7" font-family="Helvetica,sans-Serif" font-size="10.00">vector</text>
</a>
</g>
</g>
<!-- Node2&#45;&gt;Node7 -->
<g id="edge6_Node000002_Node000007" class="edge">
<title>Node2&#45;&gt;Node7</title>
<g id="a_edge6_Node000002_Node000007"><a xlink:title=" ">
<path fill="none" stroke="#63b8ff" d="M562.25,-58.8C492.63,-48.8 330.49,-25.51 259.88,-15.37"/>
<polygon fill="#63b8ff" stroke="#63b8ff" points="260.15,-11.87 249.75,-13.91 259.15,-18.8 260.15,-11.87"/>
</a>
</g>
</g>
<!-- Node8 -->
<g id="Node000008" class="node">
<title>Node8</title>
<g id="a_Node000008"><a xlink:title=" ">
<polygon fill="#e0e0e0" stroke="#999999" points="656.5,-19 603.5,-19 603.5,0 656.5,0 656.5,-19"/>
<text text-anchor="middle" x="630" y="-7" font-family="Helvetica,sans-Serif" font-size="10.00">QString</text>
</a>
</g>
</g>
<!-- Node2&#45;&gt;Node8 -->
<g id="edge7_Node000002_Node000008" class="edge">
<title>Node2&#45;&gt;Node8</title>
<g id="a_edge7_Node000002_Node000008"><a xlink:title=" ">
<path fill="none" stroke="#63b8ff" d="M600.78,-54.75C605.62,-47.42 612.68,-36.73 618.64,-27.7"/>
<polygon fill="#63b8ff" stroke="#63b8ff" points="621.74,-29.36 624.33,-19.09 615.9,-25.5 621.74,-29.36"/>
</a>
</g>
</g>
<!-- Node9 -->
<g id="Node000009" class="node">
<title>Node9</title>
<g id="a_Node000009"><a xlink:title=" ">
<polygon fill="#e0e0e0" stroke="#999999" points="755,-19 675,-19 675,0 755,0 755,-19"/>
<text text-anchor="middle" x="715" y="-7" font-family="Helvetica,sans-Serif" font-size="10.00">QTextStream</text>
</a>
</g>
</g>
<!-- Node2&#45;&gt;Node9 -->
<g id="edge8_Node000002_Node000009" class="edge">
<title>Node2&#45;&gt;Node9</title>
<g id="a_edge8_Node000002_Node000009"><a xlink:title=" ">
<path fill="none" stroke="#63b8ff" d="M614.28,-54.98C633.67,-46.42 663.81,-33.11 686.07,-23.28"/>
<polygon fill="#63b8ff" stroke="#63b8ff" points="687.64,-26.41 695.37,-19.17 684.81,-20.01 687.64,-26.41"/>
</a>
</g>
</g>
<!-- Node10&#45;&gt;Node2 -->
<g id="edge14_Node000010_Node000002" class="edge">
<title>Node10&#45;&gt;Node2</title>
<g id="a_edge14_Node000010_Node000002"><a xlink:title=" ">
<path fill="none" stroke="#63b8ff" d="M282.2,-219.65C270.47,-206.76 252.56,-182.47 265,-165 298.71,-117.67 471.17,-84.89 552.48,-71.82"/>
<polygon fill="#63b8ff" stroke="#63b8ff" points="553.06,-75.27 562.39,-70.25 551.97,-68.36 553.06,-75.27"/>
</a>
</g>
</g>
<!-- Node10&#45;&gt;Node7 -->
<g id="edge18_Node000010_Node000007" class="edge">
<title>Node10&#45;&gt;Node7</title>
<g id="a_edge18_Node000010_Node000007"><a xlink:title=" ">
<path fill="none" stroke="#63b8ff" d="M264.42,-224.24C226.35,-217.54 159.27,-203.27 145,-184 106.17,-131.57 174.49,-57.55 208.49,-25.87"/>
<polygon fill="#63b8ff" stroke="#63b8ff" points="210.89,-28.41 215.93,-19.1 206.18,-23.24 210.89,-28.41"/>
</a>
</g>
</g>
<!-- Node10&#45;&gt;Node11 -->
<g id="edge10_Node000010_Node000011" class="edge">
<title>Node10&#45;&gt;Node11</title>
<g id="a_edge10_Node000010_Node000011"><a xlink:title=" ">
<path fill="none" stroke="#63b8ff" d="M264.18,-222.63C224.11,-213.85 147.99,-197.18 97.87,-186.2"/>
<polygon fill="#63b8ff" stroke="#63b8ff" points="98.42,-182.74 87.91,-184.02 96.93,-189.58 98.42,-182.74"/>
</a>
</g>
</g>
<!-- Node10&#45;&gt;Node12 -->
<g id="edge11_Node000010_Node000012" class="edge">
<title>Node10&#45;&gt;Node12</title>
<g id="a_edge11_Node000010_Node000012"><a xlink:title=" ">
<path fill="none" stroke="#63b8ff" d="M313.01,-219.98C335.45,-211.3 370.48,-197.75 395.99,-187.88"/>
<polygon fill="#63b8ff" stroke="#63b8ff" points="397.52,-191.04 405.59,-184.17 395,-184.51 397.52,-191.04"/>
</a>
</g>
</g>
<!-- Node13 -->
<g id="Node000013" class="node">
<title>Node13</title>
<g id="a_Node000013"><a xlink:href="parser__info_8hpp.html" target="_top" xlink:title=" ">
<polygon fill="white" stroke="#666666" points="366,-184 274,-184 274,-165 366,-165 366,-184"/>
<text text-anchor="middle" x="320" y="-172" font-family="Helvetica,sans-Serif" font-size="10.00">parser_info.hpp</text>
</a>
</g>
</g>
<!-- Node10&#45;&gt;Node13 -->
<g id="edge12_Node000010_Node000013" class="edge">
<title>Node10&#45;&gt;Node13</title>
<g id="a_edge12_Node000010_Node000013"><a xlink:title=" ">
<path fill="none" stroke="#63b8ff" d="M295.79,-219.75C299.76,-212.49 305.53,-201.95 310.43,-192.98"/>
<polygon fill="#63b8ff" stroke="#63b8ff" points="313.57,-194.54 315.3,-184.09 307.43,-191.18 313.57,-194.54"/>
</a>
</g>
</g>
<!-- Node10&#45;&gt;Node14 -->
<g id="edge15_Node000010_Node000014" class="edge">
<title>Node10&#45;&gt;Node14</title>
<g id="a_edge15_Node000010_Node000014"><a xlink:title=" ">
<path fill="none" stroke="#63b8ff" d="M317.69,-224.56C376.01,-215.95 515.84,-195.31 594.27,-183.73"/>
<polygon fill="#63b8ff" stroke="#63b8ff" points="595.06,-187.15 604.44,-182.23 594.04,-180.22 595.06,-187.15"/>
</a>
</g>
</g>
<!-- Node16 -->
<g id="Node000016" class="node">
<title>Node16</title>
<g id="a_Node000016"><a xlink:title=" ">
<polygon fill="#e0e0e0" stroke="#999999" points="218,-184 154,-184 154,-165 218,-165 218,-184"/>
<text text-anchor="middle" x="186" y="-172" font-family="Helvetica,sans-Serif" font-size="10.00">algorithm</text>
</a>
</g>
</g>
<!-- Node10&#45;&gt;Node16 -->
<g id="edge19_Node000010_Node000016" class="edge">
<title>Node10&#45;&gt;Node16</title>
<g id="a_edge19_Node000010_Node000016"><a xlink:title=" ">
<path fill="none" stroke="#63b8ff" d="M274.13,-219.98C257.39,-211.54 231.5,-198.47 212.11,-188.68"/>
<polygon fill="#63b8ff" stroke="#63b8ff" points="213.68,-185.55 203.18,-184.17 210.53,-191.8 213.68,-185.55"/>
</a>
</g>
</g>
<!-- Node13&#45;&gt;Node2 -->
<g id="edge13_Node000013_Node000002" class="edge">
<title>Node13&#45;&gt;Node2</title>
<g id="a_edge13_Node000013_Node000002"><a xlink:title=" ">
<path fill="none" stroke="#63b8ff" d="M340.47,-164.86C370.05,-152.43 426.51,-128.92 475,-110 504.11,-98.64 537.45,-86.34 561.59,-77.55"/>
<polygon fill="#63b8ff" stroke="#63b8ff" points="562.8,-80.83 571,-74.13 560.41,-74.25 562.8,-80.83"/>
</a>
</g>
</g>
<!-- Node14&#45;&gt;Node2 -->
<g id="edge17_Node000014_Node000002" class="edge">
<title>Node14&#45;&gt;Node2</title>
<g id="a_edge17_Node000014_Node000002"><a xlink:title=" ">
<path fill="none" stroke="#63b8ff" d="M645.5,-164.66C636.47,-146.93 616,-106.73 604.07,-83.32"/>
<polygon fill="#63b8ff" stroke="#63b8ff" points="607.07,-81.48 599.41,-74.16 600.83,-84.66 607.07,-81.48"/>
</a>
</g>
</g>
<!-- Node15 -->
<g id="Node000015" class="node">
<title>Node15</title>
<g id="a_Node000015"><a xlink:title=" ">
<polygon fill="#e0e0e0" stroke="#999999" points="707.5,-129 642.5,-129 642.5,-110 707.5,-110 707.5,-129"/>
<text text-anchor="middle" x="675" y="-117" font-family="Helvetica,sans-Serif" font-size="10.00">stdexcept</text>
</a>
</g>
</g>
<!-- Node14&#45;&gt;Node15 -->
<g id="edge16_Node000014_Node000015" class="edge">
<title>Node14&#45;&gt;Node15</title>
<g id="a_edge16_Node000014_Node000015"><a xlink:title=" ">
<path fill="none" stroke="#63b8ff" d="M654.13,-164.75C657.51,-157.57 662.42,-147.18 666.62,-138.27"/>
<polygon fill="#63b8ff" stroke="#63b8ff" points="669.85,-139.63 670.95,-129.09 663.52,-136.64 669.85,-139.63"/>
</a>
</g>
</g>
<!-- Node17&#45;&gt;Node2 -->
<g id="edge21_Node000017_Node000002" class="edge">
<title>Node17&#45;&gt;Node2</title>
<g id="a_edge21_Node000017_Node000002"><a xlink:title=" ">
<path fill="none" stroke="#63b8ff" d="M802.23,-164.66C800.54,-150.88 795.25,-124.35 779,-110 740.02,-75.58 678.93,-66.71 637.96,-64.95"/>
<polygon fill="#63b8ff" stroke="#63b8ff" points="637.85,-61.45 627.74,-64.64 637.63,-68.44 637.85,-61.45"/>
</a>
</g>
</g>
<!-- Node18 -->
<g id="Node000018" class="node">
<title>Node18</title>
<g id="a_Node000018"><a xlink:href="const_8hpp.html" target="_top" xlink:title=" ">
<polygon fill="white" stroke="#666666" points="548,-129 484,-129 484,-110 548,-110 548,-129"/>
<text text-anchor="middle" x="516" y="-117" font-family="Helvetica,sans-Serif" font-size="10.00">const.hpp</text>
</a>
</g>
</g>
<!-- Node17&#45;&gt;Node18 -->
<g id="edge22_Node000017_Node000018" class="edge">
<title>Node17&#45;&gt;Node18</title>
<g id="a_edge22_Node000017_Node000018"><a xlink:title=" ">
<path fill="none" stroke="#63b8ff" d="M756.89,-164.98C702.07,-154.86 611.36,-138.11 558.29,-128.31"/>
<polygon fill="#63b8ff" stroke="#63b8ff" points="558.66,-124.82 548.19,-126.45 557.39,-131.7 558.66,-124.82"/>
</a>
</g>
</g>
<!-- Node19 -->
<g id="Node000019" class="node">
<title>Node19</title>
<g id="a_Node000019"><a xlink:title=" ">
<polygon fill="#e0e0e0" stroke="#999999" points="770.5,-129 727.5,-129 727.5,-110 770.5,-110 770.5,-129"/>
<text text-anchor="middle" x="749" y="-117" font-family="Helvetica,sans-Serif" font-size="10.00">stack</text>
</a>
</g>
</g>
<!-- Node17&#45;&gt;Node19 -->
<g id="edge24_Node000017_Node000019" class="edge">
<title>Node17&#45;&gt;Node19</title>
<g id="a_edge24_Node000017_Node000019"><a xlink:title=" ">
<path fill="none" stroke="#63b8ff" d="M794.08,-164.75C786.22,-157.03 774.57,-145.6 765.08,-136.28"/>
<polygon fill="#63b8ff" stroke="#63b8ff" points="767.34,-133.6 757.75,-129.09 762.44,-138.59 767.34,-133.6"/>
</a>
</g>
</g>
<!-- Node18&#45;&gt;Node2 -->
<g id="edge23_Node000018_Node000002" class="edge">
<title>Node18&#45;&gt;Node2</title>
<g id="a_edge23_Node000018_Node000002"><a xlink:title=" ">
<path fill="none" stroke="#63b8ff" d="M528.69,-109.98C540.83,-101.84 559.36,-89.41 573.75,-79.76"/>
<polygon fill="#63b8ff" stroke="#63b8ff" points="575.72,-82.65 582.08,-74.17 571.82,-76.84 575.72,-82.65"/>
</a>
</g>
</g>
<!-- Node20&#45;&gt;Node2 -->
<g id="edge26_Node000020_Node000002" class="edge">
<title>Node20&#45;&gt;Node2</title>
<g id="a_edge26_Node000020_Node000002"><a xlink:title=" ">
<path fill="none" stroke="#63b8ff" d="M614.06,-284.13C688.91,-284.72 864.05,-281.43 901,-239 943.7,-189.97 888.27,-142.57 832,-110 770.94,-74.66 687.57,-66.57 637.73,-65.16"/>
<polygon fill="#63b8ff" stroke="#63b8ff" points="637.69,-61.66 627.62,-64.95 637.54,-68.66 637.69,-61.66"/>
</a>
</g>
</g>
<!-- Node20&#45;&gt;Node10 -->
<g id="edge28_Node000020_Node000010" class="edge">
<title>Node20&#45;&gt;Node10</title>
<g id="a_edge28_Node000020_Node000010"><a xlink:title=" ">
<path fill="none" stroke="#63b8ff" d="M546,-277.26C491.22,-267.22 383.88,-247.53 327.53,-237.2"/>
<polygon fill="#63b8ff" stroke="#63b8ff" points="328.09,-233.74 317.62,-235.38 326.83,-240.63 328.09,-233.74"/>
</a>
</g>
</g>
<!-- Node20&#45;&gt;Node11 -->
<g id="edge42_Node000020_Node000011" class="edge">
<title>Node20&#45;&gt;Node11</title>
<g id="a_edge42_Node000020_Node000011"><a xlink:title=" ">
<path fill="none" stroke="#63b8ff" d="M545.99,-280.68C486.48,-275.35 359.82,-262.17 255,-239 192.85,-225.26 122.35,-201.75 82.03,-187.51"/>
<polygon fill="#63b8ff" stroke="#63b8ff" points="83.05,-184.16 72.45,-184.11 80.7,-190.76 83.05,-184.16"/>
</a>
</g>
</g>
<!-- Node20&#45;&gt;Node12 -->
<g id="edge43_Node000020_Node000012" class="edge">
<title>Node20&#45;&gt;Node12</title>
<g id="a_edge43_Node000020_Node000012"><a xlink:title=" ">
<path fill="none" stroke="#63b8ff" d="M545.86,-280.97C515.57,-276.91 472.18,-266.37 446,-239 434.5,-226.98 430.25,-208.17 428.73,-194.14"/>
<polygon fill="#63b8ff" stroke="#63b8ff" points="432.22,-193.85 428.01,-184.13 425.24,-194.35 432.22,-193.85"/>
</a>
</g>
</g>
<!-- Node20&#45;&gt;Node13 -->
<g id="edge34_Node000020_Node000013" class="edge">
<title>Node20&#45;&gt;Node13</title>
<g id="a_edge34_Node000020_Node000013"><a xlink:title=" ">
<path fill="none" stroke="#63b8ff" d="M545.79,-275.66C515.07,-268.07 469.09,-255.33 431,-239 398.32,-225 363.1,-203.67 341.3,-189.66"/>
<polygon fill="#63b8ff" stroke="#63b8ff" points="343.11,-186.66 332.82,-184.14 339.29,-192.53 343.11,-186.66"/>
</a>
</g>
</g>
<!-- Node20&#45;&gt;Node14 -->
<g id="edge29_Node000020_Node000014" class="edge">
<title>Node20&#45;&gt;Node14</title>
<g id="a_edge29_Node000020_Node000014"><a xlink:title=" ">
<path fill="none" stroke="#63b8ff" d="M585.73,-274.66C597.32,-256.77 623.75,-216 638.86,-192.69"/>
<polygon fill="#63b8ff" stroke="#63b8ff" points="641.89,-194.45 644.39,-184.16 636.01,-190.65 641.89,-194.45"/>
</a>
</g>
</g>
<!-- Node20&#45;&gt;Node17 -->
<g id="edge27_Node000020_Node000017" class="edge">
<title>Node20&#45;&gt;Node17</title>
<g id="a_edge27_Node000020_Node000017"><a xlink:title=" ">
<path fill="none" stroke="#63b8ff" d="M614.22,-280.42C649.93,-275.89 706.41,-264.96 748,-239 766.67,-227.34 782.45,-207.36 792.25,-192.92"/>
<polygon fill="#63b8ff" stroke="#63b8ff" points="795.29,-194.66 797.8,-184.37 789.42,-190.85 795.29,-194.66"/>
</a>
</g>
</g>
<!-- Node20&#45;&gt;Node18 -->
<g id="edge35_Node000020_Node000018" class="edge">
<title>Node20&#45;&gt;Node18</title>
<g id="a_edge35_Node000020_Node000018"><a xlink:title=" ">
<path fill="none" stroke="#63b8ff" d="M545.61,-278.21C522.49,-272.67 493.65,-261.47 479,-239 468.04,-222.2 492.58,-167.18 506.79,-138.4"/>
<polygon fill="#63b8ff" stroke="#63b8ff" points="510.1,-139.61 511.47,-129.11 503.85,-136.46 510.1,-139.61"/>
</a>
</g>
</g>
<!-- Node20&#45;&gt;Node19 -->
<g id="edge41_Node000020_Node000019" class="edge">
<title>Node20&#45;&gt;Node19</title>
<g id="a_edge41_Node000020_Node000019"><a xlink:title=" ">
<path fill="none" stroke="#63b8ff" d="M614.08,-281.06C644.59,-277.07 688.49,-266.57 715,-239 728.81,-224.64 740.52,-168.47 745.88,-138.92"/>
<polygon fill="#63b8ff" stroke="#63b8ff" points="749.33,-139.49 747.61,-129.03 742.44,-138.28 749.33,-139.49"/>
</a>
</g>
</g>
<!-- Node21 -->
<g id="Node000021" class="node">
<title>Node21</title>
<g id="a_Node000021"><a xlink:href="lex_8hpp.html" target="_top" xlink:title=" ">
<polygon fill="white" stroke="#666666" points="891.5,-239 838.5,-239 838.5,-220 891.5,-220 891.5,-239"/>
<text text-anchor="middle" x="865" y="-227" font-family="Helvetica,sans-Serif" font-size="10.00">lex.hpp</text>
</a>
</g>
</g>
<!-- Node20&#45;&gt;Node21 -->
<g id="edge30_Node000020_Node000021" class="edge">
<title>Node20&#45;&gt;Node21</title>
<g id="a_edge30_Node000020_Node000021"><a xlink:title=" ">
<path fill="none" stroke="#63b8ff" d="M614.09,-277.16C668.09,-267.12 772.83,-247.64 828.37,-237.31"/>
<polygon fill="#63b8ff" stroke="#63b8ff" points="829.28,-240.7 838.47,-235.43 828,-233.82 829.28,-240.7"/>
</a>
</g>
</g>
<!-- Node22 -->
<g id="Node000022" class="node">
<title>Node22</title>
<g id="a_Node000022"><a xlink:href="string__format_8hpp.html" target="_top" xlink:title=" ">
<polygon fill="white" stroke="#666666" points="592,-239 488,-239 488,-220 592,-220 592,-239"/>
<text text-anchor="middle" x="540" y="-227" font-family="Helvetica,sans-Serif" font-size="10.00">string_format.hpp</text>
</a>
</g>
</g>
<!-- Node20&#45;&gt;Node22 -->
<g id="edge36_Node000020_Node000022" class="edge">
<title>Node20&#45;&gt;Node22</title>
<g id="a_edge36_Node000020_Node000022"><a xlink:title=" ">
<path fill="none" stroke="#63b8ff" d="M573.39,-274.75C567.74,-267.26 559.46,-256.28 552.55,-247.13"/>
<polygon fill="#63b8ff" stroke="#63b8ff" points="555.3,-244.96 546.48,-239.09 549.71,-249.18 555.3,-244.96"/>
</a>
</g>
</g>
<!-- Node23 -->
<g id="Node000023" class="node">
<title>Node23</title>
<g id="a_Node000023"><a xlink:title=" ">
<polygon fill="#e0e0e0" stroke="#999999" points="706,-239 648,-239 648,-220 706,-220 706,-239"/>
<text text-anchor="middle" x="677" y="-227" font-family="Helvetica,sans-Serif" font-size="10.00">memory</text>
</a>
</g>
</g>
<!-- Node20&#45;&gt;Node23 -->
<g id="edge40_Node000020_Node000023" class="edge">
<title>Node20&#45;&gt;Node23</title>
<g id="a_edge40_Node000020_Node000023"><a xlink:title=" ">
<path fill="none" stroke="#63b8ff" d="M595.58,-274.98C610.77,-266.69 634.1,-253.94 651.9,-244.22"/>
<polygon fill="#63b8ff" stroke="#63b8ff" points="654.03,-247.04 661.13,-239.17 650.68,-240.89 654.03,-247.04"/>
</a>
</g>
</g>
<!-- Node21&#45;&gt;Node2 -->
<g id="edge31_Node000021_Node000002" class="edge">
<title>Node21&#45;&gt;Node2</title>
<g id="a_edge31_Node000021_Node000002"><a xlink:title=" ">
<path fill="none" stroke="#63b8ff" d="M866.82,-219.78C869.03,-207.05 871.5,-182.94 863,-165 847.09,-131.41 833.21,-126.69 800,-110 747.84,-83.79 680.64,-72.95 637.67,-68.52"/>
<polygon fill="#63b8ff" stroke="#63b8ff" points="637.85,-65.02 627.56,-67.54 637.18,-71.99 637.85,-65.02"/>
</a>
</g>
</g>
<!-- Node21&#45;&gt;Node14 -->
<g id="edge33_Node000021_Node000014" class="edge">
<title>Node21&#45;&gt;Node14</title>
<g id="a_edge33_Node000021_Node000014"><a xlink:title=" ">
<path fill="none" stroke="#63b8ff" d="M838.2,-221.89C802.18,-213.01 737.64,-197.11 694.32,-186.43"/>
<polygon fill="#63b8ff" stroke="#63b8ff" points="695.16,-183.03 684.61,-184.03 693.48,-189.82 695.16,-183.03"/>
</a>
</g>
</g>
<!-- Node21&#45;&gt;Node17 -->
<g id="edge32_Node000021_Node000017" class="edge">
<title>Node21&#45;&gt;Node17</title>
<g id="a_edge32_Node000021_Node000017"><a xlink:title=" ">
<path fill="none" stroke="#63b8ff" d="M855.04,-219.98C845.87,-212.15 832.06,-200.34 820.97,-190.86"/>
<polygon fill="#63b8ff" stroke="#63b8ff" points="823.02,-188.01 813.14,-184.17 818.47,-193.33 823.02,-188.01"/>
</a>
</g>
</g>
<!-- Node22&#45;&gt;Node2 -->
<g id="edge37_Node000022_Node000002" class="edge">
<title>Node22&#45;&gt;Node2</title>
<g id="a_edge37_Node000022_Node000002"><a xlink:title=" ">
<path fill="none" stroke="#63b8ff" d="M542.96,-219.74C551.57,-194.2 576.8,-119.43 588.68,-84.23"/>
<polygon fill="#63b8ff" stroke="#63b8ff" points="592.15,-84.9 592.03,-74.31 585.51,-82.66 592.15,-84.9"/>
</a>
</g>
</g>
<!-- Node22&#45;&gt;Node14 -->
<g id="edge39_Node000022_Node000014" class="edge">
<title>Node22&#45;&gt;Node14</title>
<g id="a_edge39_Node000022_Node000014"><a xlink:title=" ">
<path fill="none" stroke="#63b8ff" d="M557.67,-219.98C575.29,-211.5 602.58,-198.35 622.93,-188.54"/>
<polygon fill="#63b8ff" stroke="#63b8ff" points="624.52,-191.66 632.01,-184.17 621.48,-185.36 624.52,-191.66"/>
</a>
</g>
</g>
<!-- Node22&#45;&gt;Node18 -->
<g id="edge38_Node000022_Node000018" class="edge">
<title>Node22&#45;&gt;Node18</title>
<g id="a_edge38_Node000022_Node000018"><a xlink:title=" ">
<path fill="none" stroke="#63b8ff" d="M538.04,-219.66C534.13,-202.09 525.32,-162.45 520.1,-138.95"/>
<polygon fill="#63b8ff" stroke="#63b8ff" points="523.51,-138.16 517.92,-129.16 516.68,-139.68 523.51,-138.16"/>
</a>
</g>
</g>
</g>
</svg>

<g id="navigator" transform="translate(0 0)" fill="#404254">
  <rect fill="#f2f5e9" fill-opacity="0.5" stroke="#606060" stroke-width=".5" x="0" y="0" width="60" height="60"/>
  <use id="zoomplus" xlink:href="#zoomPlus" x="17" y="9" onmousedown="handleZoom(evt,'in')"/>
  <use id="zoomminus" xlink:href="#zoomMin" x="42" y="9" onmousedown="handleZoom(evt,'out')"/>
  <use id="reset" xlink:href="#resetDef" x="30" y="36" onmousedown="handleReset()"/>
   <use id="arrowup" xlink:href="#arrowUp" x="0" y="0" onmousedown="handlePan(0,-1)"/>
  <use id="arrowright" xlink:href="#arrowRight" x="0" y="0" onmousedown="handlePan(1,0)"/>
  <use id="arrowdown" xlink:href="#arrowDown" x="0" y="0" onmousedown="handlePan(0,1)"/>
  <use id="arrowleft" xlink:href="#arrowLeft" x="0" y="0" onmousedown="handlePan(-1,0)"/>
</g>
<svg viewBox="0 0 15 15" width="100%" height="30px" preserveAspectRatio="xMaxYMin meet">
 <g id="arrow_out" transform="scale(0.3 0.3)">
  <a xlink:href="utils_8hpp__incl_org.svg" target="_base">
   <rect id="button" ry="5" rx="5" y="6" x="6" height="38" width="38"
        fill="#f2f5e9" fill-opacity="0.5" stroke="#606060" stroke-width="1.0"/>
   <path id="arrow"
     d="M 11.500037,31.436501 C 11.940474,20.09759 22.043105,11.32322 32.158766,21.979434 L 37.068811,17.246167 C 37.068811,17.246167 37.088388,32 37.088388,32 L 22.160133,31.978069 C 22.160133,31.978069 26.997745,27.140456 26.997745,27.140456 C 18.528582,18.264221 13.291696,25.230495 11.500037,31.436501 z"
     style="fill:#404040;"/>
  </a>
 </g>
</svg>

<style type='text/css'>
<![CDATA[
[data-mouse-over-selected='false'] { opacity: 0.7; }
[data-mouse-over-selected='true']  { opacity: 1.0; }
]]>
</style>
<script type="application/ecmascript"><![CDATA[
document.addEventListener('DOMContentLoaded', (event) => {
  highlightEdges();
  highlightAdjacentNodes();
});
]]></script>
</svg>
